%TF.GenerationSoftware,KiCad,Pcbnew,7.0.2*%
%TF.CreationDate,2023-06-14T22:37:39-04:00*%
%TF.ProjectId,WeatherPill,57656174-6865-4725-9069-6c6c2e6b6963,rev?*%
%TF.SameCoordinates,Original*%
%TF.FileFunction,Copper,L2,Bot*%
%TF.FilePolarity,Positive*%
%FSLAX46Y46*%
G04 Gerber Fmt 4.6, Leading zero omitted, Abs format (unit mm)*
G04 Created by KiCad (PCBNEW 7.0.2) date 2023-06-14 22:37:39*
%MOMM*%
%LPD*%
G01*
G04 APERTURE LIST*
G04 Aperture macros list*
%AMRoundRect*
0 Rectangle with rounded corners*
0 $1 Rounding radius*
0 $2 $3 $4 $5 $6 $7 $8 $9 X,Y pos of 4 corners*
0 Add a 4 corners polygon primitive as box body*
4,1,4,$2,$3,$4,$5,$6,$7,$8,$9,$2,$3,0*
0 Add four circle primitives for the rounded corners*
1,1,$1+$1,$2,$3*
1,1,$1+$1,$4,$5*
1,1,$1+$1,$6,$7*
1,1,$1+$1,$8,$9*
0 Add four rect primitives between the rounded corners*
20,1,$1+$1,$2,$3,$4,$5,0*
20,1,$1+$1,$4,$5,$6,$7,0*
20,1,$1+$1,$6,$7,$8,$9,0*
20,1,$1+$1,$8,$9,$2,$3,0*%
G04 Aperture macros list end*
%TA.AperFunction,ComponentPad*%
%ADD10O,1.700000X1.700000*%
%TD*%
%TA.AperFunction,ComponentPad*%
%ADD11R,1.700000X1.700000*%
%TD*%
%TA.AperFunction,ComponentPad*%
%ADD12RoundRect,0.250000X-0.250000X-0.250000X0.250000X-0.250000X0.250000X0.250000X-0.250000X0.250000X0*%
%TD*%
%TA.AperFunction,ComponentPad*%
%ADD13O,1.800000X0.900000*%
%TD*%
%TA.AperFunction,ComponentPad*%
%ADD14O,2.100000X1.050000*%
%TD*%
%TA.AperFunction,ViaPad*%
%ADD15C,0.500000*%
%TD*%
%TA.AperFunction,Conductor*%
%ADD16C,0.250000*%
%TD*%
%TA.AperFunction,Conductor*%
%ADD17C,0.300000*%
%TD*%
G04 APERTURE END LIST*
D10*
%TO.P,J1,10,Pin_10*%
%TO.N,NRST*%
X55118000Y-164592000D03*
%TO.P,J1,9,Pin_9*%
%TO.N,GND*%
X52578000Y-164592000D03*
%TO.P,J1,8,Pin_8*%
%TO.N,unconnected-(J1-Pin_8-Pad8)*%
X55118000Y-167132000D03*
%TO.P,J1,7,Pin_7*%
%TO.N,unconnected-(J1-Pin_7-Pad7)*%
X52578000Y-167132000D03*
%TO.P,J1,6,Pin_6*%
%TO.N,SWO*%
X55118000Y-169672000D03*
%TO.P,J1,5,Pin_5*%
%TO.N,GND*%
X52578000Y-169672000D03*
%TO.P,J1,4,Pin_4*%
%TO.N,SWCLK*%
X55118000Y-172212000D03*
%TO.P,J1,3,Pin_3*%
%TO.N,GND*%
X52578000Y-172212000D03*
%TO.P,J1,2,Pin_2*%
%TO.N,SWDIO*%
X55118000Y-174752000D03*
D11*
%TO.P,J1,1,Pin_1*%
%TO.N,POWER_IN*%
X52578000Y-174752000D03*
%TD*%
%TO.P,J5,1,Pin_1*%
%TO.N,Net-(J5-Pin_1)*%
X78740000Y-140462000D03*
D10*
%TO.P,J5,2,Pin_2*%
%TO.N,GND*%
X78740000Y-143002000D03*
%TD*%
D12*
%TO.P,L1,1,0*%
%TO.N,Net-(L1-0)*%
X117348000Y-165608000D03*
%TO.P,L1,2,1*%
%TO.N,Net-(L1-1)*%
X119348000Y-165608000D03*
%TO.P,L1,3,2*%
%TO.N,Net-(L1-2)*%
X121348000Y-165608000D03*
%TO.P,L1,4,3*%
%TO.N,Net-(L1-3)*%
X123348000Y-165608000D03*
%TO.P,L1,5,4*%
%TO.N,Net-(L1-4)*%
X125348000Y-165608000D03*
%TO.P,L1,6,E*%
%TO.N,Net-(L1-E)*%
X125348000Y-154528000D03*
%TO.P,L1,7,D*%
%TO.N,Net-(L1-D)*%
X123348000Y-154528000D03*
%TO.P,L1,8,C*%
%TO.N,Net-(L1-C)*%
X121348000Y-154528000D03*
%TO.P,L1,9,B*%
%TO.N,Net-(L1-B)*%
X119348000Y-154528000D03*
%TO.P,L1,10,A*%
%TO.N,Net-(L1-A)*%
X117348000Y-154528000D03*
%TD*%
D13*
%TO.P,J3,SH4*%
%TO.N,N/C*%
X52654000Y-161407000D03*
%TO.P,J3,SH3*%
X52654000Y-152767000D03*
D14*
%TO.P,J3,SH2*%
X56834000Y-161407000D03*
%TO.P,J3,SH1*%
X56834000Y-152767000D03*
%TD*%
D15*
%TO.N,GND*%
X104648000Y-140970000D03*
X92202000Y-155448000D03*
X92329000Y-163068000D03*
%TO.N,V_BUS_3V*%
X62230000Y-151384000D03*
X78232000Y-159766000D03*
X72390000Y-171704000D03*
X83312000Y-136906000D03*
X65024000Y-171704000D03*
%TO.N,Net-(J5-Pin_1)*%
X73660000Y-136652000D03*
X53086000Y-136652000D03*
%TO.N,GND*%
X50800000Y-158750000D03*
X82550000Y-141478000D03*
X78232000Y-154432000D03*
X114300000Y-133350000D03*
X59436000Y-167640000D03*
X85090000Y-161036000D03*
X82804000Y-158242000D03*
X88392000Y-148590000D03*
X93980000Y-144526000D03*
X76962000Y-167132000D03*
X58547000Y-153924000D03*
X50800000Y-146050000D03*
X127508000Y-143510000D03*
X81026000Y-160020000D03*
X115824000Y-161544000D03*
X123190000Y-149098000D03*
X86106000Y-138176000D03*
X76200000Y-133350000D03*
X101854000Y-163957000D03*
X64008000Y-159258000D03*
X112014000Y-141998500D03*
X96266000Y-137414000D03*
X107950000Y-166116000D03*
X114300000Y-173736000D03*
X127508000Y-133350000D03*
X58547000Y-160274000D03*
X113030000Y-151257000D03*
X65897000Y-150511000D03*
X87884000Y-152654000D03*
X86868000Y-152654000D03*
X71374000Y-148590000D03*
X75438000Y-148590000D03*
X99060000Y-142494000D03*
X127508000Y-173736000D03*
X65024000Y-155956000D03*
X55626000Y-133350000D03*
X50800000Y-171450000D03*
X113284000Y-156210000D03*
X92710000Y-148590000D03*
X116459000Y-144652500D03*
X82550000Y-133350000D03*
X77724000Y-158242000D03*
X88392000Y-144526000D03*
X98298000Y-148590000D03*
X59436000Y-171450000D03*
X82550000Y-173736000D03*
%TO.N,SDA_1*%
X84836000Y-154686000D03*
X80772000Y-161036000D03*
%TO.N,CS_1*%
X84836000Y-151384000D03*
X98044000Y-134620000D03*
%TO.N,CS_2*%
X98044000Y-144780000D03*
X95250000Y-150368000D03*
%TO.N,SDI_1*%
X92964000Y-147320000D03*
X98044000Y-137160000D03*
%TO.N,SDO_1*%
X98044000Y-140716000D03*
X97790000Y-149860000D03*
%TO.N,BTN_1*%
X61976000Y-154686000D03*
X63098411Y-161523411D03*
%TO.N,BTN_2*%
X62843023Y-162411023D03*
X64770000Y-154394000D03*
%TO.N,BOOT*%
X78232000Y-161290000D03*
X89408000Y-140462000D03*
%TO.N,V_BUS_ZONE_1*%
X113919000Y-144526000D03*
X77470000Y-165100000D03*
%TO.N,SDA_DISPLAY*%
X105918000Y-159766000D03*
X103886000Y-155448000D03*
%TO.N,SCL_DISPLAY*%
X103124000Y-157480000D03*
X105156000Y-158750000D03*
%TO.N,NRST*%
X57912000Y-163322000D03*
X76708000Y-157226000D03*
%TO.N,V_BUS_ZONE_2*%
X127508000Y-159258000D03*
X111506000Y-139700000D03*
X102108000Y-169164000D03*
X99822000Y-158115000D03*
X70358000Y-162814000D03*
%TO.N,V_BUS_ZONE_3*%
X113284000Y-154648500D03*
X67818000Y-163068000D03*
%TO.N,Net-(J3-CC1-PadB5)*%
X50800000Y-150749000D03*
X58587000Y-158837000D03*
%TD*%
D16*
%TO.N,Net-(J3-CC1-PadB5)*%
X51181000Y-151130000D02*
X50800000Y-150749000D01*
X51181000Y-156718000D02*
X51181000Y-151130000D01*
X53300000Y-158837000D02*
X51181000Y-156718000D01*
X58587000Y-158837000D02*
X53300000Y-158837000D01*
D17*
%TO.N,BTN_1*%
X61341000Y-159734250D02*
X61341000Y-155321000D01*
X63098411Y-161491661D02*
X61341000Y-159734250D01*
X63098411Y-161523411D02*
X63098411Y-161491661D01*
X61341000Y-155321000D02*
X61976000Y-154686000D01*
%TO.N,V_BUS_ZONE_2*%
X70866000Y-163322000D02*
X70358000Y-162814000D01*
X86360000Y-157988000D02*
X81026000Y-163322000D01*
X99695000Y-157988000D02*
X86360000Y-157988000D01*
X99822000Y-158115000D02*
X99695000Y-157988000D01*
X81026000Y-163322000D02*
X70866000Y-163322000D01*
%TO.N,V_BUS_3V*%
X79502000Y-156464000D02*
X79502000Y-158496000D01*
X79502000Y-146812000D02*
X79502000Y-155194000D01*
X69088000Y-160020000D02*
X77978000Y-160020000D01*
X66294000Y-165608000D02*
X66294000Y-162814000D01*
X72390000Y-171704000D02*
X66294000Y-165608000D01*
X77978000Y-155956000D02*
X78994000Y-155956000D01*
X72390000Y-171704000D02*
X65024000Y-171704000D01*
X78994000Y-155956000D02*
X79502000Y-156464000D01*
X83566000Y-137160000D02*
X83566000Y-142748000D01*
X79502000Y-155194000D02*
X78740000Y-155956000D01*
X62230000Y-151384000D02*
X64516000Y-151384000D01*
X66294000Y-162814000D02*
X69088000Y-160020000D01*
X64516000Y-151384000D02*
X69088000Y-155956000D01*
X79502000Y-158496000D02*
X78232000Y-159766000D01*
X69088000Y-155956000D02*
X77978000Y-155956000D01*
X83566000Y-142748000D02*
X79502000Y-146812000D01*
X77978000Y-160020000D02*
X78232000Y-159766000D01*
X78740000Y-155956000D02*
X77978000Y-155956000D01*
X83312000Y-136906000D02*
X83566000Y-137160000D01*
%TO.N,Net-(J5-Pin_1)*%
X53848000Y-135890000D02*
X53086000Y-136652000D01*
X72898000Y-135890000D02*
X53848000Y-135890000D01*
X73660000Y-136652000D02*
X72898000Y-135890000D01*
%TO.N,SDA_1*%
X86106000Y-156845000D02*
X86106000Y-155956000D01*
X80772000Y-161036000D02*
X81915000Y-161036000D01*
X86106000Y-155956000D02*
X84836000Y-154686000D01*
X81915000Y-161036000D02*
X86106000Y-156845000D01*
%TO.N,CS_1*%
X97536000Y-134620000D02*
X98044000Y-134620000D01*
X90424000Y-149352000D02*
X90424000Y-141732000D01*
X88392000Y-151384000D02*
X90424000Y-149352000D01*
X90424000Y-141732000D02*
X97536000Y-134620000D01*
X84836000Y-151384000D02*
X88392000Y-151384000D01*
%TO.N,CS_2*%
X97282000Y-144780000D02*
X98044000Y-144780000D01*
X95250000Y-150368000D02*
X95250000Y-146812000D01*
X95250000Y-146812000D02*
X97282000Y-144780000D01*
%TO.N,SDI_1*%
X92964000Y-147320000D02*
X92710000Y-147066000D01*
X92710000Y-147066000D02*
X92710000Y-142494000D01*
X92710000Y-142494000D02*
X98044000Y-137160000D01*
%TO.N,SDO_1*%
X93980000Y-146304000D02*
X93980000Y-150876000D01*
X96774000Y-141986000D02*
X96774000Y-143510000D01*
X96520000Y-152400000D02*
X97790000Y-151130000D01*
X97790000Y-151130000D02*
X97790000Y-149860000D01*
X96774000Y-143510000D02*
X93980000Y-146304000D01*
X93980000Y-150876000D02*
X95504000Y-152400000D01*
X98044000Y-140716000D02*
X96774000Y-141986000D01*
X95504000Y-152400000D02*
X96520000Y-152400000D01*
%TO.N,BTN_2*%
X64312000Y-153936000D02*
X61665339Y-153936000D01*
X60706000Y-160274000D02*
X62843023Y-162411023D01*
X61665339Y-153936000D02*
X60706000Y-154895339D01*
X64770000Y-154394000D02*
X64312000Y-153936000D01*
X60706000Y-154895339D02*
X60706000Y-160274000D01*
%TO.N,BOOT*%
X80264000Y-147066000D02*
X86868000Y-140462000D01*
X86868000Y-140462000D02*
X89408000Y-140462000D01*
X78232000Y-161290000D02*
X78232000Y-161036000D01*
X80264000Y-159004000D02*
X80264000Y-147066000D01*
X78232000Y-161036000D02*
X80264000Y-159004000D01*
%TO.N,V_BUS_ZONE_1*%
X109982000Y-146812000D02*
X109982000Y-158750000D01*
X112268000Y-144526000D02*
X109982000Y-146812000D01*
X103632000Y-165100000D02*
X77470000Y-165100000D01*
X109982000Y-158750000D02*
X103632000Y-165100000D01*
X113919000Y-144526000D02*
X112268000Y-144526000D01*
%TO.N,SDA_DISPLAY*%
X106172000Y-157734000D02*
X103886000Y-155448000D01*
X105918000Y-159766000D02*
X106172000Y-159512000D01*
X106172000Y-159512000D02*
X106172000Y-157734000D01*
%TO.N,SCL_DISPLAY*%
X105156000Y-158750000D02*
X104394000Y-158750000D01*
X104394000Y-158750000D02*
X103124000Y-157480000D01*
%TO.N,NRST*%
X75692000Y-158242000D02*
X68589305Y-158242000D01*
X76708000Y-157226000D02*
X75692000Y-158242000D01*
X63509305Y-163322000D02*
X57912000Y-163322000D01*
X68589305Y-158242000D02*
X63509305Y-163322000D01*
%TO.N,V_BUS_ZONE_2*%
X125984000Y-142240000D02*
X118999000Y-135255000D01*
X69850000Y-163322000D02*
X69850000Y-163830000D01*
X118999000Y-135255000D02*
X113030000Y-135255000D01*
X70358000Y-162814000D02*
X69850000Y-163322000D01*
X127508000Y-146304000D02*
X125984000Y-144780000D01*
X75184000Y-169164000D02*
X102108000Y-169164000D01*
X125984000Y-144780000D02*
X125984000Y-142240000D01*
X69850000Y-163830000D02*
X75184000Y-169164000D01*
X113030000Y-135255000D02*
X111506000Y-136779000D01*
X111506000Y-136779000D02*
X111506000Y-139700000D01*
X127508000Y-159258000D02*
X127508000Y-146304000D01*
%TO.N,V_BUS_ZONE_3*%
X114554000Y-161798000D02*
X114554000Y-155918500D01*
X67818000Y-163068000D02*
X74676000Y-169926000D01*
X74676000Y-169926000D02*
X106426000Y-169926000D01*
X114554000Y-155918500D02*
X113284000Y-154648500D01*
X106426000Y-169926000D02*
X114554000Y-161798000D01*
%TD*%
%TA.AperFunction,Conductor*%
%TO.N,GND*%
G36*
X52828000Y-171776498D02*
G01*
X52720315Y-171727320D01*
X52613763Y-171712000D01*
X52542237Y-171712000D01*
X52435685Y-171727320D01*
X52328000Y-171776498D01*
X52328000Y-170107501D01*
X52435685Y-170156680D01*
X52542237Y-170172000D01*
X52613763Y-170172000D01*
X52720315Y-170156680D01*
X52828000Y-170107501D01*
X52828000Y-171776498D01*
G37*
%TD.AperFunction*%
%TA.AperFunction,Conductor*%
G36*
X129482539Y-130830185D02*
G01*
X129528294Y-130882989D01*
X129539500Y-130934500D01*
X129539500Y-176659500D01*
X129519815Y-176726539D01*
X129467011Y-176772294D01*
X129415500Y-176783500D01*
X49908500Y-176783500D01*
X49841461Y-176763815D01*
X49795706Y-176711011D01*
X49784500Y-176659500D01*
X49784500Y-167131999D01*
X51214843Y-167131999D01*
X51233435Y-167356363D01*
X51288705Y-167574618D01*
X51379138Y-167780788D01*
X51379140Y-167780791D01*
X51502278Y-167969268D01*
X51654760Y-168134906D01*
X51832424Y-168273189D01*
X51875697Y-168296607D01*
X51925287Y-168345825D01*
X51940395Y-168414042D01*
X51916225Y-168479598D01*
X51887803Y-168507236D01*
X51706918Y-168633893D01*
X51539890Y-168800921D01*
X51404400Y-168994421D01*
X51304569Y-169208507D01*
X51247364Y-169421999D01*
X51247364Y-169422000D01*
X52144314Y-169422000D01*
X52118507Y-169462156D01*
X52078000Y-169600111D01*
X52078000Y-169743889D01*
X52118507Y-169881844D01*
X52144314Y-169922000D01*
X51247364Y-169922000D01*
X51304569Y-170135492D01*
X51404399Y-170349576D01*
X51539893Y-170543081D01*
X51706918Y-170710106D01*
X51893031Y-170840425D01*
X51936656Y-170895002D01*
X51943848Y-170964501D01*
X51912326Y-171026855D01*
X51893031Y-171043575D01*
X51706918Y-171173893D01*
X51539890Y-171340921D01*
X51404400Y-171534421D01*
X51304569Y-171748507D01*
X51247364Y-171961999D01*
X51247364Y-171962000D01*
X52144314Y-171962000D01*
X52118507Y-172002156D01*
X52078000Y-172140111D01*
X52078000Y-172283889D01*
X52118507Y-172421844D01*
X52144314Y-172462000D01*
X51247364Y-172462000D01*
X51304569Y-172675492D01*
X51404399Y-172889576D01*
X51539893Y-173083081D01*
X51655727Y-173198915D01*
X51689212Y-173260238D01*
X51684228Y-173329930D01*
X51642356Y-173385863D01*
X51611381Y-173402777D01*
X51481795Y-173451111D01*
X51364738Y-173538738D01*
X51277110Y-173655796D01*
X51226011Y-173792794D01*
X51222301Y-173827304D01*
X51219500Y-173853362D01*
X51219500Y-175650638D01*
X51219852Y-175653918D01*
X51219853Y-175653924D01*
X51226011Y-175711205D01*
X51277110Y-175848203D01*
X51364738Y-175965261D01*
X51481796Y-176052889D01*
X51618794Y-176103988D01*
X51618797Y-176103988D01*
X51618799Y-176103989D01*
X51679362Y-176110500D01*
X51682672Y-176110500D01*
X53473328Y-176110500D01*
X53476638Y-176110500D01*
X53537201Y-176103989D01*
X53537203Y-176103988D01*
X53537205Y-176103988D01*
X53619097Y-176073443D01*
X53674204Y-176052889D01*
X53791261Y-175965261D01*
X53878889Y-175848204D01*
X53924137Y-175726889D01*
X53966009Y-175670956D01*
X54031474Y-175646540D01*
X54099747Y-175661392D01*
X54131548Y-175686241D01*
X54168969Y-175726890D01*
X54194760Y-175754906D01*
X54372424Y-175893189D01*
X54570426Y-176000342D01*
X54783365Y-176073444D01*
X55005431Y-176110500D01*
X55230569Y-176110500D01*
X55452635Y-176073444D01*
X55665574Y-176000342D01*
X55863576Y-175893189D01*
X56041240Y-175754906D01*
X56193722Y-175589268D01*
X56316860Y-175400791D01*
X56407296Y-175194616D01*
X56462564Y-174976368D01*
X56481156Y-174752000D01*
X56462564Y-174527632D01*
X56407296Y-174309384D01*
X56316860Y-174103209D01*
X56193722Y-173914732D01*
X56041240Y-173749094D01*
X55863576Y-173610811D01*
X55827067Y-173591053D01*
X55777478Y-173541836D01*
X55762370Y-173473619D01*
X55780014Y-173425764D01*
X74853787Y-173425764D01*
X74883413Y-173695016D01*
X74951928Y-173957087D01*
X75057871Y-174206392D01*
X75198982Y-174437611D01*
X75288253Y-174544881D01*
X75372255Y-174645820D01*
X75573998Y-174826582D01*
X75799910Y-174976044D01*
X75906211Y-175025876D01*
X76045177Y-175091021D01*
X76304562Y-175169058D01*
X76304569Y-175169060D01*
X76572561Y-175208500D01*
X76572564Y-175208500D01*
X76773369Y-175208500D01*
X76775631Y-175208500D01*
X76978156Y-175193677D01*
X77242553Y-175134780D01*
X77495558Y-175038014D01*
X77731777Y-174905441D01*
X77946177Y-174739888D01*
X78134186Y-174544881D01*
X78291799Y-174324579D01*
X78415656Y-174083675D01*
X78503118Y-173827305D01*
X78552319Y-173560933D01*
X78557259Y-173425764D01*
X120065787Y-173425764D01*
X120095413Y-173695016D01*
X120163928Y-173957087D01*
X120269871Y-174206392D01*
X120410982Y-174437611D01*
X120500253Y-174544881D01*
X120584255Y-174645820D01*
X120785998Y-174826582D01*
X121011910Y-174976044D01*
X121118211Y-175025876D01*
X121257177Y-175091021D01*
X121516562Y-175169058D01*
X121516569Y-175169060D01*
X121784561Y-175208500D01*
X121784564Y-175208500D01*
X121985369Y-175208500D01*
X121987631Y-175208500D01*
X122190156Y-175193677D01*
X122454553Y-175134780D01*
X122707558Y-175038014D01*
X122943777Y-174905441D01*
X123158177Y-174739888D01*
X123346186Y-174544881D01*
X123503799Y-174324579D01*
X123627656Y-174083675D01*
X123715118Y-173827305D01*
X123764319Y-173560933D01*
X123774212Y-173290235D01*
X123744586Y-173020982D01*
X123676072Y-172758912D01*
X123570130Y-172509610D01*
X123429018Y-172278390D01*
X123429017Y-172278388D01*
X123255746Y-172070181D01*
X123150759Y-171976112D01*
X123054002Y-171889418D01*
X122828090Y-171739956D01*
X122801135Y-171727320D01*
X122582822Y-171624978D01*
X122323437Y-171546941D01*
X122323431Y-171546940D01*
X122055439Y-171507500D01*
X121852369Y-171507500D01*
X121850120Y-171507664D01*
X121850109Y-171507665D01*
X121649843Y-171522322D01*
X121385449Y-171581219D01*
X121132441Y-171677986D01*
X120896223Y-171810559D01*
X120681825Y-171976109D01*
X120493813Y-172171120D01*
X120336201Y-172391420D01*
X120212342Y-172632329D01*
X120124881Y-172888695D01*
X120075680Y-173155066D01*
X120065787Y-173425764D01*
X78557259Y-173425764D01*
X78562212Y-173290235D01*
X78532586Y-173020982D01*
X78464072Y-172758912D01*
X78358130Y-172509610D01*
X78217018Y-172278390D01*
X78217017Y-172278388D01*
X78043746Y-172070181D01*
X77938759Y-171976112D01*
X77842002Y-171889418D01*
X77616090Y-171739956D01*
X77589135Y-171727320D01*
X77370822Y-171624978D01*
X77111437Y-171546941D01*
X77111431Y-171546940D01*
X76843439Y-171507500D01*
X76640369Y-171507500D01*
X76638120Y-171507664D01*
X76638109Y-171507665D01*
X76437843Y-171522322D01*
X76173449Y-171581219D01*
X75920441Y-171677986D01*
X75684223Y-171810559D01*
X75469825Y-171976109D01*
X75281813Y-172171120D01*
X75124201Y-172391420D01*
X75000342Y-172632329D01*
X74912881Y-172888695D01*
X74863680Y-173155066D01*
X74853787Y-173425764D01*
X55780014Y-173425764D01*
X55786540Y-173408063D01*
X55827067Y-173372946D01*
X55863576Y-173353189D01*
X56041240Y-173214906D01*
X56193722Y-173049268D01*
X56316860Y-172860791D01*
X56407296Y-172654616D01*
X56462564Y-172436368D01*
X56481156Y-172212000D01*
X56462564Y-171987632D01*
X56407296Y-171769384D01*
X56316860Y-171563209D01*
X56193722Y-171374732D01*
X56041240Y-171209094D01*
X55863576Y-171070811D01*
X55827067Y-171051053D01*
X55777478Y-171001836D01*
X55762370Y-170933619D01*
X55786540Y-170868063D01*
X55827067Y-170832946D01*
X55863576Y-170813189D01*
X56041240Y-170674906D01*
X56193722Y-170509268D01*
X56316860Y-170320791D01*
X56407296Y-170114616D01*
X56462564Y-169896368D01*
X56481156Y-169672000D01*
X56462564Y-169447632D01*
X56407296Y-169229384D01*
X56316860Y-169023209D01*
X56193722Y-168834732D01*
X56041240Y-168669094D01*
X55863576Y-168530811D01*
X55827067Y-168511053D01*
X55777478Y-168461836D01*
X55762370Y-168393619D01*
X55786540Y-168328063D01*
X55827067Y-168292946D01*
X55863576Y-168273189D01*
X56041240Y-168134906D01*
X56193722Y-167969268D01*
X56316860Y-167780791D01*
X56407296Y-167574616D01*
X56462564Y-167356368D01*
X56481156Y-167132000D01*
X56462564Y-166907632D01*
X56407296Y-166689384D01*
X56316860Y-166483209D01*
X56193722Y-166294732D01*
X56041240Y-166129094D01*
X55863576Y-165990811D01*
X55827067Y-165971053D01*
X55777478Y-165921836D01*
X55762370Y-165853619D01*
X55786540Y-165788063D01*
X55827067Y-165752946D01*
X55863576Y-165733189D01*
X56041240Y-165594906D01*
X56193722Y-165429268D01*
X56316860Y-165240791D01*
X56407296Y-165034616D01*
X56462564Y-164816368D01*
X56481156Y-164592000D01*
X56462564Y-164367632D01*
X56407296Y-164149384D01*
X56316860Y-163943209D01*
X56193722Y-163754732D01*
X56041240Y-163589094D01*
X55863576Y-163450811D01*
X55665574Y-163343658D01*
X55665573Y-163343657D01*
X55665572Y-163343657D01*
X55452636Y-163270556D01*
X55230569Y-163233500D01*
X55005431Y-163233500D01*
X54783363Y-163270556D01*
X54570427Y-163343657D01*
X54372424Y-163450811D01*
X54194760Y-163589094D01*
X54042275Y-163754734D01*
X53948250Y-163898650D01*
X53895104Y-163944006D01*
X53825873Y-163953430D01*
X53762537Y-163923928D01*
X53742867Y-163901951D01*
X53616109Y-163720921D01*
X53449081Y-163553893D01*
X53255576Y-163418399D01*
X53041492Y-163318569D01*
X52828000Y-163261364D01*
X52828000Y-164156498D01*
X52720315Y-164107320D01*
X52613763Y-164092000D01*
X52542237Y-164092000D01*
X52435685Y-164107320D01*
X52328000Y-164156498D01*
X52328000Y-163261364D01*
X52327999Y-163261364D01*
X52114507Y-163318569D01*
X51900421Y-163418400D01*
X51706921Y-163553890D01*
X51539890Y-163720921D01*
X51404400Y-163914421D01*
X51304569Y-164128507D01*
X51247364Y-164341999D01*
X51247364Y-164342000D01*
X52144314Y-164342000D01*
X52118507Y-164382156D01*
X52078000Y-164520111D01*
X52078000Y-164663889D01*
X52118507Y-164801844D01*
X52144314Y-164842000D01*
X51247364Y-164842000D01*
X51304569Y-165055492D01*
X51404399Y-165269576D01*
X51539893Y-165463081D01*
X51706918Y-165630106D01*
X51887802Y-165756763D01*
X51931426Y-165811340D01*
X51938619Y-165880839D01*
X51907097Y-165943193D01*
X51875698Y-165967392D01*
X51832422Y-165990812D01*
X51654760Y-166129094D01*
X51502279Y-166294730D01*
X51379138Y-166483211D01*
X51288705Y-166689381D01*
X51233435Y-166907636D01*
X51214843Y-167131999D01*
X49784500Y-167131999D01*
X49784500Y-161455799D01*
X51241794Y-161455799D01*
X51271312Y-161648488D01*
X51339015Y-161831293D01*
X51442134Y-161996731D01*
X51534011Y-162093385D01*
X51576440Y-162138020D01*
X51736439Y-162249383D01*
X51915581Y-162326259D01*
X52106530Y-162365500D01*
X52106531Y-162365500D01*
X53149466Y-162365500D01*
X53152608Y-162365500D01*
X53297940Y-162350721D01*
X53483939Y-162292363D01*
X53654384Y-162197759D01*
X53802297Y-162070780D01*
X53874341Y-161977707D01*
X53921619Y-161916629D01*
X53939005Y-161881186D01*
X54007471Y-161741609D01*
X54056333Y-161552892D01*
X54066206Y-161358202D01*
X54036687Y-161165511D01*
X54002199Y-161072390D01*
X53968984Y-160982706D01*
X53865865Y-160817268D01*
X53731561Y-160675981D01*
X53681255Y-160640967D01*
X53571561Y-160564617D01*
X53392419Y-160487741D01*
X53201470Y-160448500D01*
X52155392Y-160448500D01*
X52152281Y-160448816D01*
X52152268Y-160448817D01*
X52010059Y-160463279D01*
X51824060Y-160521637D01*
X51653616Y-160616240D01*
X51505702Y-160743220D01*
X51386380Y-160897370D01*
X51300529Y-161072390D01*
X51251667Y-161261109D01*
X51241794Y-161455799D01*
X49784500Y-161455799D01*
X49784500Y-150748999D01*
X50036700Y-150748999D01*
X50055837Y-150918846D01*
X50055837Y-150918848D01*
X50055838Y-150918850D01*
X50112291Y-151080183D01*
X50203229Y-151224909D01*
X50324091Y-151345771D01*
X50468817Y-151436709D01*
X50468818Y-151436709D01*
X50480647Y-151444142D01*
X50479497Y-151445972D01*
X50521223Y-151475893D01*
X50546977Y-151540843D01*
X50547500Y-151552223D01*
X50547500Y-156634367D01*
X50545210Y-156655108D01*
X50547439Y-156726016D01*
X50547500Y-156729912D01*
X50547500Y-156757856D01*
X50547987Y-156761716D01*
X50547988Y-156761722D01*
X50548019Y-156761965D01*
X50548934Y-156773596D01*
X50550326Y-156817888D01*
X50556022Y-156837492D01*
X50559967Y-156856544D01*
X50562525Y-156876798D01*
X50578838Y-156918001D01*
X50582621Y-156929049D01*
X50594982Y-156971593D01*
X50605374Y-156989166D01*
X50613931Y-157006633D01*
X50621448Y-157025618D01*
X50647491Y-157061463D01*
X50653905Y-157071227D01*
X50676458Y-157109362D01*
X50690890Y-157123794D01*
X50703526Y-157138589D01*
X50715526Y-157155105D01*
X50715527Y-157155106D01*
X50715528Y-157155107D01*
X50749667Y-157183349D01*
X50758308Y-157191212D01*
X52792910Y-159225814D01*
X52805959Y-159242101D01*
X52807999Y-159244016D01*
X52808000Y-159244018D01*
X52857701Y-159290690D01*
X52860465Y-159293369D01*
X52880231Y-159313135D01*
X52883310Y-159315523D01*
X52883486Y-159315660D01*
X52892376Y-159323252D01*
X52924679Y-159353586D01*
X52942570Y-159363421D01*
X52958823Y-159374097D01*
X52962718Y-159377118D01*
X52974961Y-159386615D01*
X53015618Y-159404208D01*
X53026102Y-159409343D01*
X53064940Y-159430695D01*
X53084714Y-159435772D01*
X53103119Y-159442073D01*
X53121855Y-159450181D01*
X53165630Y-159457113D01*
X53177041Y-159459477D01*
X53219970Y-159470500D01*
X53240384Y-159470500D01*
X53259783Y-159472027D01*
X53279943Y-159475220D01*
X53324056Y-159471050D01*
X53335726Y-159470500D01*
X55745802Y-159470500D01*
X55812841Y-159490185D01*
X55858596Y-159542989D01*
X55868540Y-159612147D01*
X55844178Y-159669986D01*
X55831302Y-159686766D01*
X55773312Y-159826764D01*
X55753533Y-159977000D01*
X55773312Y-160127235D01*
X55831302Y-160267233D01*
X55863799Y-160309584D01*
X55888994Y-160374753D01*
X55874956Y-160443198D01*
X55826142Y-160493188D01*
X55823878Y-160494429D01*
X55732039Y-160543518D01*
X55574669Y-160672669D01*
X55445517Y-160830040D01*
X55349551Y-161009580D01*
X55290453Y-161204400D01*
X55270499Y-161406999D01*
X55290453Y-161609599D01*
X55297482Y-161632769D01*
X55347997Y-161799299D01*
X55349551Y-161804419D01*
X55445098Y-161983176D01*
X55445518Y-161983960D01*
X55574669Y-162141331D01*
X55732040Y-162270482D01*
X55911583Y-162366450D01*
X56106399Y-162425546D01*
X56258225Y-162440500D01*
X56261275Y-162440500D01*
X57406725Y-162440500D01*
X57409775Y-162440500D01*
X57454652Y-162436079D01*
X57523294Y-162449096D01*
X57574006Y-162497160D01*
X57590682Y-162565011D01*
X57568028Y-162631106D01*
X57532778Y-162664475D01*
X57436090Y-162725229D01*
X57315230Y-162846089D01*
X57290362Y-162885667D01*
X57224291Y-162990817D01*
X57193903Y-163077661D01*
X57167837Y-163152153D01*
X57148700Y-163322000D01*
X57167837Y-163491846D01*
X57167837Y-163491848D01*
X57167838Y-163491850D01*
X57224291Y-163653183D01*
X57315229Y-163797909D01*
X57436091Y-163918771D01*
X57580817Y-164009709D01*
X57742150Y-164066162D01*
X57912000Y-164085299D01*
X58081850Y-164066162D01*
X58243183Y-164009709D01*
X58250400Y-164005174D01*
X58259422Y-163999506D01*
X58325393Y-163980500D01*
X63422915Y-163980500D01*
X63444349Y-163982866D01*
X63446840Y-163982787D01*
X63446842Y-163982788D01*
X63517705Y-163980561D01*
X63521601Y-163980500D01*
X63546846Y-163980500D01*
X63550737Y-163980500D01*
X63555223Y-163979933D01*
X63566877Y-163979015D01*
X63613136Y-163977562D01*
X63633881Y-163971534D01*
X63652921Y-163967591D01*
X63674369Y-163964882D01*
X63717423Y-163947835D01*
X63728447Y-163944060D01*
X63772905Y-163931145D01*
X63791496Y-163920149D01*
X63808969Y-163911589D01*
X63829061Y-163903635D01*
X63866527Y-163876412D01*
X63876265Y-163870016D01*
X63916112Y-163846453D01*
X63931392Y-163831171D01*
X63946182Y-163818540D01*
X63963662Y-163805841D01*
X63993174Y-163770165D01*
X64001017Y-163761546D01*
X68825745Y-158936819D01*
X68887069Y-158903334D01*
X68913427Y-158900500D01*
X75605610Y-158900500D01*
X75627044Y-158902866D01*
X75629535Y-158902787D01*
X75629537Y-158902788D01*
X75700400Y-158900561D01*
X75704296Y-158900500D01*
X75729541Y-158900500D01*
X75733432Y-158900500D01*
X75737918Y-158899933D01*
X75749572Y-158899015D01*
X75795831Y-158897562D01*
X75816576Y-158891534D01*
X75835616Y-158887591D01*
X75857064Y-158884882D01*
X75900118Y-158867835D01*
X75911142Y-158864060D01*
X75955600Y-158851145D01*
X75974191Y-158840149D01*
X75991664Y-158831589D01*
X76011756Y-158823635D01*
X76049222Y-158796412D01*
X76058960Y-158790016D01*
X76098807Y-158766453D01*
X76114087Y-158751171D01*
X76128877Y-158738540D01*
X76146357Y-158725841D01*
X76175869Y-158690165D01*
X76183712Y-158681546D01*
X76884369Y-157980889D01*
X76931091Y-157951531D01*
X77039183Y-157913709D01*
X77183909Y-157822771D01*
X77304771Y-157701909D01*
X77395709Y-157557183D01*
X77452162Y-157395850D01*
X77471299Y-157226000D01*
X77452162Y-157056150D01*
X77395709Y-156894817D01*
X77338940Y-156804471D01*
X77319941Y-156737235D01*
X77340309Y-156670400D01*
X77393577Y-156625186D01*
X77443935Y-156614500D01*
X77894812Y-156614500D01*
X78653611Y-156614500D01*
X78680659Y-156617486D01*
X78692824Y-156620205D01*
X78692150Y-156623218D01*
X78736117Y-156634640D01*
X78760071Y-156653330D01*
X78807181Y-156700440D01*
X78840666Y-156761763D01*
X78843500Y-156788121D01*
X78843500Y-158171877D01*
X78823815Y-158238916D01*
X78807181Y-158259558D01*
X78055630Y-159011108D01*
X78008904Y-159040468D01*
X77900817Y-159078289D01*
X77756090Y-159169229D01*
X77635231Y-159290088D01*
X77635229Y-159290090D01*
X77635229Y-159290091D01*
X77626819Y-159303473D01*
X77574488Y-159349763D01*
X77521828Y-159361500D01*
X69174392Y-159361500D01*
X69152952Y-159359132D01*
X69079580Y-159361439D01*
X69075685Y-159361500D01*
X69046568Y-159361500D01*
X69042711Y-159361987D01*
X69042681Y-159361989D01*
X69042053Y-159362069D01*
X69030432Y-159362983D01*
X68984168Y-159364437D01*
X68963423Y-159370464D01*
X68944379Y-159374408D01*
X68922933Y-159377117D01*
X68879895Y-159394157D01*
X68868849Y-159397939D01*
X68824401Y-159410853D01*
X68805805Y-159421851D01*
X68788339Y-159430407D01*
X68768245Y-159438363D01*
X68730797Y-159465571D01*
X68721035Y-159471983D01*
X68681195Y-159495544D01*
X68665912Y-159510827D01*
X68651123Y-159523457D01*
X68633644Y-159536156D01*
X68604135Y-159571826D01*
X68596274Y-159580464D01*
X65889452Y-162287286D01*
X65872624Y-162300769D01*
X65822377Y-162354275D01*
X65819672Y-162357066D01*
X65801826Y-162374913D01*
X65801819Y-162374920D01*
X65799073Y-162377667D01*
X65796698Y-162380728D01*
X65796678Y-162380751D01*
X65796280Y-162381265D01*
X65788711Y-162390126D01*
X65757027Y-162423867D01*
X65746619Y-162442799D01*
X65735940Y-162459056D01*
X65722694Y-162476133D01*
X65704309Y-162518616D01*
X65699173Y-162529101D01*
X65676875Y-162569661D01*
X65671503Y-162590586D01*
X65665202Y-162608988D01*
X65656619Y-162628822D01*
X65649379Y-162674536D01*
X65647011Y-162685970D01*
X65635500Y-162730808D01*
X65635500Y-162752413D01*
X65633974Y-162771808D01*
X65630593Y-162793151D01*
X65634950Y-162839234D01*
X65635500Y-162850903D01*
X65635500Y-165521610D01*
X65633133Y-165543044D01*
X65635439Y-165616400D01*
X65635500Y-165620295D01*
X65635500Y-165649432D01*
X65635988Y-165653304D01*
X65635989Y-165653305D01*
X65636069Y-165653939D01*
X65636983Y-165665564D01*
X65638437Y-165711833D01*
X65644463Y-165732575D01*
X65648408Y-165751621D01*
X65651117Y-165773063D01*
X65668158Y-165816105D01*
X65671941Y-165827154D01*
X65684855Y-165871601D01*
X65695850Y-165890193D01*
X65704409Y-165907663D01*
X65705998Y-165911675D01*
X65712365Y-165927756D01*
X65739578Y-165965211D01*
X65745977Y-165974952D01*
X65768139Y-166012426D01*
X65769548Y-166014808D01*
X65784822Y-166030082D01*
X65797458Y-166044876D01*
X65810159Y-166062357D01*
X65845820Y-166091858D01*
X65854461Y-166099721D01*
X70588559Y-170833819D01*
X70622044Y-170895142D01*
X70617060Y-170964834D01*
X70575188Y-171020767D01*
X70509724Y-171045184D01*
X70500878Y-171045500D01*
X65437393Y-171045500D01*
X65371422Y-171026494D01*
X65355187Y-171016293D01*
X65355185Y-171016292D01*
X65355183Y-171016291D01*
X65193850Y-170959838D01*
X65193848Y-170959837D01*
X65193846Y-170959837D01*
X65024000Y-170940700D01*
X64854153Y-170959837D01*
X64854150Y-170959837D01*
X64854150Y-170959838D01*
X64692817Y-171016291D01*
X64692815Y-171016291D01*
X64692815Y-171016292D01*
X64548089Y-171107230D01*
X64427230Y-171228089D01*
X64356333Y-171340921D01*
X64336291Y-171372817D01*
X64279838Y-171534150D01*
X64279837Y-171534153D01*
X64260700Y-171703999D01*
X64279837Y-171873846D01*
X64279837Y-171873848D01*
X64279838Y-171873850D01*
X64336291Y-172035183D01*
X64427229Y-172179909D01*
X64548091Y-172300771D01*
X64692817Y-172391709D01*
X64854150Y-172448162D01*
X65024000Y-172467299D01*
X65193850Y-172448162D01*
X65355183Y-172391709D01*
X65362400Y-172387174D01*
X65371422Y-172381506D01*
X65437393Y-172362500D01*
X71976607Y-172362500D01*
X72042578Y-172381506D01*
X72058812Y-172391706D01*
X72058817Y-172391709D01*
X72220150Y-172448162D01*
X72390000Y-172467299D01*
X72559850Y-172448162D01*
X72721183Y-172391709D01*
X72865909Y-172300771D01*
X72986771Y-172179909D01*
X73077709Y-172035183D01*
X73134162Y-171873850D01*
X73153299Y-171704000D01*
X73134162Y-171534150D01*
X73077709Y-171372817D01*
X72986771Y-171228091D01*
X72865909Y-171107229D01*
X72737421Y-171026494D01*
X72721180Y-171016289D01*
X72613094Y-170978468D01*
X72566368Y-170949108D01*
X69890448Y-168273188D01*
X66988816Y-165371556D01*
X66955333Y-165310236D01*
X66952500Y-165283887D01*
X66952500Y-163546642D01*
X66972185Y-163479602D01*
X67024989Y-163433848D01*
X67094147Y-163423904D01*
X67157703Y-163452929D01*
X67181490Y-163480665D01*
X67221229Y-163543909D01*
X67342091Y-163664771D01*
X67486817Y-163755709D01*
X67594907Y-163793531D01*
X67641631Y-163822891D01*
X74149282Y-170330542D01*
X74162769Y-170347375D01*
X74164583Y-170349078D01*
X74164584Y-170349080D01*
X74191310Y-170374177D01*
X74216273Y-170397619D01*
X74219070Y-170400330D01*
X74239667Y-170420927D01*
X74243248Y-170423705D01*
X74252118Y-170431280D01*
X74285867Y-170462972D01*
X74304803Y-170473382D01*
X74321055Y-170484058D01*
X74333892Y-170494015D01*
X74338133Y-170497305D01*
X74375860Y-170513630D01*
X74380379Y-170515586D01*
X74380613Y-170515687D01*
X74391105Y-170520827D01*
X74431663Y-170543124D01*
X74452584Y-170548495D01*
X74470994Y-170554798D01*
X74490824Y-170563380D01*
X74536553Y-170570621D01*
X74547975Y-170572987D01*
X74592812Y-170584500D01*
X74614419Y-170584500D01*
X74633816Y-170586026D01*
X74655152Y-170589406D01*
X74701235Y-170585049D01*
X74712903Y-170584500D01*
X106339610Y-170584500D01*
X106361044Y-170586866D01*
X106363535Y-170586787D01*
X106363537Y-170586788D01*
X106434400Y-170584561D01*
X106438296Y-170584500D01*
X106463541Y-170584500D01*
X106467432Y-170584500D01*
X106471918Y-170583933D01*
X106483572Y-170583015D01*
X106529831Y-170581562D01*
X106550576Y-170575534D01*
X106569616Y-170571591D01*
X106591064Y-170568882D01*
X106634118Y-170551835D01*
X106645142Y-170548060D01*
X106689600Y-170535145D01*
X106708191Y-170524149D01*
X106725664Y-170515589D01*
X106745756Y-170507635D01*
X106783222Y-170480412D01*
X106792960Y-170474016D01*
X106832807Y-170450453D01*
X106848087Y-170435171D01*
X106862877Y-170422540D01*
X106880357Y-170409841D01*
X106909869Y-170374165D01*
X106917712Y-170365546D01*
X111377844Y-165905414D01*
X116339500Y-165905414D01*
X116339501Y-165908544D01*
X116339820Y-165911675D01*
X116339821Y-165911678D01*
X116350112Y-166012425D01*
X116405884Y-166180736D01*
X116498971Y-166331654D01*
X116624345Y-166457028D01*
X116624347Y-166457029D01*
X116624348Y-166457030D01*
X116775262Y-166550115D01*
X116859417Y-166578001D01*
X116943573Y-166605887D01*
X116989602Y-166610589D01*
X117047455Y-166616500D01*
X117648544Y-166616499D01*
X117752426Y-166605887D01*
X117920738Y-166550115D01*
X118071652Y-166457030D01*
X118197030Y-166331652D01*
X118242462Y-166257994D01*
X118294409Y-166211272D01*
X118363371Y-166200049D01*
X118427454Y-166227893D01*
X118453536Y-166257993D01*
X118486657Y-166311690D01*
X118498971Y-166331654D01*
X118624345Y-166457028D01*
X118624347Y-166457029D01*
X118624348Y-166457030D01*
X118775262Y-166550115D01*
X118859417Y-166578001D01*
X118943573Y-166605887D01*
X118989602Y-166610589D01*
X119047455Y-166616500D01*
X119648544Y-166616499D01*
X119752426Y-166605887D01*
X119920738Y-166550115D01*
X120071652Y-166457030D01*
X120197030Y-166331652D01*
X120242462Y-166257994D01*
X120294409Y-166211272D01*
X120363371Y-166200049D01*
X120427454Y-166227893D01*
X120453536Y-166257993D01*
X120486657Y-166311690D01*
X120498971Y-166331654D01*
X120624345Y-166457028D01*
X120624347Y-166457029D01*
X120624348Y-166457030D01*
X120775262Y-166550115D01*
X120859417Y-166578001D01*
X120943573Y-166605887D01*
X120989602Y-166610589D01*
X121047455Y-166616500D01*
X121648544Y-166616499D01*
X121752426Y-166605887D01*
X121920738Y-166550115D01*
X122071652Y-166457030D01*
X122197030Y-166331652D01*
X122242462Y-166257994D01*
X122294409Y-166211272D01*
X122363371Y-166200049D01*
X122427454Y-166227893D01*
X122453536Y-166257993D01*
X122486657Y-166311690D01*
X122498971Y-166331654D01*
X122624345Y-166457028D01*
X122624347Y-166457029D01*
X122624348Y-166457030D01*
X122775262Y-166550115D01*
X122859417Y-166578001D01*
X122943573Y-166605887D01*
X122989602Y-166610589D01*
X123047455Y-166616500D01*
X123648544Y-166616499D01*
X123752426Y-166605887D01*
X123920738Y-166550115D01*
X124071652Y-166457030D01*
X124197030Y-166331652D01*
X124242462Y-166257994D01*
X124294409Y-166211272D01*
X124363371Y-166200049D01*
X124427454Y-166227893D01*
X124453536Y-166257993D01*
X124486657Y-166311690D01*
X124498971Y-166331654D01*
X124624345Y-166457028D01*
X124624347Y-166457029D01*
X124624348Y-166457030D01*
X124775262Y-166550115D01*
X124859417Y-166578001D01*
X124943573Y-166605887D01*
X124989602Y-166610589D01*
X125047455Y-166616500D01*
X125648544Y-166616499D01*
X125752426Y-166605887D01*
X125920738Y-166550115D01*
X126071652Y-166457030D01*
X126197030Y-166331652D01*
X126290115Y-166180738D01*
X126345887Y-166012426D01*
X126356500Y-165908545D01*
X126356499Y-165307456D01*
X126345887Y-165203574D01*
X126290115Y-165035262D01*
X126197030Y-164884348D01*
X126197029Y-164884347D01*
X126197028Y-164884345D01*
X126071654Y-164758971D01*
X125920736Y-164665884D01*
X125752426Y-164610112D01*
X125651675Y-164599819D01*
X125651659Y-164599818D01*
X125648545Y-164599500D01*
X125645397Y-164599500D01*
X125050604Y-164599500D01*
X125050584Y-164599500D01*
X125047456Y-164599501D01*
X125044325Y-164599820D01*
X125044321Y-164599821D01*
X124943574Y-164610112D01*
X124775263Y-164665884D01*
X124624345Y-164758971D01*
X124498969Y-164884347D01*
X124453538Y-164958003D01*
X124401590Y-165004728D01*
X124332628Y-165015949D01*
X124268546Y-164988106D01*
X124242462Y-164958003D01*
X124197030Y-164884347D01*
X124071654Y-164758971D01*
X123920736Y-164665884D01*
X123752426Y-164610112D01*
X123651675Y-164599819D01*
X123651659Y-164599818D01*
X123648545Y-164599500D01*
X123645397Y-164599500D01*
X123050604Y-164599500D01*
X123050584Y-164599500D01*
X123047456Y-164599501D01*
X123044325Y-164599820D01*
X123044321Y-164599821D01*
X122943574Y-164610112D01*
X122775263Y-164665884D01*
X122624345Y-164758971D01*
X122498969Y-164884347D01*
X122453538Y-164958003D01*
X122401590Y-165004728D01*
X122332628Y-165015949D01*
X122268546Y-164988106D01*
X122242462Y-164958003D01*
X122197030Y-164884347D01*
X122071654Y-164758971D01*
X121920736Y-164665884D01*
X121752426Y-164610112D01*
X121651675Y-164599819D01*
X121651659Y-164599818D01*
X121648545Y-164599500D01*
X121645397Y-164599500D01*
X121050604Y-164599500D01*
X121050584Y-164599500D01*
X121047456Y-164599501D01*
X121044325Y-164599820D01*
X121044321Y-164599821D01*
X120943574Y-164610112D01*
X120775263Y-164665884D01*
X120624345Y-164758971D01*
X120498969Y-164884347D01*
X120453538Y-164958003D01*
X120401590Y-165004728D01*
X120332628Y-165015949D01*
X120268546Y-164988106D01*
X120242462Y-164958003D01*
X120197030Y-164884347D01*
X120071654Y-164758971D01*
X119920736Y-164665884D01*
X119752426Y-164610112D01*
X119651675Y-164599819D01*
X119651659Y-164599818D01*
X119648545Y-164599500D01*
X119645397Y-164599500D01*
X119050604Y-164599500D01*
X119050584Y-164599500D01*
X119047456Y-164599501D01*
X119044325Y-164599820D01*
X119044321Y-164599821D01*
X118943574Y-164610112D01*
X118775263Y-164665884D01*
X118624345Y-164758971D01*
X118498969Y-164884347D01*
X118453538Y-164958003D01*
X118401590Y-165004728D01*
X118332628Y-165015949D01*
X118268546Y-164988106D01*
X118242462Y-164958003D01*
X118197030Y-164884347D01*
X118071654Y-164758971D01*
X117920736Y-164665884D01*
X117752426Y-164610112D01*
X117651675Y-164599819D01*
X117651659Y-164599818D01*
X117648545Y-164599500D01*
X117645397Y-164599500D01*
X117050604Y-164599500D01*
X117050584Y-164599500D01*
X117047456Y-164599501D01*
X117044325Y-164599820D01*
X117044321Y-164599821D01*
X116943574Y-164610112D01*
X116775263Y-164665884D01*
X116624345Y-164758971D01*
X116498971Y-164884345D01*
X116405884Y-165035263D01*
X116350112Y-165203573D01*
X116339819Y-165304324D01*
X116339818Y-165304341D01*
X116339500Y-165307455D01*
X116339500Y-165310601D01*
X116339500Y-165310602D01*
X116339500Y-165905395D01*
X116339500Y-165905414D01*
X111377844Y-165905414D01*
X114958542Y-162324716D01*
X114975372Y-162311235D01*
X114981508Y-162304701D01*
X115025652Y-162257690D01*
X115028301Y-162254957D01*
X115048927Y-162234333D01*
X115051701Y-162230755D01*
X115059287Y-162221872D01*
X115090972Y-162188133D01*
X115101380Y-162169200D01*
X115112059Y-162152942D01*
X115125304Y-162135868D01*
X115143691Y-162093375D01*
X115148822Y-162082902D01*
X115171124Y-162042337D01*
X115176497Y-162021405D01*
X115182796Y-162003010D01*
X115191380Y-161983176D01*
X115198620Y-161937454D01*
X115200990Y-161926012D01*
X115212500Y-161881188D01*
X115212500Y-161859580D01*
X115214027Y-161840180D01*
X115214666Y-161836147D01*
X115217406Y-161818848D01*
X115213050Y-161772764D01*
X115212500Y-161761095D01*
X115212500Y-156004888D01*
X115214866Y-155983455D01*
X115212561Y-155910098D01*
X115212500Y-155906203D01*
X115212500Y-155880959D01*
X115212500Y-155877068D01*
X115211933Y-155872578D01*
X115211015Y-155860923D01*
X115210740Y-155852168D01*
X115209562Y-155814669D01*
X115203534Y-155793921D01*
X115199591Y-155774884D01*
X115196882Y-155753436D01*
X115179830Y-155710369D01*
X115176062Y-155699361D01*
X115163145Y-155654900D01*
X115152148Y-155636307D01*
X115143587Y-155618830D01*
X115135635Y-155598744D01*
X115108422Y-155561289D01*
X115102008Y-155551524D01*
X115100629Y-155549193D01*
X115092934Y-155536180D01*
X115078453Y-155511694D01*
X115078452Y-155511693D01*
X115063172Y-155496413D01*
X115050539Y-155481621D01*
X115037841Y-155464143D01*
X115002165Y-155434629D01*
X114993526Y-155426767D01*
X114392174Y-154825414D01*
X116339500Y-154825414D01*
X116339501Y-154828544D01*
X116339820Y-154831675D01*
X116339821Y-154831678D01*
X116350112Y-154932425D01*
X116405884Y-155100736D01*
X116405885Y-155100738D01*
X116434971Y-155147893D01*
X116498971Y-155251654D01*
X116624345Y-155377028D01*
X116624347Y-155377029D01*
X116624348Y-155377030D01*
X116775262Y-155470115D01*
X116833818Y-155489518D01*
X116943573Y-155525887D01*
X116954644Y-155527018D01*
X117047455Y-155536500D01*
X117648544Y-155536499D01*
X117752426Y-155525887D01*
X117920738Y-155470115D01*
X118071652Y-155377030D01*
X118197030Y-155251652D01*
X118242462Y-155177994D01*
X118294409Y-155131272D01*
X118363371Y-155120049D01*
X118427454Y-155147893D01*
X118453536Y-155177993D01*
X118482472Y-155224905D01*
X118498971Y-155251654D01*
X118624345Y-155377028D01*
X118624347Y-155377029D01*
X118624348Y-155377030D01*
X118775262Y-155470115D01*
X118833818Y-155489518D01*
X118943573Y-155525887D01*
X118954644Y-155527018D01*
X119047455Y-155536500D01*
X119648544Y-155536499D01*
X119752426Y-155525887D01*
X119920738Y-155470115D01*
X120071652Y-155377030D01*
X120197030Y-155251652D01*
X120242462Y-155177994D01*
X120294409Y-155131272D01*
X120363371Y-155120049D01*
X120427454Y-155147893D01*
X120453536Y-155177993D01*
X120482472Y-155224905D01*
X120498971Y-155251654D01*
X120624345Y-155377028D01*
X120624347Y-155377029D01*
X120624348Y-155377030D01*
X120775262Y-155470115D01*
X120833818Y-155489518D01*
X120943573Y-155525887D01*
X120954644Y-155527018D01*
X121047455Y-155536500D01*
X121648544Y-155536499D01*
X121752426Y-155525887D01*
X121920738Y-155470115D01*
X122071652Y-155377030D01*
X122197030Y-155251652D01*
X122242462Y-155177994D01*
X122294409Y-155131272D01*
X122363371Y-155120049D01*
X122427454Y-155147893D01*
X122453536Y-155177993D01*
X122482472Y-155224905D01*
X122498971Y-155251654D01*
X122624345Y-155377028D01*
X122624347Y-155377029D01*
X122624348Y-155377030D01*
X122775262Y-155470115D01*
X122833818Y-155489518D01*
X122943573Y-155525887D01*
X122954644Y-155527018D01*
X123047455Y-155536500D01*
X123648544Y-155536499D01*
X123752426Y-155525887D01*
X123920738Y-155470115D01*
X124071652Y-155377030D01*
X124197030Y-155251652D01*
X124242462Y-155177994D01*
X124294409Y-155131272D01*
X124363371Y-155120049D01*
X124427454Y-155147893D01*
X124453536Y-155177993D01*
X124482472Y-155224905D01*
X124498971Y-155251654D01*
X124624345Y-155377028D01*
X124624347Y-155377029D01*
X124624348Y-155377030D01*
X124775262Y-155470115D01*
X124833818Y-155489518D01*
X124943573Y-155525887D01*
X124954644Y-155527018D01*
X125047455Y-155536500D01*
X125648544Y-155536499D01*
X125752426Y-155525887D01*
X125920738Y-155470115D01*
X126071652Y-155377030D01*
X126197030Y-155251652D01*
X126290115Y-155100738D01*
X126345887Y-154932426D01*
X126356500Y-154828545D01*
X126356499Y-154227456D01*
X126345887Y-154123574D01*
X126290115Y-153955262D01*
X126197030Y-153804348D01*
X126197029Y-153804347D01*
X126197028Y-153804345D01*
X126071654Y-153678971D01*
X125920736Y-153585884D01*
X125752426Y-153530112D01*
X125651675Y-153519819D01*
X125651659Y-153519818D01*
X125648545Y-153519500D01*
X125645397Y-153519500D01*
X125050604Y-153519500D01*
X125050584Y-153519500D01*
X125047456Y-153519501D01*
X125044325Y-153519820D01*
X125044321Y-153519821D01*
X124943574Y-153530112D01*
X124775263Y-153585884D01*
X124624345Y-153678971D01*
X124498969Y-153804347D01*
X124453538Y-153878003D01*
X124401590Y-153924728D01*
X124332628Y-153935949D01*
X124268546Y-153908106D01*
X124242462Y-153878003D01*
X124197030Y-153804347D01*
X124071654Y-153678971D01*
X123920736Y-153585884D01*
X123752426Y-153530112D01*
X123651675Y-153519819D01*
X123651659Y-153519818D01*
X123648545Y-153519500D01*
X123645397Y-153519500D01*
X123050604Y-153519500D01*
X123050584Y-153519500D01*
X123047456Y-153519501D01*
X123044325Y-153519820D01*
X123044321Y-153519821D01*
X122943574Y-153530112D01*
X122775263Y-153585884D01*
X122624345Y-153678971D01*
X122498969Y-153804347D01*
X122453538Y-153878003D01*
X122401590Y-153924728D01*
X122332628Y-153935949D01*
X122268546Y-153908106D01*
X122242462Y-153878003D01*
X122197030Y-153804347D01*
X122071654Y-153678971D01*
X121920736Y-153585884D01*
X121752426Y-153530112D01*
X121651675Y-153519819D01*
X121651659Y-153519818D01*
X121648545Y-153519500D01*
X121645397Y-153519500D01*
X121050604Y-153519500D01*
X121050584Y-153519500D01*
X121047456Y-153519501D01*
X121044325Y-153519820D01*
X121044321Y-153519821D01*
X120943574Y-153530112D01*
X120775263Y-153585884D01*
X120624345Y-153678971D01*
X120498969Y-153804347D01*
X120453538Y-153878003D01*
X120401590Y-153924728D01*
X120332628Y-153935949D01*
X120268546Y-153908106D01*
X120242462Y-153878003D01*
X120197030Y-153804347D01*
X120071654Y-153678971D01*
X119920736Y-153585884D01*
X119752426Y-153530112D01*
X119651675Y-153519819D01*
X119651659Y-153519818D01*
X119648545Y-153519500D01*
X119645397Y-153519500D01*
X119050604Y-153519500D01*
X119050584Y-153519500D01*
X119047456Y-153519501D01*
X119044325Y-153519820D01*
X119044321Y-153519821D01*
X118943574Y-153530112D01*
X118775263Y-153585884D01*
X118624345Y-153678971D01*
X118498969Y-153804347D01*
X118453538Y-153878003D01*
X118401590Y-153924728D01*
X118332628Y-153935949D01*
X118268546Y-153908106D01*
X118242462Y-153878003D01*
X118197030Y-153804347D01*
X118071654Y-153678971D01*
X117920736Y-153585884D01*
X117752426Y-153530112D01*
X117651675Y-153519819D01*
X117651659Y-153519818D01*
X117648545Y-153519500D01*
X117645397Y-153519500D01*
X117050604Y-153519500D01*
X117050584Y-153519500D01*
X117047456Y-153519501D01*
X117044325Y-153519820D01*
X117044321Y-153519821D01*
X116943574Y-153530112D01*
X116775263Y-153585884D01*
X116624345Y-153678971D01*
X116498971Y-153804345D01*
X116405884Y-153955263D01*
X116350112Y-154123573D01*
X116339819Y-154224324D01*
X116339818Y-154224341D01*
X116339500Y-154227455D01*
X116339500Y-154230601D01*
X116339500Y-154230602D01*
X116339500Y-154825395D01*
X116339500Y-154825414D01*
X114392174Y-154825414D01*
X114038891Y-154472131D01*
X114009531Y-154425407D01*
X113971709Y-154317317D01*
X113880771Y-154172591D01*
X113759909Y-154051729D01*
X113615183Y-153960791D01*
X113453850Y-153904338D01*
X113453848Y-153904337D01*
X113453846Y-153904337D01*
X113283999Y-153885200D01*
X113114153Y-153904337D01*
X113114150Y-153904337D01*
X113114150Y-153904338D01*
X112952817Y-153960791D01*
X112952815Y-153960791D01*
X112952815Y-153960792D01*
X112808089Y-154051730D01*
X112687230Y-154172589D01*
X112654725Y-154224321D01*
X112596291Y-154317317D01*
X112543843Y-154467204D01*
X112539837Y-154478653D01*
X112520700Y-154648500D01*
X112539837Y-154818346D01*
X112539837Y-154818348D01*
X112539838Y-154818350D01*
X112596291Y-154979683D01*
X112687229Y-155124409D01*
X112808091Y-155245271D01*
X112952817Y-155336209D01*
X113060907Y-155374031D01*
X113107631Y-155403391D01*
X113859180Y-156154940D01*
X113892665Y-156216263D01*
X113895499Y-156242621D01*
X113895499Y-161473877D01*
X113875814Y-161540916D01*
X113859180Y-161561558D01*
X106189559Y-169231181D01*
X106128236Y-169264666D01*
X106101878Y-169267500D01*
X102993774Y-169267500D01*
X102926735Y-169247815D01*
X102880980Y-169195011D01*
X102870554Y-169157383D01*
X102860550Y-169068604D01*
X102852162Y-168994150D01*
X102795709Y-168832817D01*
X102704771Y-168688091D01*
X102583909Y-168567229D01*
X102439183Y-168476291D01*
X102277850Y-168419838D01*
X102277848Y-168419837D01*
X102277846Y-168419837D01*
X102107999Y-168400700D01*
X101938153Y-168419837D01*
X101938150Y-168419837D01*
X101938150Y-168419838D01*
X101776817Y-168476291D01*
X101776816Y-168476291D01*
X101776812Y-168476293D01*
X101760578Y-168486494D01*
X101694607Y-168505500D01*
X75508122Y-168505500D01*
X75441083Y-168485815D01*
X75420441Y-168469181D01*
X72051260Y-165100000D01*
X76706700Y-165100000D01*
X76725837Y-165269846D01*
X76725837Y-165269848D01*
X76725838Y-165269850D01*
X76782291Y-165431183D01*
X76873229Y-165575909D01*
X76994091Y-165696771D01*
X77138817Y-165787709D01*
X77300150Y-165844162D01*
X77470000Y-165863299D01*
X77639850Y-165844162D01*
X77801183Y-165787709D01*
X77808400Y-165783174D01*
X77817422Y-165777506D01*
X77883393Y-165758500D01*
X103545610Y-165758500D01*
X103567044Y-165760866D01*
X103569535Y-165760787D01*
X103569537Y-165760788D01*
X103640400Y-165758561D01*
X103644296Y-165758500D01*
X103669541Y-165758500D01*
X103673432Y-165758500D01*
X103677918Y-165757933D01*
X103689572Y-165757015D01*
X103735831Y-165755562D01*
X103756576Y-165749534D01*
X103775616Y-165745591D01*
X103797064Y-165742882D01*
X103840118Y-165725835D01*
X103851142Y-165722060D01*
X103895600Y-165709145D01*
X103914191Y-165698149D01*
X103931664Y-165689589D01*
X103951756Y-165681635D01*
X103989222Y-165654412D01*
X103998960Y-165648016D01*
X104038807Y-165624453D01*
X104054087Y-165609171D01*
X104068877Y-165596540D01*
X104086357Y-165583841D01*
X104115869Y-165548165D01*
X104123712Y-165539546D01*
X110386542Y-159276716D01*
X110403372Y-159263235D01*
X110410830Y-159255293D01*
X110453652Y-159209690D01*
X110456301Y-159206957D01*
X110476927Y-159186333D01*
X110479701Y-159182755D01*
X110487287Y-159173872D01*
X110518972Y-159140133D01*
X110529380Y-159121200D01*
X110540059Y-159104942D01*
X110553304Y-159087868D01*
X110571692Y-159045375D01*
X110576829Y-159034892D01*
X110599123Y-158994340D01*
X110604495Y-158973416D01*
X110610798Y-158955007D01*
X110619380Y-158935177D01*
X110626623Y-158889441D01*
X110628989Y-158878017D01*
X110640500Y-158833188D01*
X110640500Y-158811570D01*
X110642024Y-158792200D01*
X110645406Y-158770848D01*
X110641050Y-158724764D01*
X110640500Y-158713095D01*
X110640500Y-147136121D01*
X110660185Y-147069082D01*
X110676814Y-147048445D01*
X112504441Y-145220819D01*
X112565764Y-145187334D01*
X112592122Y-145184500D01*
X113505607Y-145184500D01*
X113571578Y-145203506D01*
X113587812Y-145213706D01*
X113587817Y-145213709D01*
X113749150Y-145270162D01*
X113876537Y-145284514D01*
X113918999Y-145289299D01*
X113918999Y-145289298D01*
X113919000Y-145289299D01*
X114088850Y-145270162D01*
X114250183Y-145213709D01*
X114394909Y-145122771D01*
X114515771Y-145001909D01*
X114606709Y-144857183D01*
X114663162Y-144695850D01*
X114682299Y-144526000D01*
X114663162Y-144356150D01*
X114606709Y-144194817D01*
X114515771Y-144050091D01*
X114394909Y-143929229D01*
X114250183Y-143838291D01*
X114088850Y-143781838D01*
X114088848Y-143781837D01*
X114088846Y-143781837D01*
X113919000Y-143762700D01*
X113749153Y-143781837D01*
X113749150Y-143781837D01*
X113749150Y-143781838D01*
X113587817Y-143838291D01*
X113587816Y-143838291D01*
X113587812Y-143838293D01*
X113571578Y-143848494D01*
X113505607Y-143867500D01*
X112354390Y-143867500D01*
X112332955Y-143865133D01*
X112259599Y-143867439D01*
X112255704Y-143867500D01*
X112226568Y-143867500D01*
X112222719Y-143867985D01*
X112222702Y-143867987D01*
X112222058Y-143868069D01*
X112210437Y-143868983D01*
X112164168Y-143870437D01*
X112143423Y-143876464D01*
X112124379Y-143880408D01*
X112102935Y-143883117D01*
X112059895Y-143900158D01*
X112048848Y-143903940D01*
X112004401Y-143916854D01*
X111985807Y-143927851D01*
X111968335Y-143936410D01*
X111948243Y-143944364D01*
X111910791Y-143971575D01*
X111901031Y-143977986D01*
X111861194Y-144001546D01*
X111845916Y-144016824D01*
X111831127Y-144029454D01*
X111813644Y-144042156D01*
X111784130Y-144077832D01*
X111776269Y-144086470D01*
X109577452Y-146285286D01*
X109560624Y-146298769D01*
X109510377Y-146352275D01*
X109507672Y-146355066D01*
X109489826Y-146372913D01*
X109489819Y-146372920D01*
X109487073Y-146375667D01*
X109484698Y-146378728D01*
X109484678Y-146378751D01*
X109484280Y-146379265D01*
X109476711Y-146388126D01*
X109445027Y-146421867D01*
X109434619Y-146440799D01*
X109423940Y-146457056D01*
X109410694Y-146474133D01*
X109392309Y-146516616D01*
X109387173Y-146527101D01*
X109364875Y-146567661D01*
X109359503Y-146588586D01*
X109353202Y-146606988D01*
X109344619Y-146626822D01*
X109337379Y-146672536D01*
X109335011Y-146683970D01*
X109323500Y-146728808D01*
X109323500Y-146750413D01*
X109321974Y-146769808D01*
X109318593Y-146791151D01*
X109322950Y-146837234D01*
X109323500Y-146848903D01*
X109323500Y-158425878D01*
X109303815Y-158492917D01*
X109287181Y-158513559D01*
X103395559Y-164405181D01*
X103334236Y-164438666D01*
X103307878Y-164441500D01*
X77883393Y-164441500D01*
X77817422Y-164422494D01*
X77801187Y-164412293D01*
X77801185Y-164412292D01*
X77801183Y-164412291D01*
X77639850Y-164355838D01*
X77639848Y-164355837D01*
X77639846Y-164355837D01*
X77470000Y-164336700D01*
X77300153Y-164355837D01*
X77300150Y-164355837D01*
X77300150Y-164355838D01*
X77138817Y-164412291D01*
X77138815Y-164412291D01*
X77138815Y-164412292D01*
X76994089Y-164503230D01*
X76873230Y-164624089D01*
X76788478Y-164758971D01*
X76782291Y-164768817D01*
X76765654Y-164816363D01*
X76725837Y-164930153D01*
X76706700Y-165100000D01*
X72051260Y-165100000D01*
X71143441Y-164192181D01*
X71109956Y-164130858D01*
X71114940Y-164061166D01*
X71156812Y-164005233D01*
X71222276Y-163980816D01*
X71231122Y-163980500D01*
X80939610Y-163980500D01*
X80961044Y-163982866D01*
X80963535Y-163982787D01*
X80963537Y-163982788D01*
X81034400Y-163980561D01*
X81038296Y-163980500D01*
X81063541Y-163980500D01*
X81067432Y-163980500D01*
X81071918Y-163979933D01*
X81083572Y-163979015D01*
X81129831Y-163977562D01*
X81150576Y-163971534D01*
X81169616Y-163967591D01*
X81191064Y-163964882D01*
X81234118Y-163947835D01*
X81245142Y-163944060D01*
X81289600Y-163931145D01*
X81308191Y-163920149D01*
X81325664Y-163911589D01*
X81345756Y-163903635D01*
X81383222Y-163876412D01*
X81392960Y-163870016D01*
X81432807Y-163846453D01*
X81448087Y-163831171D01*
X81462877Y-163818540D01*
X81480357Y-163805841D01*
X81509869Y-163770165D01*
X81517712Y-163761546D01*
X86596440Y-158682819D01*
X86657764Y-158649334D01*
X86684122Y-158646500D01*
X99229458Y-158646500D01*
X99296497Y-158666185D01*
X99317138Y-158682818D01*
X99346091Y-158711771D01*
X99490817Y-158802709D01*
X99652150Y-158859162D01*
X99822000Y-158878299D01*
X99991850Y-158859162D01*
X100153183Y-158802709D01*
X100297909Y-158711771D01*
X100418771Y-158590909D01*
X100509709Y-158446183D01*
X100566162Y-158284850D01*
X100585299Y-158115000D01*
X100566162Y-157945150D01*
X100509709Y-157783817D01*
X100418771Y-157639091D01*
X100297909Y-157518229D01*
X100237068Y-157480000D01*
X102360700Y-157480000D01*
X102379837Y-157649846D01*
X102379837Y-157649848D01*
X102379838Y-157649850D01*
X102436291Y-157811183D01*
X102527229Y-157955909D01*
X102648091Y-158076771D01*
X102792817Y-158167709D01*
X102900907Y-158205531D01*
X102947631Y-158234891D01*
X103867282Y-159154542D01*
X103880769Y-159171375D01*
X103882583Y-159173078D01*
X103882584Y-159173080D01*
X103899725Y-159189176D01*
X103934273Y-159221619D01*
X103937070Y-159224330D01*
X103957667Y-159244927D01*
X103961256Y-159247711D01*
X103970121Y-159255283D01*
X104003867Y-159286972D01*
X104022791Y-159297375D01*
X104039050Y-159308054D01*
X104056131Y-159321304D01*
X104056132Y-159321304D01*
X104056133Y-159321305D01*
X104098617Y-159339689D01*
X104109101Y-159344824D01*
X104149663Y-159367124D01*
X104170578Y-159372494D01*
X104188983Y-159378794D01*
X104208823Y-159387380D01*
X104254560Y-159394623D01*
X104265978Y-159396988D01*
X104288191Y-159402692D01*
X104310811Y-159408500D01*
X104310812Y-159408500D01*
X104332414Y-159408500D01*
X104351810Y-159410026D01*
X104373152Y-159413406D01*
X104419235Y-159409049D01*
X104430903Y-159408500D01*
X104742607Y-159408500D01*
X104808578Y-159427506D01*
X104823319Y-159436768D01*
X104824817Y-159437709D01*
X104986150Y-159494162D01*
X105041367Y-159500383D01*
X105059611Y-159502439D01*
X105124025Y-159529505D01*
X105163580Y-159587100D01*
X105168948Y-159639542D01*
X105154700Y-159765999D01*
X105173837Y-159935846D01*
X105173837Y-159935848D01*
X105173838Y-159935850D01*
X105230291Y-160097183D01*
X105321229Y-160241909D01*
X105442091Y-160362771D01*
X105586817Y-160453709D01*
X105748150Y-160510162D01*
X105918000Y-160529299D01*
X106087850Y-160510162D01*
X106249183Y-160453709D01*
X106393909Y-160362771D01*
X106514771Y-160241909D01*
X106605709Y-160097183D01*
X106643996Y-159987763D01*
X106667449Y-159947702D01*
X106666918Y-159948345D01*
X106667551Y-159947527D01*
X106667550Y-159947527D01*
X106669329Y-159945235D01*
X106669690Y-159944770D01*
X106677285Y-159935874D01*
X106708972Y-159902133D01*
X106719375Y-159883208D01*
X106730056Y-159866946D01*
X106743304Y-159849869D01*
X106761697Y-159807361D01*
X106766815Y-159796914D01*
X106789124Y-159756337D01*
X106794495Y-159735414D01*
X106800795Y-159717014D01*
X106809380Y-159697177D01*
X106816624Y-159651436D01*
X106818985Y-159640033D01*
X106830500Y-159595188D01*
X106830500Y-159573580D01*
X106832027Y-159554181D01*
X106835406Y-159532849D01*
X106831050Y-159486765D01*
X106830500Y-159475096D01*
X106830500Y-157820388D01*
X106832866Y-157798955D01*
X106832390Y-157783817D01*
X106830561Y-157725598D01*
X106830500Y-157721703D01*
X106830500Y-157696459D01*
X106830500Y-157692568D01*
X106829933Y-157688078D01*
X106829015Y-157676423D01*
X106827562Y-157630169D01*
X106821534Y-157609421D01*
X106817591Y-157590384D01*
X106814882Y-157568936D01*
X106797830Y-157525869D01*
X106794062Y-157514861D01*
X106781145Y-157470400D01*
X106770148Y-157451807D01*
X106761587Y-157434330D01*
X106753635Y-157414244D01*
X106726422Y-157376789D01*
X106720008Y-157367024D01*
X106696453Y-157327194D01*
X106693853Y-157324594D01*
X106681172Y-157311913D01*
X106668539Y-157297121D01*
X106655841Y-157279643D01*
X106620165Y-157250129D01*
X106611526Y-157242267D01*
X104640891Y-155271631D01*
X104611531Y-155224907D01*
X104573709Y-155116817D01*
X104482771Y-154972091D01*
X104361909Y-154851229D01*
X104217183Y-154760291D01*
X104055850Y-154703838D01*
X104055848Y-154703837D01*
X104055846Y-154703837D01*
X103885999Y-154684700D01*
X103716153Y-154703837D01*
X103716150Y-154703837D01*
X103716150Y-154703838D01*
X103554817Y-154760291D01*
X103554815Y-154760291D01*
X103554815Y-154760292D01*
X103410089Y-154851230D01*
X103289230Y-154972089D01*
X103260896Y-155017183D01*
X103198291Y-155116817D01*
X103160469Y-155224905D01*
X103141837Y-155278153D01*
X103122700Y-155448000D01*
X103141837Y-155617846D01*
X103141837Y-155617848D01*
X103141838Y-155617850D01*
X103198291Y-155779183D01*
X103289229Y-155923909D01*
X103410091Y-156044771D01*
X103554817Y-156135709D01*
X103662907Y-156173531D01*
X103709631Y-156202891D01*
X105285710Y-157778970D01*
X105319195Y-157840293D01*
X105314211Y-157909985D01*
X105272339Y-157965918D01*
X105206875Y-157990335D01*
X105184147Y-157989871D01*
X105156001Y-157986700D01*
X104986153Y-158005837D01*
X104986150Y-158005837D01*
X104986150Y-158005838D01*
X104824817Y-158062291D01*
X104824816Y-158062291D01*
X104824812Y-158062293D01*
X104808578Y-158072494D01*
X104742607Y-158091500D01*
X104718121Y-158091500D01*
X104651082Y-158071815D01*
X104630440Y-158055181D01*
X104257531Y-157682272D01*
X103878891Y-157303631D01*
X103849531Y-157256907D01*
X103811709Y-157148817D01*
X103720771Y-157004091D01*
X103599909Y-156883229D01*
X103455183Y-156792291D01*
X103293850Y-156735838D01*
X103293848Y-156735837D01*
X103293846Y-156735837D01*
X103123999Y-156716700D01*
X102954153Y-156735837D01*
X102954150Y-156735837D01*
X102954150Y-156735838D01*
X102792817Y-156792291D01*
X102792815Y-156792291D01*
X102792815Y-156792292D01*
X102648089Y-156883230D01*
X102527230Y-157004089D01*
X102442718Y-157138589D01*
X102436291Y-157148817D01*
X102390513Y-157279643D01*
X102379837Y-157310153D01*
X102360700Y-157480000D01*
X100237068Y-157480000D01*
X100153183Y-157427291D01*
X99991850Y-157370838D01*
X99991846Y-157370837D01*
X99991845Y-157370837D01*
X99922415Y-157363014D01*
X99887055Y-157353596D01*
X99880176Y-157350619D01*
X99834455Y-157343378D01*
X99823016Y-157341009D01*
X99778190Y-157329500D01*
X99778188Y-157329500D01*
X99756581Y-157329500D01*
X99737183Y-157327973D01*
X99728603Y-157326614D01*
X99715849Y-157324594D01*
X99715848Y-157324594D01*
X99669764Y-157328950D01*
X99658097Y-157329500D01*
X86802622Y-157329500D01*
X86735583Y-157309815D01*
X86689828Y-157257011D01*
X86679884Y-157187853D01*
X86688819Y-157156257D01*
X86689317Y-157155107D01*
X86695691Y-157140374D01*
X86700822Y-157129902D01*
X86723124Y-157089337D01*
X86728497Y-157068405D01*
X86734796Y-157050010D01*
X86743380Y-157030176D01*
X86750620Y-156984454D01*
X86752990Y-156973012D01*
X86764500Y-156928188D01*
X86764500Y-156906580D01*
X86766027Y-156887180D01*
X86769406Y-156865848D01*
X86765050Y-156819764D01*
X86764500Y-156808095D01*
X86764500Y-156042388D01*
X86766866Y-156020955D01*
X86765609Y-155980963D01*
X86764561Y-155947598D01*
X86764500Y-155943703D01*
X86764500Y-155918459D01*
X86764500Y-155914568D01*
X86763933Y-155910078D01*
X86763015Y-155898423D01*
X86761562Y-155852169D01*
X86755534Y-155831421D01*
X86751591Y-155812384D01*
X86748882Y-155790936D01*
X86731830Y-155747869D01*
X86728062Y-155736861D01*
X86715145Y-155692400D01*
X86704148Y-155673807D01*
X86695587Y-155656330D01*
X86687635Y-155636244D01*
X86660422Y-155598789D01*
X86654008Y-155589024D01*
X86630453Y-155549194D01*
X86630453Y-155549193D01*
X86615172Y-155533913D01*
X86602539Y-155519121D01*
X86597142Y-155511693D01*
X86589841Y-155501643D01*
X86554165Y-155472129D01*
X86545526Y-155464267D01*
X85590891Y-154509631D01*
X85561531Y-154462907D01*
X85523709Y-154354817D01*
X85432771Y-154210091D01*
X85311909Y-154089229D01*
X85167183Y-153998291D01*
X85005850Y-153941838D01*
X85005848Y-153941837D01*
X85005846Y-153941837D01*
X84835999Y-153922700D01*
X84666153Y-153941837D01*
X84666150Y-153941837D01*
X84666150Y-153941838D01*
X84504817Y-153998291D01*
X84504815Y-153998291D01*
X84504815Y-153998292D01*
X84360089Y-154089230D01*
X84239230Y-154210089D01*
X84226340Y-154230604D01*
X84148291Y-154354817D01*
X84094119Y-154509631D01*
X84091837Y-154516153D01*
X84072700Y-154685999D01*
X84091837Y-154855846D01*
X84091837Y-154855848D01*
X84091838Y-154855850D01*
X84148291Y-155017183D01*
X84239229Y-155161909D01*
X84360091Y-155282771D01*
X84504817Y-155373709D01*
X84612907Y-155411531D01*
X84659631Y-155440891D01*
X85040795Y-155822055D01*
X85411181Y-156192440D01*
X85444666Y-156253763D01*
X85447500Y-156280121D01*
X85447500Y-156520878D01*
X85427815Y-156587917D01*
X85411181Y-156608559D01*
X81678559Y-160341181D01*
X81617236Y-160374666D01*
X81590878Y-160377500D01*
X81185393Y-160377500D01*
X81119422Y-160358494D01*
X81103187Y-160348293D01*
X81103185Y-160348292D01*
X81103183Y-160348291D01*
X80941850Y-160291838D01*
X80941848Y-160291837D01*
X80941846Y-160291837D01*
X80772000Y-160272700D01*
X80602153Y-160291837D01*
X80602150Y-160291837D01*
X80602150Y-160291838D01*
X80440817Y-160348291D01*
X80440815Y-160348291D01*
X80440815Y-160348292D01*
X80296089Y-160439230D01*
X80175230Y-160560089D01*
X80089780Y-160696082D01*
X80084291Y-160704817D01*
X80038493Y-160835700D01*
X80027837Y-160866153D01*
X80008700Y-161036000D01*
X80027837Y-161205846D01*
X80027837Y-161205848D01*
X80027838Y-161205850D01*
X80084291Y-161367183D01*
X80175229Y-161511909D01*
X80296091Y-161632771D01*
X80440817Y-161723709D01*
X80602150Y-161780162D01*
X80729537Y-161794514D01*
X80771999Y-161799299D01*
X80771999Y-161799298D01*
X80772000Y-161799299D01*
X80941850Y-161780162D01*
X81103183Y-161723709D01*
X81110400Y-161719174D01*
X81119422Y-161713506D01*
X81185393Y-161694500D01*
X81422878Y-161694500D01*
X81489917Y-161714185D01*
X81535672Y-161766989D01*
X81545616Y-161836147D01*
X81516591Y-161899703D01*
X81510559Y-161906181D01*
X80789559Y-162627181D01*
X80728236Y-162660666D01*
X80701878Y-162663500D01*
X71196916Y-162663500D01*
X71129877Y-162643815D01*
X71084122Y-162591011D01*
X71079875Y-162580455D01*
X71045710Y-162482819D01*
X71041509Y-162476133D01*
X70954771Y-162338091D01*
X70833909Y-162217229D01*
X70689183Y-162126291D01*
X70527850Y-162069838D01*
X70527848Y-162069837D01*
X70527846Y-162069837D01*
X70357999Y-162050700D01*
X70188153Y-162069837D01*
X70188150Y-162069837D01*
X70188150Y-162069838D01*
X70026817Y-162126291D01*
X70026815Y-162126291D01*
X70026815Y-162126292D01*
X69882089Y-162217230D01*
X69761229Y-162338090D01*
X69670289Y-162482817D01*
X69632468Y-162590904D01*
X69603108Y-162637630D01*
X69445452Y-162795286D01*
X69428624Y-162808769D01*
X69378377Y-162862275D01*
X69375672Y-162865066D01*
X69357826Y-162882913D01*
X69357819Y-162882920D01*
X69355073Y-162885667D01*
X69352698Y-162888728D01*
X69352678Y-162888751D01*
X69352280Y-162889265D01*
X69344711Y-162898126D01*
X69313027Y-162931867D01*
X69302619Y-162950799D01*
X69291940Y-162967056D01*
X69278694Y-162984133D01*
X69260309Y-163026616D01*
X69255173Y-163037101D01*
X69232875Y-163077661D01*
X69227503Y-163098586D01*
X69221202Y-163116988D01*
X69212619Y-163136822D01*
X69205379Y-163182536D01*
X69203011Y-163193972D01*
X69190111Y-163244219D01*
X69154374Y-163304258D01*
X69091851Y-163335445D01*
X69022392Y-163327878D01*
X68982325Y-163301065D01*
X68572891Y-162891631D01*
X68543531Y-162844907D01*
X68505709Y-162736817D01*
X68414771Y-162592091D01*
X68293909Y-162471229D01*
X68149183Y-162380291D01*
X67987850Y-162323838D01*
X67987847Y-162323837D01*
X67974662Y-162319224D01*
X67975979Y-162315459D01*
X67934459Y-162298011D01*
X67894906Y-162240415D01*
X67892771Y-162170578D01*
X67925077Y-162114181D01*
X69324440Y-160714819D01*
X69385764Y-160681334D01*
X69412122Y-160678500D01*
X77480419Y-160678500D01*
X77547458Y-160698185D01*
X77593213Y-160750989D01*
X77603157Y-160820147D01*
X77594795Y-160849716D01*
X77592684Y-160863044D01*
X77575206Y-160909614D01*
X77544292Y-160958813D01*
X77487837Y-161120153D01*
X77468700Y-161289999D01*
X77487837Y-161459846D01*
X77487837Y-161459848D01*
X77487838Y-161459850D01*
X77544291Y-161621183D01*
X77635229Y-161765909D01*
X77756091Y-161886771D01*
X77900817Y-161977709D01*
X78062150Y-162034162D01*
X78189537Y-162048514D01*
X78231999Y-162053299D01*
X78231999Y-162053298D01*
X78232000Y-162053299D01*
X78401850Y-162034162D01*
X78563183Y-161977709D01*
X78707909Y-161886771D01*
X78828771Y-161765909D01*
X78919709Y-161621183D01*
X78976162Y-161459850D01*
X78995299Y-161290000D01*
X78993272Y-161272013D01*
X79005325Y-161203193D01*
X79028808Y-161170450D01*
X80668542Y-159530716D01*
X80685372Y-159517235D01*
X80699266Y-159502439D01*
X80735652Y-159463690D01*
X80738301Y-159460957D01*
X80758927Y-159440333D01*
X80761701Y-159436755D01*
X80769287Y-159427872D01*
X80800972Y-159394133D01*
X80811380Y-159375200D01*
X80822059Y-159358942D01*
X80835304Y-159341868D01*
X80853691Y-159299375D01*
X80858822Y-159288902D01*
X80881124Y-159248337D01*
X80886497Y-159227405D01*
X80892796Y-159209010D01*
X80901380Y-159189176D01*
X80908620Y-159143454D01*
X80910990Y-159132012D01*
X80913765Y-159121205D01*
X80922500Y-159087188D01*
X80922500Y-159065580D01*
X80924027Y-159046180D01*
X80924932Y-159040468D01*
X80927406Y-159024848D01*
X80923050Y-158978764D01*
X80922500Y-158967095D01*
X80922500Y-147390121D01*
X80942185Y-147323082D01*
X80958819Y-147302440D01*
X87104440Y-141156819D01*
X87165763Y-141123334D01*
X87192121Y-141120500D01*
X88994607Y-141120500D01*
X89060578Y-141139506D01*
X89076812Y-141149706D01*
X89076817Y-141149709D01*
X89238150Y-141206162D01*
X89408000Y-141225299D01*
X89577850Y-141206162D01*
X89750094Y-141145891D01*
X89819873Y-141142329D01*
X89880500Y-141177057D01*
X89912728Y-141239051D01*
X89906323Y-141308626D01*
X89894098Y-141327882D01*
X89894573Y-141328143D01*
X89876619Y-141360799D01*
X89865940Y-141377056D01*
X89852694Y-141394133D01*
X89834309Y-141436616D01*
X89829173Y-141447101D01*
X89806875Y-141487661D01*
X89801503Y-141508586D01*
X89795202Y-141526988D01*
X89786619Y-141546822D01*
X89779379Y-141592536D01*
X89777011Y-141603970D01*
X89765500Y-141648808D01*
X89765500Y-141670413D01*
X89763974Y-141689808D01*
X89760593Y-141711151D01*
X89764950Y-141757234D01*
X89765500Y-141768903D01*
X89765500Y-149027878D01*
X89745815Y-149094917D01*
X89729181Y-149115559D01*
X88155559Y-150689181D01*
X88094236Y-150722666D01*
X88067878Y-150725500D01*
X85249393Y-150725500D01*
X85183422Y-150706494D01*
X85167187Y-150696293D01*
X85167185Y-150696292D01*
X85167183Y-150696291D01*
X85005850Y-150639838D01*
X85005848Y-150639837D01*
X85005846Y-150639837D01*
X84835999Y-150620700D01*
X84666153Y-150639837D01*
X84666150Y-150639837D01*
X84666150Y-150639838D01*
X84504817Y-150696291D01*
X84504815Y-150696291D01*
X84504815Y-150696292D01*
X84360089Y-150787230D01*
X84239230Y-150908089D01*
X84155677Y-151041063D01*
X84148291Y-151052817D01*
X84111418Y-151158193D01*
X84091837Y-151214153D01*
X84072700Y-151384000D01*
X84091837Y-151553846D01*
X84091837Y-151553848D01*
X84091838Y-151553850D01*
X84148291Y-151715183D01*
X84239229Y-151859909D01*
X84360091Y-151980771D01*
X84504817Y-152071709D01*
X84666150Y-152128162D01*
X84793537Y-152142514D01*
X84835999Y-152147299D01*
X84835999Y-152147298D01*
X84836000Y-152147299D01*
X85005850Y-152128162D01*
X85167183Y-152071709D01*
X85174400Y-152067174D01*
X85183422Y-152061506D01*
X85249393Y-152042500D01*
X88305610Y-152042500D01*
X88327044Y-152044866D01*
X88329535Y-152044787D01*
X88329537Y-152044788D01*
X88400400Y-152042561D01*
X88404296Y-152042500D01*
X88429541Y-152042500D01*
X88433432Y-152042500D01*
X88437918Y-152041933D01*
X88449572Y-152041015D01*
X88495831Y-152039562D01*
X88516576Y-152033534D01*
X88535616Y-152029591D01*
X88557064Y-152026882D01*
X88600118Y-152009835D01*
X88611142Y-152006060D01*
X88655600Y-151993145D01*
X88674191Y-151982149D01*
X88691664Y-151973589D01*
X88711756Y-151965635D01*
X88749222Y-151938412D01*
X88758960Y-151932016D01*
X88798807Y-151908453D01*
X88814087Y-151893171D01*
X88828877Y-151880540D01*
X88846357Y-151867841D01*
X88875869Y-151832165D01*
X88883712Y-151823546D01*
X90828542Y-149878716D01*
X90845372Y-149865235D01*
X90850316Y-149859969D01*
X90895652Y-149811690D01*
X90898301Y-149808957D01*
X90918927Y-149788333D01*
X90921701Y-149784755D01*
X90929287Y-149775872D01*
X90960972Y-149742133D01*
X90971380Y-149723200D01*
X90982059Y-149706942D01*
X90995304Y-149689868D01*
X91013691Y-149647375D01*
X91018822Y-149636902D01*
X91041124Y-149596337D01*
X91046497Y-149575405D01*
X91052796Y-149557010D01*
X91061380Y-149537176D01*
X91068620Y-149491454D01*
X91070990Y-149480012D01*
X91082500Y-149435188D01*
X91082500Y-149413580D01*
X91084027Y-149394180D01*
X91085625Y-149384091D01*
X91087406Y-149372848D01*
X91083050Y-149326764D01*
X91082500Y-149315095D01*
X91082500Y-142473151D01*
X92046593Y-142473151D01*
X92050950Y-142519234D01*
X92051500Y-142530903D01*
X92051500Y-146979610D01*
X92049133Y-147001044D01*
X92051439Y-147074400D01*
X92051500Y-147078295D01*
X92051500Y-147107432D01*
X92051988Y-147111304D01*
X92051989Y-147111305D01*
X92052069Y-147111939D01*
X92052983Y-147123564D01*
X92054437Y-147169833D01*
X92060463Y-147190575D01*
X92064408Y-147209621D01*
X92067117Y-147231063D01*
X92084158Y-147274105D01*
X92087941Y-147285154D01*
X92100855Y-147329601D01*
X92111850Y-147348193D01*
X92120409Y-147365663D01*
X92128364Y-147385754D01*
X92128365Y-147385756D01*
X92155578Y-147423211D01*
X92161977Y-147432952D01*
X92185547Y-147472807D01*
X92185548Y-147472808D01*
X92200822Y-147488082D01*
X92213454Y-147502870D01*
X92223850Y-147517179D01*
X92240573Y-147549109D01*
X92276289Y-147651180D01*
X92276291Y-147651183D01*
X92367229Y-147795909D01*
X92488091Y-147916771D01*
X92632817Y-148007709D01*
X92794150Y-148064162D01*
X92921537Y-148078514D01*
X92963999Y-148083299D01*
X92963999Y-148083298D01*
X92964000Y-148083299D01*
X93133850Y-148064162D01*
X93156547Y-148056219D01*
X93226324Y-148052659D01*
X93286952Y-148087388D01*
X93319179Y-148149381D01*
X93321500Y-148173262D01*
X93321500Y-150789610D01*
X93319133Y-150811044D01*
X93321439Y-150884400D01*
X93321500Y-150888295D01*
X93321500Y-150917432D01*
X93321988Y-150921304D01*
X93321989Y-150921305D01*
X93322069Y-150921939D01*
X93322983Y-150933564D01*
X93324437Y-150979833D01*
X93330463Y-151000575D01*
X93334408Y-151019621D01*
X93337117Y-151041063D01*
X93354158Y-151084105D01*
X93357941Y-151095154D01*
X93370855Y-151139601D01*
X93381850Y-151158193D01*
X93390409Y-151175663D01*
X93397232Y-151192894D01*
X93398365Y-151195756D01*
X93425578Y-151233211D01*
X93431977Y-151242952D01*
X93447647Y-151269448D01*
X93455548Y-151282808D01*
X93470822Y-151298082D01*
X93483458Y-151312876D01*
X93496159Y-151330358D01*
X93531827Y-151359865D01*
X93540467Y-151367727D01*
X94977282Y-152804542D01*
X94990772Y-152821378D01*
X94992583Y-152823078D01*
X94992584Y-152823080D01*
X95019310Y-152848177D01*
X95044288Y-152871633D01*
X95047086Y-152874345D01*
X95067667Y-152894926D01*
X95070746Y-152897314D01*
X95070748Y-152897316D01*
X95071243Y-152897700D01*
X95080119Y-152905281D01*
X95088222Y-152912890D01*
X95113867Y-152936972D01*
X95132803Y-152947382D01*
X95149051Y-152958055D01*
X95166131Y-152971304D01*
X95208622Y-152989691D01*
X95219100Y-152994824D01*
X95259663Y-153017124D01*
X95280589Y-153022496D01*
X95298995Y-153028799D01*
X95318819Y-153037378D01*
X95318821Y-153037378D01*
X95318823Y-153037379D01*
X95364557Y-153044622D01*
X95375955Y-153046982D01*
X95420812Y-153058500D01*
X95442418Y-153058500D01*
X95461817Y-153060027D01*
X95483151Y-153063406D01*
X95525336Y-153059418D01*
X95529232Y-153059050D01*
X95540901Y-153058500D01*
X96433610Y-153058500D01*
X96455044Y-153060866D01*
X96457535Y-153060787D01*
X96457537Y-153060788D01*
X96528400Y-153058561D01*
X96532296Y-153058500D01*
X96557541Y-153058500D01*
X96561432Y-153058500D01*
X96565918Y-153057933D01*
X96577572Y-153057015D01*
X96623831Y-153055562D01*
X96644576Y-153049534D01*
X96663616Y-153045591D01*
X96685064Y-153042882D01*
X96728118Y-153025835D01*
X96739142Y-153022060D01*
X96783600Y-153009145D01*
X96802191Y-152998149D01*
X96819664Y-152989589D01*
X96839756Y-152981635D01*
X96877222Y-152954412D01*
X96886960Y-152948016D01*
X96926807Y-152924453D01*
X96942087Y-152909171D01*
X96956877Y-152896540D01*
X96974357Y-152883841D01*
X97003869Y-152848165D01*
X97011712Y-152839546D01*
X98194542Y-151656716D01*
X98211372Y-151643235D01*
X98216316Y-151637969D01*
X98261652Y-151589690D01*
X98264301Y-151586957D01*
X98284927Y-151566333D01*
X98287703Y-151562752D01*
X98295276Y-151553884D01*
X98326972Y-151520133D01*
X98337375Y-151501209D01*
X98348059Y-151484942D01*
X98361304Y-151467869D01*
X98379697Y-151425361D01*
X98384815Y-151414914D01*
X98407124Y-151374337D01*
X98412495Y-151353414D01*
X98418795Y-151335014D01*
X98427380Y-151315177D01*
X98427381Y-151315173D01*
X98434623Y-151269448D01*
X98436989Y-151258017D01*
X98448500Y-151213188D01*
X98448500Y-151191580D01*
X98450027Y-151172180D01*
X98450912Y-151166592D01*
X98453406Y-151150848D01*
X98449050Y-151104764D01*
X98448500Y-151093095D01*
X98448500Y-150273392D01*
X98467508Y-150207417D01*
X98473331Y-150198150D01*
X98477709Y-150191183D01*
X98534162Y-150029850D01*
X98553299Y-149860000D01*
X98534162Y-149690150D01*
X98477709Y-149528817D01*
X98386771Y-149384091D01*
X98265909Y-149263229D01*
X98121183Y-149172291D01*
X97959850Y-149115838D01*
X97959848Y-149115837D01*
X97959846Y-149115837D01*
X97789999Y-149096700D01*
X97620153Y-149115837D01*
X97620150Y-149115837D01*
X97620150Y-149115838D01*
X97458817Y-149172291D01*
X97458815Y-149172291D01*
X97458815Y-149172292D01*
X97314089Y-149263230D01*
X97193230Y-149384089D01*
X97161124Y-149435186D01*
X97102291Y-149528817D01*
X97064474Y-149636891D01*
X97045837Y-149690153D01*
X97026700Y-149860000D01*
X97045837Y-150029847D01*
X97102291Y-150191183D01*
X97112492Y-150207417D01*
X97131500Y-150273392D01*
X97131500Y-150805878D01*
X97111815Y-150872917D01*
X97095181Y-150893559D01*
X96283559Y-151705181D01*
X96222236Y-151738666D01*
X96195878Y-151741500D01*
X95828121Y-151741500D01*
X95761082Y-151721815D01*
X95740440Y-151705181D01*
X95357080Y-151321820D01*
X95323595Y-151260497D01*
X95328579Y-151190805D01*
X95370451Y-151134872D01*
X95407813Y-151120067D01*
X95406662Y-151116776D01*
X95419846Y-151112162D01*
X95419850Y-151112162D01*
X95581183Y-151055709D01*
X95725909Y-150964771D01*
X95846771Y-150843909D01*
X95937709Y-150699183D01*
X95994162Y-150537850D01*
X96013299Y-150368000D01*
X95994162Y-150198150D01*
X95937709Y-150036817D01*
X95937706Y-150036812D01*
X95927506Y-150020578D01*
X95908500Y-149954607D01*
X95908500Y-147136122D01*
X95928185Y-147069083D01*
X95944819Y-147048441D01*
X97518441Y-145474819D01*
X97579764Y-145441334D01*
X97606122Y-145438500D01*
X97630607Y-145438500D01*
X97696578Y-145457506D01*
X97712812Y-145467706D01*
X97712817Y-145467709D01*
X97874150Y-145524162D01*
X98044000Y-145543299D01*
X98213850Y-145524162D01*
X98375183Y-145467709D01*
X98519909Y-145376771D01*
X98640771Y-145255909D01*
X98731709Y-145111183D01*
X98788162Y-144949850D01*
X98807299Y-144780000D01*
X98788162Y-144610150D01*
X98731709Y-144448817D01*
X98640771Y-144304091D01*
X98519909Y-144183229D01*
X98375183Y-144092291D01*
X98213850Y-144035838D01*
X98213848Y-144035837D01*
X98213846Y-144035837D01*
X98043999Y-144016700D01*
X97874153Y-144035837D01*
X97874150Y-144035837D01*
X97874150Y-144035838D01*
X97712817Y-144092291D01*
X97712816Y-144092291D01*
X97712812Y-144092293D01*
X97696578Y-144102494D01*
X97630607Y-144121500D01*
X97389642Y-144121500D01*
X97322603Y-144101815D01*
X97276848Y-144049011D01*
X97266904Y-143979853D01*
X97295929Y-143916297D01*
X97299251Y-143912615D01*
X97309896Y-143901278D01*
X97310972Y-143900133D01*
X97321380Y-143881200D01*
X97332059Y-143864942D01*
X97345304Y-143847868D01*
X97363691Y-143805375D01*
X97368822Y-143794902D01*
X97391124Y-143754337D01*
X97396497Y-143733405D01*
X97402796Y-143715010D01*
X97411380Y-143695176D01*
X97418620Y-143649454D01*
X97420990Y-143638012D01*
X97432500Y-143593188D01*
X97432500Y-143571580D01*
X97434027Y-143552180D01*
X97437406Y-143530848D01*
X97433050Y-143484764D01*
X97432500Y-143473095D01*
X97432500Y-142310121D01*
X97452185Y-142243082D01*
X97468815Y-142222444D01*
X98220369Y-141470889D01*
X98267091Y-141441531D01*
X98375183Y-141403709D01*
X98519909Y-141312771D01*
X98640771Y-141191909D01*
X98731709Y-141047183D01*
X98788162Y-140885850D01*
X98807299Y-140716000D01*
X98788162Y-140546150D01*
X98731709Y-140384817D01*
X98640771Y-140240091D01*
X98519909Y-140119229D01*
X98375183Y-140028291D01*
X98213850Y-139971838D01*
X98213848Y-139971837D01*
X98213846Y-139971837D01*
X98044000Y-139952700D01*
X97874153Y-139971837D01*
X97874150Y-139971837D01*
X97874150Y-139971838D01*
X97712817Y-140028291D01*
X97712815Y-140028291D01*
X97712815Y-140028292D01*
X97568089Y-140119230D01*
X97447230Y-140240089D01*
X97356289Y-140384819D01*
X97318468Y-140492905D01*
X97289108Y-140539631D01*
X96369453Y-141459286D01*
X96352622Y-141472771D01*
X96302377Y-141526275D01*
X96299672Y-141529066D01*
X96281826Y-141546913D01*
X96281819Y-141546920D01*
X96279073Y-141549667D01*
X96276698Y-141552728D01*
X96276678Y-141552751D01*
X96276280Y-141553265D01*
X96268711Y-141562126D01*
X96237027Y-141595867D01*
X96226619Y-141614799D01*
X96215940Y-141631056D01*
X96202694Y-141648133D01*
X96184309Y-141690616D01*
X96179173Y-141701101D01*
X96156875Y-141741661D01*
X96151503Y-141762586D01*
X96145202Y-141780988D01*
X96136619Y-141800822D01*
X96129379Y-141846536D01*
X96127011Y-141857970D01*
X96115500Y-141902808D01*
X96115500Y-141924413D01*
X96113974Y-141943808D01*
X96110593Y-141965151D01*
X96114950Y-142011234D01*
X96115500Y-142022903D01*
X96115500Y-143185877D01*
X96095815Y-143252916D01*
X96079181Y-143273558D01*
X93580181Y-145772558D01*
X93518858Y-145806043D01*
X93449166Y-145801059D01*
X93393233Y-145759187D01*
X93368816Y-145693723D01*
X93368500Y-145684877D01*
X93368500Y-142818121D01*
X93388185Y-142751082D01*
X93404814Y-142730445D01*
X96435258Y-139700000D01*
X110742700Y-139700000D01*
X110761837Y-139869846D01*
X110761837Y-139869848D01*
X110761838Y-139869850D01*
X110818291Y-140031183D01*
X110909229Y-140175909D01*
X111030091Y-140296771D01*
X111174817Y-140387709D01*
X111336150Y-140444162D01*
X111506000Y-140463299D01*
X111675850Y-140444162D01*
X111837183Y-140387709D01*
X111981909Y-140296771D01*
X112102771Y-140175909D01*
X112193709Y-140031183D01*
X112250162Y-139869850D01*
X112269299Y-139700000D01*
X112250162Y-139530150D01*
X112193709Y-139368817D01*
X112183504Y-139352577D01*
X112164499Y-139286610D01*
X112164500Y-137103121D01*
X112184185Y-137036081D01*
X112200819Y-137015440D01*
X113266440Y-135949819D01*
X113327763Y-135916334D01*
X113354121Y-135913500D01*
X118674878Y-135913500D01*
X118741917Y-135933185D01*
X118762559Y-135949819D01*
X125289180Y-142476441D01*
X125322665Y-142537764D01*
X125325499Y-142564122D01*
X125325499Y-144693610D01*
X125323133Y-144715042D01*
X125325439Y-144788400D01*
X125325500Y-144792295D01*
X125325500Y-144821432D01*
X125325988Y-144825304D01*
X125325989Y-144825305D01*
X125326069Y-144825939D01*
X125326983Y-144837564D01*
X125328437Y-144883833D01*
X125334463Y-144904575D01*
X125338408Y-144923621D01*
X125341117Y-144945063D01*
X125358158Y-144988105D01*
X125361941Y-144999154D01*
X125374855Y-145043601D01*
X125385850Y-145062193D01*
X125394409Y-145079663D01*
X125402364Y-145099754D01*
X125402365Y-145099756D01*
X125429578Y-145137211D01*
X125435977Y-145146952D01*
X125458183Y-145184500D01*
X125459548Y-145186808D01*
X125474822Y-145202082D01*
X125487458Y-145216876D01*
X125500159Y-145234358D01*
X125535827Y-145263865D01*
X125544467Y-145271727D01*
X126813180Y-146540440D01*
X126846665Y-146601763D01*
X126849499Y-146628121D01*
X126849499Y-158844607D01*
X126830495Y-158910576D01*
X126820292Y-158926814D01*
X126763837Y-159088153D01*
X126744700Y-159258000D01*
X126763837Y-159427846D01*
X126763837Y-159427848D01*
X126763838Y-159427850D01*
X126820291Y-159589183D01*
X126911229Y-159733909D01*
X127032091Y-159854771D01*
X127176817Y-159945709D01*
X127338150Y-160002162D01*
X127465537Y-160016514D01*
X127507999Y-160021299D01*
X127507999Y-160021298D01*
X127508000Y-160021299D01*
X127677850Y-160002162D01*
X127839183Y-159945709D01*
X127983909Y-159854771D01*
X128104771Y-159733909D01*
X128195709Y-159589183D01*
X128252162Y-159427850D01*
X128271299Y-159258000D01*
X128252162Y-159088150D01*
X128195709Y-158926817D01*
X128195706Y-158926812D01*
X128185506Y-158910578D01*
X128166500Y-158844607D01*
X128166500Y-146390388D01*
X128168866Y-146368955D01*
X128166561Y-146295598D01*
X128166500Y-146291703D01*
X128166500Y-146266459D01*
X128166500Y-146262568D01*
X128165933Y-146258078D01*
X128165015Y-146246423D01*
X128163562Y-146200169D01*
X128157535Y-146179423D01*
X128153590Y-146160380D01*
X128150882Y-146138936D01*
X128133840Y-146095893D01*
X128130055Y-146084839D01*
X128117145Y-146040399D01*
X128106142Y-146021795D01*
X128097590Y-146004337D01*
X128089635Y-145984244D01*
X128062424Y-145946791D01*
X128056010Y-145937027D01*
X128032453Y-145897194D01*
X128032452Y-145897193D01*
X128017172Y-145881913D01*
X128004539Y-145867121D01*
X127991841Y-145849643D01*
X127956165Y-145820129D01*
X127947526Y-145812267D01*
X126678819Y-144543559D01*
X126645334Y-144482236D01*
X126642500Y-144455878D01*
X126642500Y-142326392D01*
X126644867Y-142304952D01*
X126642561Y-142231578D01*
X126642500Y-142227683D01*
X126642500Y-142202468D01*
X126642500Y-142198568D01*
X126641933Y-142194088D01*
X126641015Y-142182428D01*
X126640189Y-142156133D01*
X126639562Y-142136169D01*
X126633534Y-142115421D01*
X126629591Y-142096384D01*
X126626882Y-142074936D01*
X126609830Y-142031869D01*
X126606062Y-142020861D01*
X126593145Y-141976400D01*
X126593144Y-141976399D01*
X126593144Y-141976397D01*
X126582151Y-141957810D01*
X126573589Y-141940335D01*
X126571150Y-141934175D01*
X126565635Y-141920244D01*
X126538423Y-141882792D01*
X126532021Y-141873047D01*
X126508453Y-141833193D01*
X126493169Y-141817909D01*
X126480539Y-141803121D01*
X126467841Y-141785643D01*
X126447606Y-141768903D01*
X126432171Y-141756134D01*
X126423532Y-141748272D01*
X119525718Y-134850458D01*
X119512234Y-134833627D01*
X119458725Y-134783379D01*
X119455928Y-134780668D01*
X119438085Y-134762825D01*
X119435333Y-134760073D01*
X119431740Y-134757286D01*
X119422876Y-134749714D01*
X119389133Y-134718028D01*
X119370200Y-134707619D01*
X119353941Y-134696939D01*
X119336868Y-134683696D01*
X119312990Y-134673363D01*
X119294377Y-134665308D01*
X119283900Y-134660175D01*
X119257851Y-134645855D01*
X119243334Y-134637874D01*
X119222413Y-134632503D01*
X119204004Y-134626200D01*
X119184175Y-134617619D01*
X119138455Y-134610378D01*
X119127016Y-134608009D01*
X119082190Y-134596500D01*
X119082188Y-134596500D01*
X119060581Y-134596500D01*
X119041183Y-134594973D01*
X119032603Y-134593614D01*
X119019849Y-134591594D01*
X119019848Y-134591594D01*
X118973764Y-134595950D01*
X118962097Y-134596500D01*
X113116390Y-134596500D01*
X113094955Y-134594133D01*
X113021599Y-134596439D01*
X113017704Y-134596500D01*
X112988568Y-134596500D01*
X112984719Y-134596985D01*
X112984702Y-134596987D01*
X112984058Y-134597069D01*
X112972437Y-134597983D01*
X112926169Y-134599437D01*
X112905420Y-134605465D01*
X112886379Y-134609408D01*
X112876017Y-134610717D01*
X112864934Y-134612118D01*
X112821885Y-134629162D01*
X112810837Y-134632944D01*
X112766397Y-134645855D01*
X112747804Y-134656851D01*
X112730335Y-134665409D01*
X112710244Y-134673363D01*
X112672789Y-134700576D01*
X112663029Y-134706987D01*
X112623194Y-134730546D01*
X112607916Y-134745824D01*
X112593127Y-134758454D01*
X112575644Y-134771156D01*
X112546130Y-134806832D01*
X112538269Y-134815470D01*
X111101452Y-136252286D01*
X111084624Y-136265769D01*
X111034377Y-136319275D01*
X111031672Y-136322066D01*
X111013826Y-136339913D01*
X111013819Y-136339920D01*
X111011073Y-136342667D01*
X111008698Y-136345728D01*
X111008678Y-136345751D01*
X111008280Y-136346265D01*
X111000711Y-136355126D01*
X110969027Y-136388867D01*
X110958619Y-136407799D01*
X110947940Y-136424056D01*
X110934694Y-136441133D01*
X110916309Y-136483616D01*
X110911173Y-136494101D01*
X110888875Y-136534661D01*
X110883503Y-136555586D01*
X110877202Y-136573988D01*
X110868619Y-136593822D01*
X110861379Y-136639536D01*
X110859011Y-136650970D01*
X110847500Y-136695808D01*
X110847500Y-136717413D01*
X110845974Y-136736808D01*
X110842593Y-136758151D01*
X110846950Y-136804234D01*
X110847500Y-136815903D01*
X110847500Y-139286607D01*
X110828494Y-139352578D01*
X110818293Y-139368812D01*
X110761837Y-139530153D01*
X110742700Y-139700000D01*
X96435258Y-139700000D01*
X98220369Y-137914889D01*
X98267091Y-137885531D01*
X98375183Y-137847709D01*
X98519909Y-137756771D01*
X98640771Y-137635909D01*
X98731709Y-137491183D01*
X98788162Y-137329850D01*
X98807299Y-137160000D01*
X98788162Y-136990150D01*
X98731709Y-136828817D01*
X98640771Y-136684091D01*
X98519909Y-136563229D01*
X98375183Y-136472291D01*
X98213850Y-136415838D01*
X98213848Y-136415837D01*
X98213846Y-136415837D01*
X98044000Y-136396700D01*
X97874153Y-136415837D01*
X97874150Y-136415837D01*
X97874150Y-136415838D01*
X97712817Y-136472291D01*
X97712815Y-136472291D01*
X97712815Y-136472292D01*
X97568089Y-136563230D01*
X97447229Y-136684090D01*
X97356289Y-136828817D01*
X97318468Y-136936904D01*
X97289108Y-136983630D01*
X92305452Y-141967286D01*
X92288624Y-141980769D01*
X92238377Y-142034275D01*
X92235672Y-142037066D01*
X92217826Y-142054913D01*
X92217819Y-142054920D01*
X92215073Y-142057667D01*
X92212698Y-142060728D01*
X92212678Y-142060751D01*
X92212280Y-142061265D01*
X92204711Y-142070126D01*
X92173027Y-142103867D01*
X92162619Y-142122799D01*
X92151940Y-142139056D01*
X92138694Y-142156133D01*
X92120309Y-142198616D01*
X92115173Y-142209101D01*
X92092875Y-142249661D01*
X92087503Y-142270586D01*
X92081202Y-142288988D01*
X92072619Y-142308822D01*
X92065379Y-142354536D01*
X92063011Y-142365970D01*
X92051500Y-142410808D01*
X92051500Y-142432413D01*
X92049974Y-142451808D01*
X92046593Y-142473151D01*
X91082500Y-142473151D01*
X91082500Y-142056121D01*
X91102185Y-141989082D01*
X91118819Y-141968440D01*
X93983759Y-139103500D01*
X97707160Y-135380098D01*
X97768481Y-135346615D01*
X97835791Y-135350739D01*
X97874150Y-135364162D01*
X98044000Y-135383299D01*
X98213850Y-135364162D01*
X98375183Y-135307709D01*
X98519909Y-135216771D01*
X98640771Y-135095909D01*
X98731709Y-134951183D01*
X98788162Y-134789850D01*
X98807299Y-134620000D01*
X98804393Y-134594212D01*
X98802514Y-134577537D01*
X98788162Y-134450150D01*
X98731709Y-134288817D01*
X98640771Y-134144091D01*
X98519909Y-134023229D01*
X98375183Y-133932291D01*
X98356530Y-133925764D01*
X120977787Y-133925764D01*
X121007413Y-134195016D01*
X121007414Y-134195018D01*
X121075928Y-134457088D01*
X121163427Y-134662989D01*
X121181871Y-134706392D01*
X121322982Y-134937611D01*
X121496253Y-135145818D01*
X121496255Y-135145820D01*
X121697998Y-135326582D01*
X121923910Y-135476044D01*
X122030211Y-135525876D01*
X122169177Y-135591021D01*
X122428562Y-135669058D01*
X122428569Y-135669060D01*
X122696561Y-135708500D01*
X122696564Y-135708500D01*
X122897369Y-135708500D01*
X122899631Y-135708500D01*
X123102156Y-135693677D01*
X123366553Y-135634780D01*
X123619558Y-135538014D01*
X123855777Y-135405441D01*
X124070177Y-135239888D01*
X124258186Y-135044881D01*
X124415799Y-134824579D01*
X124539656Y-134583675D01*
X124627118Y-134327305D01*
X124676319Y-134060933D01*
X124686212Y-133790235D01*
X124656586Y-133520982D01*
X124588072Y-133258912D01*
X124482130Y-133009610D01*
X124341018Y-132778390D01*
X124341017Y-132778388D01*
X124167746Y-132570181D01*
X124062759Y-132476112D01*
X123966002Y-132389418D01*
X123740090Y-132239956D01*
X123740086Y-132239954D01*
X123494822Y-132124978D01*
X123235437Y-132046941D01*
X123235431Y-132046940D01*
X122967439Y-132007500D01*
X122764369Y-132007500D01*
X122762120Y-132007664D01*
X122762109Y-132007665D01*
X122561843Y-132022322D01*
X122297449Y-132081219D01*
X122044441Y-132177986D01*
X121808223Y-132310559D01*
X121593825Y-132476109D01*
X121405813Y-132671120D01*
X121248201Y-132891420D01*
X121124342Y-133132329D01*
X121036881Y-133388695D01*
X120987680Y-133655066D01*
X120977787Y-133925764D01*
X98356530Y-133925764D01*
X98213850Y-133875838D01*
X98213848Y-133875837D01*
X98213846Y-133875837D01*
X98044000Y-133856700D01*
X97874153Y-133875837D01*
X97874150Y-133875837D01*
X97874150Y-133875838D01*
X97712817Y-133932291D01*
X97712816Y-133932291D01*
X97712812Y-133932293D01*
X97696578Y-133942494D01*
X97630607Y-133961500D01*
X97622392Y-133961500D01*
X97600952Y-133959132D01*
X97527580Y-133961439D01*
X97523685Y-133961500D01*
X97494568Y-133961500D01*
X97490711Y-133961987D01*
X97490681Y-133961989D01*
X97490053Y-133962069D01*
X97478432Y-133962983D01*
X97432168Y-133964437D01*
X97411423Y-133970464D01*
X97392379Y-133974408D01*
X97370933Y-133977117D01*
X97327895Y-133994157D01*
X97316849Y-133997939D01*
X97272401Y-134010853D01*
X97253805Y-134021851D01*
X97236339Y-134030407D01*
X97216245Y-134038363D01*
X97178797Y-134065571D01*
X97169035Y-134071983D01*
X97129195Y-134095544D01*
X97113912Y-134110827D01*
X97099123Y-134123457D01*
X97081644Y-134136156D01*
X97052135Y-134171826D01*
X97044274Y-134180464D01*
X90299091Y-140925647D01*
X90237768Y-140959132D01*
X90168076Y-140954148D01*
X90112143Y-140912276D01*
X90087726Y-140846812D01*
X90094369Y-140797011D01*
X90095707Y-140793184D01*
X90095709Y-140793183D01*
X90152162Y-140631850D01*
X90171299Y-140462000D01*
X90152162Y-140292150D01*
X90095709Y-140130817D01*
X90004771Y-139986091D01*
X89883909Y-139865229D01*
X89739183Y-139774291D01*
X89577850Y-139717838D01*
X89577848Y-139717837D01*
X89577846Y-139717837D01*
X89408000Y-139698700D01*
X89238153Y-139717837D01*
X89238150Y-139717837D01*
X89238150Y-139717838D01*
X89076817Y-139774291D01*
X89076816Y-139774291D01*
X89076812Y-139774293D01*
X89060578Y-139784494D01*
X88994607Y-139803500D01*
X86954390Y-139803500D01*
X86932955Y-139801133D01*
X86859599Y-139803439D01*
X86855704Y-139803500D01*
X86826568Y-139803500D01*
X86822719Y-139803985D01*
X86822702Y-139803987D01*
X86822058Y-139804069D01*
X86810437Y-139804983D01*
X86764168Y-139806437D01*
X86743423Y-139812464D01*
X86724379Y-139816408D01*
X86702935Y-139819117D01*
X86659895Y-139836158D01*
X86648848Y-139839940D01*
X86604401Y-139852854D01*
X86585807Y-139863851D01*
X86568335Y-139872410D01*
X86548243Y-139880364D01*
X86510791Y-139907575D01*
X86501031Y-139913986D01*
X86461194Y-139937546D01*
X86445916Y-139952824D01*
X86431127Y-139965454D01*
X86413644Y-139978156D01*
X86384130Y-140013832D01*
X86376269Y-140022470D01*
X84436181Y-141962559D01*
X84374858Y-141996044D01*
X84305166Y-141991060D01*
X84249233Y-141949188D01*
X84224816Y-141883724D01*
X84224500Y-141874878D01*
X84224500Y-137246388D01*
X84226866Y-137224955D01*
X84224561Y-137151598D01*
X84224500Y-137147703D01*
X84224500Y-137122459D01*
X84224500Y-137118568D01*
X84223933Y-137114078D01*
X84223015Y-137102423D01*
X84222180Y-137075846D01*
X84221562Y-137056169D01*
X84215534Y-137035421D01*
X84211591Y-137016384D01*
X84208882Y-136994936D01*
X84191830Y-136951869D01*
X84188062Y-136940861D01*
X84175145Y-136896400D01*
X84164148Y-136877807D01*
X84155587Y-136860330D01*
X84147635Y-136840244D01*
X84139331Y-136828815D01*
X84120420Y-136802787D01*
X84114008Y-136793024D01*
X84090453Y-136753194D01*
X84090452Y-136753193D01*
X84075172Y-136737913D01*
X84062539Y-136723121D01*
X84052149Y-136708820D01*
X84035427Y-136676891D01*
X83999710Y-136574819D01*
X83999709Y-136574817D01*
X83908771Y-136430091D01*
X83787909Y-136309229D01*
X83643183Y-136218291D01*
X83481850Y-136161838D01*
X83481848Y-136161837D01*
X83481846Y-136161837D01*
X83312000Y-136142700D01*
X83142153Y-136161837D01*
X83142150Y-136161837D01*
X83142150Y-136161838D01*
X82980817Y-136218291D01*
X82980815Y-136218291D01*
X82980815Y-136218292D01*
X82836089Y-136309230D01*
X82715230Y-136430089D01*
X82631572Y-136563230D01*
X82624291Y-136574817D01*
X82569634Y-136731018D01*
X82567837Y-136736153D01*
X82548700Y-136905999D01*
X82567837Y-137075846D01*
X82567837Y-137075848D01*
X82567838Y-137075850D01*
X82624291Y-137237183D01*
X82715229Y-137381909D01*
X82836091Y-137502771D01*
X82849470Y-137511178D01*
X82895761Y-137563509D01*
X82907500Y-137616172D01*
X82907500Y-142423877D01*
X82887815Y-142490916D01*
X82871181Y-142511558D01*
X79097452Y-146285286D01*
X79080624Y-146298769D01*
X79030377Y-146352275D01*
X79027672Y-146355066D01*
X79009826Y-146372913D01*
X79009819Y-146372920D01*
X79007073Y-146375667D01*
X79004698Y-146378728D01*
X79004678Y-146378751D01*
X79004280Y-146379265D01*
X78996711Y-146388126D01*
X78965027Y-146421867D01*
X78954619Y-146440799D01*
X78943940Y-146457056D01*
X78930694Y-146474133D01*
X78912309Y-146516616D01*
X78907173Y-146527101D01*
X78884875Y-146567661D01*
X78879503Y-146588586D01*
X78873202Y-146606988D01*
X78864619Y-146626822D01*
X78857379Y-146672536D01*
X78855011Y-146683970D01*
X78843500Y-146728808D01*
X78843500Y-146750413D01*
X78841974Y-146769808D01*
X78838593Y-146791151D01*
X78842950Y-146837234D01*
X78843500Y-146848903D01*
X78843500Y-154869878D01*
X78823815Y-154936917D01*
X78807181Y-154957559D01*
X78503559Y-155261181D01*
X78442236Y-155294666D01*
X78415878Y-155297500D01*
X69412121Y-155297500D01*
X69345082Y-155277815D01*
X69324440Y-155261181D01*
X65042718Y-150979458D01*
X65029234Y-150962627D01*
X64975725Y-150912379D01*
X64972928Y-150909668D01*
X64955085Y-150891825D01*
X64952333Y-150889073D01*
X64948740Y-150886286D01*
X64939876Y-150878714D01*
X64906133Y-150847028D01*
X64887200Y-150836619D01*
X64870941Y-150825939D01*
X64853868Y-150812696D01*
X64853868Y-150812695D01*
X64811377Y-150794308D01*
X64800900Y-150789175D01*
X64778007Y-150776590D01*
X64760334Y-150766874D01*
X64739413Y-150761503D01*
X64721004Y-150755200D01*
X64701175Y-150746619D01*
X64655455Y-150739378D01*
X64644016Y-150737009D01*
X64599190Y-150725500D01*
X64599188Y-150725500D01*
X64577581Y-150725500D01*
X64558183Y-150723973D01*
X64549603Y-150722614D01*
X64536849Y-150720594D01*
X64536848Y-150720594D01*
X64490764Y-150724950D01*
X64479097Y-150725500D01*
X62643393Y-150725500D01*
X62577422Y-150706494D01*
X62561187Y-150696293D01*
X62561185Y-150696292D01*
X62561183Y-150696291D01*
X62399850Y-150639838D01*
X62399848Y-150639837D01*
X62399846Y-150639837D01*
X62229999Y-150620700D01*
X62060153Y-150639837D01*
X62060150Y-150639837D01*
X62060150Y-150639838D01*
X61898817Y-150696291D01*
X61898815Y-150696291D01*
X61898815Y-150696292D01*
X61754089Y-150787230D01*
X61633230Y-150908089D01*
X61549677Y-151041063D01*
X61542291Y-151052817D01*
X61505418Y-151158193D01*
X61485837Y-151214153D01*
X61466700Y-151383999D01*
X61485837Y-151553846D01*
X61485837Y-151553848D01*
X61485838Y-151553850D01*
X61542291Y-151715183D01*
X61633229Y-151859909D01*
X61754091Y-151980771D01*
X61898817Y-152071709D01*
X62060150Y-152128162D01*
X62187537Y-152142514D01*
X62229999Y-152147299D01*
X62229999Y-152147298D01*
X62230000Y-152147299D01*
X62399850Y-152128162D01*
X62561183Y-152071709D01*
X62568400Y-152067174D01*
X62577422Y-152061506D01*
X62643393Y-152042500D01*
X64191878Y-152042500D01*
X64258917Y-152062185D01*
X64279559Y-152078819D01*
X68561280Y-156360539D01*
X68574773Y-156377379D01*
X68576583Y-156379079D01*
X68576584Y-156379080D01*
X68628289Y-156427634D01*
X68631086Y-156430345D01*
X68651667Y-156450926D01*
X68654746Y-156453314D01*
X68654748Y-156453316D01*
X68655243Y-156453700D01*
X68664119Y-156461281D01*
X68689173Y-156484808D01*
X68697867Y-156492972D01*
X68716803Y-156503382D01*
X68733051Y-156514055D01*
X68750131Y-156527304D01*
X68792622Y-156545691D01*
X68803100Y-156550824D01*
X68843663Y-156573124D01*
X68864589Y-156578496D01*
X68882995Y-156584799D01*
X68902819Y-156593378D01*
X68902821Y-156593378D01*
X68902823Y-156593379D01*
X68948557Y-156600622D01*
X68959955Y-156602982D01*
X69004812Y-156614500D01*
X69026418Y-156614500D01*
X69045817Y-156616027D01*
X69067151Y-156619406D01*
X69109336Y-156615418D01*
X69113232Y-156615050D01*
X69124901Y-156614500D01*
X75972065Y-156614500D01*
X76039104Y-156634185D01*
X76084859Y-156686989D01*
X76094803Y-156756147D01*
X76077058Y-156804473D01*
X76020289Y-156894817D01*
X75982468Y-157002904D01*
X75953108Y-157049630D01*
X75455559Y-157547181D01*
X75394236Y-157580666D01*
X75367878Y-157583500D01*
X68675697Y-157583500D01*
X68654257Y-157581132D01*
X68580885Y-157583439D01*
X68576990Y-157583500D01*
X68547873Y-157583500D01*
X68544016Y-157583987D01*
X68543986Y-157583989D01*
X68543358Y-157584069D01*
X68531737Y-157584983D01*
X68485473Y-157586437D01*
X68464728Y-157592464D01*
X68445684Y-157596408D01*
X68424238Y-157599117D01*
X68381200Y-157616157D01*
X68370154Y-157619939D01*
X68325706Y-157632853D01*
X68307110Y-157643851D01*
X68289644Y-157652407D01*
X68269550Y-157660363D01*
X68232102Y-157687571D01*
X68222340Y-157693983D01*
X68182500Y-157717544D01*
X68167217Y-157732827D01*
X68152428Y-157745457D01*
X68134949Y-157758156D01*
X68105440Y-157793826D01*
X68097579Y-157802464D01*
X64030689Y-161869354D01*
X63969366Y-161902839D01*
X63899674Y-161897855D01*
X63843741Y-161855983D01*
X63819324Y-161790519D01*
X63825967Y-161740718D01*
X63842573Y-161693261D01*
X63861710Y-161523411D01*
X63856129Y-161473877D01*
X63842573Y-161353561D01*
X63786120Y-161192228D01*
X63695182Y-161047502D01*
X63574320Y-160926640D01*
X63429594Y-160835702D01*
X63429591Y-160835700D01*
X63370344Y-160814969D01*
X63323618Y-160785609D01*
X62035819Y-159497809D01*
X62002334Y-159436486D01*
X61999500Y-159410128D01*
X61999500Y-157547181D01*
X61999500Y-155645117D01*
X62019184Y-155578082D01*
X62035810Y-155557449D01*
X62152370Y-155440889D01*
X62199091Y-155411531D01*
X62307183Y-155373709D01*
X62451909Y-155282771D01*
X62572771Y-155161909D01*
X62663709Y-155017183D01*
X62720162Y-154855850D01*
X62731426Y-154755875D01*
X62737202Y-154704617D01*
X62764268Y-154640203D01*
X62821863Y-154600647D01*
X62860422Y-154594500D01*
X63948580Y-154594500D01*
X64015619Y-154614185D01*
X64061374Y-154666989D01*
X64065621Y-154677545D01*
X64082289Y-154725180D01*
X64082291Y-154725183D01*
X64173229Y-154869909D01*
X64294091Y-154990771D01*
X64438817Y-155081709D01*
X64600150Y-155138162D01*
X64727537Y-155152514D01*
X64769999Y-155157299D01*
X64769999Y-155157298D01*
X64770000Y-155157299D01*
X64939850Y-155138162D01*
X65101183Y-155081709D01*
X65245909Y-154990771D01*
X65366771Y-154869909D01*
X65457709Y-154725183D01*
X65514162Y-154563850D01*
X65533299Y-154394000D01*
X65514162Y-154224150D01*
X65457709Y-154062817D01*
X65366771Y-153918091D01*
X65245909Y-153797229D01*
X65101183Y-153706291D01*
X65101180Y-153706289D01*
X64993094Y-153668468D01*
X64946368Y-153639108D01*
X64838718Y-153531458D01*
X64825234Y-153514627D01*
X64771725Y-153464379D01*
X64768928Y-153461668D01*
X64751085Y-153443825D01*
X64748333Y-153441073D01*
X64744740Y-153438286D01*
X64735876Y-153430714D01*
X64702133Y-153399028D01*
X64683200Y-153388619D01*
X64666941Y-153377939D01*
X64649868Y-153364696D01*
X64625995Y-153354365D01*
X64607377Y-153346308D01*
X64596900Y-153341175D01*
X64570849Y-153326854D01*
X64556334Y-153318874D01*
X64535413Y-153313503D01*
X64517004Y-153307200D01*
X64497175Y-153298619D01*
X64451455Y-153291378D01*
X64440016Y-153289009D01*
X64395190Y-153277500D01*
X64395188Y-153277500D01*
X64373581Y-153277500D01*
X64354183Y-153275973D01*
X64345603Y-153274614D01*
X64332849Y-153272594D01*
X64332848Y-153272594D01*
X64286764Y-153276950D01*
X64275097Y-153277500D01*
X61751729Y-153277500D01*
X61730294Y-153275133D01*
X61656938Y-153277439D01*
X61653043Y-153277500D01*
X61623907Y-153277500D01*
X61620058Y-153277985D01*
X61620041Y-153277987D01*
X61619397Y-153278069D01*
X61607776Y-153278983D01*
X61561507Y-153280437D01*
X61540762Y-153286464D01*
X61521718Y-153290408D01*
X61500274Y-153293117D01*
X61457234Y-153310158D01*
X61446187Y-153313940D01*
X61401740Y-153326854D01*
X61383146Y-153337851D01*
X61365674Y-153346410D01*
X61345582Y-153354364D01*
X61308130Y-153381575D01*
X61298370Y-153387986D01*
X61258533Y-153411546D01*
X61243255Y-153426824D01*
X61228466Y-153439454D01*
X61210983Y-153452156D01*
X61181469Y-153487832D01*
X61173608Y-153496470D01*
X60301453Y-154368625D01*
X60284622Y-154382110D01*
X60234377Y-154435614D01*
X60231672Y-154438405D01*
X60213826Y-154456252D01*
X60213819Y-154456259D01*
X60211073Y-154459006D01*
X60208698Y-154462067D01*
X60208678Y-154462090D01*
X60208280Y-154462604D01*
X60200711Y-154471465D01*
X60169027Y-154505206D01*
X60158619Y-154524138D01*
X60147940Y-154540395D01*
X60134694Y-154557472D01*
X60116309Y-154599955D01*
X60111173Y-154610440D01*
X60088875Y-154651000D01*
X60083503Y-154671925D01*
X60077202Y-154690327D01*
X60068619Y-154710161D01*
X60061379Y-154755875D01*
X60059011Y-154767309D01*
X60047500Y-154812147D01*
X60047500Y-154833752D01*
X60045974Y-154853147D01*
X60042593Y-154874490D01*
X60046950Y-154920573D01*
X60047500Y-154932242D01*
X60047500Y-160187609D01*
X60045133Y-160209045D01*
X60047438Y-160282402D01*
X60047499Y-160286291D01*
X60047499Y-160311543D01*
X60047499Y-160311556D01*
X60047500Y-160315432D01*
X60047986Y-160319287D01*
X60047987Y-160319290D01*
X60048069Y-160319939D01*
X60048983Y-160331564D01*
X60050437Y-160377833D01*
X60056463Y-160398575D01*
X60060408Y-160417621D01*
X60063117Y-160439063D01*
X60080158Y-160482105D01*
X60083941Y-160493154D01*
X60096855Y-160537601D01*
X60107850Y-160556193D01*
X60116409Y-160573663D01*
X60124364Y-160593754D01*
X60124365Y-160593756D01*
X60151578Y-160631211D01*
X60157977Y-160640952D01*
X60178693Y-160675981D01*
X60181548Y-160680808D01*
X60196822Y-160696082D01*
X60209458Y-160710876D01*
X60222159Y-160728357D01*
X60257820Y-160757858D01*
X60266461Y-160765721D01*
X61952559Y-162451819D01*
X61986044Y-162513142D01*
X61981060Y-162582834D01*
X61939188Y-162638767D01*
X61873724Y-162663184D01*
X61864878Y-162663500D01*
X58325393Y-162663500D01*
X58259422Y-162644494D01*
X58243187Y-162634293D01*
X58243185Y-162634292D01*
X58243183Y-162634291D01*
X58081850Y-162577838D01*
X58081848Y-162577837D01*
X58081846Y-162577837D01*
X57912000Y-162558700D01*
X57902114Y-162559814D01*
X57833292Y-162547757D01*
X57781914Y-162500406D01*
X57764292Y-162432795D01*
X57786021Y-162366390D01*
X57829777Y-162327237D01*
X57935960Y-162270482D01*
X58093331Y-162141331D01*
X58222482Y-161983960D01*
X58318450Y-161804417D01*
X58377546Y-161609601D01*
X58397501Y-161407000D01*
X58377546Y-161204399D01*
X58318450Y-161009583D01*
X58222482Y-160830040D01*
X58093331Y-160672669D01*
X57935960Y-160543518D01*
X57935959Y-160543517D01*
X57756419Y-160447551D01*
X57756418Y-160447550D01*
X57756417Y-160447550D01*
X57625852Y-160407944D01*
X57561599Y-160388453D01*
X57412808Y-160373798D01*
X57412793Y-160373797D01*
X57409775Y-160373500D01*
X57406725Y-160373500D01*
X56978260Y-160373500D01*
X56911221Y-160353815D01*
X56865466Y-160301011D01*
X56855522Y-160231853D01*
X56863699Y-160202047D01*
X56864008Y-160201301D01*
X56894687Y-160127236D01*
X56914466Y-159977000D01*
X56910693Y-159948345D01*
X56894687Y-159826764D01*
X56882311Y-159796885D01*
X56836698Y-159686767D01*
X56833018Y-159681972D01*
X56823822Y-159669986D01*
X56798628Y-159604817D01*
X56812667Y-159536372D01*
X56861481Y-159486382D01*
X56922198Y-159470500D01*
X58133820Y-159470500D01*
X58199791Y-159489505D01*
X58255817Y-159524709D01*
X58417150Y-159581162D01*
X58544537Y-159595514D01*
X58586999Y-159600299D01*
X58586999Y-159600298D01*
X58587000Y-159600299D01*
X58756850Y-159581162D01*
X58918183Y-159524709D01*
X59062909Y-159433771D01*
X59183771Y-159312909D01*
X59274709Y-159168183D01*
X59331162Y-159006850D01*
X59350299Y-158837000D01*
X59331162Y-158667150D01*
X59274709Y-158505817D01*
X59183771Y-158361091D01*
X59062909Y-158240229D01*
X58918183Y-158149291D01*
X58756850Y-158092838D01*
X58756848Y-158092837D01*
X58756846Y-158092837D01*
X58586999Y-158073700D01*
X58417153Y-158092837D01*
X58417150Y-158092837D01*
X58417150Y-158092838D01*
X58255817Y-158149291D01*
X58200873Y-158183815D01*
X58199792Y-158184494D01*
X58133820Y-158203500D01*
X53613766Y-158203500D01*
X53546727Y-158183815D01*
X53526085Y-158167181D01*
X51850819Y-156491914D01*
X51817334Y-156430591D01*
X51814500Y-156404233D01*
X51814500Y-153817560D01*
X51834185Y-153750521D01*
X51886989Y-153704766D01*
X51956147Y-153694822D01*
X51963442Y-153696094D01*
X52106530Y-153725500D01*
X52106531Y-153725500D01*
X53149466Y-153725500D01*
X53152608Y-153725500D01*
X53297940Y-153710721D01*
X53483939Y-153652363D01*
X53654384Y-153557759D01*
X53802297Y-153430780D01*
X53888917Y-153318876D01*
X53921619Y-153276629D01*
X53923598Y-153272594D01*
X54007471Y-153101609D01*
X54056333Y-152912892D01*
X54063731Y-152766999D01*
X55270499Y-152766999D01*
X55290453Y-152969599D01*
X55349551Y-153164419D01*
X55445517Y-153343959D01*
X55454056Y-153354364D01*
X55574669Y-153501331D01*
X55732040Y-153630482D01*
X55772974Y-153652362D01*
X55823877Y-153679570D01*
X55873721Y-153728532D01*
X55889182Y-153796670D01*
X55865350Y-153862349D01*
X55863800Y-153864414D01*
X55831302Y-153906766D01*
X55773312Y-154046764D01*
X55753533Y-154197000D01*
X55773312Y-154347235D01*
X55827747Y-154478650D01*
X55831302Y-154487233D01*
X55923549Y-154607451D01*
X56043767Y-154699698D01*
X56183764Y-154757687D01*
X56296280Y-154772500D01*
X56300333Y-154772500D01*
X56367667Y-154772500D01*
X56371720Y-154772500D01*
X56484236Y-154757687D01*
X56624233Y-154699698D01*
X56744451Y-154607451D01*
X56836698Y-154487233D01*
X56894687Y-154347236D01*
X56914466Y-154197000D01*
X56894687Y-154046764D01*
X56863698Y-153971952D01*
X56856230Y-153902484D01*
X56887505Y-153840004D01*
X56947594Y-153804352D01*
X56978260Y-153800500D01*
X57406725Y-153800500D01*
X57409775Y-153800500D01*
X57561601Y-153785546D01*
X57756417Y-153726450D01*
X57935960Y-153630482D01*
X58093331Y-153501331D01*
X58222482Y-153343960D01*
X58318450Y-153164417D01*
X58377546Y-152969601D01*
X58397501Y-152767000D01*
X58377546Y-152564399D01*
X58318450Y-152369583D01*
X58222482Y-152190040D01*
X58093331Y-152032669D01*
X57935960Y-151903518D01*
X57935959Y-151903517D01*
X57756419Y-151807551D01*
X57756418Y-151807550D01*
X57756417Y-151807550D01*
X57659008Y-151778001D01*
X57561599Y-151748453D01*
X57412808Y-151733798D01*
X57412793Y-151733797D01*
X57409775Y-151733500D01*
X56258225Y-151733500D01*
X56255207Y-151733797D01*
X56255191Y-151733798D01*
X56106400Y-151748453D01*
X55911580Y-151807551D01*
X55732040Y-151903517D01*
X55574669Y-152032669D01*
X55445517Y-152190040D01*
X55349551Y-152369580D01*
X55290453Y-152564400D01*
X55270499Y-152766999D01*
X54063731Y-152766999D01*
X54066206Y-152718202D01*
X54036687Y-152525511D01*
X53978938Y-152369583D01*
X53968984Y-152342706D01*
X53865865Y-152177268D01*
X53731561Y-152035981D01*
X53728048Y-152033536D01*
X53571561Y-151924617D01*
X53392419Y-151847741D01*
X53201470Y-151808500D01*
X52155392Y-151808500D01*
X52152281Y-151808816D01*
X52152268Y-151808817D01*
X52010057Y-151823279D01*
X51975621Y-151834084D01*
X51905763Y-151835372D01*
X51846299Y-151798686D01*
X51816108Y-151735676D01*
X51814500Y-151715771D01*
X51814500Y-151213627D01*
X51816789Y-151192894D01*
X51816247Y-151175663D01*
X51814561Y-151121999D01*
X51814500Y-151118104D01*
X51814500Y-151094035D01*
X51814500Y-151090144D01*
X51813982Y-151086043D01*
X51813064Y-151074387D01*
X51812386Y-151052815D01*
X51811673Y-151030110D01*
X51805978Y-151010511D01*
X51802033Y-150991462D01*
X51799474Y-150971203D01*
X51783163Y-150930007D01*
X51779380Y-150918958D01*
X51779349Y-150918850D01*
X51767018Y-150876406D01*
X51756622Y-150858828D01*
X51748067Y-150841366D01*
X51740552Y-150822383D01*
X51716741Y-150789610D01*
X51714512Y-150786542D01*
X51708098Y-150776778D01*
X51702241Y-150766874D01*
X51685542Y-150738637D01*
X51671106Y-150724202D01*
X51658470Y-150709407D01*
X51657559Y-150708153D01*
X51646472Y-150692893D01*
X51612324Y-150664643D01*
X51603696Y-150656791D01*
X51573921Y-150627016D01*
X51544560Y-150580290D01*
X51544162Y-150579153D01*
X51544162Y-150579150D01*
X51487709Y-150417817D01*
X51396771Y-150273091D01*
X51275909Y-150152229D01*
X51131183Y-150061291D01*
X50969850Y-150004838D01*
X50969848Y-150004837D01*
X50969846Y-150004837D01*
X50800000Y-149985700D01*
X50630153Y-150004837D01*
X50630150Y-150004837D01*
X50630150Y-150004838D01*
X50468817Y-150061291D01*
X50468815Y-150061291D01*
X50468815Y-150061292D01*
X50324089Y-150152230D01*
X50203230Y-150273089D01*
X50112292Y-150417815D01*
X50055837Y-150579153D01*
X50036700Y-150748999D01*
X49784500Y-150748999D01*
X49784500Y-141360638D01*
X77381500Y-141360638D01*
X77381852Y-141363918D01*
X77381853Y-141363924D01*
X77388011Y-141421205D01*
X77439110Y-141558203D01*
X77526738Y-141675261D01*
X77643391Y-141762586D01*
X77643796Y-141762889D01*
X77773382Y-141811222D01*
X77829313Y-141853093D01*
X77853730Y-141918557D01*
X77838878Y-141986830D01*
X77817728Y-142015084D01*
X77701888Y-142130924D01*
X77566400Y-142324421D01*
X77466569Y-142538507D01*
X77409364Y-142751999D01*
X77409364Y-142752000D01*
X78306314Y-142752000D01*
X78280507Y-142792156D01*
X78240000Y-142930111D01*
X78240000Y-143073889D01*
X78280507Y-143211844D01*
X78306314Y-143252000D01*
X77409364Y-143252000D01*
X77466569Y-143465492D01*
X77566399Y-143679576D01*
X77701893Y-143873081D01*
X77868918Y-144040106D01*
X78062423Y-144175600D01*
X78276509Y-144275430D01*
X78490000Y-144332634D01*
X78490000Y-143437501D01*
X78597685Y-143486680D01*
X78704237Y-143502000D01*
X78775763Y-143502000D01*
X78882315Y-143486680D01*
X78990000Y-143437501D01*
X78990000Y-144332633D01*
X79203490Y-144275430D01*
X79417576Y-144175600D01*
X79611081Y-144040106D01*
X79778106Y-143873081D01*
X79913600Y-143679576D01*
X80013430Y-143465492D01*
X80070636Y-143252000D01*
X79173686Y-143252000D01*
X79199493Y-143211844D01*
X79240000Y-143073889D01*
X79240000Y-142930111D01*
X79199493Y-142792156D01*
X79173686Y-142752000D01*
X80070636Y-142752000D01*
X80070635Y-142751999D01*
X80013430Y-142538507D01*
X79913599Y-142324421D01*
X79778109Y-142130921D01*
X79662272Y-142015084D01*
X79628787Y-141953761D01*
X79633771Y-141884069D01*
X79675643Y-141828136D01*
X79706612Y-141811224D01*
X79836204Y-141762889D01*
X79953261Y-141675261D01*
X80040889Y-141558204D01*
X80067200Y-141487663D01*
X80091988Y-141421205D01*
X80091988Y-141421203D01*
X80091989Y-141421201D01*
X80098500Y-141360638D01*
X80098500Y-139563362D01*
X80091989Y-139502799D01*
X80091988Y-139502797D01*
X80091988Y-139502794D01*
X80040889Y-139365796D01*
X79953261Y-139248738D01*
X79836203Y-139161110D01*
X79699205Y-139110011D01*
X79641924Y-139103853D01*
X79641918Y-139103852D01*
X79638638Y-139103500D01*
X77841362Y-139103500D01*
X77838082Y-139103852D01*
X77838075Y-139103853D01*
X77780794Y-139110011D01*
X77643796Y-139161110D01*
X77526738Y-139248738D01*
X77439110Y-139365796D01*
X77388011Y-139502794D01*
X77385070Y-139530153D01*
X77381500Y-139563362D01*
X77381500Y-141360638D01*
X49784500Y-141360638D01*
X49784500Y-133925764D01*
X50977787Y-133925764D01*
X51007413Y-134195016D01*
X51007414Y-134195018D01*
X51075928Y-134457088D01*
X51163427Y-134662989D01*
X51181871Y-134706392D01*
X51322982Y-134937611D01*
X51496253Y-135145818D01*
X51496255Y-135145820D01*
X51697998Y-135326582D01*
X51923910Y-135476044D01*
X52030211Y-135525876D01*
X52169177Y-135591021D01*
X52428562Y-135669058D01*
X52428569Y-135669060D01*
X52696561Y-135708500D01*
X52696564Y-135708500D01*
X52756013Y-135708500D01*
X52823052Y-135728185D01*
X52868807Y-135780989D01*
X52878751Y-135850147D01*
X52849726Y-135913703D01*
X52796969Y-135949540D01*
X52771440Y-135958474D01*
X52754813Y-135964292D01*
X52610090Y-136055229D01*
X52489230Y-136176089D01*
X52405572Y-136309230D01*
X52398291Y-136320817D01*
X52341838Y-136482150D01*
X52341837Y-136482153D01*
X52322700Y-136652000D01*
X52341837Y-136821846D01*
X52341837Y-136821848D01*
X52341838Y-136821850D01*
X52398291Y-136983183D01*
X52489229Y-137127909D01*
X52610091Y-137248771D01*
X52754817Y-137339709D01*
X52916150Y-137396162D01*
X53086000Y-137415299D01*
X53255850Y-137396162D01*
X53417183Y-137339709D01*
X53561909Y-137248771D01*
X53682771Y-137127909D01*
X53773709Y-136983183D01*
X53811531Y-136875091D01*
X53840887Y-136828371D01*
X54084442Y-136584816D01*
X54145764Y-136551334D01*
X54172122Y-136548500D01*
X72573878Y-136548500D01*
X72640917Y-136568185D01*
X72661559Y-136584819D01*
X72905108Y-136828368D01*
X72934468Y-136875094D01*
X72972289Y-136983180D01*
X72979675Y-136994935D01*
X73063229Y-137127909D01*
X73184091Y-137248771D01*
X73328817Y-137339709D01*
X73490150Y-137396162D01*
X73660000Y-137415299D01*
X73829850Y-137396162D01*
X73991183Y-137339709D01*
X74135909Y-137248771D01*
X74256771Y-137127909D01*
X74347709Y-136983183D01*
X74404162Y-136821850D01*
X74423299Y-136652000D01*
X74404162Y-136482150D01*
X74347709Y-136320817D01*
X74256771Y-136176091D01*
X74135909Y-136055229D01*
X73991183Y-135964291D01*
X73991180Y-135964289D01*
X73883094Y-135926468D01*
X73836368Y-135897108D01*
X73424718Y-135485458D01*
X73411234Y-135468627D01*
X73357725Y-135418379D01*
X73354928Y-135415668D01*
X73337085Y-135397825D01*
X73334333Y-135395073D01*
X73330740Y-135392286D01*
X73321876Y-135384714D01*
X73288133Y-135353028D01*
X73269200Y-135342619D01*
X73252941Y-135331939D01*
X73235868Y-135318696D01*
X73210474Y-135307707D01*
X73193377Y-135300308D01*
X73182900Y-135295175D01*
X73160007Y-135282590D01*
X73142334Y-135272874D01*
X73121413Y-135267503D01*
X73103004Y-135261200D01*
X73083175Y-135252619D01*
X73037455Y-135245378D01*
X73026016Y-135243009D01*
X72981190Y-135231500D01*
X72981188Y-135231500D01*
X72959581Y-135231500D01*
X72940183Y-135229973D01*
X72931603Y-135228614D01*
X72918849Y-135226594D01*
X72918848Y-135226594D01*
X72872764Y-135230950D01*
X72861097Y-135231500D01*
X54365853Y-135231500D01*
X54298814Y-135211815D01*
X54253059Y-135159011D01*
X54243115Y-135089853D01*
X54265004Y-135035350D01*
X54415799Y-134824579D01*
X54539656Y-134583675D01*
X54627118Y-134327305D01*
X54676319Y-134060933D01*
X54686212Y-133790235D01*
X54656586Y-133520982D01*
X54588072Y-133258912D01*
X54482130Y-133009610D01*
X54341018Y-132778390D01*
X54341017Y-132778388D01*
X54167746Y-132570181D01*
X54062759Y-132476112D01*
X53966002Y-132389418D01*
X53740090Y-132239956D01*
X53740086Y-132239954D01*
X53494822Y-132124978D01*
X53235437Y-132046941D01*
X53235431Y-132046940D01*
X52967439Y-132007500D01*
X52764369Y-132007500D01*
X52762120Y-132007664D01*
X52762109Y-132007665D01*
X52561843Y-132022322D01*
X52297449Y-132081219D01*
X52044441Y-132177986D01*
X51808223Y-132310559D01*
X51593825Y-132476109D01*
X51405813Y-132671120D01*
X51248201Y-132891420D01*
X51124342Y-133132329D01*
X51036881Y-133388695D01*
X50987680Y-133655066D01*
X50977787Y-133925764D01*
X49784500Y-133925764D01*
X49784500Y-130934500D01*
X49804185Y-130867461D01*
X49856989Y-130821706D01*
X49908500Y-130810500D01*
X129415500Y-130810500D01*
X129482539Y-130830185D01*
G37*
%TD.AperFunction*%
%TD*%
M02*
