%TF.GenerationSoftware,KiCad,Pcbnew,9.0.4*%
%TF.CreationDate,2025-08-29T23:53:31-07:00*%
%TF.ProjectId,WeatherPill,57656174-6865-4725-9069-6c6c2e6b6963,rev?*%
%TF.SameCoordinates,Original*%
%TF.FileFunction,Legend,Top*%
%TF.FilePolarity,Positive*%
%FSLAX46Y46*%
G04 Gerber Fmt 4.6, Leading zero omitted, Abs format (unit mm)*
G04 Created by KiCad (PCBNEW 9.0.4) date 2025-08-29 23:53:31*
%MOMM*%
%LPD*%
G01*
G04 APERTURE LIST*
%ADD10C,0.150000*%
%ADD11C,0.152400*%
%ADD12C,0.120000*%
%ADD13C,0.100000*%
%ADD14C,0.127000*%
%ADD15C,0.200000*%
%ADD16C,0.000000*%
%ADD17C,0.177800*%
G04 APERTURE END LIST*
D10*
X43154819Y-73499998D02*
X43392914Y-73499998D01*
X43297676Y-73738093D02*
X43392914Y-73499998D01*
X43392914Y-73499998D02*
X43297676Y-73261903D01*
X43583390Y-73642855D02*
X43392914Y-73499998D01*
X43392914Y-73499998D02*
X43583390Y-73357141D01*
D11*
%TO.C,SW1*%
X20520200Y-80810859D02*
X20520200Y-80189141D01*
X22438337Y-79073000D02*
X24061660Y-79073000D01*
X27479800Y-80189141D02*
X27479800Y-80810859D01*
X26821940Y-81917799D02*
X21178060Y-81917799D01*
D12*
%TO.C,U8*%
X32740000Y-69640000D02*
X32740000Y-70115000D01*
X32740000Y-74860000D02*
X32740000Y-74385000D01*
X33215000Y-69640000D02*
X32740000Y-69640000D01*
X33215000Y-74860000D02*
X32740000Y-74860000D01*
X37485000Y-69640000D02*
X37960000Y-69640000D01*
X37485000Y-74860000D02*
X37660000Y-74860000D01*
X37960000Y-69640000D02*
X37960000Y-70115000D01*
X37960000Y-74385000D02*
X37960000Y-74620000D01*
X38200000Y-75190000D02*
X37720000Y-75190000D01*
X37960000Y-74860000D01*
X38200000Y-75190000D01*
G36*
X38200000Y-75190000D02*
G01*
X37720000Y-75190000D01*
X37960000Y-74860000D01*
X38200000Y-75190000D01*
G37*
D13*
%TO.C,C7*%
X46650000Y-69265000D02*
G75*
G02*
X46550000Y-69265000I-50000J0D01*
G01*
X46550000Y-69265000D02*
G75*
G02*
X46650000Y-69265000I50000J0D01*
G01*
%TO.C,C6*%
X48050000Y-82015000D02*
G75*
G02*
X47950000Y-82015000I-50000J0D01*
G01*
X47950000Y-82015000D02*
G75*
G02*
X48050000Y-82015000I50000J0D01*
G01*
%TO.C,D1*%
D14*
X41713500Y-77400000D02*
G75*
G02*
X41586500Y-77400000I-63500J0D01*
G01*
X41586500Y-77400000D02*
G75*
G02*
X41713500Y-77400000I63500J0D01*
G01*
D13*
%TO.C,U5*%
X42850000Y-66850000D02*
X43000000Y-66850000D01*
X42850000Y-67000000D02*
X42850000Y-66850000D01*
X45550000Y-66850000D02*
X45400000Y-66850000D01*
X45550000Y-66850000D02*
X45550000Y-67000000D01*
X45550000Y-69550000D02*
X45400000Y-69550000D01*
X45560000Y-69550000D02*
X45560000Y-69400000D01*
D12*
X42850000Y-69910000D02*
X42490000Y-69550000D01*
X42850000Y-69550000D01*
X42850000Y-69910000D01*
G36*
X42850000Y-69910000D02*
G01*
X42490000Y-69550000D01*
X42850000Y-69550000D01*
X42850000Y-69910000D01*
G37*
D13*
%TO.C,C1*%
X31550000Y-70442500D02*
G75*
G02*
X31450000Y-70442500I-50000J0D01*
G01*
X31450000Y-70442500D02*
G75*
G02*
X31550000Y-70442500I50000J0D01*
G01*
D14*
%TO.C,U6*%
X47710000Y-73710000D02*
X48205000Y-73710000D01*
X47710000Y-74205000D02*
X47710000Y-73710000D01*
X47710000Y-75690000D02*
X47710000Y-75195000D01*
X48205000Y-75690000D02*
X47710000Y-75690000D01*
X49195000Y-73710000D02*
X49690000Y-73710000D01*
X49690000Y-73710000D02*
X49690000Y-74205000D01*
X49690000Y-75195000D02*
X49690000Y-75690000D01*
X49690000Y-75690000D02*
X49195000Y-75690000D01*
D15*
X49300000Y-73300000D02*
G75*
G02*
X49100000Y-73300000I-100000J0D01*
G01*
X49100000Y-73300000D02*
G75*
G02*
X49300000Y-73300000I100000J0D01*
G01*
D13*
%TO.C,C5*%
X43985000Y-76750000D02*
G75*
G02*
X43885000Y-76750000I-50000J0D01*
G01*
X43885000Y-76750000D02*
G75*
G02*
X43985000Y-76750000I50000J0D01*
G01*
%TO.C,C11*%
X41115000Y-75000000D02*
G75*
G02*
X41015000Y-75000000I-50000J0D01*
G01*
X41015000Y-75000000D02*
G75*
G02*
X41115000Y-75000000I50000J0D01*
G01*
%TO.C,C2*%
X37450000Y-74985000D02*
G75*
G02*
X37350000Y-74985000I-50000J0D01*
G01*
X37350000Y-74985000D02*
G75*
G02*
X37450000Y-74985000I50000J0D01*
G01*
D11*
%TO.C,U7*%
X42791901Y-70318899D02*
X42791901Y-70607437D01*
X42791901Y-72392561D02*
X42791901Y-72681099D01*
X42791901Y-72681099D02*
X43330439Y-72681099D01*
X43330439Y-70318899D02*
X42791901Y-70318899D01*
X44615563Y-72681099D02*
X45154101Y-72681099D01*
X45154101Y-70318899D02*
X44615563Y-70318899D01*
X45154101Y-70607437D02*
X45154101Y-70318899D01*
X45154101Y-72681099D02*
X45154101Y-72392561D01*
D16*
G36*
X42768200Y-72190498D02*
G01*
X42514200Y-72190498D01*
X42514200Y-71809498D01*
X42768200Y-71809498D01*
X42768200Y-72190498D01*
G37*
%TO.C,L1*%
D13*
X49500000Y-71575000D02*
X50000000Y-71575000D01*
X50000000Y-73075000D01*
X49500000Y-73075000D01*
X49500000Y-71575000D01*
X50000000Y-69575000D02*
X61500000Y-69575000D01*
X61500000Y-76075000D01*
X50000000Y-76075000D01*
X50000000Y-69575000D01*
D11*
%TO.C,SW4*%
X42559600Y-78845000D02*
X42559600Y-79347059D01*
X42559600Y-80672939D02*
X42559600Y-80827061D01*
X42559600Y-82152941D02*
X42559600Y-82655000D01*
X42559600Y-82655000D02*
X46318800Y-82655000D01*
X46318800Y-78845000D02*
X42559600Y-78845000D01*
X46318800Y-79347059D02*
X46318800Y-78845000D01*
X46318800Y-80827061D02*
X46318800Y-80672939D01*
X46318800Y-82655000D02*
X46318800Y-82152941D01*
D12*
%TO.C,U3*%
X51750000Y-80340000D02*
X53250000Y-80340000D01*
X51750000Y-82060000D02*
X53250000Y-82060000D01*
X51300000Y-80600000D02*
X51020000Y-80600000D01*
X51300000Y-80320000D01*
X51300000Y-80600000D01*
G36*
X51300000Y-80600000D02*
G01*
X51020000Y-80600000D01*
X51300000Y-80320000D01*
X51300000Y-80600000D01*
G37*
D13*
%TO.C,C3*%
X38462500Y-72000000D02*
G75*
G02*
X38362500Y-72000000I-50000J0D01*
G01*
X38362500Y-72000000D02*
G75*
G02*
X38462500Y-72000000I50000J0D01*
G01*
%TO.C,C13*%
X41585000Y-76600000D02*
G75*
G02*
X41485000Y-76600000I-50000J0D01*
G01*
X41485000Y-76600000D02*
G75*
G02*
X41585000Y-76600000I50000J0D01*
G01*
D15*
%TO.C,J2*%
X19244000Y-76860000D02*
X20524000Y-76860000D01*
X20524000Y-67920000D02*
X19244000Y-67920000D01*
X24494000Y-67920000D02*
X23244000Y-67920000D01*
X24494000Y-76860000D02*
X23244000Y-76860000D01*
X27944000Y-69140000D02*
G75*
G02*
X27744000Y-69140000I-100000J0D01*
G01*
X27744000Y-69140000D02*
G75*
G02*
X27944000Y-69140000I100000J0D01*
G01*
D11*
%TO.C,SW3*%
X36088400Y-78845000D02*
X36088400Y-79347059D01*
X36088400Y-80672939D02*
X36088400Y-80827061D01*
X36088400Y-82152941D02*
X36088400Y-82655000D01*
X36088400Y-82655000D02*
X39847600Y-82655000D01*
X39847600Y-78845000D02*
X36088400Y-78845000D01*
X39847600Y-79347059D02*
X39847600Y-78845000D01*
X39847600Y-80827061D02*
X39847600Y-80672939D01*
X39847600Y-82655000D02*
X39847600Y-82152941D01*
D12*
%TO.C,J1*%
X29055923Y-77250000D02*
X29504936Y-76800987D01*
X29504936Y-77699013D02*
X29055923Y-77250000D01*
%TO.C,U1*%
X30622000Y-71908000D02*
X29572000Y-71908000D01*
X30622000Y-73888000D02*
X29322000Y-73888000D01*
X29202000Y-71908000D02*
X28922000Y-71908000D01*
X29202000Y-71628000D01*
X29202000Y-71908000D01*
G36*
X29202000Y-71908000D02*
G01*
X28922000Y-71908000D01*
X29202000Y-71628000D01*
X29202000Y-71908000D01*
G37*
D13*
%TO.C,C10*%
X39785000Y-73800000D02*
G75*
G02*
X39685000Y-73800000I-50000J0D01*
G01*
X39685000Y-73800000D02*
G75*
G02*
X39785000Y-73800000I50000J0D01*
G01*
D12*
%TO.C,TP2*%
X30700000Y-81250000D02*
G75*
G02*
X28800000Y-81250000I-950000J0D01*
G01*
X28800000Y-81250000D02*
G75*
G02*
X30700000Y-81250000I950000J0D01*
G01*
D13*
%TO.C,C12*%
X44050000Y-76065000D02*
G75*
G02*
X43950000Y-76065000I-50000J0D01*
G01*
X43950000Y-76065000D02*
G75*
G02*
X44050000Y-76065000I50000J0D01*
G01*
D17*
%TO.C,U4*%
X41799998Y-75674999D02*
X41799998Y-75799997D01*
X41800001Y-74824998D02*
X41800001Y-74924997D01*
X41924999Y-74799996D02*
X41800001Y-74799996D01*
X41924999Y-75799997D02*
X41825000Y-75799997D01*
X42775000Y-74799999D02*
X42675001Y-74799999D01*
X42799999Y-75549998D02*
X42799999Y-75774998D01*
X42799999Y-75774998D02*
X42799999Y-75800000D01*
X42799999Y-75800000D02*
X42550000Y-75800000D01*
X42800002Y-74799999D02*
X42800002Y-74924997D01*
D13*
%TO.C,C4*%
X54450000Y-79735000D02*
G75*
G02*
X54350000Y-79735000I-50000J0D01*
G01*
X54350000Y-79735000D02*
G75*
G02*
X54450000Y-79735000I50000J0D01*
G01*
%TO.C,C8*%
X50050000Y-68735000D02*
G75*
G02*
X49950000Y-68735000I-50000J0D01*
G01*
X49950000Y-68735000D02*
G75*
G02*
X50050000Y-68735000I50000J0D01*
G01*
%TO.C,C9*%
X41650000Y-69135000D02*
G75*
G02*
X41550000Y-69135000I-50000J0D01*
G01*
X41550000Y-69135000D02*
G75*
G02*
X41650000Y-69135000I50000J0D01*
G01*
%TD*%
M02*
