M48
; DRILL file {KiCad 9.0.4} date 2025-08-29T23:53:25-0700
; FORMAT={-:-/ absolute / metric / decimal}
; #@! TF.CreationDate,2025-08-29T23:53:25-07:00
; #@! TF.GenerationSoftware,Kicad,Pcbnew,9.0.4
; #@! TF.FileFunction,Plated,1,4,PTH
FMAT,2
METRIC
; #@! TA.AperFunction,Plated,PTH,ViaDrill
T1C0.200
; #@! TA.AperFunction,Plated,PTH,ComponentDrill
T2C0.600
; #@! TA.AperFunction,Plated,PTH,ComponentDrill
T3C0.660
%
G90
G05
T1
X20.25Y-76.75
X23.75Y-78.5
X27.2Y-78.4
X27.5Y-80.5
X27.7Y-77.9
X28.072Y-71.697
X28.08Y-69.99
X28.25Y-73.5
X28.5Y-75.75
X28.75Y-78.25
X29.2Y-77.2
X29.25Y-67.5
X29.25Y-82.0
X29.737Y-73.247
X30.0Y-71.4
X30.0Y-74.8
X30.125Y-72.625
X30.25Y-69.5
X31.0Y-75.4
X31.25Y-70.75
X31.25Y-80.5
X31.367Y-79.879
X31.5Y-71.25
X31.75Y-71.75
X32.306Y-69.894
X33.0Y-79.5
X33.6Y-67.0
X34.0Y-80.75
X34.028Y-77.881
X35.1Y-68.456
X35.35Y-72.25
X35.6Y-69.0
X36.0Y-76.405
X36.425Y-73.325
X36.5Y-71.0
X36.869Y-69.033
X37.8Y-69.533
X37.8Y-78.2
X38.2Y-76.5
X38.95Y-70.0
X39.0Y-70.6
X39.0Y-71.2
X39.4Y-74.2
X39.465Y-73.4
X40.0Y-73.0
X40.0Y-77.8
X40.209Y-67.951
X40.4Y-72.6
X40.6Y-78.0
X40.7Y-79.3
X40.707Y-69.303
X40.85Y-69.95
X41.2Y-74.6
X42.2Y-71.8
X42.2Y-79.2
X42.5Y-69.5
X43.0Y-74.177
X43.427Y-75.322
X43.8Y-71.4
X44.0Y-76.8
X44.6Y-69.2
X45.4Y-72.8
X45.9Y-75.2
X47.4Y-67.8
X47.4Y-74.2
X47.5Y-69.725
X48.583Y-72.284
X48.695Y-81.25
X48.736Y-78.6
X49.1Y-69.357
X49.294Y-78.615
X49.422Y-71.6
X50.0Y-68.8
X50.0Y-80.75
X50.2Y-73.2
X50.375Y-78.875
X50.4Y-74.6
X50.546Y-75.8
X51.2Y-70.6
X52.08Y-76.6
X53.241Y-68.359
X53.6Y-69.6
X55.4Y-81.573
X57.7Y-75.6
X57.8Y-70.4
X57.8Y-72.72
X57.8Y-73.72
X58.5Y-72.22
X58.5Y-74.9
X58.58Y-73.22
X58.7Y-74.22
T3
X51.75Y-67.575
X51.75Y-77.825
X53.75Y-67.575
X53.75Y-77.825
X55.75Y-67.575
X55.75Y-77.825
X57.75Y-67.575
X57.75Y-77.825
X59.75Y-67.575
X59.75Y-77.825
T2
G00X22.244Y-68.07
M15
G01X21.444Y-68.07
M16
G05
G00X22.244Y-76.71
M15
G01X21.444Y-76.71
M16
G05
G00X26.574Y-68.07
M15
G01X25.474Y-68.07
M16
G05
G00X26.574Y-76.71
M15
G01X25.474Y-76.71
M16
G05
M30
