%TF.GenerationSoftware,KiCad,Pcbnew,9.0.4*%
%TF.CreationDate,2025-08-29T23:53:31-07:00*%
%TF.ProjectId,WeatherPill,57656174-6865-4725-9069-6c6c2e6b6963,rev?*%
%TF.SameCoordinates,Original*%
%TF.FileFunction,Soldermask,Bot*%
%TF.FilePolarity,Negative*%
%FSLAX46Y46*%
G04 Gerber Fmt 4.6, Leading zero omitted, Abs format (unit mm)*
G04 Created by KiCad (PCBNEW 9.0.4) date 2025-08-29 23:53:31*
%MOMM*%
%LPD*%
G01*
G04 APERTURE LIST*
G04 Aperture macros list*
%AMRoundRect*
0 Rectangle with rounded corners*
0 $1 Rounding radius*
0 $2 $3 $4 $5 $6 $7 $8 $9 X,Y pos of 4 corners*
0 Add a 4 corners polygon primitive as box body*
4,1,4,$2,$3,$4,$5,$6,$7,$8,$9,$2,$3,0*
0 Add four circle primitives for the rounded corners*
1,1,$1+$1,$2,$3*
1,1,$1+$1,$4,$5*
1,1,$1+$1,$6,$7*
1,1,$1+$1,$8,$9*
0 Add four rect primitives between the rounded corners*
20,1,$1+$1,$2,$3,$4,$5,0*
20,1,$1+$1,$4,$5,$6,$7,0*
20,1,$1+$1,$6,$7,$8,$9,0*
20,1,$1+$1,$8,$9,$2,$3,0*%
G04 Aperture macros list end*
%ADD10C,1.000000*%
%ADD11C,0.650000*%
%ADD12O,2.304000X1.204000*%
%ADD13O,2.004000X1.204000*%
%ADD14C,0.990600*%
%ADD15RoundRect,0.100000X0.217500X0.100000X-0.217500X0.100000X-0.217500X-0.100000X0.217500X-0.100000X0*%
%ADD16RoundRect,0.100000X-0.217500X-0.100000X0.217500X-0.100000X0.217500X0.100000X-0.217500X0.100000X0*%
%ADD17RoundRect,0.062500X-0.375000X-0.062500X0.375000X-0.062500X0.375000X0.062500X-0.375000X0.062500X0*%
%ADD18RoundRect,0.062500X-0.062500X-0.375000X0.062500X-0.375000X0.062500X0.375000X-0.062500X0.375000X0*%
%ADD19R,3.100000X3.100000*%
%ADD20RoundRect,0.160000X0.222500X0.160000X-0.222500X0.160000X-0.222500X-0.160000X0.222500X-0.160000X0*%
%ADD21RoundRect,0.102000X-1.800000X-1.300000X1.800000X-1.300000X1.800000X1.300000X-1.800000X1.300000X0*%
%ADD22C,1.500000*%
G04 APERTURE END LIST*
D10*
%TO.C,L1*%
X51750000Y-67575000D03*
X53750000Y-67575000D03*
X55750000Y-67575000D03*
X57750000Y-67575000D03*
X59750000Y-67575000D03*
X51750000Y-77825000D03*
X53750000Y-77825000D03*
X55750000Y-77825000D03*
X57750000Y-77825000D03*
X59750000Y-77825000D03*
%TD*%
D11*
%TO.C,J2*%
X25524000Y-69500000D03*
X25524000Y-75280000D03*
D12*
X26024000Y-68070000D03*
X26024000Y-76710000D03*
D13*
X21844000Y-68070000D03*
X21844000Y-76710000D03*
%TD*%
D14*
%TO.C,J1*%
X29504936Y-75902962D03*
X33815459Y-78776644D03*
X32378618Y-80213485D03*
%TD*%
D15*
%TO.C,R24*%
X52007500Y-69000000D03*
X51192500Y-69000000D03*
%TD*%
%TO.C,R22*%
X50175000Y-72000000D03*
X49360000Y-72000000D03*
%TD*%
D16*
%TO.C,R23*%
X52992500Y-69000000D03*
X53807500Y-69000000D03*
%TD*%
D17*
%TO.C,U2*%
X51392500Y-74720000D03*
X51392500Y-74220000D03*
X51392500Y-73720000D03*
X51392500Y-73220000D03*
X51392500Y-72720000D03*
X51392500Y-72220000D03*
X51392500Y-71720000D03*
X51392500Y-71220000D03*
D18*
X52080000Y-70532500D03*
X52580000Y-70532500D03*
X53080000Y-70532500D03*
X53580000Y-70532500D03*
X54080000Y-70532500D03*
X54580000Y-70532500D03*
X55080000Y-70532500D03*
X55580000Y-70532500D03*
D17*
X56267500Y-71220000D03*
X56267500Y-71720000D03*
X56267500Y-72220000D03*
X56267500Y-72720000D03*
X56267500Y-73220000D03*
X56267500Y-73720000D03*
X56267500Y-74220000D03*
X56267500Y-74720000D03*
D18*
X55580000Y-75407500D03*
X55080000Y-75407500D03*
X54580000Y-75407500D03*
X54080000Y-75407500D03*
X53580000Y-75407500D03*
X53080000Y-75407500D03*
X52580000Y-75407500D03*
X52080000Y-75407500D03*
D19*
X53830000Y-72970000D03*
%TD*%
D20*
%TO.C,C15*%
X49602500Y-73800000D03*
X48457500Y-73800000D03*
%TD*%
D21*
%TO.C,BT1*%
X37290000Y-74250000D03*
X21500000Y-74250000D03*
%TD*%
D20*
%TO.C,C16*%
X49602500Y-74800000D03*
X48457500Y-74800000D03*
%TD*%
D22*
%TO.C,TP1*%
X20250000Y-70250000D03*
%TD*%
D15*
%TO.C,R21*%
X50207500Y-70800000D03*
X49392500Y-70800000D03*
%TD*%
M02*
