%TF.GenerationSoftware,KiCad,Pcbnew,9.0.4*%
%TF.CreationDate,2025-08-29T23:53:31-07:00*%
%TF.ProjectId,WeatherPill,57656174-6865-4725-9069-6c6c2e6b6963,rev?*%
%TF.SameCoordinates,Original*%
%TF.FileFunction,Copper,L4,Bot*%
%TF.FilePolarity,Positive*%
%FSLAX46Y46*%
G04 Gerber Fmt 4.6, Leading zero omitted, Abs format (unit mm)*
G04 Created by KiCad (PCBNEW 9.0.4) date 2025-08-29 23:53:31*
%MOMM*%
%LPD*%
G01*
G04 APERTURE LIST*
G04 Aperture macros list*
%AMRoundRect*
0 Rectangle with rounded corners*
0 $1 Rounding radius*
0 $2 $3 $4 $5 $6 $7 $8 $9 X,Y pos of 4 corners*
0 Add a 4 corners polygon primitive as box body*
4,1,4,$2,$3,$4,$5,$6,$7,$8,$9,$2,$3,0*
0 Add four circle primitives for the rounded corners*
1,1,$1+$1,$2,$3*
1,1,$1+$1,$4,$5*
1,1,$1+$1,$6,$7*
1,1,$1+$1,$8,$9*
0 Add four rect primitives between the rounded corners*
20,1,$1+$1,$2,$3,$4,$5,0*
20,1,$1+$1,$4,$5,$6,$7,0*
20,1,$1+$1,$6,$7,$8,$9,0*
20,1,$1+$1,$8,$9,$2,$3,0*%
G04 Aperture macros list end*
%TA.AperFunction,ComponentPad*%
%ADD10C,1.000000*%
%TD*%
%TA.AperFunction,ComponentPad*%
%ADD11O,2.100000X1.000000*%
%TD*%
%TA.AperFunction,ComponentPad*%
%ADD12O,1.800000X1.000000*%
%TD*%
%TA.AperFunction,SMDPad,CuDef*%
%ADD13RoundRect,0.100000X0.217500X0.100000X-0.217500X0.100000X-0.217500X-0.100000X0.217500X-0.100000X0*%
%TD*%
%TA.AperFunction,SMDPad,CuDef*%
%ADD14RoundRect,0.100000X-0.217500X-0.100000X0.217500X-0.100000X0.217500X0.100000X-0.217500X0.100000X0*%
%TD*%
%TA.AperFunction,SMDPad,CuDef*%
%ADD15RoundRect,0.062500X-0.375000X-0.062500X0.375000X-0.062500X0.375000X0.062500X-0.375000X0.062500X0*%
%TD*%
%TA.AperFunction,SMDPad,CuDef*%
%ADD16RoundRect,0.062500X-0.062500X-0.375000X0.062500X-0.375000X0.062500X0.375000X-0.062500X0.375000X0*%
%TD*%
%TA.AperFunction,HeatsinkPad*%
%ADD17R,3.100000X3.100000*%
%TD*%
%TA.AperFunction,SMDPad,CuDef*%
%ADD18RoundRect,0.160000X0.222500X0.160000X-0.222500X0.160000X-0.222500X-0.160000X0.222500X-0.160000X0*%
%TD*%
%TA.AperFunction,SMDPad,CuDef*%
%ADD19R,3.600000X2.600000*%
%TD*%
%TA.AperFunction,SMDPad,CuDef*%
%ADD20C,1.500000*%
%TD*%
%TA.AperFunction,ViaPad*%
%ADD21C,0.350000*%
%TD*%
%TA.AperFunction,Conductor*%
%ADD22C,0.250000*%
%TD*%
G04 APERTURE END LIST*
D10*
%TO.P,L1,1,1*%
%TO.N,SEG0*%
X51750000Y-67575000D03*
%TO.P,L1,2,2*%
%TO.N,SEG1*%
X53750000Y-67575000D03*
%TO.P,L1,3,3*%
%TO.N,SEG2*%
X55750000Y-67575000D03*
%TO.P,L1,4,4*%
%TO.N,SEG3*%
X57750000Y-67575000D03*
%TO.P,L1,5,5*%
%TO.N,SEG4*%
X59750000Y-67575000D03*
%TO.P,L1,6,6*%
%TO.N,SEG5*%
X51750000Y-77825000D03*
%TO.P,L1,7,7*%
%TO.N,COM3*%
X53750000Y-77825000D03*
%TO.P,L1,8,8*%
%TO.N,COM2*%
X55750000Y-77825000D03*
%TO.P,L1,9,9*%
%TO.N,COM1*%
X57750000Y-77825000D03*
%TO.P,L1,10,10*%
%TO.N,COM0*%
X59750000Y-77825000D03*
%TD*%
D11*
%TO.P,J2,SH1,SHELL_GND*%
%TO.N,GND*%
X26024000Y-68070000D03*
%TO.P,J2,SH2,SHELL_GND__1*%
X26024000Y-76710000D03*
D12*
%TO.P,J2,SH3,SHELL_GND__2*%
X21844000Y-68070000D03*
%TO.P,J2,SH4,SHELL_GND__3*%
X21844000Y-76710000D03*
%TD*%
D13*
%TO.P,R24,1*%
%TO.N,Net-(U2-PORE)*%
X52007500Y-69000000D03*
%TO.P,R24,2*%
%TO.N,GND*%
X51192500Y-69000000D03*
%TD*%
%TO.P,R22,1*%
%TO.N,Net-(U2-A0)*%
X50175000Y-72000000D03*
%TO.P,R22,2*%
%TO.N,GND*%
X49360000Y-72000000D03*
%TD*%
D14*
%TO.P,R23,1*%
%TO.N,Net-(U2-A1)*%
X52992500Y-69000000D03*
%TO.P,R23,2*%
%TO.N,GND*%
X53807500Y-69000000D03*
%TD*%
D15*
%TO.P,U2,1,COM3*%
%TO.N,COM3*%
X51392500Y-74720000D03*
%TO.P,U2,2,VLCD*%
%TO.N,V_BUS_ZONE_1*%
X51392500Y-74220000D03*
%TO.P,U2,3,VDD*%
X51392500Y-73720000D03*
%TO.P,U2,4,VSS*%
%TO.N,GND*%
X51392500Y-73220000D03*
%TO.P,U2,5,_RST*%
%TO.N,~{DISP_RST}*%
X51392500Y-72720000D03*
%TO.P,U2,6,A0*%
%TO.N,Net-(U2-A0)*%
X51392500Y-72220000D03*
%TO.P,U2,7,CLK*%
%TO.N,Net-(U2-CLK)*%
X51392500Y-71720000D03*
%TO.P,U2,8,SCL*%
%TO.N,SCL_1*%
X51392500Y-71220000D03*
D16*
%TO.P,U2,9,_CE*%
%TO.N,Net-(U2-_CE)*%
X52080000Y-70532500D03*
%TO.P,U2,10,PORE*%
%TO.N,Net-(U2-PORE)*%
X52580000Y-70532500D03*
%TO.P,U2,11,A1*%
%TO.N,Net-(U2-A1)*%
X53080000Y-70532500D03*
%TO.P,U2,12,SEG0*%
%TO.N,SEG0*%
X53580000Y-70532500D03*
%TO.P,U2,13,SEG1*%
%TO.N,SEG1*%
X54080000Y-70532500D03*
%TO.P,U2,14,SEG2*%
%TO.N,SEG2*%
X54580000Y-70532500D03*
%TO.P,U2,15,SEG3*%
%TO.N,SEG3*%
X55080000Y-70532500D03*
%TO.P,U2,16,SEG4*%
%TO.N,SEG4*%
X55580000Y-70532500D03*
D15*
%TO.P,U2,17,SEG5*%
%TO.N,SEG5*%
X56267500Y-71220000D03*
%TO.P,U2,18,SEG6*%
%TO.N,unconnected-(U2-SEG6-Pad18)*%
X56267500Y-71720000D03*
%TO.P,U2,19,SEG7*%
%TO.N,unconnected-(U2-SEG7-Pad19)*%
X56267500Y-72220000D03*
%TO.P,U2,20,SEG8*%
%TO.N,unconnected-(U2-SEG8-Pad20)*%
X56267500Y-72720000D03*
%TO.P,U2,21,SEG9*%
%TO.N,unconnected-(U2-SEG9-Pad21)*%
X56267500Y-73220000D03*
%TO.P,U2,22,SEG10*%
%TO.N,unconnected-(U2-SEG10-Pad22)*%
X56267500Y-73720000D03*
%TO.P,U2,23,SEG11*%
%TO.N,unconnected-(U2-SEG11-Pad23)*%
X56267500Y-74220000D03*
%TO.P,U2,24,SEG12*%
%TO.N,unconnected-(U2-SEG12-Pad24)*%
X56267500Y-74720000D03*
D16*
%TO.P,U2,25,SEG13*%
%TO.N,unconnected-(U2-SEG13-Pad25)*%
X55580000Y-75407500D03*
%TO.P,U2,26,SEG14*%
%TO.N,unconnected-(U2-SEG14-Pad26)*%
X55080000Y-75407500D03*
%TO.P,U2,27,SEG15*%
%TO.N,unconnected-(U2-SEG15-Pad27)*%
X54580000Y-75407500D03*
%TO.P,U2,28,SEG16*%
%TO.N,unconnected-(U2-SEG16-Pad28)*%
X54080000Y-75407500D03*
%TO.P,U2,29,SEG17*%
%TO.N,unconnected-(U2-SEG17-Pad29)*%
X53580000Y-75407500D03*
%TO.P,U2,30,COM0*%
%TO.N,COM0*%
X53080000Y-75407500D03*
%TO.P,U2,31,COM1*%
%TO.N,COM1*%
X52580000Y-75407500D03*
%TO.P,U2,32,COM2*%
%TO.N,COM2*%
X52080000Y-75407500D03*
D17*
%TO.P,U2,33*%
%TO.N,N/C*%
X53830000Y-72970000D03*
%TD*%
D18*
%TO.P,C15,1*%
%TO.N,V_BUS_ZONE_1*%
X49602500Y-73800000D03*
%TO.P,C15,2*%
%TO.N,GND*%
X48457500Y-73800000D03*
%TD*%
D19*
%TO.P,BT1,N*%
%TO.N,GND*%
X37290000Y-74250000D03*
%TO.P,BT1,P*%
%TO.N,Net-(BT1-PadP)*%
X21500000Y-74250000D03*
%TD*%
D18*
%TO.P,C16,1*%
%TO.N,V_BUS_ZONE_1*%
X49602500Y-74800000D03*
%TO.P,C16,2*%
%TO.N,GND*%
X48457500Y-74800000D03*
%TD*%
D20*
%TO.P,TP1,1,1*%
%TO.N,Net-(BT1-PadP)*%
X20250000Y-70250000D03*
%TD*%
D13*
%TO.P,R21,1*%
%TO.N,Net-(U2-CLK)*%
X50207500Y-70800000D03*
%TO.P,R21,2*%
%TO.N,GND*%
X49392500Y-70800000D03*
%TD*%
D21*
%TO.N,V_BUS_3V*%
X45900000Y-75200000D03*
X27200000Y-78400000D03*
X40000000Y-73000000D03*
X27700000Y-77900000D03*
X32306250Y-69893750D03*
X29200000Y-77200000D03*
%TO.N,GND*%
X28750000Y-78250000D03*
X49422500Y-71600000D03*
X53241054Y-68358946D03*
X47400000Y-74200000D03*
X36500000Y-71000000D03*
X30250000Y-69500000D03*
X40400000Y-72600000D03*
X33000000Y-79500000D03*
X35350000Y-72250000D03*
X33600000Y-67000000D03*
X34028211Y-77881273D03*
X30000000Y-74800000D03*
X38200000Y-76500000D03*
X43000000Y-74177500D03*
X36425000Y-73325000D03*
X43800000Y-71400000D03*
X29250000Y-67500000D03*
X40600000Y-78000000D03*
X44000000Y-76800000D03*
X29250000Y-82000000D03*
X40849804Y-69950196D03*
X29737266Y-73246645D03*
X45400000Y-72800000D03*
X28500000Y-75750000D03*
X27500000Y-80500000D03*
X20250000Y-76750000D03*
X30000000Y-71400000D03*
X50000000Y-68800000D03*
X42500000Y-69500000D03*
X39400000Y-74200000D03*
X50200000Y-73200000D03*
%TO.N,SDA_1*%
X31750000Y-71750000D03*
X50000000Y-80750000D03*
%TO.N,SCL_1*%
X50375000Y-78875000D03*
X48695000Y-81250000D03*
X51200000Y-70600000D03*
X31500000Y-71250000D03*
X50546446Y-75800000D03*
%TO.N,CS_1*%
X37800000Y-69532502D03*
X40706777Y-69303223D03*
%TO.N,CS_2*%
X36868813Y-69032502D03*
X47500000Y-69725000D03*
%TO.N,V_USB*%
X31000000Y-75400000D03*
X28080000Y-69990000D03*
X30125000Y-72625000D03*
%TO.N,BTN_1*%
X40700000Y-79300000D03*
X39000000Y-71200000D03*
%TO.N,BTN_2*%
X42200000Y-79200000D03*
X39000000Y-70600000D03*
%TO.N,V_BUS_ZONE_1*%
X43427500Y-75322500D03*
X44600000Y-69200000D03*
X50400000Y-74600000D03*
X49293756Y-78614959D03*
X42200000Y-71800000D03*
X47400000Y-67800000D03*
X55400000Y-81572501D03*
%TO.N,CONTROL_ZONE_1*%
X36000000Y-76405084D03*
X41200000Y-74600000D03*
%TO.N,NRST*%
X39465002Y-73400000D03*
X31367169Y-79879025D03*
%TO.N,USB_D-*%
X28071501Y-71696554D03*
X28250000Y-73500000D03*
%TO.N,HDC_DRDY*%
X31250000Y-70750000D03*
X34000000Y-80750000D03*
X31250000Y-80500000D03*
X48736181Y-78600000D03*
%TO.N,SDO_1*%
X35100000Y-68456095D03*
X49100000Y-69357108D03*
%TO.N,SDI_1*%
X35600000Y-69000000D03*
X40208692Y-67951000D03*
X48582875Y-72284290D03*
%TO.N,Net-(D1-PadA)*%
X40000000Y-77800000D03*
X37800000Y-78200000D03*
%TO.N,Net-(BT1-PadP)*%
X23750000Y-78500000D03*
%TO.N,SEG0*%
X53600000Y-69600000D03*
%TO.N,unconnected-(U2-SEG8-Pad20)*%
X57800000Y-72720000D03*
%TO.N,SEG5*%
X57800000Y-70400000D03*
%TO.N,unconnected-(U2-SEG10-Pad22)*%
X57800000Y-73720000D03*
%TO.N,~{DISP_RST}*%
X38950000Y-70000000D03*
%TO.N,unconnected-(U2-SEG12-Pad24)*%
X58500000Y-74900000D03*
%TO.N,unconnected-(U2-SEG13-Pad25)*%
X57700000Y-75600000D03*
%TO.N,unconnected-(U2-SEG9-Pad21)*%
X58580000Y-73220000D03*
%TO.N,unconnected-(U2-SEG11-Pad23)*%
X58700000Y-74220000D03*
%TO.N,unconnected-(U2-SEG7-Pad19)*%
X58500000Y-72220000D03*
%TO.N,COM2*%
X52080000Y-76600000D03*
%TD*%
D22*
%TO.N,GND*%
X50639521Y-73251000D02*
X50251000Y-73251000D01*
X50639521Y-73251000D02*
X50651000Y-73251000D01*
X53356108Y-68474000D02*
X53474000Y-68474000D01*
X53241054Y-68358946D02*
X53356108Y-68474000D01*
X51392500Y-73220000D02*
X50670521Y-73220000D01*
X50670521Y-73220000D02*
X50639521Y-73251000D01*
X53474000Y-68474000D02*
X53866000Y-68866000D01*
X53866000Y-68866000D02*
X53866000Y-68983892D01*
X49422500Y-71600000D02*
X49422500Y-71937500D01*
X49422500Y-71600000D02*
X49422500Y-70830000D01*
X50251000Y-73251000D02*
X50200000Y-73200000D01*
%TO.N,SDA_1*%
X30750000Y-81750000D02*
X29750000Y-80750000D01*
X49292479Y-81751000D02*
X49291479Y-81750000D01*
X49291479Y-81750000D02*
X30750000Y-81750000D01*
X29750000Y-80750000D02*
X29750000Y-78500000D01*
X49499000Y-81751000D02*
X49292479Y-81751000D01*
X32451000Y-74451000D02*
X31750000Y-73750000D01*
X50000000Y-81250000D02*
X49499000Y-81751000D01*
X50000000Y-80750000D02*
X50000000Y-81250000D01*
X29750000Y-78500000D02*
X32451000Y-75799000D01*
X31750000Y-73750000D02*
X31750000Y-71750000D01*
X32451000Y-75799000D02*
X32451000Y-74451000D01*
%TO.N,SCL_1*%
X33000000Y-75887810D02*
X33000000Y-74250000D01*
X50349000Y-78901000D02*
X50349000Y-77213190D01*
X32250000Y-73500000D02*
X32250000Y-71500000D01*
X49250000Y-80000000D02*
X50375000Y-78875000D01*
X32000000Y-71250000D02*
X31500000Y-71250000D01*
X50375000Y-78875000D02*
X50349000Y-78901000D01*
X31000000Y-81250000D02*
X30250000Y-80500000D01*
X51392500Y-71220000D02*
X51200000Y-71027500D01*
X33000000Y-74250000D02*
X32250000Y-73500000D01*
X30250000Y-78637810D02*
X33000000Y-75887810D01*
X48695000Y-81250000D02*
X31000000Y-81250000D01*
X32250000Y-71500000D02*
X32000000Y-71250000D01*
X30250000Y-80500000D02*
X30250000Y-78637810D01*
X50349000Y-77213190D02*
X50546446Y-77015744D01*
X49250000Y-80695000D02*
X49250000Y-80000000D01*
X50546446Y-77015744D02*
X50546446Y-75800000D01*
X48695000Y-81250000D02*
X49250000Y-80695000D01*
X51200000Y-71027500D02*
X51200000Y-70600000D01*
%TO.N,CS_1*%
X39157521Y-69499000D02*
X39191023Y-69532502D01*
X38708977Y-69532502D02*
X38742479Y-69499000D01*
X39191023Y-69532502D02*
X40477498Y-69532502D01*
X40477498Y-69532502D02*
X40706777Y-69303223D01*
X38742479Y-69499000D02*
X39157521Y-69499000D01*
X37800000Y-69532502D02*
X38708977Y-69532502D01*
%TO.N,CS_2*%
X40800000Y-68600000D02*
X41200000Y-68200000D01*
X40268212Y-68600000D02*
X40800000Y-68600000D01*
X43162190Y-68200000D02*
X43213190Y-68149000D01*
X45924000Y-68149000D02*
X47500000Y-69725000D01*
X36868813Y-69032502D02*
X39835710Y-69032502D01*
X43213190Y-68149000D02*
X45924000Y-68149000D01*
X41200000Y-68200000D02*
X43162190Y-68200000D01*
X39835710Y-69032502D02*
X40268212Y-68600000D01*
%TO.N,V_USB*%
X29250000Y-71750000D02*
X29250000Y-70500000D01*
X31000000Y-74750000D02*
X30250000Y-74000000D01*
X31000000Y-75400000D02*
X31000000Y-74750000D01*
X30250000Y-72750000D02*
X30125000Y-72625000D01*
X30250000Y-74000000D02*
X30250000Y-72750000D01*
X30125000Y-72625000D02*
X29250000Y-71750000D01*
X28740000Y-69990000D02*
X28080000Y-69990000D01*
X29250000Y-70500000D02*
X28740000Y-69990000D01*
%TO.N,BTN_1*%
X41149000Y-72949000D02*
X41701000Y-73501000D01*
X40100000Y-71600000D02*
X40500000Y-71600000D01*
X41400000Y-78600000D02*
X40700000Y-79300000D01*
X39000000Y-71200000D02*
X39700000Y-71200000D01*
X41400000Y-77202669D02*
X41400000Y-78600000D01*
X39700000Y-71200000D02*
X40100000Y-71600000D01*
X41149000Y-72249000D02*
X41149000Y-72949000D01*
X41701000Y-76901669D02*
X41400000Y-77202669D01*
X41701000Y-73501000D02*
X41701000Y-76901669D01*
X40500000Y-71600000D02*
X41149000Y-72249000D01*
%TO.N,BTN_2*%
X39800000Y-70600000D02*
X40200000Y-71000000D01*
X42200000Y-77040479D02*
X42099000Y-77141479D01*
X41600000Y-72000000D02*
X41600000Y-72700000D01*
X40600000Y-71000000D02*
X41600000Y-72000000D01*
X40200000Y-71000000D02*
X40600000Y-71000000D01*
X42099000Y-79099000D02*
X42200000Y-79200000D01*
X42200000Y-73300000D02*
X42200000Y-77040479D01*
X39000000Y-70600000D02*
X39800000Y-70600000D01*
X42099000Y-77141479D02*
X42099000Y-79099000D01*
X41600000Y-72700000D02*
X42200000Y-73300000D01*
%TO.N,V_BUS_ZONE_1*%
X50780000Y-74220000D02*
X51392500Y-74220000D01*
X50400000Y-74600000D02*
X50200000Y-74800000D01*
X50200000Y-74800000D02*
X49602500Y-74800000D01*
X50400000Y-74000000D02*
X50400000Y-74600000D01*
X50400000Y-74600000D02*
X50400000Y-74597500D01*
X50400000Y-74597500D02*
X49602500Y-73800000D01*
X51392500Y-73720000D02*
X50680000Y-73720000D01*
X50400000Y-74600000D02*
X50780000Y-74220000D01*
X50680000Y-73720000D02*
X50400000Y-74000000D01*
%TO.N,CONTROL_ZONE_1*%
X41200000Y-76600000D02*
X40800000Y-77000000D01*
X41200000Y-74600000D02*
X41200000Y-76600000D01*
X40800000Y-77000000D02*
X37200000Y-77000000D01*
X36800000Y-76600000D02*
X36194916Y-76600000D01*
X36194916Y-76600000D02*
X36000000Y-76405084D01*
X37200000Y-77000000D02*
X36800000Y-76600000D01*
%TO.N,NRST*%
X34400000Y-72100000D02*
X34400000Y-76100000D01*
X36900000Y-72400000D02*
X36000000Y-71500000D01*
X32944159Y-77555841D02*
X32944159Y-78555841D01*
X35000000Y-71500000D02*
X34400000Y-72100000D01*
X32157815Y-79342185D02*
X31904009Y-79342185D01*
X34400000Y-76100000D02*
X32944159Y-77555841D01*
X39465002Y-72865002D02*
X39000000Y-72400000D01*
X39000000Y-72400000D02*
X36900000Y-72400000D01*
X36000000Y-71500000D02*
X35000000Y-71500000D01*
X31904009Y-79342185D02*
X31367169Y-79879025D01*
X39465002Y-73400000D02*
X39465002Y-72865002D01*
X32944159Y-78555841D02*
X32157815Y-79342185D01*
%TO.N,USB_D-*%
X28071501Y-71696554D02*
X28071501Y-73428499D01*
X28143002Y-73500000D02*
X28250000Y-73500000D01*
X28071501Y-73428499D02*
X28143002Y-73500000D01*
%TO.N,HDC_DRDY*%
X30750000Y-80000000D02*
X30750000Y-79000000D01*
X33750000Y-72250000D02*
X32250000Y-70750000D01*
X30750000Y-79000000D02*
X33750000Y-76000000D01*
X31250000Y-80500000D02*
X30750000Y-80000000D01*
X33750000Y-76000000D02*
X33750000Y-72250000D01*
X48736181Y-79013819D02*
X47000000Y-80750000D01*
X32250000Y-70750000D02*
X31250000Y-70750000D01*
X48736181Y-78600000D02*
X48736181Y-79013819D01*
X47000000Y-80750000D02*
X34000000Y-80750000D01*
%TO.N,SDO_1*%
X47549000Y-67149000D02*
X49100000Y-68700000D01*
X35756095Y-67800000D02*
X39600000Y-67800000D01*
X40251000Y-67149000D02*
X47549000Y-67149000D01*
X39600000Y-67800000D02*
X40251000Y-67149000D01*
X49100000Y-68700000D02*
X49100000Y-69357108D01*
X35100000Y-68456095D02*
X35756095Y-67800000D01*
%TO.N,SDI_1*%
X48400000Y-72100000D02*
X48400000Y-69600000D01*
X35600000Y-69000000D02*
X35600000Y-68800000D01*
X48582875Y-72282875D02*
X48400000Y-72100000D01*
X48400000Y-69600000D02*
X46400000Y-67600000D01*
X35600000Y-68800000D02*
X36000000Y-68400000D01*
X40257693Y-67992307D02*
X40257693Y-68000001D01*
X39702000Y-68400000D02*
X40151000Y-67951000D01*
X36000000Y-68400000D02*
X39702000Y-68400000D01*
X40257693Y-68000001D02*
X40208692Y-67951000D01*
X48582875Y-72284290D02*
X48582875Y-72282875D01*
X46400000Y-67600000D02*
X40650000Y-67600000D01*
X40650000Y-67600000D02*
X40257693Y-67992307D01*
X40151000Y-67951000D02*
X40208692Y-67951000D01*
%TO.N,Net-(D1-PadA)*%
X38400000Y-77600000D02*
X39800000Y-77600000D01*
X39800000Y-77600000D02*
X40000000Y-77800000D01*
X37800000Y-78200000D02*
X38400000Y-77600000D01*
%TO.N,Net-(BT1-PadP)*%
X22250000Y-74250000D02*
X23750000Y-75750000D01*
X21500000Y-71500000D02*
X20250000Y-70250000D01*
X21500000Y-74250000D02*
X21500000Y-71500000D01*
X23750000Y-75750000D02*
X23750000Y-78500000D01*
%TO.N,Net-(U2-CLK)*%
X50920000Y-71720000D02*
X50871000Y-71671000D01*
X50207500Y-71207500D02*
X50207500Y-70800000D01*
X50445154Y-71445154D02*
X50207500Y-71207500D01*
X50854846Y-71671000D02*
X50629000Y-71445154D01*
X50629000Y-71445154D02*
X50445154Y-71445154D01*
X50871000Y-71671000D02*
X50854846Y-71671000D01*
X51392500Y-71720000D02*
X50920000Y-71720000D01*
%TO.N,Net-(U2-A0)*%
X50175000Y-72000000D02*
X50375000Y-72200000D01*
X50375000Y-72200000D02*
X50397500Y-72200000D01*
X50397500Y-72200000D02*
X50417500Y-72220000D01*
X50417500Y-72220000D02*
X51392500Y-72220000D01*
%TO.N,Net-(U2-A1)*%
X53080000Y-69397190D02*
X52992500Y-69309690D01*
X53080000Y-70532500D02*
X53080000Y-69397190D01*
X52992500Y-69309690D02*
X52992500Y-69000000D01*
%TO.N,Net-(U2-PORE)*%
X52045000Y-69000000D02*
X52580000Y-69535000D01*
X52580000Y-69535000D02*
X52580000Y-70532500D01*
%TO.N,Net-(U2-_CE)*%
X51247500Y-69700000D02*
X51200000Y-69700000D01*
X52080000Y-70532500D02*
X51247500Y-69700000D01*
%TO.N,SEG0*%
X53600000Y-70023846D02*
X53580000Y-70043846D01*
X53580000Y-70043846D02*
X53580000Y-70532500D01*
X53600000Y-69600000D02*
X53600000Y-70023846D01*
%TO.N,unconnected-(U2-SEG8-Pad20)*%
X56267500Y-72720000D02*
X57800000Y-72720000D01*
X57800000Y-72720000D02*
X57820000Y-72700000D01*
%TO.N,SEG5*%
X56267500Y-71220000D02*
X56980000Y-71220000D01*
X56980000Y-71220000D02*
X57800000Y-70400000D01*
%TO.N,COM1*%
X52580000Y-75407500D02*
X52580000Y-76380000D01*
X56400000Y-76800000D02*
X57425000Y-77825000D01*
X52580000Y-76380000D02*
X53000000Y-76800000D01*
X53000000Y-76800000D02*
X56400000Y-76800000D01*
%TO.N,unconnected-(U2-SEG10-Pad22)*%
X56267500Y-73720000D02*
X57800000Y-73720000D01*
X57800000Y-73720000D02*
X57820000Y-73720000D01*
%TO.N,~{DISP_RST}*%
X48391479Y-72800000D02*
X49000000Y-72800000D01*
X47600000Y-70600000D02*
X47600000Y-72008521D01*
X47600000Y-72008521D02*
X48391479Y-72800000D01*
X49000000Y-72800000D02*
X49200000Y-72600000D01*
X41400000Y-69200000D02*
X41600000Y-69000000D01*
X40000000Y-70000000D02*
X40451196Y-70451196D01*
X50854846Y-72671000D02*
X50903846Y-72720000D01*
X41400000Y-70108521D02*
X41400000Y-69200000D01*
X50071000Y-72671000D02*
X50854846Y-72671000D01*
X45600000Y-68600000D02*
X47600000Y-70600000D01*
X50903846Y-72720000D02*
X51392500Y-72720000D01*
X43400000Y-68600000D02*
X45600000Y-68600000D01*
X40451196Y-70451196D02*
X41057325Y-70451196D01*
X43000000Y-69000000D02*
X43400000Y-68600000D01*
X50000000Y-72600000D02*
X50071000Y-72671000D01*
X38950000Y-70000000D02*
X40000000Y-70000000D01*
X49200000Y-72600000D02*
X50000000Y-72600000D01*
X41057325Y-70451196D02*
X41400000Y-70108521D01*
X41600000Y-69000000D02*
X43000000Y-69000000D01*
%TO.N,SEG3*%
X55080000Y-70532500D02*
X55080000Y-70043846D01*
X55080000Y-70043846D02*
X57548846Y-67575000D01*
%TO.N,unconnected-(U2-SEG12-Pad24)*%
X58500000Y-74900000D02*
X58320000Y-74720000D01*
X58320000Y-74720000D02*
X56267500Y-74720000D01*
%TO.N,SEG2*%
X55051000Y-69386810D02*
X54580000Y-69857810D01*
X55051000Y-68749000D02*
X55051000Y-69386810D01*
X54580000Y-69857810D02*
X54580000Y-70532500D01*
X55750000Y-68050000D02*
X55051000Y-68749000D01*
X55750000Y-67575000D02*
X55750000Y-68050000D01*
%TO.N,SEG4*%
X56792500Y-70532500D02*
X59750000Y-67575000D01*
X55580000Y-70532500D02*
X56792500Y-70532500D01*
%TO.N,SEG1*%
X53750000Y-67950000D02*
X54600000Y-68800000D01*
X54101000Y-70511500D02*
X54080000Y-70532500D01*
X53750000Y-67575000D02*
X53750000Y-67950000D01*
X54600000Y-68800000D02*
X54600000Y-69200000D01*
X54101000Y-69699000D02*
X54101000Y-70511500D01*
X54600000Y-69200000D02*
X54101000Y-69699000D01*
%TO.N,unconnected-(U2-SEG13-Pad25)*%
X55580000Y-75407500D02*
X55772500Y-75600000D01*
X55772500Y-75600000D02*
X57700000Y-75600000D01*
%TO.N,unconnected-(U2-SEG6-Pad18)*%
X56267500Y-71720000D02*
X57980000Y-71720000D01*
%TO.N,unconnected-(U2-SEG9-Pad21)*%
X56267500Y-73220000D02*
X58580000Y-73220000D01*
%TO.N,unconnected-(U2-SEG11-Pad23)*%
X56267500Y-74220000D02*
X58700000Y-74220000D01*
%TO.N,unconnected-(U2-SEG7-Pad19)*%
X58500000Y-72220000D02*
X56267500Y-72220000D01*
%TO.N,COM2*%
X52080000Y-75407500D02*
X52080000Y-76600000D01*
%TO.N,COM0*%
X53080000Y-75896154D02*
X53532846Y-76349000D01*
X58274000Y-76349000D02*
X59750000Y-77825000D01*
X53532846Y-76349000D02*
X58274000Y-76349000D01*
X53080000Y-75407500D02*
X53080000Y-75896154D01*
%TO.N,COM3*%
X50800000Y-77400000D02*
X50800000Y-78200000D01*
X50800000Y-78200000D02*
X51400000Y-78800000D01*
X52775000Y-78800000D02*
X53750000Y-77825000D01*
X51392500Y-76807500D02*
X50800000Y-77400000D01*
X51392500Y-74720000D02*
X51392500Y-76807500D01*
X51400000Y-78800000D02*
X52775000Y-78800000D01*
%TD*%
%TA.AperFunction,Conductor*%
%TO.N,GND*%
G36*
X49887435Y-72950112D02*
G01*
X49908234Y-72962120D01*
X49908235Y-72962120D01*
X49942273Y-72981773D01*
X50027094Y-73004500D01*
X50114906Y-73004500D01*
X50328893Y-73004500D01*
X50395932Y-73024185D01*
X50420966Y-73053076D01*
X50421329Y-73052759D01*
X50458374Y-73095000D01*
X51268500Y-73095000D01*
X51277185Y-73097550D01*
X51286147Y-73096262D01*
X51310187Y-73107240D01*
X51335539Y-73114685D01*
X51341466Y-73121525D01*
X51349703Y-73125287D01*
X51363992Y-73147521D01*
X51381294Y-73167489D01*
X51383581Y-73178003D01*
X51387477Y-73184065D01*
X51392500Y-73219000D01*
X51392500Y-73221000D01*
X51372815Y-73288039D01*
X51320011Y-73333794D01*
X51268500Y-73345000D01*
X50458373Y-73345000D01*
X50464932Y-73394818D01*
X50464344Y-73398582D01*
X50465677Y-73402153D01*
X50459002Y-73432838D01*
X50454166Y-73463853D01*
X50451401Y-73467784D01*
X50450827Y-73470427D01*
X50429677Y-73498682D01*
X50413133Y-73515226D01*
X50413130Y-73515229D01*
X50375443Y-73552915D01*
X50314119Y-73586400D01*
X50244428Y-73581414D01*
X50188495Y-73539542D01*
X50176367Y-73519701D01*
X50129050Y-73422913D01*
X50129048Y-73422911D01*
X50129048Y-73422910D01*
X50042088Y-73335950D01*
X49931602Y-73281936D01*
X49913692Y-73279327D01*
X49859971Y-73271500D01*
X49859965Y-73271500D01*
X49345027Y-73271500D01*
X49318215Y-73275407D01*
X49306098Y-73273687D01*
X49294201Y-73276550D01*
X49272154Y-73268871D01*
X49249038Y-73265592D01*
X49238150Y-73257029D01*
X49228218Y-73253570D01*
X49202722Y-73229165D01*
X49200069Y-73225778D01*
X49174226Y-73160864D01*
X49187581Y-73092282D01*
X49210004Y-73061636D01*
X49266867Y-73004774D01*
X49266867Y-73004773D01*
X49266869Y-73004772D01*
X49301822Y-72969819D01*
X49363145Y-72936334D01*
X49389503Y-72933500D01*
X49825436Y-72933500D01*
X49887435Y-72950112D01*
G37*
%TD.AperFunction*%
%TA.AperFunction,Conductor*%
G36*
X41014426Y-69652130D02*
G01*
X41057617Y-69707051D01*
X41066500Y-69753138D01*
X41066500Y-69919017D01*
X41057856Y-69948453D01*
X41051333Y-69978443D01*
X41047577Y-69983460D01*
X41046815Y-69986056D01*
X41030182Y-70006698D01*
X40955504Y-70081377D01*
X40894181Y-70114862D01*
X40867822Y-70117696D01*
X40640699Y-70117696D01*
X40573660Y-70098011D01*
X40553020Y-70081379D01*
X40547140Y-70075499D01*
X40528345Y-70056704D01*
X40494859Y-69995384D01*
X40499842Y-69925692D01*
X40541713Y-69869757D01*
X40583932Y-69849248D01*
X40606225Y-69843275D01*
X40648145Y-69819072D01*
X40682272Y-69799369D01*
X40744365Y-69737276D01*
X40744365Y-69737274D01*
X40754568Y-69727072D01*
X40754572Y-69727066D01*
X40785204Y-69696434D01*
X40840793Y-69664341D01*
X40854802Y-69660588D01*
X40880501Y-69645750D01*
X40948399Y-69629278D01*
X41014426Y-69652130D01*
G37*
%TD.AperFunction*%
%TA.AperFunction,Conductor*%
G36*
X60304418Y-66500816D02*
G01*
X60501338Y-66514900D01*
X60511866Y-66516108D01*
X60554997Y-66522939D01*
X60561919Y-66524239D01*
X60731734Y-66561180D01*
X60743649Y-66564403D01*
X60776846Y-66575189D01*
X60781837Y-66576930D01*
X60953736Y-66641045D01*
X60966661Y-66646726D01*
X60978263Y-66652638D01*
X60981255Y-66654217D01*
X61156974Y-66750166D01*
X61171848Y-66759724D01*
X61340353Y-66885866D01*
X61353723Y-66897452D01*
X61502547Y-67046276D01*
X61514133Y-67059646D01*
X61640271Y-67228146D01*
X61649835Y-67243029D01*
X61649836Y-67243031D01*
X61745751Y-67418686D01*
X61747388Y-67421787D01*
X61753265Y-67433322D01*
X61758959Y-67446277D01*
X61823067Y-67618159D01*
X61824815Y-67623171D01*
X61835588Y-67656324D01*
X61838824Y-67668287D01*
X61875755Y-67838060D01*
X61877062Y-67845021D01*
X61883888Y-67888120D01*
X61885099Y-67898670D01*
X61899184Y-68095582D01*
X61899500Y-68104429D01*
X61899500Y-80895570D01*
X61899184Y-80904417D01*
X61885099Y-81101328D01*
X61883888Y-81111878D01*
X61877062Y-81154977D01*
X61875755Y-81161938D01*
X61838824Y-81331711D01*
X61835588Y-81343674D01*
X61824815Y-81376827D01*
X61823067Y-81381839D01*
X61758959Y-81553721D01*
X61753261Y-81566683D01*
X61753260Y-81566685D01*
X61747394Y-81578197D01*
X61745743Y-81581326D01*
X61649838Y-81756965D01*
X61640273Y-81771850D01*
X61514133Y-81940353D01*
X61502547Y-81953723D01*
X61353723Y-82102547D01*
X61340353Y-82114133D01*
X61171850Y-82240273D01*
X61156968Y-82249836D01*
X61156965Y-82249838D01*
X60981326Y-82345743D01*
X60978197Y-82347394D01*
X60966685Y-82353260D01*
X60953721Y-82358959D01*
X60781839Y-82423067D01*
X60776827Y-82424815D01*
X60743674Y-82435588D01*
X60731711Y-82438824D01*
X60561938Y-82475755D01*
X60554977Y-82477062D01*
X60511878Y-82483888D01*
X60501328Y-82485099D01*
X60304418Y-82499184D01*
X60295571Y-82499500D01*
X20604429Y-82499500D01*
X20595582Y-82499184D01*
X20398670Y-82485099D01*
X20388120Y-82483888D01*
X20345021Y-82477062D01*
X20338060Y-82475755D01*
X20168287Y-82438824D01*
X20156324Y-82435588D01*
X20123171Y-82424815D01*
X20118159Y-82423067D01*
X19946277Y-82358959D01*
X19933322Y-82353265D01*
X19921787Y-82347388D01*
X19918686Y-82345751D01*
X19918671Y-82345743D01*
X19743029Y-82249835D01*
X19728146Y-82240271D01*
X19559646Y-82114133D01*
X19546276Y-82102547D01*
X19397452Y-81953723D01*
X19385866Y-81940353D01*
X19326908Y-81861594D01*
X19259724Y-81771848D01*
X19250166Y-81756974D01*
X19154217Y-81581255D01*
X19152638Y-81578263D01*
X19146726Y-81566661D01*
X19141045Y-81553736D01*
X19076930Y-81381837D01*
X19075183Y-81376827D01*
X19064403Y-81343649D01*
X19061180Y-81331734D01*
X19024239Y-81161919D01*
X19022939Y-81154997D01*
X19016108Y-81111866D01*
X19014900Y-81101338D01*
X19000816Y-80904417D01*
X19000500Y-80895572D01*
X19000500Y-80424442D01*
X21779600Y-80424442D01*
X21779600Y-80566357D01*
X21807282Y-80705525D01*
X21807284Y-80705533D01*
X21861588Y-80836633D01*
X21861593Y-80836643D01*
X21940428Y-80954627D01*
X21940431Y-80954631D01*
X22040768Y-81054968D01*
X22040772Y-81054971D01*
X22158756Y-81133806D01*
X22158760Y-81133808D01*
X22158763Y-81133810D01*
X22289867Y-81188116D01*
X22380251Y-81206094D01*
X22429042Y-81215799D01*
X22429046Y-81215800D01*
X22429047Y-81215800D01*
X22570954Y-81215800D01*
X22570955Y-81215799D01*
X22710133Y-81188116D01*
X22841237Y-81133810D01*
X22959228Y-81054971D01*
X23059571Y-80954628D01*
X23138410Y-80836637D01*
X23192716Y-80705533D01*
X23220400Y-80566353D01*
X23220400Y-80424447D01*
X23220399Y-80424442D01*
X24779600Y-80424442D01*
X24779600Y-80566357D01*
X24807282Y-80705525D01*
X24807284Y-80705533D01*
X24861588Y-80836633D01*
X24861593Y-80836643D01*
X24940428Y-80954627D01*
X24940431Y-80954631D01*
X25040768Y-81054968D01*
X25040772Y-81054971D01*
X25158756Y-81133806D01*
X25158760Y-81133808D01*
X25158763Y-81133810D01*
X25289867Y-81188116D01*
X25380251Y-81206094D01*
X25429042Y-81215799D01*
X25429046Y-81215800D01*
X25429047Y-81215800D01*
X25570954Y-81215800D01*
X25570955Y-81215799D01*
X25710133Y-81188116D01*
X25841237Y-81133810D01*
X25959228Y-81054971D01*
X26059571Y-80954628D01*
X26138410Y-80836637D01*
X26192716Y-80705533D01*
X26220400Y-80566353D01*
X26220400Y-80424447D01*
X26192716Y-80285267D01*
X26138410Y-80154163D01*
X26138408Y-80154160D01*
X26138406Y-80154156D01*
X26059571Y-80036172D01*
X26059568Y-80036168D01*
X25959231Y-79935831D01*
X25959227Y-79935828D01*
X25841243Y-79856993D01*
X25841233Y-79856988D01*
X25710133Y-79802684D01*
X25710125Y-79802682D01*
X25570957Y-79775000D01*
X25570953Y-79775000D01*
X25429047Y-79775000D01*
X25429042Y-79775000D01*
X25289874Y-79802682D01*
X25289866Y-79802684D01*
X25158766Y-79856988D01*
X25158756Y-79856993D01*
X25040772Y-79935828D01*
X25040768Y-79935831D01*
X24940431Y-80036168D01*
X24940428Y-80036172D01*
X24861593Y-80154156D01*
X24861588Y-80154166D01*
X24807284Y-80285266D01*
X24807282Y-80285274D01*
X24779600Y-80424442D01*
X23220399Y-80424442D01*
X23192716Y-80285267D01*
X23138410Y-80154163D01*
X23138408Y-80154160D01*
X23138406Y-80154156D01*
X23059571Y-80036172D01*
X23059568Y-80036168D01*
X22959231Y-79935831D01*
X22959227Y-79935828D01*
X22841243Y-79856993D01*
X22841233Y-79856988D01*
X22710133Y-79802684D01*
X22710125Y-79802682D01*
X22570957Y-79775000D01*
X22570953Y-79775000D01*
X22429047Y-79775000D01*
X22429042Y-79775000D01*
X22289874Y-79802682D01*
X22289866Y-79802684D01*
X22158766Y-79856988D01*
X22158756Y-79856993D01*
X22040772Y-79935828D01*
X22040768Y-79935831D01*
X21940431Y-80036168D01*
X21940428Y-80036172D01*
X21861593Y-80154156D01*
X21861588Y-80154166D01*
X21807284Y-80285266D01*
X21807282Y-80285274D01*
X21779600Y-80424442D01*
X19000500Y-80424442D01*
X19000500Y-70155591D01*
X19291500Y-70155591D01*
X19291500Y-70344408D01*
X19328332Y-70529576D01*
X19328334Y-70529584D01*
X19400586Y-70704017D01*
X19400591Y-70704026D01*
X19505483Y-70861007D01*
X19505486Y-70861011D01*
X19638988Y-70994513D01*
X19638992Y-70994516D01*
X19795973Y-71099408D01*
X19795979Y-71099411D01*
X19795980Y-71099412D01*
X19970416Y-71171666D01*
X20086791Y-71194814D01*
X20155591Y-71208499D01*
X20155595Y-71208500D01*
X20155596Y-71208500D01*
X20344405Y-71208500D01*
X20344406Y-71208499D01*
X20529584Y-71171666D01*
X20573558Y-71153450D01*
X20643025Y-71145982D01*
X20705505Y-71177256D01*
X20708691Y-71180331D01*
X21130181Y-71601821D01*
X21163666Y-71663144D01*
X21166500Y-71689502D01*
X21166500Y-72617500D01*
X21146815Y-72684539D01*
X21094011Y-72730294D01*
X21042500Y-72741500D01*
X19679465Y-72741500D01*
X19618646Y-72753597D01*
X19549679Y-72799679D01*
X19503596Y-72868647D01*
X19503595Y-72868648D01*
X19491500Y-72929458D01*
X19491500Y-75570534D01*
X19503597Y-75631353D01*
X19549679Y-75700320D01*
X19618647Y-75746403D01*
X19618648Y-75746404D01*
X19659097Y-75754449D01*
X19679463Y-75758500D01*
X20681925Y-75758499D01*
X20748962Y-75778183D01*
X20794717Y-75830987D01*
X20804661Y-75900146D01*
X20775636Y-75963702D01*
X20769605Y-75970180D01*
X20667248Y-76072537D01*
X20557814Y-76236315D01*
X20557807Y-76236328D01*
X20482430Y-76418307D01*
X20482430Y-76418309D01*
X20474138Y-76460000D01*
X21277012Y-76460000D01*
X21259795Y-76469940D01*
X21203940Y-76525795D01*
X21164444Y-76594204D01*
X21144000Y-76670504D01*
X21144000Y-76749496D01*
X21164444Y-76825796D01*
X21203940Y-76894205D01*
X21259795Y-76950060D01*
X21277012Y-76960000D01*
X20474138Y-76960000D01*
X20482430Y-77001690D01*
X20482430Y-77001692D01*
X20557807Y-77183671D01*
X20557814Y-77183684D01*
X20667248Y-77347462D01*
X20667251Y-77347466D01*
X20806533Y-77486748D01*
X20806537Y-77486751D01*
X20970315Y-77596185D01*
X20970328Y-77596192D01*
X21152306Y-77671569D01*
X21152318Y-77671572D01*
X21345504Y-77709999D01*
X21345508Y-77710000D01*
X21594000Y-77710000D01*
X21594000Y-77010000D01*
X22094000Y-77010000D01*
X22094000Y-77710000D01*
X22342492Y-77710000D01*
X22342495Y-77709999D01*
X22535681Y-77671572D01*
X22535693Y-77671569D01*
X22717671Y-77596192D01*
X22717684Y-77596185D01*
X22881462Y-77486751D01*
X22881466Y-77486748D01*
X23020748Y-77347466D01*
X23020751Y-77347462D01*
X23130185Y-77183684D01*
X23130192Y-77183671D01*
X23177939Y-77068399D01*
X23221779Y-77013995D01*
X23288074Y-76991930D01*
X23355773Y-77009209D01*
X23403384Y-77060346D01*
X23416500Y-77115851D01*
X23416500Y-78277413D01*
X23399889Y-78339410D01*
X23392636Y-78351972D01*
X23392635Y-78351973D01*
X23385008Y-78380438D01*
X23366500Y-78449511D01*
X23366500Y-78550489D01*
X23392635Y-78648025D01*
X23443124Y-78735474D01*
X23514526Y-78806876D01*
X23601975Y-78857365D01*
X23699511Y-78883500D01*
X23699514Y-78883500D01*
X23800486Y-78883500D01*
X23800489Y-78883500D01*
X23898025Y-78857365D01*
X23985474Y-78806876D01*
X24056876Y-78735474D01*
X24107365Y-78648025D01*
X24133500Y-78550489D01*
X24133500Y-78449511D01*
X24107365Y-78351975D01*
X24105942Y-78349511D01*
X26816500Y-78349511D01*
X26816500Y-78450489D01*
X26842635Y-78548025D01*
X26893124Y-78635474D01*
X26964526Y-78706876D01*
X27051975Y-78757365D01*
X27149511Y-78783500D01*
X27149514Y-78783500D01*
X27250486Y-78783500D01*
X27250489Y-78783500D01*
X27348025Y-78757365D01*
X27435474Y-78706876D01*
X27506876Y-78635474D01*
X27557365Y-78548025D01*
X27581998Y-78456094D01*
X29416499Y-78456094D01*
X29416499Y-78553895D01*
X29416500Y-78553908D01*
X29416500Y-80698481D01*
X29416499Y-80698499D01*
X29416499Y-80706094D01*
X29416499Y-80793906D01*
X29424489Y-80823726D01*
X29438068Y-80874405D01*
X29439227Y-80878727D01*
X29447257Y-80892635D01*
X29483133Y-80954774D01*
X29545226Y-81016867D01*
X29545228Y-81016868D01*
X30545226Y-82016867D01*
X30621274Y-82060773D01*
X30706094Y-82083501D01*
X30706096Y-82083501D01*
X30801503Y-82083501D01*
X30801519Y-82083500D01*
X49232850Y-82083500D01*
X49233428Y-82083501D01*
X49245045Y-82083555D01*
X49248572Y-82084500D01*
X49248573Y-82084500D01*
X49447845Y-82084500D01*
X49448060Y-82084501D01*
X49455094Y-82084501D01*
X49542904Y-82084501D01*
X49542906Y-82084501D01*
X49627727Y-82061773D01*
X49642762Y-82053091D01*
X49664817Y-82040359D01*
X49664818Y-82040357D01*
X49674765Y-82034615D01*
X49703774Y-82017867D01*
X49765867Y-81955774D01*
X49765868Y-81955771D01*
X50194564Y-81527075D01*
X50194569Y-81527071D01*
X50199628Y-81522012D01*
X55016500Y-81522012D01*
X55016500Y-81622990D01*
X55042635Y-81720526D01*
X55093124Y-81807975D01*
X55164526Y-81879377D01*
X55251975Y-81929866D01*
X55349511Y-81956001D01*
X55349514Y-81956001D01*
X55450486Y-81956001D01*
X55450489Y-81956001D01*
X55548025Y-81929866D01*
X55635474Y-81879377D01*
X55706876Y-81807975D01*
X55757365Y-81720526D01*
X55783500Y-81622990D01*
X55783500Y-81522012D01*
X55757365Y-81424476D01*
X55706876Y-81337027D01*
X55635474Y-81265625D01*
X55548025Y-81215136D01*
X55450489Y-81189001D01*
X55349511Y-81189001D01*
X55251975Y-81215136D01*
X55251973Y-81215136D01*
X55251973Y-81215137D01*
X55164526Y-81265625D01*
X55164523Y-81265627D01*
X55093126Y-81337024D01*
X55093124Y-81337027D01*
X55046663Y-81417500D01*
X55042635Y-81424476D01*
X55016500Y-81522012D01*
X50199628Y-81522012D01*
X50204772Y-81516867D01*
X50204774Y-81516867D01*
X50266867Y-81454774D01*
X50299631Y-81398025D01*
X50310773Y-81378727D01*
X50333501Y-81293906D01*
X50333501Y-81206094D01*
X50333501Y-81198499D01*
X50333500Y-81198481D01*
X50333500Y-80972586D01*
X50350114Y-80910584D01*
X50350881Y-80909255D01*
X50357365Y-80898025D01*
X50383500Y-80800489D01*
X50383500Y-80699511D01*
X50357365Y-80601975D01*
X50306876Y-80514526D01*
X50235474Y-80443124D01*
X50148025Y-80392635D01*
X50050489Y-80366500D01*
X49949511Y-80366500D01*
X49851975Y-80392635D01*
X49769500Y-80440252D01*
X49763598Y-80441684D01*
X49759011Y-80445659D01*
X49730048Y-80449823D01*
X49701601Y-80456725D01*
X49695862Y-80454738D01*
X49689853Y-80455603D01*
X49663232Y-80443445D01*
X49635573Y-80433873D01*
X49631819Y-80429100D01*
X49626297Y-80426578D01*
X49610474Y-80401956D01*
X49592383Y-80378952D01*
X49590966Y-80371601D01*
X49588523Y-80367800D01*
X49583500Y-80332865D01*
X49583500Y-80189501D01*
X49603185Y-80122462D01*
X49619815Y-80101824D01*
X50453427Y-79268211D01*
X50509016Y-79236118D01*
X50523025Y-79232365D01*
X50610474Y-79181876D01*
X50681876Y-79110474D01*
X50732365Y-79023025D01*
X50758500Y-78925489D01*
X50758500Y-78925485D01*
X50759561Y-78917429D01*
X50761952Y-78917743D01*
X50764738Y-78908256D01*
X50766318Y-78886168D01*
X50774390Y-78875384D01*
X50778185Y-78862463D01*
X50794918Y-78847963D01*
X50808190Y-78830235D01*
X50820810Y-78825527D01*
X50830989Y-78816708D01*
X50852906Y-78813556D01*
X50873654Y-78805818D01*
X50886814Y-78808680D01*
X50900147Y-78806764D01*
X50920290Y-78815963D01*
X50941927Y-78820670D01*
X50959652Y-78833938D01*
X50963703Y-78835789D01*
X50970181Y-78841821D01*
X51128792Y-79000432D01*
X51128802Y-79000443D01*
X51133132Y-79004773D01*
X51133133Y-79004774D01*
X51195226Y-79066867D01*
X51195228Y-79066868D01*
X51195229Y-79066869D01*
X51235658Y-79090210D01*
X51235660Y-79090212D01*
X51235661Y-79090212D01*
X51271273Y-79110773D01*
X51356094Y-79133500D01*
X52723482Y-79133500D01*
X52723498Y-79133501D01*
X52731094Y-79133501D01*
X52818904Y-79133501D01*
X52818906Y-79133501D01*
X52903727Y-79110773D01*
X52939339Y-79090212D01*
X52979774Y-79066867D01*
X53041867Y-79004774D01*
X53041868Y-79004771D01*
X53493994Y-78552644D01*
X53555315Y-78519161D01*
X53605863Y-78518710D01*
X53680217Y-78533499D01*
X53680218Y-78533500D01*
X53680219Y-78533500D01*
X53819782Y-78533500D01*
X53819783Y-78533499D01*
X53956662Y-78506273D01*
X54085601Y-78452864D01*
X54201642Y-78375328D01*
X54300328Y-78276642D01*
X54377864Y-78160601D01*
X54431273Y-78031662D01*
X54458500Y-77894781D01*
X54458500Y-77755219D01*
X54431273Y-77618338D01*
X54377864Y-77489399D01*
X54377862Y-77489396D01*
X54377860Y-77489392D01*
X54300328Y-77373358D01*
X54300325Y-77373354D01*
X54272152Y-77345181D01*
X54238667Y-77283858D01*
X54243651Y-77214166D01*
X54285523Y-77158233D01*
X54350987Y-77133816D01*
X54359833Y-77133500D01*
X55140167Y-77133500D01*
X55207206Y-77153185D01*
X55252961Y-77205989D01*
X55262905Y-77275147D01*
X55233880Y-77338703D01*
X55227848Y-77345181D01*
X55199674Y-77373354D01*
X55199671Y-77373358D01*
X55122139Y-77489392D01*
X55122134Y-77489402D01*
X55068727Y-77618337D01*
X55068725Y-77618345D01*
X55041500Y-77755214D01*
X55041500Y-77894785D01*
X55068725Y-78031654D01*
X55068727Y-78031662D01*
X55122134Y-78160597D01*
X55122139Y-78160607D01*
X55199671Y-78276641D01*
X55199674Y-78276645D01*
X55298354Y-78375325D01*
X55298358Y-78375328D01*
X55414392Y-78452860D01*
X55414396Y-78452862D01*
X55414399Y-78452864D01*
X55543338Y-78506273D01*
X55680214Y-78533499D01*
X55680218Y-78533500D01*
X55680219Y-78533500D01*
X55819782Y-78533500D01*
X55819783Y-78533499D01*
X55956662Y-78506273D01*
X56085601Y-78452864D01*
X56201642Y-78375328D01*
X56300328Y-78276642D01*
X56377864Y-78160601D01*
X56431273Y-78031662D01*
X56458500Y-77894781D01*
X56458500Y-77755219D01*
X56456535Y-77745342D01*
X56432700Y-77625510D01*
X56438927Y-77555918D01*
X56481790Y-77500741D01*
X56547680Y-77477497D01*
X56615677Y-77493565D01*
X56641998Y-77513638D01*
X57019460Y-77891100D01*
X57052945Y-77952423D01*
X57053396Y-77954590D01*
X57068725Y-78031654D01*
X57068727Y-78031662D01*
X57122134Y-78160597D01*
X57122139Y-78160607D01*
X57199671Y-78276641D01*
X57199674Y-78276645D01*
X57298354Y-78375325D01*
X57298358Y-78375328D01*
X57414392Y-78452860D01*
X57414396Y-78452862D01*
X57414399Y-78452864D01*
X57543338Y-78506273D01*
X57680214Y-78533499D01*
X57680218Y-78533500D01*
X57680219Y-78533500D01*
X57819782Y-78533500D01*
X57819783Y-78533499D01*
X57956662Y-78506273D01*
X58085601Y-78452864D01*
X58201642Y-78375328D01*
X58300328Y-78276642D01*
X58377864Y-78160601D01*
X58431273Y-78031662D01*
X58458500Y-77894781D01*
X58458500Y-77755219D01*
X58431273Y-77618338D01*
X58377864Y-77489399D01*
X58377862Y-77489396D01*
X58377860Y-77489392D01*
X58300328Y-77373358D01*
X58300325Y-77373354D01*
X58201645Y-77274674D01*
X58201641Y-77274671D01*
X58085607Y-77197139D01*
X58085597Y-77197134D01*
X57956662Y-77143727D01*
X57956654Y-77143725D01*
X57819785Y-77116500D01*
X57819781Y-77116500D01*
X57680219Y-77116500D01*
X57680214Y-77116500D01*
X57543345Y-77143725D01*
X57543337Y-77143727D01*
X57414400Y-77197135D01*
X57411714Y-77198930D01*
X57410091Y-77199437D01*
X57409029Y-77200006D01*
X57408921Y-77199804D01*
X57345036Y-77219805D01*
X57277657Y-77201318D01*
X57255146Y-77183506D01*
X56965821Y-76894181D01*
X56932336Y-76832858D01*
X56937320Y-76763166D01*
X56979192Y-76707233D01*
X57044656Y-76682816D01*
X57053502Y-76682500D01*
X58084498Y-76682500D01*
X58151537Y-76702185D01*
X58172179Y-76718819D01*
X59022353Y-77568993D01*
X59055838Y-77630316D01*
X59056289Y-77680865D01*
X59041500Y-77755214D01*
X59041500Y-77894785D01*
X59068725Y-78031654D01*
X59068727Y-78031662D01*
X59122134Y-78160597D01*
X59122139Y-78160607D01*
X59199671Y-78276641D01*
X59199674Y-78276645D01*
X59298354Y-78375325D01*
X59298358Y-78375328D01*
X59414392Y-78452860D01*
X59414396Y-78452862D01*
X59414399Y-78452864D01*
X59543338Y-78506273D01*
X59680214Y-78533499D01*
X59680218Y-78533500D01*
X59680219Y-78533500D01*
X59819782Y-78533500D01*
X59819783Y-78533499D01*
X59956662Y-78506273D01*
X60085601Y-78452864D01*
X60201642Y-78375328D01*
X60300328Y-78276642D01*
X60377864Y-78160601D01*
X60431273Y-78031662D01*
X60458500Y-77894781D01*
X60458500Y-77755219D01*
X60431273Y-77618338D01*
X60377864Y-77489399D01*
X60377862Y-77489396D01*
X60377860Y-77489392D01*
X60300328Y-77373358D01*
X60300325Y-77373354D01*
X60201645Y-77274674D01*
X60201641Y-77274671D01*
X60085607Y-77197139D01*
X60085597Y-77197134D01*
X59956662Y-77143727D01*
X59956654Y-77143725D01*
X59819785Y-77116500D01*
X59819781Y-77116500D01*
X59680219Y-77116500D01*
X59680214Y-77116500D01*
X59605865Y-77131289D01*
X59536273Y-77125062D01*
X59493993Y-77097353D01*
X58552920Y-76156280D01*
X58540868Y-76144228D01*
X58540867Y-76144226D01*
X58478774Y-76082133D01*
X58417054Y-76046499D01*
X58402727Y-76038227D01*
X58317906Y-76015499D01*
X58230094Y-76015499D01*
X58222498Y-76015499D01*
X58222482Y-76015500D01*
X58117712Y-76015500D01*
X58050673Y-75995815D01*
X58004918Y-75943011D01*
X57994974Y-75873853D01*
X58010323Y-75829501D01*
X58057365Y-75748025D01*
X58083500Y-75650489D01*
X58083500Y-75549511D01*
X58057365Y-75451975D01*
X58006876Y-75364526D01*
X57935474Y-75293124D01*
X57921206Y-75284886D01*
X57919098Y-75282675D01*
X57916168Y-75281815D01*
X57895154Y-75257564D01*
X57872991Y-75234320D01*
X57872412Y-75231318D01*
X57870413Y-75229011D01*
X57865845Y-75197247D01*
X57859768Y-75165713D01*
X57860903Y-75162876D01*
X57860469Y-75159853D01*
X57873801Y-75130657D01*
X57885736Y-75100848D01*
X57888225Y-75099075D01*
X57889494Y-75096297D01*
X57916496Y-75078943D01*
X57942650Y-75060320D01*
X57946477Y-75059676D01*
X57948272Y-75058523D01*
X57983207Y-75053500D01*
X58074205Y-75053500D01*
X58141244Y-75073185D01*
X58181591Y-75115499D01*
X58193124Y-75135474D01*
X58264526Y-75206876D01*
X58351975Y-75257365D01*
X58449511Y-75283500D01*
X58449514Y-75283500D01*
X58550486Y-75283500D01*
X58550489Y-75283500D01*
X58648025Y-75257365D01*
X58735474Y-75206876D01*
X58806876Y-75135474D01*
X58857365Y-75048025D01*
X58883500Y-74950489D01*
X58883500Y-74849511D01*
X58857365Y-74751975D01*
X58841421Y-74724359D01*
X58824948Y-74656463D01*
X58847799Y-74590435D01*
X58886806Y-74554974D01*
X58935474Y-74526876D01*
X59006876Y-74455474D01*
X59057365Y-74368025D01*
X59083500Y-74270489D01*
X59083500Y-74169511D01*
X59057365Y-74071975D01*
X59006876Y-73984526D01*
X58935474Y-73913124D01*
X58848025Y-73862635D01*
X58750489Y-73836500D01*
X58702793Y-73836500D01*
X58654209Y-73822234D01*
X58649550Y-73828210D01*
X58625396Y-73839650D01*
X58618246Y-73844512D01*
X58613829Y-73846060D01*
X58551975Y-73862635D01*
X58529383Y-73875678D01*
X58518453Y-73879512D01*
X58499910Y-73880471D01*
X58477414Y-73886500D01*
X58307500Y-73886500D01*
X58240461Y-73866815D01*
X58194706Y-73814011D01*
X58183500Y-73762500D01*
X58183500Y-73677500D01*
X58203185Y-73610461D01*
X58255989Y-73564706D01*
X58307500Y-73553500D01*
X58357414Y-73553500D01*
X58372903Y-73557650D01*
X58386650Y-73556996D01*
X58419416Y-73570114D01*
X58431975Y-73577365D01*
X58529511Y-73603500D01*
X58529514Y-73603500D01*
X58577207Y-73603500D01*
X58591288Y-73607634D01*
X58605944Y-73606876D01*
X58624138Y-73617280D01*
X58628772Y-73618641D01*
X58667858Y-73593523D01*
X58670649Y-73592738D01*
X58728025Y-73577365D01*
X58815474Y-73526876D01*
X58886876Y-73455474D01*
X58937365Y-73368025D01*
X58963500Y-73270489D01*
X58963500Y-73169511D01*
X58937365Y-73071975D01*
X58886876Y-72984526D01*
X58815474Y-72913124D01*
X58728025Y-72862635D01*
X58630489Y-72836500D01*
X58622793Y-72836500D01*
X58555754Y-72816815D01*
X58509999Y-72764011D01*
X58500055Y-72694853D01*
X58529080Y-72631297D01*
X58587858Y-72593523D01*
X58590649Y-72592738D01*
X58648025Y-72577365D01*
X58735474Y-72526876D01*
X58806876Y-72455474D01*
X58857365Y-72368025D01*
X58883500Y-72270489D01*
X58883500Y-72169511D01*
X58857365Y-72071975D01*
X58806876Y-71984526D01*
X58735474Y-71913124D01*
X58648025Y-71862635D01*
X58550489Y-71836500D01*
X58449511Y-71836500D01*
X58441384Y-71836500D01*
X58441384Y-71834034D01*
X58384640Y-71825180D01*
X58332389Y-71778795D01*
X58313500Y-71713011D01*
X58313500Y-71676096D01*
X58313500Y-71676094D01*
X58290773Y-71591274D01*
X58246867Y-71515226D01*
X58184774Y-71453133D01*
X58108726Y-71409227D01*
X58023906Y-71386500D01*
X58023905Y-71386500D01*
X57584502Y-71386500D01*
X57517463Y-71366815D01*
X57471708Y-71314011D01*
X57461764Y-71244853D01*
X57490789Y-71181297D01*
X57496821Y-71174819D01*
X57778318Y-70893321D01*
X57878427Y-70793211D01*
X57934016Y-70761118D01*
X57948025Y-70757365D01*
X58035474Y-70706876D01*
X58106876Y-70635474D01*
X58157365Y-70548025D01*
X58183500Y-70450489D01*
X58183500Y-70349511D01*
X58157365Y-70251975D01*
X58106876Y-70164526D01*
X58035474Y-70093124D01*
X57964968Y-70052417D01*
X57916754Y-70001851D01*
X57903532Y-69933243D01*
X57929500Y-69868379D01*
X57939281Y-69857358D01*
X59493995Y-68302644D01*
X59555316Y-68269161D01*
X59605863Y-68268710D01*
X59680217Y-68283499D01*
X59680218Y-68283500D01*
X59680219Y-68283500D01*
X59819782Y-68283500D01*
X59819783Y-68283499D01*
X59956662Y-68256273D01*
X60085601Y-68202864D01*
X60201642Y-68125328D01*
X60300328Y-68026642D01*
X60377864Y-67910601D01*
X60431273Y-67781662D01*
X60458500Y-67644781D01*
X60458500Y-67505219D01*
X60431273Y-67368338D01*
X60377864Y-67239399D01*
X60377862Y-67239396D01*
X60377860Y-67239392D01*
X60300328Y-67123358D01*
X60300325Y-67123354D01*
X60201645Y-67024674D01*
X60201641Y-67024671D01*
X60085607Y-66947139D01*
X60085597Y-66947134D01*
X59956662Y-66893727D01*
X59956654Y-66893725D01*
X59819785Y-66866500D01*
X59819781Y-66866500D01*
X59680219Y-66866500D01*
X59680214Y-66866500D01*
X59543345Y-66893725D01*
X59543337Y-66893727D01*
X59414402Y-66947134D01*
X59414392Y-66947139D01*
X59298358Y-67024671D01*
X59298354Y-67024674D01*
X59199674Y-67123354D01*
X59199671Y-67123358D01*
X59122139Y-67239392D01*
X59122134Y-67239402D01*
X59068727Y-67368337D01*
X59068725Y-67368345D01*
X59041500Y-67505214D01*
X59041500Y-67505218D01*
X59041500Y-67505219D01*
X59041500Y-67644781D01*
X59042413Y-67649369D01*
X59056289Y-67719134D01*
X59050060Y-67788726D01*
X59022352Y-67831005D01*
X56690679Y-70162681D01*
X56629356Y-70196166D01*
X56602998Y-70199000D01*
X56028828Y-70199000D01*
X55961789Y-70179315D01*
X55920467Y-70135282D01*
X55911007Y-70118277D01*
X55897776Y-70051761D01*
X55837880Y-69962120D01*
X55816003Y-69947502D01*
X55801441Y-69921326D01*
X55800077Y-69915288D01*
X55796108Y-69910539D01*
X55792473Y-69881611D01*
X55786052Y-69853172D01*
X55788169Y-69847355D01*
X55787398Y-69841214D01*
X55799980Y-69814912D01*
X55809953Y-69787518D01*
X55814878Y-69783770D01*
X55817550Y-69778185D01*
X55822102Y-69773382D01*
X57340414Y-68255070D01*
X57401735Y-68221587D01*
X57471427Y-68226571D01*
X57475533Y-68228187D01*
X57543338Y-68256273D01*
X57648637Y-68277218D01*
X57680214Y-68283499D01*
X57680218Y-68283500D01*
X57680219Y-68283500D01*
X57819782Y-68283500D01*
X57819783Y-68283499D01*
X57956662Y-68256273D01*
X58085601Y-68202864D01*
X58201642Y-68125328D01*
X58300328Y-68026642D01*
X58377864Y-67910601D01*
X58431273Y-67781662D01*
X58458500Y-67644781D01*
X58458500Y-67505219D01*
X58431273Y-67368338D01*
X58377864Y-67239399D01*
X58377862Y-67239396D01*
X58377860Y-67239392D01*
X58300328Y-67123358D01*
X58300325Y-67123354D01*
X58201645Y-67024674D01*
X58201641Y-67024671D01*
X58085607Y-66947139D01*
X58085597Y-66947134D01*
X57956662Y-66893727D01*
X57956654Y-66893725D01*
X57819785Y-66866500D01*
X57819781Y-66866500D01*
X57680219Y-66866500D01*
X57680214Y-66866500D01*
X57543345Y-66893725D01*
X57543337Y-66893727D01*
X57414402Y-66947134D01*
X57414392Y-66947139D01*
X57298358Y-67024671D01*
X57298354Y-67024674D01*
X57199674Y-67123354D01*
X57199671Y-67123358D01*
X57122139Y-67239392D01*
X57122134Y-67239402D01*
X57068727Y-67368337D01*
X57068725Y-67368345D01*
X57041500Y-67505214D01*
X57041500Y-67559344D01*
X57021815Y-67626383D01*
X57005181Y-67647025D01*
X56535652Y-68116553D01*
X56474329Y-68150038D01*
X56404637Y-68145054D01*
X56348704Y-68103182D01*
X56324287Y-68037718D01*
X56339139Y-67969445D01*
X56344870Y-67959980D01*
X56377859Y-67910609D01*
X56377860Y-67910606D01*
X56377864Y-67910601D01*
X56431273Y-67781662D01*
X56458500Y-67644781D01*
X56458500Y-67505219D01*
X56431273Y-67368338D01*
X56377864Y-67239399D01*
X56377862Y-67239396D01*
X56377860Y-67239392D01*
X56300328Y-67123358D01*
X56300325Y-67123354D01*
X56201645Y-67024674D01*
X56201641Y-67024671D01*
X56085607Y-66947139D01*
X56085597Y-66947134D01*
X55956662Y-66893727D01*
X55956654Y-66893725D01*
X55819785Y-66866500D01*
X55819781Y-66866500D01*
X55680219Y-66866500D01*
X55680214Y-66866500D01*
X55543345Y-66893725D01*
X55543337Y-66893727D01*
X55414402Y-66947134D01*
X55414392Y-66947139D01*
X55298358Y-67024671D01*
X55298354Y-67024674D01*
X55199674Y-67123354D01*
X55199671Y-67123358D01*
X55122139Y-67239392D01*
X55122134Y-67239402D01*
X55068727Y-67368337D01*
X55068725Y-67368345D01*
X55041500Y-67505214D01*
X55041500Y-67644785D01*
X55068725Y-67781654D01*
X55068727Y-67781662D01*
X55122134Y-67910597D01*
X55122139Y-67910607D01*
X55184008Y-68003200D01*
X55204886Y-68069878D01*
X55186401Y-68137258D01*
X55168587Y-68159772D01*
X54887680Y-68440678D01*
X54826357Y-68474163D01*
X54756665Y-68469179D01*
X54712318Y-68440678D01*
X54548858Y-68277218D01*
X54371467Y-68099826D01*
X54337982Y-68038503D01*
X54342966Y-67968811D01*
X54356047Y-67943253D01*
X54377859Y-67910609D01*
X54377860Y-67910606D01*
X54377864Y-67910601D01*
X54431273Y-67781662D01*
X54458500Y-67644781D01*
X54458500Y-67505219D01*
X54431273Y-67368338D01*
X54377864Y-67239399D01*
X54377862Y-67239396D01*
X54377860Y-67239392D01*
X54300328Y-67123358D01*
X54300325Y-67123354D01*
X54201645Y-67024674D01*
X54201641Y-67024671D01*
X54085607Y-66947139D01*
X54085597Y-66947134D01*
X53956662Y-66893727D01*
X53956654Y-66893725D01*
X53819785Y-66866500D01*
X53819781Y-66866500D01*
X53680219Y-66866500D01*
X53680214Y-66866500D01*
X53543345Y-66893725D01*
X53543337Y-66893727D01*
X53414402Y-66947134D01*
X53414392Y-66947139D01*
X53298358Y-67024671D01*
X53298354Y-67024674D01*
X53199674Y-67123354D01*
X53199671Y-67123358D01*
X53122139Y-67239392D01*
X53122134Y-67239402D01*
X53068727Y-67368337D01*
X53068725Y-67368345D01*
X53041500Y-67505214D01*
X53041500Y-67644785D01*
X53068725Y-67781654D01*
X53068727Y-67781662D01*
X53122134Y-67910597D01*
X53122139Y-67910607D01*
X53199671Y-68026641D01*
X53199674Y-68026645D01*
X53298355Y-68125326D01*
X53298358Y-68125328D01*
X53332776Y-68148325D01*
X53377582Y-68201937D01*
X53386289Y-68271262D01*
X53356135Y-68334290D01*
X53311341Y-68365988D01*
X53287413Y-68375899D01*
X53162075Y-68472075D01*
X53107663Y-68542987D01*
X53051235Y-68584189D01*
X53009287Y-68591500D01*
X52728932Y-68591500D01*
X52703143Y-68594492D01*
X52597634Y-68641079D01*
X52587681Y-68651033D01*
X52526358Y-68684518D01*
X52456666Y-68679534D01*
X52412319Y-68651033D01*
X52402365Y-68641079D01*
X52296856Y-68594492D01*
X52296857Y-68594492D01*
X52271067Y-68591500D01*
X52271064Y-68591500D01*
X51990713Y-68591500D01*
X51987280Y-68590492D01*
X51983797Y-68591307D01*
X51953999Y-68580719D01*
X51923674Y-68571815D01*
X51920341Y-68568760D01*
X51917959Y-68567914D01*
X51894208Y-68544807D01*
X51892617Y-68543349D01*
X51831251Y-68463984D01*
X51821291Y-68438503D01*
X51808181Y-68414493D01*
X51808757Y-68406434D01*
X51805816Y-68398909D01*
X51811213Y-68372089D01*
X51813165Y-68344801D01*
X51818006Y-68338333D01*
X51819601Y-68330412D01*
X51838643Y-68310766D01*
X51855037Y-68288868D01*
X51863549Y-68285071D01*
X51868230Y-68280243D01*
X51881160Y-68277218D01*
X51905153Y-68266518D01*
X51956662Y-68256273D01*
X52085601Y-68202864D01*
X52201642Y-68125328D01*
X52300328Y-68026642D01*
X52377864Y-67910601D01*
X52431273Y-67781662D01*
X52458500Y-67644781D01*
X52458500Y-67505219D01*
X52431273Y-67368338D01*
X52377864Y-67239399D01*
X52377862Y-67239396D01*
X52377860Y-67239392D01*
X52300328Y-67123358D01*
X52300325Y-67123354D01*
X52201645Y-67024674D01*
X52201641Y-67024671D01*
X52085607Y-66947139D01*
X52085597Y-66947134D01*
X51956662Y-66893727D01*
X51956654Y-66893725D01*
X51819785Y-66866500D01*
X51819781Y-66866500D01*
X51680219Y-66866500D01*
X51680214Y-66866500D01*
X51543345Y-66893725D01*
X51543337Y-66893727D01*
X51414402Y-66947134D01*
X51414392Y-66947139D01*
X51298358Y-67024671D01*
X51298354Y-67024674D01*
X51199674Y-67123354D01*
X51199671Y-67123358D01*
X51122139Y-67239392D01*
X51122134Y-67239402D01*
X51068727Y-67368337D01*
X51068725Y-67368345D01*
X51041500Y-67505214D01*
X51041500Y-67644785D01*
X51068725Y-67781654D01*
X51068727Y-67781662D01*
X51122134Y-67910597D01*
X51122139Y-67910607D01*
X51199671Y-68026641D01*
X51199674Y-68026645D01*
X51298355Y-68125326D01*
X51298358Y-68125328D01*
X51335339Y-68150038D01*
X51337390Y-68151408D01*
X51382196Y-68205020D01*
X51392500Y-68254511D01*
X51392500Y-68876000D01*
X51372815Y-68943039D01*
X51320011Y-68988794D01*
X51268500Y-69000000D01*
X51192500Y-69000000D01*
X51192500Y-69076000D01*
X51172815Y-69143039D01*
X51120011Y-69188794D01*
X51068500Y-69200000D01*
X50382990Y-69200000D01*
X50382988Y-69200001D01*
X50390442Y-69256627D01*
X50390444Y-69256633D01*
X50450899Y-69402585D01*
X50547075Y-69527924D01*
X50672413Y-69624100D01*
X50798125Y-69676171D01*
X50852529Y-69720011D01*
X50870447Y-69758637D01*
X50889227Y-69828726D01*
X50933133Y-69904774D01*
X50995226Y-69966867D01*
X51071274Y-70010773D01*
X51071275Y-70010773D01*
X51078312Y-70014836D01*
X51076880Y-70017315D01*
X51120509Y-70052479D01*
X51142568Y-70118775D01*
X51125284Y-70186473D01*
X51074142Y-70234080D01*
X51055955Y-70240986D01*
X51051975Y-70242634D01*
X50964526Y-70293124D01*
X50964523Y-70293126D01*
X50893126Y-70364523D01*
X50893122Y-70364529D01*
X50839476Y-70457444D01*
X50788908Y-70505658D01*
X50720301Y-70518880D01*
X50655437Y-70492911D01*
X50644409Y-70483123D01*
X50602365Y-70441079D01*
X50496856Y-70394492D01*
X50496857Y-70394492D01*
X50471067Y-70391500D01*
X50471064Y-70391500D01*
X50190713Y-70391500D01*
X50123674Y-70371815D01*
X50092337Y-70342987D01*
X50037924Y-70272075D01*
X49912586Y-70175899D01*
X49766634Y-70115445D01*
X49766630Y-70115444D01*
X49649330Y-70100000D01*
X49592500Y-70100000D01*
X49592500Y-71546138D01*
X49572815Y-71613177D01*
X49560000Y-71629079D01*
X49560000Y-71876000D01*
X49557449Y-71884685D01*
X49558738Y-71893647D01*
X49547759Y-71917687D01*
X49540315Y-71943039D01*
X49533474Y-71948966D01*
X49529713Y-71957203D01*
X49507478Y-71971492D01*
X49487511Y-71988794D01*
X49476996Y-71991081D01*
X49470935Y-71994977D01*
X49436000Y-72000000D01*
X49284000Y-72000000D01*
X49216961Y-71980315D01*
X49171206Y-71927511D01*
X49160000Y-71876000D01*
X49160000Y-71253862D01*
X49179685Y-71186823D01*
X49192500Y-71170920D01*
X49192500Y-70100000D01*
X49192499Y-70099999D01*
X49135676Y-70100000D01*
X49018371Y-70115442D01*
X49018366Y-70115444D01*
X48904952Y-70162421D01*
X48872327Y-70165928D01*
X48839853Y-70170598D01*
X48837765Y-70169644D01*
X48835482Y-70169890D01*
X48806139Y-70155201D01*
X48776297Y-70141573D01*
X48775055Y-70139641D01*
X48773003Y-70138614D01*
X48756264Y-70110400D01*
X48738523Y-70082795D01*
X48738087Y-70079764D01*
X48737352Y-70078525D01*
X48733500Y-70047860D01*
X48733500Y-69803110D01*
X48753185Y-69736071D01*
X48805989Y-69690316D01*
X48875147Y-69680372D01*
X48919499Y-69695723D01*
X48951975Y-69714473D01*
X49049511Y-69740608D01*
X49049514Y-69740608D01*
X49150486Y-69740608D01*
X49150489Y-69740608D01*
X49248025Y-69714473D01*
X49335474Y-69663984D01*
X49406876Y-69592582D01*
X49457365Y-69505133D01*
X49483500Y-69407597D01*
X49483500Y-69306619D01*
X49457365Y-69209083D01*
X49450111Y-69196518D01*
X49433500Y-69134521D01*
X49433500Y-68800000D01*
X50382987Y-68800000D01*
X50992500Y-68800000D01*
X50992500Y-68300000D01*
X50992499Y-68299999D01*
X50935676Y-68300000D01*
X50818371Y-68315442D01*
X50818366Y-68315444D01*
X50672414Y-68375899D01*
X50547075Y-68472075D01*
X50450899Y-68597413D01*
X50390444Y-68743368D01*
X50382987Y-68800000D01*
X49433500Y-68800000D01*
X49433500Y-68656092D01*
X49430236Y-68643909D01*
X49430236Y-68643910D01*
X49430235Y-68643906D01*
X49410773Y-68571273D01*
X49388752Y-68533133D01*
X49366867Y-68495226D01*
X49304774Y-68433133D01*
X49304771Y-68433131D01*
X47822937Y-66951297D01*
X47822935Y-66951294D01*
X47753773Y-66882132D01*
X47705561Y-66854298D01*
X47705561Y-66854297D01*
X47705557Y-66854296D01*
X47677727Y-66838227D01*
X47677726Y-66838226D01*
X47677725Y-66838226D01*
X47623951Y-66823817D01*
X47592906Y-66815499D01*
X47505094Y-66815499D01*
X47497498Y-66815499D01*
X47497482Y-66815500D01*
X40302518Y-66815500D01*
X40302502Y-66815499D01*
X40294906Y-66815499D01*
X40207094Y-66815499D01*
X40122271Y-66838227D01*
X40122270Y-66838227D01*
X40094439Y-66854297D01*
X40094438Y-66854298D01*
X40073303Y-66866500D01*
X40046227Y-66882132D01*
X40046224Y-66882134D01*
X39984131Y-66944228D01*
X39498179Y-67430181D01*
X39436856Y-67463666D01*
X39410498Y-67466500D01*
X35800001Y-67466500D01*
X35712188Y-67466500D01*
X35694372Y-67471274D01*
X35627369Y-67489227D01*
X35627367Y-67489227D01*
X35627367Y-67489228D01*
X35551322Y-67533132D01*
X35551319Y-67533134D01*
X35489226Y-67595228D01*
X35021571Y-68062882D01*
X34965987Y-68094975D01*
X34951975Y-68098729D01*
X34864526Y-68149219D01*
X34864523Y-68149221D01*
X34793126Y-68220618D01*
X34793124Y-68220621D01*
X34745767Y-68302646D01*
X34742635Y-68308070D01*
X34716500Y-68405606D01*
X34716500Y-68506584D01*
X34742635Y-68604120D01*
X34793124Y-68691569D01*
X34864526Y-68762971D01*
X34951975Y-68813460D01*
X35049511Y-68839595D01*
X35049514Y-68839595D01*
X35092500Y-68839595D01*
X35159539Y-68859280D01*
X35205294Y-68912084D01*
X35216500Y-68963595D01*
X35216500Y-69050489D01*
X35242635Y-69148025D01*
X35293124Y-69235474D01*
X35364526Y-69306876D01*
X35451975Y-69357365D01*
X35549511Y-69383500D01*
X35549514Y-69383500D01*
X35650486Y-69383500D01*
X35650489Y-69383500D01*
X35748025Y-69357365D01*
X35835474Y-69306876D01*
X35906876Y-69235474D01*
X35957365Y-69148025D01*
X35983500Y-69050489D01*
X35983500Y-68949511D01*
X35983500Y-68941383D01*
X35985160Y-68941383D01*
X35990270Y-68917888D01*
X35995102Y-68886884D01*
X35997872Y-68882943D01*
X35998449Y-68880293D01*
X36019600Y-68852039D01*
X36058180Y-68813460D01*
X36101822Y-68769818D01*
X36163146Y-68736334D01*
X36189503Y-68733500D01*
X36390302Y-68733500D01*
X36457341Y-68753185D01*
X36503096Y-68805989D01*
X36513040Y-68875147D01*
X36510077Y-68889593D01*
X36492234Y-68956185D01*
X36485313Y-68982013D01*
X36485313Y-69082991D01*
X36511448Y-69180527D01*
X36561937Y-69267976D01*
X36633339Y-69339378D01*
X36720788Y-69389867D01*
X36818324Y-69416002D01*
X36818327Y-69416002D01*
X36919299Y-69416002D01*
X36919302Y-69416002D01*
X37016838Y-69389867D01*
X37029397Y-69382616D01*
X37044886Y-69378465D01*
X37056464Y-69371025D01*
X37091399Y-69366002D01*
X37292500Y-69366002D01*
X37359539Y-69385687D01*
X37405294Y-69438491D01*
X37416500Y-69490002D01*
X37416500Y-69582991D01*
X37442635Y-69680527D01*
X37493124Y-69767976D01*
X37564526Y-69839378D01*
X37651975Y-69889867D01*
X37749511Y-69916002D01*
X37749514Y-69916002D01*
X37850486Y-69916002D01*
X37850489Y-69916002D01*
X37948025Y-69889867D01*
X37960584Y-69882616D01*
X38022586Y-69866002D01*
X38442500Y-69866002D01*
X38509539Y-69885687D01*
X38555294Y-69938491D01*
X38566500Y-69990002D01*
X38566500Y-70050489D01*
X38592635Y-70148025D01*
X38643124Y-70235474D01*
X38650284Y-70242634D01*
X38654781Y-70247131D01*
X38688264Y-70308455D01*
X38683278Y-70378147D01*
X38674484Y-70396810D01*
X38642636Y-70451971D01*
X38642635Y-70451975D01*
X38616500Y-70549511D01*
X38616500Y-70650489D01*
X38642635Y-70748025D01*
X38642636Y-70748028D01*
X38694582Y-70838000D01*
X38711055Y-70905900D01*
X38694582Y-70962000D01*
X38642636Y-71051971D01*
X38642635Y-71051975D01*
X38616500Y-71149511D01*
X38616500Y-71250489D01*
X38642635Y-71348025D01*
X38693124Y-71435474D01*
X38764526Y-71506876D01*
X38851975Y-71557365D01*
X38949511Y-71583500D01*
X38949514Y-71583500D01*
X39050486Y-71583500D01*
X39050489Y-71583500D01*
X39148025Y-71557365D01*
X39160584Y-71550114D01*
X39222586Y-71533500D01*
X39510498Y-71533500D01*
X39577537Y-71553185D01*
X39598179Y-71569819D01*
X39828792Y-71800432D01*
X39828802Y-71800443D01*
X39895227Y-71866868D01*
X39926088Y-71884685D01*
X39971274Y-71910773D01*
X40031555Y-71926925D01*
X40031557Y-71926925D01*
X40031558Y-71926926D01*
X40056089Y-71933499D01*
X40056093Y-71933500D01*
X40056094Y-71933500D01*
X40310498Y-71933500D01*
X40377537Y-71953185D01*
X40398179Y-71969819D01*
X40779181Y-72350821D01*
X40812666Y-72412144D01*
X40815500Y-72438502D01*
X40815500Y-72897481D01*
X40815499Y-72897499D01*
X40815499Y-72905094D01*
X40815499Y-72992906D01*
X40818606Y-73004500D01*
X40836685Y-73071975D01*
X40838227Y-73077727D01*
X40854298Y-73105561D01*
X40882133Y-73153774D01*
X40944226Y-73215867D01*
X40944228Y-73215868D01*
X40955735Y-73227375D01*
X41331181Y-73602821D01*
X41364666Y-73664144D01*
X41367500Y-73690502D01*
X41367500Y-74092500D01*
X41347815Y-74159539D01*
X41295011Y-74205294D01*
X41243500Y-74216500D01*
X41149511Y-74216500D01*
X41051975Y-74242635D01*
X41051973Y-74242635D01*
X41051973Y-74242636D01*
X40964526Y-74293124D01*
X40964523Y-74293126D01*
X40893126Y-74364523D01*
X40893124Y-74364526D01*
X40842635Y-74451975D01*
X40816500Y-74549511D01*
X40816500Y-74650489D01*
X40842635Y-74748025D01*
X40842636Y-74748027D01*
X40849886Y-74760584D01*
X40866500Y-74822586D01*
X40866500Y-76410498D01*
X40857855Y-76439938D01*
X40851332Y-76469925D01*
X40847577Y-76474940D01*
X40846815Y-76477537D01*
X40830181Y-76498179D01*
X40698179Y-76630181D01*
X40636856Y-76663666D01*
X40610498Y-76666500D01*
X37389502Y-76666500D01*
X37322463Y-76646815D01*
X37301821Y-76630181D01*
X37073937Y-76402297D01*
X37073935Y-76402294D01*
X37004775Y-76333134D01*
X37004767Y-76333128D01*
X36957097Y-76305606D01*
X36957065Y-76305588D01*
X36955654Y-76304774D01*
X36928727Y-76289227D01*
X36925166Y-76288272D01*
X36915414Y-76282979D01*
X36895064Y-76262729D01*
X36872714Y-76244718D01*
X36870609Y-76238395D01*
X36865887Y-76233696D01*
X36859715Y-76205660D01*
X36850651Y-76178424D01*
X36852298Y-76171968D01*
X36850866Y-76165460D01*
X36860831Y-76138539D01*
X36867931Y-76110725D01*
X36872808Y-76106183D01*
X36875122Y-76099935D01*
X36898060Y-76082674D01*
X36919070Y-76063115D01*
X36926337Y-76061397D01*
X36930951Y-76057926D01*
X36945625Y-76056839D01*
X36974572Y-76050000D01*
X37040000Y-76050000D01*
X37540000Y-76050000D01*
X39137828Y-76050000D01*
X39137844Y-76049999D01*
X39197372Y-76043598D01*
X39197379Y-76043596D01*
X39332086Y-75993354D01*
X39332093Y-75993350D01*
X39447187Y-75907190D01*
X39447190Y-75907187D01*
X39533350Y-75792093D01*
X39533354Y-75792086D01*
X39583596Y-75657379D01*
X39583598Y-75657372D01*
X39589999Y-75597844D01*
X39590000Y-75597827D01*
X39590000Y-74500000D01*
X37540000Y-74500000D01*
X37540000Y-76050000D01*
X37040000Y-76050000D01*
X37040000Y-74500000D01*
X34990000Y-74500000D01*
X34990000Y-75597844D01*
X34996401Y-75657372D01*
X34996403Y-75657379D01*
X35046645Y-75792086D01*
X35046649Y-75792093D01*
X35132809Y-75907187D01*
X35132812Y-75907190D01*
X35247906Y-75993350D01*
X35247913Y-75993354D01*
X35382620Y-76043596D01*
X35382627Y-76043598D01*
X35442155Y-76049999D01*
X35442172Y-76050000D01*
X35547406Y-76050000D01*
X35614445Y-76069685D01*
X35660200Y-76122489D01*
X35670144Y-76191647D01*
X35654793Y-76236001D01*
X35643110Y-76256237D01*
X35642635Y-76257059D01*
X35616500Y-76354595D01*
X35616500Y-76455573D01*
X35642635Y-76553109D01*
X35693124Y-76640558D01*
X35764526Y-76711960D01*
X35851975Y-76762449D01*
X35865984Y-76766202D01*
X35879869Y-76774219D01*
X35893318Y-76777145D01*
X35921572Y-76798296D01*
X35923708Y-76800432D01*
X35923718Y-76800443D01*
X35928048Y-76804773D01*
X35928049Y-76804774D01*
X35990142Y-76866867D01*
X36033494Y-76891896D01*
X36066189Y-76910773D01*
X36151010Y-76933501D01*
X36151012Y-76933501D01*
X36246418Y-76933501D01*
X36246434Y-76933500D01*
X36610498Y-76933500D01*
X36677537Y-76953185D01*
X36698179Y-76969819D01*
X36928792Y-77200432D01*
X36928802Y-77200443D01*
X36995227Y-77266868D01*
X37008748Y-77274674D01*
X37071274Y-77310773D01*
X37071276Y-77310773D01*
X37071277Y-77310774D01*
X37130029Y-77326516D01*
X37130031Y-77326517D01*
X37146696Y-77330982D01*
X37156093Y-77333500D01*
X37156094Y-77333500D01*
X37895497Y-77333500D01*
X37962536Y-77353185D01*
X38008291Y-77405989D01*
X38018235Y-77475147D01*
X37989210Y-77538703D01*
X37983178Y-77545181D01*
X37721571Y-77806787D01*
X37665987Y-77838880D01*
X37651975Y-77842634D01*
X37564526Y-77893124D01*
X37564523Y-77893126D01*
X37493126Y-77964523D01*
X37493124Y-77964526D01*
X37444916Y-78048025D01*
X37442635Y-78051975D01*
X37416500Y-78149511D01*
X37416500Y-78250489D01*
X37442635Y-78348025D01*
X37493124Y-78435474D01*
X37564526Y-78506876D01*
X37651975Y-78557365D01*
X37749511Y-78583500D01*
X37749514Y-78583500D01*
X37850486Y-78583500D01*
X37850489Y-78583500D01*
X37948025Y-78557365D01*
X38035474Y-78506876D01*
X38106876Y-78435474D01*
X38157365Y-78348025D01*
X38161118Y-78334016D01*
X38193210Y-78278428D01*
X38501822Y-77969816D01*
X38563144Y-77936334D01*
X38589502Y-77933500D01*
X39562658Y-77933500D01*
X39629697Y-77953185D01*
X39670044Y-77995499D01*
X39693124Y-78035474D01*
X39764526Y-78106876D01*
X39851975Y-78157365D01*
X39949511Y-78183500D01*
X39949514Y-78183500D01*
X40050486Y-78183500D01*
X40050489Y-78183500D01*
X40148025Y-78157365D01*
X40235474Y-78106876D01*
X40306876Y-78035474D01*
X40357365Y-77948025D01*
X40383500Y-77850489D01*
X40383500Y-77749511D01*
X40357365Y-77651975D01*
X40306876Y-77564526D01*
X40287531Y-77545181D01*
X40254046Y-77483858D01*
X40259030Y-77414166D01*
X40300902Y-77358233D01*
X40366366Y-77333816D01*
X40375212Y-77333500D01*
X40756090Y-77333500D01*
X40756094Y-77333501D01*
X40843906Y-77333501D01*
X40919329Y-77313291D01*
X40928501Y-77312249D01*
X40954188Y-77316723D01*
X40980255Y-77317344D01*
X40988053Y-77322622D01*
X40997335Y-77324239D01*
X41016529Y-77341894D01*
X41038118Y-77356506D01*
X41041825Y-77365162D01*
X41048758Y-77371540D01*
X41055358Y-77396764D01*
X41065623Y-77420734D01*
X41066500Y-77435456D01*
X41066500Y-78410497D01*
X41046815Y-78477536D01*
X41030181Y-78498178D01*
X40621571Y-78906787D01*
X40565987Y-78938880D01*
X40551975Y-78942634D01*
X40464526Y-78993124D01*
X40464523Y-78993126D01*
X40393126Y-79064523D01*
X40393124Y-79064526D01*
X40344058Y-79149511D01*
X40342635Y-79151975D01*
X40316500Y-79249511D01*
X40316500Y-79350489D01*
X40342635Y-79448025D01*
X40393124Y-79535474D01*
X40464526Y-79606876D01*
X40551975Y-79657365D01*
X40649511Y-79683500D01*
X40649514Y-79683500D01*
X40750486Y-79683500D01*
X40750489Y-79683500D01*
X40848025Y-79657365D01*
X40935474Y-79606876D01*
X41006876Y-79535474D01*
X41057365Y-79448025D01*
X41061118Y-79434016D01*
X41093211Y-79378427D01*
X41553819Y-78917820D01*
X41573255Y-78907207D01*
X41589989Y-78892707D01*
X41603320Y-78890790D01*
X41615142Y-78884335D01*
X41637228Y-78885914D01*
X41659147Y-78882763D01*
X41671398Y-78888358D01*
X41684834Y-78889319D01*
X41702560Y-78902589D01*
X41722703Y-78911788D01*
X41729985Y-78923119D01*
X41740767Y-78931191D01*
X41748504Y-78951936D01*
X41760477Y-78970566D01*
X41763628Y-78992484D01*
X41765184Y-78996655D01*
X41765500Y-79005501D01*
X41765500Y-79047481D01*
X41765499Y-79047499D01*
X41765499Y-79055094D01*
X41765499Y-79142906D01*
X41788227Y-79227727D01*
X41800804Y-79249511D01*
X41802278Y-79252064D01*
X41821442Y-79285257D01*
X41833828Y-79315160D01*
X41842634Y-79348024D01*
X41863973Y-79384984D01*
X41893124Y-79435474D01*
X41964526Y-79506876D01*
X42051975Y-79557365D01*
X42149511Y-79583500D01*
X42149514Y-79583500D01*
X42250486Y-79583500D01*
X42250489Y-79583500D01*
X42348025Y-79557365D01*
X42435474Y-79506876D01*
X42506876Y-79435474D01*
X42557365Y-79348025D01*
X42583500Y-79250489D01*
X42583500Y-79149511D01*
X42557365Y-79051975D01*
X42506876Y-78964526D01*
X42488030Y-78945680D01*
X42468818Y-78926467D01*
X42435333Y-78865144D01*
X42432500Y-78838787D01*
X42432500Y-77330982D01*
X42452185Y-77263943D01*
X42462001Y-77251761D01*
X42461920Y-77251699D01*
X42466861Y-77245258D01*
X42466867Y-77245253D01*
X42510773Y-77169205D01*
X42533501Y-77084385D01*
X42533501Y-76996572D01*
X42533501Y-76988977D01*
X42533500Y-76988959D01*
X42533500Y-75272011D01*
X43044000Y-75272011D01*
X43044000Y-75372989D01*
X43070135Y-75470525D01*
X43120624Y-75557974D01*
X43192026Y-75629376D01*
X43279475Y-75679865D01*
X43377011Y-75706000D01*
X43377014Y-75706000D01*
X43477986Y-75706000D01*
X43477989Y-75706000D01*
X43575525Y-75679865D01*
X43662974Y-75629376D01*
X43734376Y-75557974D01*
X43784865Y-75470525D01*
X43811000Y-75372989D01*
X43811000Y-75272011D01*
X43784865Y-75174475D01*
X43770452Y-75149511D01*
X45516500Y-75149511D01*
X45516500Y-75250489D01*
X45542635Y-75348025D01*
X45593124Y-75435474D01*
X45664526Y-75506876D01*
X45751975Y-75557365D01*
X45849511Y-75583500D01*
X45849514Y-75583500D01*
X45950486Y-75583500D01*
X45950489Y-75583500D01*
X46048025Y-75557365D01*
X46135474Y-75506876D01*
X46206876Y-75435474D01*
X46257365Y-75348025D01*
X46283500Y-75250489D01*
X46283500Y-75149511D01*
X46257365Y-75051975D01*
X46256225Y-75050000D01*
X47578331Y-75050000D01*
X47581043Y-75079844D01*
X47628724Y-75232859D01*
X47628726Y-75232863D01*
X47711639Y-75370019D01*
X47711642Y-75370023D01*
X47824976Y-75483357D01*
X47824980Y-75483360D01*
X47962136Y-75566273D01*
X47962140Y-75566275D01*
X48115157Y-75613956D01*
X48115156Y-75613956D01*
X48181663Y-75620000D01*
X48207500Y-75620000D01*
X48207500Y-75050000D01*
X47578331Y-75050000D01*
X46256225Y-75050000D01*
X46206876Y-74964526D01*
X46135474Y-74893124D01*
X46048025Y-74842635D01*
X45950489Y-74816500D01*
X45849511Y-74816500D01*
X45751975Y-74842635D01*
X45751973Y-74842635D01*
X45751973Y-74842636D01*
X45664526Y-74893124D01*
X45664523Y-74893126D01*
X45593126Y-74964523D01*
X45593124Y-74964526D01*
X45544916Y-75048025D01*
X45542635Y-75051975D01*
X45516500Y-75149511D01*
X43770452Y-75149511D01*
X43734376Y-75087026D01*
X43662974Y-75015624D01*
X43575525Y-74965135D01*
X43477989Y-74939000D01*
X43377011Y-74939000D01*
X43279475Y-74965135D01*
X43279473Y-74965135D01*
X43279473Y-74965136D01*
X43192026Y-75015624D01*
X43192023Y-75015626D01*
X43120626Y-75087023D01*
X43120624Y-75087026D01*
X43090706Y-75138846D01*
X43070135Y-75174475D01*
X43044000Y-75272011D01*
X42533500Y-75272011D01*
X42533500Y-74550000D01*
X47578331Y-74550000D01*
X48207500Y-74550000D01*
X48207500Y-74050000D01*
X47578331Y-74050000D01*
X47581043Y-74079844D01*
X47628724Y-74232859D01*
X47630536Y-74235856D01*
X47631191Y-74238341D01*
X47631804Y-74239701D01*
X47631577Y-74239802D01*
X47648368Y-74303412D01*
X47631681Y-74360243D01*
X47631804Y-74360299D01*
X47631404Y-74361187D01*
X47630536Y-74364144D01*
X47628724Y-74367140D01*
X47581043Y-74520155D01*
X47578331Y-74550000D01*
X42533500Y-74550000D01*
X42533500Y-73256096D01*
X42533499Y-73256092D01*
X42532823Y-73253570D01*
X42523703Y-73219531D01*
X42510773Y-73171273D01*
X42494238Y-73142635D01*
X42466867Y-73095226D01*
X42404774Y-73033133D01*
X42404773Y-73033132D01*
X42400443Y-73028802D01*
X42400432Y-73028792D01*
X41969819Y-72598179D01*
X41955115Y-72571251D01*
X41938523Y-72545433D01*
X41937631Y-72539232D01*
X41936334Y-72536856D01*
X41933500Y-72510498D01*
X41933500Y-72287219D01*
X41953185Y-72220180D01*
X42005989Y-72174425D01*
X42075147Y-72164481D01*
X42089573Y-72167439D01*
X42149511Y-72183500D01*
X42149515Y-72183500D01*
X42250486Y-72183500D01*
X42250489Y-72183500D01*
X42348025Y-72157365D01*
X42435474Y-72106876D01*
X42506876Y-72035474D01*
X42557365Y-71948025D01*
X42583500Y-71850489D01*
X42583500Y-71749511D01*
X42557365Y-71651975D01*
X42506876Y-71564526D01*
X42435474Y-71493124D01*
X42348025Y-71442635D01*
X42250489Y-71416500D01*
X42149511Y-71416500D01*
X42051975Y-71442635D01*
X42051973Y-71442635D01*
X42051973Y-71442636D01*
X41964526Y-71493124D01*
X41964523Y-71493126D01*
X41893126Y-71564523D01*
X41893121Y-71564529D01*
X41879868Y-71587484D01*
X41829299Y-71635698D01*
X41760691Y-71648918D01*
X41695828Y-71622948D01*
X41684802Y-71613161D01*
X41378790Y-71307149D01*
X41059956Y-70988316D01*
X41043778Y-70958688D01*
X41027007Y-70929346D01*
X41027072Y-70928093D01*
X41026472Y-70926994D01*
X41028880Y-70893321D01*
X41030635Y-70859571D01*
X41031366Y-70858553D01*
X41031456Y-70857303D01*
X41051704Y-70830254D01*
X41071411Y-70802833D01*
X41072718Y-70802182D01*
X41073327Y-70801369D01*
X41102053Y-70785319D01*
X41108666Y-70782704D01*
X41186052Y-70761969D01*
X41232264Y-70735288D01*
X41262099Y-70718063D01*
X41324192Y-70655970D01*
X41324192Y-70655968D01*
X41334393Y-70645768D01*
X41334396Y-70645763D01*
X41666867Y-70313295D01*
X41710773Y-70237247D01*
X41733501Y-70152427D01*
X41733501Y-70064614D01*
X41733501Y-70057019D01*
X41733500Y-70057001D01*
X41733500Y-69457500D01*
X41753185Y-69390461D01*
X41805989Y-69344706D01*
X41857500Y-69333500D01*
X42948482Y-69333500D01*
X42948498Y-69333501D01*
X42956094Y-69333501D01*
X43043904Y-69333501D01*
X43043906Y-69333501D01*
X43128727Y-69310773D01*
X43181214Y-69280469D01*
X43204774Y-69266867D01*
X43266867Y-69204774D01*
X43266868Y-69204771D01*
X43501822Y-68969816D01*
X43563144Y-68936334D01*
X43589502Y-68933500D01*
X44112781Y-68933500D01*
X44179820Y-68953185D01*
X44225575Y-69005989D01*
X44235519Y-69075147D01*
X44232560Y-69089573D01*
X44216500Y-69149511D01*
X44216500Y-69250489D01*
X44242635Y-69348025D01*
X44293124Y-69435474D01*
X44364526Y-69506876D01*
X44451975Y-69557365D01*
X44549511Y-69583500D01*
X44549514Y-69583500D01*
X44650486Y-69583500D01*
X44650489Y-69583500D01*
X44748025Y-69557365D01*
X44835474Y-69506876D01*
X44906876Y-69435474D01*
X44957365Y-69348025D01*
X44983500Y-69250489D01*
X44983500Y-69149511D01*
X44967444Y-69089590D01*
X44969107Y-69019745D01*
X45008269Y-68961882D01*
X45072497Y-68934377D01*
X45087219Y-68933500D01*
X45410498Y-68933500D01*
X45477537Y-68953185D01*
X45498179Y-68969819D01*
X47230181Y-70701821D01*
X47263666Y-70763144D01*
X47266500Y-70789502D01*
X47266500Y-71957002D01*
X47266499Y-71957020D01*
X47266499Y-71964615D01*
X47266499Y-72052427D01*
X47271737Y-72071975D01*
X47288963Y-72136265D01*
X47289227Y-72137248D01*
X47298985Y-72154149D01*
X47333133Y-72213295D01*
X47395226Y-72275388D01*
X47395228Y-72275389D01*
X47407183Y-72287344D01*
X47969526Y-72849687D01*
X48003011Y-72911010D01*
X47998027Y-72980702D01*
X47956155Y-73036635D01*
X47945994Y-73043485D01*
X47824980Y-73116639D01*
X47824976Y-73116642D01*
X47711642Y-73229976D01*
X47711639Y-73229980D01*
X47628726Y-73367136D01*
X47628724Y-73367140D01*
X47581043Y-73520155D01*
X47578331Y-73550000D01*
X48333500Y-73550000D01*
X48400539Y-73569685D01*
X48446294Y-73622489D01*
X48457500Y-73674000D01*
X48457500Y-73800000D01*
X48583500Y-73800000D01*
X48650539Y-73819685D01*
X48696294Y-73872489D01*
X48707500Y-73924000D01*
X48707500Y-75620000D01*
X48733337Y-75620000D01*
X48799843Y-75613956D01*
X48952859Y-75566275D01*
X48952863Y-75566273D01*
X49090019Y-75483360D01*
X49090023Y-75483357D01*
X49208661Y-75364720D01*
X49209748Y-75365807D01*
X49259559Y-75330195D01*
X49318215Y-75324593D01*
X49345029Y-75328500D01*
X49859970Y-75328499D01*
X49931600Y-75318064D01*
X50042087Y-75264050D01*
X50077126Y-75229011D01*
X50136316Y-75169822D01*
X50139812Y-75173318D01*
X50160676Y-75150888D01*
X50187984Y-75138846D01*
X50205594Y-75133501D01*
X50243906Y-75133501D01*
X50328727Y-75110773D01*
X50369857Y-75087026D01*
X50382207Y-75079895D01*
X50382209Y-75079895D01*
X50404767Y-75066871D01*
X50404766Y-75066871D01*
X50404774Y-75066867D01*
X50466867Y-75004774D01*
X50466868Y-75004772D01*
X50478419Y-74993219D01*
X50534018Y-74961117D01*
X50548025Y-74957365D01*
X50635349Y-74906947D01*
X50703245Y-74890476D01*
X50769272Y-74913328D01*
X50800447Y-74945444D01*
X50822120Y-74977880D01*
X50911761Y-75037776D01*
X50911764Y-75037776D01*
X50911765Y-75037777D01*
X50959191Y-75047211D01*
X51021102Y-75079595D01*
X51055676Y-75140311D01*
X51059000Y-75168828D01*
X51059000Y-75470842D01*
X51039315Y-75537881D01*
X50986511Y-75583636D01*
X50917353Y-75593580D01*
X50853797Y-75564555D01*
X50847319Y-75558523D01*
X50781922Y-75493126D01*
X50781920Y-75493124D01*
X50694471Y-75442635D01*
X50596935Y-75416500D01*
X50495957Y-75416500D01*
X50398421Y-75442635D01*
X50398419Y-75442635D01*
X50398419Y-75442636D01*
X50310972Y-75493124D01*
X50310969Y-75493126D01*
X50239572Y-75564523D01*
X50239570Y-75564526D01*
X50199826Y-75633365D01*
X50189081Y-75651975D01*
X50162946Y-75749511D01*
X50162946Y-75850489D01*
X50189081Y-75948025D01*
X50189082Y-75948027D01*
X50196332Y-75960584D01*
X50212946Y-76022586D01*
X50212946Y-76826240D01*
X50204301Y-76855679D01*
X50197779Y-76885665D01*
X50194023Y-76890681D01*
X50193261Y-76893279D01*
X50176629Y-76913920D01*
X50144228Y-76946321D01*
X50144226Y-76946323D01*
X50126026Y-76964523D01*
X50082132Y-77008416D01*
X50078912Y-77013995D01*
X50069444Y-77030395D01*
X50047502Y-77068399D01*
X50038227Y-77084463D01*
X50015499Y-77169284D01*
X50015499Y-77267085D01*
X50015500Y-77267098D01*
X50015500Y-78711497D01*
X49995815Y-78778536D01*
X49979185Y-78799173D01*
X49898380Y-78879979D01*
X49819544Y-78958815D01*
X49758221Y-78992299D01*
X49688529Y-78987315D01*
X49632596Y-78945443D01*
X49608179Y-78879979D01*
X49623031Y-78811706D01*
X49624446Y-78809185D01*
X49651121Y-78762984D01*
X49677256Y-78665448D01*
X49677256Y-78564470D01*
X49651121Y-78466934D01*
X49600632Y-78379485D01*
X49529230Y-78308083D01*
X49441781Y-78257594D01*
X49344245Y-78231459D01*
X49243267Y-78231459D01*
X49153726Y-78255451D01*
X49145727Y-78257595D01*
X49089923Y-78289814D01*
X49022023Y-78306287D01*
X48965923Y-78289814D01*
X48884209Y-78242636D01*
X48884210Y-78242636D01*
X48848744Y-78233133D01*
X48786670Y-78216500D01*
X48685692Y-78216500D01*
X48588156Y-78242635D01*
X48588154Y-78242635D01*
X48588154Y-78242636D01*
X48500707Y-78293124D01*
X48500704Y-78293126D01*
X48429307Y-78364523D01*
X48429305Y-78364526D01*
X48380239Y-78449511D01*
X48378816Y-78451975D01*
X48352681Y-78549511D01*
X48352681Y-78650489D01*
X48378816Y-78748025D01*
X48378817Y-78748027D01*
X48386067Y-78760584D01*
X48390217Y-78776073D01*
X48397658Y-78787651D01*
X48402681Y-78822586D01*
X48402681Y-78824316D01*
X48382996Y-78891355D01*
X48366362Y-78911997D01*
X46898179Y-80380181D01*
X46836856Y-80413666D01*
X46810498Y-80416500D01*
X34222586Y-80416500D01*
X34160584Y-80399886D01*
X34148027Y-80392636D01*
X34148026Y-80392635D01*
X34148025Y-80392635D01*
X34050489Y-80366500D01*
X33949511Y-80366500D01*
X33851975Y-80392635D01*
X33851973Y-80392635D01*
X33851973Y-80392636D01*
X33764526Y-80443124D01*
X33764523Y-80443126D01*
X33693126Y-80514523D01*
X33693124Y-80514526D01*
X33662967Y-80566760D01*
X33642635Y-80601975D01*
X33616500Y-80699511D01*
X33616500Y-80699513D01*
X33616500Y-80792500D01*
X33596815Y-80859539D01*
X33544011Y-80905294D01*
X33492500Y-80916500D01*
X33029687Y-80916500D01*
X32962648Y-80896815D01*
X32916893Y-80844011D01*
X32906949Y-80774853D01*
X32935974Y-80711297D01*
X32942006Y-80704819D01*
X32957916Y-80688908D01*
X32957919Y-80688905D01*
X33039538Y-80566754D01*
X33095758Y-80431027D01*
X33124418Y-80286940D01*
X33124418Y-80140030D01*
X33095758Y-79995943D01*
X33039538Y-79860216D01*
X33039537Y-79860215D01*
X33039534Y-79860209D01*
X32957919Y-79738065D01*
X32957916Y-79738061D01*
X32854041Y-79634186D01*
X32854037Y-79634183D01*
X32731893Y-79552568D01*
X32731878Y-79552560D01*
X32682146Y-79531960D01*
X32627743Y-79488119D01*
X32605679Y-79421824D01*
X32622959Y-79354125D01*
X32641915Y-79329723D01*
X32931695Y-79039943D01*
X32993016Y-79006460D01*
X33062708Y-79011444D01*
X33118641Y-79053316D01*
X33133934Y-79080172D01*
X33154534Y-79129904D01*
X33154542Y-79129919D01*
X33236157Y-79252063D01*
X33236160Y-79252067D01*
X33340035Y-79355942D01*
X33340039Y-79355945D01*
X33462183Y-79437560D01*
X33462189Y-79437563D01*
X33462190Y-79437564D01*
X33597917Y-79493784D01*
X33741999Y-79522443D01*
X33742003Y-79522444D01*
X33742004Y-79522444D01*
X33888915Y-79522444D01*
X33888916Y-79522443D01*
X34033001Y-79493784D01*
X34168728Y-79437564D01*
X34290879Y-79355945D01*
X34394760Y-79252064D01*
X34476379Y-79129913D01*
X34532599Y-78994186D01*
X34561259Y-78850099D01*
X34561259Y-78703189D01*
X34532599Y-78559102D01*
X34476379Y-78423375D01*
X34476378Y-78423374D01*
X34476375Y-78423368D01*
X34394760Y-78301224D01*
X34394757Y-78301220D01*
X34290882Y-78197345D01*
X34290878Y-78197342D01*
X34168734Y-78115727D01*
X34168725Y-78115722D01*
X34033003Y-78059505D01*
X34033004Y-78059505D01*
X34033001Y-78059504D01*
X34032997Y-78059503D01*
X34032993Y-78059502D01*
X33888918Y-78030844D01*
X33888914Y-78030844D01*
X33742004Y-78030844D01*
X33741999Y-78030844D01*
X33597924Y-78059502D01*
X33597914Y-78059505D01*
X33462184Y-78115726D01*
X33460100Y-78116840D01*
X33458884Y-78117092D01*
X33456562Y-78118055D01*
X33456379Y-78117614D01*
X33391695Y-78131074D01*
X33326454Y-78106066D01*
X33285090Y-78049756D01*
X33277659Y-78007475D01*
X33277659Y-77745342D01*
X33297344Y-77678303D01*
X33313973Y-77657666D01*
X34604771Y-76366868D01*
X34604774Y-76366867D01*
X34666867Y-76304774D01*
X34702743Y-76242635D01*
X34710773Y-76228727D01*
X34733500Y-76143906D01*
X34733500Y-76056094D01*
X34733500Y-72289502D01*
X34753185Y-72222463D01*
X34769819Y-72201821D01*
X35101821Y-71869819D01*
X35163144Y-71836334D01*
X35189502Y-71833500D01*
X35810498Y-71833500D01*
X35877537Y-71853185D01*
X35898179Y-71869819D01*
X36266679Y-72238319D01*
X36300164Y-72299642D01*
X36295180Y-72369334D01*
X36253308Y-72425267D01*
X36187844Y-72449684D01*
X36178998Y-72450000D01*
X35442155Y-72450000D01*
X35382627Y-72456401D01*
X35382620Y-72456403D01*
X35247913Y-72506645D01*
X35247906Y-72506649D01*
X35132812Y-72592809D01*
X35132809Y-72592812D01*
X35046649Y-72707906D01*
X35046645Y-72707913D01*
X34996403Y-72842620D01*
X34996401Y-72842627D01*
X34990000Y-72902155D01*
X34990000Y-74000000D01*
X39590000Y-74000000D01*
X39590000Y-73842251D01*
X39609685Y-73775212D01*
X39651998Y-73734864D01*
X39700476Y-73706876D01*
X39771878Y-73635474D01*
X39822367Y-73548025D01*
X39841825Y-73475404D01*
X39878191Y-73415746D01*
X39941038Y-73385217D01*
X39961600Y-73383500D01*
X40050486Y-73383500D01*
X40050489Y-73383500D01*
X40148025Y-73357365D01*
X40235474Y-73306876D01*
X40306876Y-73235474D01*
X40357365Y-73148025D01*
X40383500Y-73050489D01*
X40383500Y-72949511D01*
X40357365Y-72851975D01*
X40306876Y-72764526D01*
X40235474Y-72693124D01*
X40148025Y-72642635D01*
X40050489Y-72616500D01*
X39949511Y-72616500D01*
X39880949Y-72634871D01*
X39851970Y-72642636D01*
X39851969Y-72642637D01*
X39847073Y-72645464D01*
X39820017Y-72652026D01*
X39793928Y-72661758D01*
X39786529Y-72660148D01*
X39779173Y-72661933D01*
X39752864Y-72652826D01*
X39725655Y-72646908D01*
X39716956Y-72640396D01*
X39713147Y-72639078D01*
X39697400Y-72625758D01*
X39675141Y-72603500D01*
X39669776Y-72598135D01*
X39669773Y-72598133D01*
X39273937Y-72202297D01*
X39273935Y-72202294D01*
X39204776Y-72133135D01*
X39204774Y-72133133D01*
X39132272Y-72091274D01*
X39128727Y-72089227D01*
X39128724Y-72089226D01*
X39064342Y-72071975D01*
X39043906Y-72066499D01*
X38956094Y-72066499D01*
X38948498Y-72066499D01*
X38948482Y-72066500D01*
X37089502Y-72066500D01*
X37022463Y-72046815D01*
X37001821Y-72030181D01*
X36278789Y-71307149D01*
X36266868Y-71295228D01*
X36266867Y-71295226D01*
X36204774Y-71233133D01*
X36146539Y-71199511D01*
X36128727Y-71189227D01*
X36043906Y-71166499D01*
X35956094Y-71166499D01*
X35948498Y-71166499D01*
X35948482Y-71166500D01*
X34956092Y-71166500D01*
X34871272Y-71189227D01*
X34853461Y-71199511D01*
X34795226Y-71233133D01*
X34795223Y-71233135D01*
X34133134Y-71895224D01*
X34133130Y-71895229D01*
X34116472Y-71924083D01*
X34065905Y-71972299D01*
X33997298Y-71985522D01*
X33932433Y-71959554D01*
X33921404Y-71949764D01*
X32526637Y-70554997D01*
X32516868Y-70545228D01*
X32516867Y-70545226D01*
X32454774Y-70483133D01*
X32427549Y-70467415D01*
X32418212Y-70459162D01*
X32405977Y-70439705D01*
X32390117Y-70423072D01*
X32387730Y-70410689D01*
X32381018Y-70400015D01*
X32381244Y-70377031D01*
X32376895Y-70354465D01*
X32381580Y-70342759D01*
X32381705Y-70330149D01*
X32394321Y-70310935D01*
X32402863Y-70289600D01*
X32413748Y-70281351D01*
X32420056Y-70271745D01*
X32435476Y-70264885D01*
X32447555Y-70255731D01*
X32447236Y-70255179D01*
X32451641Y-70252635D01*
X32452893Y-70251687D01*
X32454270Y-70251116D01*
X32454275Y-70251115D01*
X32541724Y-70200626D01*
X32613126Y-70129224D01*
X32663615Y-70041775D01*
X32689750Y-69944239D01*
X32689750Y-69843261D01*
X32663615Y-69745725D01*
X32613126Y-69658276D01*
X32541724Y-69586874D01*
X32454275Y-69536385D01*
X32356739Y-69510250D01*
X32255761Y-69510250D01*
X32158225Y-69536385D01*
X32158223Y-69536385D01*
X32158223Y-69536386D01*
X32070776Y-69586874D01*
X32070773Y-69586876D01*
X31999376Y-69658273D01*
X31999374Y-69658276D01*
X31961929Y-69723133D01*
X31948885Y-69745725D01*
X31922750Y-69843261D01*
X31922750Y-69944239D01*
X31948885Y-70041775D01*
X31999374Y-70129224D01*
X31999376Y-70129226D01*
X32074969Y-70204819D01*
X32108454Y-70266142D01*
X32103470Y-70335834D01*
X32061598Y-70391767D01*
X31996134Y-70416184D01*
X31987288Y-70416500D01*
X31472586Y-70416500D01*
X31410584Y-70399886D01*
X31398027Y-70392636D01*
X31398026Y-70392635D01*
X31398025Y-70392635D01*
X31300489Y-70366500D01*
X31199511Y-70366500D01*
X31101975Y-70392635D01*
X31101973Y-70392635D01*
X31101973Y-70392636D01*
X31014526Y-70443124D01*
X31014523Y-70443126D01*
X30943126Y-70514523D01*
X30943124Y-70514526D01*
X30919125Y-70556094D01*
X30892635Y-70601975D01*
X30866500Y-70699511D01*
X30866500Y-70800489D01*
X30892635Y-70898025D01*
X30943124Y-70985474D01*
X31014526Y-71056876D01*
X31054994Y-71080240D01*
X31103209Y-71130807D01*
X31114885Y-71191384D01*
X31116500Y-71191384D01*
X31116500Y-71199511D01*
X31116500Y-71300489D01*
X31142635Y-71398025D01*
X31193124Y-71485474D01*
X31264526Y-71556876D01*
X31304994Y-71580240D01*
X31353209Y-71630807D01*
X31364885Y-71691384D01*
X31366500Y-71691384D01*
X31366500Y-71699511D01*
X31366500Y-71800489D01*
X31391885Y-71895226D01*
X31392636Y-71898027D01*
X31399886Y-71910584D01*
X31416500Y-71972586D01*
X31416500Y-73698481D01*
X31416499Y-73698499D01*
X31416499Y-73706094D01*
X31416499Y-73793906D01*
X31421956Y-73814273D01*
X31438928Y-73877613D01*
X31439227Y-73878727D01*
X31441983Y-73883500D01*
X31483133Y-73954774D01*
X31545226Y-74016867D01*
X31545228Y-74016868D01*
X31557623Y-74029263D01*
X32081181Y-74552821D01*
X32114666Y-74614144D01*
X32117500Y-74640502D01*
X32117500Y-75609497D01*
X32097815Y-75676536D01*
X32081181Y-75697178D01*
X29483134Y-78295224D01*
X29483132Y-78295226D01*
X29474234Y-78310639D01*
X29455298Y-78343438D01*
X29450371Y-78351972D01*
X29439226Y-78371273D01*
X29416499Y-78456094D01*
X27581998Y-78456094D01*
X27583500Y-78450489D01*
X27583500Y-78407500D01*
X27603185Y-78340461D01*
X27655989Y-78294706D01*
X27707500Y-78283500D01*
X27750486Y-78283500D01*
X27750489Y-78283500D01*
X27848025Y-78257365D01*
X27935474Y-78206876D01*
X28006876Y-78135474D01*
X28057365Y-78048025D01*
X28083500Y-77950489D01*
X28083500Y-77849511D01*
X28057365Y-77751975D01*
X28006876Y-77664526D01*
X27935474Y-77593124D01*
X27848025Y-77542635D01*
X27750489Y-77516500D01*
X27649511Y-77516500D01*
X27551975Y-77542635D01*
X27551973Y-77542635D01*
X27551973Y-77542636D01*
X27464526Y-77593124D01*
X27464523Y-77593126D01*
X27393126Y-77664523D01*
X27393124Y-77664526D01*
X27344058Y-77749511D01*
X27342635Y-77751975D01*
X27316500Y-77849511D01*
X27316500Y-77849513D01*
X27316500Y-77892500D01*
X27296815Y-77959539D01*
X27244011Y-78005294D01*
X27192500Y-78016500D01*
X27149511Y-78016500D01*
X27051975Y-78042635D01*
X27051973Y-78042635D01*
X27051973Y-78042636D01*
X26964526Y-78093124D01*
X26964523Y-78093126D01*
X26893126Y-78164523D01*
X26893124Y-78164526D01*
X26842635Y-78251975D01*
X26816500Y-78349511D01*
X24105942Y-78349511D01*
X24095592Y-78331583D01*
X24092253Y-78323174D01*
X24090399Y-78303162D01*
X24083500Y-78277413D01*
X24083500Y-76460000D01*
X24504138Y-76460000D01*
X25307012Y-76460000D01*
X25289795Y-76469940D01*
X25233940Y-76525795D01*
X25194444Y-76594204D01*
X25174000Y-76670504D01*
X25174000Y-76749496D01*
X25194444Y-76825796D01*
X25233940Y-76894205D01*
X25289795Y-76950060D01*
X25307012Y-76960000D01*
X24504138Y-76960000D01*
X24512430Y-77001690D01*
X24512430Y-77001692D01*
X24587807Y-77183671D01*
X24587814Y-77183684D01*
X24697248Y-77347462D01*
X24697251Y-77347466D01*
X24836533Y-77486748D01*
X24836537Y-77486751D01*
X25000315Y-77596185D01*
X25000328Y-77596192D01*
X25182306Y-77671569D01*
X25182318Y-77671572D01*
X25375504Y-77709999D01*
X25375508Y-77710000D01*
X25774000Y-77710000D01*
X25774000Y-77010000D01*
X26274000Y-77010000D01*
X26274000Y-77710000D01*
X26672492Y-77710000D01*
X26672495Y-77709999D01*
X26865681Y-77671572D01*
X26865693Y-77671569D01*
X27047671Y-77596192D01*
X27047684Y-77596185D01*
X27211462Y-77486751D01*
X27211466Y-77486748D01*
X27350748Y-77347466D01*
X27350751Y-77347462D01*
X27460185Y-77183684D01*
X27460192Y-77183671D01*
X27535569Y-77001692D01*
X27535569Y-77001690D01*
X27543862Y-76960000D01*
X26740988Y-76960000D01*
X26758205Y-76950060D01*
X26814060Y-76894205D01*
X26853556Y-76825796D01*
X26874000Y-76749496D01*
X26874000Y-76670504D01*
X26853556Y-76594204D01*
X26814060Y-76525795D01*
X26758205Y-76469940D01*
X26740988Y-76460000D01*
X27543862Y-76460000D01*
X27535569Y-76418309D01*
X27535569Y-76418307D01*
X27460192Y-76236328D01*
X27460185Y-76236315D01*
X27350751Y-76072537D01*
X27350748Y-76072533D01*
X27211465Y-75933250D01*
X27201389Y-75926518D01*
X27201388Y-75926517D01*
X27056203Y-75829506D01*
X28759136Y-75829506D01*
X28759136Y-75976421D01*
X28787794Y-76120496D01*
X28787797Y-76120506D01*
X28844014Y-76256228D01*
X28844019Y-76256237D01*
X28925634Y-76378381D01*
X28925637Y-76378385D01*
X29029512Y-76482260D01*
X29029516Y-76482263D01*
X29151660Y-76563878D01*
X29151669Y-76563883D01*
X29186383Y-76578262D01*
X29240786Y-76622103D01*
X29262851Y-76688397D01*
X29245572Y-76756096D01*
X29194435Y-76803707D01*
X29155118Y-76815762D01*
X29149513Y-76816499D01*
X29114818Y-76825796D01*
X29051975Y-76842635D01*
X29051973Y-76842635D01*
X29051973Y-76842636D01*
X28964526Y-76893124D01*
X28964523Y-76893126D01*
X28893126Y-76964523D01*
X28893124Y-76964526D01*
X28861493Y-77019313D01*
X28842635Y-77051975D01*
X28816500Y-77149511D01*
X28816500Y-77250489D01*
X28842635Y-77348025D01*
X28893124Y-77435474D01*
X28964526Y-77506876D01*
X29051975Y-77557365D01*
X29149511Y-77583500D01*
X29149514Y-77583500D01*
X29250486Y-77583500D01*
X29250489Y-77583500D01*
X29348025Y-77557365D01*
X29435474Y-77506876D01*
X29506876Y-77435474D01*
X29557365Y-77348025D01*
X29583500Y-77250489D01*
X29583500Y-77149511D01*
X29557365Y-77051975D01*
X29506876Y-76964526D01*
X29435474Y-76893124D01*
X29412999Y-76880148D01*
X29364785Y-76829581D01*
X29351563Y-76760974D01*
X29377531Y-76696110D01*
X29434445Y-76655582D01*
X29475001Y-76648762D01*
X29578392Y-76648762D01*
X29578393Y-76648761D01*
X29722478Y-76620102D01*
X29858205Y-76563882D01*
X29980356Y-76482263D01*
X30084237Y-76378382D01*
X30165856Y-76256231D01*
X30222076Y-76120504D01*
X30250736Y-75976417D01*
X30250736Y-75829507D01*
X30250736Y-75829506D01*
X30250735Y-75829499D01*
X30226344Y-75706876D01*
X30222076Y-75685420D01*
X30174489Y-75570534D01*
X30165857Y-75549695D01*
X30165852Y-75549686D01*
X30084237Y-75427542D01*
X30084234Y-75427538D01*
X29980359Y-75323663D01*
X29980355Y-75323660D01*
X29858211Y-75242045D01*
X29858202Y-75242040D01*
X29722480Y-75185823D01*
X29722481Y-75185823D01*
X29722478Y-75185822D01*
X29722474Y-75185821D01*
X29722470Y-75185820D01*
X29578395Y-75157162D01*
X29578391Y-75157162D01*
X29431481Y-75157162D01*
X29431476Y-75157162D01*
X29287401Y-75185820D01*
X29287391Y-75185823D01*
X29151669Y-75242040D01*
X29151660Y-75242045D01*
X29029516Y-75323660D01*
X29029512Y-75323663D01*
X28925637Y-75427538D01*
X28925634Y-75427542D01*
X28844019Y-75549686D01*
X28844014Y-75549695D01*
X28787797Y-75685417D01*
X28787794Y-75685427D01*
X28759137Y-75829499D01*
X28759136Y-75829506D01*
X27056203Y-75829506D01*
X27047684Y-75823814D01*
X27047671Y-75823807D01*
X26865693Y-75748430D01*
X26865681Y-75748427D01*
X26672495Y-75710000D01*
X26274000Y-75710000D01*
X26274000Y-76410000D01*
X25774000Y-76410000D01*
X25774000Y-75871784D01*
X25793685Y-75804745D01*
X25836000Y-75764397D01*
X25877365Y-75740515D01*
X25984515Y-75633365D01*
X25991496Y-75621274D01*
X26005721Y-75596637D01*
X26057544Y-75506875D01*
X26060281Y-75502135D01*
X26099500Y-75355766D01*
X26099500Y-75204234D01*
X26060281Y-75057865D01*
X25984515Y-74926635D01*
X25877365Y-74819485D01*
X25786187Y-74766843D01*
X25746136Y-74743719D01*
X25644189Y-74716403D01*
X25599766Y-74704500D01*
X25448234Y-74704500D01*
X25301863Y-74743719D01*
X25170635Y-74819485D01*
X25170632Y-74819487D01*
X25063487Y-74926632D01*
X25063485Y-74926635D01*
X24987719Y-75057863D01*
X24953434Y-75185820D01*
X24948500Y-75204234D01*
X24948500Y-75355766D01*
X24952319Y-75370019D01*
X24987719Y-75502136D01*
X25015073Y-75549513D01*
X25063485Y-75633365D01*
X25063486Y-75633366D01*
X25067549Y-75640403D01*
X25065346Y-75641674D01*
X25085959Y-75694983D01*
X25071923Y-75763428D01*
X25023112Y-75813420D01*
X25009845Y-75819866D01*
X25000324Y-75823809D01*
X25000315Y-75823814D01*
X24836537Y-75933248D01*
X24836533Y-75933251D01*
X24697251Y-76072533D01*
X24697248Y-76072537D01*
X24587814Y-76236315D01*
X24587807Y-76236328D01*
X24512430Y-76418307D01*
X24512430Y-76418309D01*
X24504138Y-76460000D01*
X24083500Y-76460000D01*
X24083500Y-75706093D01*
X24079557Y-75691379D01*
X24079556Y-75691376D01*
X24068999Y-75651975D01*
X24068601Y-75650489D01*
X24060773Y-75621274D01*
X24031480Y-75570536D01*
X24016868Y-75545227D01*
X23950443Y-75478802D01*
X23950432Y-75478792D01*
X23544818Y-75073178D01*
X23511333Y-75011855D01*
X23508499Y-74985497D01*
X23508499Y-72929465D01*
X23507120Y-72922531D01*
X23496403Y-72868647D01*
X23474923Y-72836500D01*
X23450320Y-72799679D01*
X23381352Y-72753596D01*
X23381351Y-72753595D01*
X23320541Y-72741500D01*
X23320537Y-72741500D01*
X21957500Y-72741500D01*
X21890461Y-72721815D01*
X21844706Y-72669011D01*
X21833500Y-72617500D01*
X21833500Y-71646065D01*
X27688001Y-71646065D01*
X27688001Y-71747043D01*
X27714136Y-71844579D01*
X27714137Y-71844581D01*
X27721387Y-71857138D01*
X27738001Y-71919140D01*
X27738001Y-73376980D01*
X27738000Y-73376998D01*
X27738000Y-73472404D01*
X27759729Y-73553500D01*
X27760728Y-73557226D01*
X27776799Y-73585060D01*
X27804634Y-73633273D01*
X27866727Y-73695366D01*
X27866728Y-73695366D01*
X27906220Y-73734859D01*
X27938228Y-73766867D01*
X27938229Y-73766868D01*
X28014272Y-73810771D01*
X28014273Y-73810771D01*
X28014276Y-73810773D01*
X28014278Y-73810773D01*
X28021784Y-73813883D01*
X28021643Y-73814221D01*
X28041471Y-73822433D01*
X28101975Y-73857365D01*
X28199511Y-73883500D01*
X28199514Y-73883500D01*
X28300486Y-73883500D01*
X28300489Y-73883500D01*
X28398025Y-73857365D01*
X28485474Y-73806876D01*
X28556876Y-73735474D01*
X28607365Y-73648025D01*
X28633500Y-73550489D01*
X28633500Y-73449511D01*
X28607365Y-73351975D01*
X28556876Y-73264526D01*
X28485474Y-73193124D01*
X28466999Y-73182457D01*
X28418784Y-73131889D01*
X28405001Y-73075071D01*
X28405001Y-71919140D01*
X28421615Y-71857138D01*
X28423137Y-71854502D01*
X28428866Y-71844579D01*
X28455001Y-71747043D01*
X28455001Y-71646065D01*
X28428866Y-71548529D01*
X28378377Y-71461080D01*
X28306975Y-71389678D01*
X28219526Y-71339189D01*
X28121990Y-71313054D01*
X28021012Y-71313054D01*
X27923476Y-71339189D01*
X27923474Y-71339189D01*
X27923474Y-71339190D01*
X27836027Y-71389678D01*
X27836024Y-71389680D01*
X27764627Y-71461077D01*
X27764625Y-71461080D01*
X27738185Y-71506876D01*
X27714136Y-71548529D01*
X27688001Y-71646065D01*
X21833500Y-71646065D01*
X21833500Y-71553908D01*
X21833501Y-71553895D01*
X21833501Y-71456096D01*
X21833501Y-71456094D01*
X21810773Y-71371273D01*
X21790538Y-71336226D01*
X21766867Y-71295226D01*
X21704774Y-71233133D01*
X21704771Y-71233131D01*
X21180331Y-70708691D01*
X21146846Y-70647368D01*
X21151830Y-70577676D01*
X21153435Y-70573596D01*
X21171666Y-70529584D01*
X21208500Y-70344404D01*
X21208500Y-70155596D01*
X21171666Y-69970416D01*
X21099412Y-69795980D01*
X21099411Y-69795979D01*
X21099408Y-69795973D01*
X20994516Y-69638992D01*
X20994513Y-69638988D01*
X20861011Y-69505486D01*
X20861007Y-69505483D01*
X20704026Y-69400591D01*
X20704017Y-69400586D01*
X20529584Y-69328334D01*
X20529576Y-69328332D01*
X20344408Y-69291500D01*
X20344404Y-69291500D01*
X20155596Y-69291500D01*
X20155591Y-69291500D01*
X19970423Y-69328332D01*
X19970415Y-69328334D01*
X19795982Y-69400586D01*
X19795973Y-69400591D01*
X19638992Y-69505483D01*
X19638988Y-69505486D01*
X19505486Y-69638988D01*
X19505483Y-69638992D01*
X19400591Y-69795973D01*
X19400586Y-69795982D01*
X19328334Y-69970415D01*
X19328332Y-69970423D01*
X19291500Y-70155591D01*
X19000500Y-70155591D01*
X19000500Y-68104427D01*
X19000816Y-68095581D01*
X19004898Y-68038503D01*
X19014900Y-67898655D01*
X19016107Y-67888138D01*
X19022941Y-67844989D01*
X19024233Y-67838106D01*
X19028172Y-67820000D01*
X20474138Y-67820000D01*
X21277012Y-67820000D01*
X21259795Y-67829940D01*
X21203940Y-67885795D01*
X21164444Y-67954204D01*
X21144000Y-68030504D01*
X21144000Y-68109496D01*
X21164444Y-68185796D01*
X21203940Y-68254205D01*
X21259795Y-68310060D01*
X21277012Y-68320000D01*
X20474138Y-68320000D01*
X20482430Y-68361690D01*
X20482430Y-68361692D01*
X20557807Y-68543671D01*
X20557814Y-68543684D01*
X20667248Y-68707462D01*
X20667251Y-68707466D01*
X20806533Y-68846748D01*
X20806537Y-68846751D01*
X20970315Y-68956185D01*
X20970328Y-68956192D01*
X21152306Y-69031569D01*
X21152318Y-69031572D01*
X21345504Y-69069999D01*
X21345508Y-69070000D01*
X21594000Y-69070000D01*
X21594000Y-68370000D01*
X22094000Y-68370000D01*
X22094000Y-69070000D01*
X22342492Y-69070000D01*
X22342495Y-69069999D01*
X22535681Y-69031572D01*
X22535693Y-69031569D01*
X22717671Y-68956192D01*
X22717684Y-68956185D01*
X22881462Y-68846751D01*
X22881466Y-68846748D01*
X23020748Y-68707466D01*
X23020751Y-68707462D01*
X23130185Y-68543684D01*
X23130192Y-68543671D01*
X23205569Y-68361692D01*
X23205569Y-68361690D01*
X23213862Y-68320000D01*
X22410988Y-68320000D01*
X22428205Y-68310060D01*
X22484060Y-68254205D01*
X22523556Y-68185796D01*
X22544000Y-68109496D01*
X22544000Y-68030504D01*
X22523556Y-67954204D01*
X22484060Y-67885795D01*
X22428205Y-67829940D01*
X22410988Y-67820000D01*
X23213862Y-67820000D01*
X24504138Y-67820000D01*
X25307012Y-67820000D01*
X25289795Y-67829940D01*
X25233940Y-67885795D01*
X25194444Y-67954204D01*
X25174000Y-68030504D01*
X25174000Y-68109496D01*
X25194444Y-68185796D01*
X25233940Y-68254205D01*
X25289795Y-68310060D01*
X25307012Y-68320000D01*
X24504138Y-68320000D01*
X24512430Y-68361690D01*
X24512430Y-68361692D01*
X24587807Y-68543671D01*
X24587814Y-68543684D01*
X24697248Y-68707462D01*
X24697251Y-68707466D01*
X24836533Y-68846748D01*
X24836537Y-68846751D01*
X25000315Y-68956185D01*
X25000328Y-68956192D01*
X25009838Y-68960131D01*
X25064243Y-69003970D01*
X25086310Y-69070264D01*
X25069033Y-69137963D01*
X25065350Y-69143405D01*
X25063485Y-69146634D01*
X25063485Y-69146635D01*
X25062682Y-69148026D01*
X24987719Y-69277863D01*
X24952959Y-69407594D01*
X24948500Y-69424234D01*
X24948500Y-69575766D01*
X24961203Y-69623175D01*
X24987719Y-69722136D01*
X25018523Y-69775489D01*
X25063485Y-69853365D01*
X25170635Y-69960515D01*
X25269015Y-70017315D01*
X25294233Y-70031875D01*
X25301865Y-70036281D01*
X25448234Y-70075500D01*
X25448236Y-70075500D01*
X25599764Y-70075500D01*
X25599766Y-70075500D01*
X25746135Y-70036281D01*
X25877365Y-69960515D01*
X25898369Y-69939511D01*
X27696500Y-69939511D01*
X27696500Y-70040489D01*
X27722635Y-70138025D01*
X27773124Y-70225474D01*
X27844526Y-70296876D01*
X27931975Y-70347365D01*
X28029511Y-70373500D01*
X28029514Y-70373500D01*
X28130486Y-70373500D01*
X28130489Y-70373500D01*
X28228025Y-70347365D01*
X28240584Y-70340114D01*
X28256073Y-70335963D01*
X28267651Y-70328523D01*
X28302586Y-70323500D01*
X28550498Y-70323500D01*
X28617537Y-70343185D01*
X28638179Y-70359819D01*
X28880181Y-70601821D01*
X28913666Y-70663144D01*
X28916500Y-70689502D01*
X28916500Y-71698481D01*
X28916499Y-71698499D01*
X28916499Y-71706094D01*
X28916499Y-71793906D01*
X28939227Y-71878727D01*
X28952793Y-71902224D01*
X28983133Y-71954774D01*
X29045226Y-72016867D01*
X29045228Y-72016868D01*
X29056921Y-72028561D01*
X29731787Y-72703427D01*
X29763880Y-72759012D01*
X29767635Y-72773025D01*
X29818124Y-72860474D01*
X29818126Y-72860476D01*
X29880181Y-72922531D01*
X29913666Y-72983854D01*
X29916500Y-73010212D01*
X29916500Y-73956090D01*
X29916499Y-73956094D01*
X29916499Y-74043906D01*
X29939227Y-74128727D01*
X29940430Y-74130810D01*
X29951691Y-74150315D01*
X29951692Y-74150318D01*
X29983130Y-74204770D01*
X29983134Y-74204775D01*
X30052291Y-74273932D01*
X30052297Y-74273937D01*
X30630181Y-74851821D01*
X30644884Y-74878748D01*
X30661477Y-74904567D01*
X30662368Y-74910767D01*
X30663666Y-74913144D01*
X30666500Y-74939502D01*
X30666500Y-75177413D01*
X30649889Y-75239410D01*
X30642636Y-75251972D01*
X30642635Y-75251973D01*
X30631609Y-75293124D01*
X30616500Y-75349511D01*
X30616500Y-75450489D01*
X30642635Y-75548025D01*
X30693124Y-75635474D01*
X30764526Y-75706876D01*
X30851975Y-75757365D01*
X30949511Y-75783500D01*
X30949514Y-75783500D01*
X31050486Y-75783500D01*
X31050489Y-75783500D01*
X31148025Y-75757365D01*
X31235474Y-75706876D01*
X31306876Y-75635474D01*
X31357365Y-75548025D01*
X31383500Y-75450489D01*
X31383500Y-75349511D01*
X31357365Y-75251975D01*
X31350111Y-75239410D01*
X31333500Y-75177413D01*
X31333500Y-74706094D01*
X31333499Y-74706088D01*
X31316168Y-74641404D01*
X31316168Y-74641403D01*
X31310775Y-74621278D01*
X31310772Y-74621272D01*
X31288775Y-74583171D01*
X31288773Y-74583169D01*
X31283125Y-74573386D01*
X31266867Y-74545226D01*
X31204774Y-74483133D01*
X31204771Y-74483131D01*
X30619819Y-73898179D01*
X30586334Y-73836856D01*
X30583500Y-73810498D01*
X30583500Y-72803909D01*
X30583501Y-72803896D01*
X30583501Y-72706095D01*
X30580026Y-72693126D01*
X30560773Y-72621274D01*
X30516867Y-72545226D01*
X30516863Y-72545222D01*
X30511921Y-72538781D01*
X30513163Y-72537827D01*
X30486118Y-72490983D01*
X30482364Y-72476973D01*
X30470488Y-72456403D01*
X30431876Y-72389526D01*
X30360474Y-72318124D01*
X30273025Y-72267635D01*
X30259012Y-72263880D01*
X30203427Y-72231787D01*
X29619819Y-71648179D01*
X29586334Y-71586856D01*
X29583500Y-71560498D01*
X29583500Y-70553908D01*
X29583501Y-70553895D01*
X29583501Y-70456096D01*
X29583501Y-70456094D01*
X29560773Y-70371273D01*
X29538752Y-70333133D01*
X29516867Y-70295226D01*
X29454774Y-70233133D01*
X29454771Y-70233131D01*
X29013937Y-69792297D01*
X29013935Y-69792294D01*
X28944773Y-69723132D01*
X28896561Y-69695298D01*
X28896561Y-69695297D01*
X28896557Y-69695296D01*
X28868727Y-69679227D01*
X28868726Y-69679226D01*
X28868725Y-69679226D01*
X28799166Y-69660588D01*
X28783906Y-69656499D01*
X28696094Y-69656499D01*
X28688498Y-69656499D01*
X28688482Y-69656500D01*
X28302586Y-69656500D01*
X28240584Y-69639886D01*
X28228027Y-69632636D01*
X28228026Y-69632635D01*
X28228025Y-69632635D01*
X28130489Y-69606500D01*
X28029511Y-69606500D01*
X27931975Y-69632635D01*
X27931973Y-69632635D01*
X27931973Y-69632636D01*
X27844526Y-69683124D01*
X27844523Y-69683126D01*
X27773126Y-69754523D01*
X27773124Y-69754526D01*
X27735854Y-69819080D01*
X27722635Y-69841975D01*
X27696500Y-69939511D01*
X25898369Y-69939511D01*
X25984515Y-69853365D01*
X26060281Y-69722135D01*
X26099500Y-69575766D01*
X26099500Y-69424234D01*
X26060281Y-69277865D01*
X25984515Y-69146635D01*
X25877365Y-69039485D01*
X25863654Y-69031569D01*
X25835998Y-69015601D01*
X25787784Y-68965033D01*
X25774000Y-68908215D01*
X25774000Y-68370000D01*
X26274000Y-68370000D01*
X26274000Y-69070000D01*
X26672492Y-69070000D01*
X26672495Y-69069999D01*
X26865681Y-69031572D01*
X26865693Y-69031569D01*
X27047671Y-68956192D01*
X27047684Y-68956185D01*
X27211462Y-68846751D01*
X27211466Y-68846748D01*
X27350748Y-68707466D01*
X27350751Y-68707462D01*
X27460185Y-68543684D01*
X27460192Y-68543671D01*
X27535569Y-68361692D01*
X27535569Y-68361690D01*
X27543862Y-68320000D01*
X26740988Y-68320000D01*
X26758205Y-68310060D01*
X26814060Y-68254205D01*
X26853556Y-68185796D01*
X26874000Y-68109496D01*
X26874000Y-68030504D01*
X26853556Y-67954204D01*
X26814060Y-67885795D01*
X26758205Y-67829940D01*
X26740988Y-67820000D01*
X27543862Y-67820000D01*
X27535569Y-67778309D01*
X27535569Y-67778307D01*
X27460192Y-67596328D01*
X27460185Y-67596315D01*
X27350751Y-67432537D01*
X27350748Y-67432533D01*
X27211466Y-67293251D01*
X27211462Y-67293248D01*
X27047684Y-67183814D01*
X27047671Y-67183807D01*
X26865693Y-67108430D01*
X26865681Y-67108427D01*
X26672495Y-67070000D01*
X26274000Y-67070000D01*
X26274000Y-67770000D01*
X25774000Y-67770000D01*
X25774000Y-67070000D01*
X25375504Y-67070000D01*
X25182318Y-67108427D01*
X25182306Y-67108430D01*
X25000328Y-67183807D01*
X25000315Y-67183814D01*
X24836537Y-67293248D01*
X24836533Y-67293251D01*
X24697251Y-67432533D01*
X24697248Y-67432537D01*
X24587814Y-67596315D01*
X24587807Y-67596328D01*
X24512430Y-67778307D01*
X24512430Y-67778309D01*
X24504138Y-67820000D01*
X23213862Y-67820000D01*
X23205569Y-67778309D01*
X23205569Y-67778307D01*
X23130192Y-67596328D01*
X23130185Y-67596315D01*
X23020751Y-67432537D01*
X23020748Y-67432533D01*
X22881466Y-67293251D01*
X22881462Y-67293248D01*
X22717684Y-67183814D01*
X22717671Y-67183807D01*
X22535693Y-67108430D01*
X22535681Y-67108427D01*
X22342495Y-67070000D01*
X22094000Y-67070000D01*
X22094000Y-67770000D01*
X21594000Y-67770000D01*
X21594000Y-67070000D01*
X21345504Y-67070000D01*
X21152318Y-67108427D01*
X21152306Y-67108430D01*
X20970328Y-67183807D01*
X20970315Y-67183814D01*
X20806537Y-67293248D01*
X20806533Y-67293251D01*
X20667251Y-67432533D01*
X20667248Y-67432537D01*
X20557814Y-67596315D01*
X20557807Y-67596328D01*
X20482430Y-67778307D01*
X20482430Y-67778309D01*
X20474138Y-67820000D01*
X19028172Y-67820000D01*
X19061181Y-67668260D01*
X19064400Y-67656360D01*
X19075199Y-67623124D01*
X19076919Y-67618191D01*
X19141050Y-67446250D01*
X19146720Y-67433351D01*
X19152667Y-67421678D01*
X19154184Y-67418804D01*
X19250166Y-67243025D01*
X19259728Y-67228148D01*
X19385866Y-67059647D01*
X19397445Y-67046283D01*
X19546283Y-66897445D01*
X19559647Y-66885866D01*
X19564633Y-66882134D01*
X19653645Y-66815500D01*
X19728148Y-66759728D01*
X19743025Y-66750166D01*
X19918804Y-66654184D01*
X19921678Y-66652667D01*
X19933351Y-66646720D01*
X19946250Y-66641050D01*
X20118191Y-66576919D01*
X20123124Y-66575199D01*
X20156360Y-66564400D01*
X20168255Y-66561182D01*
X20338093Y-66524236D01*
X20344989Y-66522941D01*
X20388138Y-66516107D01*
X20398655Y-66514900D01*
X20595582Y-66500816D01*
X20604428Y-66500500D01*
X60295572Y-66500500D01*
X60304418Y-66500816D01*
G37*
%TD.AperFunction*%
%TD*%
M02*
