%TF.GenerationSoftware,KiCad,Pcbnew,9.0.4*%
%TF.CreationDate,2025-08-29T23:53:31-07:00*%
%TF.ProjectId,WeatherPill,57656174-6865-4725-9069-6c6c2e6b6963,rev?*%
%TF.SameCoordinates,Original*%
%TF.FileFunction,Copper,L3,Inr*%
%TF.FilePolarity,Positive*%
%FSLAX46Y46*%
G04 Gerber Fmt 4.6, Leading zero omitted, Abs format (unit mm)*
G04 Created by KiCad (PCBNEW 9.0.4) date 2025-08-29 23:53:31*
%MOMM*%
%LPD*%
G01*
G04 APERTURE LIST*
%TA.AperFunction,ComponentPad*%
%ADD10C,1.000000*%
%TD*%
%TA.AperFunction,ComponentPad*%
%ADD11O,2.100000X1.000000*%
%TD*%
%TA.AperFunction,ComponentPad*%
%ADD12O,1.800000X1.000000*%
%TD*%
%TA.AperFunction,ViaPad*%
%ADD13C,0.350000*%
%TD*%
G04 APERTURE END LIST*
D10*
%TO.N,SEG0*%
%TO.C,L1*%
X51750000Y-67575000D03*
%TO.N,SEG1*%
X53750000Y-67575000D03*
%TO.N,SEG2*%
X55750000Y-67575000D03*
%TO.N,SEG3*%
X57750000Y-67575000D03*
%TO.N,SEG4*%
X59750000Y-67575000D03*
%TO.N,SEG5*%
X51750000Y-77825000D03*
%TO.N,COM3*%
X53750000Y-77825000D03*
%TO.N,COM2*%
X55750000Y-77825000D03*
%TO.N,COM1*%
X57750000Y-77825000D03*
%TO.N,COM0*%
X59750000Y-77825000D03*
%TD*%
D11*
%TO.N,GND*%
%TO.C,J2*%
X26024000Y-68070000D03*
X26024000Y-76710000D03*
D12*
X21844000Y-68070000D03*
X21844000Y-76710000D03*
%TD*%
D13*
%TO.N,V_BUS_3V*%
X45900000Y-75200000D03*
X27200000Y-78400000D03*
X40000000Y-73000000D03*
X27700000Y-77900000D03*
X32306250Y-69893750D03*
X29200000Y-77200000D03*
%TO.N,GND*%
X28750000Y-78250000D03*
X49422500Y-71600000D03*
X53241054Y-68358946D03*
X47400000Y-74200000D03*
X36500000Y-71000000D03*
X30250000Y-69500000D03*
X40400000Y-72600000D03*
X33000000Y-79500000D03*
X35350000Y-72250000D03*
X33600000Y-67000000D03*
X34028211Y-77881273D03*
X30000000Y-74800000D03*
X38200000Y-76500000D03*
X43000000Y-74177500D03*
X36425000Y-73325000D03*
X43800000Y-71400000D03*
X29250000Y-67500000D03*
X40600000Y-78000000D03*
X44000000Y-76800000D03*
X29250000Y-82000000D03*
X40849804Y-69950196D03*
X29737266Y-73246645D03*
X45400000Y-72800000D03*
X28500000Y-75750000D03*
X27500000Y-80500000D03*
X20250000Y-76750000D03*
X30000000Y-71400000D03*
X50000000Y-68800000D03*
X42500000Y-69500000D03*
X39400000Y-74200000D03*
X50200000Y-73200000D03*
%TO.N,SDA_1*%
X31750000Y-71750000D03*
X50000000Y-80750000D03*
%TO.N,SCL_1*%
X50375000Y-78875000D03*
X48695000Y-81250000D03*
X51200000Y-70600000D03*
X31500000Y-71250000D03*
X50546446Y-75800000D03*
%TO.N,CS_1*%
X37800000Y-69532502D03*
X40706777Y-69303223D03*
%TO.N,CS_2*%
X36868813Y-69032502D03*
X47500000Y-69725000D03*
%TO.N,V_USB*%
X31000000Y-75400000D03*
X28080000Y-69990000D03*
X30125000Y-72625000D03*
%TO.N,BTN_1*%
X40700000Y-79300000D03*
X39000000Y-71200000D03*
%TO.N,BTN_2*%
X42200000Y-79200000D03*
X39000000Y-70600000D03*
%TO.N,V_BUS_ZONE_1*%
X43427500Y-75322500D03*
X44600000Y-69200000D03*
X50400000Y-74600000D03*
X49293756Y-78614959D03*
X42200000Y-71800000D03*
X47400000Y-67800000D03*
X55400000Y-81572501D03*
%TO.N,CONTROL_ZONE_1*%
X36000000Y-76405084D03*
X41200000Y-74600000D03*
%TO.N,NRST*%
X39465002Y-73400000D03*
X31367169Y-79879025D03*
%TO.N,USB_D-*%
X28071501Y-71696554D03*
X28250000Y-73500000D03*
%TO.N,HDC_DRDY*%
X31250000Y-70750000D03*
X34000000Y-80750000D03*
X31250000Y-80500000D03*
X48736181Y-78600000D03*
%TO.N,SDO_1*%
X35100000Y-68456095D03*
X49100000Y-69357108D03*
%TO.N,SDI_1*%
X35600000Y-69000000D03*
X40208692Y-67951000D03*
X48582875Y-72284290D03*
%TO.N,Net-(D1-PadA)*%
X40000000Y-77800000D03*
X37800000Y-78200000D03*
%TO.N,Net-(BT1-PadP)*%
X23750000Y-78500000D03*
%TO.N,SEG0*%
X53600000Y-69600000D03*
%TO.N,unconnected-(U2-SEG8-Pad20)*%
X57800000Y-72720000D03*
%TO.N,SEG5*%
X57800000Y-70400000D03*
%TO.N,unconnected-(U2-SEG10-Pad22)*%
X57800000Y-73720000D03*
%TO.N,~{DISP_RST}*%
X38950000Y-70000000D03*
%TO.N,unconnected-(U2-SEG12-Pad24)*%
X58500000Y-74900000D03*
%TO.N,unconnected-(U2-SEG13-Pad25)*%
X57700000Y-75600000D03*
%TO.N,unconnected-(U2-SEG9-Pad21)*%
X58580000Y-73220000D03*
%TO.N,unconnected-(U2-SEG11-Pad23)*%
X58700000Y-74220000D03*
%TO.N,unconnected-(U2-SEG7-Pad19)*%
X58500000Y-72220000D03*
%TO.N,COM2*%
X52080000Y-76600000D03*
%TD*%
%TA.AperFunction,Conductor*%
%TO.N,V_BUS_ZONE_1*%
G36*
X60304418Y-66500816D02*
G01*
X60501338Y-66514900D01*
X60511866Y-66516108D01*
X60554997Y-66522939D01*
X60561919Y-66524239D01*
X60731734Y-66561180D01*
X60743649Y-66564403D01*
X60776846Y-66575189D01*
X60781837Y-66576930D01*
X60953736Y-66641045D01*
X60966661Y-66646726D01*
X60978263Y-66652638D01*
X60981255Y-66654217D01*
X61156974Y-66750166D01*
X61171848Y-66759724D01*
X61246303Y-66815461D01*
X61340353Y-66885866D01*
X61353723Y-66897452D01*
X61502547Y-67046276D01*
X61514133Y-67059646D01*
X61640271Y-67228146D01*
X61649836Y-67243030D01*
X61745751Y-67418686D01*
X61747388Y-67421787D01*
X61753265Y-67433322D01*
X61758959Y-67446277D01*
X61823067Y-67618159D01*
X61824815Y-67623171D01*
X61835588Y-67656324D01*
X61838824Y-67668287D01*
X61875755Y-67838060D01*
X61877062Y-67845021D01*
X61883888Y-67888120D01*
X61885099Y-67898670D01*
X61899184Y-68095582D01*
X61899500Y-68104429D01*
X61899500Y-80895570D01*
X61899184Y-80904417D01*
X61885099Y-81101328D01*
X61883888Y-81111878D01*
X61877062Y-81154977D01*
X61875755Y-81161938D01*
X61838824Y-81331711D01*
X61835588Y-81343674D01*
X61824815Y-81376827D01*
X61823067Y-81381839D01*
X61758959Y-81553721D01*
X61753260Y-81566685D01*
X61747394Y-81578197D01*
X61745743Y-81581326D01*
X61649838Y-81756965D01*
X61640273Y-81771850D01*
X61514133Y-81940353D01*
X61502547Y-81953723D01*
X61353723Y-82102547D01*
X61340353Y-82114133D01*
X61171850Y-82240273D01*
X61156965Y-82249838D01*
X60981326Y-82345743D01*
X60978197Y-82347394D01*
X60966685Y-82353260D01*
X60953721Y-82358959D01*
X60781839Y-82423067D01*
X60776827Y-82424815D01*
X60743674Y-82435588D01*
X60731711Y-82438824D01*
X60561938Y-82475755D01*
X60554977Y-82477062D01*
X60511878Y-82483888D01*
X60501328Y-82485099D01*
X60304418Y-82499184D01*
X60295571Y-82499500D01*
X46724000Y-82499500D01*
X46656961Y-82479815D01*
X46611206Y-82427011D01*
X46600000Y-82375500D01*
X46600000Y-81199511D01*
X48311500Y-81199511D01*
X48311500Y-81300489D01*
X48337635Y-81398025D01*
X48388124Y-81485474D01*
X48459526Y-81556876D01*
X48546975Y-81607365D01*
X48644511Y-81633500D01*
X48644514Y-81633500D01*
X48745486Y-81633500D01*
X48745489Y-81633500D01*
X48843025Y-81607365D01*
X48930474Y-81556876D01*
X49001876Y-81485474D01*
X49052365Y-81398025D01*
X49078500Y-81300489D01*
X49078500Y-81199511D01*
X49052365Y-81101975D01*
X49001876Y-81014526D01*
X48930474Y-80943124D01*
X48843025Y-80892635D01*
X48745489Y-80866500D01*
X48644511Y-80866500D01*
X48546975Y-80892635D01*
X48546973Y-80892635D01*
X48546973Y-80892636D01*
X48459526Y-80943124D01*
X48459523Y-80943126D01*
X48388126Y-81014523D01*
X48388124Y-81014526D01*
X48338009Y-81101328D01*
X48337635Y-81101975D01*
X48311500Y-81199511D01*
X46600000Y-81199511D01*
X46600000Y-80699511D01*
X49616500Y-80699511D01*
X49616500Y-80800489D01*
X49642635Y-80898025D01*
X49693124Y-80985474D01*
X49764526Y-81056876D01*
X49851975Y-81107365D01*
X49949511Y-81133500D01*
X49949514Y-81133500D01*
X50050486Y-81133500D01*
X50050489Y-81133500D01*
X50148025Y-81107365D01*
X50235474Y-81056876D01*
X50306876Y-80985474D01*
X50357365Y-80898025D01*
X50383500Y-80800489D01*
X50383500Y-80699511D01*
X50357365Y-80601975D01*
X50306876Y-80514526D01*
X50235474Y-80443124D01*
X50148025Y-80392635D01*
X50050489Y-80366500D01*
X49949511Y-80366500D01*
X49851975Y-80392635D01*
X49851973Y-80392635D01*
X49851973Y-80392636D01*
X49764526Y-80443124D01*
X49764523Y-80443126D01*
X49693126Y-80514523D01*
X49693124Y-80514526D01*
X49642635Y-80601975D01*
X49616500Y-80699511D01*
X46600000Y-80699511D01*
X46600000Y-78549511D01*
X48352681Y-78549511D01*
X48352681Y-78650489D01*
X48378816Y-78748025D01*
X48429305Y-78835474D01*
X48500707Y-78906876D01*
X48588156Y-78957365D01*
X48685692Y-78983500D01*
X48685695Y-78983500D01*
X48786667Y-78983500D01*
X48786670Y-78983500D01*
X48884206Y-78957365D01*
X48971655Y-78906876D01*
X49043057Y-78835474D01*
X49049387Y-78824511D01*
X49991500Y-78824511D01*
X49991500Y-78925489D01*
X50017635Y-79023025D01*
X50068124Y-79110474D01*
X50139526Y-79181876D01*
X50226975Y-79232365D01*
X50324511Y-79258500D01*
X50324514Y-79258500D01*
X50425486Y-79258500D01*
X50425489Y-79258500D01*
X50523025Y-79232365D01*
X50610474Y-79181876D01*
X50681876Y-79110474D01*
X50732365Y-79023025D01*
X50758500Y-78925489D01*
X50758500Y-78824511D01*
X50732365Y-78726975D01*
X50681876Y-78639526D01*
X50610474Y-78568124D01*
X50523025Y-78517635D01*
X50425489Y-78491500D01*
X50324511Y-78491500D01*
X50226975Y-78517635D01*
X50226973Y-78517635D01*
X50226973Y-78517636D01*
X50139526Y-78568124D01*
X50139523Y-78568126D01*
X50068126Y-78639523D01*
X50068124Y-78639526D01*
X50017635Y-78726975D01*
X49991500Y-78824511D01*
X49049387Y-78824511D01*
X49093546Y-78748025D01*
X49119681Y-78650489D01*
X49119681Y-78549511D01*
X49093546Y-78451975D01*
X49043057Y-78364526D01*
X48971655Y-78293124D01*
X48884206Y-78242635D01*
X48786670Y-78216500D01*
X48685692Y-78216500D01*
X48588156Y-78242635D01*
X48588154Y-78242635D01*
X48588154Y-78242636D01*
X48500707Y-78293124D01*
X48500704Y-78293126D01*
X48429307Y-78364523D01*
X48429305Y-78364526D01*
X48378816Y-78451975D01*
X48352681Y-78549511D01*
X46600000Y-78549511D01*
X46600000Y-77755214D01*
X51041500Y-77755214D01*
X51041500Y-77894785D01*
X51068725Y-78031654D01*
X51068727Y-78031662D01*
X51122134Y-78160597D01*
X51122139Y-78160607D01*
X51199671Y-78276641D01*
X51199674Y-78276645D01*
X51298354Y-78375325D01*
X51298358Y-78375328D01*
X51414392Y-78452860D01*
X51414396Y-78452862D01*
X51414399Y-78452864D01*
X51543338Y-78506273D01*
X51680214Y-78533499D01*
X51680218Y-78533500D01*
X51680219Y-78533500D01*
X51819782Y-78533500D01*
X51819783Y-78533499D01*
X51956662Y-78506273D01*
X52085601Y-78452864D01*
X52201642Y-78375328D01*
X52300328Y-78276642D01*
X52377864Y-78160601D01*
X52431273Y-78031662D01*
X52458500Y-77894781D01*
X52458500Y-77755219D01*
X52458499Y-77755214D01*
X53041500Y-77755214D01*
X53041500Y-77894785D01*
X53068725Y-78031654D01*
X53068727Y-78031662D01*
X53122134Y-78160597D01*
X53122139Y-78160607D01*
X53199671Y-78276641D01*
X53199674Y-78276645D01*
X53298354Y-78375325D01*
X53298358Y-78375328D01*
X53414392Y-78452860D01*
X53414396Y-78452862D01*
X53414399Y-78452864D01*
X53543338Y-78506273D01*
X53680214Y-78533499D01*
X53680218Y-78533500D01*
X53680219Y-78533500D01*
X53819782Y-78533500D01*
X53819783Y-78533499D01*
X53956662Y-78506273D01*
X54085601Y-78452864D01*
X54201642Y-78375328D01*
X54300328Y-78276642D01*
X54377864Y-78160601D01*
X54431273Y-78031662D01*
X54458500Y-77894781D01*
X54458500Y-77755219D01*
X54458499Y-77755214D01*
X55041500Y-77755214D01*
X55041500Y-77894785D01*
X55068725Y-78031654D01*
X55068727Y-78031662D01*
X55122134Y-78160597D01*
X55122139Y-78160607D01*
X55199671Y-78276641D01*
X55199674Y-78276645D01*
X55298354Y-78375325D01*
X55298358Y-78375328D01*
X55414392Y-78452860D01*
X55414396Y-78452862D01*
X55414399Y-78452864D01*
X55543338Y-78506273D01*
X55680214Y-78533499D01*
X55680218Y-78533500D01*
X55680219Y-78533500D01*
X55819782Y-78533500D01*
X55819783Y-78533499D01*
X55956662Y-78506273D01*
X56085601Y-78452864D01*
X56201642Y-78375328D01*
X56300328Y-78276642D01*
X56377864Y-78160601D01*
X56431273Y-78031662D01*
X56458500Y-77894781D01*
X56458500Y-77755219D01*
X56458499Y-77755214D01*
X57041500Y-77755214D01*
X57041500Y-77894785D01*
X57068725Y-78031654D01*
X57068727Y-78031662D01*
X57122134Y-78160597D01*
X57122139Y-78160607D01*
X57199671Y-78276641D01*
X57199674Y-78276645D01*
X57298354Y-78375325D01*
X57298358Y-78375328D01*
X57414392Y-78452860D01*
X57414396Y-78452862D01*
X57414399Y-78452864D01*
X57543338Y-78506273D01*
X57680214Y-78533499D01*
X57680218Y-78533500D01*
X57680219Y-78533500D01*
X57819782Y-78533500D01*
X57819783Y-78533499D01*
X57956662Y-78506273D01*
X58085601Y-78452864D01*
X58201642Y-78375328D01*
X58300328Y-78276642D01*
X58377864Y-78160601D01*
X58431273Y-78031662D01*
X58458500Y-77894781D01*
X58458500Y-77755219D01*
X58458499Y-77755214D01*
X59041500Y-77755214D01*
X59041500Y-77894785D01*
X59068725Y-78031654D01*
X59068727Y-78031662D01*
X59122134Y-78160597D01*
X59122139Y-78160607D01*
X59199671Y-78276641D01*
X59199674Y-78276645D01*
X59298354Y-78375325D01*
X59298358Y-78375328D01*
X59414392Y-78452860D01*
X59414396Y-78452862D01*
X59414399Y-78452864D01*
X59543338Y-78506273D01*
X59680214Y-78533499D01*
X59680218Y-78533500D01*
X59680219Y-78533500D01*
X59819782Y-78533500D01*
X59819783Y-78533499D01*
X59956662Y-78506273D01*
X60085601Y-78452864D01*
X60201642Y-78375328D01*
X60300328Y-78276642D01*
X60377864Y-78160601D01*
X60431273Y-78031662D01*
X60458500Y-77894781D01*
X60458500Y-77755219D01*
X60431273Y-77618338D01*
X60377864Y-77489399D01*
X60377862Y-77489396D01*
X60377860Y-77489392D01*
X60300328Y-77373358D01*
X60300325Y-77373354D01*
X60201645Y-77274674D01*
X60201641Y-77274671D01*
X60085607Y-77197139D01*
X60085597Y-77197134D01*
X59956662Y-77143727D01*
X59956654Y-77143725D01*
X59819785Y-77116500D01*
X59819781Y-77116500D01*
X59680219Y-77116500D01*
X59680214Y-77116500D01*
X59543345Y-77143725D01*
X59543337Y-77143727D01*
X59414402Y-77197134D01*
X59414392Y-77197139D01*
X59298358Y-77274671D01*
X59298354Y-77274674D01*
X59199674Y-77373354D01*
X59199671Y-77373358D01*
X59122139Y-77489392D01*
X59122134Y-77489402D01*
X59068727Y-77618337D01*
X59068725Y-77618345D01*
X59041500Y-77755214D01*
X58458499Y-77755214D01*
X58431273Y-77618338D01*
X58377864Y-77489399D01*
X58377862Y-77489396D01*
X58377860Y-77489392D01*
X58300328Y-77373358D01*
X58300325Y-77373354D01*
X58201645Y-77274674D01*
X58201641Y-77274671D01*
X58085607Y-77197139D01*
X58085597Y-77197134D01*
X57956662Y-77143727D01*
X57956654Y-77143725D01*
X57819785Y-77116500D01*
X57819781Y-77116500D01*
X57680219Y-77116500D01*
X57680214Y-77116500D01*
X57543345Y-77143725D01*
X57543337Y-77143727D01*
X57414402Y-77197134D01*
X57414392Y-77197139D01*
X57298358Y-77274671D01*
X57298354Y-77274674D01*
X57199674Y-77373354D01*
X57199671Y-77373358D01*
X57122139Y-77489392D01*
X57122134Y-77489402D01*
X57068727Y-77618337D01*
X57068725Y-77618345D01*
X57041500Y-77755214D01*
X56458499Y-77755214D01*
X56431273Y-77618338D01*
X56377864Y-77489399D01*
X56377862Y-77489396D01*
X56377860Y-77489392D01*
X56300328Y-77373358D01*
X56300325Y-77373354D01*
X56201645Y-77274674D01*
X56201641Y-77274671D01*
X56085607Y-77197139D01*
X56085597Y-77197134D01*
X55956662Y-77143727D01*
X55956654Y-77143725D01*
X55819785Y-77116500D01*
X55819781Y-77116500D01*
X55680219Y-77116500D01*
X55680214Y-77116500D01*
X55543345Y-77143725D01*
X55543337Y-77143727D01*
X55414402Y-77197134D01*
X55414392Y-77197139D01*
X55298358Y-77274671D01*
X55298354Y-77274674D01*
X55199674Y-77373354D01*
X55199671Y-77373358D01*
X55122139Y-77489392D01*
X55122134Y-77489402D01*
X55068727Y-77618337D01*
X55068725Y-77618345D01*
X55041500Y-77755214D01*
X54458499Y-77755214D01*
X54431273Y-77618338D01*
X54377864Y-77489399D01*
X54377862Y-77489396D01*
X54377860Y-77489392D01*
X54300328Y-77373358D01*
X54300325Y-77373354D01*
X54201645Y-77274674D01*
X54201641Y-77274671D01*
X54085607Y-77197139D01*
X54085597Y-77197134D01*
X53956662Y-77143727D01*
X53956654Y-77143725D01*
X53819785Y-77116500D01*
X53819781Y-77116500D01*
X53680219Y-77116500D01*
X53680214Y-77116500D01*
X53543345Y-77143725D01*
X53543337Y-77143727D01*
X53414402Y-77197134D01*
X53414392Y-77197139D01*
X53298358Y-77274671D01*
X53298354Y-77274674D01*
X53199674Y-77373354D01*
X53199671Y-77373358D01*
X53122139Y-77489392D01*
X53122134Y-77489402D01*
X53068727Y-77618337D01*
X53068725Y-77618345D01*
X53041500Y-77755214D01*
X52458499Y-77755214D01*
X52431273Y-77618338D01*
X52377864Y-77489399D01*
X52377862Y-77489396D01*
X52377860Y-77489392D01*
X52300328Y-77373358D01*
X52300325Y-77373354D01*
X52201645Y-77274674D01*
X52201641Y-77274671D01*
X52097788Y-77205278D01*
X52052983Y-77151666D01*
X52044276Y-77082341D01*
X52074431Y-77019313D01*
X52133874Y-76982594D01*
X52134201Y-76982505D01*
X52228025Y-76957365D01*
X52315474Y-76906876D01*
X52386876Y-76835474D01*
X52437365Y-76748025D01*
X52463500Y-76650489D01*
X52463500Y-76549511D01*
X52437365Y-76451975D01*
X52386876Y-76364526D01*
X52315474Y-76293124D01*
X52228025Y-76242635D01*
X52130489Y-76216500D01*
X52029511Y-76216500D01*
X51931975Y-76242635D01*
X51931973Y-76242635D01*
X51931973Y-76242636D01*
X51844526Y-76293124D01*
X51844523Y-76293126D01*
X51773126Y-76364523D01*
X51773124Y-76364526D01*
X51722635Y-76451975D01*
X51696500Y-76549511D01*
X51696500Y-76650489D01*
X51722635Y-76748025D01*
X51773124Y-76835474D01*
X51773126Y-76835476D01*
X51842469Y-76904819D01*
X51875954Y-76966142D01*
X51870970Y-77035834D01*
X51829098Y-77091767D01*
X51763634Y-77116184D01*
X51754788Y-77116500D01*
X51680214Y-77116500D01*
X51543345Y-77143725D01*
X51543337Y-77143727D01*
X51414402Y-77197134D01*
X51414392Y-77197139D01*
X51298358Y-77274671D01*
X51298354Y-77274674D01*
X51199674Y-77373354D01*
X51199671Y-77373358D01*
X51122139Y-77489392D01*
X51122134Y-77489402D01*
X51068727Y-77618337D01*
X51068725Y-77618345D01*
X51041500Y-77755214D01*
X46600000Y-77755214D01*
X46600000Y-75749511D01*
X50162946Y-75749511D01*
X50162946Y-75850489D01*
X50189081Y-75948025D01*
X50239570Y-76035474D01*
X50310972Y-76106876D01*
X50398421Y-76157365D01*
X50495957Y-76183500D01*
X50495960Y-76183500D01*
X50596932Y-76183500D01*
X50596935Y-76183500D01*
X50694471Y-76157365D01*
X50781920Y-76106876D01*
X50853322Y-76035474D01*
X50903811Y-75948025D01*
X50929946Y-75850489D01*
X50929946Y-75749511D01*
X50903811Y-75651975D01*
X50853322Y-75564526D01*
X50838307Y-75549511D01*
X57316500Y-75549511D01*
X57316500Y-75650489D01*
X57342635Y-75748025D01*
X57393124Y-75835474D01*
X57464526Y-75906876D01*
X57551975Y-75957365D01*
X57649511Y-75983500D01*
X57649514Y-75983500D01*
X57750486Y-75983500D01*
X57750489Y-75983500D01*
X57848025Y-75957365D01*
X57935474Y-75906876D01*
X58006876Y-75835474D01*
X58057365Y-75748025D01*
X58083500Y-75650489D01*
X58083500Y-75549511D01*
X58057365Y-75451975D01*
X58006876Y-75364526D01*
X57935474Y-75293124D01*
X57848025Y-75242635D01*
X57750489Y-75216500D01*
X57649511Y-75216500D01*
X57551975Y-75242635D01*
X57551973Y-75242635D01*
X57551973Y-75242636D01*
X57464526Y-75293124D01*
X57464523Y-75293126D01*
X57393126Y-75364523D01*
X57393124Y-75364526D01*
X57342635Y-75451975D01*
X57316500Y-75549511D01*
X50838307Y-75549511D01*
X50781920Y-75493124D01*
X50694471Y-75442635D01*
X50596935Y-75416500D01*
X50495957Y-75416500D01*
X50398421Y-75442635D01*
X50398419Y-75442635D01*
X50398419Y-75442636D01*
X50310972Y-75493124D01*
X50310969Y-75493126D01*
X50239572Y-75564523D01*
X50239570Y-75564526D01*
X50189081Y-75651975D01*
X50162946Y-75749511D01*
X46600000Y-75749511D01*
X46600000Y-74849511D01*
X58116500Y-74849511D01*
X58116500Y-74950489D01*
X58142635Y-75048025D01*
X58193124Y-75135474D01*
X58264526Y-75206876D01*
X58351975Y-75257365D01*
X58449511Y-75283500D01*
X58449514Y-75283500D01*
X58550486Y-75283500D01*
X58550489Y-75283500D01*
X58648025Y-75257365D01*
X58735474Y-75206876D01*
X58806876Y-75135474D01*
X58857365Y-75048025D01*
X58883500Y-74950489D01*
X58883500Y-74849511D01*
X58857365Y-74751975D01*
X58841421Y-74724359D01*
X58824948Y-74656463D01*
X58847799Y-74590435D01*
X58886806Y-74554974D01*
X58935474Y-74526876D01*
X59006876Y-74455474D01*
X59057365Y-74368025D01*
X59083500Y-74270489D01*
X59083500Y-74169511D01*
X59057365Y-74071975D01*
X59006876Y-73984526D01*
X58935474Y-73913124D01*
X58848025Y-73862635D01*
X58750489Y-73836500D01*
X58649511Y-73836500D01*
X58551975Y-73862635D01*
X58551973Y-73862635D01*
X58551973Y-73862636D01*
X58464526Y-73913124D01*
X58464523Y-73913126D01*
X58393126Y-73984523D01*
X58393124Y-73984526D01*
X58349342Y-74060359D01*
X58342635Y-74071975D01*
X58316500Y-74169511D01*
X58316500Y-74270489D01*
X58342635Y-74368025D01*
X58342636Y-74368027D01*
X58358577Y-74395637D01*
X58375051Y-74463537D01*
X58352199Y-74529565D01*
X58313193Y-74565025D01*
X58264529Y-74593122D01*
X58264523Y-74593126D01*
X58193126Y-74664523D01*
X58193124Y-74664526D01*
X58144916Y-74748025D01*
X58142635Y-74751975D01*
X58116500Y-74849511D01*
X46600000Y-74849511D01*
X46600000Y-74700000D01*
X44400000Y-74700000D01*
X44400000Y-75776000D01*
X44380315Y-75843039D01*
X44327511Y-75888794D01*
X44276000Y-75900000D01*
X43058078Y-75900000D01*
X42991039Y-75880315D01*
X42962819Y-75855383D01*
X42946228Y-75835473D01*
X41525462Y-74130555D01*
X41523925Y-74127011D01*
X42616500Y-74127011D01*
X42616500Y-74227989D01*
X42642635Y-74325525D01*
X42693124Y-74412974D01*
X42764526Y-74484376D01*
X42851975Y-74534865D01*
X42949511Y-74561000D01*
X42949514Y-74561000D01*
X43050486Y-74561000D01*
X43050489Y-74561000D01*
X43148025Y-74534865D01*
X43235474Y-74484376D01*
X43306876Y-74412974D01*
X43357365Y-74325525D01*
X43383500Y-74227989D01*
X43383500Y-74149511D01*
X47016500Y-74149511D01*
X47016500Y-74250489D01*
X47042635Y-74348025D01*
X47093124Y-74435474D01*
X47164526Y-74506876D01*
X47251975Y-74557365D01*
X47349511Y-74583500D01*
X47349514Y-74583500D01*
X47450486Y-74583500D01*
X47450489Y-74583500D01*
X47548025Y-74557365D01*
X47635474Y-74506876D01*
X47706876Y-74435474D01*
X47757365Y-74348025D01*
X47783500Y-74250489D01*
X47783500Y-74149511D01*
X47757365Y-74051975D01*
X47706876Y-73964526D01*
X47635474Y-73893124D01*
X47548025Y-73842635D01*
X47450489Y-73816500D01*
X47349511Y-73816500D01*
X47251975Y-73842635D01*
X47251973Y-73842635D01*
X47251973Y-73842636D01*
X47164526Y-73893124D01*
X47164523Y-73893126D01*
X47093126Y-73964523D01*
X47093124Y-73964526D01*
X47055627Y-74029473D01*
X47042635Y-74051975D01*
X47016500Y-74149511D01*
X43383500Y-74149511D01*
X43383500Y-74127011D01*
X43357365Y-74029475D01*
X43306876Y-73942026D01*
X43235474Y-73870624D01*
X43148025Y-73820135D01*
X43050489Y-73794000D01*
X42949511Y-73794000D01*
X42851975Y-73820135D01*
X42851973Y-73820135D01*
X42851973Y-73820136D01*
X42764526Y-73870624D01*
X42764523Y-73870626D01*
X42693126Y-73942023D01*
X42693124Y-73942026D01*
X42644136Y-74026876D01*
X42642635Y-74029475D01*
X42616500Y-74127011D01*
X41523925Y-74127011D01*
X41497667Y-74066453D01*
X41497063Y-74060359D01*
X41399962Y-72749511D01*
X45016500Y-72749511D01*
X45016500Y-72850489D01*
X45042635Y-72948025D01*
X45093124Y-73035474D01*
X45164526Y-73106876D01*
X45251975Y-73157365D01*
X45349511Y-73183500D01*
X45349514Y-73183500D01*
X45450486Y-73183500D01*
X45450489Y-73183500D01*
X45548025Y-73157365D01*
X45561628Y-73149511D01*
X49816500Y-73149511D01*
X49816500Y-73250489D01*
X49842635Y-73348025D01*
X49893124Y-73435474D01*
X49964526Y-73506876D01*
X50051975Y-73557365D01*
X50149511Y-73583500D01*
X50149514Y-73583500D01*
X50250486Y-73583500D01*
X50250489Y-73583500D01*
X50348025Y-73557365D01*
X50435474Y-73506876D01*
X50506876Y-73435474D01*
X50557365Y-73348025D01*
X50583500Y-73250489D01*
X50583500Y-73149511D01*
X50557365Y-73051975D01*
X50506876Y-72964526D01*
X50435474Y-72893124D01*
X50348025Y-72842635D01*
X50250489Y-72816500D01*
X50149511Y-72816500D01*
X50051975Y-72842635D01*
X50051973Y-72842635D01*
X50051973Y-72842636D01*
X49964526Y-72893124D01*
X49964523Y-72893126D01*
X49893126Y-72964523D01*
X49893124Y-72964526D01*
X49857127Y-73026875D01*
X49842635Y-73051975D01*
X49816500Y-73149511D01*
X45561628Y-73149511D01*
X45635474Y-73106876D01*
X45706876Y-73035474D01*
X45757365Y-72948025D01*
X45783500Y-72850489D01*
X45783500Y-72749511D01*
X45762064Y-72669511D01*
X57416500Y-72669511D01*
X57416500Y-72770489D01*
X57442635Y-72868025D01*
X57493124Y-72955474D01*
X57564526Y-73026876D01*
X57651975Y-73077365D01*
X57737292Y-73100226D01*
X57796951Y-73136590D01*
X57827480Y-73199437D01*
X57819185Y-73268813D01*
X57774700Y-73322691D01*
X57737294Y-73339773D01*
X57651975Y-73362635D01*
X57651973Y-73362635D01*
X57651973Y-73362636D01*
X57564526Y-73413124D01*
X57564523Y-73413126D01*
X57493126Y-73484523D01*
X57493124Y-73484526D01*
X57460952Y-73540250D01*
X57442635Y-73571975D01*
X57416500Y-73669511D01*
X57416500Y-73770489D01*
X57442635Y-73868025D01*
X57493124Y-73955474D01*
X57564526Y-74026876D01*
X57651975Y-74077365D01*
X57749511Y-74103500D01*
X57749514Y-74103500D01*
X57850486Y-74103500D01*
X57850489Y-74103500D01*
X57948025Y-74077365D01*
X58035474Y-74026876D01*
X58106876Y-73955474D01*
X58157365Y-73868025D01*
X58183500Y-73770489D01*
X58183500Y-73669511D01*
X58183498Y-73669507D01*
X58182751Y-73663830D01*
X58193512Y-73594794D01*
X58239888Y-73542535D01*
X58307155Y-73523645D01*
X58367690Y-73540250D01*
X58431969Y-73577362D01*
X58431970Y-73577363D01*
X58431972Y-73577363D01*
X58431975Y-73577365D01*
X58529511Y-73603500D01*
X58529514Y-73603500D01*
X58569827Y-73603500D01*
X58630489Y-73603500D01*
X58728025Y-73577365D01*
X58815474Y-73526876D01*
X58886876Y-73455474D01*
X58937365Y-73368025D01*
X58963500Y-73270489D01*
X58963500Y-73169511D01*
X58937365Y-73071975D01*
X58886876Y-72984526D01*
X58815474Y-72913124D01*
X58728025Y-72862635D01*
X58630489Y-72836500D01*
X58622793Y-72836500D01*
X58555754Y-72816815D01*
X58509999Y-72764011D01*
X58500055Y-72694853D01*
X58529080Y-72631297D01*
X58587858Y-72593523D01*
X58590649Y-72592738D01*
X58648025Y-72577365D01*
X58735474Y-72526876D01*
X58806876Y-72455474D01*
X58857365Y-72368025D01*
X58883500Y-72270489D01*
X58883500Y-72169511D01*
X58857365Y-72071975D01*
X58806876Y-71984526D01*
X58735474Y-71913124D01*
X58648025Y-71862635D01*
X58550489Y-71836500D01*
X58449511Y-71836500D01*
X58351975Y-71862635D01*
X58351973Y-71862635D01*
X58351973Y-71862636D01*
X58264526Y-71913124D01*
X58264523Y-71913126D01*
X58193126Y-71984523D01*
X58193124Y-71984526D01*
X58142635Y-72071975D01*
X58116500Y-72169511D01*
X58116500Y-72169513D01*
X58116500Y-72246840D01*
X58096815Y-72313879D01*
X58044011Y-72359634D01*
X57974853Y-72369578D01*
X57955966Y-72364397D01*
X57955875Y-72364739D01*
X57948026Y-72362636D01*
X57948025Y-72362635D01*
X57850489Y-72336500D01*
X57749511Y-72336500D01*
X57651975Y-72362635D01*
X57651973Y-72362635D01*
X57651973Y-72362636D01*
X57564526Y-72413124D01*
X57564523Y-72413126D01*
X57493126Y-72484523D01*
X57493124Y-72484526D01*
X57442635Y-72571975D01*
X57416500Y-72669511D01*
X45762064Y-72669511D01*
X45757365Y-72651975D01*
X45706876Y-72564526D01*
X45635474Y-72493124D01*
X45548025Y-72442635D01*
X45450489Y-72416500D01*
X45349511Y-72416500D01*
X45251975Y-72442635D01*
X45251973Y-72442635D01*
X45251973Y-72442636D01*
X45164526Y-72493124D01*
X45164523Y-72493126D01*
X45093126Y-72564523D01*
X45093124Y-72564526D01*
X45054574Y-72631297D01*
X45042635Y-72651975D01*
X45016500Y-72749511D01*
X41399962Y-72749511D01*
X41361761Y-72233801D01*
X48199375Y-72233801D01*
X48199375Y-72334779D01*
X48225510Y-72432315D01*
X48275999Y-72519764D01*
X48347401Y-72591166D01*
X48434850Y-72641655D01*
X48532386Y-72667790D01*
X48532389Y-72667790D01*
X48633361Y-72667790D01*
X48633364Y-72667790D01*
X48730900Y-72641655D01*
X48818349Y-72591166D01*
X48889751Y-72519764D01*
X48940240Y-72432315D01*
X48966375Y-72334779D01*
X48966375Y-72233801D01*
X48940240Y-72136265D01*
X48889751Y-72048816D01*
X48818349Y-71977414D01*
X48730900Y-71926925D01*
X48633364Y-71900790D01*
X48532386Y-71900790D01*
X48434850Y-71926925D01*
X48434848Y-71926925D01*
X48434848Y-71926926D01*
X48347401Y-71977414D01*
X48347398Y-71977416D01*
X48276001Y-72048813D01*
X48275999Y-72048816D01*
X48225510Y-72136265D01*
X48199375Y-72233801D01*
X41361761Y-72233801D01*
X41296257Y-71349511D01*
X43416500Y-71349511D01*
X43416500Y-71450489D01*
X43442635Y-71548025D01*
X43493124Y-71635474D01*
X43564526Y-71706876D01*
X43651975Y-71757365D01*
X43749511Y-71783500D01*
X43749514Y-71783500D01*
X43850486Y-71783500D01*
X43850489Y-71783500D01*
X43948025Y-71757365D01*
X44035474Y-71706876D01*
X44106876Y-71635474D01*
X44156507Y-71549511D01*
X49039000Y-71549511D01*
X49039000Y-71650489D01*
X49065135Y-71748025D01*
X49115624Y-71835474D01*
X49187026Y-71906876D01*
X49274475Y-71957365D01*
X49372011Y-71983500D01*
X49372014Y-71983500D01*
X49472986Y-71983500D01*
X49472989Y-71983500D01*
X49570525Y-71957365D01*
X49657974Y-71906876D01*
X49729376Y-71835474D01*
X49779865Y-71748025D01*
X49806000Y-71650489D01*
X49806000Y-71549511D01*
X49779865Y-71451975D01*
X49729376Y-71364526D01*
X49657974Y-71293124D01*
X49570525Y-71242635D01*
X49472989Y-71216500D01*
X49372011Y-71216500D01*
X49274475Y-71242635D01*
X49274473Y-71242635D01*
X49274473Y-71242636D01*
X49187026Y-71293124D01*
X49187023Y-71293126D01*
X49115626Y-71364523D01*
X49115624Y-71364526D01*
X49065994Y-71450488D01*
X49065135Y-71451975D01*
X49039000Y-71549511D01*
X44156507Y-71549511D01*
X44157365Y-71548025D01*
X44162271Y-71529715D01*
X44167745Y-71509289D01*
X44172793Y-71490445D01*
X44183500Y-71450489D01*
X44183500Y-71349511D01*
X44157365Y-71251975D01*
X44106876Y-71164526D01*
X44035474Y-71093124D01*
X43948025Y-71042635D01*
X43850489Y-71016500D01*
X43749511Y-71016500D01*
X43651975Y-71042635D01*
X43651973Y-71042635D01*
X43651973Y-71042636D01*
X43564526Y-71093124D01*
X43564523Y-71093126D01*
X43493126Y-71164523D01*
X43493124Y-71164526D01*
X43442635Y-71251975D01*
X43416500Y-71349511D01*
X41296257Y-71349511D01*
X41236997Y-70549511D01*
X50816500Y-70549511D01*
X50816500Y-70650489D01*
X50842635Y-70748025D01*
X50893124Y-70835474D01*
X50964526Y-70906876D01*
X51051975Y-70957365D01*
X51149511Y-70983500D01*
X51149514Y-70983500D01*
X51250486Y-70983500D01*
X51250489Y-70983500D01*
X51348025Y-70957365D01*
X51435474Y-70906876D01*
X51506876Y-70835474D01*
X51557365Y-70748025D01*
X51583500Y-70650489D01*
X51583500Y-70549511D01*
X51557365Y-70451975D01*
X51506876Y-70364526D01*
X51491861Y-70349511D01*
X57416500Y-70349511D01*
X57416500Y-70450489D01*
X57442635Y-70548025D01*
X57493124Y-70635474D01*
X57564526Y-70706876D01*
X57651975Y-70757365D01*
X57749511Y-70783500D01*
X57749514Y-70783500D01*
X57850486Y-70783500D01*
X57850489Y-70783500D01*
X57948025Y-70757365D01*
X58035474Y-70706876D01*
X58106876Y-70635474D01*
X58157365Y-70548025D01*
X58183500Y-70450489D01*
X58183500Y-70349511D01*
X58157365Y-70251975D01*
X58106876Y-70164526D01*
X58035474Y-70093124D01*
X57948025Y-70042635D01*
X57850489Y-70016500D01*
X57749511Y-70016500D01*
X57651975Y-70042635D01*
X57651973Y-70042635D01*
X57651973Y-70042636D01*
X57564526Y-70093124D01*
X57564523Y-70093126D01*
X57493126Y-70164523D01*
X57493124Y-70164526D01*
X57442635Y-70251975D01*
X57416500Y-70349511D01*
X51491861Y-70349511D01*
X51435474Y-70293124D01*
X51348025Y-70242635D01*
X51250489Y-70216500D01*
X51149511Y-70216500D01*
X51051975Y-70242635D01*
X51051973Y-70242635D01*
X51051973Y-70242636D01*
X50964526Y-70293124D01*
X50964523Y-70293126D01*
X50893126Y-70364523D01*
X50893124Y-70364526D01*
X50842635Y-70451975D01*
X50816500Y-70549511D01*
X41236997Y-70549511D01*
X41205899Y-70129697D01*
X41209785Y-70088456D01*
X41233304Y-70000685D01*
X41233304Y-69899707D01*
X41207169Y-69802171D01*
X41192059Y-69775999D01*
X41175785Y-69723162D01*
X41155514Y-69449511D01*
X42116500Y-69449511D01*
X42116500Y-69550489D01*
X42142635Y-69648025D01*
X42193124Y-69735474D01*
X42264526Y-69806876D01*
X42351975Y-69857365D01*
X42449511Y-69883500D01*
X42449514Y-69883500D01*
X42550486Y-69883500D01*
X42550489Y-69883500D01*
X42648025Y-69857365D01*
X42735474Y-69806876D01*
X42806876Y-69735474D01*
X42842073Y-69674511D01*
X47116500Y-69674511D01*
X47116500Y-69775489D01*
X47142635Y-69873025D01*
X47193124Y-69960474D01*
X47264526Y-70031876D01*
X47351975Y-70082365D01*
X47449511Y-70108500D01*
X47449514Y-70108500D01*
X47550486Y-70108500D01*
X47550489Y-70108500D01*
X47648025Y-70082365D01*
X47735474Y-70031876D01*
X47806876Y-69960474D01*
X47857365Y-69873025D01*
X47883500Y-69775489D01*
X47883500Y-69674511D01*
X47857365Y-69576975D01*
X47806876Y-69489526D01*
X47735474Y-69418124D01*
X47717234Y-69407593D01*
X48716499Y-69407593D01*
X48716500Y-69407596D01*
X48716500Y-69407597D01*
X48742635Y-69505133D01*
X48793124Y-69592582D01*
X48864526Y-69663984D01*
X48951975Y-69714473D01*
X49049511Y-69740608D01*
X49049514Y-69740608D01*
X49150486Y-69740608D01*
X49150489Y-69740608D01*
X49248025Y-69714473D01*
X49335474Y-69663984D01*
X49406876Y-69592582D01*
X49431743Y-69549511D01*
X53216500Y-69549511D01*
X53216500Y-69650489D01*
X53242635Y-69748025D01*
X53293124Y-69835474D01*
X53364526Y-69906876D01*
X53451975Y-69957365D01*
X53549511Y-69983500D01*
X53549514Y-69983500D01*
X53650486Y-69983500D01*
X53650489Y-69983500D01*
X53748025Y-69957365D01*
X53835474Y-69906876D01*
X53906876Y-69835474D01*
X53957365Y-69748025D01*
X53983500Y-69650489D01*
X53983500Y-69549511D01*
X53957365Y-69451975D01*
X53906876Y-69364526D01*
X53835474Y-69293124D01*
X53748025Y-69242635D01*
X53650489Y-69216500D01*
X53549511Y-69216500D01*
X53451975Y-69242635D01*
X53451973Y-69242635D01*
X53451973Y-69242636D01*
X53364526Y-69293124D01*
X53364523Y-69293126D01*
X53293126Y-69364523D01*
X53293124Y-69364526D01*
X53244058Y-69449511D01*
X53242635Y-69451975D01*
X53216500Y-69549511D01*
X49431743Y-69549511D01*
X49457365Y-69505133D01*
X49483500Y-69407597D01*
X49483500Y-69306619D01*
X49457365Y-69209083D01*
X49406876Y-69121634D01*
X49335474Y-69050232D01*
X49248025Y-68999743D01*
X49150489Y-68973608D01*
X49049511Y-68973608D01*
X48951975Y-68999743D01*
X48951973Y-68999743D01*
X48951973Y-68999744D01*
X48864526Y-69050232D01*
X48864523Y-69050234D01*
X48793126Y-69121631D01*
X48793124Y-69121634D01*
X48742635Y-69209083D01*
X48716500Y-69306619D01*
X48716500Y-69306621D01*
X48716500Y-69407592D01*
X48716499Y-69407593D01*
X47717234Y-69407593D01*
X47648025Y-69367635D01*
X47550489Y-69341500D01*
X47449511Y-69341500D01*
X47351975Y-69367635D01*
X47351973Y-69367635D01*
X47351973Y-69367636D01*
X47264526Y-69418124D01*
X47264523Y-69418126D01*
X47193126Y-69489523D01*
X47193124Y-69489526D01*
X47157929Y-69550486D01*
X47142635Y-69576975D01*
X47116500Y-69674511D01*
X42842073Y-69674511D01*
X42857365Y-69648025D01*
X42883500Y-69550489D01*
X42883500Y-69449511D01*
X42857365Y-69351975D01*
X42806876Y-69264526D01*
X42735474Y-69193124D01*
X42648025Y-69142635D01*
X42550489Y-69116500D01*
X42449511Y-69116500D01*
X42351975Y-69142635D01*
X42351973Y-69142635D01*
X42351973Y-69142636D01*
X42264526Y-69193124D01*
X42264523Y-69193126D01*
X42193126Y-69264523D01*
X42193124Y-69264526D01*
X42142635Y-69351975D01*
X42116500Y-69449511D01*
X41155514Y-69449511D01*
X41103662Y-68749511D01*
X49616500Y-68749511D01*
X49616500Y-68850489D01*
X49642635Y-68948025D01*
X49693124Y-69035474D01*
X49764526Y-69106876D01*
X49851975Y-69157365D01*
X49949511Y-69183500D01*
X49949514Y-69183500D01*
X50050486Y-69183500D01*
X50050489Y-69183500D01*
X50148025Y-69157365D01*
X50235474Y-69106876D01*
X50306876Y-69035474D01*
X50357365Y-68948025D01*
X50383500Y-68850489D01*
X50383500Y-68749511D01*
X50357365Y-68651975D01*
X50306876Y-68564526D01*
X50235474Y-68493124D01*
X50148025Y-68442635D01*
X50050489Y-68416500D01*
X49949511Y-68416500D01*
X49851975Y-68442635D01*
X49851973Y-68442635D01*
X49851973Y-68442636D01*
X49764526Y-68493124D01*
X49764523Y-68493126D01*
X49693126Y-68564523D01*
X49693124Y-68564526D01*
X49642635Y-68651975D01*
X49616500Y-68749511D01*
X41103662Y-68749511D01*
X41070992Y-68308457D01*
X52857554Y-68308457D01*
X52857554Y-68409435D01*
X52883689Y-68506971D01*
X52934178Y-68594420D01*
X53005580Y-68665822D01*
X53093029Y-68716311D01*
X53190565Y-68742446D01*
X53190568Y-68742446D01*
X53291540Y-68742446D01*
X53291543Y-68742446D01*
X53389079Y-68716311D01*
X53476528Y-68665822D01*
X53547930Y-68594420D01*
X53598419Y-68506971D01*
X53624554Y-68409435D01*
X53624554Y-68407500D01*
X53625015Y-68405928D01*
X53625615Y-68401375D01*
X53626325Y-68401468D01*
X53644239Y-68340461D01*
X53697043Y-68294706D01*
X53748554Y-68283500D01*
X53819782Y-68283500D01*
X53819783Y-68283499D01*
X53956662Y-68256273D01*
X54085601Y-68202864D01*
X54201642Y-68125328D01*
X54300328Y-68026642D01*
X54377864Y-67910601D01*
X54431273Y-67781662D01*
X54458500Y-67644781D01*
X54458500Y-67505219D01*
X54458499Y-67505214D01*
X55041500Y-67505214D01*
X55041500Y-67644785D01*
X55068725Y-67781654D01*
X55068727Y-67781662D01*
X55122134Y-67910597D01*
X55122139Y-67910607D01*
X55199671Y-68026641D01*
X55199674Y-68026645D01*
X55298354Y-68125325D01*
X55298358Y-68125328D01*
X55414392Y-68202860D01*
X55414396Y-68202862D01*
X55414399Y-68202864D01*
X55543338Y-68256273D01*
X55680214Y-68283499D01*
X55680218Y-68283500D01*
X55680219Y-68283500D01*
X55819782Y-68283500D01*
X55819783Y-68283499D01*
X55956662Y-68256273D01*
X56085601Y-68202864D01*
X56201642Y-68125328D01*
X56300328Y-68026642D01*
X56377864Y-67910601D01*
X56431273Y-67781662D01*
X56458500Y-67644781D01*
X56458500Y-67505219D01*
X56458499Y-67505214D01*
X57041500Y-67505214D01*
X57041500Y-67644785D01*
X57068725Y-67781654D01*
X57068727Y-67781662D01*
X57122134Y-67910597D01*
X57122139Y-67910607D01*
X57199671Y-68026641D01*
X57199674Y-68026645D01*
X57298354Y-68125325D01*
X57298358Y-68125328D01*
X57414392Y-68202860D01*
X57414396Y-68202862D01*
X57414399Y-68202864D01*
X57543338Y-68256273D01*
X57680214Y-68283499D01*
X57680218Y-68283500D01*
X57680219Y-68283500D01*
X57819782Y-68283500D01*
X57819783Y-68283499D01*
X57956662Y-68256273D01*
X58085601Y-68202864D01*
X58201642Y-68125328D01*
X58300328Y-68026642D01*
X58377864Y-67910601D01*
X58431273Y-67781662D01*
X58458500Y-67644781D01*
X58458500Y-67505219D01*
X58458499Y-67505214D01*
X59041500Y-67505214D01*
X59041500Y-67644785D01*
X59068725Y-67781654D01*
X59068727Y-67781662D01*
X59122134Y-67910597D01*
X59122139Y-67910607D01*
X59199671Y-68026641D01*
X59199674Y-68026645D01*
X59298354Y-68125325D01*
X59298358Y-68125328D01*
X59414392Y-68202860D01*
X59414396Y-68202862D01*
X59414399Y-68202864D01*
X59543338Y-68256273D01*
X59680214Y-68283499D01*
X59680218Y-68283500D01*
X59680219Y-68283500D01*
X59819782Y-68283500D01*
X59819783Y-68283499D01*
X59956662Y-68256273D01*
X60085601Y-68202864D01*
X60201642Y-68125328D01*
X60300328Y-68026642D01*
X60377864Y-67910601D01*
X60431273Y-67781662D01*
X60458500Y-67644781D01*
X60458500Y-67505219D01*
X60431273Y-67368338D01*
X60377864Y-67239399D01*
X60377862Y-67239396D01*
X60377860Y-67239392D01*
X60300328Y-67123358D01*
X60300325Y-67123354D01*
X60201645Y-67024674D01*
X60201641Y-67024671D01*
X60085607Y-66947139D01*
X60085597Y-66947134D01*
X59956662Y-66893727D01*
X59956654Y-66893725D01*
X59819785Y-66866500D01*
X59819781Y-66866500D01*
X59680219Y-66866500D01*
X59680214Y-66866500D01*
X59543345Y-66893725D01*
X59543337Y-66893727D01*
X59414402Y-66947134D01*
X59414392Y-66947139D01*
X59298358Y-67024671D01*
X59298354Y-67024674D01*
X59199674Y-67123354D01*
X59199671Y-67123358D01*
X59122139Y-67239392D01*
X59122134Y-67239402D01*
X59068727Y-67368337D01*
X59068725Y-67368345D01*
X59041500Y-67505214D01*
X58458499Y-67505214D01*
X58431273Y-67368338D01*
X58377864Y-67239399D01*
X58377862Y-67239396D01*
X58377860Y-67239392D01*
X58300328Y-67123358D01*
X58300325Y-67123354D01*
X58201645Y-67024674D01*
X58201641Y-67024671D01*
X58085607Y-66947139D01*
X58085597Y-66947134D01*
X57956662Y-66893727D01*
X57956654Y-66893725D01*
X57819785Y-66866500D01*
X57819781Y-66866500D01*
X57680219Y-66866500D01*
X57680214Y-66866500D01*
X57543345Y-66893725D01*
X57543337Y-66893727D01*
X57414402Y-66947134D01*
X57414392Y-66947139D01*
X57298358Y-67024671D01*
X57298354Y-67024674D01*
X57199674Y-67123354D01*
X57199671Y-67123358D01*
X57122139Y-67239392D01*
X57122134Y-67239402D01*
X57068727Y-67368337D01*
X57068725Y-67368345D01*
X57041500Y-67505214D01*
X56458499Y-67505214D01*
X56431273Y-67368338D01*
X56377864Y-67239399D01*
X56377862Y-67239396D01*
X56377860Y-67239392D01*
X56300328Y-67123358D01*
X56300325Y-67123354D01*
X56201645Y-67024674D01*
X56201641Y-67024671D01*
X56085607Y-66947139D01*
X56085597Y-66947134D01*
X55956662Y-66893727D01*
X55956654Y-66893725D01*
X55819785Y-66866500D01*
X55819781Y-66866500D01*
X55680219Y-66866500D01*
X55680214Y-66866500D01*
X55543345Y-66893725D01*
X55543337Y-66893727D01*
X55414402Y-66947134D01*
X55414392Y-66947139D01*
X55298358Y-67024671D01*
X55298354Y-67024674D01*
X55199674Y-67123354D01*
X55199671Y-67123358D01*
X55122139Y-67239392D01*
X55122134Y-67239402D01*
X55068727Y-67368337D01*
X55068725Y-67368345D01*
X55041500Y-67505214D01*
X54458499Y-67505214D01*
X54431273Y-67368338D01*
X54377864Y-67239399D01*
X54377862Y-67239396D01*
X54377860Y-67239392D01*
X54300328Y-67123358D01*
X54300325Y-67123354D01*
X54201645Y-67024674D01*
X54201641Y-67024671D01*
X54085607Y-66947139D01*
X54085597Y-66947134D01*
X53956662Y-66893727D01*
X53956654Y-66893725D01*
X53819785Y-66866500D01*
X53819781Y-66866500D01*
X53680219Y-66866500D01*
X53680214Y-66866500D01*
X53543345Y-66893725D01*
X53543337Y-66893727D01*
X53414402Y-66947134D01*
X53414392Y-66947139D01*
X53298358Y-67024671D01*
X53298354Y-67024674D01*
X53199674Y-67123354D01*
X53199671Y-67123358D01*
X53122139Y-67239392D01*
X53122134Y-67239402D01*
X53068727Y-67368337D01*
X53068725Y-67368345D01*
X53041500Y-67505214D01*
X53041500Y-67644785D01*
X53068725Y-67781654D01*
X53068727Y-67781662D01*
X53105315Y-67869993D01*
X53112784Y-67939463D01*
X53081509Y-68001942D01*
X53052756Y-68024832D01*
X53005583Y-68052068D01*
X53005577Y-68052072D01*
X52934180Y-68123469D01*
X52934178Y-68123472D01*
X52883689Y-68210921D01*
X52857554Y-68308457D01*
X41070992Y-68308457D01*
X41057289Y-68123472D01*
X41011719Y-67508287D01*
X41011491Y-67505214D01*
X51041500Y-67505214D01*
X51041500Y-67644785D01*
X51068725Y-67781654D01*
X51068727Y-67781662D01*
X51122134Y-67910597D01*
X51122139Y-67910607D01*
X51199671Y-68026641D01*
X51199674Y-68026645D01*
X51298354Y-68125325D01*
X51298358Y-68125328D01*
X51414392Y-68202860D01*
X51414396Y-68202862D01*
X51414399Y-68202864D01*
X51543338Y-68256273D01*
X51680214Y-68283499D01*
X51680218Y-68283500D01*
X51680219Y-68283500D01*
X51819782Y-68283500D01*
X51819783Y-68283499D01*
X51956662Y-68256273D01*
X52085601Y-68202864D01*
X52089325Y-68200375D01*
X52094038Y-68197227D01*
X52094038Y-68197226D01*
X52201642Y-68125328D01*
X52300328Y-68026642D01*
X52377864Y-67910601D01*
X52431273Y-67781662D01*
X52458500Y-67644781D01*
X52458500Y-67505219D01*
X52431273Y-67368338D01*
X52377864Y-67239399D01*
X52377862Y-67239396D01*
X52377860Y-67239392D01*
X52300328Y-67123358D01*
X52300325Y-67123354D01*
X52201645Y-67024674D01*
X52201641Y-67024671D01*
X52085607Y-66947139D01*
X52085597Y-66947134D01*
X51956662Y-66893727D01*
X51956654Y-66893725D01*
X51819785Y-66866500D01*
X51819781Y-66866500D01*
X51680219Y-66866500D01*
X51680214Y-66866500D01*
X51543345Y-66893725D01*
X51543337Y-66893727D01*
X51414402Y-66947134D01*
X51414392Y-66947139D01*
X51298358Y-67024671D01*
X51298354Y-67024674D01*
X51199674Y-67123354D01*
X51199671Y-67123358D01*
X51122139Y-67239392D01*
X51122134Y-67239402D01*
X51068727Y-67368337D01*
X51068725Y-67368345D01*
X51041500Y-67505214D01*
X41011491Y-67505214D01*
X40946931Y-66633660D01*
X40961609Y-66565350D01*
X41010889Y-66515819D01*
X41070592Y-66500500D01*
X60295572Y-66500500D01*
X60304418Y-66500816D01*
G37*
%TD.AperFunction*%
%TD*%
%TA.AperFunction,Conductor*%
%TO.N,V_BUS_3V*%
G36*
X33324827Y-66520185D02*
G01*
X33370582Y-66572989D01*
X33380526Y-66642147D01*
X33351501Y-66705703D01*
X33345469Y-66712181D01*
X33293126Y-66764523D01*
X33293124Y-66764526D01*
X33242635Y-66851975D01*
X33216500Y-66949511D01*
X33216500Y-67050489D01*
X33242635Y-67148025D01*
X33293124Y-67235474D01*
X33364526Y-67306876D01*
X33451975Y-67357365D01*
X33549511Y-67383500D01*
X33549514Y-67383500D01*
X33650486Y-67383500D01*
X33650489Y-67383500D01*
X33748025Y-67357365D01*
X33835474Y-67306876D01*
X33906876Y-67235474D01*
X33957365Y-67148025D01*
X33983500Y-67050489D01*
X33983500Y-66949511D01*
X33957365Y-66851975D01*
X33906876Y-66764526D01*
X33854531Y-66712181D01*
X33821046Y-66650858D01*
X33826030Y-66581166D01*
X33867902Y-66525233D01*
X33933366Y-66500816D01*
X33942212Y-66500500D01*
X40521920Y-66500500D01*
X40588959Y-66520185D01*
X40634714Y-66572989D01*
X40645580Y-66615338D01*
X40648463Y-66654247D01*
X40719341Y-67611116D01*
X40704663Y-67679426D01*
X40655383Y-67728957D01*
X40587148Y-67743982D01*
X40521622Y-67719731D01*
X40507999Y-67707957D01*
X40444168Y-67644126D01*
X40444166Y-67644124D01*
X40356717Y-67593635D01*
X40259181Y-67567500D01*
X40158203Y-67567500D01*
X40060667Y-67593635D01*
X40060665Y-67593635D01*
X40060665Y-67593636D01*
X39973218Y-67644124D01*
X39973215Y-67644126D01*
X39901818Y-67715523D01*
X39901816Y-67715526D01*
X39890300Y-67735473D01*
X39851327Y-67802975D01*
X39825192Y-67900511D01*
X39825192Y-68001489D01*
X39851327Y-68099025D01*
X39901816Y-68186474D01*
X39973218Y-68257876D01*
X40060667Y-68308365D01*
X40158203Y-68334500D01*
X40158206Y-68334500D01*
X40259178Y-68334500D01*
X40259181Y-68334500D01*
X40356717Y-68308365D01*
X40444166Y-68257876D01*
X40515568Y-68186474D01*
X40532636Y-68156910D01*
X40583201Y-68108695D01*
X40651808Y-68095471D01*
X40716673Y-68121438D01*
X40757202Y-68178352D01*
X40763684Y-68209750D01*
X40806411Y-68786563D01*
X40791733Y-68854873D01*
X40742453Y-68904404D01*
X40682750Y-68919723D01*
X40656288Y-68919723D01*
X40558752Y-68945858D01*
X40558750Y-68945858D01*
X40558750Y-68945859D01*
X40471303Y-68996347D01*
X40471300Y-68996349D01*
X40399903Y-69067746D01*
X40399901Y-69067749D01*
X40354358Y-69146632D01*
X40349412Y-69155198D01*
X40323277Y-69252734D01*
X40323277Y-69353712D01*
X40349412Y-69451248D01*
X40399901Y-69538697D01*
X40471303Y-69610099D01*
X40471309Y-69610102D01*
X40476525Y-69614105D01*
X40517727Y-69670533D01*
X40521882Y-69740279D01*
X40508425Y-69774480D01*
X40492441Y-69802163D01*
X40492440Y-69802166D01*
X40491178Y-69806876D01*
X40466304Y-69899707D01*
X40466304Y-70000685D01*
X40492439Y-70098221D01*
X40542928Y-70185670D01*
X40614330Y-70257072D01*
X40701779Y-70307561D01*
X40799315Y-70333696D01*
X40799318Y-70333696D01*
X40805860Y-70333696D01*
X40872899Y-70353381D01*
X40918654Y-70406185D01*
X40929521Y-70448536D01*
X41199896Y-74098600D01*
X41185218Y-74166910D01*
X41135938Y-74216441D01*
X41108333Y-74227533D01*
X41051975Y-74242635D01*
X41051974Y-74242635D01*
X41051972Y-74242636D01*
X40964526Y-74293124D01*
X40964523Y-74293126D01*
X40893126Y-74364523D01*
X40893124Y-74364526D01*
X40842635Y-74451975D01*
X40816500Y-74549511D01*
X40816500Y-74650489D01*
X40842635Y-74748025D01*
X40893124Y-74835474D01*
X40964526Y-74906876D01*
X41051975Y-74957365D01*
X41149511Y-74983500D01*
X41149514Y-74983500D01*
X41250486Y-74983500D01*
X41250489Y-74983500D01*
X41348025Y-74957365D01*
X41435474Y-74906876D01*
X41506876Y-74835474D01*
X41536755Y-74783721D01*
X41587322Y-74735506D01*
X41655929Y-74722283D01*
X41720794Y-74748251D01*
X41740519Y-74767700D01*
X42078997Y-75185820D01*
X42899999Y-76199999D01*
X42900000Y-76200000D01*
X43815629Y-76200000D01*
X43882668Y-76219685D01*
X43928423Y-76272489D01*
X43938367Y-76341647D01*
X43909342Y-76405203D01*
X43858733Y-76437726D01*
X43859479Y-76439527D01*
X43851975Y-76442634D01*
X43764526Y-76493124D01*
X43764523Y-76493126D01*
X43693126Y-76564523D01*
X43693124Y-76564526D01*
X43644491Y-76648761D01*
X43642635Y-76651975D01*
X43616500Y-76749511D01*
X43616500Y-76850489D01*
X43642635Y-76948025D01*
X43693124Y-77035474D01*
X43764526Y-77106876D01*
X43851975Y-77157365D01*
X43949511Y-77183500D01*
X43949514Y-77183500D01*
X44050486Y-77183500D01*
X44050489Y-77183500D01*
X44148025Y-77157365D01*
X44235474Y-77106876D01*
X44306876Y-77035474D01*
X44357365Y-76948025D01*
X44383500Y-76850489D01*
X44383500Y-76749511D01*
X44357365Y-76651975D01*
X44306876Y-76564526D01*
X44235474Y-76493124D01*
X44159935Y-76449511D01*
X44148024Y-76442634D01*
X44140521Y-76439527D01*
X44141486Y-76437196D01*
X44092619Y-76407412D01*
X44062088Y-76344565D01*
X44070382Y-76275190D01*
X44114866Y-76221311D01*
X44181417Y-76200035D01*
X44184371Y-76200000D01*
X44700000Y-76200000D01*
X44700000Y-75124000D01*
X44719685Y-75056961D01*
X44772489Y-75011206D01*
X44824000Y-75000000D01*
X46176000Y-75000000D01*
X46243039Y-75019685D01*
X46288794Y-75072489D01*
X46300000Y-75124000D01*
X46300000Y-82375500D01*
X46280315Y-82442539D01*
X46227511Y-82488294D01*
X46176000Y-82499500D01*
X29592212Y-82499500D01*
X29525173Y-82479815D01*
X29479418Y-82427011D01*
X29469474Y-82357853D01*
X29498499Y-82294297D01*
X29504531Y-82287819D01*
X29528455Y-82263895D01*
X29556876Y-82235474D01*
X29607365Y-82148025D01*
X29633500Y-82050489D01*
X29633500Y-81949511D01*
X29607365Y-81851975D01*
X29556876Y-81764526D01*
X29485474Y-81693124D01*
X29398025Y-81642635D01*
X29300489Y-81616500D01*
X29199511Y-81616500D01*
X29101975Y-81642635D01*
X29101973Y-81642635D01*
X29101973Y-81642636D01*
X29014526Y-81693124D01*
X29014523Y-81693126D01*
X28943126Y-81764523D01*
X28943124Y-81764526D01*
X28892635Y-81851975D01*
X28866500Y-81949511D01*
X28866500Y-82050489D01*
X28892635Y-82148025D01*
X28943124Y-82235474D01*
X28943126Y-82235476D01*
X28995469Y-82287819D01*
X29028954Y-82349142D01*
X29023970Y-82418834D01*
X28982098Y-82474767D01*
X28916634Y-82499184D01*
X28907788Y-82499500D01*
X20604429Y-82499500D01*
X20595582Y-82499184D01*
X20398670Y-82485099D01*
X20388120Y-82483888D01*
X20345021Y-82477062D01*
X20338060Y-82475755D01*
X20168287Y-82438824D01*
X20156324Y-82435588D01*
X20123171Y-82424815D01*
X20118159Y-82423067D01*
X19946277Y-82358959D01*
X19933322Y-82353265D01*
X19921787Y-82347388D01*
X19918686Y-82345751D01*
X19847491Y-82306876D01*
X19743029Y-82249835D01*
X19728146Y-82240271D01*
X19559646Y-82114133D01*
X19546276Y-82102547D01*
X19397452Y-81953723D01*
X19385866Y-81940353D01*
X19259724Y-81771848D01*
X19250166Y-81756974D01*
X19154217Y-81581255D01*
X19152638Y-81578263D01*
X19146726Y-81566661D01*
X19141045Y-81553736D01*
X19076930Y-81381837D01*
X19075183Y-81376827D01*
X19064403Y-81343649D01*
X19061180Y-81331734D01*
X19024239Y-81161919D01*
X19022939Y-81154997D01*
X19016108Y-81111866D01*
X19014900Y-81101338D01*
X19000816Y-80904418D01*
X19000500Y-80895572D01*
X19000500Y-80424442D01*
X21779600Y-80424442D01*
X21779600Y-80566357D01*
X21807282Y-80705525D01*
X21807284Y-80705533D01*
X21861588Y-80836633D01*
X21861593Y-80836643D01*
X21940428Y-80954627D01*
X21940431Y-80954631D01*
X22040768Y-81054968D01*
X22040772Y-81054971D01*
X22158756Y-81133806D01*
X22158760Y-81133808D01*
X22158763Y-81133810D01*
X22289867Y-81188116D01*
X22429042Y-81215799D01*
X22429046Y-81215800D01*
X22429047Y-81215800D01*
X22570954Y-81215800D01*
X22570955Y-81215799D01*
X22710133Y-81188116D01*
X22841237Y-81133810D01*
X22959228Y-81054971D01*
X23059571Y-80954628D01*
X23138410Y-80836637D01*
X23192716Y-80705533D01*
X23220400Y-80566353D01*
X23220400Y-80424447D01*
X23220399Y-80424442D01*
X24779600Y-80424442D01*
X24779600Y-80566357D01*
X24807282Y-80705525D01*
X24807284Y-80705533D01*
X24861588Y-80836633D01*
X24861593Y-80836643D01*
X24940428Y-80954627D01*
X24940431Y-80954631D01*
X25040768Y-81054968D01*
X25040772Y-81054971D01*
X25158756Y-81133806D01*
X25158760Y-81133808D01*
X25158763Y-81133810D01*
X25289867Y-81188116D01*
X25429042Y-81215799D01*
X25429046Y-81215800D01*
X25429047Y-81215800D01*
X25570954Y-81215800D01*
X25570955Y-81215799D01*
X25710133Y-81188116D01*
X25841237Y-81133810D01*
X25959228Y-81054971D01*
X26059571Y-80954628D01*
X26138410Y-80836637D01*
X26192716Y-80705533D01*
X26220400Y-80566353D01*
X26220400Y-80449511D01*
X27116500Y-80449511D01*
X27116500Y-80550489D01*
X27142635Y-80648025D01*
X27193124Y-80735474D01*
X27264526Y-80806876D01*
X27351975Y-80857365D01*
X27449511Y-80883500D01*
X27449514Y-80883500D01*
X27550486Y-80883500D01*
X27550489Y-80883500D01*
X27648025Y-80857365D01*
X27735474Y-80806876D01*
X27806876Y-80735474D01*
X27857365Y-80648025D01*
X27883500Y-80550489D01*
X27883500Y-80449511D01*
X30866500Y-80449511D01*
X30866500Y-80550489D01*
X30892635Y-80648025D01*
X30943124Y-80735474D01*
X31014526Y-80806876D01*
X31101975Y-80857365D01*
X31199511Y-80883500D01*
X31199514Y-80883500D01*
X31300486Y-80883500D01*
X31300489Y-80883500D01*
X31398025Y-80857365D01*
X31485474Y-80806876D01*
X31556876Y-80735474D01*
X31583976Y-80688534D01*
X31634543Y-80640320D01*
X31703150Y-80627096D01*
X31768014Y-80653064D01*
X31794465Y-80681644D01*
X31799316Y-80688904D01*
X31799319Y-80688908D01*
X31903194Y-80792783D01*
X31903198Y-80792786D01*
X32025342Y-80874401D01*
X32025348Y-80874404D01*
X32025349Y-80874405D01*
X32161076Y-80930625D01*
X32305158Y-80959284D01*
X32305162Y-80959285D01*
X32305163Y-80959285D01*
X32452074Y-80959285D01*
X32452075Y-80959284D01*
X32596160Y-80930625D01*
X32731887Y-80874405D01*
X32854038Y-80792786D01*
X32947313Y-80699511D01*
X33616500Y-80699511D01*
X33616500Y-80800489D01*
X33642635Y-80898025D01*
X33693124Y-80985474D01*
X33764526Y-81056876D01*
X33851975Y-81107365D01*
X33949511Y-81133500D01*
X33949514Y-81133500D01*
X34050486Y-81133500D01*
X34050489Y-81133500D01*
X34148025Y-81107365D01*
X34235474Y-81056876D01*
X34306876Y-80985474D01*
X34357365Y-80898025D01*
X34383500Y-80800489D01*
X34383500Y-80699511D01*
X34357365Y-80601975D01*
X34306876Y-80514526D01*
X34235474Y-80443124D01*
X34148025Y-80392635D01*
X34050489Y-80366500D01*
X33949511Y-80366500D01*
X33851975Y-80392635D01*
X33851973Y-80392635D01*
X33851973Y-80392636D01*
X33764526Y-80443124D01*
X33764523Y-80443126D01*
X33693126Y-80514523D01*
X33693124Y-80514526D01*
X33662967Y-80566760D01*
X33642635Y-80601975D01*
X33616500Y-80699511D01*
X32947313Y-80699511D01*
X32957919Y-80688905D01*
X32999219Y-80627096D01*
X33002295Y-80622493D01*
X33039534Y-80566760D01*
X33039534Y-80566759D01*
X33039538Y-80566754D01*
X33095758Y-80431027D01*
X33124418Y-80286940D01*
X33124418Y-80140030D01*
X33101946Y-80027051D01*
X33094570Y-79989969D01*
X33096273Y-79989630D01*
X33095714Y-79928023D01*
X33132953Y-79868905D01*
X33153001Y-79854491D01*
X33235474Y-79806876D01*
X33306876Y-79735474D01*
X33357365Y-79648025D01*
X33382001Y-79556081D01*
X33418365Y-79496423D01*
X33481212Y-79465894D01*
X33549226Y-79473615D01*
X33597917Y-79493784D01*
X33741999Y-79522443D01*
X33742003Y-79522444D01*
X33742004Y-79522444D01*
X33888915Y-79522444D01*
X33888916Y-79522443D01*
X34033001Y-79493784D01*
X34168728Y-79437564D01*
X34290879Y-79355945D01*
X34394760Y-79252064D01*
X34396466Y-79249511D01*
X40316500Y-79249511D01*
X40316500Y-79350489D01*
X40342635Y-79448025D01*
X40393124Y-79535474D01*
X40464526Y-79606876D01*
X40551975Y-79657365D01*
X40649511Y-79683500D01*
X40649514Y-79683500D01*
X40750486Y-79683500D01*
X40750489Y-79683500D01*
X40848025Y-79657365D01*
X40935474Y-79606876D01*
X41006876Y-79535474D01*
X41057365Y-79448025D01*
X41083500Y-79350489D01*
X41083500Y-79249511D01*
X41057365Y-79151975D01*
X41055942Y-79149511D01*
X41816500Y-79149511D01*
X41816500Y-79250489D01*
X41842635Y-79348025D01*
X41893124Y-79435474D01*
X41964526Y-79506876D01*
X42051975Y-79557365D01*
X42149511Y-79583500D01*
X42149514Y-79583500D01*
X42250486Y-79583500D01*
X42250489Y-79583500D01*
X42348025Y-79557365D01*
X42435474Y-79506876D01*
X42506876Y-79435474D01*
X42557365Y-79348025D01*
X42583500Y-79250489D01*
X42583500Y-79149511D01*
X42557365Y-79051975D01*
X42506876Y-78964526D01*
X42435474Y-78893124D01*
X42348025Y-78842635D01*
X42250489Y-78816500D01*
X42149511Y-78816500D01*
X42051975Y-78842635D01*
X42051973Y-78842635D01*
X42051973Y-78842636D01*
X41964526Y-78893124D01*
X41964523Y-78893126D01*
X41893126Y-78964523D01*
X41893124Y-78964526D01*
X41875999Y-78994188D01*
X41842635Y-79051975D01*
X41816500Y-79149511D01*
X41055942Y-79149511D01*
X41036883Y-79116500D01*
X41006876Y-79064526D01*
X40935474Y-78993124D01*
X40848025Y-78942635D01*
X40750489Y-78916500D01*
X40649511Y-78916500D01*
X40551975Y-78942635D01*
X40551973Y-78942635D01*
X40551973Y-78942636D01*
X40464526Y-78993124D01*
X40464523Y-78993126D01*
X40393126Y-79064523D01*
X40393124Y-79064526D01*
X40344058Y-79149511D01*
X40342635Y-79151975D01*
X40316500Y-79249511D01*
X34396466Y-79249511D01*
X34476379Y-79129913D01*
X34532599Y-78994186D01*
X34561259Y-78850099D01*
X34561259Y-78703189D01*
X34532599Y-78559102D01*
X34476379Y-78423375D01*
X34476378Y-78423374D01*
X34476375Y-78423368D01*
X34394760Y-78301224D01*
X34394757Y-78301220D01*
X34356686Y-78263150D01*
X34343340Y-78238710D01*
X34327185Y-78216023D01*
X34326825Y-78208466D01*
X34323200Y-78201828D01*
X34325186Y-78174050D01*
X34324018Y-78149511D01*
X37416500Y-78149511D01*
X37416500Y-78250489D01*
X37442635Y-78348025D01*
X37493124Y-78435474D01*
X37564526Y-78506876D01*
X37651975Y-78557365D01*
X37749511Y-78583500D01*
X37749514Y-78583500D01*
X37850486Y-78583500D01*
X37850489Y-78583500D01*
X37948025Y-78557365D01*
X38035474Y-78506876D01*
X38106876Y-78435474D01*
X38157365Y-78348025D01*
X38183500Y-78250489D01*
X38183500Y-78149511D01*
X38157365Y-78051975D01*
X38106876Y-77964526D01*
X38035474Y-77893124D01*
X37964199Y-77851973D01*
X37958653Y-77848771D01*
X37958651Y-77848769D01*
X37948028Y-77842636D01*
X37948029Y-77842636D01*
X37940029Y-77840492D01*
X37850489Y-77816500D01*
X37749511Y-77816500D01*
X37651975Y-77842635D01*
X37651973Y-77842635D01*
X37651973Y-77842636D01*
X37564526Y-77893124D01*
X37564523Y-77893126D01*
X37493126Y-77964523D01*
X37493124Y-77964526D01*
X37442635Y-78051975D01*
X37416500Y-78149511D01*
X34324018Y-78149511D01*
X34323862Y-78146232D01*
X34327896Y-78136154D01*
X34328184Y-78132136D01*
X34336976Y-78113473D01*
X34385576Y-78029298D01*
X34411711Y-77931762D01*
X34411711Y-77830784D01*
X34389934Y-77749511D01*
X39616500Y-77749511D01*
X39616500Y-77850489D01*
X39642635Y-77948025D01*
X39693124Y-78035474D01*
X39764526Y-78106876D01*
X39851975Y-78157365D01*
X39949511Y-78183500D01*
X39949514Y-78183500D01*
X40050486Y-78183500D01*
X40050489Y-78183500D01*
X40142725Y-78158785D01*
X40212573Y-78160448D01*
X40270436Y-78199610D01*
X40282203Y-78216559D01*
X40293124Y-78235474D01*
X40364526Y-78306876D01*
X40451975Y-78357365D01*
X40549511Y-78383500D01*
X40549514Y-78383500D01*
X40650486Y-78383500D01*
X40650489Y-78383500D01*
X40748025Y-78357365D01*
X40835474Y-78306876D01*
X40906876Y-78235474D01*
X40957365Y-78148025D01*
X40983500Y-78050489D01*
X40983500Y-77949511D01*
X40957365Y-77851975D01*
X40906876Y-77764526D01*
X40835474Y-77693124D01*
X40748025Y-77642635D01*
X40650489Y-77616500D01*
X40549511Y-77616500D01*
X40457276Y-77641214D01*
X40387426Y-77639551D01*
X40329564Y-77600388D01*
X40317797Y-77583441D01*
X40312575Y-77574397D01*
X40306876Y-77564526D01*
X40235474Y-77493124D01*
X40148025Y-77442635D01*
X40050489Y-77416500D01*
X39949511Y-77416500D01*
X39851975Y-77442635D01*
X39851973Y-77442635D01*
X39851973Y-77442636D01*
X39764526Y-77493124D01*
X39764523Y-77493126D01*
X39693126Y-77564523D01*
X39693124Y-77564526D01*
X39642635Y-77651975D01*
X39616500Y-77749511D01*
X34389934Y-77749511D01*
X34385576Y-77733248D01*
X34335087Y-77645799D01*
X34263685Y-77574397D01*
X34176236Y-77523908D01*
X34078700Y-77497773D01*
X33977722Y-77497773D01*
X33880186Y-77523908D01*
X33880184Y-77523908D01*
X33880184Y-77523909D01*
X33792737Y-77574397D01*
X33792734Y-77574399D01*
X33721337Y-77645796D01*
X33721335Y-77645799D01*
X33694011Y-77693126D01*
X33670846Y-77733248D01*
X33644711Y-77830784D01*
X33644711Y-77830786D01*
X33644711Y-77931760D01*
X33645772Y-77939818D01*
X33642327Y-77940271D01*
X33641019Y-77994161D01*
X33601829Y-78052005D01*
X33570378Y-78070910D01*
X33462193Y-78115722D01*
X33462183Y-78115727D01*
X33340039Y-78197342D01*
X33340035Y-78197345D01*
X33236160Y-78301220D01*
X33236157Y-78301224D01*
X33154542Y-78423368D01*
X33154537Y-78423377D01*
X33098320Y-78559099D01*
X33098317Y-78559109D01*
X33069659Y-78703184D01*
X33069659Y-78850102D01*
X33087664Y-78940617D01*
X33092419Y-78964526D01*
X33093172Y-78968309D01*
X33086945Y-79037900D01*
X33044082Y-79093078D01*
X32978192Y-79116322D01*
X32971555Y-79116500D01*
X32949511Y-79116500D01*
X32851975Y-79142635D01*
X32851973Y-79142635D01*
X32851973Y-79142636D01*
X32764526Y-79193124D01*
X32764523Y-79193126D01*
X32693126Y-79264523D01*
X32693124Y-79264526D01*
X32642634Y-79351975D01*
X32633615Y-79385636D01*
X32597250Y-79445296D01*
X32534403Y-79475824D01*
X32489653Y-79475159D01*
X32452074Y-79467685D01*
X32452073Y-79467685D01*
X32305163Y-79467685D01*
X32305158Y-79467685D01*
X32161083Y-79496343D01*
X32161073Y-79496346D01*
X32025351Y-79552563D01*
X32025342Y-79552568D01*
X31903198Y-79634183D01*
X31903194Y-79634186D01*
X31868760Y-79668621D01*
X31807437Y-79702106D01*
X31737745Y-79697122D01*
X31681812Y-79655250D01*
X31674405Y-79644021D01*
X31674047Y-79643554D01*
X31674045Y-79643551D01*
X31602643Y-79572149D01*
X31515194Y-79521660D01*
X31417658Y-79495525D01*
X31316680Y-79495525D01*
X31219144Y-79521660D01*
X31219142Y-79521660D01*
X31219142Y-79521661D01*
X31131695Y-79572149D01*
X31131692Y-79572151D01*
X31060295Y-79643548D01*
X31060293Y-79643551D01*
X31029364Y-79697122D01*
X31009804Y-79731000D01*
X30983669Y-79828536D01*
X30983669Y-79929514D01*
X31009804Y-80027050D01*
X31015071Y-80036172D01*
X31024745Y-80052928D01*
X31041218Y-80120828D01*
X31018366Y-80186855D01*
X31005040Y-80202610D01*
X30943124Y-80264526D01*
X30892635Y-80351975D01*
X30866500Y-80449511D01*
X27883500Y-80449511D01*
X27857365Y-80351975D01*
X27806876Y-80264526D01*
X27735474Y-80193124D01*
X27648025Y-80142635D01*
X27550489Y-80116500D01*
X27449511Y-80116500D01*
X27351975Y-80142635D01*
X27351973Y-80142635D01*
X27351973Y-80142636D01*
X27264526Y-80193124D01*
X27264523Y-80193126D01*
X27193126Y-80264523D01*
X27193124Y-80264526D01*
X27142635Y-80351975D01*
X27116500Y-80449511D01*
X26220400Y-80449511D01*
X26220400Y-80424447D01*
X26192716Y-80285267D01*
X26138410Y-80154163D01*
X26138408Y-80154160D01*
X26138406Y-80154156D01*
X26059571Y-80036172D01*
X26059568Y-80036168D01*
X25959231Y-79935831D01*
X25959227Y-79935828D01*
X25841243Y-79856993D01*
X25841233Y-79856988D01*
X25710133Y-79802684D01*
X25710125Y-79802682D01*
X25570957Y-79775000D01*
X25570953Y-79775000D01*
X25429047Y-79775000D01*
X25429042Y-79775000D01*
X25289874Y-79802682D01*
X25289866Y-79802684D01*
X25158766Y-79856988D01*
X25158756Y-79856993D01*
X25040772Y-79935828D01*
X25040768Y-79935831D01*
X24940431Y-80036168D01*
X24940428Y-80036172D01*
X24861593Y-80154156D01*
X24861588Y-80154166D01*
X24807284Y-80285266D01*
X24807282Y-80285274D01*
X24779600Y-80424442D01*
X23220399Y-80424442D01*
X23192716Y-80285267D01*
X23138410Y-80154163D01*
X23138408Y-80154160D01*
X23138406Y-80154156D01*
X23059571Y-80036172D01*
X23059568Y-80036168D01*
X22959231Y-79935831D01*
X22959227Y-79935828D01*
X22841243Y-79856993D01*
X22841233Y-79856988D01*
X22710133Y-79802684D01*
X22710125Y-79802682D01*
X22570957Y-79775000D01*
X22570953Y-79775000D01*
X22429047Y-79775000D01*
X22429042Y-79775000D01*
X22289874Y-79802682D01*
X22289866Y-79802684D01*
X22158766Y-79856988D01*
X22158756Y-79856993D01*
X22040772Y-79935828D01*
X22040768Y-79935831D01*
X21940431Y-80036168D01*
X21940428Y-80036172D01*
X21861593Y-80154156D01*
X21861588Y-80154166D01*
X21807284Y-80285266D01*
X21807282Y-80285274D01*
X21779600Y-80424442D01*
X19000500Y-80424442D01*
X19000500Y-78449511D01*
X23366500Y-78449511D01*
X23366500Y-78550489D01*
X23392635Y-78648025D01*
X23443124Y-78735474D01*
X23514526Y-78806876D01*
X23601975Y-78857365D01*
X23699511Y-78883500D01*
X23699514Y-78883500D01*
X23800486Y-78883500D01*
X23800489Y-78883500D01*
X23898025Y-78857365D01*
X23985474Y-78806876D01*
X24056876Y-78735474D01*
X24107365Y-78648025D01*
X24133500Y-78550489D01*
X24133500Y-78449511D01*
X24107365Y-78351975D01*
X24056876Y-78264526D01*
X23991861Y-78199511D01*
X28366500Y-78199511D01*
X28366500Y-78300489D01*
X28392635Y-78398025D01*
X28443124Y-78485474D01*
X28514526Y-78556876D01*
X28601975Y-78607365D01*
X28699511Y-78633500D01*
X28699514Y-78633500D01*
X28800486Y-78633500D01*
X28800489Y-78633500D01*
X28898025Y-78607365D01*
X28985474Y-78556876D01*
X29056876Y-78485474D01*
X29107365Y-78398025D01*
X29133500Y-78300489D01*
X29133500Y-78199511D01*
X29107365Y-78101975D01*
X29056876Y-78014526D01*
X28985474Y-77943124D01*
X28898025Y-77892635D01*
X28800489Y-77866500D01*
X28699511Y-77866500D01*
X28601975Y-77892635D01*
X28601973Y-77892635D01*
X28601973Y-77892636D01*
X28514526Y-77943124D01*
X28514523Y-77943126D01*
X28443126Y-78014523D01*
X28443124Y-78014526D01*
X28405679Y-78079383D01*
X28392635Y-78101975D01*
X28366500Y-78199511D01*
X23991861Y-78199511D01*
X23985474Y-78193124D01*
X23898025Y-78142635D01*
X23800489Y-78116500D01*
X23699511Y-78116500D01*
X23601975Y-78142635D01*
X23601973Y-78142635D01*
X23601973Y-78142636D01*
X23514526Y-78193124D01*
X23514523Y-78193126D01*
X23443126Y-78264523D01*
X23443124Y-78264526D01*
X23394916Y-78348025D01*
X23392635Y-78351975D01*
X23366500Y-78449511D01*
X19000500Y-78449511D01*
X19000500Y-76699511D01*
X19866500Y-76699511D01*
X19866500Y-76800489D01*
X19892635Y-76898025D01*
X19943124Y-76985474D01*
X20014526Y-77056876D01*
X20101975Y-77107365D01*
X20199511Y-77133500D01*
X20199514Y-77133500D01*
X20300486Y-77133500D01*
X20300489Y-77133500D01*
X20398025Y-77107365D01*
X20485474Y-77056876D01*
X20556876Y-76985474D01*
X20567608Y-76966884D01*
X20618174Y-76918670D01*
X20686781Y-76905446D01*
X20751646Y-76931414D01*
X20789556Y-76981432D01*
X20816134Y-77045597D01*
X20816139Y-77045607D01*
X20893671Y-77161641D01*
X20893674Y-77161645D01*
X20992354Y-77260325D01*
X20992358Y-77260328D01*
X21108392Y-77337860D01*
X21108396Y-77337862D01*
X21108399Y-77337864D01*
X21237338Y-77391273D01*
X21364164Y-77416500D01*
X21374214Y-77418499D01*
X21374218Y-77418500D01*
X21374219Y-77418500D01*
X22313782Y-77418500D01*
X22313783Y-77418499D01*
X22450662Y-77391273D01*
X22579601Y-77337864D01*
X22695642Y-77260328D01*
X22794328Y-77161642D01*
X22871864Y-77045601D01*
X22925273Y-76916662D01*
X22952500Y-76779781D01*
X22952500Y-76640219D01*
X22952499Y-76640214D01*
X24765500Y-76640214D01*
X24765500Y-76779785D01*
X24792725Y-76916654D01*
X24792727Y-76916662D01*
X24846134Y-77045597D01*
X24846139Y-77045607D01*
X24923671Y-77161641D01*
X24923674Y-77161645D01*
X25022354Y-77260325D01*
X25022358Y-77260328D01*
X25138392Y-77337860D01*
X25138396Y-77337862D01*
X25138399Y-77337864D01*
X25267338Y-77391273D01*
X25394164Y-77416500D01*
X25404214Y-77418499D01*
X25404218Y-77418500D01*
X25404219Y-77418500D01*
X26643782Y-77418500D01*
X26643783Y-77418499D01*
X26780662Y-77391273D01*
X26909601Y-77337864D01*
X27025642Y-77260328D01*
X27124328Y-77161642D01*
X27201864Y-77045601D01*
X27255273Y-76916662D01*
X27282500Y-76779781D01*
X27282500Y-76640219D01*
X27255273Y-76503338D01*
X27201864Y-76374399D01*
X27201862Y-76374396D01*
X27201860Y-76374392D01*
X27124328Y-76258358D01*
X27124325Y-76258354D01*
X27025645Y-76159674D01*
X27025641Y-76159671D01*
X26909607Y-76082139D01*
X26909597Y-76082134D01*
X26780662Y-76028727D01*
X26780654Y-76028725D01*
X26643785Y-76001500D01*
X26643781Y-76001500D01*
X25888100Y-76001500D01*
X25821061Y-75981815D01*
X25775306Y-75929011D01*
X25765362Y-75859853D01*
X25794387Y-75796297D01*
X25826100Y-75770113D01*
X25826558Y-75769848D01*
X25877365Y-75740515D01*
X25918369Y-75699511D01*
X28116500Y-75699511D01*
X28116500Y-75800489D01*
X28142635Y-75898025D01*
X28193124Y-75985474D01*
X28264526Y-76056876D01*
X28351975Y-76107365D01*
X28449511Y-76133500D01*
X28449514Y-76133500D01*
X28550486Y-76133500D01*
X28550489Y-76133500D01*
X28648025Y-76107365D01*
X28648034Y-76107359D01*
X28648116Y-76107327D01*
X28648197Y-76107318D01*
X28655875Y-76105261D01*
X28656195Y-76106457D01*
X28717585Y-76099855D01*
X28780066Y-76131128D01*
X28810134Y-76174433D01*
X28844014Y-76256228D01*
X28844019Y-76256237D01*
X28925634Y-76378381D01*
X28925637Y-76378385D01*
X29029512Y-76482260D01*
X29029516Y-76482263D01*
X29151660Y-76563878D01*
X29151669Y-76563883D01*
X29176736Y-76574266D01*
X29287394Y-76620102D01*
X29390231Y-76640557D01*
X29431476Y-76648761D01*
X29431480Y-76648762D01*
X29431481Y-76648762D01*
X29578392Y-76648762D01*
X29578393Y-76648761D01*
X29722478Y-76620102D01*
X29858205Y-76563882D01*
X29980356Y-76482263D01*
X30084237Y-76378382D01*
X30100131Y-76354595D01*
X35616500Y-76354595D01*
X35616500Y-76455573D01*
X35642635Y-76553109D01*
X35693124Y-76640558D01*
X35764526Y-76711960D01*
X35851975Y-76762449D01*
X35949511Y-76788584D01*
X35949514Y-76788584D01*
X36050486Y-76788584D01*
X36050489Y-76788584D01*
X36148025Y-76762449D01*
X36235474Y-76711960D01*
X36306876Y-76640558D01*
X36357365Y-76553109D01*
X36383500Y-76455573D01*
X36383500Y-76449511D01*
X37816500Y-76449511D01*
X37816500Y-76550489D01*
X37842635Y-76648025D01*
X37893124Y-76735474D01*
X37964526Y-76806876D01*
X38051975Y-76857365D01*
X38149511Y-76883500D01*
X38149514Y-76883500D01*
X38250486Y-76883500D01*
X38250489Y-76883500D01*
X38348025Y-76857365D01*
X38435474Y-76806876D01*
X38506876Y-76735474D01*
X38557365Y-76648025D01*
X38583500Y-76550489D01*
X38583500Y-76449511D01*
X38557365Y-76351975D01*
X38506876Y-76264526D01*
X38435474Y-76193124D01*
X38348025Y-76142635D01*
X38250489Y-76116500D01*
X38149511Y-76116500D01*
X38051975Y-76142635D01*
X38051973Y-76142635D01*
X38051973Y-76142636D01*
X37964526Y-76193124D01*
X37964523Y-76193126D01*
X37893126Y-76264523D01*
X37893124Y-76264526D01*
X37842635Y-76351975D01*
X37816500Y-76449511D01*
X36383500Y-76449511D01*
X36383500Y-76354595D01*
X36357365Y-76257059D01*
X36306876Y-76169610D01*
X36235474Y-76098208D01*
X36148025Y-76047719D01*
X36050489Y-76021584D01*
X35949511Y-76021584D01*
X35851975Y-76047719D01*
X35851973Y-76047719D01*
X35851973Y-76047720D01*
X35764526Y-76098208D01*
X35764523Y-76098210D01*
X35693126Y-76169607D01*
X35693124Y-76169610D01*
X35643110Y-76256237D01*
X35642635Y-76257059D01*
X35616500Y-76354595D01*
X30100131Y-76354595D01*
X30111288Y-76337897D01*
X30151594Y-76277577D01*
X30164437Y-76258354D01*
X30165856Y-76256231D01*
X30222076Y-76120504D01*
X30250736Y-75976417D01*
X30250736Y-75829507D01*
X30222076Y-75685420D01*
X30165856Y-75549693D01*
X30165855Y-75549692D01*
X30165852Y-75549686D01*
X30084237Y-75427542D01*
X30084234Y-75427538D01*
X30036504Y-75379808D01*
X30019961Y-75349511D01*
X30616500Y-75349511D01*
X30616500Y-75450489D01*
X30642635Y-75548025D01*
X30693124Y-75635474D01*
X30764526Y-75706876D01*
X30851975Y-75757365D01*
X30949511Y-75783500D01*
X30949514Y-75783500D01*
X31050486Y-75783500D01*
X31050489Y-75783500D01*
X31148025Y-75757365D01*
X31235474Y-75706876D01*
X31306876Y-75635474D01*
X31357365Y-75548025D01*
X31383500Y-75450489D01*
X31383500Y-75349511D01*
X31357365Y-75251975D01*
X31306876Y-75164526D01*
X31235474Y-75093124D01*
X31148025Y-75042635D01*
X31050489Y-75016500D01*
X30949511Y-75016500D01*
X30851975Y-75042635D01*
X30851973Y-75042635D01*
X30851973Y-75042636D01*
X30764526Y-75093124D01*
X30764523Y-75093126D01*
X30693126Y-75164523D01*
X30693124Y-75164526D01*
X30642635Y-75251975D01*
X30616500Y-75349511D01*
X30019961Y-75349511D01*
X30003019Y-75318485D01*
X30008003Y-75248793D01*
X30049875Y-75192860D01*
X30092088Y-75172353D01*
X30148025Y-75157365D01*
X30235474Y-75106876D01*
X30306876Y-75035474D01*
X30357365Y-74948025D01*
X30383500Y-74850489D01*
X30383500Y-74749511D01*
X30357365Y-74651975D01*
X30306876Y-74564526D01*
X30235474Y-74493124D01*
X30148025Y-74442635D01*
X30050489Y-74416500D01*
X29949511Y-74416500D01*
X29851975Y-74442635D01*
X29851973Y-74442635D01*
X29851973Y-74442636D01*
X29764526Y-74493124D01*
X29764523Y-74493126D01*
X29693126Y-74564523D01*
X29693124Y-74564526D01*
X29642635Y-74651975D01*
X29616500Y-74749511D01*
X29616500Y-74850489D01*
X29640492Y-74940029D01*
X29642636Y-74948029D01*
X29642637Y-74948030D01*
X29655992Y-74971161D01*
X29672466Y-75039061D01*
X29649614Y-75105088D01*
X29594693Y-75148279D01*
X29548606Y-75157162D01*
X29431476Y-75157162D01*
X29287401Y-75185820D01*
X29287391Y-75185823D01*
X29151669Y-75242040D01*
X29151660Y-75242045D01*
X29029516Y-75323660D01*
X29029512Y-75323663D01*
X28925637Y-75427538D01*
X28921771Y-75432250D01*
X28920272Y-75431020D01*
X28873514Y-75470068D01*
X28804186Y-75478750D01*
X28741169Y-75448572D01*
X28736385Y-75444035D01*
X28735476Y-75443126D01*
X28735474Y-75443124D01*
X28648025Y-75392635D01*
X28550489Y-75366500D01*
X28449511Y-75366500D01*
X28351975Y-75392635D01*
X28351973Y-75392635D01*
X28351973Y-75392636D01*
X28264526Y-75443124D01*
X28264523Y-75443126D01*
X28193126Y-75514523D01*
X28193124Y-75514526D01*
X28156698Y-75577618D01*
X28142635Y-75601975D01*
X28116500Y-75699511D01*
X25918369Y-75699511D01*
X25984515Y-75633365D01*
X26060281Y-75502135D01*
X26099500Y-75355766D01*
X26099500Y-75204234D01*
X26060281Y-75057865D01*
X26051488Y-75042636D01*
X26047353Y-75035473D01*
X25984515Y-74926635D01*
X25877365Y-74819485D01*
X25787671Y-74767700D01*
X25746136Y-74743719D01*
X25666134Y-74722283D01*
X25599766Y-74704500D01*
X25448234Y-74704500D01*
X25301863Y-74743719D01*
X25170635Y-74819485D01*
X25170632Y-74819487D01*
X25063487Y-74926632D01*
X25063485Y-74926635D01*
X24987719Y-75057863D01*
X24948500Y-75204234D01*
X24948500Y-75355765D01*
X24987719Y-75502136D01*
X24994871Y-75514523D01*
X25063485Y-75633365D01*
X25170635Y-75740515D01*
X25274513Y-75800489D01*
X25283935Y-75805929D01*
X25332151Y-75856496D01*
X25345374Y-75925103D01*
X25319405Y-75989968D01*
X25269389Y-76027877D01*
X25138399Y-76082136D01*
X25138392Y-76082139D01*
X25022358Y-76159671D01*
X25022354Y-76159674D01*
X24923674Y-76258354D01*
X24923671Y-76258358D01*
X24846139Y-76374392D01*
X24846134Y-76374402D01*
X24792727Y-76503337D01*
X24792725Y-76503345D01*
X24765500Y-76640214D01*
X22952499Y-76640214D01*
X22925273Y-76503338D01*
X22871864Y-76374399D01*
X22871862Y-76374396D01*
X22871860Y-76374392D01*
X22794328Y-76258358D01*
X22794325Y-76258354D01*
X22695645Y-76159674D01*
X22695641Y-76159671D01*
X22579607Y-76082139D01*
X22579597Y-76082134D01*
X22450662Y-76028727D01*
X22450654Y-76028725D01*
X22313785Y-76001500D01*
X22313781Y-76001500D01*
X21374219Y-76001500D01*
X21374214Y-76001500D01*
X21237345Y-76028725D01*
X21237337Y-76028727D01*
X21108402Y-76082134D01*
X21108392Y-76082139D01*
X20992358Y-76159671D01*
X20992354Y-76159674D01*
X20893674Y-76258354D01*
X20893671Y-76258358D01*
X20816139Y-76374392D01*
X20816136Y-76374398D01*
X20769742Y-76486402D01*
X20725900Y-76540805D01*
X20659606Y-76562869D01*
X20591907Y-76545589D01*
X20562980Y-76519915D01*
X20562623Y-76520273D01*
X20485476Y-76443126D01*
X20485474Y-76443124D01*
X20398025Y-76392635D01*
X20300489Y-76366500D01*
X20199511Y-76366500D01*
X20101975Y-76392635D01*
X20101973Y-76392635D01*
X20101973Y-76392636D01*
X20014526Y-76443124D01*
X20014523Y-76443126D01*
X19943126Y-76514523D01*
X19943124Y-76514526D01*
X19906698Y-76577618D01*
X19892635Y-76601975D01*
X19866500Y-76699511D01*
X19000500Y-76699511D01*
X19000500Y-74149511D01*
X39016500Y-74149511D01*
X39016500Y-74250489D01*
X39042635Y-74348025D01*
X39093124Y-74435474D01*
X39164526Y-74506876D01*
X39251975Y-74557365D01*
X39349511Y-74583500D01*
X39349514Y-74583500D01*
X39450486Y-74583500D01*
X39450489Y-74583500D01*
X39548025Y-74557365D01*
X39635474Y-74506876D01*
X39706876Y-74435474D01*
X39757365Y-74348025D01*
X39783500Y-74250489D01*
X39783500Y-74149511D01*
X39757365Y-74051975D01*
X39706876Y-73964526D01*
X39655458Y-73913108D01*
X39621973Y-73851785D01*
X39626957Y-73782093D01*
X39668829Y-73726160D01*
X39681140Y-73718040D01*
X39685346Y-73715611D01*
X39700476Y-73706876D01*
X39771878Y-73635474D01*
X39822367Y-73548025D01*
X39848502Y-73450489D01*
X39848502Y-73349511D01*
X39822367Y-73251975D01*
X39771878Y-73164526D01*
X39700476Y-73093124D01*
X39613027Y-73042635D01*
X39515491Y-73016500D01*
X39414513Y-73016500D01*
X39316977Y-73042635D01*
X39316975Y-73042635D01*
X39316975Y-73042636D01*
X39229528Y-73093124D01*
X39229525Y-73093126D01*
X39158128Y-73164523D01*
X39158126Y-73164526D01*
X39107637Y-73251975D01*
X39081502Y-73349511D01*
X39081502Y-73450489D01*
X39107637Y-73548025D01*
X39158126Y-73635474D01*
X39158128Y-73635476D01*
X39209543Y-73686891D01*
X39243028Y-73748214D01*
X39238044Y-73817906D01*
X39196172Y-73873839D01*
X39183866Y-73881957D01*
X39164529Y-73893121D01*
X39164523Y-73893126D01*
X39093126Y-73964523D01*
X39093124Y-73964526D01*
X39042635Y-74051975D01*
X39016500Y-74149511D01*
X19000500Y-74149511D01*
X19000500Y-73449511D01*
X27866500Y-73449511D01*
X27866500Y-73550489D01*
X27892635Y-73648025D01*
X27943124Y-73735474D01*
X28014526Y-73806876D01*
X28101975Y-73857365D01*
X28199511Y-73883500D01*
X28199514Y-73883500D01*
X28300486Y-73883500D01*
X28300489Y-73883500D01*
X28398025Y-73857365D01*
X28485474Y-73806876D01*
X28556876Y-73735474D01*
X28607365Y-73648025D01*
X28633500Y-73550489D01*
X28633500Y-73449511D01*
X28607365Y-73351975D01*
X28556876Y-73264526D01*
X28488506Y-73196156D01*
X29353766Y-73196156D01*
X29353766Y-73297134D01*
X29379901Y-73394670D01*
X29430390Y-73482119D01*
X29501792Y-73553521D01*
X29589241Y-73604010D01*
X29686777Y-73630145D01*
X29686780Y-73630145D01*
X29787752Y-73630145D01*
X29787755Y-73630145D01*
X29885291Y-73604010D01*
X29972740Y-73553521D01*
X30044142Y-73482119D01*
X30094631Y-73394670D01*
X30120766Y-73297134D01*
X30120766Y-73274511D01*
X36041500Y-73274511D01*
X36041500Y-73375489D01*
X36067635Y-73473025D01*
X36118124Y-73560474D01*
X36189526Y-73631876D01*
X36276975Y-73682365D01*
X36374511Y-73708500D01*
X36374514Y-73708500D01*
X36475486Y-73708500D01*
X36475489Y-73708500D01*
X36573025Y-73682365D01*
X36660474Y-73631876D01*
X36731876Y-73560474D01*
X36782365Y-73473025D01*
X36808500Y-73375489D01*
X36808500Y-73274511D01*
X36782365Y-73176975D01*
X36731876Y-73089526D01*
X36660474Y-73018124D01*
X36573025Y-72967635D01*
X36475489Y-72941500D01*
X36374511Y-72941500D01*
X36276975Y-72967635D01*
X36276973Y-72967635D01*
X36276973Y-72967636D01*
X36189526Y-73018124D01*
X36189523Y-73018126D01*
X36118126Y-73089523D01*
X36118124Y-73089526D01*
X36091520Y-73135606D01*
X36067635Y-73176975D01*
X36041500Y-73274511D01*
X30120766Y-73274511D01*
X30120766Y-73196156D01*
X30107112Y-73145199D01*
X30106087Y-73135606D01*
X30110662Y-73110339D01*
X30111273Y-73084677D01*
X30116784Y-73076533D01*
X30118537Y-73066855D01*
X30136044Y-73048075D01*
X30150434Y-73026814D01*
X30160891Y-73021422D01*
X30166181Y-73015749D01*
X30177471Y-73012875D01*
X30197288Y-73002658D01*
X30273025Y-72982365D01*
X30360474Y-72931876D01*
X30431876Y-72860474D01*
X30482365Y-72773025D01*
X30508500Y-72675489D01*
X30508500Y-72574511D01*
X30482365Y-72476975D01*
X30431876Y-72389526D01*
X30360474Y-72318124D01*
X30273025Y-72267635D01*
X30175489Y-72241500D01*
X30074511Y-72241500D01*
X29976975Y-72267635D01*
X29976973Y-72267635D01*
X29976973Y-72267636D01*
X29889526Y-72318124D01*
X29889523Y-72318126D01*
X29818126Y-72389523D01*
X29818124Y-72389526D01*
X29767635Y-72476975D01*
X29741500Y-72574511D01*
X29741500Y-72574513D01*
X29741500Y-72675488D01*
X29752655Y-72717119D01*
X29750992Y-72786969D01*
X29711829Y-72844831D01*
X29664975Y-72868986D01*
X29589242Y-72889279D01*
X29589241Y-72889279D01*
X29501792Y-72939769D01*
X29501789Y-72939771D01*
X29430392Y-73011168D01*
X29430390Y-73011171D01*
X29388362Y-73083966D01*
X29379901Y-73098620D01*
X29353766Y-73196156D01*
X28488506Y-73196156D01*
X28485474Y-73193124D01*
X28398025Y-73142635D01*
X28300489Y-73116500D01*
X28199511Y-73116500D01*
X28101975Y-73142635D01*
X28101973Y-73142635D01*
X28101973Y-73142636D01*
X28014526Y-73193124D01*
X28014523Y-73193126D01*
X27943126Y-73264523D01*
X27943124Y-73264526D01*
X27894058Y-73349511D01*
X27892635Y-73351975D01*
X27866500Y-73449511D01*
X19000500Y-73449511D01*
X19000500Y-72199511D01*
X34966500Y-72199511D01*
X34966500Y-72300489D01*
X34992635Y-72398025D01*
X35043124Y-72485474D01*
X35114526Y-72556876D01*
X35201975Y-72607365D01*
X35299511Y-72633500D01*
X35299514Y-72633500D01*
X35400486Y-72633500D01*
X35400489Y-72633500D01*
X35498025Y-72607365D01*
X35585474Y-72556876D01*
X35592839Y-72549511D01*
X40016500Y-72549511D01*
X40016500Y-72650489D01*
X40042635Y-72748025D01*
X40093124Y-72835474D01*
X40164526Y-72906876D01*
X40251975Y-72957365D01*
X40349511Y-72983500D01*
X40349514Y-72983500D01*
X40450486Y-72983500D01*
X40450489Y-72983500D01*
X40548025Y-72957365D01*
X40635474Y-72906876D01*
X40706876Y-72835474D01*
X40757365Y-72748025D01*
X40783500Y-72650489D01*
X40783500Y-72549511D01*
X40757365Y-72451975D01*
X40706876Y-72364526D01*
X40635474Y-72293124D01*
X40548025Y-72242635D01*
X40450489Y-72216500D01*
X40349511Y-72216500D01*
X40251975Y-72242635D01*
X40251973Y-72242635D01*
X40251973Y-72242636D01*
X40164526Y-72293124D01*
X40164523Y-72293126D01*
X40093126Y-72364523D01*
X40093124Y-72364526D01*
X40042635Y-72451975D01*
X40016500Y-72549511D01*
X35592839Y-72549511D01*
X35656876Y-72485474D01*
X35707365Y-72398025D01*
X35733500Y-72300489D01*
X35733500Y-72199511D01*
X35707365Y-72101975D01*
X35656876Y-72014526D01*
X35585474Y-71943124D01*
X35498025Y-71892635D01*
X35400489Y-71866500D01*
X35299511Y-71866500D01*
X35201975Y-71892635D01*
X35201973Y-71892635D01*
X35201973Y-71892636D01*
X35114526Y-71943124D01*
X35114523Y-71943126D01*
X35043126Y-72014523D01*
X35043124Y-72014526D01*
X35003033Y-72083966D01*
X34992635Y-72101975D01*
X34966500Y-72199511D01*
X19000500Y-72199511D01*
X19000500Y-71646065D01*
X27688001Y-71646065D01*
X27688001Y-71747043D01*
X27714136Y-71844579D01*
X27764625Y-71932028D01*
X27836027Y-72003430D01*
X27923476Y-72053919D01*
X28021012Y-72080054D01*
X28021015Y-72080054D01*
X28121987Y-72080054D01*
X28121990Y-72080054D01*
X28219526Y-72053919D01*
X28306975Y-72003430D01*
X28378377Y-71932028D01*
X28428866Y-71844579D01*
X28455001Y-71747043D01*
X28455001Y-71646065D01*
X28428866Y-71548529D01*
X28378377Y-71461080D01*
X28306975Y-71389678D01*
X28237404Y-71349511D01*
X29616500Y-71349511D01*
X29616500Y-71450489D01*
X29642635Y-71548025D01*
X29693124Y-71635474D01*
X29764526Y-71706876D01*
X29851975Y-71757365D01*
X29949511Y-71783500D01*
X29949514Y-71783500D01*
X30050486Y-71783500D01*
X30050489Y-71783500D01*
X30148025Y-71757365D01*
X30235474Y-71706876D01*
X30306876Y-71635474D01*
X30357365Y-71548025D01*
X30383500Y-71450489D01*
X30383500Y-71349511D01*
X30357365Y-71251975D01*
X30306876Y-71164526D01*
X30235474Y-71093124D01*
X30148025Y-71042635D01*
X30050489Y-71016500D01*
X29949511Y-71016500D01*
X29851975Y-71042635D01*
X29851973Y-71042635D01*
X29851973Y-71042636D01*
X29764526Y-71093124D01*
X29764523Y-71093126D01*
X29693126Y-71164523D01*
X29693124Y-71164526D01*
X29642635Y-71251975D01*
X29616500Y-71349511D01*
X28237404Y-71349511D01*
X28219526Y-71339189D01*
X28121990Y-71313054D01*
X28021012Y-71313054D01*
X27923476Y-71339189D01*
X27923474Y-71339189D01*
X27923474Y-71339190D01*
X27836027Y-71389678D01*
X27836024Y-71389680D01*
X27764627Y-71461077D01*
X27764625Y-71461080D01*
X27738185Y-71506876D01*
X27714136Y-71548529D01*
X27688001Y-71646065D01*
X19000500Y-71646065D01*
X19000500Y-70699511D01*
X30866500Y-70699511D01*
X30866500Y-70800489D01*
X30892635Y-70898025D01*
X30943124Y-70985474D01*
X31014526Y-71056876D01*
X31054994Y-71080240D01*
X31103209Y-71130807D01*
X31114885Y-71191384D01*
X31116500Y-71191384D01*
X31116500Y-71199511D01*
X31116500Y-71300489D01*
X31142635Y-71398025D01*
X31193124Y-71485474D01*
X31264526Y-71556876D01*
X31304994Y-71580240D01*
X31353209Y-71630807D01*
X31364885Y-71691384D01*
X31366500Y-71691384D01*
X31366500Y-71699511D01*
X31366500Y-71800489D01*
X31392635Y-71898025D01*
X31443124Y-71985474D01*
X31514526Y-72056876D01*
X31601975Y-72107365D01*
X31699511Y-72133500D01*
X31699514Y-72133500D01*
X31800486Y-72133500D01*
X31800489Y-72133500D01*
X31898025Y-72107365D01*
X31985474Y-72056876D01*
X32056876Y-71985474D01*
X32107365Y-71898025D01*
X32133500Y-71800489D01*
X32133500Y-71699511D01*
X32107365Y-71601975D01*
X32056876Y-71514526D01*
X31985474Y-71443124D01*
X31945005Y-71419759D01*
X31896789Y-71369192D01*
X31885115Y-71308617D01*
X31883500Y-71308617D01*
X31883500Y-71199513D01*
X31883500Y-71199511D01*
X31857365Y-71101975D01*
X31806876Y-71014526D01*
X31741861Y-70949511D01*
X36116500Y-70949511D01*
X36116500Y-71050489D01*
X36142635Y-71148025D01*
X36193124Y-71235474D01*
X36264526Y-71306876D01*
X36351975Y-71357365D01*
X36449511Y-71383500D01*
X36449514Y-71383500D01*
X36550486Y-71383500D01*
X36550489Y-71383500D01*
X36648025Y-71357365D01*
X36735474Y-71306876D01*
X36806876Y-71235474D01*
X36857365Y-71148025D01*
X36883500Y-71050489D01*
X36883500Y-70949511D01*
X36857365Y-70851975D01*
X36806876Y-70764526D01*
X36735474Y-70693124D01*
X36648025Y-70642635D01*
X36550489Y-70616500D01*
X36449511Y-70616500D01*
X36351975Y-70642635D01*
X36351973Y-70642635D01*
X36351973Y-70642636D01*
X36264526Y-70693124D01*
X36264523Y-70693126D01*
X36193126Y-70764523D01*
X36193124Y-70764526D01*
X36150704Y-70838000D01*
X36142635Y-70851975D01*
X36116500Y-70949511D01*
X31741861Y-70949511D01*
X31735474Y-70943124D01*
X31684956Y-70913957D01*
X31676162Y-70906396D01*
X31663215Y-70886419D01*
X31646789Y-70869192D01*
X31644562Y-70857636D01*
X31638163Y-70847763D01*
X31638071Y-70823959D01*
X31635115Y-70808617D01*
X31633500Y-70808617D01*
X31633500Y-70699513D01*
X31633500Y-70699511D01*
X31607365Y-70601975D01*
X31556876Y-70514526D01*
X31485474Y-70443124D01*
X31398025Y-70392635D01*
X31300489Y-70366500D01*
X31199511Y-70366500D01*
X31101975Y-70392635D01*
X31101973Y-70392635D01*
X31101973Y-70392636D01*
X31014526Y-70443124D01*
X31014523Y-70443126D01*
X30943126Y-70514523D01*
X30943124Y-70514526D01*
X30906698Y-70577618D01*
X30892635Y-70601975D01*
X30866500Y-70699511D01*
X19000500Y-70699511D01*
X19000500Y-68104427D01*
X19000816Y-68095581D01*
X19007637Y-68000214D01*
X20735500Y-68000214D01*
X20735500Y-68139785D01*
X20762725Y-68276654D01*
X20762727Y-68276662D01*
X20816134Y-68405597D01*
X20816139Y-68405607D01*
X20893671Y-68521641D01*
X20893674Y-68521645D01*
X20992354Y-68620325D01*
X20992358Y-68620328D01*
X21108392Y-68697860D01*
X21108396Y-68697862D01*
X21108399Y-68697864D01*
X21237338Y-68751273D01*
X21369785Y-68777618D01*
X21374214Y-68778499D01*
X21374218Y-68778500D01*
X21374219Y-68778500D01*
X22313782Y-68778500D01*
X22313783Y-68778499D01*
X22450662Y-68751273D01*
X22579601Y-68697864D01*
X22695642Y-68620328D01*
X22794328Y-68521642D01*
X22871864Y-68405601D01*
X22925273Y-68276662D01*
X22952500Y-68139781D01*
X22952500Y-68000219D01*
X22952499Y-68000214D01*
X24765500Y-68000214D01*
X24765500Y-68139785D01*
X24792725Y-68276654D01*
X24792727Y-68276662D01*
X24846134Y-68405597D01*
X24846139Y-68405607D01*
X24923671Y-68521641D01*
X24923674Y-68521645D01*
X25022354Y-68620325D01*
X25022358Y-68620328D01*
X25138392Y-68697860D01*
X25138396Y-68697862D01*
X25138399Y-68697864D01*
X25267336Y-68751272D01*
X25269388Y-68752122D01*
X25323791Y-68795963D01*
X25345856Y-68862257D01*
X25328577Y-68929957D01*
X25283936Y-68974070D01*
X25170635Y-69039485D01*
X25170632Y-69039487D01*
X25063487Y-69146632D01*
X25063485Y-69146635D01*
X24987719Y-69277863D01*
X24950706Y-69416002D01*
X24948500Y-69424234D01*
X24948500Y-69575766D01*
X24958773Y-69614105D01*
X24987719Y-69722136D01*
X25025602Y-69787750D01*
X25063485Y-69853365D01*
X25170635Y-69960515D01*
X25301865Y-70036281D01*
X25448234Y-70075500D01*
X25448236Y-70075500D01*
X25599764Y-70075500D01*
X25599766Y-70075500D01*
X25746135Y-70036281D01*
X25877365Y-69960515D01*
X25898369Y-69939511D01*
X27696500Y-69939511D01*
X27696500Y-70040489D01*
X27722635Y-70138025D01*
X27773124Y-70225474D01*
X27844526Y-70296876D01*
X27931975Y-70347365D01*
X28029511Y-70373500D01*
X28029514Y-70373500D01*
X28130486Y-70373500D01*
X28130489Y-70373500D01*
X28228025Y-70347365D01*
X28315474Y-70296876D01*
X28386876Y-70225474D01*
X28437365Y-70138025D01*
X28463500Y-70040489D01*
X28463500Y-69949511D01*
X38566500Y-69949511D01*
X38566500Y-70050489D01*
X38592635Y-70148025D01*
X38643124Y-70235474D01*
X38649233Y-70241583D01*
X38654781Y-70247131D01*
X38688264Y-70308455D01*
X38683278Y-70378147D01*
X38674484Y-70396810D01*
X38642636Y-70451971D01*
X38642635Y-70451975D01*
X38616500Y-70549511D01*
X38616500Y-70650489D01*
X38630941Y-70704382D01*
X38642636Y-70748028D01*
X38694582Y-70838000D01*
X38711055Y-70905900D01*
X38694582Y-70962000D01*
X38642636Y-71051971D01*
X38642635Y-71051975D01*
X38616500Y-71149511D01*
X38616500Y-71250489D01*
X38642635Y-71348025D01*
X38693124Y-71435474D01*
X38764526Y-71506876D01*
X38851975Y-71557365D01*
X38949511Y-71583500D01*
X38949514Y-71583500D01*
X39050486Y-71583500D01*
X39050489Y-71583500D01*
X39148025Y-71557365D01*
X39235474Y-71506876D01*
X39306876Y-71435474D01*
X39357365Y-71348025D01*
X39383500Y-71250489D01*
X39383500Y-71149511D01*
X39357365Y-71051975D01*
X39357363Y-71051971D01*
X39357363Y-71051970D01*
X39357362Y-71051969D01*
X39305418Y-70962001D01*
X39288944Y-70894101D01*
X39305418Y-70837999D01*
X39357362Y-70748030D01*
X39357363Y-70748029D01*
X39357363Y-70748027D01*
X39357365Y-70748025D01*
X39383500Y-70650489D01*
X39383500Y-70549511D01*
X39357365Y-70451975D01*
X39306876Y-70364526D01*
X39295221Y-70352871D01*
X39261736Y-70291548D01*
X39266720Y-70221856D01*
X39275516Y-70203189D01*
X39307362Y-70148030D01*
X39307363Y-70148029D01*
X39307364Y-70148026D01*
X39307365Y-70148025D01*
X39333500Y-70050489D01*
X39333500Y-69949511D01*
X39307365Y-69851975D01*
X39256876Y-69764526D01*
X39185474Y-69693124D01*
X39098025Y-69642635D01*
X39000489Y-69616500D01*
X38899511Y-69616500D01*
X38801975Y-69642635D01*
X38801973Y-69642635D01*
X38801973Y-69642636D01*
X38714526Y-69693124D01*
X38714523Y-69693126D01*
X38643126Y-69764523D01*
X38643124Y-69764526D01*
X38598409Y-69841975D01*
X38592635Y-69851975D01*
X38566500Y-69949511D01*
X28463500Y-69949511D01*
X28463500Y-69939511D01*
X28437365Y-69841975D01*
X28386876Y-69754526D01*
X28315474Y-69683124D01*
X28228025Y-69632635D01*
X28130489Y-69606500D01*
X28029511Y-69606500D01*
X27931975Y-69632635D01*
X27931973Y-69632635D01*
X27931973Y-69632636D01*
X27844526Y-69683124D01*
X27844523Y-69683126D01*
X27773126Y-69754523D01*
X27773124Y-69754526D01*
X27729906Y-69829382D01*
X27722635Y-69841975D01*
X27696500Y-69939511D01*
X25898369Y-69939511D01*
X25984515Y-69853365D01*
X26060281Y-69722135D01*
X26099500Y-69575766D01*
X26099500Y-69449511D01*
X29866500Y-69449511D01*
X29866500Y-69550489D01*
X29892635Y-69648025D01*
X29943124Y-69735474D01*
X30014526Y-69806876D01*
X30101975Y-69857365D01*
X30199511Y-69883500D01*
X30199514Y-69883500D01*
X30300486Y-69883500D01*
X30300489Y-69883500D01*
X30398025Y-69857365D01*
X30485474Y-69806876D01*
X30556876Y-69735474D01*
X30607365Y-69648025D01*
X30633500Y-69550489D01*
X30633500Y-69482013D01*
X37416500Y-69482013D01*
X37416500Y-69582991D01*
X37442635Y-69680527D01*
X37493124Y-69767976D01*
X37564526Y-69839378D01*
X37651975Y-69889867D01*
X37749511Y-69916002D01*
X37749514Y-69916002D01*
X37850486Y-69916002D01*
X37850489Y-69916002D01*
X37948025Y-69889867D01*
X38035474Y-69839378D01*
X38106876Y-69767976D01*
X38157365Y-69680527D01*
X38183500Y-69582991D01*
X38183500Y-69482013D01*
X38157365Y-69384477D01*
X38106876Y-69297028D01*
X38035474Y-69225626D01*
X37948025Y-69175137D01*
X37850489Y-69149002D01*
X37749511Y-69149002D01*
X37651975Y-69175137D01*
X37651973Y-69175137D01*
X37651973Y-69175138D01*
X37564526Y-69225626D01*
X37564523Y-69225628D01*
X37493126Y-69297025D01*
X37493124Y-69297028D01*
X37442635Y-69384477D01*
X37416500Y-69482013D01*
X30633500Y-69482013D01*
X30633500Y-69449511D01*
X30607365Y-69351975D01*
X30556876Y-69264526D01*
X30485474Y-69193124D01*
X30398025Y-69142635D01*
X30300489Y-69116500D01*
X30199511Y-69116500D01*
X30101975Y-69142635D01*
X30101973Y-69142635D01*
X30101973Y-69142636D01*
X30014526Y-69193124D01*
X30014523Y-69193126D01*
X29943126Y-69264523D01*
X29943124Y-69264526D01*
X29899909Y-69339377D01*
X29892635Y-69351975D01*
X29866500Y-69449511D01*
X26099500Y-69449511D01*
X26099500Y-69424234D01*
X26060281Y-69277865D01*
X25984515Y-69146635D01*
X25877365Y-69039485D01*
X25826100Y-69009887D01*
X25777884Y-68959320D01*
X25764662Y-68890713D01*
X25790630Y-68825848D01*
X25847544Y-68785320D01*
X25888100Y-68778500D01*
X26643782Y-68778500D01*
X26643783Y-68778499D01*
X26780662Y-68751273D01*
X26909601Y-68697864D01*
X27025642Y-68620328D01*
X27124328Y-68521642D01*
X27201861Y-68405606D01*
X34716500Y-68405606D01*
X34716500Y-68506584D01*
X34742635Y-68604120D01*
X34793124Y-68691569D01*
X34864526Y-68762971D01*
X34951975Y-68813460D01*
X35049511Y-68839595D01*
X35049514Y-68839595D01*
X35092500Y-68839595D01*
X35159539Y-68859280D01*
X35205294Y-68912084D01*
X35216500Y-68963595D01*
X35216500Y-69050489D01*
X35242635Y-69148025D01*
X35293124Y-69235474D01*
X35364526Y-69306876D01*
X35451975Y-69357365D01*
X35549511Y-69383500D01*
X35549514Y-69383500D01*
X35650486Y-69383500D01*
X35650489Y-69383500D01*
X35748025Y-69357365D01*
X35835474Y-69306876D01*
X35906876Y-69235474D01*
X35957365Y-69148025D01*
X35983500Y-69050489D01*
X35983500Y-68982013D01*
X36485313Y-68982013D01*
X36485313Y-69082991D01*
X36511448Y-69180527D01*
X36561937Y-69267976D01*
X36633339Y-69339378D01*
X36720788Y-69389867D01*
X36818324Y-69416002D01*
X36818327Y-69416002D01*
X36919299Y-69416002D01*
X36919302Y-69416002D01*
X37016838Y-69389867D01*
X37104287Y-69339378D01*
X37175689Y-69267976D01*
X37226178Y-69180527D01*
X37252313Y-69082991D01*
X37252313Y-68982013D01*
X37226178Y-68884477D01*
X37175689Y-68797028D01*
X37104287Y-68725626D01*
X37016838Y-68675137D01*
X36919302Y-68649002D01*
X36818324Y-68649002D01*
X36720788Y-68675137D01*
X36720786Y-68675137D01*
X36720786Y-68675138D01*
X36633339Y-68725626D01*
X36633336Y-68725628D01*
X36561939Y-68797025D01*
X36561937Y-68797028D01*
X36525996Y-68859280D01*
X36511448Y-68884477D01*
X36485313Y-68982013D01*
X35983500Y-68982013D01*
X35983500Y-68949511D01*
X35957365Y-68851975D01*
X35906876Y-68764526D01*
X35835474Y-68693124D01*
X35748025Y-68642635D01*
X35650489Y-68616500D01*
X35607500Y-68616500D01*
X35540461Y-68596815D01*
X35494706Y-68544011D01*
X35483500Y-68492500D01*
X35483500Y-68405608D01*
X35483500Y-68405607D01*
X35483500Y-68405606D01*
X35457365Y-68308070D01*
X35406876Y-68220621D01*
X35335474Y-68149219D01*
X35248025Y-68098730D01*
X35150489Y-68072595D01*
X35049511Y-68072595D01*
X34951975Y-68098730D01*
X34951973Y-68098730D01*
X34951973Y-68098731D01*
X34864526Y-68149219D01*
X34864523Y-68149221D01*
X34793126Y-68220618D01*
X34793124Y-68220621D01*
X34760769Y-68276662D01*
X34742635Y-68308070D01*
X34716500Y-68405606D01*
X27201861Y-68405606D01*
X27201864Y-68405601D01*
X27255273Y-68276662D01*
X27282500Y-68139781D01*
X27282500Y-68000219D01*
X27255273Y-67863338D01*
X27201864Y-67734399D01*
X27201862Y-67734396D01*
X27201860Y-67734392D01*
X27124328Y-67618358D01*
X27124325Y-67618354D01*
X27025645Y-67519674D01*
X27025641Y-67519671D01*
X26920640Y-67449511D01*
X28866500Y-67449511D01*
X28866500Y-67550489D01*
X28892635Y-67648025D01*
X28943124Y-67735474D01*
X29014526Y-67806876D01*
X29101975Y-67857365D01*
X29199511Y-67883500D01*
X29199514Y-67883500D01*
X29300486Y-67883500D01*
X29300489Y-67883500D01*
X29398025Y-67857365D01*
X29485474Y-67806876D01*
X29556876Y-67735474D01*
X29607365Y-67648025D01*
X29633500Y-67550489D01*
X29633500Y-67449511D01*
X29607365Y-67351975D01*
X29556876Y-67264526D01*
X29485474Y-67193124D01*
X29398025Y-67142635D01*
X29300489Y-67116500D01*
X29199511Y-67116500D01*
X29101975Y-67142635D01*
X29101973Y-67142635D01*
X29101973Y-67142636D01*
X29014526Y-67193124D01*
X29014523Y-67193126D01*
X28943126Y-67264523D01*
X28943124Y-67264526D01*
X28892635Y-67351975D01*
X28866500Y-67449511D01*
X26920640Y-67449511D01*
X26909607Y-67442139D01*
X26909597Y-67442134D01*
X26780662Y-67388727D01*
X26780654Y-67388725D01*
X26643785Y-67361500D01*
X26643781Y-67361500D01*
X25404219Y-67361500D01*
X25404214Y-67361500D01*
X25267345Y-67388725D01*
X25267337Y-67388727D01*
X25138402Y-67442134D01*
X25138392Y-67442139D01*
X25022358Y-67519671D01*
X25022354Y-67519674D01*
X24923674Y-67618354D01*
X24923671Y-67618358D01*
X24846139Y-67734392D01*
X24846134Y-67734402D01*
X24792727Y-67863337D01*
X24792725Y-67863345D01*
X24765500Y-68000214D01*
X22952499Y-68000214D01*
X22925273Y-67863338D01*
X22871864Y-67734399D01*
X22871862Y-67734396D01*
X22871860Y-67734392D01*
X22794328Y-67618358D01*
X22794325Y-67618354D01*
X22695645Y-67519674D01*
X22695641Y-67519671D01*
X22579607Y-67442139D01*
X22579597Y-67442134D01*
X22450662Y-67388727D01*
X22450654Y-67388725D01*
X22313785Y-67361500D01*
X22313781Y-67361500D01*
X21374219Y-67361500D01*
X21374214Y-67361500D01*
X21237345Y-67388725D01*
X21237337Y-67388727D01*
X21108402Y-67442134D01*
X21108392Y-67442139D01*
X20992358Y-67519671D01*
X20992354Y-67519674D01*
X20893674Y-67618354D01*
X20893671Y-67618358D01*
X20816139Y-67734392D01*
X20816134Y-67734402D01*
X20762727Y-67863337D01*
X20762725Y-67863345D01*
X20735500Y-68000214D01*
X19007637Y-68000214D01*
X19008705Y-67985281D01*
X19008705Y-67985280D01*
X19014900Y-67898658D01*
X19016107Y-67888138D01*
X19022941Y-67844989D01*
X19024236Y-67838093D01*
X19061182Y-67668255D01*
X19064400Y-67656360D01*
X19075199Y-67623124D01*
X19076919Y-67618191D01*
X19141050Y-67446250D01*
X19146720Y-67433351D01*
X19152667Y-67421678D01*
X19154184Y-67418804D01*
X19250166Y-67243025D01*
X19259728Y-67228148D01*
X19334993Y-67127606D01*
X19385867Y-67059644D01*
X19397445Y-67046283D01*
X19546283Y-66897445D01*
X19559647Y-66885866D01*
X19728148Y-66759728D01*
X19743025Y-66750166D01*
X19918804Y-66654184D01*
X19921678Y-66652667D01*
X19933351Y-66646720D01*
X19946250Y-66641050D01*
X20118191Y-66576919D01*
X20123124Y-66575199D01*
X20156360Y-66564400D01*
X20168255Y-66561182D01*
X20338093Y-66524236D01*
X20344989Y-66522941D01*
X20388138Y-66516107D01*
X20398655Y-66514900D01*
X20595582Y-66500816D01*
X20604428Y-66500500D01*
X33257788Y-66500500D01*
X33324827Y-66520185D01*
G37*
%TD.AperFunction*%
%TD*%
M02*
