%TF.GenerationSoftware,KiCad,Pcbnew,9.0.4*%
%TF.CreationDate,2025-08-29T23:53:31-07:00*%
%TF.ProjectId,WeatherPill,57656174-6865-4725-9069-6c6c2e6b6963,rev?*%
%TF.SameCoordinates,Original*%
%TF.FileFunction,Paste,Bot*%
%TF.FilePolarity,Positive*%
%FSLAX46Y46*%
G04 Gerber Fmt 4.6, Leading zero omitted, Abs format (unit mm)*
G04 Created by KiCad (PCBNEW 9.0.4) date 2025-08-29 23:53:31*
%MOMM*%
%LPD*%
G01*
G04 APERTURE LIST*
G04 Aperture macros list*
%AMRoundRect*
0 Rectangle with rounded corners*
0 $1 Rounding radius*
0 $2 $3 $4 $5 $6 $7 $8 $9 X,Y pos of 4 corners*
0 Add a 4 corners polygon primitive as box body*
4,1,4,$2,$3,$4,$5,$6,$7,$8,$9,$2,$3,0*
0 Add four circle primitives for the rounded corners*
1,1,$1+$1,$2,$3*
1,1,$1+$1,$4,$5*
1,1,$1+$1,$6,$7*
1,1,$1+$1,$8,$9*
0 Add four rect primitives between the rounded corners*
20,1,$1+$1,$2,$3,$4,$5,0*
20,1,$1+$1,$4,$5,$6,$7,0*
20,1,$1+$1,$6,$7,$8,$9,0*
20,1,$1+$1,$8,$9,$2,$3,0*%
G04 Aperture macros list end*
%ADD10RoundRect,0.090000X0.139000X0.090000X-0.139000X0.090000X-0.139000X-0.090000X0.139000X-0.090000X0*%
%ADD11RoundRect,0.090000X-0.139000X-0.090000X0.139000X-0.090000X0.139000X0.090000X-0.139000X0.090000X0*%
%ADD12RoundRect,0.207500X-0.207500X-0.207500X0.207500X-0.207500X0.207500X0.207500X-0.207500X0.207500X0*%
%ADD13RoundRect,0.062500X-0.375000X-0.062500X0.375000X-0.062500X0.375000X0.062500X-0.375000X0.062500X0*%
%ADD14RoundRect,0.062500X-0.062500X-0.375000X0.062500X-0.375000X0.062500X0.375000X-0.062500X0.375000X0*%
%ADD15RoundRect,0.160000X0.222500X0.160000X-0.222500X0.160000X-0.222500X-0.160000X0.222500X-0.160000X0*%
%ADD16R,3.600000X2.600000*%
G04 APERTURE END LIST*
D10*
%TO.C,R24*%
X52032500Y-69000000D03*
X51167500Y-69000000D03*
%TD*%
%TO.C,R22*%
X50200000Y-72000000D03*
X49335000Y-72000000D03*
%TD*%
D11*
%TO.C,R23*%
X52967500Y-69000000D03*
X53832500Y-69000000D03*
%TD*%
D12*
%TO.C,U2*%
X52800000Y-71940000D03*
X52800000Y-72970000D03*
X52800000Y-74000000D03*
X53830000Y-71940000D03*
X53830000Y-72970000D03*
X53830000Y-74000000D03*
X54860000Y-71940000D03*
X54860000Y-72970000D03*
X54860000Y-74000000D03*
D13*
X51392500Y-74720000D03*
X51392500Y-74220000D03*
X51392500Y-73720000D03*
X51392500Y-73220000D03*
X51392500Y-72720000D03*
X51392500Y-72220000D03*
X51392500Y-71720000D03*
X51392500Y-71220000D03*
D14*
X52080000Y-70532500D03*
X52580000Y-70532500D03*
X53080000Y-70532500D03*
X53580000Y-70532500D03*
X54080000Y-70532500D03*
X54580000Y-70532500D03*
X55080000Y-70532500D03*
X55580000Y-70532500D03*
D13*
X56267500Y-71220000D03*
X56267500Y-71720000D03*
X56267500Y-72220000D03*
X56267500Y-72720000D03*
X56267500Y-73220000D03*
X56267500Y-73720000D03*
X56267500Y-74220000D03*
X56267500Y-74720000D03*
D14*
X55580000Y-75407500D03*
X55080000Y-75407500D03*
X54580000Y-75407500D03*
X54080000Y-75407500D03*
X53580000Y-75407500D03*
X53080000Y-75407500D03*
X52580000Y-75407500D03*
X52080000Y-75407500D03*
%TD*%
D15*
%TO.C,C15*%
X49602500Y-73800000D03*
X48457500Y-73800000D03*
%TD*%
D16*
%TO.C,BT1*%
X37290000Y-74250000D03*
X21500000Y-74250000D03*
%TD*%
D15*
%TO.C,C16*%
X49602500Y-74800000D03*
X48457500Y-74800000D03*
%TD*%
D10*
%TO.C,R21*%
X50232500Y-70800000D03*
X49367500Y-70800000D03*
%TD*%
M02*
