%TF.GenerationSoftware,KiCad,Pcbnew,9.0.4*%
%TF.CreationDate,2025-08-29T23:53:31-07:00*%
%TF.ProjectId,WeatherPill,57656174-6865-4725-9069-6c6c2e6b6963,rev?*%
%TF.SameCoordinates,Original*%
%TF.FileFunction,Copper,L2,Inr*%
%TF.FilePolarity,Positive*%
%FSLAX46Y46*%
G04 Gerber Fmt 4.6, Leading zero omitted, Abs format (unit mm)*
G04 Created by KiCad (PCBNEW 9.0.4) date 2025-08-29 23:53:31*
%MOMM*%
%LPD*%
G01*
G04 APERTURE LIST*
%TA.AperFunction,ComponentPad*%
%ADD10C,1.000000*%
%TD*%
%TA.AperFunction,ComponentPad*%
%ADD11O,2.100000X1.000000*%
%TD*%
%TA.AperFunction,ComponentPad*%
%ADD12O,1.800000X1.000000*%
%TD*%
%TA.AperFunction,ViaPad*%
%ADD13C,0.350000*%
%TD*%
G04 APERTURE END LIST*
D10*
%TO.N,SEG0*%
%TO.C,L1*%
X51750000Y-67575000D03*
%TO.N,SEG1*%
X53750000Y-67575000D03*
%TO.N,SEG2*%
X55750000Y-67575000D03*
%TO.N,SEG3*%
X57750000Y-67575000D03*
%TO.N,SEG4*%
X59750000Y-67575000D03*
%TO.N,SEG5*%
X51750000Y-77825000D03*
%TO.N,COM3*%
X53750000Y-77825000D03*
%TO.N,COM2*%
X55750000Y-77825000D03*
%TO.N,COM1*%
X57750000Y-77825000D03*
%TO.N,COM0*%
X59750000Y-77825000D03*
%TD*%
D11*
%TO.N,GND*%
%TO.C,J2*%
X26024000Y-68070000D03*
X26024000Y-76710000D03*
D12*
X21844000Y-68070000D03*
X21844000Y-76710000D03*
%TD*%
D13*
%TO.N,V_BUS_3V*%
X45900000Y-75200000D03*
X27200000Y-78400000D03*
X40000000Y-73000000D03*
X27700000Y-77900000D03*
X32306250Y-69893750D03*
X29200000Y-77200000D03*
%TO.N,GND*%
X28750000Y-78250000D03*
X49422500Y-71600000D03*
X53241054Y-68358946D03*
X47400000Y-74200000D03*
X36500000Y-71000000D03*
X30250000Y-69500000D03*
X40400000Y-72600000D03*
X33000000Y-79500000D03*
X35350000Y-72250000D03*
X33600000Y-67000000D03*
X34028211Y-77881273D03*
X30000000Y-74800000D03*
X38200000Y-76500000D03*
X43000000Y-74177500D03*
X36425000Y-73325000D03*
X43800000Y-71400000D03*
X29250000Y-67500000D03*
X40600000Y-78000000D03*
X44000000Y-76800000D03*
X29250000Y-82000000D03*
X40849804Y-69950196D03*
X29737266Y-73246645D03*
X45400000Y-72800000D03*
X28500000Y-75750000D03*
X27500000Y-80500000D03*
X20250000Y-76750000D03*
X30000000Y-71400000D03*
X50000000Y-68800000D03*
X42500000Y-69500000D03*
X39400000Y-74200000D03*
X50200000Y-73200000D03*
%TO.N,SDA_1*%
X31750000Y-71750000D03*
X50000000Y-80750000D03*
%TO.N,SCL_1*%
X50375000Y-78875000D03*
X48695000Y-81250000D03*
X51200000Y-70600000D03*
X31500000Y-71250000D03*
X50546446Y-75800000D03*
%TO.N,CS_1*%
X37800000Y-69532502D03*
X40706777Y-69303223D03*
%TO.N,CS_2*%
X36868813Y-69032502D03*
X47500000Y-69725000D03*
%TO.N,V_USB*%
X31000000Y-75400000D03*
X28080000Y-69990000D03*
X30125000Y-72625000D03*
%TO.N,BTN_1*%
X40700000Y-79300000D03*
X39000000Y-71200000D03*
%TO.N,BTN_2*%
X42200000Y-79200000D03*
X39000000Y-70600000D03*
%TO.N,V_BUS_ZONE_1*%
X43427500Y-75322500D03*
X44600000Y-69200000D03*
X50400000Y-74600000D03*
X49293756Y-78614959D03*
X42200000Y-71800000D03*
X47400000Y-67800000D03*
X55400000Y-81572501D03*
%TO.N,CONTROL_ZONE_1*%
X36000000Y-76405084D03*
X41200000Y-74600000D03*
%TO.N,NRST*%
X39465002Y-73400000D03*
X31367169Y-79879025D03*
%TO.N,USB_D-*%
X28071501Y-71696554D03*
X28250000Y-73500000D03*
%TO.N,HDC_DRDY*%
X31250000Y-70750000D03*
X34000000Y-80750000D03*
X31250000Y-80500000D03*
X48736181Y-78600000D03*
%TO.N,SDO_1*%
X35100000Y-68456095D03*
X49100000Y-69357108D03*
%TO.N,SDI_1*%
X35600000Y-69000000D03*
X40208692Y-67951000D03*
X48582875Y-72284290D03*
%TO.N,Net-(D1-PadA)*%
X40000000Y-77800000D03*
X37800000Y-78200000D03*
%TO.N,Net-(BT1-PadP)*%
X23750000Y-78500000D03*
%TO.N,SEG0*%
X53600000Y-69600000D03*
%TO.N,unconnected-(U2-SEG8-Pad20)*%
X57800000Y-72720000D03*
%TO.N,SEG5*%
X57800000Y-70400000D03*
%TO.N,unconnected-(U2-SEG10-Pad22)*%
X57800000Y-73720000D03*
%TO.N,~{DISP_RST}*%
X38950000Y-70000000D03*
%TO.N,unconnected-(U2-SEG12-Pad24)*%
X58500000Y-74900000D03*
%TO.N,unconnected-(U2-SEG13-Pad25)*%
X57700000Y-75600000D03*
%TO.N,unconnected-(U2-SEG9-Pad21)*%
X58580000Y-73220000D03*
%TO.N,unconnected-(U2-SEG11-Pad23)*%
X58700000Y-74220000D03*
%TO.N,unconnected-(U2-SEG7-Pad19)*%
X58500000Y-72220000D03*
%TO.N,COM2*%
X52080000Y-76600000D03*
%TD*%
%TA.AperFunction,Conductor*%
%TO.N,GND*%
G36*
X60304418Y-66500816D02*
G01*
X60501338Y-66514900D01*
X60511866Y-66516108D01*
X60554997Y-66522939D01*
X60561919Y-66524239D01*
X60731734Y-66561180D01*
X60743649Y-66564403D01*
X60776846Y-66575189D01*
X60781837Y-66576930D01*
X60953736Y-66641045D01*
X60966661Y-66646726D01*
X60978263Y-66652638D01*
X60981255Y-66654217D01*
X61156974Y-66750166D01*
X61171848Y-66759724D01*
X61246303Y-66815461D01*
X61340353Y-66885866D01*
X61353723Y-66897452D01*
X61502547Y-67046276D01*
X61514133Y-67059646D01*
X61640271Y-67228146D01*
X61649835Y-67243029D01*
X61649836Y-67243031D01*
X61745751Y-67418686D01*
X61747388Y-67421787D01*
X61753265Y-67433322D01*
X61758959Y-67446277D01*
X61823067Y-67618159D01*
X61824815Y-67623171D01*
X61835588Y-67656324D01*
X61838824Y-67668287D01*
X61875755Y-67838060D01*
X61877062Y-67845021D01*
X61883888Y-67888120D01*
X61885099Y-67898670D01*
X61899184Y-68095582D01*
X61899500Y-68104429D01*
X61899500Y-80895570D01*
X61899184Y-80904417D01*
X61885099Y-81101328D01*
X61883888Y-81111878D01*
X61877062Y-81154977D01*
X61875755Y-81161938D01*
X61838824Y-81331711D01*
X61835588Y-81343674D01*
X61824815Y-81376827D01*
X61823067Y-81381839D01*
X61758959Y-81553721D01*
X61753261Y-81566683D01*
X61753260Y-81566685D01*
X61747394Y-81578197D01*
X61745743Y-81581326D01*
X61649838Y-81756965D01*
X61640273Y-81771850D01*
X61514133Y-81940353D01*
X61502547Y-81953723D01*
X61353723Y-82102547D01*
X61340353Y-82114133D01*
X61171850Y-82240273D01*
X61156968Y-82249836D01*
X61156965Y-82249838D01*
X60981326Y-82345743D01*
X60978197Y-82347394D01*
X60966685Y-82353260D01*
X60953721Y-82358959D01*
X60781839Y-82423067D01*
X60776827Y-82424815D01*
X60743674Y-82435588D01*
X60731711Y-82438824D01*
X60561938Y-82475755D01*
X60554977Y-82477062D01*
X60511878Y-82483888D01*
X60501328Y-82485099D01*
X60304418Y-82499184D01*
X60295571Y-82499500D01*
X20604429Y-82499500D01*
X20595582Y-82499184D01*
X20398670Y-82485099D01*
X20388120Y-82483888D01*
X20345021Y-82477062D01*
X20338060Y-82475755D01*
X20168287Y-82438824D01*
X20156324Y-82435588D01*
X20123171Y-82424815D01*
X20118159Y-82423067D01*
X19946277Y-82358959D01*
X19933322Y-82353265D01*
X19921787Y-82347388D01*
X19918686Y-82345751D01*
X19918671Y-82345743D01*
X19743029Y-82249835D01*
X19728146Y-82240271D01*
X19559646Y-82114133D01*
X19546276Y-82102547D01*
X19397452Y-81953723D01*
X19385866Y-81940353D01*
X19326908Y-81861594D01*
X19259724Y-81771848D01*
X19250166Y-81756974D01*
X19154217Y-81581255D01*
X19152638Y-81578263D01*
X19146726Y-81566661D01*
X19141045Y-81553736D01*
X19076930Y-81381837D01*
X19075183Y-81376827D01*
X19064403Y-81343649D01*
X19061180Y-81331734D01*
X19024239Y-81161919D01*
X19022939Y-81154997D01*
X19016108Y-81111866D01*
X19014900Y-81101338D01*
X19000816Y-80904417D01*
X19000500Y-80895572D01*
X19000500Y-80424442D01*
X21779600Y-80424442D01*
X21779600Y-80566357D01*
X21807282Y-80705525D01*
X21807284Y-80705533D01*
X21861588Y-80836633D01*
X21861593Y-80836643D01*
X21940428Y-80954627D01*
X21940431Y-80954631D01*
X22040768Y-81054968D01*
X22040772Y-81054971D01*
X22158756Y-81133806D01*
X22158760Y-81133808D01*
X22158763Y-81133810D01*
X22289867Y-81188116D01*
X22425709Y-81215136D01*
X22429042Y-81215799D01*
X22429046Y-81215800D01*
X22429047Y-81215800D01*
X22570954Y-81215800D01*
X22570955Y-81215799D01*
X22710133Y-81188116D01*
X22841237Y-81133810D01*
X22959228Y-81054971D01*
X23059571Y-80954628D01*
X23138410Y-80836637D01*
X23192716Y-80705533D01*
X23220400Y-80566353D01*
X23220400Y-80424447D01*
X23220399Y-80424442D01*
X24779600Y-80424442D01*
X24779600Y-80566357D01*
X24807282Y-80705525D01*
X24807284Y-80705533D01*
X24861588Y-80836633D01*
X24861593Y-80836643D01*
X24940428Y-80954627D01*
X24940431Y-80954631D01*
X25040768Y-81054968D01*
X25040772Y-81054971D01*
X25158756Y-81133806D01*
X25158760Y-81133808D01*
X25158763Y-81133810D01*
X25289867Y-81188116D01*
X25425709Y-81215136D01*
X25429042Y-81215799D01*
X25429046Y-81215800D01*
X25429047Y-81215800D01*
X25570954Y-81215800D01*
X25570955Y-81215799D01*
X25652844Y-81199511D01*
X48311500Y-81199511D01*
X48311500Y-81300489D01*
X48337635Y-81398025D01*
X48388124Y-81485474D01*
X48459526Y-81556876D01*
X48546975Y-81607365D01*
X48644511Y-81633500D01*
X48644514Y-81633500D01*
X48745486Y-81633500D01*
X48745489Y-81633500D01*
X48843025Y-81607365D01*
X48930474Y-81556876D01*
X48965338Y-81522012D01*
X55016500Y-81522012D01*
X55016500Y-81622990D01*
X55042635Y-81720526D01*
X55093124Y-81807975D01*
X55164526Y-81879377D01*
X55251975Y-81929866D01*
X55349511Y-81956001D01*
X55349514Y-81956001D01*
X55450486Y-81956001D01*
X55450489Y-81956001D01*
X55548025Y-81929866D01*
X55635474Y-81879377D01*
X55706876Y-81807975D01*
X55757365Y-81720526D01*
X55783500Y-81622990D01*
X55783500Y-81522012D01*
X55757365Y-81424476D01*
X55706876Y-81337027D01*
X55635474Y-81265625D01*
X55548025Y-81215136D01*
X55450489Y-81189001D01*
X55349511Y-81189001D01*
X55251975Y-81215136D01*
X55251973Y-81215136D01*
X55251973Y-81215137D01*
X55164526Y-81265625D01*
X55164523Y-81265627D01*
X55093126Y-81337024D01*
X55093124Y-81337027D01*
X55057907Y-81398025D01*
X55042635Y-81424476D01*
X55016500Y-81522012D01*
X48965338Y-81522012D01*
X49001876Y-81485474D01*
X49052365Y-81398025D01*
X49078500Y-81300489D01*
X49078500Y-81199511D01*
X49052365Y-81101975D01*
X49001876Y-81014526D01*
X48930474Y-80943124D01*
X48843025Y-80892635D01*
X48745489Y-80866500D01*
X48644511Y-80866500D01*
X48546975Y-80892635D01*
X48546973Y-80892635D01*
X48546973Y-80892636D01*
X48459526Y-80943124D01*
X48459523Y-80943126D01*
X48388126Y-81014523D01*
X48388124Y-81014526D01*
X48338009Y-81101328D01*
X48337635Y-81101975D01*
X48311500Y-81199511D01*
X25652844Y-81199511D01*
X25710133Y-81188116D01*
X25841237Y-81133810D01*
X25959228Y-81054971D01*
X26059571Y-80954628D01*
X26138410Y-80836637D01*
X26192716Y-80705533D01*
X26220400Y-80566353D01*
X26220400Y-80449511D01*
X30866500Y-80449511D01*
X30866500Y-80550489D01*
X30892635Y-80648025D01*
X30943124Y-80735474D01*
X31014526Y-80806876D01*
X31101975Y-80857365D01*
X31199511Y-80883500D01*
X31199514Y-80883500D01*
X31300486Y-80883500D01*
X31300489Y-80883500D01*
X31398025Y-80857365D01*
X31485474Y-80806876D01*
X31556876Y-80735474D01*
X31583976Y-80688534D01*
X31634543Y-80640320D01*
X31703150Y-80627096D01*
X31768014Y-80653064D01*
X31794465Y-80681644D01*
X31799316Y-80688904D01*
X31799319Y-80688908D01*
X31903194Y-80792783D01*
X31903198Y-80792786D01*
X32025342Y-80874401D01*
X32025348Y-80874404D01*
X32025349Y-80874405D01*
X32161076Y-80930625D01*
X32305158Y-80959284D01*
X32305162Y-80959285D01*
X32305163Y-80959285D01*
X32452074Y-80959285D01*
X32452075Y-80959284D01*
X32596160Y-80930625D01*
X32731887Y-80874405D01*
X32854038Y-80792786D01*
X32947313Y-80699511D01*
X33616500Y-80699511D01*
X33616500Y-80800489D01*
X33642635Y-80898025D01*
X33693124Y-80985474D01*
X33764526Y-81056876D01*
X33851975Y-81107365D01*
X33949511Y-81133500D01*
X33949514Y-81133500D01*
X34050486Y-81133500D01*
X34050489Y-81133500D01*
X34148025Y-81107365D01*
X34235474Y-81056876D01*
X34306876Y-80985474D01*
X34357365Y-80898025D01*
X34383500Y-80800489D01*
X34383500Y-80699511D01*
X49616500Y-80699511D01*
X49616500Y-80800489D01*
X49642635Y-80898025D01*
X49693124Y-80985474D01*
X49764526Y-81056876D01*
X49851975Y-81107365D01*
X49949511Y-81133500D01*
X49949514Y-81133500D01*
X50050486Y-81133500D01*
X50050489Y-81133500D01*
X50148025Y-81107365D01*
X50235474Y-81056876D01*
X50306876Y-80985474D01*
X50357365Y-80898025D01*
X50383500Y-80800489D01*
X50383500Y-80699511D01*
X50357365Y-80601975D01*
X50306876Y-80514526D01*
X50235474Y-80443124D01*
X50148025Y-80392635D01*
X50050489Y-80366500D01*
X49949511Y-80366500D01*
X49851975Y-80392635D01*
X49851973Y-80392635D01*
X49851973Y-80392636D01*
X49764526Y-80443124D01*
X49764523Y-80443126D01*
X49693126Y-80514523D01*
X49693124Y-80514526D01*
X49662967Y-80566760D01*
X49642635Y-80601975D01*
X49616500Y-80699511D01*
X34383500Y-80699511D01*
X34357365Y-80601975D01*
X34306876Y-80514526D01*
X34235474Y-80443124D01*
X34148025Y-80392635D01*
X34050489Y-80366500D01*
X33949511Y-80366500D01*
X33851975Y-80392635D01*
X33851973Y-80392635D01*
X33851973Y-80392636D01*
X33764526Y-80443124D01*
X33764523Y-80443126D01*
X33693126Y-80514523D01*
X33693124Y-80514526D01*
X33662967Y-80566760D01*
X33642635Y-80601975D01*
X33616500Y-80699511D01*
X32947313Y-80699511D01*
X32957919Y-80688905D01*
X32999219Y-80627096D01*
X33002295Y-80622493D01*
X33039534Y-80566760D01*
X33039534Y-80566759D01*
X33039538Y-80566754D01*
X33095758Y-80431027D01*
X33124418Y-80286940D01*
X33124418Y-80140030D01*
X33095758Y-79995943D01*
X33039538Y-79860216D01*
X33039537Y-79860215D01*
X33039534Y-79860209D01*
X32957919Y-79738065D01*
X32957916Y-79738061D01*
X32854041Y-79634186D01*
X32854037Y-79634183D01*
X32731893Y-79552568D01*
X32731884Y-79552563D01*
X32596162Y-79496346D01*
X32596163Y-79496346D01*
X32596160Y-79496345D01*
X32596156Y-79496344D01*
X32596152Y-79496343D01*
X32452077Y-79467685D01*
X32452073Y-79467685D01*
X32305163Y-79467685D01*
X32305158Y-79467685D01*
X32161083Y-79496343D01*
X32161073Y-79496346D01*
X32025351Y-79552563D01*
X32025342Y-79552568D01*
X31903198Y-79634183D01*
X31903194Y-79634186D01*
X31868760Y-79668621D01*
X31807437Y-79702106D01*
X31737745Y-79697122D01*
X31681812Y-79655250D01*
X31674405Y-79644021D01*
X31674047Y-79643554D01*
X31674045Y-79643551D01*
X31602643Y-79572149D01*
X31515194Y-79521660D01*
X31417658Y-79495525D01*
X31316680Y-79495525D01*
X31219144Y-79521660D01*
X31219142Y-79521660D01*
X31219142Y-79521661D01*
X31131695Y-79572149D01*
X31131692Y-79572151D01*
X31060295Y-79643548D01*
X31060293Y-79643551D01*
X31029364Y-79697122D01*
X31009804Y-79731000D01*
X30983669Y-79828536D01*
X30983669Y-79929514D01*
X31009804Y-80027050D01*
X31015071Y-80036172D01*
X31024745Y-80052928D01*
X31041218Y-80120828D01*
X31018366Y-80186855D01*
X31005040Y-80202610D01*
X30943124Y-80264526D01*
X30892635Y-80351975D01*
X30866500Y-80449511D01*
X26220400Y-80449511D01*
X26220400Y-80424447D01*
X26192716Y-80285267D01*
X26138410Y-80154163D01*
X26138408Y-80154160D01*
X26138406Y-80154156D01*
X26059571Y-80036172D01*
X26059568Y-80036168D01*
X25959231Y-79935831D01*
X25959227Y-79935828D01*
X25841243Y-79856993D01*
X25841233Y-79856988D01*
X25710133Y-79802684D01*
X25710125Y-79802682D01*
X25570957Y-79775000D01*
X25570953Y-79775000D01*
X25429047Y-79775000D01*
X25429042Y-79775000D01*
X25289874Y-79802682D01*
X25289866Y-79802684D01*
X25158766Y-79856988D01*
X25158756Y-79856993D01*
X25040772Y-79935828D01*
X25040768Y-79935831D01*
X24940431Y-80036168D01*
X24940428Y-80036172D01*
X24861593Y-80154156D01*
X24861588Y-80154166D01*
X24807284Y-80285266D01*
X24807282Y-80285274D01*
X24779600Y-80424442D01*
X23220399Y-80424442D01*
X23192716Y-80285267D01*
X23138410Y-80154163D01*
X23138408Y-80154160D01*
X23138406Y-80154156D01*
X23059571Y-80036172D01*
X23059568Y-80036168D01*
X22959231Y-79935831D01*
X22959227Y-79935828D01*
X22841243Y-79856993D01*
X22841233Y-79856988D01*
X22710133Y-79802684D01*
X22710125Y-79802682D01*
X22570957Y-79775000D01*
X22570953Y-79775000D01*
X22429047Y-79775000D01*
X22429042Y-79775000D01*
X22289874Y-79802682D01*
X22289866Y-79802684D01*
X22158766Y-79856988D01*
X22158756Y-79856993D01*
X22040772Y-79935828D01*
X22040768Y-79935831D01*
X21940431Y-80036168D01*
X21940428Y-80036172D01*
X21861593Y-80154156D01*
X21861588Y-80154166D01*
X21807284Y-80285266D01*
X21807282Y-80285274D01*
X21779600Y-80424442D01*
X19000500Y-80424442D01*
X19000500Y-78449511D01*
X23366500Y-78449511D01*
X23366500Y-78550489D01*
X23392635Y-78648025D01*
X23443124Y-78735474D01*
X23514526Y-78806876D01*
X23601975Y-78857365D01*
X23699511Y-78883500D01*
X23699514Y-78883500D01*
X23800486Y-78883500D01*
X23800489Y-78883500D01*
X23898025Y-78857365D01*
X23985474Y-78806876D01*
X24056876Y-78735474D01*
X24107365Y-78648025D01*
X24133500Y-78550489D01*
X24133500Y-78449511D01*
X24107365Y-78351975D01*
X24105942Y-78349511D01*
X26816500Y-78349511D01*
X26816500Y-78450489D01*
X26842635Y-78548025D01*
X26893124Y-78635474D01*
X26964526Y-78706876D01*
X27051975Y-78757365D01*
X27149511Y-78783500D01*
X27149514Y-78783500D01*
X27250486Y-78783500D01*
X27250489Y-78783500D01*
X27348025Y-78757365D01*
X27435474Y-78706876D01*
X27439166Y-78703184D01*
X33069659Y-78703184D01*
X33069659Y-78850103D01*
X33098317Y-78994178D01*
X33098320Y-78994188D01*
X33154537Y-79129910D01*
X33154542Y-79129919D01*
X33236157Y-79252063D01*
X33236160Y-79252067D01*
X33340035Y-79355942D01*
X33340039Y-79355945D01*
X33462183Y-79437560D01*
X33462189Y-79437563D01*
X33462190Y-79437564D01*
X33597917Y-79493784D01*
X33741999Y-79522443D01*
X33742003Y-79522444D01*
X33742004Y-79522444D01*
X33888915Y-79522444D01*
X33888916Y-79522443D01*
X34033001Y-79493784D01*
X34168728Y-79437564D01*
X34290879Y-79355945D01*
X34394760Y-79252064D01*
X34396466Y-79249511D01*
X40316500Y-79249511D01*
X40316500Y-79350489D01*
X40342635Y-79448025D01*
X40393124Y-79535474D01*
X40464526Y-79606876D01*
X40551975Y-79657365D01*
X40649511Y-79683500D01*
X40649514Y-79683500D01*
X40750486Y-79683500D01*
X40750489Y-79683500D01*
X40848025Y-79657365D01*
X40935474Y-79606876D01*
X41006876Y-79535474D01*
X41057365Y-79448025D01*
X41083500Y-79350489D01*
X41083500Y-79249511D01*
X41057365Y-79151975D01*
X41055942Y-79149511D01*
X41816500Y-79149511D01*
X41816500Y-79250489D01*
X41842635Y-79348025D01*
X41893124Y-79435474D01*
X41964526Y-79506876D01*
X42051975Y-79557365D01*
X42149511Y-79583500D01*
X42149514Y-79583500D01*
X42250486Y-79583500D01*
X42250489Y-79583500D01*
X42348025Y-79557365D01*
X42435474Y-79506876D01*
X42506876Y-79435474D01*
X42557365Y-79348025D01*
X42583500Y-79250489D01*
X42583500Y-79149511D01*
X42557365Y-79051975D01*
X42506876Y-78964526D01*
X42435474Y-78893124D01*
X42348025Y-78842635D01*
X42250489Y-78816500D01*
X42149511Y-78816500D01*
X42051975Y-78842635D01*
X42051973Y-78842635D01*
X42051973Y-78842636D01*
X41964526Y-78893124D01*
X41964523Y-78893126D01*
X41893126Y-78964523D01*
X41893124Y-78964526D01*
X41875999Y-78994188D01*
X41842635Y-79051975D01*
X41816500Y-79149511D01*
X41055942Y-79149511D01*
X41033404Y-79110474D01*
X41006876Y-79064526D01*
X40935474Y-78993124D01*
X40848025Y-78942635D01*
X40750489Y-78916500D01*
X40649511Y-78916500D01*
X40551975Y-78942635D01*
X40551973Y-78942635D01*
X40551973Y-78942636D01*
X40464526Y-78993124D01*
X40464523Y-78993126D01*
X40393126Y-79064523D01*
X40393124Y-79064526D01*
X40344058Y-79149511D01*
X40342635Y-79151975D01*
X40316500Y-79249511D01*
X34396466Y-79249511D01*
X34476379Y-79129913D01*
X34532599Y-78994186D01*
X34561259Y-78850099D01*
X34561259Y-78703189D01*
X34532599Y-78559102D01*
X34476379Y-78423375D01*
X34476378Y-78423374D01*
X34476375Y-78423368D01*
X34394760Y-78301224D01*
X34394757Y-78301220D01*
X34290882Y-78197345D01*
X34290878Y-78197342D01*
X34219295Y-78149511D01*
X37416500Y-78149511D01*
X37416500Y-78250489D01*
X37442635Y-78348025D01*
X37493124Y-78435474D01*
X37564526Y-78506876D01*
X37651975Y-78557365D01*
X37749511Y-78583500D01*
X37749514Y-78583500D01*
X37850486Y-78583500D01*
X37850489Y-78583500D01*
X37948025Y-78557365D01*
X37961628Y-78549511D01*
X48352681Y-78549511D01*
X48352681Y-78650489D01*
X48378816Y-78748025D01*
X48429305Y-78835474D01*
X48500707Y-78906876D01*
X48588156Y-78957365D01*
X48685692Y-78983500D01*
X48685695Y-78983500D01*
X48786667Y-78983500D01*
X48786670Y-78983500D01*
X48884206Y-78957365D01*
X48940013Y-78925144D01*
X49007911Y-78908671D01*
X49064012Y-78925143D01*
X49145731Y-78972324D01*
X49243267Y-78998459D01*
X49243270Y-78998459D01*
X49344242Y-78998459D01*
X49344245Y-78998459D01*
X49441781Y-78972324D01*
X49529230Y-78921835D01*
X49600632Y-78850433D01*
X49615598Y-78824511D01*
X49991500Y-78824511D01*
X49991500Y-78925489D01*
X50017635Y-79023025D01*
X50068124Y-79110474D01*
X50139526Y-79181876D01*
X50226975Y-79232365D01*
X50324511Y-79258500D01*
X50324514Y-79258500D01*
X50425486Y-79258500D01*
X50425489Y-79258500D01*
X50523025Y-79232365D01*
X50610474Y-79181876D01*
X50681876Y-79110474D01*
X50732365Y-79023025D01*
X50758500Y-78925489D01*
X50758500Y-78824511D01*
X50732365Y-78726975D01*
X50681876Y-78639526D01*
X50610474Y-78568124D01*
X50523025Y-78517635D01*
X50425489Y-78491500D01*
X50324511Y-78491500D01*
X50226975Y-78517635D01*
X50226973Y-78517635D01*
X50226973Y-78517636D01*
X50139526Y-78568124D01*
X50139523Y-78568126D01*
X50068126Y-78639523D01*
X50068124Y-78639526D01*
X50031369Y-78703188D01*
X50017635Y-78726975D01*
X49991500Y-78824511D01*
X49615598Y-78824511D01*
X49651121Y-78762984D01*
X49677256Y-78665448D01*
X49677256Y-78564470D01*
X49651121Y-78466934D01*
X49600632Y-78379485D01*
X49529230Y-78308083D01*
X49441781Y-78257594D01*
X49344245Y-78231459D01*
X49243267Y-78231459D01*
X49153726Y-78255451D01*
X49145727Y-78257595D01*
X49089923Y-78289814D01*
X49022023Y-78306287D01*
X48965923Y-78289814D01*
X48884209Y-78242636D01*
X48884210Y-78242636D01*
X48876210Y-78240492D01*
X48786670Y-78216500D01*
X48685692Y-78216500D01*
X48588156Y-78242635D01*
X48588154Y-78242635D01*
X48588154Y-78242636D01*
X48500707Y-78293124D01*
X48500704Y-78293126D01*
X48429307Y-78364523D01*
X48429305Y-78364526D01*
X48380239Y-78449511D01*
X48378816Y-78451975D01*
X48352681Y-78549511D01*
X37961628Y-78549511D01*
X38035474Y-78506876D01*
X38106876Y-78435474D01*
X38157365Y-78348025D01*
X38183500Y-78250489D01*
X38183500Y-78149511D01*
X38157365Y-78051975D01*
X38106876Y-77964526D01*
X38035474Y-77893124D01*
X37971382Y-77856120D01*
X37958653Y-77848771D01*
X37958651Y-77848769D01*
X37948028Y-77842636D01*
X37948029Y-77842636D01*
X37940029Y-77840492D01*
X37850489Y-77816500D01*
X37749511Y-77816500D01*
X37651975Y-77842635D01*
X37651973Y-77842635D01*
X37651973Y-77842636D01*
X37564526Y-77893124D01*
X37564523Y-77893126D01*
X37493126Y-77964523D01*
X37493124Y-77964526D01*
X37444916Y-78048025D01*
X37442635Y-78051975D01*
X37416500Y-78149511D01*
X34219295Y-78149511D01*
X34168734Y-78115727D01*
X34168725Y-78115722D01*
X34033003Y-78059505D01*
X34033004Y-78059505D01*
X34033001Y-78059504D01*
X34032997Y-78059503D01*
X34032993Y-78059502D01*
X33888918Y-78030844D01*
X33888914Y-78030844D01*
X33742004Y-78030844D01*
X33741999Y-78030844D01*
X33597924Y-78059502D01*
X33597914Y-78059505D01*
X33462192Y-78115722D01*
X33462183Y-78115727D01*
X33340039Y-78197342D01*
X33340035Y-78197345D01*
X33236160Y-78301220D01*
X33236157Y-78301224D01*
X33154542Y-78423368D01*
X33154537Y-78423377D01*
X33098320Y-78559099D01*
X33098317Y-78559109D01*
X33069659Y-78703184D01*
X27439166Y-78703184D01*
X27506876Y-78635474D01*
X27557365Y-78548025D01*
X27583500Y-78450489D01*
X27583500Y-78407500D01*
X27603185Y-78340461D01*
X27655989Y-78294706D01*
X27707500Y-78283500D01*
X27750486Y-78283500D01*
X27750489Y-78283500D01*
X27848025Y-78257365D01*
X27935474Y-78206876D01*
X28006876Y-78135474D01*
X28057365Y-78048025D01*
X28083500Y-77950489D01*
X28083500Y-77849511D01*
X28057365Y-77751975D01*
X28055942Y-77749511D01*
X39616500Y-77749511D01*
X39616500Y-77850489D01*
X39642635Y-77948025D01*
X39693124Y-78035474D01*
X39764526Y-78106876D01*
X39851975Y-78157365D01*
X39949511Y-78183500D01*
X39949514Y-78183500D01*
X40050486Y-78183500D01*
X40050489Y-78183500D01*
X40148025Y-78157365D01*
X40235474Y-78106876D01*
X40306876Y-78035474D01*
X40357365Y-77948025D01*
X40383500Y-77850489D01*
X40383500Y-77755214D01*
X51041500Y-77755214D01*
X51041500Y-77894785D01*
X51068725Y-78031654D01*
X51068727Y-78031662D01*
X51122134Y-78160597D01*
X51122139Y-78160607D01*
X51199671Y-78276641D01*
X51199674Y-78276645D01*
X51298354Y-78375325D01*
X51298358Y-78375328D01*
X51414392Y-78452860D01*
X51414396Y-78452862D01*
X51414399Y-78452864D01*
X51543338Y-78506273D01*
X51680214Y-78533499D01*
X51680218Y-78533500D01*
X51680219Y-78533500D01*
X51819782Y-78533500D01*
X51819783Y-78533499D01*
X51956662Y-78506273D01*
X52085601Y-78452864D01*
X52201642Y-78375328D01*
X52300328Y-78276642D01*
X52377864Y-78160601D01*
X52431273Y-78031662D01*
X52458500Y-77894781D01*
X52458500Y-77755219D01*
X52458499Y-77755214D01*
X53041500Y-77755214D01*
X53041500Y-77894785D01*
X53068725Y-78031654D01*
X53068727Y-78031662D01*
X53122134Y-78160597D01*
X53122139Y-78160607D01*
X53199671Y-78276641D01*
X53199674Y-78276645D01*
X53298354Y-78375325D01*
X53298358Y-78375328D01*
X53414392Y-78452860D01*
X53414396Y-78452862D01*
X53414399Y-78452864D01*
X53543338Y-78506273D01*
X53680214Y-78533499D01*
X53680218Y-78533500D01*
X53680219Y-78533500D01*
X53819782Y-78533500D01*
X53819783Y-78533499D01*
X53956662Y-78506273D01*
X54085601Y-78452864D01*
X54201642Y-78375328D01*
X54300328Y-78276642D01*
X54377864Y-78160601D01*
X54431273Y-78031662D01*
X54458500Y-77894781D01*
X54458500Y-77755219D01*
X54458499Y-77755214D01*
X55041500Y-77755214D01*
X55041500Y-77894785D01*
X55068725Y-78031654D01*
X55068727Y-78031662D01*
X55122134Y-78160597D01*
X55122139Y-78160607D01*
X55199671Y-78276641D01*
X55199674Y-78276645D01*
X55298354Y-78375325D01*
X55298358Y-78375328D01*
X55414392Y-78452860D01*
X55414396Y-78452862D01*
X55414399Y-78452864D01*
X55543338Y-78506273D01*
X55680214Y-78533499D01*
X55680218Y-78533500D01*
X55680219Y-78533500D01*
X55819782Y-78533500D01*
X55819783Y-78533499D01*
X55956662Y-78506273D01*
X56085601Y-78452864D01*
X56201642Y-78375328D01*
X56300328Y-78276642D01*
X56377864Y-78160601D01*
X56431273Y-78031662D01*
X56458500Y-77894781D01*
X56458500Y-77755219D01*
X56458499Y-77755214D01*
X57041500Y-77755214D01*
X57041500Y-77894785D01*
X57068725Y-78031654D01*
X57068727Y-78031662D01*
X57122134Y-78160597D01*
X57122139Y-78160607D01*
X57199671Y-78276641D01*
X57199674Y-78276645D01*
X57298354Y-78375325D01*
X57298358Y-78375328D01*
X57414392Y-78452860D01*
X57414396Y-78452862D01*
X57414399Y-78452864D01*
X57543338Y-78506273D01*
X57680214Y-78533499D01*
X57680218Y-78533500D01*
X57680219Y-78533500D01*
X57819782Y-78533500D01*
X57819783Y-78533499D01*
X57956662Y-78506273D01*
X58085601Y-78452864D01*
X58201642Y-78375328D01*
X58300328Y-78276642D01*
X58377864Y-78160601D01*
X58431273Y-78031662D01*
X58458500Y-77894781D01*
X58458500Y-77755219D01*
X58458499Y-77755214D01*
X59041500Y-77755214D01*
X59041500Y-77894785D01*
X59068725Y-78031654D01*
X59068727Y-78031662D01*
X59122134Y-78160597D01*
X59122139Y-78160607D01*
X59199671Y-78276641D01*
X59199674Y-78276645D01*
X59298354Y-78375325D01*
X59298358Y-78375328D01*
X59414392Y-78452860D01*
X59414396Y-78452862D01*
X59414399Y-78452864D01*
X59543338Y-78506273D01*
X59680214Y-78533499D01*
X59680218Y-78533500D01*
X59680219Y-78533500D01*
X59819782Y-78533500D01*
X59819783Y-78533499D01*
X59956662Y-78506273D01*
X60085601Y-78452864D01*
X60201642Y-78375328D01*
X60300328Y-78276642D01*
X60377864Y-78160601D01*
X60431273Y-78031662D01*
X60458500Y-77894781D01*
X60458500Y-77755219D01*
X60431273Y-77618338D01*
X60377864Y-77489399D01*
X60377862Y-77489396D01*
X60377860Y-77489392D01*
X60300328Y-77373358D01*
X60300325Y-77373354D01*
X60201645Y-77274674D01*
X60201641Y-77274671D01*
X60085607Y-77197139D01*
X60085597Y-77197134D01*
X59956662Y-77143727D01*
X59956654Y-77143725D01*
X59819785Y-77116500D01*
X59819781Y-77116500D01*
X59680219Y-77116500D01*
X59680214Y-77116500D01*
X59543345Y-77143725D01*
X59543337Y-77143727D01*
X59414402Y-77197134D01*
X59414392Y-77197139D01*
X59298358Y-77274671D01*
X59298354Y-77274674D01*
X59199674Y-77373354D01*
X59199671Y-77373358D01*
X59122139Y-77489392D01*
X59122134Y-77489402D01*
X59068727Y-77618337D01*
X59068725Y-77618345D01*
X59041500Y-77755214D01*
X58458499Y-77755214D01*
X58431273Y-77618338D01*
X58377864Y-77489399D01*
X58377862Y-77489396D01*
X58377860Y-77489392D01*
X58300328Y-77373358D01*
X58300325Y-77373354D01*
X58201645Y-77274674D01*
X58201641Y-77274671D01*
X58085607Y-77197139D01*
X58085597Y-77197134D01*
X57956662Y-77143727D01*
X57956654Y-77143725D01*
X57819785Y-77116500D01*
X57819781Y-77116500D01*
X57680219Y-77116500D01*
X57680214Y-77116500D01*
X57543345Y-77143725D01*
X57543337Y-77143727D01*
X57414402Y-77197134D01*
X57414392Y-77197139D01*
X57298358Y-77274671D01*
X57298354Y-77274674D01*
X57199674Y-77373354D01*
X57199671Y-77373358D01*
X57122139Y-77489392D01*
X57122134Y-77489402D01*
X57068727Y-77618337D01*
X57068725Y-77618345D01*
X57041500Y-77755214D01*
X56458499Y-77755214D01*
X56431273Y-77618338D01*
X56377864Y-77489399D01*
X56377862Y-77489396D01*
X56377860Y-77489392D01*
X56300328Y-77373358D01*
X56300325Y-77373354D01*
X56201645Y-77274674D01*
X56201641Y-77274671D01*
X56085607Y-77197139D01*
X56085597Y-77197134D01*
X55956662Y-77143727D01*
X55956654Y-77143725D01*
X55819785Y-77116500D01*
X55819781Y-77116500D01*
X55680219Y-77116500D01*
X55680214Y-77116500D01*
X55543345Y-77143725D01*
X55543337Y-77143727D01*
X55414402Y-77197134D01*
X55414392Y-77197139D01*
X55298358Y-77274671D01*
X55298354Y-77274674D01*
X55199674Y-77373354D01*
X55199671Y-77373358D01*
X55122139Y-77489392D01*
X55122134Y-77489402D01*
X55068727Y-77618337D01*
X55068725Y-77618345D01*
X55041500Y-77755214D01*
X54458499Y-77755214D01*
X54431273Y-77618338D01*
X54377864Y-77489399D01*
X54377862Y-77489396D01*
X54377860Y-77489392D01*
X54300328Y-77373358D01*
X54300325Y-77373354D01*
X54201645Y-77274674D01*
X54201641Y-77274671D01*
X54085607Y-77197139D01*
X54085597Y-77197134D01*
X53956662Y-77143727D01*
X53956654Y-77143725D01*
X53819785Y-77116500D01*
X53819781Y-77116500D01*
X53680219Y-77116500D01*
X53680214Y-77116500D01*
X53543345Y-77143725D01*
X53543337Y-77143727D01*
X53414402Y-77197134D01*
X53414392Y-77197139D01*
X53298358Y-77274671D01*
X53298354Y-77274674D01*
X53199674Y-77373354D01*
X53199671Y-77373358D01*
X53122139Y-77489392D01*
X53122134Y-77489402D01*
X53068727Y-77618337D01*
X53068725Y-77618345D01*
X53041500Y-77755214D01*
X52458499Y-77755214D01*
X52431273Y-77618338D01*
X52377864Y-77489399D01*
X52377862Y-77489396D01*
X52377860Y-77489392D01*
X52300328Y-77373358D01*
X52300325Y-77373354D01*
X52201645Y-77274674D01*
X52201641Y-77274671D01*
X52097788Y-77205278D01*
X52052983Y-77151666D01*
X52044276Y-77082341D01*
X52074431Y-77019313D01*
X52133874Y-76982594D01*
X52134201Y-76982505D01*
X52228025Y-76957365D01*
X52315474Y-76906876D01*
X52386876Y-76835474D01*
X52437365Y-76748025D01*
X52463500Y-76650489D01*
X52463500Y-76549511D01*
X52437365Y-76451975D01*
X52386876Y-76364526D01*
X52315474Y-76293124D01*
X52228025Y-76242635D01*
X52130489Y-76216500D01*
X52029511Y-76216500D01*
X51931975Y-76242635D01*
X51931973Y-76242635D01*
X51931973Y-76242636D01*
X51844526Y-76293124D01*
X51844523Y-76293126D01*
X51773126Y-76364523D01*
X51773124Y-76364526D01*
X51722635Y-76451975D01*
X51696500Y-76549511D01*
X51696500Y-76650489D01*
X51722635Y-76748025D01*
X51773124Y-76835474D01*
X51773126Y-76835476D01*
X51842469Y-76904819D01*
X51875954Y-76966142D01*
X51870970Y-77035834D01*
X51829098Y-77091767D01*
X51763634Y-77116184D01*
X51754788Y-77116500D01*
X51680214Y-77116500D01*
X51543345Y-77143725D01*
X51543337Y-77143727D01*
X51414402Y-77197134D01*
X51414392Y-77197139D01*
X51298358Y-77274671D01*
X51298354Y-77274674D01*
X51199674Y-77373354D01*
X51199671Y-77373358D01*
X51122139Y-77489392D01*
X51122134Y-77489402D01*
X51068727Y-77618337D01*
X51068725Y-77618345D01*
X51041500Y-77755214D01*
X40383500Y-77755214D01*
X40383500Y-77749511D01*
X40357365Y-77651975D01*
X40306876Y-77564526D01*
X40235474Y-77493124D01*
X40148025Y-77442635D01*
X40050489Y-77416500D01*
X39949511Y-77416500D01*
X39851975Y-77442635D01*
X39851973Y-77442635D01*
X39851973Y-77442636D01*
X39764526Y-77493124D01*
X39764523Y-77493126D01*
X39693126Y-77564523D01*
X39693124Y-77564526D01*
X39674842Y-77596192D01*
X39642635Y-77651975D01*
X39616500Y-77749511D01*
X28055942Y-77749511D01*
X28006876Y-77664526D01*
X27935474Y-77593124D01*
X27848025Y-77542635D01*
X27750489Y-77516500D01*
X27649511Y-77516500D01*
X27551975Y-77542635D01*
X27551973Y-77542635D01*
X27551973Y-77542636D01*
X27464526Y-77593124D01*
X27464523Y-77593126D01*
X27393126Y-77664523D01*
X27393124Y-77664526D01*
X27344058Y-77749511D01*
X27342635Y-77751975D01*
X27316500Y-77849511D01*
X27316500Y-77849513D01*
X27316500Y-77892500D01*
X27296815Y-77959539D01*
X27244011Y-78005294D01*
X27192500Y-78016500D01*
X27149511Y-78016500D01*
X27051975Y-78042635D01*
X27051973Y-78042635D01*
X27051973Y-78042636D01*
X26964526Y-78093124D01*
X26964523Y-78093126D01*
X26893126Y-78164523D01*
X26893124Y-78164526D01*
X26842635Y-78251975D01*
X26816500Y-78349511D01*
X24105942Y-78349511D01*
X24082025Y-78308085D01*
X24056876Y-78264526D01*
X23985474Y-78193124D01*
X23898025Y-78142635D01*
X23800489Y-78116500D01*
X23699511Y-78116500D01*
X23601975Y-78142635D01*
X23601973Y-78142635D01*
X23601973Y-78142636D01*
X23514526Y-78193124D01*
X23514523Y-78193126D01*
X23443126Y-78264523D01*
X23443124Y-78264526D01*
X23394058Y-78349511D01*
X23392635Y-78351975D01*
X23366500Y-78449511D01*
X19000500Y-78449511D01*
X19000500Y-76460000D01*
X20474138Y-76460000D01*
X21277012Y-76460000D01*
X21259795Y-76469940D01*
X21203940Y-76525795D01*
X21164444Y-76594204D01*
X21144000Y-76670504D01*
X21144000Y-76749496D01*
X21164444Y-76825796D01*
X21203940Y-76894205D01*
X21259795Y-76950060D01*
X21277012Y-76960000D01*
X20474138Y-76960000D01*
X20482430Y-77001690D01*
X20482430Y-77001692D01*
X20557807Y-77183671D01*
X20557814Y-77183684D01*
X20667248Y-77347462D01*
X20667251Y-77347466D01*
X20806533Y-77486748D01*
X20806537Y-77486751D01*
X20970315Y-77596185D01*
X20970328Y-77596192D01*
X21152306Y-77671569D01*
X21152318Y-77671572D01*
X21345504Y-77709999D01*
X21345508Y-77710000D01*
X21594000Y-77710000D01*
X21594000Y-77010000D01*
X22094000Y-77010000D01*
X22094000Y-77710000D01*
X22342492Y-77710000D01*
X22342495Y-77709999D01*
X22535681Y-77671572D01*
X22535693Y-77671569D01*
X22717671Y-77596192D01*
X22717684Y-77596185D01*
X22881462Y-77486751D01*
X22881466Y-77486748D01*
X23020748Y-77347466D01*
X23020751Y-77347462D01*
X23130185Y-77183684D01*
X23130192Y-77183671D01*
X23205569Y-77001692D01*
X23205569Y-77001690D01*
X23213862Y-76960000D01*
X22410988Y-76960000D01*
X22428205Y-76950060D01*
X22484060Y-76894205D01*
X22523556Y-76825796D01*
X22544000Y-76749496D01*
X22544000Y-76670504D01*
X22523556Y-76594204D01*
X22484060Y-76525795D01*
X22428205Y-76469940D01*
X22410988Y-76460000D01*
X23213862Y-76460000D01*
X24504138Y-76460000D01*
X25307012Y-76460000D01*
X25289795Y-76469940D01*
X25233940Y-76525795D01*
X25194444Y-76594204D01*
X25174000Y-76670504D01*
X25174000Y-76749496D01*
X25194444Y-76825796D01*
X25233940Y-76894205D01*
X25289795Y-76950060D01*
X25307012Y-76960000D01*
X24504138Y-76960000D01*
X24512430Y-77001690D01*
X24512430Y-77001692D01*
X24587807Y-77183671D01*
X24587814Y-77183684D01*
X24697248Y-77347462D01*
X24697251Y-77347466D01*
X24836533Y-77486748D01*
X24836537Y-77486751D01*
X25000315Y-77596185D01*
X25000328Y-77596192D01*
X25182306Y-77671569D01*
X25182318Y-77671572D01*
X25375504Y-77709999D01*
X25375508Y-77710000D01*
X25774000Y-77710000D01*
X25774000Y-77010000D01*
X26274000Y-77010000D01*
X26274000Y-77710000D01*
X26672492Y-77710000D01*
X26672495Y-77709999D01*
X26865681Y-77671572D01*
X26865693Y-77671569D01*
X27047671Y-77596192D01*
X27047684Y-77596185D01*
X27211462Y-77486751D01*
X27211466Y-77486748D01*
X27350748Y-77347466D01*
X27350751Y-77347462D01*
X27460185Y-77183684D01*
X27460192Y-77183671D01*
X27535569Y-77001692D01*
X27535569Y-77001690D01*
X27543862Y-76960000D01*
X26740988Y-76960000D01*
X26758205Y-76950060D01*
X26814060Y-76894205D01*
X26853556Y-76825796D01*
X26874000Y-76749496D01*
X26874000Y-76670504D01*
X26853556Y-76594204D01*
X26814060Y-76525795D01*
X26758205Y-76469940D01*
X26740988Y-76460000D01*
X27543862Y-76460000D01*
X27535569Y-76418309D01*
X27535569Y-76418307D01*
X27460192Y-76236328D01*
X27460185Y-76236315D01*
X27350751Y-76072537D01*
X27350748Y-76072533D01*
X27211465Y-75933250D01*
X27201389Y-75926518D01*
X27201388Y-75926517D01*
X27056197Y-75829502D01*
X28759136Y-75829502D01*
X28759136Y-75976421D01*
X28787794Y-76120496D01*
X28787797Y-76120506D01*
X28844014Y-76256228D01*
X28844019Y-76256237D01*
X28925634Y-76378381D01*
X28925637Y-76378385D01*
X29029512Y-76482260D01*
X29029516Y-76482263D01*
X29151660Y-76563878D01*
X29151669Y-76563883D01*
X29186383Y-76578262D01*
X29240786Y-76622103D01*
X29262851Y-76688397D01*
X29245572Y-76756096D01*
X29194435Y-76803707D01*
X29155118Y-76815762D01*
X29149513Y-76816499D01*
X29114818Y-76825796D01*
X29051975Y-76842635D01*
X29051973Y-76842635D01*
X29051973Y-76842636D01*
X28964526Y-76893124D01*
X28964523Y-76893126D01*
X28893126Y-76964523D01*
X28893124Y-76964526D01*
X28861493Y-77019313D01*
X28842635Y-77051975D01*
X28816500Y-77149511D01*
X28816500Y-77250489D01*
X28842635Y-77348025D01*
X28893124Y-77435474D01*
X28964526Y-77506876D01*
X29051975Y-77557365D01*
X29149511Y-77583500D01*
X29149514Y-77583500D01*
X29250486Y-77583500D01*
X29250489Y-77583500D01*
X29348025Y-77557365D01*
X29435474Y-77506876D01*
X29506876Y-77435474D01*
X29557365Y-77348025D01*
X29583500Y-77250489D01*
X29583500Y-77149511D01*
X29557365Y-77051975D01*
X29506876Y-76964526D01*
X29435474Y-76893124D01*
X29412999Y-76880148D01*
X29364785Y-76829581D01*
X29351563Y-76760974D01*
X29377531Y-76696110D01*
X29434445Y-76655582D01*
X29475001Y-76648762D01*
X29578392Y-76648762D01*
X29578393Y-76648761D01*
X29722478Y-76620102D01*
X29858205Y-76563882D01*
X29980356Y-76482263D01*
X30084237Y-76378382D01*
X30100131Y-76354595D01*
X35616500Y-76354595D01*
X35616500Y-76455573D01*
X35642635Y-76553109D01*
X35693124Y-76640558D01*
X35764526Y-76711960D01*
X35851975Y-76762449D01*
X35949511Y-76788584D01*
X35949514Y-76788584D01*
X36050486Y-76788584D01*
X36050489Y-76788584D01*
X36148025Y-76762449D01*
X36235474Y-76711960D01*
X36306876Y-76640558D01*
X36357365Y-76553109D01*
X36383500Y-76455573D01*
X36383500Y-76354595D01*
X36357365Y-76257059D01*
X36306876Y-76169610D01*
X36235474Y-76098208D01*
X36148025Y-76047719D01*
X36050489Y-76021584D01*
X35949511Y-76021584D01*
X35851975Y-76047719D01*
X35851973Y-76047719D01*
X35851973Y-76047720D01*
X35764526Y-76098208D01*
X35764523Y-76098210D01*
X35693126Y-76169607D01*
X35693124Y-76169610D01*
X35643110Y-76256237D01*
X35642635Y-76257059D01*
X35616500Y-76354595D01*
X30100131Y-76354595D01*
X30111288Y-76337897D01*
X30151594Y-76277577D01*
X30162325Y-76261514D01*
X30165856Y-76256231D01*
X30222076Y-76120504D01*
X30250736Y-75976417D01*
X30250736Y-75829507D01*
X30222076Y-75685420D01*
X30165856Y-75549693D01*
X30165855Y-75549692D01*
X30165852Y-75549686D01*
X30084237Y-75427542D01*
X30084234Y-75427538D01*
X30006207Y-75349511D01*
X30616500Y-75349511D01*
X30616500Y-75450489D01*
X30642635Y-75548025D01*
X30693124Y-75635474D01*
X30764526Y-75706876D01*
X30851975Y-75757365D01*
X30949511Y-75783500D01*
X30949514Y-75783500D01*
X31050486Y-75783500D01*
X31050489Y-75783500D01*
X31148025Y-75757365D01*
X31161628Y-75749511D01*
X50162946Y-75749511D01*
X50162946Y-75850489D01*
X50189081Y-75948025D01*
X50239570Y-76035474D01*
X50310972Y-76106876D01*
X50398421Y-76157365D01*
X50495957Y-76183500D01*
X50495960Y-76183500D01*
X50596932Y-76183500D01*
X50596935Y-76183500D01*
X50694471Y-76157365D01*
X50781920Y-76106876D01*
X50853322Y-76035474D01*
X50903811Y-75948025D01*
X50929946Y-75850489D01*
X50929946Y-75749511D01*
X50903811Y-75651975D01*
X50853322Y-75564526D01*
X50838307Y-75549511D01*
X57316500Y-75549511D01*
X57316500Y-75650489D01*
X57342635Y-75748025D01*
X57393124Y-75835474D01*
X57464526Y-75906876D01*
X57551975Y-75957365D01*
X57649511Y-75983500D01*
X57649514Y-75983500D01*
X57750486Y-75983500D01*
X57750489Y-75983500D01*
X57848025Y-75957365D01*
X57935474Y-75906876D01*
X58006876Y-75835474D01*
X58057365Y-75748025D01*
X58083500Y-75650489D01*
X58083500Y-75549511D01*
X58057365Y-75451975D01*
X58006876Y-75364526D01*
X57935474Y-75293124D01*
X57848025Y-75242635D01*
X57750489Y-75216500D01*
X57649511Y-75216500D01*
X57551975Y-75242635D01*
X57551973Y-75242635D01*
X57551973Y-75242636D01*
X57464526Y-75293124D01*
X57464523Y-75293126D01*
X57393126Y-75364523D01*
X57393124Y-75364526D01*
X57342635Y-75451975D01*
X57316500Y-75549511D01*
X50838307Y-75549511D01*
X50781920Y-75493124D01*
X50694471Y-75442635D01*
X50596935Y-75416500D01*
X50495957Y-75416500D01*
X50398421Y-75442635D01*
X50398419Y-75442635D01*
X50398419Y-75442636D01*
X50310972Y-75493124D01*
X50310969Y-75493126D01*
X50239572Y-75564523D01*
X50239570Y-75564526D01*
X50199826Y-75633365D01*
X50189081Y-75651975D01*
X50162946Y-75749511D01*
X31161628Y-75749511D01*
X31235474Y-75706876D01*
X31306876Y-75635474D01*
X31357365Y-75548025D01*
X31383500Y-75450489D01*
X31383500Y-75349511D01*
X31362734Y-75272011D01*
X43044000Y-75272011D01*
X43044000Y-75372989D01*
X43070135Y-75470525D01*
X43120624Y-75557974D01*
X43192026Y-75629376D01*
X43279475Y-75679865D01*
X43377011Y-75706000D01*
X43377014Y-75706000D01*
X43477986Y-75706000D01*
X43477989Y-75706000D01*
X43575525Y-75679865D01*
X43662974Y-75629376D01*
X43734376Y-75557974D01*
X43784865Y-75470525D01*
X43811000Y-75372989D01*
X43811000Y-75272011D01*
X43784865Y-75174475D01*
X43770452Y-75149511D01*
X45516500Y-75149511D01*
X45516500Y-75250489D01*
X45542635Y-75348025D01*
X45593124Y-75435474D01*
X45664526Y-75506876D01*
X45751975Y-75557365D01*
X45849511Y-75583500D01*
X45849514Y-75583500D01*
X45950486Y-75583500D01*
X45950489Y-75583500D01*
X46048025Y-75557365D01*
X46135474Y-75506876D01*
X46206876Y-75435474D01*
X46257365Y-75348025D01*
X46283500Y-75250489D01*
X46283500Y-75149511D01*
X46257365Y-75051975D01*
X46206876Y-74964526D01*
X46135474Y-74893124D01*
X46048025Y-74842635D01*
X45950489Y-74816500D01*
X45849511Y-74816500D01*
X45751975Y-74842635D01*
X45751973Y-74842635D01*
X45751973Y-74842636D01*
X45664526Y-74893124D01*
X45664523Y-74893126D01*
X45593126Y-74964523D01*
X45593124Y-74964526D01*
X45544916Y-75048025D01*
X45542635Y-75051975D01*
X45516500Y-75149511D01*
X43770452Y-75149511D01*
X43734376Y-75087026D01*
X43662974Y-75015624D01*
X43575525Y-74965135D01*
X43477989Y-74939000D01*
X43377011Y-74939000D01*
X43279475Y-74965135D01*
X43279473Y-74965135D01*
X43279473Y-74965136D01*
X43192026Y-75015624D01*
X43192023Y-75015626D01*
X43120626Y-75087023D01*
X43120624Y-75087026D01*
X43070135Y-75174475D01*
X43044000Y-75272011D01*
X31362734Y-75272011D01*
X31357365Y-75251975D01*
X31306876Y-75164526D01*
X31235474Y-75093124D01*
X31148025Y-75042635D01*
X31050489Y-75016500D01*
X30949511Y-75016500D01*
X30851975Y-75042635D01*
X30851973Y-75042635D01*
X30851973Y-75042636D01*
X30764526Y-75093124D01*
X30764523Y-75093126D01*
X30693126Y-75164523D01*
X30693124Y-75164526D01*
X30642635Y-75251975D01*
X30616500Y-75349511D01*
X30006207Y-75349511D01*
X29980359Y-75323663D01*
X29980355Y-75323660D01*
X29858211Y-75242045D01*
X29858202Y-75242040D01*
X29722480Y-75185823D01*
X29722481Y-75185823D01*
X29722478Y-75185822D01*
X29722474Y-75185821D01*
X29722470Y-75185820D01*
X29578395Y-75157162D01*
X29578391Y-75157162D01*
X29431481Y-75157162D01*
X29431476Y-75157162D01*
X29287401Y-75185820D01*
X29287391Y-75185823D01*
X29151669Y-75242040D01*
X29151660Y-75242045D01*
X29029516Y-75323660D01*
X29029512Y-75323663D01*
X28925637Y-75427538D01*
X28925634Y-75427542D01*
X28844019Y-75549686D01*
X28844014Y-75549695D01*
X28787797Y-75685417D01*
X28787794Y-75685427D01*
X28759136Y-75829502D01*
X27056197Y-75829502D01*
X27047684Y-75823814D01*
X27047671Y-75823807D01*
X26865693Y-75748430D01*
X26865681Y-75748427D01*
X26672495Y-75710000D01*
X26274000Y-75710000D01*
X26274000Y-76410000D01*
X25774000Y-76410000D01*
X25774000Y-75871784D01*
X25793685Y-75804745D01*
X25836000Y-75764397D01*
X25877365Y-75740515D01*
X25984515Y-75633365D01*
X25985372Y-75631879D01*
X26005721Y-75596637D01*
X26057544Y-75506875D01*
X26060281Y-75502135D01*
X26099500Y-75355766D01*
X26099500Y-75204234D01*
X26060281Y-75057865D01*
X26051488Y-75042636D01*
X26017346Y-74983500D01*
X25984515Y-74926635D01*
X25877365Y-74819485D01*
X25811750Y-74781602D01*
X25746136Y-74743719D01*
X25672950Y-74724109D01*
X25599766Y-74704500D01*
X25448234Y-74704500D01*
X25301863Y-74743719D01*
X25170635Y-74819485D01*
X25170632Y-74819487D01*
X25063487Y-74926632D01*
X25063485Y-74926635D01*
X24987719Y-75057863D01*
X24956475Y-75174472D01*
X24948500Y-75204234D01*
X24948500Y-75355766D01*
X24950847Y-75364526D01*
X24987719Y-75502136D01*
X25015073Y-75549513D01*
X25063485Y-75633365D01*
X25063486Y-75633366D01*
X25067549Y-75640403D01*
X25065346Y-75641674D01*
X25085959Y-75694983D01*
X25071923Y-75763428D01*
X25023112Y-75813420D01*
X25009845Y-75819866D01*
X25000324Y-75823809D01*
X25000315Y-75823814D01*
X24836537Y-75933248D01*
X24836533Y-75933251D01*
X24697251Y-76072533D01*
X24697248Y-76072537D01*
X24587814Y-76236315D01*
X24587807Y-76236328D01*
X24512430Y-76418307D01*
X24512430Y-76418309D01*
X24504138Y-76460000D01*
X23213862Y-76460000D01*
X23205569Y-76418309D01*
X23205569Y-76418307D01*
X23130192Y-76236328D01*
X23130185Y-76236315D01*
X23020751Y-76072537D01*
X23020748Y-76072533D01*
X22881466Y-75933251D01*
X22881462Y-75933248D01*
X22717684Y-75823814D01*
X22717671Y-75823807D01*
X22535693Y-75748430D01*
X22535681Y-75748427D01*
X22342495Y-75710000D01*
X22094000Y-75710000D01*
X22094000Y-76410000D01*
X21594000Y-76410000D01*
X21594000Y-75710000D01*
X21345504Y-75710000D01*
X21152318Y-75748427D01*
X21152306Y-75748430D01*
X20970328Y-75823807D01*
X20970315Y-75823814D01*
X20806537Y-75933248D01*
X20806533Y-75933251D01*
X20667251Y-76072533D01*
X20667248Y-76072537D01*
X20557814Y-76236315D01*
X20557807Y-76236328D01*
X20482430Y-76418307D01*
X20482430Y-76418309D01*
X20474138Y-76460000D01*
X19000500Y-76460000D01*
X19000500Y-74549511D01*
X40816500Y-74549511D01*
X40816500Y-74650489D01*
X40842635Y-74748025D01*
X40893124Y-74835474D01*
X40964526Y-74906876D01*
X41051975Y-74957365D01*
X41149511Y-74983500D01*
X41149514Y-74983500D01*
X41250486Y-74983500D01*
X41250489Y-74983500D01*
X41348025Y-74957365D01*
X41435474Y-74906876D01*
X41506876Y-74835474D01*
X41557365Y-74748025D01*
X41583500Y-74650489D01*
X41583500Y-74549511D01*
X50016500Y-74549511D01*
X50016500Y-74650489D01*
X50042635Y-74748025D01*
X50093124Y-74835474D01*
X50164526Y-74906876D01*
X50251975Y-74957365D01*
X50349511Y-74983500D01*
X50349514Y-74983500D01*
X50450486Y-74983500D01*
X50450489Y-74983500D01*
X50548025Y-74957365D01*
X50635474Y-74906876D01*
X50692839Y-74849511D01*
X58116500Y-74849511D01*
X58116500Y-74950489D01*
X58142635Y-75048025D01*
X58193124Y-75135474D01*
X58264526Y-75206876D01*
X58351975Y-75257365D01*
X58449511Y-75283500D01*
X58449514Y-75283500D01*
X58550486Y-75283500D01*
X58550489Y-75283500D01*
X58648025Y-75257365D01*
X58735474Y-75206876D01*
X58806876Y-75135474D01*
X58857365Y-75048025D01*
X58883500Y-74950489D01*
X58883500Y-74849511D01*
X58857365Y-74751975D01*
X58841421Y-74724359D01*
X58824948Y-74656463D01*
X58847799Y-74590435D01*
X58886806Y-74554974D01*
X58935474Y-74526876D01*
X59006876Y-74455474D01*
X59057365Y-74368025D01*
X59083500Y-74270489D01*
X59083500Y-74169511D01*
X59057365Y-74071975D01*
X59006876Y-73984526D01*
X58935474Y-73913124D01*
X58848025Y-73862635D01*
X58750489Y-73836500D01*
X58649511Y-73836500D01*
X58551975Y-73862635D01*
X58551973Y-73862635D01*
X58551973Y-73862636D01*
X58464526Y-73913124D01*
X58464523Y-73913126D01*
X58393126Y-73984523D01*
X58393124Y-73984526D01*
X58342635Y-74071975D01*
X58316500Y-74169511D01*
X58316500Y-74270489D01*
X58342635Y-74368025D01*
X58342636Y-74368027D01*
X58358577Y-74395637D01*
X58375051Y-74463537D01*
X58352199Y-74529565D01*
X58313193Y-74565025D01*
X58264529Y-74593122D01*
X58264523Y-74593126D01*
X58193126Y-74664523D01*
X58193124Y-74664526D01*
X58144916Y-74748025D01*
X58142635Y-74751975D01*
X58116500Y-74849511D01*
X50692839Y-74849511D01*
X50706876Y-74835474D01*
X50757365Y-74748025D01*
X50783500Y-74650489D01*
X50783500Y-74549511D01*
X50757365Y-74451975D01*
X50706876Y-74364526D01*
X50635474Y-74293124D01*
X50548025Y-74242635D01*
X50450489Y-74216500D01*
X50349511Y-74216500D01*
X50251975Y-74242635D01*
X50251973Y-74242635D01*
X50251973Y-74242636D01*
X50164526Y-74293124D01*
X50164523Y-74293126D01*
X50093126Y-74364523D01*
X50093124Y-74364526D01*
X50042635Y-74451975D01*
X50016500Y-74549511D01*
X41583500Y-74549511D01*
X41557365Y-74451975D01*
X41506876Y-74364526D01*
X41435474Y-74293124D01*
X41348025Y-74242635D01*
X41250489Y-74216500D01*
X41149511Y-74216500D01*
X41051975Y-74242635D01*
X41051973Y-74242635D01*
X41051973Y-74242636D01*
X40964526Y-74293124D01*
X40964523Y-74293126D01*
X40893126Y-74364523D01*
X40893124Y-74364526D01*
X40842635Y-74451975D01*
X40816500Y-74549511D01*
X19000500Y-74549511D01*
X19000500Y-73449511D01*
X27866500Y-73449511D01*
X27866500Y-73550489D01*
X27892635Y-73648025D01*
X27943124Y-73735474D01*
X28014526Y-73806876D01*
X28101975Y-73857365D01*
X28199511Y-73883500D01*
X28199514Y-73883500D01*
X28300486Y-73883500D01*
X28300489Y-73883500D01*
X28398025Y-73857365D01*
X28485474Y-73806876D01*
X28556876Y-73735474D01*
X28607365Y-73648025D01*
X28633500Y-73550489D01*
X28633500Y-73449511D01*
X28607365Y-73351975D01*
X28605942Y-73349511D01*
X39081502Y-73349511D01*
X39081502Y-73450489D01*
X39107637Y-73548025D01*
X39158126Y-73635474D01*
X39229528Y-73706876D01*
X39316977Y-73757365D01*
X39414513Y-73783500D01*
X39414516Y-73783500D01*
X39515488Y-73783500D01*
X39515491Y-73783500D01*
X39613027Y-73757365D01*
X39700476Y-73706876D01*
X39771878Y-73635474D01*
X39822367Y-73548025D01*
X39841825Y-73475404D01*
X39878191Y-73415746D01*
X39941038Y-73385217D01*
X39961600Y-73383500D01*
X40050486Y-73383500D01*
X40050489Y-73383500D01*
X40148025Y-73357365D01*
X40235474Y-73306876D01*
X40306876Y-73235474D01*
X40357365Y-73148025D01*
X40383500Y-73050489D01*
X40383500Y-72949511D01*
X40357365Y-72851975D01*
X40306876Y-72764526D01*
X40235474Y-72693124D01*
X40194575Y-72669511D01*
X57416500Y-72669511D01*
X57416500Y-72770489D01*
X57442635Y-72868025D01*
X57493124Y-72955474D01*
X57564526Y-73026876D01*
X57651975Y-73077365D01*
X57737292Y-73100226D01*
X57796951Y-73136590D01*
X57827480Y-73199437D01*
X57819185Y-73268813D01*
X57774700Y-73322691D01*
X57737294Y-73339773D01*
X57651975Y-73362635D01*
X57651973Y-73362635D01*
X57651973Y-73362636D01*
X57564526Y-73413124D01*
X57564523Y-73413126D01*
X57493126Y-73484523D01*
X57493124Y-73484526D01*
X57460952Y-73540250D01*
X57442635Y-73571975D01*
X57416500Y-73669511D01*
X57416500Y-73770489D01*
X57442635Y-73868025D01*
X57493124Y-73955474D01*
X57564526Y-74026876D01*
X57651975Y-74077365D01*
X57749511Y-74103500D01*
X57749514Y-74103500D01*
X57850486Y-74103500D01*
X57850489Y-74103500D01*
X57948025Y-74077365D01*
X58035474Y-74026876D01*
X58106876Y-73955474D01*
X58157365Y-73868025D01*
X58183500Y-73770489D01*
X58183500Y-73669511D01*
X58183498Y-73669507D01*
X58182751Y-73663830D01*
X58193512Y-73594794D01*
X58239888Y-73542535D01*
X58307155Y-73523645D01*
X58367690Y-73540250D01*
X58431969Y-73577362D01*
X58431970Y-73577363D01*
X58431972Y-73577363D01*
X58431975Y-73577365D01*
X58529511Y-73603500D01*
X58529514Y-73603500D01*
X58569827Y-73603500D01*
X58630489Y-73603500D01*
X58728025Y-73577365D01*
X58815474Y-73526876D01*
X58886876Y-73455474D01*
X58937365Y-73368025D01*
X58963500Y-73270489D01*
X58963500Y-73169511D01*
X58937365Y-73071975D01*
X58886876Y-72984526D01*
X58815474Y-72913124D01*
X58728025Y-72862635D01*
X58630489Y-72836500D01*
X58622793Y-72836500D01*
X58555754Y-72816815D01*
X58509999Y-72764011D01*
X58500055Y-72694853D01*
X58529080Y-72631297D01*
X58587858Y-72593523D01*
X58590649Y-72592738D01*
X58648025Y-72577365D01*
X58735474Y-72526876D01*
X58806876Y-72455474D01*
X58857365Y-72368025D01*
X58883500Y-72270489D01*
X58883500Y-72169511D01*
X58857365Y-72071975D01*
X58806876Y-71984526D01*
X58735474Y-71913124D01*
X58648025Y-71862635D01*
X58550489Y-71836500D01*
X58449511Y-71836500D01*
X58351975Y-71862635D01*
X58351973Y-71862635D01*
X58351973Y-71862636D01*
X58264526Y-71913124D01*
X58264523Y-71913126D01*
X58193126Y-71984523D01*
X58193124Y-71984526D01*
X58163710Y-72035473D01*
X58142635Y-72071975D01*
X58116500Y-72169511D01*
X58116500Y-72169513D01*
X58116500Y-72246840D01*
X58096815Y-72313879D01*
X58044011Y-72359634D01*
X57974853Y-72369578D01*
X57955966Y-72364397D01*
X57955875Y-72364739D01*
X57948026Y-72362636D01*
X57948025Y-72362635D01*
X57850489Y-72336500D01*
X57749511Y-72336500D01*
X57651975Y-72362635D01*
X57651973Y-72362635D01*
X57651973Y-72362636D01*
X57564526Y-72413124D01*
X57564523Y-72413126D01*
X57493126Y-72484523D01*
X57493124Y-72484526D01*
X57442635Y-72571975D01*
X57416500Y-72669511D01*
X40194575Y-72669511D01*
X40148025Y-72642635D01*
X40050489Y-72616500D01*
X39949511Y-72616500D01*
X39851975Y-72642635D01*
X39851973Y-72642635D01*
X39851973Y-72642636D01*
X39764526Y-72693124D01*
X39764523Y-72693126D01*
X39693126Y-72764523D01*
X39693124Y-72764526D01*
X39651570Y-72836500D01*
X39642635Y-72851975D01*
X39623177Y-72924594D01*
X39586811Y-72984254D01*
X39523964Y-73014783D01*
X39503402Y-73016500D01*
X39414513Y-73016500D01*
X39316977Y-73042635D01*
X39316975Y-73042635D01*
X39316975Y-73042636D01*
X39229528Y-73093124D01*
X39229525Y-73093126D01*
X39158128Y-73164523D01*
X39158126Y-73164526D01*
X39107637Y-73251975D01*
X39081502Y-73349511D01*
X28605942Y-73349511D01*
X28590458Y-73322691D01*
X28556876Y-73264526D01*
X28485474Y-73193124D01*
X28398025Y-73142635D01*
X28300489Y-73116500D01*
X28199511Y-73116500D01*
X28101975Y-73142635D01*
X28101973Y-73142635D01*
X28101973Y-73142636D01*
X28014526Y-73193124D01*
X28014523Y-73193126D01*
X27943126Y-73264523D01*
X27943124Y-73264526D01*
X27894058Y-73349511D01*
X27892635Y-73351975D01*
X27866500Y-73449511D01*
X19000500Y-73449511D01*
X19000500Y-72574511D01*
X29741500Y-72574511D01*
X29741500Y-72675489D01*
X29767635Y-72773025D01*
X29818124Y-72860474D01*
X29889526Y-72931876D01*
X29976975Y-72982365D01*
X30074511Y-73008500D01*
X30074514Y-73008500D01*
X30175486Y-73008500D01*
X30175489Y-73008500D01*
X30273025Y-72982365D01*
X30360474Y-72931876D01*
X30431876Y-72860474D01*
X30482365Y-72773025D01*
X30508500Y-72675489D01*
X30508500Y-72574511D01*
X30482365Y-72476975D01*
X30431876Y-72389526D01*
X30360474Y-72318124D01*
X30273025Y-72267635D01*
X30175489Y-72241500D01*
X30074511Y-72241500D01*
X29976975Y-72267635D01*
X29976973Y-72267635D01*
X29976973Y-72267636D01*
X29889526Y-72318124D01*
X29889523Y-72318126D01*
X29818126Y-72389523D01*
X29818124Y-72389526D01*
X29780048Y-72455476D01*
X29767635Y-72476975D01*
X29741500Y-72574511D01*
X19000500Y-72574511D01*
X19000500Y-72233801D01*
X48199375Y-72233801D01*
X48199375Y-72334779D01*
X48225510Y-72432315D01*
X48275999Y-72519764D01*
X48347401Y-72591166D01*
X48434850Y-72641655D01*
X48532386Y-72667790D01*
X48532389Y-72667790D01*
X48633361Y-72667790D01*
X48633364Y-72667790D01*
X48730900Y-72641655D01*
X48818349Y-72591166D01*
X48889751Y-72519764D01*
X48940240Y-72432315D01*
X48966375Y-72334779D01*
X48966375Y-72233801D01*
X48940240Y-72136265D01*
X48889751Y-72048816D01*
X48818349Y-71977414D01*
X48730900Y-71926925D01*
X48633364Y-71900790D01*
X48532386Y-71900790D01*
X48434850Y-71926925D01*
X48434848Y-71926925D01*
X48434848Y-71926926D01*
X48347401Y-71977414D01*
X48347398Y-71977416D01*
X48276001Y-72048813D01*
X48275999Y-72048816D01*
X48242196Y-72107365D01*
X48225510Y-72136265D01*
X48199375Y-72233801D01*
X19000500Y-72233801D01*
X19000500Y-71646065D01*
X27688001Y-71646065D01*
X27688001Y-71747043D01*
X27714136Y-71844579D01*
X27764625Y-71932028D01*
X27836027Y-72003430D01*
X27923476Y-72053919D01*
X28021012Y-72080054D01*
X28021015Y-72080054D01*
X28121987Y-72080054D01*
X28121990Y-72080054D01*
X28219526Y-72053919D01*
X28306975Y-72003430D01*
X28378377Y-71932028D01*
X28428866Y-71844579D01*
X28455001Y-71747043D01*
X28455001Y-71646065D01*
X28428866Y-71548529D01*
X28378377Y-71461080D01*
X28306975Y-71389678D01*
X28219526Y-71339189D01*
X28121990Y-71313054D01*
X28021012Y-71313054D01*
X27923476Y-71339189D01*
X27923474Y-71339189D01*
X27923474Y-71339190D01*
X27836027Y-71389678D01*
X27836024Y-71389680D01*
X27764627Y-71461077D01*
X27764625Y-71461080D01*
X27738185Y-71506876D01*
X27714136Y-71548529D01*
X27688001Y-71646065D01*
X19000500Y-71646065D01*
X19000500Y-70699511D01*
X30866500Y-70699511D01*
X30866500Y-70800489D01*
X30892635Y-70898025D01*
X30943124Y-70985474D01*
X31014526Y-71056876D01*
X31054994Y-71080240D01*
X31103209Y-71130807D01*
X31114885Y-71191384D01*
X31116500Y-71191384D01*
X31116500Y-71199511D01*
X31116500Y-71300489D01*
X31142635Y-71398025D01*
X31193124Y-71485474D01*
X31264526Y-71556876D01*
X31304994Y-71580240D01*
X31353209Y-71630807D01*
X31364885Y-71691384D01*
X31366500Y-71691384D01*
X31366500Y-71699511D01*
X31366500Y-71800489D01*
X31392635Y-71898025D01*
X31443124Y-71985474D01*
X31514526Y-72056876D01*
X31601975Y-72107365D01*
X31699511Y-72133500D01*
X31699514Y-72133500D01*
X31800486Y-72133500D01*
X31800489Y-72133500D01*
X31898025Y-72107365D01*
X31985474Y-72056876D01*
X32056876Y-71985474D01*
X32107365Y-71898025D01*
X32133500Y-71800489D01*
X32133500Y-71749511D01*
X41816500Y-71749511D01*
X41816500Y-71850489D01*
X41842635Y-71948025D01*
X41893124Y-72035474D01*
X41964526Y-72106876D01*
X42051975Y-72157365D01*
X42149511Y-72183500D01*
X42149514Y-72183500D01*
X42250486Y-72183500D01*
X42250489Y-72183500D01*
X42348025Y-72157365D01*
X42435474Y-72106876D01*
X42506876Y-72035474D01*
X42557365Y-71948025D01*
X42583500Y-71850489D01*
X42583500Y-71749511D01*
X42557365Y-71651975D01*
X42506876Y-71564526D01*
X42435474Y-71493124D01*
X42348025Y-71442635D01*
X42250489Y-71416500D01*
X42149511Y-71416500D01*
X42051975Y-71442635D01*
X42051973Y-71442635D01*
X42051973Y-71442636D01*
X41964526Y-71493124D01*
X41964523Y-71493126D01*
X41893126Y-71564523D01*
X41893124Y-71564526D01*
X41842635Y-71651975D01*
X41816500Y-71749511D01*
X32133500Y-71749511D01*
X32133500Y-71699511D01*
X32107365Y-71601975D01*
X32056876Y-71514526D01*
X31985474Y-71443124D01*
X31945005Y-71419759D01*
X31896789Y-71369192D01*
X31885115Y-71308617D01*
X31883500Y-71308617D01*
X31883500Y-71199513D01*
X31883500Y-71199511D01*
X31857365Y-71101975D01*
X31806876Y-71014526D01*
X31735474Y-70943124D01*
X31695005Y-70919759D01*
X31646789Y-70869192D01*
X31635115Y-70808617D01*
X31633500Y-70808617D01*
X31633500Y-70699513D01*
X31633500Y-70699511D01*
X31607365Y-70601975D01*
X31556876Y-70514526D01*
X31485474Y-70443124D01*
X31398025Y-70392635D01*
X31300489Y-70366500D01*
X31199511Y-70366500D01*
X31101975Y-70392635D01*
X31101973Y-70392635D01*
X31101973Y-70392636D01*
X31014526Y-70443124D01*
X31014523Y-70443126D01*
X30943126Y-70514523D01*
X30943124Y-70514526D01*
X30892635Y-70601975D01*
X30866500Y-70699511D01*
X19000500Y-70699511D01*
X19000500Y-68104427D01*
X19000816Y-68095581D01*
X19005115Y-68035473D01*
X19014900Y-67898655D01*
X19016107Y-67888138D01*
X19022941Y-67844989D01*
X19024233Y-67838106D01*
X19028172Y-67820000D01*
X20474138Y-67820000D01*
X21277012Y-67820000D01*
X21259795Y-67829940D01*
X21203940Y-67885795D01*
X21164444Y-67954204D01*
X21144000Y-68030504D01*
X21144000Y-68109496D01*
X21164444Y-68185796D01*
X21203940Y-68254205D01*
X21259795Y-68310060D01*
X21277012Y-68320000D01*
X20474138Y-68320000D01*
X20482430Y-68361690D01*
X20482430Y-68361692D01*
X20557807Y-68543671D01*
X20557814Y-68543684D01*
X20667248Y-68707462D01*
X20667251Y-68707466D01*
X20806533Y-68846748D01*
X20806537Y-68846751D01*
X20970315Y-68956185D01*
X20970328Y-68956192D01*
X21152306Y-69031569D01*
X21152318Y-69031572D01*
X21345504Y-69069999D01*
X21345508Y-69070000D01*
X21594000Y-69070000D01*
X21594000Y-68370000D01*
X22094000Y-68370000D01*
X22094000Y-69070000D01*
X22342492Y-69070000D01*
X22342495Y-69069999D01*
X22535681Y-69031572D01*
X22535693Y-69031569D01*
X22717671Y-68956192D01*
X22717684Y-68956185D01*
X22881462Y-68846751D01*
X22881466Y-68846748D01*
X23020748Y-68707466D01*
X23020751Y-68707462D01*
X23130185Y-68543684D01*
X23130192Y-68543671D01*
X23205569Y-68361692D01*
X23205569Y-68361690D01*
X23213862Y-68320000D01*
X22410988Y-68320000D01*
X22428205Y-68310060D01*
X22484060Y-68254205D01*
X22523556Y-68185796D01*
X22544000Y-68109496D01*
X22544000Y-68030504D01*
X22523556Y-67954204D01*
X22484060Y-67885795D01*
X22428205Y-67829940D01*
X22410988Y-67820000D01*
X23213862Y-67820000D01*
X24504138Y-67820000D01*
X25307012Y-67820000D01*
X25289795Y-67829940D01*
X25233940Y-67885795D01*
X25194444Y-67954204D01*
X25174000Y-68030504D01*
X25174000Y-68109496D01*
X25194444Y-68185796D01*
X25233940Y-68254205D01*
X25289795Y-68310060D01*
X25307012Y-68320000D01*
X24504138Y-68320000D01*
X24512430Y-68361690D01*
X24512430Y-68361692D01*
X24587807Y-68543671D01*
X24587814Y-68543684D01*
X24697248Y-68707462D01*
X24697251Y-68707466D01*
X24836533Y-68846748D01*
X24836537Y-68846751D01*
X25000315Y-68956185D01*
X25000328Y-68956192D01*
X25009838Y-68960131D01*
X25064243Y-69003970D01*
X25086310Y-69070264D01*
X25069033Y-69137963D01*
X25065350Y-69143405D01*
X25063485Y-69146634D01*
X25063485Y-69146635D01*
X25061825Y-69149511D01*
X24987719Y-69277863D01*
X24953418Y-69405879D01*
X24948500Y-69424234D01*
X24948500Y-69575766D01*
X24959415Y-69616500D01*
X24987719Y-69722136D01*
X25018521Y-69775486D01*
X25063485Y-69853365D01*
X25170635Y-69960515D01*
X25284281Y-70026129D01*
X25294233Y-70031875D01*
X25301865Y-70036281D01*
X25448234Y-70075500D01*
X25448236Y-70075500D01*
X25599764Y-70075500D01*
X25599766Y-70075500D01*
X25746135Y-70036281D01*
X25877365Y-69960515D01*
X25898369Y-69939511D01*
X27696500Y-69939511D01*
X27696500Y-70040489D01*
X27722635Y-70138025D01*
X27773124Y-70225474D01*
X27844526Y-70296876D01*
X27931975Y-70347365D01*
X28029511Y-70373500D01*
X28029514Y-70373500D01*
X28130486Y-70373500D01*
X28130489Y-70373500D01*
X28228025Y-70347365D01*
X28315474Y-70296876D01*
X28386876Y-70225474D01*
X28437365Y-70138025D01*
X28463500Y-70040489D01*
X28463500Y-69939511D01*
X28437710Y-69843261D01*
X31922750Y-69843261D01*
X31922750Y-69944239D01*
X31948885Y-70041775D01*
X31999374Y-70129224D01*
X32070776Y-70200626D01*
X32158225Y-70251115D01*
X32255761Y-70277250D01*
X32255764Y-70277250D01*
X32356736Y-70277250D01*
X32356739Y-70277250D01*
X32454275Y-70251115D01*
X32541724Y-70200626D01*
X32613126Y-70129224D01*
X32663615Y-70041775D01*
X32688337Y-69949511D01*
X38566500Y-69949511D01*
X38566500Y-70050489D01*
X38592635Y-70148025D01*
X38643124Y-70235474D01*
X38650285Y-70242635D01*
X38654781Y-70247131D01*
X38688264Y-70308455D01*
X38683278Y-70378147D01*
X38674484Y-70396810D01*
X38642636Y-70451971D01*
X38642635Y-70451975D01*
X38616500Y-70549511D01*
X38616500Y-70650489D01*
X38631609Y-70706875D01*
X38642636Y-70748028D01*
X38694582Y-70838000D01*
X38711055Y-70905900D01*
X38694582Y-70962000D01*
X38642636Y-71051971D01*
X38642635Y-71051975D01*
X38616500Y-71149511D01*
X38616500Y-71250489D01*
X38642635Y-71348025D01*
X38693124Y-71435474D01*
X38764526Y-71506876D01*
X38851975Y-71557365D01*
X38949511Y-71583500D01*
X38949514Y-71583500D01*
X39050486Y-71583500D01*
X39050489Y-71583500D01*
X39148025Y-71557365D01*
X39235474Y-71506876D01*
X39306876Y-71435474D01*
X39357365Y-71348025D01*
X39383500Y-71250489D01*
X39383500Y-71149511D01*
X39357365Y-71051975D01*
X39357363Y-71051971D01*
X39357363Y-71051970D01*
X39357362Y-71051969D01*
X39305418Y-70962001D01*
X39288944Y-70894101D01*
X39305418Y-70837999D01*
X39306877Y-70835473D01*
X39357365Y-70748025D01*
X39383500Y-70650489D01*
X39383500Y-70549511D01*
X50816500Y-70549511D01*
X50816500Y-70650489D01*
X50842635Y-70748025D01*
X50893124Y-70835474D01*
X50964526Y-70906876D01*
X51051975Y-70957365D01*
X51149511Y-70983500D01*
X51149514Y-70983500D01*
X51250486Y-70983500D01*
X51250489Y-70983500D01*
X51348025Y-70957365D01*
X51435474Y-70906876D01*
X51506876Y-70835474D01*
X51557365Y-70748025D01*
X51583500Y-70650489D01*
X51583500Y-70549511D01*
X51557365Y-70451975D01*
X51506876Y-70364526D01*
X51491861Y-70349511D01*
X57416500Y-70349511D01*
X57416500Y-70450489D01*
X57442635Y-70548025D01*
X57493124Y-70635474D01*
X57564526Y-70706876D01*
X57651975Y-70757365D01*
X57749511Y-70783500D01*
X57749514Y-70783500D01*
X57850486Y-70783500D01*
X57850489Y-70783500D01*
X57948025Y-70757365D01*
X58035474Y-70706876D01*
X58106876Y-70635474D01*
X58157365Y-70548025D01*
X58183500Y-70450489D01*
X58183500Y-70349511D01*
X58157365Y-70251975D01*
X58106876Y-70164526D01*
X58035474Y-70093124D01*
X57948025Y-70042635D01*
X57850489Y-70016500D01*
X57749511Y-70016500D01*
X57651975Y-70042635D01*
X57651973Y-70042635D01*
X57651973Y-70042636D01*
X57564526Y-70093124D01*
X57564523Y-70093126D01*
X57493126Y-70164523D01*
X57493124Y-70164526D01*
X57443132Y-70251115D01*
X57442635Y-70251975D01*
X57416500Y-70349511D01*
X51491861Y-70349511D01*
X51435474Y-70293124D01*
X51348025Y-70242635D01*
X51250489Y-70216500D01*
X51149511Y-70216500D01*
X51051975Y-70242635D01*
X51051973Y-70242635D01*
X51051973Y-70242636D01*
X50964526Y-70293124D01*
X50964523Y-70293126D01*
X50893126Y-70364523D01*
X50893124Y-70364526D01*
X50842635Y-70451975D01*
X50816500Y-70549511D01*
X39383500Y-70549511D01*
X39357365Y-70451975D01*
X39306876Y-70364526D01*
X39295221Y-70352871D01*
X39261736Y-70291548D01*
X39266720Y-70221856D01*
X39275516Y-70203189D01*
X39307362Y-70148030D01*
X39307363Y-70148029D01*
X39307364Y-70148026D01*
X39307365Y-70148025D01*
X39333500Y-70050489D01*
X39333500Y-69949511D01*
X39307365Y-69851975D01*
X39256876Y-69764526D01*
X39185474Y-69693124D01*
X39098025Y-69642635D01*
X39000489Y-69616500D01*
X38899511Y-69616500D01*
X38801975Y-69642635D01*
X38801973Y-69642635D01*
X38801973Y-69642636D01*
X38714526Y-69693124D01*
X38714523Y-69693126D01*
X38643126Y-69764523D01*
X38643124Y-69764526D01*
X38598409Y-69841975D01*
X38592635Y-69851975D01*
X38566500Y-69949511D01*
X32688337Y-69949511D01*
X32689750Y-69944239D01*
X32689750Y-69843261D01*
X32663615Y-69745725D01*
X32613126Y-69658276D01*
X32541724Y-69586874D01*
X32454275Y-69536385D01*
X32356739Y-69510250D01*
X32255761Y-69510250D01*
X32158225Y-69536385D01*
X32158223Y-69536385D01*
X32158223Y-69536386D01*
X32070776Y-69586874D01*
X32070773Y-69586876D01*
X31999376Y-69658273D01*
X31999374Y-69658276D01*
X31990000Y-69674513D01*
X31948885Y-69745725D01*
X31922750Y-69843261D01*
X28437710Y-69843261D01*
X28437365Y-69841975D01*
X28386876Y-69754526D01*
X28315474Y-69683124D01*
X28228025Y-69632635D01*
X28130489Y-69606500D01*
X28029511Y-69606500D01*
X27931975Y-69632635D01*
X27931973Y-69632635D01*
X27931973Y-69632636D01*
X27844526Y-69683124D01*
X27844523Y-69683126D01*
X27773126Y-69754523D01*
X27773124Y-69754526D01*
X27722635Y-69841975D01*
X27696500Y-69939511D01*
X25898369Y-69939511D01*
X25984515Y-69853365D01*
X26060281Y-69722135D01*
X26099500Y-69575766D01*
X26099500Y-69482013D01*
X37416500Y-69482013D01*
X37416500Y-69582991D01*
X37442635Y-69680527D01*
X37493124Y-69767976D01*
X37564526Y-69839378D01*
X37651975Y-69889867D01*
X37749511Y-69916002D01*
X37749514Y-69916002D01*
X37850486Y-69916002D01*
X37850489Y-69916002D01*
X37948025Y-69889867D01*
X38035474Y-69839378D01*
X38106876Y-69767976D01*
X38157365Y-69680527D01*
X38183500Y-69582991D01*
X38183500Y-69482013D01*
X38157365Y-69384477D01*
X38147642Y-69367636D01*
X38112407Y-69306607D01*
X38112406Y-69306606D01*
X38106879Y-69297033D01*
X38106878Y-69297032D01*
X38106876Y-69297028D01*
X38062582Y-69252734D01*
X40323277Y-69252734D01*
X40323277Y-69353712D01*
X40349412Y-69451248D01*
X40399901Y-69538697D01*
X40471303Y-69610099D01*
X40558752Y-69660588D01*
X40656288Y-69686723D01*
X40656291Y-69686723D01*
X40757263Y-69686723D01*
X40757266Y-69686723D01*
X40802841Y-69674511D01*
X47116500Y-69674511D01*
X47116500Y-69775489D01*
X47142635Y-69873025D01*
X47193124Y-69960474D01*
X47264526Y-70031876D01*
X47351975Y-70082365D01*
X47449511Y-70108500D01*
X47449514Y-70108500D01*
X47550486Y-70108500D01*
X47550489Y-70108500D01*
X47648025Y-70082365D01*
X47735474Y-70031876D01*
X47806876Y-69960474D01*
X47857365Y-69873025D01*
X47883500Y-69775489D01*
X47883500Y-69674511D01*
X47857365Y-69576975D01*
X47806876Y-69489526D01*
X47735474Y-69418124D01*
X47717234Y-69407593D01*
X48716499Y-69407593D01*
X48716500Y-69407596D01*
X48716500Y-69407597D01*
X48742635Y-69505133D01*
X48793124Y-69592582D01*
X48864526Y-69663984D01*
X48951975Y-69714473D01*
X49049511Y-69740608D01*
X49049514Y-69740608D01*
X49150486Y-69740608D01*
X49150489Y-69740608D01*
X49248025Y-69714473D01*
X49335474Y-69663984D01*
X49406876Y-69592582D01*
X49431743Y-69549511D01*
X53216500Y-69549511D01*
X53216500Y-69650489D01*
X53242635Y-69748025D01*
X53293124Y-69835474D01*
X53364526Y-69906876D01*
X53451975Y-69957365D01*
X53549511Y-69983500D01*
X53549514Y-69983500D01*
X53650486Y-69983500D01*
X53650489Y-69983500D01*
X53748025Y-69957365D01*
X53835474Y-69906876D01*
X53906876Y-69835474D01*
X53957365Y-69748025D01*
X53983500Y-69650489D01*
X53983500Y-69549511D01*
X53957365Y-69451975D01*
X53906876Y-69364526D01*
X53835474Y-69293124D01*
X53748025Y-69242635D01*
X53650489Y-69216500D01*
X53549511Y-69216500D01*
X53451975Y-69242635D01*
X53451973Y-69242635D01*
X53451973Y-69242636D01*
X53364526Y-69293124D01*
X53364523Y-69293126D01*
X53293126Y-69364523D01*
X53293124Y-69364526D01*
X53281608Y-69384473D01*
X53242635Y-69451975D01*
X53216500Y-69549511D01*
X49431743Y-69549511D01*
X49457365Y-69505133D01*
X49483500Y-69407597D01*
X49483500Y-69306619D01*
X49457365Y-69209083D01*
X49406876Y-69121634D01*
X49335474Y-69050232D01*
X49248025Y-68999743D01*
X49150489Y-68973608D01*
X49049511Y-68973608D01*
X48951975Y-68999743D01*
X48951973Y-68999743D01*
X48951973Y-68999744D01*
X48864526Y-69050232D01*
X48864523Y-69050234D01*
X48793126Y-69121631D01*
X48793124Y-69121634D01*
X48742635Y-69209083D01*
X48716500Y-69306619D01*
X48716500Y-69306621D01*
X48716500Y-69407592D01*
X48716499Y-69407593D01*
X47717234Y-69407593D01*
X47648025Y-69367635D01*
X47550489Y-69341500D01*
X47449511Y-69341500D01*
X47351975Y-69367635D01*
X47351973Y-69367635D01*
X47351973Y-69367636D01*
X47264526Y-69418124D01*
X47264523Y-69418126D01*
X47193126Y-69489523D01*
X47193124Y-69489526D01*
X47143334Y-69575765D01*
X47142635Y-69576975D01*
X47116500Y-69674511D01*
X40802841Y-69674511D01*
X40854802Y-69660588D01*
X40942251Y-69610099D01*
X41013653Y-69538697D01*
X41064142Y-69451248D01*
X41090277Y-69353712D01*
X41090277Y-69252734D01*
X41064142Y-69155198D01*
X41060859Y-69149511D01*
X44216500Y-69149511D01*
X44216500Y-69250489D01*
X44242635Y-69348025D01*
X44293124Y-69435474D01*
X44364526Y-69506876D01*
X44451975Y-69557365D01*
X44549511Y-69583500D01*
X44549514Y-69583500D01*
X44650486Y-69583500D01*
X44650489Y-69583500D01*
X44748025Y-69557365D01*
X44835474Y-69506876D01*
X44906876Y-69435474D01*
X44957365Y-69348025D01*
X44983500Y-69250489D01*
X44983500Y-69149511D01*
X44957365Y-69051975D01*
X44906876Y-68964526D01*
X44835474Y-68893124D01*
X44748025Y-68842635D01*
X44650489Y-68816500D01*
X44549511Y-68816500D01*
X44451975Y-68842635D01*
X44451973Y-68842635D01*
X44451973Y-68842636D01*
X44364526Y-68893124D01*
X44364523Y-68893126D01*
X44293126Y-68964523D01*
X44293124Y-68964526D01*
X44242635Y-69051975D01*
X44216500Y-69149511D01*
X41060859Y-69149511D01*
X41013653Y-69067749D01*
X40942251Y-68996347D01*
X40854802Y-68945858D01*
X40757266Y-68919723D01*
X40656288Y-68919723D01*
X40558752Y-68945858D01*
X40558750Y-68945858D01*
X40558750Y-68945859D01*
X40471303Y-68996347D01*
X40471300Y-68996349D01*
X40399903Y-69067746D01*
X40399901Y-69067749D01*
X40354358Y-69146632D01*
X40349412Y-69155198D01*
X40323277Y-69252734D01*
X38062582Y-69252734D01*
X38035474Y-69225626D01*
X37948025Y-69175137D01*
X37850489Y-69149002D01*
X37749511Y-69149002D01*
X37651975Y-69175137D01*
X37651973Y-69175137D01*
X37651973Y-69175138D01*
X37564526Y-69225626D01*
X37564523Y-69225628D01*
X37493126Y-69297025D01*
X37493124Y-69297028D01*
X37454156Y-69364523D01*
X37442635Y-69384477D01*
X37416500Y-69482013D01*
X26099500Y-69482013D01*
X26099500Y-69424234D01*
X26060281Y-69277865D01*
X25984515Y-69146635D01*
X25877365Y-69039485D01*
X25863654Y-69031569D01*
X25835998Y-69015601D01*
X25787784Y-68965033D01*
X25774000Y-68908215D01*
X25774000Y-68370000D01*
X26274000Y-68370000D01*
X26274000Y-69070000D01*
X26672492Y-69070000D01*
X26672495Y-69069999D01*
X26865681Y-69031572D01*
X26865693Y-69031569D01*
X27047671Y-68956192D01*
X27047684Y-68956185D01*
X27211462Y-68846751D01*
X27211466Y-68846748D01*
X27350748Y-68707466D01*
X27350751Y-68707462D01*
X27460185Y-68543684D01*
X27460192Y-68543671D01*
X27517379Y-68405606D01*
X34716500Y-68405606D01*
X34716500Y-68506584D01*
X34742635Y-68604120D01*
X34793124Y-68691569D01*
X34864526Y-68762971D01*
X34951975Y-68813460D01*
X35049511Y-68839595D01*
X35049514Y-68839595D01*
X35092500Y-68839595D01*
X35159539Y-68859280D01*
X35205294Y-68912084D01*
X35216500Y-68963595D01*
X35216500Y-69050489D01*
X35242635Y-69148025D01*
X35293124Y-69235474D01*
X35364526Y-69306876D01*
X35451975Y-69357365D01*
X35549511Y-69383500D01*
X35549514Y-69383500D01*
X35650486Y-69383500D01*
X35650489Y-69383500D01*
X35748025Y-69357365D01*
X35835474Y-69306876D01*
X35906876Y-69235474D01*
X35957365Y-69148025D01*
X35983500Y-69050489D01*
X35983500Y-68982013D01*
X36485313Y-68982013D01*
X36485313Y-69082991D01*
X36511448Y-69180527D01*
X36561937Y-69267976D01*
X36633339Y-69339378D01*
X36720788Y-69389867D01*
X36818324Y-69416002D01*
X36818327Y-69416002D01*
X36919299Y-69416002D01*
X36919302Y-69416002D01*
X37016838Y-69389867D01*
X37104287Y-69339378D01*
X37175689Y-69267976D01*
X37226178Y-69180527D01*
X37252313Y-69082991D01*
X37252313Y-68982013D01*
X37226178Y-68884477D01*
X37175689Y-68797028D01*
X37104287Y-68725626D01*
X37016838Y-68675137D01*
X36919302Y-68649002D01*
X36818324Y-68649002D01*
X36720788Y-68675137D01*
X36720786Y-68675137D01*
X36720786Y-68675138D01*
X36633339Y-68725626D01*
X36633336Y-68725628D01*
X36561939Y-68797025D01*
X36561937Y-68797028D01*
X36525996Y-68859280D01*
X36511448Y-68884477D01*
X36485313Y-68982013D01*
X35983500Y-68982013D01*
X35983500Y-68949511D01*
X35957365Y-68851975D01*
X35906876Y-68764526D01*
X35835474Y-68693124D01*
X35748025Y-68642635D01*
X35650489Y-68616500D01*
X35607500Y-68616500D01*
X35540461Y-68596815D01*
X35494706Y-68544011D01*
X35483500Y-68492500D01*
X35483500Y-68405608D01*
X35483500Y-68405606D01*
X35457365Y-68308070D01*
X35406876Y-68220621D01*
X35335474Y-68149219D01*
X35248025Y-68098730D01*
X35150489Y-68072595D01*
X35049511Y-68072595D01*
X34951975Y-68098730D01*
X34951973Y-68098730D01*
X34951973Y-68098731D01*
X34864526Y-68149219D01*
X34864523Y-68149221D01*
X34793126Y-68220618D01*
X34793124Y-68220621D01*
X34756821Y-68283500D01*
X34742635Y-68308070D01*
X34716500Y-68405606D01*
X27517379Y-68405606D01*
X27535569Y-68361691D01*
X27543862Y-68320000D01*
X26740988Y-68320000D01*
X26758205Y-68310060D01*
X26814060Y-68254205D01*
X26853556Y-68185796D01*
X26874000Y-68109496D01*
X26874000Y-68030504D01*
X26853556Y-67954204D01*
X26822556Y-67900511D01*
X39825192Y-67900511D01*
X39825192Y-68001489D01*
X39851327Y-68099025D01*
X39901816Y-68186474D01*
X39973218Y-68257876D01*
X40060667Y-68308365D01*
X40158203Y-68334500D01*
X40158206Y-68334500D01*
X40259178Y-68334500D01*
X40259181Y-68334500D01*
X40356717Y-68308365D01*
X40444166Y-68257876D01*
X40515568Y-68186474D01*
X40566057Y-68099025D01*
X40592192Y-68001489D01*
X40592192Y-67900511D01*
X40566057Y-67802975D01*
X40535189Y-67749511D01*
X47016500Y-67749511D01*
X47016500Y-67850489D01*
X47042635Y-67948025D01*
X47093124Y-68035474D01*
X47164526Y-68106876D01*
X47251975Y-68157365D01*
X47349511Y-68183500D01*
X47349514Y-68183500D01*
X47450486Y-68183500D01*
X47450489Y-68183500D01*
X47548025Y-68157365D01*
X47635474Y-68106876D01*
X47706876Y-68035474D01*
X47757365Y-67948025D01*
X47783500Y-67850489D01*
X47783500Y-67749511D01*
X47757365Y-67651975D01*
X47755860Y-67649369D01*
X47706879Y-67564531D01*
X47706878Y-67564530D01*
X47706876Y-67564526D01*
X47647564Y-67505214D01*
X51041500Y-67505214D01*
X51041500Y-67644785D01*
X51068725Y-67781654D01*
X51068727Y-67781662D01*
X51122134Y-67910597D01*
X51122139Y-67910607D01*
X51199671Y-68026641D01*
X51199674Y-68026645D01*
X51298354Y-68125325D01*
X51298358Y-68125328D01*
X51414392Y-68202860D01*
X51414396Y-68202862D01*
X51414399Y-68202864D01*
X51543338Y-68256273D01*
X51680214Y-68283499D01*
X51680218Y-68283500D01*
X51680219Y-68283500D01*
X51819782Y-68283500D01*
X51819783Y-68283499D01*
X51956662Y-68256273D01*
X52085601Y-68202864D01*
X52201642Y-68125328D01*
X52300328Y-68026642D01*
X52377864Y-67910601D01*
X52431273Y-67781662D01*
X52458500Y-67644781D01*
X52458500Y-67505219D01*
X52458499Y-67505214D01*
X53041500Y-67505214D01*
X53041500Y-67644785D01*
X53068725Y-67781654D01*
X53068727Y-67781662D01*
X53122134Y-67910597D01*
X53122139Y-67910607D01*
X53199671Y-68026641D01*
X53199674Y-68026645D01*
X53298354Y-68125325D01*
X53298358Y-68125328D01*
X53414392Y-68202860D01*
X53414396Y-68202862D01*
X53414399Y-68202864D01*
X53543338Y-68256273D01*
X53680214Y-68283499D01*
X53680218Y-68283500D01*
X53680219Y-68283500D01*
X53819782Y-68283500D01*
X53819783Y-68283499D01*
X53956662Y-68256273D01*
X54085601Y-68202864D01*
X54201642Y-68125328D01*
X54300328Y-68026642D01*
X54377864Y-67910601D01*
X54431273Y-67781662D01*
X54458500Y-67644781D01*
X54458500Y-67505219D01*
X54458499Y-67505214D01*
X55041500Y-67505214D01*
X55041500Y-67644785D01*
X55068725Y-67781654D01*
X55068727Y-67781662D01*
X55122134Y-67910597D01*
X55122139Y-67910607D01*
X55199671Y-68026641D01*
X55199674Y-68026645D01*
X55298354Y-68125325D01*
X55298358Y-68125328D01*
X55414392Y-68202860D01*
X55414396Y-68202862D01*
X55414399Y-68202864D01*
X55543338Y-68256273D01*
X55680214Y-68283499D01*
X55680218Y-68283500D01*
X55680219Y-68283500D01*
X55819782Y-68283500D01*
X55819783Y-68283499D01*
X55956662Y-68256273D01*
X56085601Y-68202864D01*
X56201642Y-68125328D01*
X56300328Y-68026642D01*
X56377864Y-67910601D01*
X56431273Y-67781662D01*
X56458500Y-67644781D01*
X56458500Y-67505219D01*
X56458499Y-67505214D01*
X57041500Y-67505214D01*
X57041500Y-67644785D01*
X57068725Y-67781654D01*
X57068727Y-67781662D01*
X57122134Y-67910597D01*
X57122139Y-67910607D01*
X57199671Y-68026641D01*
X57199674Y-68026645D01*
X57298354Y-68125325D01*
X57298358Y-68125328D01*
X57414392Y-68202860D01*
X57414396Y-68202862D01*
X57414399Y-68202864D01*
X57543338Y-68256273D01*
X57680214Y-68283499D01*
X57680218Y-68283500D01*
X57680219Y-68283500D01*
X57819782Y-68283500D01*
X57819783Y-68283499D01*
X57956662Y-68256273D01*
X58085601Y-68202864D01*
X58201642Y-68125328D01*
X58300328Y-68026642D01*
X58377864Y-67910601D01*
X58431273Y-67781662D01*
X58458500Y-67644781D01*
X58458500Y-67505219D01*
X58458499Y-67505214D01*
X59041500Y-67505214D01*
X59041500Y-67644785D01*
X59068725Y-67781654D01*
X59068727Y-67781662D01*
X59122134Y-67910597D01*
X59122139Y-67910607D01*
X59199671Y-68026641D01*
X59199674Y-68026645D01*
X59298354Y-68125325D01*
X59298358Y-68125328D01*
X59414392Y-68202860D01*
X59414396Y-68202862D01*
X59414399Y-68202864D01*
X59543338Y-68256273D01*
X59680214Y-68283499D01*
X59680218Y-68283500D01*
X59680219Y-68283500D01*
X59819782Y-68283500D01*
X59819783Y-68283499D01*
X59956662Y-68256273D01*
X60085601Y-68202864D01*
X60201642Y-68125328D01*
X60300328Y-68026642D01*
X60377864Y-67910601D01*
X60431273Y-67781662D01*
X60458500Y-67644781D01*
X60458500Y-67505219D01*
X60431273Y-67368338D01*
X60377864Y-67239399D01*
X60377862Y-67239396D01*
X60377860Y-67239392D01*
X60300328Y-67123358D01*
X60300325Y-67123354D01*
X60201645Y-67024674D01*
X60201641Y-67024671D01*
X60085607Y-66947139D01*
X60085597Y-66947134D01*
X59956662Y-66893727D01*
X59956654Y-66893725D01*
X59819785Y-66866500D01*
X59819781Y-66866500D01*
X59680219Y-66866500D01*
X59680214Y-66866500D01*
X59543345Y-66893725D01*
X59543337Y-66893727D01*
X59414402Y-66947134D01*
X59414392Y-66947139D01*
X59298358Y-67024671D01*
X59298354Y-67024674D01*
X59199674Y-67123354D01*
X59199671Y-67123358D01*
X59122139Y-67239392D01*
X59122134Y-67239402D01*
X59068727Y-67368337D01*
X59068725Y-67368345D01*
X59041500Y-67505214D01*
X58458499Y-67505214D01*
X58431273Y-67368338D01*
X58377864Y-67239399D01*
X58377862Y-67239396D01*
X58377860Y-67239392D01*
X58300328Y-67123358D01*
X58300325Y-67123354D01*
X58201645Y-67024674D01*
X58201641Y-67024671D01*
X58085607Y-66947139D01*
X58085597Y-66947134D01*
X57956662Y-66893727D01*
X57956654Y-66893725D01*
X57819785Y-66866500D01*
X57819781Y-66866500D01*
X57680219Y-66866500D01*
X57680214Y-66866500D01*
X57543345Y-66893725D01*
X57543337Y-66893727D01*
X57414402Y-66947134D01*
X57414392Y-66947139D01*
X57298358Y-67024671D01*
X57298354Y-67024674D01*
X57199674Y-67123354D01*
X57199671Y-67123358D01*
X57122139Y-67239392D01*
X57122134Y-67239402D01*
X57068727Y-67368337D01*
X57068725Y-67368345D01*
X57041500Y-67505214D01*
X56458499Y-67505214D01*
X56431273Y-67368338D01*
X56377864Y-67239399D01*
X56377862Y-67239396D01*
X56377860Y-67239392D01*
X56300328Y-67123358D01*
X56300325Y-67123354D01*
X56201645Y-67024674D01*
X56201641Y-67024671D01*
X56085607Y-66947139D01*
X56085597Y-66947134D01*
X55956662Y-66893727D01*
X55956654Y-66893725D01*
X55819785Y-66866500D01*
X55819781Y-66866500D01*
X55680219Y-66866500D01*
X55680214Y-66866500D01*
X55543345Y-66893725D01*
X55543337Y-66893727D01*
X55414402Y-66947134D01*
X55414392Y-66947139D01*
X55298358Y-67024671D01*
X55298354Y-67024674D01*
X55199674Y-67123354D01*
X55199671Y-67123358D01*
X55122139Y-67239392D01*
X55122134Y-67239402D01*
X55068727Y-67368337D01*
X55068725Y-67368345D01*
X55041500Y-67505214D01*
X54458499Y-67505214D01*
X54431273Y-67368338D01*
X54377864Y-67239399D01*
X54377862Y-67239396D01*
X54377860Y-67239392D01*
X54300328Y-67123358D01*
X54300325Y-67123354D01*
X54201645Y-67024674D01*
X54201641Y-67024671D01*
X54085607Y-66947139D01*
X54085597Y-66947134D01*
X53956662Y-66893727D01*
X53956654Y-66893725D01*
X53819785Y-66866500D01*
X53819781Y-66866500D01*
X53680219Y-66866500D01*
X53680214Y-66866500D01*
X53543345Y-66893725D01*
X53543337Y-66893727D01*
X53414402Y-66947134D01*
X53414392Y-66947139D01*
X53298358Y-67024671D01*
X53298354Y-67024674D01*
X53199674Y-67123354D01*
X53199671Y-67123358D01*
X53122139Y-67239392D01*
X53122134Y-67239402D01*
X53068727Y-67368337D01*
X53068725Y-67368345D01*
X53041500Y-67505214D01*
X52458499Y-67505214D01*
X52431273Y-67368338D01*
X52377864Y-67239399D01*
X52377862Y-67239396D01*
X52377860Y-67239392D01*
X52300328Y-67123358D01*
X52300325Y-67123354D01*
X52201645Y-67024674D01*
X52201641Y-67024671D01*
X52085607Y-66947139D01*
X52085597Y-66947134D01*
X51956662Y-66893727D01*
X51956654Y-66893725D01*
X51819785Y-66866500D01*
X51819781Y-66866500D01*
X51680219Y-66866500D01*
X51680214Y-66866500D01*
X51543345Y-66893725D01*
X51543337Y-66893727D01*
X51414402Y-66947134D01*
X51414392Y-66947139D01*
X51298358Y-67024671D01*
X51298354Y-67024674D01*
X51199674Y-67123354D01*
X51199671Y-67123358D01*
X51122139Y-67239392D01*
X51122134Y-67239402D01*
X51068727Y-67368337D01*
X51068725Y-67368345D01*
X51041500Y-67505214D01*
X47647564Y-67505214D01*
X47635474Y-67493124D01*
X47548025Y-67442635D01*
X47450489Y-67416500D01*
X47349511Y-67416500D01*
X47251975Y-67442635D01*
X47251973Y-67442635D01*
X47251973Y-67442636D01*
X47164526Y-67493124D01*
X47164523Y-67493126D01*
X47093126Y-67564523D01*
X47093124Y-67564526D01*
X47044140Y-67649369D01*
X47042635Y-67651975D01*
X47016500Y-67749511D01*
X40535189Y-67749511D01*
X40515568Y-67715526D01*
X40444166Y-67644124D01*
X40356717Y-67593635D01*
X40259181Y-67567500D01*
X40158203Y-67567500D01*
X40060667Y-67593635D01*
X40060665Y-67593635D01*
X40060665Y-67593636D01*
X39973218Y-67644124D01*
X39973215Y-67644126D01*
X39901818Y-67715523D01*
X39901816Y-67715526D01*
X39851327Y-67802975D01*
X39825192Y-67900511D01*
X26822556Y-67900511D01*
X26814060Y-67885795D01*
X26758205Y-67829940D01*
X26740988Y-67820000D01*
X27543862Y-67820000D01*
X27543862Y-67819999D01*
X27535569Y-67778309D01*
X27535569Y-67778307D01*
X27460192Y-67596328D01*
X27460185Y-67596315D01*
X27350751Y-67432537D01*
X27350748Y-67432533D01*
X27211466Y-67293251D01*
X27211462Y-67293248D01*
X27047684Y-67183814D01*
X27047671Y-67183807D01*
X26865693Y-67108430D01*
X26865681Y-67108427D01*
X26672495Y-67070000D01*
X26274000Y-67070000D01*
X26274000Y-67770000D01*
X25774000Y-67770000D01*
X25774000Y-67070000D01*
X25375504Y-67070000D01*
X25182318Y-67108427D01*
X25182306Y-67108430D01*
X25000328Y-67183807D01*
X25000315Y-67183814D01*
X24836537Y-67293248D01*
X24836533Y-67293251D01*
X24697251Y-67432533D01*
X24697248Y-67432537D01*
X24587814Y-67596315D01*
X24587807Y-67596328D01*
X24512430Y-67778307D01*
X24512430Y-67778309D01*
X24504138Y-67820000D01*
X23213862Y-67820000D01*
X23205569Y-67778309D01*
X23205569Y-67778307D01*
X23130192Y-67596328D01*
X23130185Y-67596315D01*
X23020751Y-67432537D01*
X23020748Y-67432533D01*
X22881466Y-67293251D01*
X22881462Y-67293248D01*
X22717684Y-67183814D01*
X22717671Y-67183807D01*
X22535693Y-67108430D01*
X22535681Y-67108427D01*
X22342495Y-67070000D01*
X22094000Y-67070000D01*
X22094000Y-67770000D01*
X21594000Y-67770000D01*
X21594000Y-67070000D01*
X21345504Y-67070000D01*
X21152318Y-67108427D01*
X21152306Y-67108430D01*
X20970328Y-67183807D01*
X20970315Y-67183814D01*
X20806537Y-67293248D01*
X20806533Y-67293251D01*
X20667251Y-67432533D01*
X20667248Y-67432537D01*
X20557814Y-67596315D01*
X20557807Y-67596328D01*
X20482430Y-67778307D01*
X20482430Y-67778309D01*
X20474138Y-67820000D01*
X19028172Y-67820000D01*
X19061181Y-67668260D01*
X19064400Y-67656360D01*
X19075199Y-67623124D01*
X19076919Y-67618191D01*
X19141050Y-67446250D01*
X19146720Y-67433351D01*
X19152667Y-67421678D01*
X19154184Y-67418804D01*
X19250166Y-67243025D01*
X19259728Y-67228148D01*
X19385866Y-67059647D01*
X19397445Y-67046283D01*
X19546283Y-66897445D01*
X19559647Y-66885866D01*
X19728148Y-66759728D01*
X19743025Y-66750166D01*
X19918804Y-66654184D01*
X19921678Y-66652667D01*
X19933351Y-66646720D01*
X19946250Y-66641050D01*
X20118191Y-66576919D01*
X20123124Y-66575199D01*
X20156360Y-66564400D01*
X20168255Y-66561182D01*
X20338093Y-66524236D01*
X20344989Y-66522941D01*
X20388138Y-66516107D01*
X20398655Y-66514900D01*
X20595582Y-66500816D01*
X20604428Y-66500500D01*
X60295572Y-66500500D01*
X60304418Y-66500816D01*
G37*
%TD.AperFunction*%
%TD*%
M02*
