%TF.GenerationSoftware,KiCad,Pcbnew,9.0.4*%
%TF.CreationDate,2025-08-29T23:53:31-07:00*%
%TF.ProjectId,WeatherPill,57656174-6865-4725-9069-6c6c2e6b6963,rev?*%
%TF.SameCoordinates,Original*%
%TF.FileFunction,Copper,L1,Top*%
%TF.FilePolarity,Positive*%
%FSLAX46Y46*%
G04 Gerber Fmt 4.6, Leading zero omitted, Abs format (unit mm)*
G04 Created by KiCad (PCBNEW 9.0.4) date 2025-08-29 23:53:31*
%MOMM*%
%LPD*%
G01*
G04 APERTURE LIST*
G04 Aperture macros list*
%AMRoundRect*
0 Rectangle with rounded corners*
0 $1 Rounding radius*
0 $2 $3 $4 $5 $6 $7 $8 $9 X,Y pos of 4 corners*
0 Add a 4 corners polygon primitive as box body*
4,1,4,$2,$3,$4,$5,$6,$7,$8,$9,$2,$3,0*
0 Add four circle primitives for the rounded corners*
1,1,$1+$1,$2,$3*
1,1,$1+$1,$4,$5*
1,1,$1+$1,$6,$7*
1,1,$1+$1,$8,$9*
0 Add four rect primitives between the rounded corners*
20,1,$1+$1,$2,$3,$4,$5,0*
20,1,$1+$1,$4,$5,$6,$7,0*
20,1,$1+$1,$6,$7,$8,$9,0*
20,1,$1+$1,$8,$9,$2,$3,0*%
G04 Aperture macros list end*
%TA.AperFunction,SMDPad,CuDef*%
%ADD10R,0.711200X1.498600*%
%TD*%
%TA.AperFunction,SMDPad,CuDef*%
%ADD11R,0.990600X0.812800*%
%TD*%
%TA.AperFunction,SMDPad,CuDef*%
%ADD12RoundRect,0.100000X0.100000X-0.217500X0.100000X0.217500X-0.100000X0.217500X-0.100000X-0.217500X0*%
%TD*%
%TA.AperFunction,SMDPad,CuDef*%
%ADD13RoundRect,0.062500X0.375000X0.062500X-0.375000X0.062500X-0.375000X-0.062500X0.375000X-0.062500X0*%
%TD*%
%TA.AperFunction,SMDPad,CuDef*%
%ADD14RoundRect,0.062500X0.062500X0.375000X-0.062500X0.375000X-0.062500X-0.375000X0.062500X-0.375000X0*%
%TD*%
%TA.AperFunction,HeatsinkPad*%
%ADD15R,3.450000X3.450000*%
%TD*%
%TA.AperFunction,SMDPad,CuDef*%
%ADD16RoundRect,0.160000X0.160000X-0.222500X0.160000X0.222500X-0.160000X0.222500X-0.160000X-0.222500X0*%
%TD*%
%TA.AperFunction,SMDPad,CuDef*%
%ADD17RoundRect,0.100000X0.217500X0.100000X-0.217500X0.100000X-0.217500X-0.100000X0.217500X-0.100000X0*%
%TD*%
%TA.AperFunction,SMDPad,CuDef*%
%ADD18RoundRect,0.100000X-0.217500X-0.100000X0.217500X-0.100000X0.217500X0.100000X-0.217500X0.100000X0*%
%TD*%
%TA.AperFunction,SMDPad,CuDef*%
%ADD19RoundRect,0.100000X0.224506X-0.083085X-0.083085X0.224506X-0.224506X0.083085X0.083085X-0.224506X0*%
%TD*%
%TA.AperFunction,SMDPad,CuDef*%
%ADD20R,0.800000X0.800000*%
%TD*%
%TA.AperFunction,SMDPad,CuDef*%
%ADD21R,0.500000X0.350000*%
%TD*%
%TA.AperFunction,SMDPad,CuDef*%
%ADD22RoundRect,0.100000X0.083085X0.224506X-0.224506X-0.083085X-0.083085X-0.224506X0.224506X0.083085X0*%
%TD*%
%TA.AperFunction,SMDPad,CuDef*%
%ADD23C,0.260000*%
%TD*%
%TA.AperFunction,SMDPad,CuDef*%
%ADD24RoundRect,0.160000X-0.222500X-0.160000X0.222500X-0.160000X0.222500X0.160000X-0.222500X0.160000X0*%
%TD*%
%TA.AperFunction,SMDPad,CuDef*%
%ADD25RoundRect,0.160000X0.222500X0.160000X-0.222500X0.160000X-0.222500X-0.160000X0.222500X-0.160000X0*%
%TD*%
%TA.AperFunction,SMDPad,CuDef*%
%ADD26RoundRect,0.160000X-0.160000X0.222500X-0.160000X-0.222500X0.160000X-0.222500X0.160000X0.222500X0*%
%TD*%
%TA.AperFunction,SMDPad,CuDef*%
%ADD27R,0.304800X0.381000*%
%TD*%
%TA.AperFunction,SMDPad,CuDef*%
%ADD28R,0.355600X0.304800*%
%TD*%
%TA.AperFunction,ComponentPad*%
%ADD29C,1.000000*%
%TD*%
%TA.AperFunction,SMDPad,CuDef*%
%ADD30R,1.244600X0.660400*%
%TD*%
%TA.AperFunction,SMDPad,CuDef*%
%ADD31RoundRect,0.100000X-0.100000X0.217500X-0.100000X-0.217500X0.100000X-0.217500X0.100000X0.217500X0*%
%TD*%
%TA.AperFunction,SMDPad,CuDef*%
%ADD32R,0.500000X0.300000*%
%TD*%
%TA.AperFunction,SMDPad,CuDef*%
%ADD33R,1.150000X0.600000*%
%TD*%
%TA.AperFunction,SMDPad,CuDef*%
%ADD34R,1.150000X0.300000*%
%TD*%
%TA.AperFunction,ComponentPad*%
%ADD35O,2.100000X1.000000*%
%TD*%
%TA.AperFunction,ComponentPad*%
%ADD36O,1.800000X1.000000*%
%TD*%
%TA.AperFunction,ConnectorPad*%
%ADD37C,0.787400*%
%TD*%
%TA.AperFunction,SMDPad,CuDef*%
%ADD38RoundRect,0.093750X-0.156250X-0.093750X0.156250X-0.093750X0.156250X0.093750X-0.156250X0.093750X0*%
%TD*%
%TA.AperFunction,SMDPad,CuDef*%
%ADD39RoundRect,0.075000X-0.250000X-0.075000X0.250000X-0.075000X0.250000X0.075000X-0.250000X0.075000X0*%
%TD*%
%TA.AperFunction,SMDPad,CuDef*%
%ADD40C,1.500000*%
%TD*%
%TA.AperFunction,SMDPad,CuDef*%
%ADD41C,0.230000*%
%TD*%
%TA.AperFunction,ViaPad*%
%ADD42C,0.350000*%
%TD*%
%TA.AperFunction,Conductor*%
%ADD43C,0.250000*%
%TD*%
%TA.AperFunction,Conductor*%
%ADD44C,0.200000*%
%TD*%
G04 APERTURE END LIST*
D10*
%TO.P,SW1,1,1*%
%TO.N,unconnected-(SW1-Pad1)*%
X21749997Y-78750000D03*
%TO.P,SW1,2,2*%
%TO.N,Net-(BT1-PadP)*%
X24750000Y-78750000D03*
%TO.P,SW1,3,3*%
%TO.N,V_BUS_3V*%
X26250000Y-78750000D03*
D11*
%TO.P,SW1,4*%
%TO.N,N/C*%
X20350000Y-79450001D03*
%TO.P,SW1,5*%
X27650000Y-79450001D03*
%TO.P,SW1,6*%
X20350020Y-81549999D03*
%TO.P,SW1,7*%
X27649980Y-81549999D03*
%TD*%
D12*
%TO.P,R19,1*%
%TO.N,V_USB*%
X28448000Y-68565000D03*
%TO.P,R19,2*%
%TO.N,unconnected-(R19-Pad2)*%
X28448000Y-67750000D03*
%TD*%
D13*
%TO.P,U8,1,PC14*%
%TO.N,unconnected-(U8-PC14-Pad1)*%
X37787500Y-74000000D03*
%TO.P,U8,2,PC15*%
%TO.N,unconnected-(U8-PC15-Pad2)*%
X37787500Y-73500000D03*
%TO.P,U8,3,NRST*%
%TO.N,NRST*%
X37787500Y-73000000D03*
%TO.P,U8,4,VSSA*%
%TO.N,GND*%
X37787500Y-72500000D03*
%TO.P,U8,5,VDDA*%
%TO.N,V_BUS_3V*%
X37787500Y-72000000D03*
%TO.P,U8,6,PA0*%
%TO.N,BTN_1*%
X37787500Y-71500000D03*
%TO.P,U8,7,PA1*%
%TO.N,BTN_2*%
X37787500Y-71000000D03*
%TO.P,U8,8,PA2*%
%TO.N,~{DISP_RST}*%
X37787500Y-70500000D03*
D14*
%TO.P,U8,9,PA3*%
%TO.N,CS_1*%
X37100000Y-69812500D03*
%TO.P,U8,10,PA4*%
%TO.N,CS_2*%
X36600000Y-69812500D03*
%TO.P,U8,11,SPI1_SCK*%
%TO.N,SCK_1*%
X36100000Y-69812500D03*
%TO.P,U8,12,SPI1_MISO*%
%TO.N,SDI_1*%
X35600000Y-69812500D03*
%TO.P,U8,13,SPI1_MOSI*%
%TO.N,SDO_1*%
X35100000Y-69812500D03*
%TO.P,U8,14,PB0*%
%TO.N,Net-(U8-PB0)*%
X34600000Y-69812500D03*
%TO.P,U8,15,PB1*%
%TO.N,Net-(U8-PB1)*%
X34100000Y-69812500D03*
%TO.P,U8,16,VSS*%
%TO.N,GND*%
X33600000Y-69812500D03*
D13*
%TO.P,U8,17,VDD*%
%TO.N,V_BUS_3V*%
X32912500Y-70500000D03*
%TO.P,U8,18,PA8*%
%TO.N,HDC_DRDY*%
X32912500Y-71000000D03*
%TO.P,U8,19,I2C1_SCL*%
%TO.N,SCL_1*%
X32912500Y-71500000D03*
%TO.P,U8,20,I2C1_SDA*%
%TO.N,SDA_1*%
X32912500Y-72000000D03*
%TO.P,U8,21,USB_DM*%
%TO.N,USB_D+*%
X32912500Y-72500000D03*
%TO.P,U8,22,USB_DP*%
%TO.N,USB_D-*%
X32912500Y-73000000D03*
%TO.P,U8,23,SYS_SWDIO*%
%TO.N,SWDIO*%
X32912500Y-73500000D03*
%TO.P,U8,24,VDD_USB*%
%TO.N,V_USB*%
X32912500Y-74000000D03*
D14*
%TO.P,U8,25,SYS_SWCLK*%
%TO.N,SWCLK*%
X33600000Y-74687500D03*
%TO.P,U8,26,PB4*%
%TO.N,Net-(U8-PB4)*%
X34100000Y-74687500D03*
%TO.P,U8,27,PB5*%
%TO.N,Net-(U8-PB5)*%
X34600000Y-74687500D03*
%TO.P,U8,28,PB6*%
%TO.N,Net-(U8-PB6)*%
X35100000Y-74687500D03*
%TO.P,U8,29,PB7*%
%TO.N,CONTROL_ZONE_1*%
X35600000Y-74687500D03*
%TO.P,U8,30,BOOT0*%
%TO.N,Net-(U8-BOOT0)*%
X36100000Y-74687500D03*
%TO.P,U8,31,VSS*%
%TO.N,GND*%
X36600000Y-74687500D03*
%TO.P,U8,32,VDD*%
%TO.N,V_BUS_3V*%
X37100000Y-74687500D03*
D15*
%TO.P,U8,33,VSS*%
%TO.N,GND*%
X35350000Y-72250000D03*
%TD*%
D16*
%TO.P,C7,1*%
%TO.N,GND*%
X46600000Y-68572500D03*
%TO.P,C7,2*%
%TO.N,V_BUS_ZONE_1*%
X46600000Y-67427500D03*
%TD*%
D17*
%TO.P,R18,1*%
%TO.N,Net-(U5-CSB)*%
X41807500Y-68800000D03*
%TO.P,R18,2*%
%TO.N,CS_1*%
X40992500Y-68800000D03*
%TD*%
D18*
%TO.P,R37,1*%
%TO.N,Net-(U7-CSB)*%
X47192500Y-71050000D03*
%TO.P,R37,2*%
%TO.N,CS_2*%
X48007500Y-71050000D03*
%TD*%
%TO.P,R38,1*%
%TO.N,Net-(U7-INT)*%
X47192500Y-70300000D03*
%TO.P,R38,2*%
%TO.N,unconnected-(R38-Pad2)*%
X48007500Y-70300000D03*
%TD*%
D17*
%TO.P,R2,1*%
%TO.N,GND*%
X39407500Y-78200000D03*
%TO.P,R2,2*%
%TO.N,Net-(U8-BOOT0)*%
X38592500Y-78200000D03*
%TD*%
D16*
%TO.P,C6,1*%
%TO.N,GND*%
X48000000Y-81322500D03*
%TO.P,C6,2*%
%TO.N,Net-(C6-Pad2)*%
X48000000Y-80177500D03*
%TD*%
D12*
%TO.P,R11,1*%
%TO.N,SCL_1*%
X49000000Y-80607500D03*
%TO.P,R11,2*%
%TO.N,V_BUS_ZONE_1*%
X49000000Y-79792500D03*
%TD*%
D19*
%TO.P,R9,1*%
%TO.N,Net-(U8-PB5)*%
X35038146Y-77788146D03*
%TO.P,R9,2*%
%TO.N,GND*%
X34461854Y-77211854D03*
%TD*%
D20*
%TO.P,D1,A,A*%
%TO.N,Net-(D1-PadA)*%
X39200000Y-77000000D03*
%TO.P,D1,C,C*%
%TO.N,GND*%
X40700000Y-77000000D03*
%TD*%
D21*
%TO.P,U5,1,GND*%
%TO.N,GND*%
X43175000Y-69175000D03*
%TO.P,U5,2,CSB*%
%TO.N,Net-(U5-CSB)*%
X43175000Y-68525000D03*
%TO.P,U5,3,SDI*%
%TO.N,Net-(U5-SDI)*%
X43175000Y-67875000D03*
%TO.P,U5,4,SCK*%
%TO.N,Net-(U5-SCK)*%
X43175000Y-67225000D03*
%TO.P,U5,5,SDO*%
%TO.N,Net-(U5-SDO)*%
X45225000Y-67225000D03*
%TO.P,U5,6,VDDIO*%
%TO.N,V_BUS_ZONE_1*%
X45225000Y-67875000D03*
%TO.P,U5,7,GND*%
%TO.N,GND*%
X45225000Y-68525000D03*
%TO.P,U5,8,VDD*%
%TO.N,V_BUS_ZONE_1*%
X45225000Y-69175000D03*
%TD*%
D22*
%TO.P,R16,1*%
%TO.N,Net-(U5-SCK)*%
X36888146Y-67711854D03*
%TO.P,R16,2*%
%TO.N,SCK_1*%
X36311854Y-68288146D03*
%TD*%
D16*
%TO.P,C1,1*%
%TO.N,V_BUS_3V*%
X31500000Y-69750000D03*
%TO.P,C1,2*%
%TO.N,GND*%
X31500000Y-68605000D03*
%TD*%
D17*
%TO.P,R3,1*%
%TO.N,GND*%
X29007500Y-74600000D03*
%TO.P,R3,2*%
%TO.N,Net-(J2-CC2)*%
X28192500Y-74600000D03*
%TD*%
D18*
%TO.P,R29,1*%
%TO.N,Net-(U8-PB6)*%
X36192500Y-78200000D03*
%TO.P,R29,2*%
%TO.N,Net-(D1-PadA)*%
X37007500Y-78200000D03*
%TD*%
D23*
%TO.P,U6,A1,VDD*%
%TO.N,V_BUS_ZONE_1*%
X49200000Y-74200000D03*
%TO.P,U6,A2,SDA*%
%TO.N,Net-(U6-SDA)*%
X49200000Y-75200000D03*
%TO.P,U6,B1,ADDR*%
%TO.N,Net-(U6-ADDR)*%
X48700000Y-74200000D03*
%TO.P,U6,B2,SCL*%
%TO.N,Net-(U6-SCL)*%
X48700000Y-75200000D03*
%TO.P,U6,C1,GND*%
%TO.N,GND*%
X48200000Y-74200000D03*
%TO.P,U6,C2,DRDY/INT*%
%TO.N,Net-(U6-DRDY{slash}INT)*%
X48200000Y-75200000D03*
%TD*%
D24*
%TO.P,C5,1*%
%TO.N,GND*%
X44627500Y-76750000D03*
%TO.P,C5,2*%
%TO.N,Net-(C5-Pad2)*%
X45772500Y-76750000D03*
%TD*%
D12*
%TO.P,R33,1*%
%TO.N,HDC_DRDY*%
X48800000Y-77840000D03*
%TO.P,R33,2*%
%TO.N,Net-(U6-DRDY{slash}INT)*%
X48800000Y-77025000D03*
%TD*%
D17*
%TO.P,R15,1*%
%TO.N,V_BUS_3V*%
X45907500Y-75750000D03*
%TO.P,R15,2*%
%TO.N,V_BUS_ZONE_1*%
X45092500Y-75750000D03*
%TD*%
D25*
%TO.P,C11,1*%
%TO.N,V_BUS_3V*%
X40372500Y-75000000D03*
%TO.P,C11,2*%
%TO.N,GND*%
X39227500Y-75000000D03*
%TD*%
D12*
%TO.P,R10,1*%
%TO.N,Net-(U3-SDA)*%
X50600000Y-80615000D03*
%TO.P,R10,2*%
%TO.N,SDA_1*%
X50600000Y-79800000D03*
%TD*%
D26*
%TO.P,C2,1*%
%TO.N,V_BUS_3V*%
X37400000Y-75677500D03*
%TO.P,C2,2*%
%TO.N,GND*%
X37400000Y-76822500D03*
%TD*%
D27*
%TO.P,U7,1,VDDIO*%
%TO.N,V_BUS_ZONE_1*%
X43723001Y-72260300D03*
%TO.P,U7,2,SCK*%
%TO.N,Net-(U7-SCK)*%
X44223001Y-72260300D03*
D28*
%TO.P,U7,3,VSS*%
%TO.N,GND*%
X44746002Y-71999998D03*
%TO.P,U7,4,SDI*%
%TO.N,Net-(U7-SDI)*%
X44746002Y-71499999D03*
%TO.P,U7,5,SDO*%
%TO.N,Net-(U7-SDO)*%
X44746002Y-71000000D03*
D27*
%TO.P,U7,6,CSB*%
%TO.N,Net-(U7-CSB)*%
X44223001Y-70739698D03*
%TO.P,U7,7,INT*%
%TO.N,Net-(U7-INT)*%
X43723001Y-70739698D03*
D28*
%TO.P,U7,8,VSS*%
%TO.N,GND*%
X43200000Y-71000000D03*
%TO.P,U7,9,VSS*%
X43200000Y-71499999D03*
%TO.P,U7,10,VDD*%
%TO.N,V_BUS_ZONE_1*%
X43200000Y-71999998D03*
%TD*%
D12*
%TO.P,R13,1*%
%TO.N,Net-(C6-Pad2)*%
X48000000Y-78907500D03*
%TO.P,R13,2*%
%TO.N,V_BUS_3V*%
X48000000Y-78092500D03*
%TD*%
D29*
%TO.P,L1,1,1*%
%TO.N,SEG0*%
X51750000Y-67575000D03*
%TO.P,L1,2,2*%
%TO.N,SEG1*%
X53750000Y-67575000D03*
%TO.P,L1,3,3*%
%TO.N,SEG2*%
X55750000Y-67575000D03*
%TO.P,L1,4,4*%
%TO.N,SEG3*%
X57750000Y-67575000D03*
%TO.P,L1,5,5*%
%TO.N,SEG4*%
X59750000Y-67575000D03*
%TO.P,L1,6,6*%
%TO.N,SEG5*%
X51750000Y-77825000D03*
%TO.P,L1,7,7*%
%TO.N,COM3*%
X53750000Y-77825000D03*
%TO.P,L1,8,8*%
%TO.N,COM2*%
X55750000Y-77825000D03*
%TO.P,L1,9,9*%
%TO.N,COM1*%
X57750000Y-77825000D03*
%TO.P,L1,10,10*%
%TO.N,COM0*%
X59750000Y-77825000D03*
%TD*%
D30*
%TO.P,SW4,1,1*%
%TO.N,BTN_2*%
X42407200Y-80009999D03*
X46471200Y-80009999D03*
%TO.P,SW4,2,2*%
%TO.N,Net-(C6-Pad2)*%
X42407200Y-81490001D03*
X46471200Y-81490001D03*
%TD*%
D17*
%TO.P,R7,1*%
%TO.N,Net-(U8-PB1)*%
X33407500Y-68500000D03*
%TO.P,R7,2*%
%TO.N,GND*%
X32592500Y-68500000D03*
%TD*%
D31*
%TO.P,R31,1*%
%TO.N,Net-(U6-SDA)*%
X50400000Y-77025000D03*
%TO.P,R31,2*%
%TO.N,SDA_1*%
X50400000Y-77840000D03*
%TD*%
%TO.P,R6,1*%
%TO.N,Net-(U8-PB0)*%
X30500000Y-67935000D03*
%TO.P,R6,2*%
%TO.N,GND*%
X30500000Y-68750000D03*
%TD*%
D32*
%TO.P,U3,1,SDA*%
%TO.N,Net-(U3-SDA)*%
X51800000Y-80800000D03*
%TO.P,U3,2,SCL*%
%TO.N,Net-(U3-SCL)*%
X51800000Y-81600000D03*
%TO.P,U3,3,VDD*%
%TO.N,V_BUS_ZONE_1*%
X53200000Y-81600000D03*
%TO.P,U3,4,VSS*%
%TO.N,GND*%
X53200000Y-80800000D03*
%TD*%
D24*
%TO.P,C3,1*%
%TO.N,V_BUS_3V*%
X39105000Y-72000000D03*
%TO.P,C3,2*%
%TO.N,GND*%
X40250000Y-72000000D03*
%TD*%
%TO.P,C13,1*%
%TO.N,V_BUS_ZONE_1*%
X42227500Y-76600000D03*
%TO.P,C13,2*%
%TO.N,GND*%
X43372500Y-76600000D03*
%TD*%
D33*
%TO.P,J2,A1_B12,GND*%
%TO.N,GND*%
X26599000Y-69190000D03*
%TO.P,J2,A4_B9,VBUS*%
%TO.N,V_USB*%
X26599000Y-69990000D03*
D34*
%TO.P,J2,A5,CC1*%
%TO.N,Net-(J2-CC1)*%
X26599000Y-71140000D03*
%TO.P,J2,A6,DP1*%
%TO.N,USB_D+*%
X26599000Y-72140000D03*
%TO.P,J2,A7,DN1*%
%TO.N,USB_D-*%
X26599000Y-72640000D03*
%TO.P,J2,A8,SBU1*%
%TO.N,unconnected-(J2-SBU1-PadA8)*%
X26599000Y-73640000D03*
D33*
%TO.P,J2,B1_A12,GND__1*%
%TO.N,GND*%
X26599000Y-75590000D03*
%TO.P,J2,B4_A9,VBUS__1*%
%TO.N,V_USB*%
X26599000Y-74790000D03*
D34*
%TO.P,J2,B5,CC2*%
%TO.N,Net-(J2-CC2)*%
X26599000Y-74140000D03*
%TO.P,J2,B6,DP2*%
%TO.N,USB_D+*%
X26599000Y-73140000D03*
%TO.P,J2,B7,DN2*%
%TO.N,USB_D-*%
X26599000Y-71640000D03*
%TO.P,J2,B8,SBU2*%
%TO.N,unconnected-(J2-SBU2-PadB8)*%
X26599000Y-70640000D03*
D35*
%TO.P,J2,SH1,SHELL_GND*%
%TO.N,GND*%
X26024000Y-68070000D03*
%TO.P,J2,SH2,SHELL_GND__1*%
X26024000Y-76710000D03*
D36*
%TO.P,J2,SH3,SHELL_GND__2*%
X21844000Y-68070000D03*
%TO.P,J2,SH4,SHELL_GND__3*%
X21844000Y-76710000D03*
%TD*%
D30*
%TO.P,SW3,1,1*%
%TO.N,BTN_1*%
X35936000Y-80009999D03*
X40000000Y-80009999D03*
%TO.P,SW3,2,2*%
%TO.N,GND*%
X35936000Y-81490001D03*
X40000000Y-81490001D03*
%TD*%
D37*
%TO.P,J1,1,VCC*%
%TO.N,V_BUS_3V*%
X29953949Y-77250000D03*
%TO.P,J1,2,SWDIO*%
%TO.N,SWDIO*%
X30851974Y-76351975D03*
%TO.P,J1,3,~{RESET}*%
%TO.N,NRST*%
X30851974Y-78148026D03*
%TO.P,J1,4,SWCLK*%
%TO.N,SWCLK*%
X31750000Y-77250000D03*
%TO.P,J1,5,GND*%
%TO.N,GND*%
X31750000Y-79046051D03*
%TO.P,J1,6,SWO*%
%TO.N,SWO*%
X32648025Y-78148026D03*
%TD*%
D12*
%TO.P,R12,1*%
%TO.N,SDA_1*%
X49800000Y-80007500D03*
%TO.P,R12,2*%
%TO.N,V_BUS_ZONE_1*%
X49800000Y-79192500D03*
%TD*%
D38*
%TO.P,U1,1,I/O1*%
%TO.N,USB_D+*%
X29122000Y-72360500D03*
D39*
%TO.P,U1,2,GND*%
%TO.N,GND*%
X29047000Y-72898000D03*
D38*
%TO.P,U1,3,I/O2*%
%TO.N,USB_D-*%
X29122000Y-73435500D03*
%TO.P,U1,4,I/O2*%
X30822000Y-73435500D03*
D39*
%TO.P,U1,5,VBUS*%
%TO.N,V_USB*%
X30897000Y-72898000D03*
D38*
%TO.P,U1,6,I/O1*%
%TO.N,USB_D+*%
X30822000Y-72360500D03*
%TD*%
D24*
%TO.P,C10,1*%
%TO.N,V_BUS_3V*%
X40427500Y-73800000D03*
%TO.P,C10,2*%
%TO.N,GND*%
X41572500Y-73800000D03*
%TD*%
D17*
%TO.P,R14,1*%
%TO.N,Net-(U5-SDO)*%
X36007500Y-67000000D03*
%TO.P,R14,2*%
%TO.N,SDO_1*%
X35192500Y-67000000D03*
%TD*%
%TO.P,R1,1*%
%TO.N,Net-(U3-SCL)*%
X50240000Y-81600000D03*
%TO.P,R1,2*%
%TO.N,SCL_1*%
X49425000Y-81600000D03*
%TD*%
D18*
%TO.P,R34,1*%
%TO.N,Net-(U7-SDO)*%
X47192500Y-71800000D03*
%TO.P,R34,2*%
%TO.N,SDO_1*%
X48007500Y-71800000D03*
%TD*%
D40*
%TO.P,TP2,1,1*%
%TO.N,GND*%
X29750000Y-81250000D03*
%TD*%
D17*
%TO.P,R32,1*%
%TO.N,Net-(U6-ADDR)*%
X46407500Y-73600000D03*
%TO.P,R32,2*%
%TO.N,GND*%
X45592500Y-73600000D03*
%TD*%
D16*
%TO.P,C12,1*%
%TO.N,V_BUS_ZONE_1*%
X44000000Y-75372500D03*
%TO.P,C12,2*%
%TO.N,GND*%
X44000000Y-74227500D03*
%TD*%
D18*
%TO.P,R36,1*%
%TO.N,Net-(U7-SDI)*%
X47192500Y-72550000D03*
%TO.P,R36,2*%
%TO.N,SDI_1*%
X48007500Y-72550000D03*
%TD*%
D17*
%TO.P,R17,1*%
%TO.N,Net-(U5-SDI)*%
X41807500Y-68000000D03*
%TO.P,R17,2*%
%TO.N,SDI_1*%
X40992500Y-68000000D03*
%TD*%
D41*
%TO.P,U4,A1,VOUT*%
%TO.N,V_BUS_ZONE_1*%
X42500000Y-75500000D03*
%TO.P,U4,A2,VIN*%
%TO.N,V_BUS_3V*%
X42099998Y-75500000D03*
%TO.P,U4,B1,GND*%
%TO.N,GND*%
X42500000Y-75099998D03*
%TO.P,U4,B2,ON*%
%TO.N,CONTROL_ZONE_1*%
X42099998Y-75099998D03*
%TD*%
D31*
%TO.P,R30,1*%
%TO.N,Net-(U6-SCL)*%
X49600000Y-77025000D03*
%TO.P,R30,2*%
%TO.N,SCL_1*%
X49600000Y-77840000D03*
%TD*%
D26*
%TO.P,C4,1*%
%TO.N,GND*%
X54400000Y-80427499D03*
%TO.P,C4,2*%
%TO.N,V_BUS_ZONE_1*%
X54400000Y-81572501D03*
%TD*%
D12*
%TO.P,R35,1*%
%TO.N,Net-(U7-SCK)*%
X40000000Y-69807500D03*
%TO.P,R35,2*%
%TO.N,SCK_1*%
X40000000Y-68992500D03*
%TD*%
D26*
%TO.P,C8,1*%
%TO.N,GND*%
X50000000Y-69427500D03*
%TO.P,C8,2*%
%TO.N,V_BUS_ZONE_1*%
X50000000Y-70572500D03*
%TD*%
D12*
%TO.P,R4,1*%
%TO.N,Net-(J2-CC1)*%
X29250000Y-69407500D03*
%TO.P,R4,2*%
%TO.N,GND*%
X29250000Y-68592500D03*
%TD*%
D19*
%TO.P,R20,1*%
%TO.N,Net-(U8-PB4)*%
X33538146Y-76288146D03*
%TO.P,R20,2*%
%TO.N,GND*%
X32961854Y-75711854D03*
%TD*%
D18*
%TO.P,R8,1*%
%TO.N,Net-(C5-Pad2)*%
X46992500Y-77000000D03*
%TO.P,R8,2*%
%TO.N,V_BUS_3V*%
X47807500Y-77000000D03*
%TD*%
D26*
%TO.P,C9,1*%
%TO.N,GND*%
X41600000Y-69827500D03*
%TO.P,C9,2*%
%TO.N,V_BUS_ZONE_1*%
X41600000Y-70972500D03*
%TD*%
D42*
%TO.N,V_BUS_3V*%
X45900000Y-75200000D03*
X27200000Y-78400000D03*
X40000000Y-73000000D03*
X27700000Y-77900000D03*
X32306250Y-69893750D03*
X29200000Y-77200000D03*
%TO.N,GND*%
X28750000Y-78250000D03*
X49422500Y-71600000D03*
X53241054Y-68358946D03*
X47400000Y-74200000D03*
X36500000Y-71000000D03*
X30250000Y-69500000D03*
X40400000Y-72600000D03*
X33000000Y-79500000D03*
X35350000Y-72250000D03*
X33600000Y-67000000D03*
X34028211Y-77881273D03*
X30000000Y-74800000D03*
X38200000Y-76500000D03*
X43000000Y-74177500D03*
X36425000Y-73325000D03*
X43800000Y-71400000D03*
X29250000Y-67500000D03*
X40600000Y-78000000D03*
X44000000Y-76800000D03*
X29250000Y-82000000D03*
X40849804Y-69950196D03*
X29737266Y-73246645D03*
X45400000Y-72800000D03*
X28500000Y-75750000D03*
X27500000Y-80500000D03*
X20250000Y-76750000D03*
X30000000Y-71400000D03*
X50000000Y-68800000D03*
X42500000Y-69500000D03*
X39400000Y-74200000D03*
X50200000Y-73200000D03*
%TO.N,SDA_1*%
X31750000Y-71750000D03*
X50000000Y-80750000D03*
%TO.N,SCL_1*%
X50375000Y-78875000D03*
X48695000Y-81250000D03*
X51200000Y-70600000D03*
X31500000Y-71250000D03*
X50546446Y-75800000D03*
%TO.N,CS_1*%
X37800000Y-69532502D03*
X40706777Y-69303223D03*
%TO.N,CS_2*%
X36868813Y-69032502D03*
X47500000Y-69725000D03*
%TO.N,V_USB*%
X31000000Y-75400000D03*
X28080000Y-69990000D03*
X30125000Y-72625000D03*
%TO.N,BTN_1*%
X40700000Y-79300000D03*
X39000000Y-71200000D03*
%TO.N,BTN_2*%
X42200000Y-79200000D03*
X39000000Y-70600000D03*
%TO.N,V_BUS_ZONE_1*%
X43427500Y-75322500D03*
X44600000Y-69200000D03*
X50400000Y-74600000D03*
X49293756Y-78614959D03*
X42200000Y-71800000D03*
X47400000Y-67800000D03*
X55400000Y-81572501D03*
%TO.N,CONTROL_ZONE_1*%
X36000000Y-76405084D03*
X41200000Y-74600000D03*
%TO.N,NRST*%
X39465002Y-73400000D03*
X31367169Y-79879025D03*
%TO.N,USB_D-*%
X28071501Y-71696554D03*
X28250000Y-73500000D03*
%TO.N,HDC_DRDY*%
X31250000Y-70750000D03*
X34000000Y-80750000D03*
X31250000Y-80500000D03*
X48736181Y-78600000D03*
%TO.N,SDO_1*%
X35100000Y-68456095D03*
X49100000Y-69357108D03*
%TO.N,SDI_1*%
X35600000Y-69000000D03*
X40208692Y-67951000D03*
X48582875Y-72284290D03*
%TO.N,Net-(D1-PadA)*%
X40000000Y-77800000D03*
X37800000Y-78200000D03*
%TO.N,Net-(BT1-PadP)*%
X23750000Y-78500000D03*
%TO.N,SEG0*%
X53600000Y-69600000D03*
%TO.N,unconnected-(U2-SEG8-Pad20)*%
X57800000Y-72720000D03*
%TO.N,SEG5*%
X57800000Y-70400000D03*
%TO.N,unconnected-(U2-SEG10-Pad22)*%
X57800000Y-73720000D03*
%TO.N,~{DISP_RST}*%
X38950000Y-70000000D03*
%TO.N,unconnected-(U2-SEG12-Pad24)*%
X58500000Y-74900000D03*
%TO.N,unconnected-(U2-SEG13-Pad25)*%
X57700000Y-75600000D03*
%TO.N,unconnected-(U2-SEG9-Pad21)*%
X58580000Y-73220000D03*
%TO.N,unconnected-(U2-SEG11-Pad23)*%
X58700000Y-74220000D03*
%TO.N,unconnected-(U2-SEG7-Pad19)*%
X58500000Y-72220000D03*
%TO.N,COM2*%
X52080000Y-76600000D03*
%TD*%
D43*
%TO.N,V_BUS_3V*%
X40372500Y-75000000D02*
X40372500Y-75772500D01*
X32306250Y-69893750D02*
X32162500Y-69750000D01*
X48000000Y-77192500D02*
X47807500Y-77000000D01*
X32162500Y-69750000D02*
X31500000Y-69750000D01*
D44*
X41750000Y-75750000D02*
X41974002Y-75525998D01*
D43*
X40427500Y-74945000D02*
X40427500Y-73800000D01*
X38200000Y-75800000D02*
X39800000Y-75800000D01*
X40672500Y-76072500D02*
X41427500Y-76072500D01*
X37287500Y-74687500D02*
X37100000Y-74687500D01*
D44*
X27200000Y-78400000D02*
X27700000Y-77900000D01*
D43*
X45907500Y-75750000D02*
X45907500Y-75207500D01*
X47807500Y-76857500D02*
X47807500Y-77000000D01*
X48000000Y-78092500D02*
X48000000Y-77192500D01*
D44*
X29250000Y-77250000D02*
X29200000Y-77200000D01*
D43*
X37477500Y-75600000D02*
X38000000Y-75600000D01*
X32912500Y-70500000D02*
X32306250Y-69893750D01*
D44*
X27700000Y-77900000D02*
X28400000Y-77200000D01*
X26250000Y-78750000D02*
X26850000Y-78750000D01*
X26850000Y-78750000D02*
X27200000Y-78400000D01*
D43*
X38000000Y-75600000D02*
X38200000Y-75800000D01*
X37400000Y-74800000D02*
X37287500Y-74687500D01*
D44*
X29953949Y-77250000D02*
X29250000Y-77250000D01*
D43*
X45907500Y-75207500D02*
X45900000Y-75200000D01*
X37400000Y-75677500D02*
X37400000Y-74800000D01*
X40000000Y-73000000D02*
X40427500Y-73427500D01*
D44*
X41974002Y-75525998D02*
X42074000Y-75525998D01*
D43*
X39105000Y-72105000D02*
X40000000Y-73000000D01*
X40372500Y-75227500D02*
X40372500Y-75000000D01*
X41427500Y-76072500D02*
X41750000Y-75750000D01*
X45907500Y-75750000D02*
X46700000Y-75750000D01*
X39800000Y-75800000D02*
X40372500Y-75227500D01*
X40372500Y-75772500D02*
X40672500Y-76072500D01*
D44*
X28400000Y-77200000D02*
X29200000Y-77200000D01*
D43*
X37787500Y-72000000D02*
X39105000Y-72000000D01*
X40427500Y-73427500D02*
X40427500Y-73800000D01*
X46700000Y-75750000D02*
X47807500Y-76857500D01*
%TO.N,GND*%
X43372500Y-76600000D02*
X43800000Y-76600000D01*
X41972500Y-73800000D02*
X42350000Y-74177500D01*
X47400000Y-74200000D02*
X45842387Y-74200000D01*
X42350000Y-74177500D02*
X43000000Y-74177500D01*
X40250000Y-72450000D02*
X40250000Y-72050000D01*
X42172500Y-69827500D02*
X42500000Y-69500000D01*
X29250000Y-82000000D02*
X29500000Y-82250000D01*
X32592500Y-68805000D02*
X32592500Y-68500000D01*
X44050000Y-74177500D02*
X43000000Y-74177500D01*
X29454714Y-72922000D02*
X29412621Y-72922000D01*
X41627500Y-69800000D02*
X41000000Y-69800000D01*
X29007500Y-74600000D02*
X29007500Y-74925228D01*
X40700000Y-77900000D02*
X40600000Y-78000000D01*
X29007500Y-74925228D02*
X28500000Y-75432728D01*
X30500000Y-68750000D02*
X31355000Y-68750000D01*
X45592500Y-73950113D02*
X45592500Y-73600000D01*
X30342500Y-68592500D02*
X30500000Y-68750000D01*
X30250000Y-69500000D02*
X30250000Y-69000000D01*
D44*
X37877500Y-76822500D02*
X38200000Y-76500000D01*
D43*
X30250000Y-69000000D02*
X30500000Y-68750000D01*
X35600000Y-72500000D02*
X37787500Y-72500000D01*
X32750000Y-76500000D02*
X32750000Y-75923708D01*
X43200000Y-71000000D02*
X42027500Y-69827500D01*
X29250000Y-68592500D02*
X30342500Y-68592500D01*
X34028211Y-77778211D02*
X34028211Y-77881273D01*
X43800000Y-76600000D02*
X44000000Y-76800000D01*
X41600000Y-69827500D02*
X42172500Y-69827500D01*
X47400000Y-74200000D02*
X48200000Y-74200000D01*
X29500000Y-82250000D02*
X48000000Y-82250000D01*
X32750000Y-76500000D02*
X34028211Y-77778211D01*
X45400000Y-72800000D02*
X44746002Y-72146002D01*
D44*
X42799999Y-74799999D02*
X42525998Y-75074000D01*
D43*
X44746002Y-72146002D02*
X44746002Y-71999998D01*
X42800000Y-69200000D02*
X42950000Y-69200000D01*
X34028211Y-77881273D02*
X34173708Y-77735776D01*
X28500000Y-75432728D02*
X28500000Y-75750000D01*
X53200000Y-80800000D02*
X54027499Y-80800000D01*
X42027500Y-69827500D02*
X41600000Y-69827500D01*
X41572500Y-73800000D02*
X41972500Y-73800000D01*
D44*
X37400000Y-76822500D02*
X37877500Y-76822500D01*
D43*
X35936000Y-81490001D02*
X40000000Y-81490001D01*
X33600000Y-69812500D02*
X32592500Y-68805000D01*
X42799999Y-74799999D02*
X43399998Y-74200000D01*
X32592500Y-68500000D02*
X31605000Y-68500000D01*
X34173708Y-77500000D02*
X34461854Y-77211854D01*
X39005000Y-74595000D02*
X39005000Y-75000000D01*
X32750000Y-75923708D02*
X32961854Y-75711854D01*
X29698000Y-73207379D02*
X29698000Y-73165286D01*
X45225000Y-68525000D02*
X46552500Y-68525000D01*
X34173708Y-77735776D02*
X34173708Y-77500000D01*
X41000000Y-69800000D02*
X40849804Y-69950196D01*
X45592500Y-72992500D02*
X45400000Y-72800000D01*
X29698000Y-73165286D02*
X29454714Y-72922000D01*
X29412621Y-72922000D02*
X29388621Y-72898000D01*
X29737266Y-73246645D02*
X29698000Y-73207379D01*
X29388621Y-72898000D02*
X29047000Y-72898000D01*
X40700000Y-77000000D02*
X40700000Y-77900000D01*
X39400000Y-74200000D02*
X39005000Y-74595000D01*
X54027499Y-80800000D02*
X54400000Y-80427499D01*
X45842387Y-74200000D02*
X45592500Y-73950113D01*
X42500000Y-69500000D02*
X42800000Y-69200000D01*
X45592500Y-73600000D02*
X45592500Y-72992500D01*
X43399998Y-74200000D02*
X44027500Y-74200000D01*
X43200000Y-71499999D02*
X43200000Y-71000000D01*
X48000000Y-81322500D02*
X48000000Y-82250000D01*
X40400000Y-72600000D02*
X40250000Y-72450000D01*
X44000000Y-76800000D02*
X44200000Y-76600000D01*
X44200000Y-76600000D02*
X44477500Y-76600000D01*
X42950000Y-69200000D02*
X42975000Y-69175000D01*
X36600000Y-74687500D02*
X36600000Y-73500000D01*
X42975000Y-69175000D02*
X43175000Y-69175000D01*
%TO.N,Net-(U3-SCL)*%
X50240000Y-81600000D02*
X51800000Y-81600000D01*
%TO.N,SDA_1*%
X50400000Y-78200000D02*
X50400000Y-77840000D01*
X50028500Y-79971500D02*
X50200000Y-79800000D01*
X50200000Y-79800000D02*
X50600000Y-79800000D01*
X50582521Y-78374000D02*
X50574000Y-78374000D01*
X50876000Y-79124000D02*
X50876000Y-78667479D01*
X50000000Y-80600000D02*
X49800000Y-80400000D01*
X50876000Y-78667479D02*
X50582521Y-78374000D01*
X32912500Y-72000000D02*
X32000000Y-72000000D01*
X50600000Y-79400000D02*
X50876000Y-79124000D01*
X50000000Y-80750000D02*
X50000000Y-80600000D01*
X49800000Y-80400000D02*
X49800000Y-80007500D01*
X32000000Y-72000000D02*
X31750000Y-71750000D01*
X49836000Y-79971500D02*
X50028500Y-79971500D01*
X50574000Y-78374000D02*
X50400000Y-78200000D01*
X50600000Y-79800000D02*
X50600000Y-79400000D01*
%TO.N,SCL_1*%
X50546446Y-75800000D02*
X50546446Y-75346446D01*
X32208521Y-71500000D02*
X31958521Y-71250000D01*
X50326000Y-78795774D02*
X50326000Y-78875000D01*
X49600000Y-78069774D02*
X50326000Y-78795774D01*
X48695000Y-81250000D02*
X49000000Y-80945000D01*
X50546446Y-75346446D02*
X51200000Y-74692892D01*
X31958521Y-71250000D02*
X31500000Y-71250000D01*
X32912500Y-71500000D02*
X32208521Y-71500000D01*
X50326000Y-78875000D02*
X50375000Y-78875000D01*
X51200000Y-74692892D02*
X51200000Y-70600000D01*
X49600000Y-77840000D02*
X49600000Y-78069774D01*
X49045000Y-81600000D02*
X49425000Y-81600000D01*
X48695000Y-81250000D02*
X49045000Y-81600000D01*
X49000000Y-80945000D02*
X49000000Y-80607500D01*
%TO.N,CS_1*%
X37800000Y-69532502D02*
X37532502Y-69800000D01*
X37532502Y-69800000D02*
X37112500Y-69800000D01*
X37112500Y-69800000D02*
X37100000Y-69812500D01*
X40706777Y-69303223D02*
X40992500Y-69017500D01*
X40992500Y-69017500D02*
X40992500Y-68800000D01*
%TO.N,CS_2*%
X36874846Y-69049000D02*
X36600000Y-69323846D01*
X36874846Y-69038535D02*
X36874846Y-69049000D01*
X47500000Y-69725000D02*
X48355226Y-69725000D01*
X36868813Y-69032502D02*
X36874846Y-69038535D01*
X48651000Y-70020774D02*
X48651000Y-70579226D01*
X36600000Y-69323846D02*
X36600000Y-69600000D01*
X48355226Y-69725000D02*
X48651000Y-70020774D01*
X48651000Y-70579226D02*
X48180226Y-71050000D01*
%TO.N,V_USB*%
X28080000Y-69990000D02*
X26599000Y-69990000D01*
X31000000Y-75400000D02*
X32400000Y-74000000D01*
X26599000Y-74790000D02*
X26025364Y-74790000D01*
X26025364Y-74790000D02*
X24800000Y-73564636D01*
X28448000Y-69850000D02*
X28448000Y-68733500D01*
X30398000Y-72898000D02*
X30897000Y-72898000D01*
X24800000Y-71215364D02*
X26025364Y-69990000D01*
X28308000Y-69990000D02*
X28448000Y-69850000D01*
X24800000Y-73564636D02*
X24800000Y-71215364D01*
X30125000Y-72625000D02*
X30398000Y-72898000D01*
X26025364Y-69990000D02*
X26599000Y-69990000D01*
X32400000Y-74000000D02*
X32912500Y-74000000D01*
X28080000Y-69990000D02*
X28308000Y-69990000D01*
%TO.N,Net-(J2-CC2)*%
X27557500Y-74140000D02*
X28017500Y-74600000D01*
X26599000Y-74140000D02*
X27557500Y-74140000D01*
%TO.N,Net-(J2-CC1)*%
X27384000Y-71116000D02*
X27750000Y-70750000D01*
X29250000Y-70000000D02*
X29250000Y-69407500D01*
X26623000Y-71116000D02*
X27384000Y-71116000D01*
X28500000Y-70750000D02*
X29250000Y-70000000D01*
X27750000Y-70750000D02*
X28500000Y-70750000D01*
%TO.N,Net-(U3-SDA)*%
X51015000Y-80615000D02*
X51200000Y-80800000D01*
X51200000Y-80800000D02*
X51800000Y-80800000D01*
X50600000Y-80615000D02*
X51015000Y-80615000D01*
%TO.N,BTN_1*%
X38837810Y-71200000D02*
X39000000Y-71200000D01*
X38586810Y-71451000D02*
X38837810Y-71200000D01*
X40000000Y-80009999D02*
X35936000Y-80009999D01*
X38515379Y-71515379D02*
X38579758Y-71451000D01*
X37787500Y-71500000D02*
X38500000Y-71500000D01*
X38579758Y-71451000D02*
X38586810Y-71451000D01*
X38500000Y-71500000D02*
X38515379Y-71515379D01*
X40000000Y-80000000D02*
X40700000Y-79300000D01*
%TO.N,BTN_2*%
X42407200Y-80009999D02*
X46471200Y-80009999D01*
X39000000Y-70600000D02*
X38800000Y-70600000D01*
X42407200Y-79407200D02*
X42200000Y-79200000D01*
X42407200Y-80009999D02*
X42407200Y-79407200D01*
X38400000Y-71000000D02*
X37787500Y-71000000D01*
X38800000Y-70600000D02*
X38400000Y-71000000D01*
%TO.N,Net-(U5-SDO)*%
X36007500Y-67000000D02*
X42200000Y-67000000D01*
X42200000Y-67000000D02*
X42574000Y-66626000D01*
X42574000Y-66626000D02*
X44626000Y-66626000D01*
X44626000Y-66626000D02*
X45225000Y-67225000D01*
%TO.N,SWDIO*%
X30500000Y-76000001D02*
X30851974Y-76351975D01*
X31887810Y-73500000D02*
X30500000Y-74887810D01*
X30500000Y-74887810D02*
X30500000Y-76000001D01*
X32912500Y-73500000D02*
X31887810Y-73500000D01*
%TO.N,SWCLK*%
X33600000Y-74687500D02*
X32562500Y-74687500D01*
X32562500Y-74687500D02*
X31750000Y-75500000D01*
X31750000Y-75500000D02*
X31750000Y-77250000D01*
D44*
%TO.N,V_BUS_ZONE_1*%
X45225000Y-69175000D02*
X44625000Y-69175000D01*
D43*
X44677500Y-75322500D02*
X44000000Y-75322500D01*
X44677500Y-75322500D02*
X44677500Y-75335000D01*
X50000000Y-74200000D02*
X50400000Y-74600000D01*
X54372501Y-81600000D02*
X53200000Y-81600000D01*
X42200000Y-71800000D02*
X42400000Y-71800000D01*
X49400000Y-73000000D02*
X50000000Y-72400000D01*
X42500000Y-71900000D02*
X42599998Y-71999998D01*
X49200000Y-74200000D02*
X50000000Y-74200000D01*
X42750000Y-75750000D02*
X43000000Y-75750000D01*
X49792500Y-79200000D02*
X49142500Y-79200000D01*
X42400000Y-71800000D02*
X42599998Y-71999998D01*
X42550000Y-76000000D02*
X42750000Y-75800000D01*
X42599998Y-71999998D02*
X43462699Y-71999998D01*
X47000000Y-67400000D02*
X46200000Y-67400000D01*
X43427500Y-75322500D02*
X44000000Y-75322500D01*
X42599998Y-71999998D02*
X43200000Y-71999998D01*
X50400000Y-74600000D02*
X49400000Y-73600000D01*
D44*
X42500000Y-75500000D02*
X42750000Y-75750000D01*
D43*
X42227500Y-76600000D02*
X42550000Y-76277500D01*
X42550000Y-76277500D02*
X42550000Y-76000000D01*
X42200000Y-71800000D02*
X41837810Y-71800000D01*
X49293756Y-78614959D02*
X49800000Y-79121203D01*
X47400000Y-67800000D02*
X47000000Y-67400000D01*
X49400000Y-73600000D02*
X49400000Y-73000000D01*
X46200000Y-67400000D02*
X45725000Y-67875000D01*
X41837810Y-71800000D02*
X41600000Y-71562190D01*
X49000000Y-79342500D02*
X49000000Y-79792500D01*
X43000000Y-75750000D02*
X43427500Y-75322500D01*
X49142500Y-79200000D02*
X49000000Y-79342500D01*
X44677500Y-75335000D02*
X45092500Y-75750000D01*
X50000000Y-72400000D02*
X50000000Y-70572500D01*
X41600000Y-71562190D02*
X41600000Y-70972500D01*
X43462699Y-71999998D02*
X43723001Y-72260300D01*
X55400000Y-81572501D02*
X54400000Y-81572501D01*
X45725000Y-67875000D02*
X45225000Y-67875000D01*
D44*
X44625000Y-69175000D02*
X44600000Y-69200000D01*
%TO.N,CONTROL_ZONE_1*%
X42099998Y-75099998D02*
X41750000Y-74750000D01*
D43*
X35600000Y-76005084D02*
X35600000Y-74687500D01*
X41600000Y-74600000D02*
X41750000Y-74750000D01*
X36000000Y-76405084D02*
X35600000Y-76005084D01*
X41200000Y-74600000D02*
X41600000Y-74600000D01*
%TO.N,Net-(U5-SCK)*%
X42675000Y-67225000D02*
X43175000Y-67225000D01*
X37149000Y-67451000D02*
X42449000Y-67451000D01*
X42449000Y-67451000D02*
X42675000Y-67225000D01*
X36888146Y-67711854D02*
X37149000Y-67451000D01*
%TO.N,Net-(U5-SDI)*%
X41807500Y-68000000D02*
X42675000Y-68000000D01*
X42800000Y-67875000D02*
X43175000Y-67875000D01*
X42675000Y-68000000D02*
X42800000Y-67875000D01*
%TO.N,Net-(U5-CSB)*%
X41807500Y-68800000D02*
X42200000Y-68800000D01*
X42400000Y-68600000D02*
X43100000Y-68600000D01*
X42200000Y-68800000D02*
X42400000Y-68600000D01*
X43100000Y-68600000D02*
X43175000Y-68525000D01*
%TO.N,Net-(U8-BOOT0)*%
X36100000Y-75750000D02*
X36500000Y-76150000D01*
X37992500Y-77600000D02*
X38592500Y-78200000D01*
X36800000Y-77600000D02*
X37992500Y-77600000D01*
X36100000Y-74687500D02*
X36100000Y-75750000D01*
X36500000Y-76150000D02*
X36500000Y-77300000D01*
X36500000Y-77300000D02*
X36800000Y-77600000D01*
%TO.N,Net-(U8-PB0)*%
X34600000Y-68600000D02*
X34600000Y-69812500D01*
X30685000Y-67750000D02*
X33750000Y-67750000D01*
X33750000Y-67750000D02*
X34600000Y-68600000D01*
X30500000Y-67935000D02*
X30685000Y-67750000D01*
%TO.N,NRST*%
X39065002Y-73000000D02*
X37787500Y-73000000D01*
X31367169Y-79879025D02*
X30875000Y-79386856D01*
X39465002Y-73400000D02*
X39065002Y-73000000D01*
X30875000Y-79386856D02*
X30875000Y-78171052D01*
%TO.N,USB_D+*%
X27360000Y-73140000D02*
X26599000Y-73140000D01*
X28139500Y-72360500D02*
X28000000Y-72500000D01*
X31750000Y-72500000D02*
X31610500Y-72360500D01*
X29482500Y-72000000D02*
X30461500Y-72000000D01*
X28000000Y-72500000D02*
X27360000Y-73140000D01*
X26599000Y-72140000D02*
X27640000Y-72140000D01*
X29122000Y-72360500D02*
X28139500Y-72360500D01*
X30461500Y-72000000D02*
X30822000Y-72360500D01*
X29122000Y-72360500D02*
X29482500Y-72000000D01*
X31750000Y-72500000D02*
X32912500Y-72500000D01*
X27640000Y-72140000D02*
X28000000Y-72500000D01*
X31610500Y-72360500D02*
X30822000Y-72360500D01*
%TO.N,USB_D-*%
X30822000Y-73435500D02*
X31314500Y-73435500D01*
X27860000Y-71640000D02*
X26599000Y-71640000D01*
X28071501Y-71696554D02*
X27916554Y-71696554D01*
X25772000Y-72640000D02*
X26599000Y-72640000D01*
X30257500Y-74000000D02*
X30822000Y-73435500D01*
X28500000Y-73500000D02*
X28564500Y-73435500D01*
X29122000Y-73435500D02*
X29686500Y-74000000D01*
X25500000Y-72368000D02*
X25772000Y-72640000D01*
X25500000Y-72000000D02*
X25500000Y-72368000D01*
X28250000Y-73500000D02*
X28500000Y-73500000D01*
X31750000Y-73000000D02*
X32912500Y-73000000D01*
X28564500Y-73435500D02*
X29122000Y-73435500D01*
X26599000Y-71640000D02*
X25860000Y-71640000D01*
X29686500Y-74000000D02*
X30257500Y-74000000D01*
X27916554Y-71696554D02*
X27860000Y-71640000D01*
X25860000Y-71640000D02*
X25500000Y-72000000D01*
X31314500Y-73435500D02*
X31750000Y-73000000D01*
%TO.N,Net-(U6-SCL)*%
X49600000Y-77025000D02*
X49600000Y-76762190D01*
X49600000Y-76762190D02*
X48700000Y-75862190D01*
X48700000Y-75862190D02*
X48700000Y-75200000D01*
%TO.N,Net-(U6-SDA)*%
X49200000Y-75702274D02*
X50400000Y-76902274D01*
X49200000Y-75200000D02*
X49200000Y-75702274D01*
%TO.N,Net-(C5-Pad2)*%
X46595000Y-77000000D02*
X46992500Y-77000000D01*
X45772500Y-76750000D02*
X46345000Y-76750000D01*
X46345000Y-76750000D02*
X46595000Y-77000000D01*
%TO.N,Net-(C6-Pad2)*%
X48000000Y-80177500D02*
X48000000Y-78907500D01*
X46937499Y-81240001D02*
X48000000Y-80177500D01*
X42407200Y-81490001D02*
X46471200Y-81490001D01*
X46937499Y-81490001D02*
X46937499Y-81240001D01*
%TO.N,Net-(U6-ADDR)*%
X46407500Y-73600000D02*
X46807500Y-73200000D01*
X46807500Y-73200000D02*
X48400000Y-73200000D01*
X48400000Y-73200000D02*
X48700000Y-73500000D01*
X48700000Y-73500000D02*
X48700000Y-74200000D01*
%TO.N,HDC_DRDY*%
X33500000Y-81250000D02*
X34000000Y-80750000D01*
X48736181Y-78600000D02*
X48800000Y-78536181D01*
X31250000Y-80500000D02*
X32000000Y-81250000D01*
X48800000Y-78536181D02*
X48800000Y-77840000D01*
X32912500Y-71000000D02*
X32346331Y-71000000D01*
X32000000Y-81250000D02*
X33500000Y-81250000D01*
X32346331Y-71000000D02*
X32096331Y-70750000D01*
X32096331Y-70750000D02*
X31250000Y-70750000D01*
%TO.N,Net-(U6-DRDY{slash}INT)*%
X48800000Y-77025000D02*
X48800000Y-76600000D01*
X48200000Y-76000000D02*
X48200000Y-75200000D01*
X48800000Y-76600000D02*
X48200000Y-76000000D01*
%TO.N,Net-(U7-SDO)*%
X45600000Y-71000000D02*
X46400000Y-71800000D01*
X44746002Y-71000000D02*
X45600000Y-71000000D01*
X46400000Y-71800000D02*
X47019774Y-71800000D01*
%TO.N,Net-(U7-SCK)*%
X40896250Y-70703750D02*
X40896250Y-71496250D01*
X44223001Y-72623001D02*
X44223001Y-72260300D01*
X42600000Y-72800000D02*
X44046002Y-72800000D01*
X44046002Y-72800000D02*
X44223001Y-72623001D01*
X40896250Y-71496250D02*
X41800000Y-72400000D01*
X40000000Y-69807500D02*
X40896250Y-70703750D01*
X41800000Y-72400000D02*
X42200000Y-72400000D01*
X42200000Y-72400000D02*
X42600000Y-72800000D01*
%TO.N,Net-(U7-SDI)*%
X44746002Y-71499999D02*
X45099999Y-71499999D01*
X46950000Y-72550000D02*
X47192500Y-72550000D01*
X46000000Y-72400000D02*
X46800000Y-72400000D01*
X46800000Y-72400000D02*
X46950000Y-72550000D01*
X45099999Y-71499999D02*
X46000000Y-72400000D01*
%TO.N,Net-(U7-CSB)*%
X45800000Y-70400000D02*
X46450000Y-71050000D01*
X46450000Y-71050000D02*
X47192500Y-71050000D01*
X44223001Y-70739698D02*
X44223001Y-70540801D01*
X44223001Y-70540801D02*
X44363802Y-70400000D01*
X44363802Y-70400000D02*
X45800000Y-70400000D01*
%TO.N,Net-(U8-PB1)*%
X34100000Y-69057500D02*
X33542500Y-68500000D01*
X34100000Y-69812500D02*
X34100000Y-69057500D01*
%TO.N,SDO_1*%
X35100000Y-67092500D02*
X35192500Y-67000000D01*
X49100000Y-69357108D02*
X49071446Y-69328554D01*
X35100000Y-68456095D02*
X35100000Y-69812500D01*
X35100000Y-68456095D02*
X35100000Y-67092500D01*
X48458521Y-71800000D02*
X48007500Y-71800000D01*
X49200000Y-69469298D02*
X49200000Y-71058521D01*
X49059256Y-69328554D02*
X49200000Y-69469298D01*
X49200000Y-71058521D02*
X48458521Y-71800000D01*
X49071446Y-69328554D02*
X49059256Y-69328554D01*
%TO.N,Net-(U8-PB5)*%
X35250000Y-77576292D02*
X35038146Y-77788146D01*
X35250000Y-77000000D02*
X35250000Y-77576292D01*
X34600000Y-74687500D02*
X34600000Y-76350000D01*
X34600000Y-76350000D02*
X35250000Y-77000000D01*
%TO.N,Net-(U8-PB4)*%
X34100000Y-75557500D02*
X33538146Y-76119354D01*
X33538146Y-76119354D02*
X33538146Y-76288146D01*
X34100000Y-74687500D02*
X34100000Y-75557500D01*
%TO.N,Net-(U8-PB6)*%
X35750000Y-77507500D02*
X35750000Y-76862190D01*
X35750000Y-76862190D02*
X35100000Y-76212190D01*
X35100000Y-76212190D02*
X35100000Y-74687500D01*
X36192500Y-78200000D02*
X36000000Y-78007500D01*
X36000000Y-78007500D02*
X36000000Y-77757500D01*
X36000000Y-77757500D02*
X35750000Y-77507500D01*
%TO.N,Net-(U7-INT)*%
X46700000Y-70300000D02*
X47192500Y-70300000D01*
X46263500Y-69863500D02*
X46700000Y-70300000D01*
X45616479Y-69800000D02*
X45679979Y-69863500D01*
X45679979Y-69863500D02*
X46263500Y-69863500D01*
X43744601Y-70739698D02*
X43744601Y-70255399D01*
X44200000Y-69800000D02*
X45616479Y-69800000D01*
X43744601Y-70255399D02*
X44200000Y-69800000D01*
%TO.N,SCK_1*%
X36100000Y-68500000D02*
X36100000Y-69812500D01*
X36311854Y-68288146D02*
X36100000Y-68500000D01*
X36914309Y-68429567D02*
X37441876Y-67902000D01*
X39750000Y-68750000D02*
X39992500Y-68992500D01*
X37441876Y-67902000D02*
X39502000Y-67902000D01*
X36311854Y-68288146D02*
X36453275Y-68429567D01*
X39750000Y-68150000D02*
X39750000Y-68750000D01*
X36453275Y-68429567D02*
X36914309Y-68429567D01*
X39502000Y-67902000D02*
X39750000Y-68150000D01*
%TO.N,SDI_1*%
X40208692Y-67951000D02*
X40257692Y-68000000D01*
X40257692Y-68000000D02*
X40992500Y-68000000D01*
X48582875Y-72417125D02*
X48450000Y-72550000D01*
X48450000Y-72550000D02*
X48007500Y-72550000D01*
X48582875Y-72284290D02*
X48582875Y-72417125D01*
X35600000Y-69000000D02*
X35600000Y-69812500D01*
%TO.N,Net-(D1-PadA)*%
X40000000Y-77800000D02*
X39200000Y-77000000D01*
X37007500Y-78200000D02*
X37800000Y-78200000D01*
%TO.N,Net-(BT1-PadP)*%
X24000000Y-78750000D02*
X23750000Y-78500000D01*
X24750000Y-78750000D02*
X24000000Y-78750000D01*
%TO.N,SEG0*%
X53600000Y-69600000D02*
X53600000Y-69425000D01*
X53600000Y-69425000D02*
X51750000Y-67575000D01*
%TO.N,SEG5*%
X51750000Y-78550000D02*
X52600000Y-79400000D01*
X61000000Y-73600000D02*
X57800000Y-70400000D01*
X61000000Y-78800000D02*
X61000000Y-73600000D01*
X51750000Y-77825000D02*
X51750000Y-78550000D01*
X52600000Y-79400000D02*
X60400000Y-79400000D01*
X60400000Y-79400000D02*
X61000000Y-78800000D01*
%TO.N,~{DISP_RST}*%
X38925000Y-70025000D02*
X38262500Y-70025000D01*
X38950000Y-70000000D02*
X38925000Y-70025000D01*
X38262500Y-70025000D02*
X37787500Y-70500000D01*
%TO.N,COM2*%
X54626000Y-78949000D02*
X53349000Y-78949000D01*
X55750000Y-77825000D02*
X54626000Y-78949000D01*
X53349000Y-78949000D02*
X52800000Y-78400000D01*
X52800000Y-77320000D02*
X52080000Y-76600000D01*
X52800000Y-78400000D02*
X52800000Y-77320000D01*
%TD*%
%TA.AperFunction,Conductor*%
%TO.N,V_BUS_3V*%
G36*
X42042315Y-75413502D02*
G01*
X42099341Y-75497289D01*
X42101160Y-75501672D01*
X42120567Y-75603047D01*
X42118757Y-75611817D01*
X42113126Y-75616224D01*
X41980804Y-75665051D01*
X41971856Y-75664700D01*
X41968481Y-75662347D01*
X41842968Y-75536834D01*
X41839541Y-75528561D01*
X41842968Y-75520288D01*
X41845231Y-75518522D01*
X42026638Y-75410042D01*
X42035497Y-75408739D01*
X42042315Y-75413502D01*
G37*
%TD.AperFunction*%
%TD*%
%TA.AperFunction,Conductor*%
%TO.N,GND*%
G36*
X34705891Y-66520185D02*
G01*
X34751646Y-66572989D01*
X34761590Y-66642147D01*
X34732565Y-66705703D01*
X34726533Y-66712181D01*
X34716079Y-66722634D01*
X34669492Y-66828143D01*
X34666500Y-66853932D01*
X34666500Y-67146067D01*
X34669492Y-67171856D01*
X34716079Y-67277365D01*
X34730181Y-67291467D01*
X34763666Y-67352790D01*
X34766500Y-67379148D01*
X34766500Y-67995497D01*
X34746815Y-68062536D01*
X34694011Y-68108291D01*
X34624853Y-68118235D01*
X34561297Y-68089210D01*
X34554819Y-68083178D01*
X34028375Y-67556735D01*
X34016868Y-67545228D01*
X34016867Y-67545226D01*
X33954774Y-67483133D01*
X33906561Y-67455298D01*
X33878727Y-67439227D01*
X33878726Y-67439226D01*
X33878725Y-67439226D01*
X33824951Y-67424817D01*
X33793906Y-67416499D01*
X33706094Y-67416499D01*
X33698498Y-67416499D01*
X33698482Y-67416500D01*
X30736515Y-67416500D01*
X30728910Y-67416499D01*
X30728907Y-67416499D01*
X30704983Y-67416499D01*
X30704979Y-67416498D01*
X30672429Y-67412148D01*
X30671857Y-67411992D01*
X30646067Y-67409000D01*
X30646064Y-67409000D01*
X30353936Y-67409000D01*
X30353932Y-67409000D01*
X30328143Y-67411992D01*
X30222634Y-67458579D01*
X30141079Y-67540134D01*
X30094492Y-67645643D01*
X30091500Y-67671432D01*
X30091500Y-67951786D01*
X30090425Y-67955443D01*
X30091281Y-67959161D01*
X30080656Y-67988715D01*
X30071815Y-68018825D01*
X30068559Y-68022363D01*
X30067644Y-68024911D01*
X30042986Y-68050162D01*
X30024317Y-68064487D01*
X29959147Y-68089681D01*
X29890703Y-68075642D01*
X29850456Y-68041598D01*
X29777926Y-67947077D01*
X29652586Y-67850899D01*
X29506631Y-67790444D01*
X29450000Y-67782987D01*
X29450000Y-68392500D01*
X29956000Y-68392500D01*
X30023039Y-68412185D01*
X30068794Y-68464989D01*
X30080000Y-68516500D01*
X30080000Y-68550000D01*
X30550000Y-68550000D01*
X30563547Y-68536452D01*
X30569685Y-68515551D01*
X30619384Y-68471266D01*
X30640309Y-68461000D01*
X30646064Y-68461000D01*
X30671855Y-68458008D01*
X30777365Y-68411421D01*
X30812035Y-68376750D01*
X30830532Y-68367676D01*
X30845479Y-68365102D01*
X30858790Y-68357834D01*
X30885148Y-68355000D01*
X31645000Y-68355000D01*
X31663681Y-68336319D01*
X31725004Y-68302834D01*
X31751362Y-68300000D01*
X32468500Y-68300000D01*
X32535539Y-68319685D01*
X32581294Y-68372489D01*
X32592500Y-68424000D01*
X32592500Y-68500000D01*
X32668500Y-68500000D01*
X32735539Y-68519685D01*
X32781294Y-68572489D01*
X32792500Y-68624000D01*
X32792500Y-69199999D01*
X32849325Y-69199999D01*
X32851963Y-69199826D01*
X32852736Y-69199999D01*
X32853381Y-69199999D01*
X32853381Y-69200143D01*
X32920146Y-69215082D01*
X32969258Y-69264779D01*
X32983706Y-69333138D01*
X32983015Y-69339744D01*
X32975001Y-69400617D01*
X32975000Y-69400636D01*
X32975000Y-69687500D01*
X33476000Y-69687500D01*
X33484685Y-69690050D01*
X33493647Y-69688762D01*
X33517687Y-69699740D01*
X33543039Y-69707185D01*
X33548966Y-69714025D01*
X33557203Y-69717787D01*
X33571492Y-69740021D01*
X33588794Y-69759989D01*
X33591081Y-69770503D01*
X33594977Y-69776565D01*
X33600000Y-69811500D01*
X33600000Y-69812500D01*
X33601000Y-69812500D01*
X33668039Y-69832185D01*
X33713794Y-69884989D01*
X33725000Y-69936500D01*
X33725000Y-70195705D01*
X33705315Y-70262744D01*
X33652511Y-70308499D01*
X33583353Y-70318443D01*
X33519797Y-70289418D01*
X33497900Y-70264599D01*
X33495900Y-70261606D01*
X33475020Y-70194929D01*
X33475000Y-70192712D01*
X33475000Y-69937500D01*
X32965854Y-69937500D01*
X32924678Y-69959984D01*
X32854986Y-69955000D01*
X32810639Y-69926499D01*
X32699462Y-69815322D01*
X32667368Y-69759733D01*
X32663615Y-69745725D01*
X32613126Y-69658276D01*
X32541724Y-69586874D01*
X32483919Y-69553500D01*
X32454274Y-69536384D01*
X32454271Y-69536383D01*
X32440264Y-69532630D01*
X32400925Y-69514213D01*
X32392216Y-69508075D01*
X32367274Y-69483133D01*
X32314342Y-69452573D01*
X32291227Y-69439227D01*
X32291226Y-69439226D01*
X32291225Y-69439226D01*
X32289610Y-69438557D01*
X32288457Y-69437628D01*
X32284188Y-69435163D01*
X32284572Y-69434496D01*
X32235210Y-69394712D01*
X32213150Y-69328416D01*
X32230434Y-69260718D01*
X32281575Y-69213111D01*
X32337070Y-69199999D01*
X32392500Y-69199998D01*
X32392500Y-68855000D01*
X31330000Y-68855000D01*
X31317944Y-68867055D01*
X31310315Y-68893039D01*
X31257511Y-68938794D01*
X31206000Y-68950000D01*
X30700000Y-68950000D01*
X30700000Y-69559510D01*
X30700001Y-69559511D01*
X30756627Y-69552057D01*
X30756633Y-69552055D01*
X30800046Y-69534073D01*
X30869515Y-69526603D01*
X30931995Y-69557877D01*
X30967648Y-69617965D01*
X30971500Y-69648633D01*
X30971500Y-70007469D01*
X30981936Y-70079100D01*
X31035951Y-70189589D01*
X31074575Y-70228213D01*
X31108060Y-70289536D01*
X31103076Y-70359228D01*
X31061204Y-70415161D01*
X31048895Y-70423280D01*
X31014532Y-70443119D01*
X31014523Y-70443126D01*
X30943126Y-70514523D01*
X30943124Y-70514526D01*
X30892635Y-70601975D01*
X30866500Y-70699511D01*
X30866500Y-70800489D01*
X30892635Y-70898025D01*
X30943124Y-70985474D01*
X31014526Y-71056876D01*
X31054994Y-71080240D01*
X31103209Y-71130807D01*
X31114885Y-71191384D01*
X31116500Y-71191384D01*
X31116500Y-71199511D01*
X31116500Y-71300489D01*
X31142635Y-71398025D01*
X31193124Y-71485474D01*
X31264526Y-71556876D01*
X31304994Y-71580240D01*
X31353209Y-71630807D01*
X31366317Y-71674686D01*
X31368240Y-71693015D01*
X31366500Y-71699511D01*
X31366500Y-71800489D01*
X31387897Y-71880345D01*
X31388917Y-71890059D01*
X31384314Y-71915202D01*
X31383706Y-71940756D01*
X31378127Y-71948997D01*
X31376336Y-71958787D01*
X31358870Y-71977450D01*
X31344544Y-71998619D01*
X31335396Y-72002536D01*
X31328596Y-72009803D01*
X31303811Y-72016061D01*
X31280315Y-72026123D01*
X31265594Y-72027000D01*
X31209717Y-72027000D01*
X31159630Y-72016434D01*
X31048650Y-71967431D01*
X31048651Y-71967431D01*
X31023387Y-71964500D01*
X31023384Y-71964500D01*
X30949002Y-71964500D01*
X30919561Y-71955855D01*
X30889575Y-71949332D01*
X30884559Y-71945577D01*
X30881963Y-71944815D01*
X30861321Y-71928181D01*
X30735437Y-71802297D01*
X30735435Y-71802294D01*
X30666275Y-71733134D01*
X30666270Y-71733130D01*
X30600619Y-71695227D01*
X30600618Y-71695226D01*
X30590228Y-71689227D01*
X30517751Y-71669807D01*
X30505406Y-71666499D01*
X30417594Y-71666499D01*
X30409998Y-71666499D01*
X30409982Y-71666500D01*
X29534018Y-71666500D01*
X29534002Y-71666499D01*
X29526406Y-71666499D01*
X29438594Y-71666499D01*
X29353771Y-71689227D01*
X29343382Y-71695226D01*
X29343380Y-71695227D01*
X29277729Y-71733130D01*
X29277724Y-71733134D01*
X29215631Y-71795227D01*
X29215631Y-71795228D01*
X29082677Y-71928182D01*
X29021357Y-71961666D01*
X28994998Y-71964500D01*
X28920612Y-71964500D01*
X28895349Y-71967431D01*
X28784370Y-72016434D01*
X28774653Y-72018483D01*
X28769218Y-72021977D01*
X28734283Y-72027000D01*
X28538320Y-72027000D01*
X28471281Y-72007315D01*
X28425526Y-71954511D01*
X28415582Y-71885353D01*
X28426925Y-71852578D01*
X28425754Y-71852093D01*
X28428864Y-71844583D01*
X28428864Y-71844581D01*
X28428866Y-71844579D01*
X28455001Y-71747043D01*
X28455001Y-71646065D01*
X28428866Y-71548529D01*
X28378377Y-71461080D01*
X28306975Y-71389678D01*
X28219526Y-71339189D01*
X28175059Y-71327274D01*
X28158604Y-71317243D01*
X28140116Y-71311815D01*
X28129389Y-71299435D01*
X28115401Y-71290909D01*
X28106980Y-71273574D01*
X28094361Y-71259011D01*
X28092029Y-71242796D01*
X28084872Y-71228062D01*
X28087159Y-71208928D01*
X28084417Y-71189853D01*
X28091222Y-71174951D01*
X28093167Y-71158687D01*
X28105436Y-71143827D01*
X28113442Y-71126297D01*
X28127222Y-71117441D01*
X28137652Y-71104809D01*
X28156008Y-71098941D01*
X28172220Y-71088523D01*
X28201992Y-71084242D01*
X28204205Y-71083535D01*
X28207155Y-71083500D01*
X28448482Y-71083500D01*
X28448498Y-71083501D01*
X28456094Y-71083501D01*
X28543904Y-71083501D01*
X28543906Y-71083501D01*
X28628727Y-71060773D01*
X28657941Y-71043906D01*
X28704774Y-71016867D01*
X28766867Y-70954774D01*
X28766868Y-70954771D01*
X29444564Y-70277075D01*
X29444569Y-70277071D01*
X29454772Y-70266867D01*
X29454774Y-70266867D01*
X29516867Y-70204774D01*
X29549631Y-70148025D01*
X29560773Y-70128727D01*
X29583500Y-70043907D01*
X29583500Y-69956094D01*
X29583500Y-69877872D01*
X29603185Y-69810833D01*
X29605202Y-69807793D01*
X29608918Y-69802367D01*
X29608921Y-69802365D01*
X29655508Y-69696855D01*
X29658500Y-69671064D01*
X29658500Y-69390712D01*
X29659573Y-69387055D01*
X29658719Y-69383341D01*
X29669342Y-69353788D01*
X29678185Y-69323673D01*
X29681438Y-69320136D01*
X29682354Y-69317590D01*
X29707012Y-69292338D01*
X29725680Y-69278013D01*
X29790849Y-69252817D01*
X29859294Y-69266854D01*
X29899544Y-69300900D01*
X29972075Y-69395424D01*
X30097414Y-69491600D01*
X30243366Y-69552055D01*
X30243372Y-69552057D01*
X30299998Y-69559511D01*
X30300000Y-69559510D01*
X30300000Y-68950000D01*
X29794000Y-68950000D01*
X29726961Y-68930315D01*
X29681206Y-68877511D01*
X29670000Y-68826000D01*
X29670000Y-68792500D01*
X29374000Y-68792500D01*
X29306961Y-68772815D01*
X29261206Y-68720011D01*
X29250000Y-68668500D01*
X29250000Y-68592500D01*
X29174000Y-68592500D01*
X29106961Y-68572815D01*
X29061206Y-68520011D01*
X29050000Y-68468500D01*
X29050000Y-67782987D01*
X29049999Y-67782987D01*
X28996686Y-67790007D01*
X28927651Y-67779242D01*
X28875395Y-67732862D01*
X28856500Y-67667068D01*
X28856500Y-67486438D01*
X28856500Y-67486436D01*
X28853508Y-67460645D01*
X28806921Y-67355135D01*
X28725365Y-67273579D01*
X28698412Y-67261678D01*
X28619856Y-67226992D01*
X28619857Y-67226992D01*
X28594067Y-67224000D01*
X28594064Y-67224000D01*
X28301936Y-67224000D01*
X28301932Y-67224000D01*
X28276143Y-67226992D01*
X28170634Y-67273579D01*
X28089079Y-67355134D01*
X28042492Y-67460643D01*
X28039500Y-67486432D01*
X28039500Y-68013567D01*
X28041465Y-68030504D01*
X28042492Y-68039355D01*
X28056261Y-68070540D01*
X28072543Y-68107414D01*
X28081614Y-68176692D01*
X28072543Y-68207586D01*
X28042492Y-68275644D01*
X28039500Y-68301432D01*
X28039500Y-68828567D01*
X28042492Y-68854356D01*
X28089078Y-68959864D01*
X28092798Y-68965293D01*
X28114446Y-69031725D01*
X28114500Y-69035372D01*
X28114500Y-69488579D01*
X28107614Y-69512029D01*
X28104940Y-69536322D01*
X28097945Y-69544956D01*
X28094815Y-69555618D01*
X28076347Y-69571620D01*
X28060962Y-69590614D01*
X28046951Y-69597091D01*
X28042011Y-69601373D01*
X28029361Y-69606332D01*
X28026006Y-69607438D01*
X27931975Y-69632635D01*
X27908378Y-69646258D01*
X27896275Y-69650253D01*
X27878529Y-69650841D01*
X27857414Y-69656500D01*
X27798000Y-69656500D01*
X27730961Y-69636815D01*
X27685206Y-69584011D01*
X27674000Y-69532500D01*
X27674000Y-69440000D01*
X26723000Y-69440000D01*
X26655961Y-69420315D01*
X26610206Y-69367511D01*
X26599000Y-69316000D01*
X26599000Y-69064000D01*
X26618685Y-68996961D01*
X26671489Y-68951206D01*
X26723000Y-68940000D01*
X27674000Y-68940000D01*
X27674000Y-68842172D01*
X27673999Y-68842155D01*
X27667598Y-68782627D01*
X27667596Y-68782620D01*
X27617354Y-68647913D01*
X27617352Y-68647910D01*
X27530694Y-68532151D01*
X27506276Y-68466687D01*
X27515400Y-68410385D01*
X27535568Y-68361696D01*
X27535569Y-68361691D01*
X27543862Y-68320000D01*
X26740988Y-68320000D01*
X26758205Y-68310060D01*
X26814060Y-68254205D01*
X26853556Y-68185796D01*
X26874000Y-68109496D01*
X26874000Y-68030504D01*
X26853556Y-67954204D01*
X26814060Y-67885795D01*
X26758205Y-67829940D01*
X26740988Y-67820000D01*
X27543862Y-67820000D01*
X27535569Y-67778309D01*
X27535569Y-67778307D01*
X27460192Y-67596328D01*
X27460185Y-67596315D01*
X27350751Y-67432537D01*
X27350748Y-67432533D01*
X27211466Y-67293251D01*
X27211462Y-67293248D01*
X27047684Y-67183814D01*
X27047671Y-67183807D01*
X26865693Y-67108430D01*
X26865681Y-67108427D01*
X26672495Y-67070000D01*
X26274000Y-67070000D01*
X26274000Y-67770000D01*
X25774000Y-67770000D01*
X25774000Y-67070000D01*
X25375504Y-67070000D01*
X25182318Y-67108427D01*
X25182306Y-67108430D01*
X25000328Y-67183807D01*
X25000315Y-67183814D01*
X24836537Y-67293248D01*
X24836533Y-67293251D01*
X24697251Y-67432533D01*
X24697248Y-67432537D01*
X24587814Y-67596315D01*
X24587807Y-67596328D01*
X24512430Y-67778307D01*
X24512430Y-67778309D01*
X24504138Y-67820000D01*
X25307012Y-67820000D01*
X25289795Y-67829940D01*
X25233940Y-67885795D01*
X25194444Y-67954204D01*
X25174000Y-68030504D01*
X25174000Y-68109496D01*
X25194444Y-68185796D01*
X25233940Y-68254205D01*
X25289795Y-68310060D01*
X25307012Y-68320000D01*
X24504138Y-68320000D01*
X24512430Y-68361690D01*
X24512430Y-68361692D01*
X24587807Y-68543671D01*
X24587814Y-68543684D01*
X24697248Y-68707462D01*
X24697251Y-68707466D01*
X24836533Y-68846748D01*
X24836537Y-68846751D01*
X25000315Y-68956185D01*
X25000328Y-68956192D01*
X25009838Y-68960131D01*
X25064243Y-69003970D01*
X25086310Y-69070264D01*
X25069033Y-69137963D01*
X25065350Y-69143405D01*
X25063485Y-69146634D01*
X25063485Y-69146635D01*
X25061825Y-69149511D01*
X24987719Y-69277863D01*
X24954993Y-69400000D01*
X24948500Y-69424234D01*
X24948500Y-69575766D01*
X24959415Y-69616500D01*
X24987719Y-69722136D01*
X25015263Y-69769843D01*
X25063485Y-69853365D01*
X25170635Y-69960515D01*
X25292247Y-70030728D01*
X25340462Y-70081295D01*
X25353684Y-70149903D01*
X25327716Y-70214767D01*
X25317927Y-70225796D01*
X24533135Y-71010587D01*
X24533131Y-71010593D01*
X24513898Y-71043906D01*
X24513897Y-71043907D01*
X24489229Y-71086631D01*
X24489228Y-71086632D01*
X24488543Y-71089190D01*
X24466499Y-71171458D01*
X24466499Y-71171460D01*
X24466499Y-71269259D01*
X24466500Y-71269272D01*
X24466500Y-73513117D01*
X24466499Y-73513135D01*
X24466499Y-73520730D01*
X24466499Y-73608542D01*
X24473716Y-73635476D01*
X24489227Y-73693364D01*
X24489227Y-73693365D01*
X24493506Y-73700775D01*
X24501842Y-73715212D01*
X24533133Y-73769410D01*
X24595226Y-73831503D01*
X24595228Y-73831504D01*
X24606989Y-73843265D01*
X25317927Y-74554203D01*
X25351412Y-74615526D01*
X25346428Y-74685218D01*
X25304556Y-74741151D01*
X25292247Y-74749270D01*
X25170641Y-74819481D01*
X25170632Y-74819487D01*
X25063487Y-74926632D01*
X25063485Y-74926635D01*
X24987719Y-75057863D01*
X24953563Y-75185338D01*
X24948500Y-75204234D01*
X24948500Y-75355766D01*
X24965719Y-75420029D01*
X24987719Y-75502136D01*
X25015073Y-75549513D01*
X25063485Y-75633365D01*
X25063486Y-75633366D01*
X25067549Y-75640403D01*
X25065346Y-75641674D01*
X25085959Y-75694983D01*
X25071923Y-75763428D01*
X25023112Y-75813420D01*
X25009845Y-75819866D01*
X25000324Y-75823809D01*
X25000315Y-75823814D01*
X24836537Y-75933248D01*
X24836533Y-75933251D01*
X24697251Y-76072533D01*
X24697248Y-76072537D01*
X24587814Y-76236315D01*
X24587807Y-76236328D01*
X24512430Y-76418307D01*
X24512430Y-76418309D01*
X24504138Y-76460000D01*
X25307012Y-76460000D01*
X25289795Y-76469940D01*
X25233940Y-76525795D01*
X25194444Y-76594204D01*
X25174000Y-76670504D01*
X25174000Y-76749496D01*
X25194444Y-76825796D01*
X25233940Y-76894205D01*
X25289795Y-76950060D01*
X25307012Y-76960000D01*
X24504138Y-76960000D01*
X24512430Y-77001690D01*
X24512430Y-77001692D01*
X24587807Y-77183671D01*
X24587814Y-77183684D01*
X24697248Y-77347462D01*
X24697251Y-77347466D01*
X24836533Y-77486748D01*
X24836537Y-77486751D01*
X24953790Y-77565098D01*
X24998595Y-77618710D01*
X25007302Y-77688035D01*
X24977147Y-77751063D01*
X24917704Y-77787782D01*
X24884899Y-77792200D01*
X24373865Y-77792200D01*
X24313046Y-77804297D01*
X24244079Y-77850379D01*
X24197996Y-77919347D01*
X24197995Y-77919348D01*
X24185900Y-77980158D01*
X24185900Y-78095469D01*
X24166215Y-78162508D01*
X24113411Y-78208263D01*
X24044253Y-78218207D01*
X23992871Y-78196565D01*
X23992512Y-78197188D01*
X23987553Y-78194324D01*
X23986416Y-78193846D01*
X23985481Y-78193128D01*
X23968805Y-78183500D01*
X23898025Y-78142635D01*
X23800489Y-78116500D01*
X23699511Y-78116500D01*
X23601975Y-78142635D01*
X23601973Y-78142635D01*
X23601973Y-78142636D01*
X23514526Y-78193124D01*
X23514523Y-78193126D01*
X23443126Y-78264523D01*
X23443124Y-78264526D01*
X23393998Y-78349615D01*
X23392635Y-78351975D01*
X23366500Y-78449511D01*
X23366500Y-78550489D01*
X23392635Y-78648025D01*
X23443124Y-78735474D01*
X23514526Y-78806876D01*
X23601975Y-78857365D01*
X23615984Y-78861118D01*
X23629869Y-78869135D01*
X23643318Y-78872061D01*
X23671572Y-78893212D01*
X23728792Y-78950432D01*
X23728802Y-78950443D01*
X23795227Y-79016868D01*
X23856035Y-79051975D01*
X23871274Y-79060773D01*
X23928413Y-79076083D01*
X23956093Y-79083500D01*
X23956094Y-79083500D01*
X24066262Y-79083500D01*
X24070599Y-79083805D01*
X24099435Y-79094521D01*
X24128940Y-79103185D01*
X24131880Y-79106579D01*
X24136092Y-79108144D01*
X24154558Y-79132750D01*
X24174695Y-79155989D01*
X24175795Y-79161048D01*
X24178031Y-79164027D01*
X24178828Y-79174988D01*
X24185901Y-79207500D01*
X24185901Y-79519836D01*
X24189203Y-79536436D01*
X24197997Y-79580653D01*
X24244079Y-79649620D01*
X24313047Y-79695703D01*
X24313048Y-79695704D01*
X24353497Y-79703749D01*
X24373863Y-79707800D01*
X24973269Y-79707799D01*
X25040308Y-79727483D01*
X25086063Y-79780287D01*
X25096007Y-79849446D01*
X25066982Y-79913002D01*
X25042162Y-79934899D01*
X25040777Y-79935824D01*
X25040768Y-79935831D01*
X24940431Y-80036168D01*
X24940428Y-80036172D01*
X24861593Y-80154156D01*
X24861588Y-80154166D01*
X24807284Y-80285266D01*
X24807282Y-80285274D01*
X24779600Y-80424442D01*
X24779600Y-80566357D01*
X24807282Y-80705525D01*
X24807284Y-80705533D01*
X24861588Y-80836633D01*
X24861593Y-80836643D01*
X24940428Y-80954627D01*
X24940431Y-80954631D01*
X25040768Y-81054968D01*
X25040772Y-81054971D01*
X25158756Y-81133806D01*
X25158760Y-81133808D01*
X25158763Y-81133810D01*
X25289867Y-81188116D01*
X25425709Y-81215136D01*
X25429042Y-81215799D01*
X25429046Y-81215800D01*
X25429047Y-81215800D01*
X25570954Y-81215800D01*
X25570955Y-81215799D01*
X25710133Y-81188116D01*
X25841237Y-81133810D01*
X25857330Y-81123057D01*
X26946180Y-81123057D01*
X26946180Y-81976933D01*
X26958277Y-82037752D01*
X27004359Y-82106719D01*
X27073327Y-82152802D01*
X27073328Y-82152803D01*
X27113777Y-82160848D01*
X27134143Y-82164899D01*
X28165816Y-82164898D01*
X28226633Y-82152802D01*
X28295600Y-82106719D01*
X28341683Y-82037752D01*
X28341683Y-82037750D01*
X28341684Y-82037750D01*
X28353779Y-81976940D01*
X28353780Y-81976936D01*
X28353779Y-81779121D01*
X28373463Y-81712084D01*
X28426267Y-81666329D01*
X28495425Y-81656385D01*
X28558981Y-81685410D01*
X28588287Y-81726042D01*
X28589368Y-81725492D01*
X28680905Y-81905145D01*
X28706319Y-81940125D01*
X28706320Y-81940125D01*
X29396446Y-81250000D01*
X29396446Y-81249999D01*
X28706320Y-80559872D01*
X28706320Y-80559873D01*
X28680902Y-80594859D01*
X28680899Y-80594863D01*
X28591582Y-80770161D01*
X28530778Y-80957293D01*
X28530665Y-80958010D01*
X28530546Y-80958260D01*
X28529641Y-80962031D01*
X28528848Y-80961840D01*
X28500726Y-81021140D01*
X28441409Y-81058063D01*
X28371546Y-81057055D01*
X28313319Y-81018436D01*
X28305091Y-81007483D01*
X28295600Y-80993278D01*
X28226632Y-80947195D01*
X28226631Y-80947194D01*
X28165819Y-80935099D01*
X27134145Y-80935099D01*
X27073326Y-80947196D01*
X27004359Y-80993278D01*
X26958276Y-81062246D01*
X26958275Y-81062247D01*
X26946180Y-81123057D01*
X25857330Y-81123057D01*
X25959228Y-81054971D01*
X25968248Y-81045951D01*
X25984911Y-81029289D01*
X26059568Y-80954631D01*
X26059571Y-80954628D01*
X26138410Y-80836637D01*
X26192716Y-80705533D01*
X26220400Y-80566353D01*
X26220400Y-80424447D01*
X26215332Y-80398966D01*
X26192718Y-80285276D01*
X26192717Y-80285274D01*
X26192716Y-80285267D01*
X26160015Y-80206320D01*
X29059872Y-80206320D01*
X29750000Y-80896446D01*
X29750001Y-80896446D01*
X30440125Y-80206320D01*
X30440125Y-80206319D01*
X30405145Y-80180905D01*
X30229835Y-80091581D01*
X30042705Y-80030778D01*
X29848382Y-80000000D01*
X29651618Y-80000000D01*
X29457294Y-80030778D01*
X29270161Y-80091582D01*
X29094863Y-80180899D01*
X29094859Y-80180902D01*
X29059873Y-80206320D01*
X29059872Y-80206320D01*
X26160015Y-80206320D01*
X26138410Y-80154163D01*
X26138408Y-80154160D01*
X26138406Y-80154156D01*
X26059571Y-80036172D01*
X26059568Y-80036168D01*
X25959231Y-79935831D01*
X25959222Y-79935824D01*
X25957838Y-79934899D01*
X25957276Y-79934227D01*
X25954520Y-79931965D01*
X25954949Y-79931442D01*
X25913034Y-79881286D01*
X25904328Y-79811961D01*
X25934485Y-79748934D01*
X25993928Y-79712216D01*
X26026725Y-79707799D01*
X26626136Y-79707799D01*
X26686953Y-79695703D01*
X26753311Y-79651362D01*
X26819986Y-79630486D01*
X26887366Y-79648970D01*
X26934056Y-79700948D01*
X26946200Y-79754465D01*
X26946200Y-79876935D01*
X26958297Y-79937754D01*
X27004379Y-80006721D01*
X27073347Y-80052804D01*
X27073348Y-80052805D01*
X27113797Y-80060850D01*
X27134163Y-80064901D01*
X28165836Y-80064900D01*
X28226653Y-80052804D01*
X28295620Y-80006721D01*
X28341703Y-79937754D01*
X28341703Y-79937752D01*
X28341704Y-79937752D01*
X28353799Y-79876942D01*
X28353800Y-79876938D01*
X28353799Y-79023065D01*
X28341703Y-78962248D01*
X28311135Y-78916500D01*
X28295620Y-78893280D01*
X28226652Y-78847197D01*
X28226651Y-78847196D01*
X28165841Y-78835101D01*
X28165837Y-78835101D01*
X27605144Y-78835101D01*
X27538105Y-78815416D01*
X27492350Y-78762612D01*
X27482406Y-78693454D01*
X27492442Y-78659388D01*
X27500480Y-78641869D01*
X27506876Y-78635474D01*
X27557365Y-78548025D01*
X27576769Y-78475606D01*
X27581132Y-78466098D01*
X27593791Y-78451540D01*
X27606151Y-78430132D01*
X27730132Y-78306151D01*
X27785717Y-78274060D01*
X27848025Y-78257365D01*
X27935474Y-78206876D01*
X28006876Y-78135474D01*
X28057365Y-78048025D01*
X28074060Y-77985717D01*
X28106151Y-77930132D01*
X28491466Y-77544819D01*
X28552789Y-77511334D01*
X28579147Y-77508500D01*
X28934113Y-77508500D01*
X28996112Y-77525112D01*
X29051975Y-77557365D01*
X29149511Y-77583500D01*
X29149514Y-77583500D01*
X29250487Y-77583500D01*
X29250489Y-77583500D01*
X29321300Y-77564526D01*
X29328022Y-77562725D01*
X29360115Y-77558500D01*
X29365110Y-77558500D01*
X29432149Y-77578185D01*
X29466266Y-77613966D01*
X29467121Y-77613310D01*
X29472067Y-77619756D01*
X29472069Y-77619759D01*
X29584190Y-77731880D01*
X29584191Y-77731881D01*
X29584193Y-77731882D01*
X29624614Y-77755219D01*
X29721509Y-77811161D01*
X29874668Y-77852200D01*
X29874671Y-77852200D01*
X30033227Y-77852200D01*
X30033230Y-77852200D01*
X30121581Y-77828526D01*
X30191428Y-77830189D01*
X30249290Y-77869351D01*
X30276795Y-77933579D01*
X30273447Y-77980393D01*
X30249774Y-78068743D01*
X30249774Y-78068745D01*
X30249774Y-78227307D01*
X30276624Y-78327511D01*
X30290813Y-78380467D01*
X30290814Y-78380468D01*
X30370091Y-78517781D01*
X30370093Y-78517784D01*
X30370094Y-78517785D01*
X30482215Y-78629906D01*
X30482217Y-78629907D01*
X30488666Y-78634856D01*
X30487348Y-78636573D01*
X30527707Y-78678888D01*
X30541500Y-78735725D01*
X30541500Y-79335337D01*
X30541499Y-79335355D01*
X30541499Y-79342950D01*
X30541499Y-79430762D01*
X30551075Y-79466499D01*
X30564227Y-79515584D01*
X30564227Y-79515585D01*
X30568188Y-79522444D01*
X30575973Y-79535927D01*
X30608133Y-79591630D01*
X30670226Y-79653723D01*
X30670228Y-79653724D01*
X30682050Y-79665546D01*
X30973956Y-79957452D01*
X31006050Y-80013039D01*
X31009804Y-80027050D01*
X31024745Y-80052928D01*
X31041218Y-80120828D01*
X31018366Y-80186855D01*
X31005040Y-80202610D01*
X30943124Y-80264526D01*
X30894853Y-80348134D01*
X30892635Y-80351975D01*
X30890041Y-80361656D01*
X30866498Y-80449517D01*
X30866301Y-80451020D01*
X30865782Y-80452192D01*
X30864397Y-80457362D01*
X30863590Y-80457145D01*
X30838029Y-80514915D01*
X30831044Y-80522506D01*
X30103553Y-81249999D01*
X30103553Y-81250000D01*
X30793678Y-81940126D01*
X30793678Y-81940125D01*
X30819095Y-81905143D01*
X30908418Y-81729835D01*
X30969221Y-81542705D01*
X31000000Y-81348382D01*
X31000000Y-81151617D01*
X30978782Y-81017655D01*
X30987736Y-80948362D01*
X31032733Y-80894910D01*
X31099484Y-80874270D01*
X31166798Y-80892995D01*
X31188936Y-80910576D01*
X31733131Y-81454771D01*
X31733133Y-81454774D01*
X31795226Y-81516867D01*
X31843438Y-81544701D01*
X31851972Y-81549628D01*
X31851974Y-81549630D01*
X31864524Y-81556876D01*
X31871273Y-81560773D01*
X31956093Y-81583500D01*
X31956094Y-81583500D01*
X33448482Y-81583500D01*
X33448498Y-81583501D01*
X33456094Y-81583501D01*
X33543904Y-81583501D01*
X33543906Y-81583501D01*
X33628727Y-81560773D01*
X33656561Y-81544701D01*
X33704774Y-81516867D01*
X33766867Y-81454774D01*
X33766868Y-81454771D01*
X34078427Y-81143211D01*
X34132564Y-81111956D01*
X34813700Y-81111956D01*
X34813700Y-81240001D01*
X37058300Y-81240001D01*
X37058300Y-81111973D01*
X37058299Y-81111956D01*
X37051898Y-81052428D01*
X37051896Y-81052421D01*
X37001654Y-80917714D01*
X37001650Y-80917707D01*
X36915490Y-80802613D01*
X36915487Y-80802610D01*
X36800393Y-80716450D01*
X36800388Y-80716447D01*
X36749778Y-80697571D01*
X36693845Y-80655699D01*
X36669428Y-80590235D01*
X36684280Y-80521962D01*
X36690293Y-80512076D01*
X36701714Y-80495133D01*
X36708620Y-80490519D01*
X36754703Y-80421552D01*
X36756120Y-80414427D01*
X36767069Y-80398186D01*
X36784756Y-80383526D01*
X36799169Y-80365642D01*
X36811144Y-80361656D01*
X36820864Y-80353601D01*
X36843669Y-80350831D01*
X36865464Y-80343578D01*
X36869888Y-80343499D01*
X39066113Y-80343499D01*
X39133152Y-80363184D01*
X39178907Y-80415988D01*
X39180675Y-80420049D01*
X39181297Y-80421552D01*
X39227380Y-80490520D01*
X39230568Y-80493708D01*
X39264053Y-80555031D01*
X39259069Y-80624723D01*
X39217197Y-80680656D01*
X39186221Y-80697571D01*
X39135612Y-80716447D01*
X39135606Y-80716450D01*
X39020512Y-80802610D01*
X39020509Y-80802613D01*
X38934349Y-80917707D01*
X38934345Y-80917714D01*
X38884103Y-81052421D01*
X38884101Y-81052428D01*
X38877700Y-81111956D01*
X38877700Y-81240001D01*
X41122300Y-81240001D01*
X41122300Y-81111973D01*
X41122299Y-81111956D01*
X41115898Y-81052428D01*
X41115896Y-81052421D01*
X41065654Y-80917714D01*
X41065650Y-80917707D01*
X40979490Y-80802613D01*
X40979487Y-80802610D01*
X40864393Y-80716450D01*
X40864388Y-80716447D01*
X40813778Y-80697571D01*
X40757845Y-80655699D01*
X40733428Y-80590235D01*
X40748280Y-80521962D01*
X40769434Y-80493704D01*
X40772613Y-80490523D01*
X40772620Y-80490519D01*
X40818703Y-80421552D01*
X40818703Y-80421550D01*
X40818704Y-80421550D01*
X40830799Y-80360740D01*
X40830800Y-80360736D01*
X40830799Y-79738900D01*
X40850483Y-79671862D01*
X40892797Y-79631515D01*
X40935474Y-79606876D01*
X41006876Y-79535474D01*
X41057365Y-79448025D01*
X41083500Y-79350489D01*
X41083500Y-79249511D01*
X41057365Y-79151975D01*
X41006876Y-79064526D01*
X40935474Y-78993124D01*
X40848025Y-78942635D01*
X40750489Y-78916500D01*
X40649511Y-78916500D01*
X40551975Y-78942635D01*
X40551973Y-78942635D01*
X40551973Y-78942636D01*
X40464526Y-78993124D01*
X40464523Y-78993126D01*
X40393126Y-79064523D01*
X40393124Y-79064526D01*
X40342634Y-79151975D01*
X40338880Y-79165987D01*
X40306787Y-79221571D01*
X40093378Y-79434980D01*
X40032055Y-79468465D01*
X40005697Y-79471299D01*
X39357165Y-79471299D01*
X39296346Y-79483396D01*
X39227379Y-79529478D01*
X39181295Y-79598448D01*
X39180672Y-79599953D01*
X39178434Y-79602729D01*
X39174512Y-79608600D01*
X39173986Y-79608248D01*
X39136831Y-79654356D01*
X39070536Y-79676420D01*
X39066112Y-79676499D01*
X36869887Y-79676499D01*
X36802848Y-79656814D01*
X36757093Y-79604010D01*
X36755325Y-79599949D01*
X36754703Y-79598447D01*
X36754703Y-79598446D01*
X36724046Y-79552565D01*
X36708620Y-79529478D01*
X36639652Y-79483395D01*
X36639651Y-79483394D01*
X36578839Y-79471299D01*
X35293165Y-79471299D01*
X35232346Y-79483396D01*
X35163379Y-79529478D01*
X35117296Y-79598446D01*
X35117295Y-79598447D01*
X35105200Y-79659257D01*
X35105200Y-80360733D01*
X35117297Y-80421552D01*
X35163380Y-80490520D01*
X35166568Y-80493708D01*
X35200053Y-80555031D01*
X35195069Y-80624723D01*
X35153197Y-80680656D01*
X35122221Y-80697571D01*
X35071612Y-80716447D01*
X35071606Y-80716450D01*
X34956512Y-80802610D01*
X34956509Y-80802613D01*
X34870349Y-80917707D01*
X34870345Y-80917714D01*
X34820103Y-81052421D01*
X34820101Y-81052428D01*
X34813700Y-81111956D01*
X34132564Y-81111956D01*
X34134016Y-81111118D01*
X34148025Y-81107365D01*
X34235474Y-81056876D01*
X34306876Y-80985474D01*
X34357365Y-80898025D01*
X34383500Y-80800489D01*
X34383500Y-80699511D01*
X34357365Y-80601975D01*
X34306876Y-80514526D01*
X34235474Y-80443124D01*
X34148025Y-80392635D01*
X34050489Y-80366500D01*
X33949511Y-80366500D01*
X33851975Y-80392635D01*
X33851973Y-80392635D01*
X33851973Y-80392636D01*
X33764526Y-80443124D01*
X33764523Y-80443126D01*
X33693126Y-80514523D01*
X33693124Y-80514526D01*
X33642634Y-80601975D01*
X33638880Y-80615987D01*
X33606787Y-80671571D01*
X33398177Y-80880182D01*
X33336857Y-80913666D01*
X33310498Y-80916500D01*
X33029687Y-80916500D01*
X32962648Y-80896815D01*
X32916893Y-80844011D01*
X32906949Y-80774853D01*
X32935974Y-80711297D01*
X32942006Y-80704819D01*
X32957916Y-80688908D01*
X32957919Y-80688905D01*
X33039538Y-80566754D01*
X33095758Y-80431027D01*
X33124418Y-80286940D01*
X33124418Y-80140030D01*
X33095758Y-79995943D01*
X33049922Y-79885285D01*
X33039539Y-79860218D01*
X33039534Y-79860209D01*
X32957919Y-79738065D01*
X32957916Y-79738061D01*
X32854041Y-79634186D01*
X32854037Y-79634183D01*
X32731893Y-79552568D01*
X32731883Y-79552563D01*
X32654945Y-79520694D01*
X32600542Y-79476853D01*
X32578477Y-79410558D01*
X32587838Y-79358678D01*
X32609354Y-79306735D01*
X32609356Y-79306726D01*
X32611480Y-79296051D01*
X31874000Y-79296051D01*
X31865314Y-79293500D01*
X31856353Y-79294789D01*
X31832312Y-79283810D01*
X31806961Y-79276366D01*
X31801033Y-79269525D01*
X31792797Y-79265764D01*
X31778507Y-79243529D01*
X31761206Y-79223562D01*
X31758918Y-79213047D01*
X31755023Y-79206986D01*
X31750000Y-79172051D01*
X31750000Y-79097412D01*
X31769685Y-79030373D01*
X31786315Y-79009735D01*
X31963681Y-78832369D01*
X32025003Y-78798885D01*
X32051361Y-78796051D01*
X32611480Y-78796051D01*
X32611881Y-78795562D01*
X32669627Y-78756227D01*
X32677653Y-78753930D01*
X32692465Y-78750226D01*
X32727306Y-78750226D01*
X32880465Y-78709187D01*
X32898717Y-78698649D01*
X32915577Y-78694433D01*
X32933813Y-78695173D01*
X32951550Y-78690869D01*
X32967998Y-78696560D01*
X32985389Y-78697266D01*
X33000329Y-78707747D01*
X33017579Y-78713716D01*
X33028340Y-78727398D01*
X33042587Y-78737393D01*
X33049489Y-78754288D01*
X33060773Y-78768635D01*
X33065618Y-78793768D01*
X33069011Y-78802073D01*
X33068132Y-78806810D01*
X33069659Y-78814729D01*
X33069659Y-78850103D01*
X33098317Y-78994178D01*
X33098320Y-78994188D01*
X33154537Y-79129910D01*
X33154542Y-79129919D01*
X33236157Y-79252063D01*
X33236160Y-79252067D01*
X33340035Y-79355942D01*
X33340039Y-79355945D01*
X33462183Y-79437560D01*
X33462189Y-79437563D01*
X33462190Y-79437564D01*
X33597917Y-79493784D01*
X33741999Y-79522443D01*
X33742003Y-79522444D01*
X33742004Y-79522444D01*
X33888915Y-79522444D01*
X33888916Y-79522443D01*
X34033001Y-79493784D01*
X34168728Y-79437564D01*
X34290879Y-79355945D01*
X34394760Y-79252064D01*
X34476379Y-79129913D01*
X34532599Y-78994186D01*
X34561259Y-78850099D01*
X34561259Y-78703189D01*
X34532599Y-78559102D01*
X34476379Y-78423375D01*
X34476378Y-78423374D01*
X34476375Y-78423368D01*
X34394760Y-78301224D01*
X34394757Y-78301220D01*
X34331234Y-78237697D01*
X34320273Y-78217624D01*
X34305505Y-78200158D01*
X34303846Y-78187541D01*
X34297749Y-78176374D01*
X34299380Y-78153561D01*
X34296400Y-78130885D01*
X34301825Y-78119376D01*
X34302733Y-78106682D01*
X34316440Y-78088371D01*
X34326192Y-78067685D01*
X34336979Y-78060935D01*
X34344605Y-78050749D01*
X34366034Y-78042756D01*
X34385423Y-78030625D01*
X34401670Y-78029464D01*
X34410069Y-78026332D01*
X34420416Y-78026025D01*
X34651243Y-78028819D01*
X34676492Y-78036566D01*
X34702591Y-78040636D01*
X34712527Y-78047622D01*
X34718039Y-78049314D01*
X34722595Y-78054702D01*
X34737423Y-78065129D01*
X34935661Y-78263367D01*
X34956013Y-78279488D01*
X35063562Y-78321153D01*
X35063564Y-78321153D01*
X35178898Y-78321153D01*
X35178900Y-78321153D01*
X35286449Y-78279488D01*
X35306801Y-78263367D01*
X35454819Y-78115349D01*
X35516142Y-78081864D01*
X35585834Y-78086848D01*
X35641767Y-78128720D01*
X35666184Y-78194184D01*
X35666500Y-78203030D01*
X35666500Y-78346067D01*
X35669492Y-78371856D01*
X35701305Y-78443906D01*
X35716079Y-78477365D01*
X35797635Y-78558921D01*
X35903143Y-78605507D01*
X35903142Y-78605507D01*
X35903145Y-78605508D01*
X35928936Y-78608500D01*
X35928938Y-78608500D01*
X36456062Y-78608500D01*
X36456064Y-78608500D01*
X36481855Y-78605508D01*
X36549914Y-78575456D01*
X36619191Y-78566385D01*
X36650082Y-78575455D01*
X36718143Y-78605507D01*
X36718142Y-78605507D01*
X36718145Y-78605508D01*
X36743936Y-78608500D01*
X36743938Y-78608500D01*
X37271062Y-78608500D01*
X37271064Y-78608500D01*
X37296855Y-78605508D01*
X37402365Y-78558921D01*
X37402370Y-78558915D01*
X37407797Y-78555199D01*
X37426442Y-78549123D01*
X37442938Y-78538523D01*
X37471647Y-78534395D01*
X37474229Y-78533554D01*
X37477873Y-78533500D01*
X37577414Y-78533500D01*
X37639416Y-78550114D01*
X37651975Y-78557365D01*
X37749511Y-78583500D01*
X37749514Y-78583500D01*
X37850486Y-78583500D01*
X37850489Y-78583500D01*
X37948025Y-78557365D01*
X38022885Y-78514143D01*
X38090781Y-78497671D01*
X38156808Y-78520522D01*
X38172564Y-78533850D01*
X38197635Y-78558921D01*
X38303143Y-78605507D01*
X38303142Y-78605507D01*
X38303145Y-78605508D01*
X38328936Y-78608500D01*
X38328938Y-78608500D01*
X38609287Y-78608500D01*
X38676326Y-78628185D01*
X38707663Y-78657013D01*
X38762075Y-78727924D01*
X38887413Y-78824100D01*
X39033365Y-78884554D01*
X39033369Y-78884555D01*
X39150676Y-78899999D01*
X39207499Y-78899998D01*
X39207500Y-78899998D01*
X39207500Y-78324000D01*
X39227185Y-78256961D01*
X39279989Y-78211206D01*
X39331500Y-78200000D01*
X39407500Y-78200000D01*
X39407500Y-78124000D01*
X39410050Y-78115314D01*
X39408762Y-78106353D01*
X39419740Y-78082312D01*
X39427185Y-78056961D01*
X39434025Y-78051033D01*
X39437787Y-78042797D01*
X39460021Y-78028507D01*
X39479989Y-78011206D01*
X39490503Y-78008918D01*
X39496565Y-78005023D01*
X39531500Y-78000000D01*
X39606288Y-78000000D01*
X39673327Y-78019685D01*
X39693969Y-78036319D01*
X39764526Y-78106876D01*
X39826464Y-78142636D01*
X39851975Y-78157365D01*
X39859479Y-78160473D01*
X39858513Y-78162803D01*
X39907381Y-78192588D01*
X39937912Y-78255435D01*
X39929618Y-78324810D01*
X39885134Y-78378689D01*
X39818583Y-78399965D01*
X39815629Y-78400000D01*
X39607500Y-78400000D01*
X39607500Y-78899999D01*
X39664324Y-78899999D01*
X39781628Y-78884557D01*
X39781633Y-78884555D01*
X39927585Y-78824100D01*
X40052924Y-78727924D01*
X40149100Y-78602586D01*
X40209555Y-78456631D01*
X40217012Y-78400000D01*
X40184371Y-78400000D01*
X40117332Y-78380315D01*
X40071577Y-78327511D01*
X40061633Y-78258353D01*
X40090658Y-78194797D01*
X40141266Y-78162273D01*
X40140521Y-78160473D01*
X40148022Y-78157365D01*
X40148025Y-78157365D01*
X40235474Y-78106876D01*
X40306876Y-78035474D01*
X40349297Y-77961998D01*
X40399865Y-77913784D01*
X40447859Y-77902140D01*
X40450000Y-77900000D01*
X40450000Y-77124000D01*
X40469685Y-77056961D01*
X40522489Y-77011206D01*
X40574000Y-77000000D01*
X40826000Y-77000000D01*
X40893039Y-77019685D01*
X40938794Y-77072489D01*
X40950000Y-77124000D01*
X40950000Y-77900000D01*
X41147828Y-77900000D01*
X41147844Y-77899999D01*
X41207372Y-77893598D01*
X41207379Y-77893596D01*
X41342086Y-77843354D01*
X41342093Y-77843350D01*
X41457187Y-77757190D01*
X41457190Y-77757187D01*
X41543350Y-77642093D01*
X41543354Y-77642086D01*
X41593596Y-77507379D01*
X41593598Y-77507372D01*
X41599999Y-77447844D01*
X41600000Y-77447827D01*
X41600000Y-77170779D01*
X41619685Y-77103740D01*
X41672489Y-77057985D01*
X41741647Y-77048041D01*
X41777298Y-77062370D01*
X41778683Y-77059538D01*
X41898397Y-77118063D01*
X41898398Y-77118063D01*
X41898400Y-77118064D01*
X41970029Y-77128500D01*
X42484970Y-77128499D01*
X42484973Y-77128499D01*
X42497654Y-77126651D01*
X42511780Y-77124593D01*
X42580957Y-77134405D01*
X42620531Y-77165527D01*
X42621339Y-77164720D01*
X42739980Y-77283360D01*
X42877136Y-77366273D01*
X42877140Y-77366275D01*
X43030157Y-77413956D01*
X43030156Y-77413956D01*
X43096663Y-77420000D01*
X43122500Y-77420000D01*
X43622500Y-77420000D01*
X43648337Y-77420000D01*
X43714843Y-77413956D01*
X43842065Y-77374313D01*
X43911925Y-77373161D01*
X43966636Y-77405017D01*
X43994976Y-77433357D01*
X43994980Y-77433360D01*
X44132136Y-77516273D01*
X44132140Y-77516275D01*
X44285157Y-77563956D01*
X44285156Y-77563956D01*
X44351663Y-77570000D01*
X44377500Y-77570000D01*
X44377500Y-77000000D01*
X43622500Y-77000000D01*
X43622500Y-77420000D01*
X43122500Y-77420000D01*
X43122500Y-76724000D01*
X43142185Y-76656961D01*
X43194989Y-76611206D01*
X43246500Y-76600000D01*
X43372500Y-76600000D01*
X43372500Y-76474000D01*
X43392185Y-76406961D01*
X43444989Y-76361206D01*
X43496500Y-76350000D01*
X44261000Y-76350000D01*
X44328039Y-76369685D01*
X44373794Y-76422489D01*
X44385000Y-76474000D01*
X44385000Y-76500000D01*
X44503500Y-76500000D01*
X44570539Y-76519685D01*
X44616294Y-76572489D01*
X44627500Y-76624000D01*
X44627500Y-76750000D01*
X44753500Y-76750000D01*
X44820539Y-76769685D01*
X44866294Y-76822489D01*
X44877500Y-76874000D01*
X44877500Y-77570000D01*
X44903337Y-77570000D01*
X44969843Y-77563956D01*
X45122859Y-77516275D01*
X45122863Y-77516273D01*
X45260019Y-77433360D01*
X45260023Y-77433357D01*
X45378661Y-77314720D01*
X45379748Y-77315807D01*
X45429559Y-77280195D01*
X45488215Y-77274593D01*
X45515029Y-77278500D01*
X46029970Y-77278499D01*
X46101600Y-77268064D01*
X46194616Y-77222591D01*
X46216721Y-77211785D01*
X46285594Y-77200025D01*
X46349891Y-77227369D01*
X46358861Y-77235503D01*
X46378498Y-77255139D01*
X46390226Y-77266867D01*
X46466274Y-77310773D01*
X46466276Y-77310773D01*
X46466277Y-77310774D01*
X46466276Y-77310774D01*
X46522030Y-77325712D01*
X46528366Y-77327410D01*
X46547853Y-77332631D01*
X46586450Y-77354915D01*
X46588155Y-77352427D01*
X46597634Y-77358920D01*
X46597635Y-77358921D01*
X46703143Y-77405507D01*
X46703142Y-77405507D01*
X46703145Y-77405508D01*
X46728936Y-77408500D01*
X46728938Y-77408500D01*
X47256062Y-77408500D01*
X47256064Y-77408500D01*
X47281855Y-77405508D01*
X47349914Y-77375456D01*
X47376044Y-77372035D01*
X47401411Y-77364899D01*
X47412376Y-77367277D01*
X47419191Y-77366385D01*
X47436286Y-77370319D01*
X47443334Y-77372475D01*
X47518145Y-77405508D01*
X47543936Y-77408500D01*
X47561049Y-77408500D01*
X47578786Y-77413928D01*
X47593097Y-77423357D01*
X47609539Y-77428185D01*
X47621664Y-77442179D01*
X47637131Y-77452369D01*
X47644073Y-77468039D01*
X47655294Y-77480989D01*
X47660585Y-77505313D01*
X47665431Y-77516251D01*
X47664403Y-77522862D01*
X47666500Y-77532500D01*
X47666500Y-77622127D01*
X47646815Y-77689166D01*
X47644801Y-77692203D01*
X47641077Y-77697638D01*
X47594492Y-77803143D01*
X47591500Y-77828932D01*
X47591500Y-78356067D01*
X47593332Y-78371855D01*
X47594492Y-78381855D01*
X47615807Y-78430130D01*
X47624543Y-78449914D01*
X47633614Y-78519192D01*
X47624543Y-78550084D01*
X47622285Y-78555199D01*
X47594492Y-78618144D01*
X47591500Y-78643932D01*
X47591500Y-79171067D01*
X47594492Y-79196856D01*
X47641078Y-79302364D01*
X47644798Y-79307793D01*
X47650873Y-79326437D01*
X47661477Y-79342937D01*
X47665604Y-79371641D01*
X47666446Y-79374225D01*
X47666500Y-79377872D01*
X47666500Y-79556001D01*
X47646815Y-79623040D01*
X47630181Y-79643682D01*
X47630178Y-79643685D01*
X47630178Y-79643686D01*
X47622914Y-79650949D01*
X47622913Y-79650950D01*
X47602001Y-79671862D01*
X47535947Y-79737915D01*
X47529980Y-79746274D01*
X47528208Y-79745008D01*
X47490268Y-79786532D01*
X47422734Y-79804444D01*
X47356236Y-79783001D01*
X47311887Y-79729011D01*
X47301999Y-79680487D01*
X47301999Y-79659264D01*
X47301998Y-79659257D01*
X47289903Y-79598446D01*
X47259246Y-79552565D01*
X47243820Y-79529478D01*
X47174852Y-79483395D01*
X47174851Y-79483394D01*
X47114039Y-79471299D01*
X45828365Y-79471299D01*
X45767546Y-79483396D01*
X45698579Y-79529478D01*
X45652495Y-79598448D01*
X45651872Y-79599953D01*
X45649634Y-79602729D01*
X45645712Y-79608600D01*
X45645186Y-79608248D01*
X45608031Y-79654356D01*
X45541736Y-79676420D01*
X45537312Y-79676499D01*
X43341087Y-79676499D01*
X43274048Y-79656814D01*
X43228293Y-79604010D01*
X43226525Y-79599949D01*
X43225903Y-79598447D01*
X43225903Y-79598446D01*
X43195246Y-79552565D01*
X43179820Y-79529478D01*
X43110852Y-79483395D01*
X43110851Y-79483394D01*
X43050041Y-79471299D01*
X43050037Y-79471299D01*
X42863665Y-79471299D01*
X42796626Y-79451614D01*
X42750871Y-79398810D01*
X42742916Y-79371113D01*
X42742804Y-79371144D01*
X42741114Y-79364839D01*
X42740726Y-79363486D01*
X42740701Y-79363301D01*
X42740701Y-79363294D01*
X42717973Y-79278473D01*
X42691352Y-79232365D01*
X42691351Y-79232363D01*
X42691351Y-79232362D01*
X42674069Y-79202429D01*
X42674068Y-79202428D01*
X42674067Y-79202426D01*
X42611974Y-79140333D01*
X42611973Y-79140332D01*
X42607643Y-79136002D01*
X42607632Y-79135992D01*
X42593212Y-79121572D01*
X42561118Y-79065983D01*
X42560727Y-79064523D01*
X42557365Y-79051975D01*
X42506876Y-78964526D01*
X42435474Y-78893124D01*
X42348025Y-78842635D01*
X42250489Y-78816500D01*
X42149511Y-78816500D01*
X42051975Y-78842635D01*
X42051973Y-78842635D01*
X42051973Y-78842636D01*
X41964526Y-78893124D01*
X41964523Y-78893126D01*
X41893126Y-78964523D01*
X41893124Y-78964526D01*
X41871849Y-79001376D01*
X41842635Y-79051975D01*
X41816500Y-79149511D01*
X41816500Y-79250489D01*
X41817100Y-79252727D01*
X41835768Y-79322398D01*
X41834105Y-79392248D01*
X41794942Y-79450110D01*
X41740184Y-79476108D01*
X41703550Y-79483394D01*
X41703546Y-79483396D01*
X41634579Y-79529478D01*
X41588496Y-79598446D01*
X41588495Y-79598447D01*
X41576400Y-79659257D01*
X41576400Y-80360733D01*
X41588497Y-80421552D01*
X41634579Y-80490519D01*
X41703547Y-80536602D01*
X41703548Y-80536603D01*
X41743997Y-80544648D01*
X41764363Y-80548699D01*
X43050036Y-80548698D01*
X43110853Y-80536602D01*
X43179820Y-80490519D01*
X43225903Y-80421552D01*
X43225904Y-80421549D01*
X43226528Y-80420045D01*
X43228765Y-80417268D01*
X43232688Y-80411398D01*
X43233213Y-80411749D01*
X43270369Y-80365642D01*
X43336664Y-80343578D01*
X43341088Y-80343499D01*
X45537313Y-80343499D01*
X45604352Y-80363184D01*
X45650107Y-80415988D01*
X45651875Y-80420049D01*
X45652497Y-80421552D01*
X45698579Y-80490519D01*
X45767547Y-80536602D01*
X45767548Y-80536603D01*
X45807997Y-80544648D01*
X45828363Y-80548699D01*
X46857798Y-80548698D01*
X46879044Y-80554936D01*
X46901132Y-80556516D01*
X46911914Y-80564587D01*
X46924837Y-80568382D01*
X46939338Y-80585118D01*
X46957065Y-80598388D01*
X46961771Y-80611006D01*
X46970592Y-80621186D01*
X46973743Y-80643104D01*
X46981482Y-80663852D01*
X46978619Y-80677012D01*
X46980536Y-80690345D01*
X46971336Y-80710488D01*
X46966630Y-80732125D01*
X46953361Y-80749850D01*
X46951511Y-80753901D01*
X46945479Y-80760379D01*
X46790876Y-80914982D01*
X46729553Y-80948467D01*
X46703195Y-80951301D01*
X45828365Y-80951301D01*
X45767546Y-80963398D01*
X45698579Y-81009480D01*
X45652495Y-81078450D01*
X45651872Y-81079955D01*
X45649634Y-81082731D01*
X45645712Y-81088602D01*
X45645186Y-81088250D01*
X45608031Y-81134358D01*
X45541736Y-81156422D01*
X45537312Y-81156501D01*
X43341087Y-81156501D01*
X43274048Y-81136816D01*
X43228293Y-81084012D01*
X43226525Y-81079951D01*
X43225903Y-81078449D01*
X43225903Y-81078448D01*
X43201560Y-81042016D01*
X43179820Y-81009480D01*
X43110852Y-80963397D01*
X43110851Y-80963396D01*
X43050039Y-80951301D01*
X41764365Y-80951301D01*
X41703546Y-80963398D01*
X41634579Y-81009480D01*
X41588496Y-81078448D01*
X41588495Y-81078449D01*
X41576400Y-81139259D01*
X41576400Y-81840735D01*
X41588497Y-81901554D01*
X41634579Y-81970521D01*
X41703547Y-82016604D01*
X41703548Y-82016605D01*
X41740478Y-82023950D01*
X41764363Y-82028701D01*
X43050036Y-82028700D01*
X43110853Y-82016604D01*
X43179820Y-81970521D01*
X43225903Y-81901554D01*
X43225904Y-81901551D01*
X43226528Y-81900047D01*
X43228765Y-81897270D01*
X43232688Y-81891400D01*
X43233213Y-81891751D01*
X43270369Y-81845644D01*
X43336664Y-81823580D01*
X43341088Y-81823501D01*
X45537313Y-81823501D01*
X45604352Y-81843186D01*
X45650107Y-81895990D01*
X45651875Y-81900051D01*
X45652497Y-81901554D01*
X45698579Y-81970521D01*
X45767547Y-82016604D01*
X45767548Y-82016605D01*
X45804478Y-82023950D01*
X45828363Y-82028701D01*
X47114036Y-82028700D01*
X47174853Y-82016604D01*
X47212152Y-81991680D01*
X47278827Y-81970804D01*
X47346207Y-81989288D01*
X47368722Y-82007103D01*
X47429976Y-82068357D01*
X47429980Y-82068360D01*
X47567136Y-82151273D01*
X47567138Y-82151274D01*
X47720155Y-82198956D01*
X47720161Y-82198958D01*
X47749999Y-82201668D01*
X47750000Y-82201668D01*
X47750000Y-81446500D01*
X47769685Y-81379461D01*
X47822489Y-81333706D01*
X47874000Y-81322500D01*
X48126000Y-81322500D01*
X48193039Y-81342185D01*
X48238794Y-81394989D01*
X48250000Y-81446500D01*
X48250000Y-82201668D01*
X48279838Y-82198958D01*
X48279844Y-82198956D01*
X48432861Y-82151274D01*
X48432863Y-82151273D01*
X48570019Y-82068360D01*
X48570023Y-82068357D01*
X48683357Y-81955023D01*
X48683361Y-81955018D01*
X48700575Y-81926542D01*
X48725770Y-81903466D01*
X48750717Y-81880042D01*
X48751508Y-81879895D01*
X48752101Y-81879353D01*
X48785759Y-81873565D01*
X48819423Y-81867344D01*
X48820296Y-81867627D01*
X48820960Y-81867513D01*
X48853657Y-81875927D01*
X48861423Y-81879105D01*
X48916274Y-81910773D01*
X48981542Y-81928262D01*
X48988817Y-81931239D01*
X49004946Y-81944124D01*
X49020278Y-81952976D01*
X49020655Y-81952427D01*
X49027776Y-81957305D01*
X49029534Y-81958320D01*
X49030135Y-81958921D01*
X49135643Y-82005507D01*
X49135642Y-82005507D01*
X49135645Y-82005508D01*
X49161436Y-82008500D01*
X49161438Y-82008500D01*
X49688562Y-82008500D01*
X49688564Y-82008500D01*
X49714355Y-82005508D01*
X49782414Y-81975456D01*
X49851691Y-81966385D01*
X49882582Y-81975455D01*
X49950643Y-82005507D01*
X49950642Y-82005507D01*
X49950645Y-82005508D01*
X49976436Y-82008500D01*
X49976438Y-82008500D01*
X50503562Y-82008500D01*
X50503564Y-82008500D01*
X50529355Y-82005508D01*
X50634865Y-81958921D01*
X50634870Y-81958915D01*
X50640297Y-81955199D01*
X50706729Y-81933554D01*
X50710373Y-81933500D01*
X51412831Y-81933500D01*
X51460286Y-81942940D01*
X51468648Y-81946404D01*
X51505447Y-81953723D01*
X51529463Y-81958500D01*
X52070536Y-81958499D01*
X52098902Y-81952857D01*
X52101292Y-81952382D01*
X52125480Y-81950000D01*
X52874519Y-81950000D01*
X52898709Y-81952382D01*
X52929463Y-81958500D01*
X53470536Y-81958499D01*
X53531353Y-81946403D01*
X53531354Y-81946402D01*
X53531355Y-81946402D01*
X53539719Y-81942938D01*
X53547894Y-81941311D01*
X53552234Y-81938523D01*
X53587169Y-81933500D01*
X53820126Y-81933500D01*
X53887165Y-81953185D01*
X53931526Y-82003039D01*
X53934196Y-82008500D01*
X53935951Y-82012090D01*
X54022911Y-82099050D01*
X54133397Y-82153064D01*
X54133398Y-82153064D01*
X54133400Y-82153065D01*
X54205029Y-82163501D01*
X54594970Y-82163500D01*
X54666600Y-82153065D01*
X54777087Y-82099051D01*
X54864050Y-82012088D01*
X54881916Y-81975541D01*
X54892861Y-81963561D01*
X54899604Y-81948798D01*
X54915944Y-81938296D01*
X54929044Y-81923959D01*
X54945339Y-81919406D01*
X54958382Y-81911024D01*
X54993317Y-81906001D01*
X55177414Y-81906001D01*
X55239416Y-81922615D01*
X55251975Y-81929866D01*
X55349511Y-81956001D01*
X55349514Y-81956001D01*
X55450486Y-81956001D01*
X55450489Y-81956001D01*
X55548025Y-81929866D01*
X55635474Y-81879377D01*
X55706876Y-81807975D01*
X55757365Y-81720526D01*
X55783500Y-81622990D01*
X55783500Y-81522012D01*
X55757365Y-81424476D01*
X55706876Y-81337027D01*
X55635474Y-81265625D01*
X55548025Y-81215136D01*
X55450489Y-81189001D01*
X55349511Y-81189001D01*
X55280949Y-81207372D01*
X55251970Y-81215137D01*
X55250922Y-81215572D01*
X55249967Y-81215674D01*
X55244125Y-81217240D01*
X55243880Y-81216328D01*
X55181452Y-81223035D01*
X55118975Y-81191755D01*
X55083327Y-81131664D01*
X55085827Y-81061839D01*
X55097361Y-81036857D01*
X55166275Y-80922858D01*
X55213956Y-80769842D01*
X55220000Y-80703336D01*
X55220000Y-80677499D01*
X54524000Y-80677499D01*
X54456961Y-80657814D01*
X54411206Y-80605010D01*
X54400000Y-80553499D01*
X54400000Y-80301499D01*
X54419685Y-80234460D01*
X54472489Y-80188705D01*
X54524000Y-80177499D01*
X55220000Y-80177499D01*
X55220000Y-80151661D01*
X55213956Y-80085155D01*
X55166275Y-79932139D01*
X55159934Y-79921650D01*
X55142098Y-79854095D01*
X55163616Y-79787621D01*
X55217656Y-79743334D01*
X55266051Y-79733500D01*
X60348482Y-79733500D01*
X60348498Y-79733501D01*
X60356094Y-79733501D01*
X60443904Y-79733501D01*
X60443906Y-79733501D01*
X60528727Y-79710773D01*
X60556561Y-79694701D01*
X60604774Y-79666867D01*
X60666867Y-79604774D01*
X60666868Y-79604771D01*
X61194564Y-79077075D01*
X61194569Y-79077071D01*
X61204772Y-79066867D01*
X61204774Y-79066867D01*
X61266867Y-79004774D01*
X61307529Y-78934345D01*
X61310773Y-78928727D01*
X61333500Y-78843906D01*
X61333500Y-78756094D01*
X61333500Y-73556094D01*
X61310773Y-73471274D01*
X61277814Y-73414187D01*
X61266868Y-73395227D01*
X61200443Y-73328802D01*
X61200432Y-73328792D01*
X58193212Y-70321572D01*
X58161118Y-70265983D01*
X58157365Y-70251975D01*
X58106876Y-70164526D01*
X58035474Y-70093124D01*
X57948025Y-70042635D01*
X57850489Y-70016500D01*
X57749511Y-70016500D01*
X57651975Y-70042635D01*
X57651973Y-70042635D01*
X57651973Y-70042636D01*
X57564526Y-70093124D01*
X57564523Y-70093126D01*
X57493126Y-70164523D01*
X57493124Y-70164526D01*
X57443132Y-70251115D01*
X57442635Y-70251975D01*
X57416500Y-70349511D01*
X57416500Y-70450489D01*
X57442635Y-70548025D01*
X57493124Y-70635474D01*
X57564526Y-70706876D01*
X57651975Y-70757365D01*
X57665984Y-70761118D01*
X57721572Y-70793212D01*
X58553179Y-71624819D01*
X58586664Y-71686142D01*
X58581680Y-71755834D01*
X58539808Y-71811767D01*
X58474344Y-71836184D01*
X58465498Y-71836500D01*
X58449511Y-71836500D01*
X58351975Y-71862635D01*
X58351973Y-71862635D01*
X58351973Y-71862636D01*
X58264526Y-71913124D01*
X58264523Y-71913126D01*
X58193126Y-71984523D01*
X58193124Y-71984526D01*
X58151305Y-72056959D01*
X58142635Y-72071975D01*
X58116500Y-72169511D01*
X58116500Y-72169513D01*
X58116500Y-72246840D01*
X58096815Y-72313879D01*
X58044011Y-72359634D01*
X57974853Y-72369578D01*
X57955966Y-72364397D01*
X57955875Y-72364739D01*
X57948026Y-72362636D01*
X57948025Y-72362635D01*
X57850489Y-72336500D01*
X57749511Y-72336500D01*
X57651975Y-72362635D01*
X57651973Y-72362635D01*
X57651973Y-72362636D01*
X57564526Y-72413124D01*
X57564523Y-72413126D01*
X57493126Y-72484523D01*
X57493124Y-72484526D01*
X57442635Y-72571975D01*
X57416500Y-72669511D01*
X57416500Y-72770489D01*
X57442635Y-72868025D01*
X57493124Y-72955474D01*
X57564526Y-73026876D01*
X57651975Y-73077365D01*
X57737292Y-73100226D01*
X57796951Y-73136590D01*
X57827480Y-73199437D01*
X57819185Y-73268813D01*
X57774700Y-73322691D01*
X57737294Y-73339773D01*
X57651975Y-73362635D01*
X57651973Y-73362635D01*
X57651973Y-73362636D01*
X57564526Y-73413124D01*
X57564523Y-73413126D01*
X57493126Y-73484523D01*
X57493124Y-73484526D01*
X57460952Y-73540250D01*
X57442635Y-73571975D01*
X57416500Y-73669511D01*
X57416500Y-73770489D01*
X57442635Y-73868025D01*
X57493124Y-73955474D01*
X57564526Y-74026876D01*
X57651975Y-74077365D01*
X57749511Y-74103500D01*
X57749514Y-74103500D01*
X57850486Y-74103500D01*
X57850489Y-74103500D01*
X57948025Y-74077365D01*
X58035474Y-74026876D01*
X58106876Y-73955474D01*
X58157365Y-73868025D01*
X58183500Y-73770489D01*
X58183500Y-73669511D01*
X58183498Y-73669507D01*
X58182751Y-73663830D01*
X58193512Y-73594794D01*
X58239888Y-73542535D01*
X58307155Y-73523645D01*
X58367690Y-73540250D01*
X58431969Y-73577362D01*
X58431970Y-73577363D01*
X58431972Y-73577363D01*
X58431975Y-73577365D01*
X58529511Y-73603500D01*
X58529514Y-73603500D01*
X58569827Y-73603500D01*
X58630489Y-73603500D01*
X58728025Y-73577365D01*
X58815474Y-73526876D01*
X58886876Y-73455474D01*
X58937365Y-73368025D01*
X58963500Y-73270489D01*
X58963500Y-73169511D01*
X58937365Y-73071975D01*
X58886876Y-72984526D01*
X58815474Y-72913124D01*
X58728025Y-72862635D01*
X58630489Y-72836500D01*
X58622793Y-72836500D01*
X58555754Y-72816815D01*
X58509999Y-72764011D01*
X58500055Y-72694853D01*
X58529080Y-72631297D01*
X58587858Y-72593523D01*
X58590649Y-72592738D01*
X58648025Y-72577365D01*
X58735474Y-72526876D01*
X58806876Y-72455474D01*
X58857365Y-72368025D01*
X58883500Y-72270489D01*
X58883500Y-72254502D01*
X58903185Y-72187463D01*
X58955989Y-72141708D01*
X59025147Y-72131764D01*
X59088703Y-72160789D01*
X59095181Y-72166821D01*
X60630181Y-73701821D01*
X60663666Y-73763144D01*
X60666500Y-73789502D01*
X60666500Y-77562836D01*
X60646815Y-77629875D01*
X60594011Y-77675630D01*
X60524853Y-77685574D01*
X60461297Y-77656549D01*
X60427939Y-77610289D01*
X60400820Y-77544819D01*
X60377864Y-77489399D01*
X60377862Y-77489396D01*
X60377860Y-77489392D01*
X60300328Y-77373358D01*
X60300325Y-77373354D01*
X60201645Y-77274674D01*
X60201641Y-77274671D01*
X60085607Y-77197139D01*
X60085597Y-77197134D01*
X59956662Y-77143727D01*
X59956654Y-77143725D01*
X59819785Y-77116500D01*
X59819781Y-77116500D01*
X59680219Y-77116500D01*
X59680214Y-77116500D01*
X59543345Y-77143725D01*
X59543337Y-77143727D01*
X59414402Y-77197134D01*
X59414392Y-77197139D01*
X59298358Y-77274671D01*
X59298354Y-77274674D01*
X59199674Y-77373354D01*
X59199671Y-77373358D01*
X59122139Y-77489392D01*
X59122134Y-77489402D01*
X59068727Y-77618337D01*
X59068725Y-77618345D01*
X59041500Y-77755214D01*
X59041500Y-77894785D01*
X59068564Y-78030844D01*
X59068727Y-78031662D01*
X59085876Y-78073063D01*
X59122134Y-78160597D01*
X59122139Y-78160607D01*
X59199671Y-78276641D01*
X59199674Y-78276645D01*
X59298354Y-78375325D01*
X59298358Y-78375328D01*
X59414392Y-78452860D01*
X59414396Y-78452862D01*
X59414399Y-78452864D01*
X59543338Y-78506273D01*
X59680214Y-78533499D01*
X59680218Y-78533500D01*
X59680219Y-78533500D01*
X59819782Y-78533500D01*
X59819783Y-78533499D01*
X59956662Y-78506273D01*
X60085601Y-78452864D01*
X60201642Y-78375328D01*
X60300328Y-78276642D01*
X60377864Y-78160601D01*
X60427939Y-78039709D01*
X60471780Y-77985307D01*
X60538074Y-77963242D01*
X60605774Y-77980521D01*
X60653384Y-78031659D01*
X60666500Y-78087163D01*
X60666500Y-78610498D01*
X60646815Y-78677537D01*
X60630181Y-78698179D01*
X60298179Y-79030181D01*
X60236856Y-79063666D01*
X60210498Y-79066500D01*
X55279502Y-79066500D01*
X55212463Y-79046815D01*
X55166708Y-78994011D01*
X55156764Y-78924853D01*
X55185789Y-78861297D01*
X55191811Y-78854828D01*
X55493995Y-78552643D01*
X55555315Y-78519161D01*
X55605863Y-78518710D01*
X55680217Y-78533499D01*
X55680218Y-78533500D01*
X55680219Y-78533500D01*
X55819782Y-78533500D01*
X55819783Y-78533499D01*
X55956662Y-78506273D01*
X56085601Y-78452864D01*
X56201642Y-78375328D01*
X56300328Y-78276642D01*
X56377864Y-78160601D01*
X56431273Y-78031662D01*
X56458500Y-77894781D01*
X56458500Y-77755219D01*
X56458499Y-77755214D01*
X57041500Y-77755214D01*
X57041500Y-77894785D01*
X57068564Y-78030844D01*
X57068727Y-78031662D01*
X57085876Y-78073063D01*
X57122134Y-78160597D01*
X57122139Y-78160607D01*
X57199671Y-78276641D01*
X57199674Y-78276645D01*
X57298354Y-78375325D01*
X57298358Y-78375328D01*
X57414392Y-78452860D01*
X57414396Y-78452862D01*
X57414399Y-78452864D01*
X57543338Y-78506273D01*
X57680214Y-78533499D01*
X57680218Y-78533500D01*
X57680219Y-78533500D01*
X57819782Y-78533500D01*
X57819783Y-78533499D01*
X57956662Y-78506273D01*
X58085601Y-78452864D01*
X58201642Y-78375328D01*
X58300328Y-78276642D01*
X58377864Y-78160601D01*
X58431273Y-78031662D01*
X58458500Y-77894781D01*
X58458500Y-77755219D01*
X58431273Y-77618338D01*
X58377864Y-77489399D01*
X58377862Y-77489396D01*
X58377860Y-77489392D01*
X58300328Y-77373358D01*
X58300325Y-77373354D01*
X58201645Y-77274674D01*
X58201641Y-77274671D01*
X58085607Y-77197139D01*
X58085597Y-77197134D01*
X57956662Y-77143727D01*
X57956654Y-77143725D01*
X57819785Y-77116500D01*
X57819781Y-77116500D01*
X57680219Y-77116500D01*
X57680214Y-77116500D01*
X57543345Y-77143725D01*
X57543337Y-77143727D01*
X57414402Y-77197134D01*
X57414392Y-77197139D01*
X57298358Y-77274671D01*
X57298354Y-77274674D01*
X57199674Y-77373354D01*
X57199671Y-77373358D01*
X57122139Y-77489392D01*
X57122134Y-77489402D01*
X57068727Y-77618337D01*
X57068725Y-77618345D01*
X57041500Y-77755214D01*
X56458499Y-77755214D01*
X56431273Y-77618338D01*
X56377864Y-77489399D01*
X56377862Y-77489396D01*
X56377860Y-77489392D01*
X56300328Y-77373358D01*
X56300325Y-77373354D01*
X56201645Y-77274674D01*
X56201641Y-77274671D01*
X56085607Y-77197139D01*
X56085597Y-77197134D01*
X55956662Y-77143727D01*
X55956654Y-77143725D01*
X55819785Y-77116500D01*
X55819781Y-77116500D01*
X55680219Y-77116500D01*
X55680214Y-77116500D01*
X55543345Y-77143725D01*
X55543337Y-77143727D01*
X55414402Y-77197134D01*
X55414392Y-77197139D01*
X55298358Y-77274671D01*
X55298354Y-77274674D01*
X55199674Y-77373354D01*
X55199671Y-77373358D01*
X55122139Y-77489392D01*
X55122134Y-77489402D01*
X55068727Y-77618337D01*
X55068725Y-77618345D01*
X55041500Y-77755214D01*
X55041500Y-77894780D01*
X55056289Y-77969136D01*
X55050060Y-78038727D01*
X55022352Y-78081006D01*
X54524179Y-78579181D01*
X54462856Y-78612666D01*
X54436498Y-78615500D01*
X54250973Y-78615500D01*
X54183934Y-78595815D01*
X54138179Y-78543011D01*
X54128235Y-78473853D01*
X54157260Y-78410297D01*
X54182082Y-78388398D01*
X54189907Y-78383168D01*
X54201642Y-78375328D01*
X54300328Y-78276642D01*
X54377864Y-78160601D01*
X54431273Y-78031662D01*
X54458500Y-77894781D01*
X54458500Y-77755219D01*
X54431273Y-77618338D01*
X54377864Y-77489399D01*
X54377862Y-77489396D01*
X54377860Y-77489392D01*
X54300328Y-77373358D01*
X54300325Y-77373354D01*
X54201645Y-77274674D01*
X54201641Y-77274671D01*
X54085607Y-77197139D01*
X54085597Y-77197134D01*
X53956662Y-77143727D01*
X53956654Y-77143725D01*
X53819785Y-77116500D01*
X53819781Y-77116500D01*
X53680219Y-77116500D01*
X53680214Y-77116500D01*
X53543345Y-77143725D01*
X53543337Y-77143727D01*
X53414402Y-77197134D01*
X53414394Y-77197138D01*
X53302089Y-77272178D01*
X53235412Y-77293055D01*
X53168032Y-77274570D01*
X53121342Y-77222591D01*
X53113424Y-77201168D01*
X53113118Y-77200025D01*
X53110773Y-77191273D01*
X53066867Y-77115226D01*
X52473211Y-76521571D01*
X52441118Y-76465983D01*
X52437365Y-76451975D01*
X52386876Y-76364526D01*
X52315474Y-76293124D01*
X52228025Y-76242635D01*
X52130489Y-76216500D01*
X52029511Y-76216500D01*
X51931975Y-76242635D01*
X51931973Y-76242635D01*
X51931973Y-76242636D01*
X51844526Y-76293124D01*
X51844523Y-76293126D01*
X51773126Y-76364523D01*
X51773124Y-76364526D01*
X51723961Y-76449679D01*
X51722635Y-76451975D01*
X51696500Y-76549511D01*
X51696500Y-76650489D01*
X51722635Y-76748025D01*
X51773124Y-76835474D01*
X51773126Y-76835476D01*
X51842469Y-76904819D01*
X51875954Y-76966142D01*
X51870970Y-77035834D01*
X51829098Y-77091767D01*
X51763634Y-77116184D01*
X51754788Y-77116500D01*
X51680214Y-77116500D01*
X51543345Y-77143725D01*
X51543337Y-77143727D01*
X51414402Y-77197134D01*
X51414392Y-77197139D01*
X51298358Y-77274671D01*
X51298354Y-77274674D01*
X51199674Y-77373354D01*
X51199671Y-77373358D01*
X51122139Y-77489392D01*
X51122134Y-77489402D01*
X51068727Y-77618337D01*
X51068725Y-77618345D01*
X51054117Y-77691785D01*
X51021732Y-77753696D01*
X50961017Y-77788270D01*
X50891247Y-77784531D01*
X50834575Y-77743664D01*
X50810580Y-77690210D01*
X50808500Y-77678996D01*
X50808500Y-77576436D01*
X50805508Y-77550645D01*
X50769610Y-77469343D01*
X50766971Y-77455116D01*
X50769117Y-77434178D01*
X50766385Y-77413309D01*
X50773872Y-77387808D01*
X50774098Y-77385611D01*
X50774762Y-77384777D01*
X50775455Y-77382417D01*
X50805508Y-77314355D01*
X50808500Y-77288564D01*
X50808500Y-76761436D01*
X50805508Y-76735645D01*
X50758921Y-76630135D01*
X50677365Y-76548579D01*
X50649893Y-76536449D01*
X50571856Y-76501992D01*
X50571857Y-76501992D01*
X50546067Y-76499000D01*
X50546064Y-76499000D01*
X50519728Y-76499000D01*
X50490287Y-76490355D01*
X50460301Y-76483832D01*
X50455285Y-76480077D01*
X50452689Y-76479315D01*
X50432047Y-76462681D01*
X50354515Y-76385149D01*
X50321030Y-76323826D01*
X50326014Y-76254134D01*
X50367886Y-76198201D01*
X50433350Y-76173784D01*
X50474287Y-76177693D01*
X50495957Y-76183500D01*
X50495959Y-76183500D01*
X50596932Y-76183500D01*
X50596935Y-76183500D01*
X50694471Y-76157365D01*
X50781920Y-76106876D01*
X50853322Y-76035474D01*
X50903811Y-75948025D01*
X50929946Y-75850489D01*
X50929946Y-75749511D01*
X50903811Y-75651975D01*
X50896557Y-75639410D01*
X50892407Y-75623922D01*
X50884969Y-75612348D01*
X50879946Y-75577413D01*
X50879946Y-75549511D01*
X57316500Y-75549511D01*
X57316500Y-75650489D01*
X57342635Y-75748025D01*
X57393124Y-75835474D01*
X57464526Y-75906876D01*
X57551975Y-75957365D01*
X57649511Y-75983500D01*
X57649514Y-75983500D01*
X57750486Y-75983500D01*
X57750489Y-75983500D01*
X57848025Y-75957365D01*
X57935474Y-75906876D01*
X58006876Y-75835474D01*
X58057365Y-75748025D01*
X58083500Y-75650489D01*
X58083500Y-75549511D01*
X58057365Y-75451975D01*
X58006876Y-75364526D01*
X57935474Y-75293124D01*
X57848025Y-75242635D01*
X57750489Y-75216500D01*
X57649511Y-75216500D01*
X57551975Y-75242635D01*
X57551973Y-75242635D01*
X57551973Y-75242636D01*
X57464526Y-75293124D01*
X57464523Y-75293126D01*
X57393126Y-75364523D01*
X57393124Y-75364526D01*
X57374398Y-75396961D01*
X57342635Y-75451975D01*
X57316500Y-75549511D01*
X50879946Y-75549511D01*
X50879946Y-75535947D01*
X50899631Y-75468908D01*
X50916261Y-75448270D01*
X51394564Y-74969966D01*
X51394569Y-74969963D01*
X51404772Y-74959759D01*
X51404774Y-74959759D01*
X51466867Y-74897666D01*
X51480546Y-74873974D01*
X51494670Y-74849511D01*
X58116500Y-74849511D01*
X58116500Y-74950489D01*
X58142635Y-75048025D01*
X58193124Y-75135474D01*
X58264526Y-75206876D01*
X58351975Y-75257365D01*
X58449511Y-75283500D01*
X58449514Y-75283500D01*
X58550486Y-75283500D01*
X58550489Y-75283500D01*
X58648025Y-75257365D01*
X58735474Y-75206876D01*
X58806876Y-75135474D01*
X58857365Y-75048025D01*
X58883500Y-74950489D01*
X58883500Y-74849511D01*
X58857365Y-74751975D01*
X58841421Y-74724359D01*
X58824948Y-74656463D01*
X58847799Y-74590435D01*
X58886806Y-74554974D01*
X58935474Y-74526876D01*
X59006876Y-74455474D01*
X59057365Y-74368025D01*
X59083500Y-74270489D01*
X59083500Y-74169511D01*
X59057365Y-74071975D01*
X59006876Y-73984526D01*
X58935474Y-73913124D01*
X58848025Y-73862635D01*
X58750489Y-73836500D01*
X58649511Y-73836500D01*
X58551975Y-73862635D01*
X58551973Y-73862635D01*
X58551973Y-73862636D01*
X58464526Y-73913124D01*
X58464523Y-73913126D01*
X58393126Y-73984523D01*
X58393124Y-73984526D01*
X58345737Y-74066603D01*
X58342635Y-74071975D01*
X58316500Y-74169511D01*
X58316500Y-74270489D01*
X58341813Y-74364956D01*
X58342636Y-74368027D01*
X58358577Y-74395637D01*
X58375051Y-74463537D01*
X58352199Y-74529565D01*
X58313193Y-74565025D01*
X58264529Y-74593122D01*
X58264523Y-74593126D01*
X58193126Y-74664523D01*
X58193124Y-74664526D01*
X58144916Y-74748025D01*
X58142635Y-74751975D01*
X58116500Y-74849511D01*
X51494670Y-74849511D01*
X51498638Y-74842638D01*
X51498639Y-74842636D01*
X51510772Y-74821621D01*
X51510772Y-74821620D01*
X51510773Y-74821619D01*
X51533501Y-74736798D01*
X51533501Y-74648986D01*
X51533501Y-74641391D01*
X51533500Y-74641373D01*
X51533500Y-70822586D01*
X51550114Y-70760584D01*
X51551973Y-70757364D01*
X51557365Y-70748025D01*
X51583500Y-70650489D01*
X51583500Y-70549511D01*
X51557365Y-70451975D01*
X51506876Y-70364526D01*
X51435474Y-70293124D01*
X51348025Y-70242635D01*
X51250489Y-70216500D01*
X51149511Y-70216500D01*
X51051975Y-70242635D01*
X51051973Y-70242635D01*
X51051973Y-70242636D01*
X50964526Y-70293124D01*
X50964523Y-70293126D01*
X50893126Y-70364523D01*
X50893124Y-70364526D01*
X50846114Y-70445950D01*
X50842635Y-70451975D01*
X50816500Y-70549511D01*
X50816500Y-70650489D01*
X50840544Y-70740220D01*
X50842636Y-70748027D01*
X50849886Y-70760584D01*
X50866500Y-70822586D01*
X50866500Y-74224788D01*
X50846815Y-74291827D01*
X50794011Y-74337582D01*
X50724853Y-74347526D01*
X50678770Y-74331158D01*
X50665643Y-74323293D01*
X50635474Y-74293124D01*
X50548025Y-74242635D01*
X50517257Y-74234390D01*
X50502379Y-74225476D01*
X50492772Y-74215069D01*
X50478428Y-74206787D01*
X49769819Y-73498178D01*
X49736334Y-73436855D01*
X49733500Y-73410497D01*
X49733500Y-73189501D01*
X49753185Y-73122462D01*
X49769815Y-73101824D01*
X50204771Y-72666868D01*
X50204774Y-72666867D01*
X50266867Y-72604774D01*
X50294701Y-72556561D01*
X50310773Y-72528727D01*
X50333500Y-72443906D01*
X50333500Y-72356094D01*
X50333500Y-71193999D01*
X50353185Y-71126960D01*
X50371668Y-71108162D01*
X50369822Y-71106316D01*
X50464049Y-71012088D01*
X50464050Y-71012087D01*
X50518064Y-70901600D01*
X50528500Y-70829971D01*
X50528499Y-70315030D01*
X50528499Y-70315025D01*
X50525419Y-70293888D01*
X50524593Y-70288218D01*
X50534405Y-70219042D01*
X50565526Y-70179467D01*
X50564720Y-70178661D01*
X50683357Y-70060023D01*
X50683360Y-70060019D01*
X50766273Y-69922863D01*
X50766275Y-69922859D01*
X50813956Y-69769843D01*
X50820000Y-69703337D01*
X50820000Y-69677500D01*
X50124000Y-69677500D01*
X50056961Y-69657815D01*
X50011206Y-69605011D01*
X50000000Y-69553500D01*
X50000000Y-69427500D01*
X49874000Y-69427500D01*
X49806961Y-69407815D01*
X49761206Y-69355011D01*
X49750000Y-69303500D01*
X49750000Y-69177500D01*
X50250000Y-69177500D01*
X50820000Y-69177500D01*
X50820000Y-69151662D01*
X50813956Y-69085156D01*
X50766275Y-68932140D01*
X50766273Y-68932136D01*
X50683360Y-68794980D01*
X50683357Y-68794976D01*
X50570023Y-68681642D01*
X50570019Y-68681639D01*
X50432863Y-68598726D01*
X50432859Y-68598724D01*
X50279843Y-68551043D01*
X50279844Y-68551043D01*
X50250000Y-68548331D01*
X50250000Y-69177500D01*
X49750000Y-69177500D01*
X49750000Y-68548331D01*
X49720155Y-68551043D01*
X49567140Y-68598724D01*
X49567136Y-68598726D01*
X49429980Y-68681639D01*
X49429976Y-68681642D01*
X49316642Y-68794976D01*
X49316638Y-68794981D01*
X49244837Y-68913757D01*
X49193310Y-68960945D01*
X49138720Y-68973608D01*
X49049511Y-68973608D01*
X48951975Y-68999743D01*
X48951973Y-68999743D01*
X48951973Y-68999744D01*
X48864526Y-69050232D01*
X48864523Y-69050234D01*
X48793126Y-69121631D01*
X48793124Y-69121634D01*
X48742972Y-69208500D01*
X48742635Y-69209083D01*
X48716500Y-69306619D01*
X48716500Y-69306621D01*
X48716500Y-69333714D01*
X48714790Y-69339536D01*
X48715939Y-69345495D01*
X48705061Y-69372670D01*
X48696815Y-69400753D01*
X48692229Y-69404726D01*
X48689974Y-69410361D01*
X48666128Y-69427343D01*
X48644011Y-69446508D01*
X48638005Y-69447371D01*
X48633062Y-69450892D01*
X48603825Y-69452286D01*
X48574853Y-69456452D01*
X48567782Y-69454004D01*
X48563271Y-69454220D01*
X48530519Y-69441109D01*
X48530505Y-69441104D01*
X48511790Y-69430300D01*
X48511787Y-69430296D01*
X48511782Y-69430295D01*
X48483953Y-69414227D01*
X48483952Y-69414226D01*
X48483951Y-69414226D01*
X48413780Y-69395424D01*
X48399132Y-69391499D01*
X48311320Y-69391499D01*
X48303724Y-69391499D01*
X48303708Y-69391500D01*
X47722586Y-69391500D01*
X47660584Y-69374886D01*
X47648027Y-69367636D01*
X47648026Y-69367635D01*
X47648025Y-69367635D01*
X47550489Y-69341500D01*
X47449511Y-69341500D01*
X47449509Y-69341500D01*
X47441455Y-69342561D01*
X47441255Y-69341048D01*
X47380527Y-69339595D01*
X47322670Y-69300424D01*
X47295175Y-69236192D01*
X47306771Y-69167291D01*
X47312183Y-69157338D01*
X47366275Y-69067858D01*
X47413956Y-68914843D01*
X47420000Y-68848337D01*
X47420000Y-68822500D01*
X46850000Y-68822500D01*
X46850000Y-69451668D01*
X46879838Y-69448958D01*
X46879844Y-69448956D01*
X46989696Y-69414725D01*
X47059556Y-69413573D01*
X47118949Y-69450374D01*
X47149017Y-69513442D01*
X47149296Y-69550955D01*
X47146480Y-69570314D01*
X47142635Y-69576975D01*
X47116500Y-69674511D01*
X47116500Y-69775489D01*
X47116592Y-69775833D01*
X47115209Y-69785345D01*
X47104232Y-69809278D01*
X47096815Y-69834539D01*
X47089898Y-69840532D01*
X47086082Y-69848854D01*
X47063906Y-69863054D01*
X47044011Y-69880294D01*
X47033369Y-69882608D01*
X47027242Y-69886533D01*
X47015419Y-69886514D01*
X46992500Y-69891500D01*
X46928932Y-69891500D01*
X46903145Y-69894492D01*
X46903143Y-69894492D01*
X46885797Y-69902151D01*
X46816518Y-69911219D01*
X46753335Y-69881393D01*
X46748035Y-69876395D01*
X46542212Y-69670572D01*
X46530368Y-69658728D01*
X46530367Y-69658726D01*
X46468274Y-69596633D01*
X46405255Y-69560249D01*
X46403768Y-69559390D01*
X46396356Y-69553438D01*
X46381598Y-69532258D01*
X46363784Y-69513575D01*
X46361222Y-69503016D01*
X46356412Y-69496113D01*
X46355840Y-69480830D01*
X46350000Y-69456756D01*
X46350000Y-68822500D01*
X45774000Y-68822500D01*
X45706961Y-68802815D01*
X45661206Y-68750011D01*
X45650417Y-68700417D01*
X45650000Y-68700000D01*
X44475000Y-68700000D01*
X44475000Y-68747848D01*
X44475165Y-68750938D01*
X44459085Y-68818932D01*
X44413344Y-68864938D01*
X44364529Y-68893122D01*
X44364523Y-68893126D01*
X44293126Y-68964523D01*
X44293124Y-68964526D01*
X44274398Y-68996961D01*
X44242635Y-69051975D01*
X44216500Y-69149511D01*
X44216500Y-69250489D01*
X44231541Y-69306621D01*
X44234363Y-69317152D01*
X44234147Y-69326199D01*
X44237711Y-69334520D01*
X44233328Y-69360585D01*
X44232700Y-69387002D01*
X44227627Y-69394496D01*
X44226127Y-69403423D01*
X44208350Y-69422979D01*
X44193538Y-69444865D01*
X44183974Y-69449795D01*
X44179130Y-69455125D01*
X44146686Y-69469020D01*
X44142129Y-69470241D01*
X44133366Y-69472589D01*
X44081092Y-69486595D01*
X44011242Y-69484932D01*
X43953380Y-69445768D01*
X43925877Y-69381539D01*
X43925000Y-69366820D01*
X43925000Y-69350000D01*
X43350000Y-69350000D01*
X43350000Y-69822697D01*
X43433066Y-69861819D01*
X43439289Y-69867341D01*
X43447271Y-69869685D01*
X43465032Y-69890182D01*
X43485328Y-69908191D01*
X43487578Y-69916202D01*
X43493026Y-69922489D01*
X43496886Y-69949340D01*
X43504223Y-69975457D01*
X43501785Y-69983410D01*
X43502970Y-69991647D01*
X43489358Y-70023964D01*
X43483752Y-70042261D01*
X43481427Y-70044227D01*
X43479197Y-70048090D01*
X43478611Y-70049483D01*
X43477732Y-70050628D01*
X43473583Y-70057815D01*
X43463373Y-70075500D01*
X43451043Y-70096856D01*
X43433828Y-70126672D01*
X43411100Y-70211493D01*
X43411100Y-70237538D01*
X43391415Y-70304577D01*
X43374781Y-70325219D01*
X43352400Y-70347600D01*
X43352400Y-70876000D01*
X43349849Y-70884685D01*
X43351138Y-70893647D01*
X43340159Y-70917687D01*
X43332715Y-70943039D01*
X43325874Y-70948966D01*
X43322113Y-70957203D01*
X43299878Y-70971492D01*
X43279911Y-70988794D01*
X43269396Y-70991081D01*
X43263335Y-70994977D01*
X43228400Y-71000000D01*
X43200000Y-71000000D01*
X43200000Y-71028400D01*
X43180315Y-71095439D01*
X43127511Y-71141194D01*
X43076000Y-71152400D01*
X42522200Y-71152400D01*
X42522200Y-71200234D01*
X42526125Y-71236747D01*
X42526623Y-71257243D01*
X42521988Y-71336445D01*
X42511376Y-71366061D01*
X42502515Y-71396240D01*
X42499684Y-71398692D01*
X42498421Y-71402220D01*
X42473476Y-71421402D01*
X42449711Y-71441995D01*
X42446004Y-71442527D01*
X42443034Y-71444812D01*
X42411689Y-71447461D01*
X42380553Y-71451939D01*
X42375412Y-71450528D01*
X42373413Y-71450698D01*
X42370599Y-71449208D01*
X42350755Y-71443765D01*
X42348032Y-71442637D01*
X42348025Y-71442635D01*
X42250489Y-71416500D01*
X42244699Y-71416500D01*
X42177660Y-71396815D01*
X42131905Y-71344011D01*
X42121961Y-71274853D01*
X42121994Y-71274624D01*
X42122774Y-71269272D01*
X42128500Y-71229971D01*
X42128499Y-70799755D01*
X42522200Y-70799755D01*
X42522200Y-70847600D01*
X43047600Y-70847600D01*
X43047600Y-70347600D01*
X42974355Y-70347600D01*
X42914827Y-70354001D01*
X42914820Y-70354003D01*
X42780113Y-70404245D01*
X42780106Y-70404249D01*
X42665012Y-70490409D01*
X42665009Y-70490412D01*
X42578849Y-70605506D01*
X42578845Y-70605513D01*
X42528603Y-70740220D01*
X42528601Y-70740227D01*
X42522200Y-70799755D01*
X42128499Y-70799755D01*
X42128499Y-70715030D01*
X42128499Y-70715025D01*
X42124593Y-70688219D01*
X42134405Y-70619042D01*
X42165526Y-70579467D01*
X42164720Y-70578661D01*
X42283357Y-70460023D01*
X42283360Y-70460019D01*
X42366273Y-70322863D01*
X42366275Y-70322859D01*
X42413956Y-70169843D01*
X42420000Y-70103337D01*
X42420000Y-70077500D01*
X40793002Y-70077500D01*
X40763561Y-70068855D01*
X40733575Y-70062332D01*
X40728559Y-70058577D01*
X40725963Y-70057815D01*
X40705321Y-70041181D01*
X40562544Y-69898404D01*
X40529059Y-69837081D01*
X40534043Y-69767389D01*
X40575915Y-69711456D01*
X40641379Y-69687039D01*
X40650225Y-69686723D01*
X40757263Y-69686723D01*
X40757266Y-69686723D01*
X40854802Y-69660588D01*
X40942251Y-69610099D01*
X40942258Y-69610091D01*
X40948697Y-69605152D01*
X40950381Y-69607347D01*
X40999854Y-69580334D01*
X41026212Y-69577500D01*
X42426000Y-69577500D01*
X42493039Y-69597185D01*
X42538794Y-69649989D01*
X42542031Y-69664871D01*
X42543654Y-69664331D01*
X42549999Y-69683395D01*
X42567809Y-69707188D01*
X42682911Y-69793352D01*
X42682913Y-69793354D01*
X42817620Y-69843596D01*
X42817627Y-69843598D01*
X42877155Y-69849999D01*
X42877172Y-69850000D01*
X43000000Y-69850000D01*
X43000000Y-69299000D01*
X43002550Y-69290314D01*
X43001262Y-69281353D01*
X43012240Y-69257312D01*
X43019685Y-69231961D01*
X43026525Y-69226033D01*
X43030287Y-69217797D01*
X43052521Y-69203507D01*
X43072489Y-69186206D01*
X43083003Y-69183918D01*
X43089065Y-69180023D01*
X43124000Y-69175000D01*
X43175000Y-69175000D01*
X43175000Y-69124000D01*
X43194685Y-69056961D01*
X43247489Y-69011206D01*
X43299000Y-69000000D01*
X43925000Y-69000000D01*
X43925000Y-68952172D01*
X43924999Y-68952155D01*
X43918598Y-68892627D01*
X43918596Y-68892620D01*
X43868354Y-68757913D01*
X43868350Y-68757906D01*
X43782190Y-68642812D01*
X43782187Y-68642809D01*
X43683188Y-68568698D01*
X43641317Y-68512764D01*
X43633499Y-68469432D01*
X43633499Y-68329465D01*
X43633499Y-68329464D01*
X43621403Y-68268647D01*
X43621401Y-68268644D01*
X43616728Y-68257361D01*
X43617814Y-68256910D01*
X43600688Y-68202216D01*
X43617000Y-68142747D01*
X43616730Y-68142635D01*
X43617623Y-68140479D01*
X43619171Y-68134836D01*
X43621393Y-68131377D01*
X43621404Y-68131351D01*
X43629786Y-68089210D01*
X43633500Y-68070537D01*
X43633499Y-67679464D01*
X43621403Y-67618647D01*
X43621401Y-67618644D01*
X43616728Y-67607361D01*
X43617814Y-67606910D01*
X43600688Y-67552216D01*
X43617000Y-67492747D01*
X43616730Y-67492635D01*
X43617623Y-67490479D01*
X43619171Y-67484836D01*
X43621393Y-67481377D01*
X43621404Y-67481351D01*
X43629782Y-67439227D01*
X43633500Y-67420537D01*
X43633499Y-67083499D01*
X43653183Y-67016461D01*
X43705987Y-66970706D01*
X43757499Y-66959500D01*
X44436498Y-66959500D01*
X44503537Y-66979185D01*
X44524179Y-66995819D01*
X44730181Y-67201821D01*
X44763666Y-67263144D01*
X44766500Y-67289501D01*
X44766500Y-67420534D01*
X44778597Y-67481353D01*
X44783271Y-67492636D01*
X44782184Y-67493085D01*
X44799312Y-67547789D01*
X44782997Y-67607254D01*
X44783270Y-67607367D01*
X44782371Y-67609536D01*
X44780826Y-67615169D01*
X44778608Y-67618619D01*
X44778595Y-67618651D01*
X44766500Y-67679458D01*
X44766500Y-67819432D01*
X44746815Y-67886471D01*
X44716812Y-67918698D01*
X44617809Y-67992812D01*
X44531649Y-68107906D01*
X44531645Y-68107913D01*
X44481403Y-68242620D01*
X44481401Y-68242627D01*
X44475000Y-68302155D01*
X44475000Y-68350000D01*
X45657332Y-68350000D01*
X45702504Y-68325334D01*
X45728862Y-68322500D01*
X47420000Y-68322500D01*
X47420000Y-68296660D01*
X47419873Y-68293865D01*
X47420000Y-68293859D01*
X47420000Y-68293850D01*
X47420203Y-68293850D01*
X47420988Y-68293814D01*
X47433668Y-68229597D01*
X47482113Y-68179249D01*
X47511528Y-68167144D01*
X47548025Y-68157365D01*
X47635474Y-68106876D01*
X47706876Y-68035474D01*
X47757365Y-67948025D01*
X47783500Y-67850489D01*
X47783500Y-67749511D01*
X47757365Y-67651975D01*
X47755860Y-67649369D01*
X47706879Y-67564531D01*
X47706878Y-67564530D01*
X47706876Y-67564526D01*
X47647564Y-67505214D01*
X51041500Y-67505214D01*
X51041500Y-67644785D01*
X51068725Y-67781654D01*
X51068727Y-67781662D01*
X51122134Y-67910597D01*
X51122139Y-67910607D01*
X51199671Y-68026641D01*
X51199674Y-68026645D01*
X51298354Y-68125325D01*
X51298358Y-68125328D01*
X51414392Y-68202860D01*
X51414396Y-68202862D01*
X51414399Y-68202864D01*
X51543338Y-68256273D01*
X51640724Y-68275644D01*
X51680214Y-68283499D01*
X51680218Y-68283500D01*
X51680219Y-68283500D01*
X51819782Y-68283500D01*
X51819782Y-68283499D01*
X51894135Y-68268710D01*
X51963724Y-68274937D01*
X52006006Y-68302646D01*
X53180181Y-69476821D01*
X53213666Y-69538144D01*
X53216500Y-69564502D01*
X53216500Y-69650489D01*
X53242635Y-69748025D01*
X53293124Y-69835474D01*
X53364526Y-69906876D01*
X53451975Y-69957365D01*
X53549511Y-69983500D01*
X53549514Y-69983500D01*
X53650486Y-69983500D01*
X53650489Y-69983500D01*
X53748025Y-69957365D01*
X53835474Y-69906876D01*
X53906876Y-69835474D01*
X53957365Y-69748025D01*
X53983500Y-69650489D01*
X53983500Y-69549511D01*
X53957365Y-69451975D01*
X53951089Y-69441104D01*
X53950111Y-69439410D01*
X53936080Y-69402576D01*
X53933500Y-69390127D01*
X53933500Y-69381094D01*
X53926163Y-69353712D01*
X53910773Y-69296273D01*
X53887558Y-69256064D01*
X53887558Y-69256063D01*
X53887556Y-69256061D01*
X53884337Y-69250486D01*
X53869985Y-69225626D01*
X53866869Y-69220229D01*
X53866868Y-69220228D01*
X53866867Y-69220226D01*
X53804774Y-69158133D01*
X53804773Y-69158132D01*
X53800443Y-69153802D01*
X53800432Y-69153792D01*
X52477752Y-67831112D01*
X52477646Y-67831006D01*
X52461142Y-67800782D01*
X52444192Y-67769827D01*
X52444191Y-67769738D01*
X52444161Y-67769683D01*
X52441632Y-67734626D01*
X52442180Y-67726825D01*
X52458500Y-67644781D01*
X52458500Y-67505219D01*
X52458499Y-67505214D01*
X53041500Y-67505214D01*
X53041500Y-67644785D01*
X53068725Y-67781654D01*
X53068727Y-67781662D01*
X53122134Y-67910597D01*
X53122139Y-67910607D01*
X53199671Y-68026641D01*
X53199674Y-68026645D01*
X53298354Y-68125325D01*
X53298358Y-68125328D01*
X53414392Y-68202860D01*
X53414396Y-68202862D01*
X53414399Y-68202864D01*
X53543338Y-68256273D01*
X53640724Y-68275644D01*
X53680214Y-68283499D01*
X53680218Y-68283500D01*
X53680219Y-68283500D01*
X53819782Y-68283500D01*
X53819783Y-68283499D01*
X53956662Y-68256273D01*
X54085601Y-68202864D01*
X54201642Y-68125328D01*
X54300328Y-68026642D01*
X54377864Y-67910601D01*
X54431273Y-67781662D01*
X54458500Y-67644781D01*
X54458500Y-67505219D01*
X54458499Y-67505214D01*
X55041500Y-67505214D01*
X55041500Y-67644785D01*
X55068725Y-67781654D01*
X55068727Y-67781662D01*
X55122134Y-67910597D01*
X55122139Y-67910607D01*
X55199671Y-68026641D01*
X55199674Y-68026645D01*
X55298354Y-68125325D01*
X55298358Y-68125328D01*
X55414392Y-68202860D01*
X55414396Y-68202862D01*
X55414399Y-68202864D01*
X55543338Y-68256273D01*
X55640724Y-68275644D01*
X55680214Y-68283499D01*
X55680218Y-68283500D01*
X55680219Y-68283500D01*
X55819782Y-68283500D01*
X55819783Y-68283499D01*
X55956662Y-68256273D01*
X56085601Y-68202864D01*
X56201642Y-68125328D01*
X56300328Y-68026642D01*
X56377864Y-67910601D01*
X56431273Y-67781662D01*
X56458500Y-67644781D01*
X56458500Y-67505219D01*
X56458499Y-67505214D01*
X57041500Y-67505214D01*
X57041500Y-67644785D01*
X57068725Y-67781654D01*
X57068727Y-67781662D01*
X57122134Y-67910597D01*
X57122139Y-67910607D01*
X57199671Y-68026641D01*
X57199674Y-68026645D01*
X57298354Y-68125325D01*
X57298358Y-68125328D01*
X57414392Y-68202860D01*
X57414396Y-68202862D01*
X57414399Y-68202864D01*
X57543338Y-68256273D01*
X57640724Y-68275644D01*
X57680214Y-68283499D01*
X57680218Y-68283500D01*
X57680219Y-68283500D01*
X57819782Y-68283500D01*
X57819783Y-68283499D01*
X57956662Y-68256273D01*
X58085601Y-68202864D01*
X58201642Y-68125328D01*
X58300328Y-68026642D01*
X58377864Y-67910601D01*
X58431273Y-67781662D01*
X58458500Y-67644781D01*
X58458500Y-67505219D01*
X58458499Y-67505214D01*
X59041500Y-67505214D01*
X59041500Y-67644785D01*
X59068725Y-67781654D01*
X59068727Y-67781662D01*
X59122134Y-67910597D01*
X59122139Y-67910607D01*
X59199671Y-68026641D01*
X59199674Y-68026645D01*
X59298354Y-68125325D01*
X59298358Y-68125328D01*
X59414392Y-68202860D01*
X59414396Y-68202862D01*
X59414399Y-68202864D01*
X59543338Y-68256273D01*
X59640724Y-68275644D01*
X59680214Y-68283499D01*
X59680218Y-68283500D01*
X59680219Y-68283500D01*
X59819782Y-68283500D01*
X59819783Y-68283499D01*
X59956662Y-68256273D01*
X60085601Y-68202864D01*
X60201642Y-68125328D01*
X60300328Y-68026642D01*
X60377864Y-67910601D01*
X60431273Y-67781662D01*
X60458500Y-67644781D01*
X60458500Y-67505219D01*
X60431273Y-67368338D01*
X60377864Y-67239399D01*
X60377862Y-67239396D01*
X60377860Y-67239392D01*
X60300328Y-67123358D01*
X60300325Y-67123354D01*
X60201645Y-67024674D01*
X60201641Y-67024671D01*
X60085607Y-66947139D01*
X60085597Y-66947134D01*
X59956662Y-66893727D01*
X59956654Y-66893725D01*
X59819785Y-66866500D01*
X59819781Y-66866500D01*
X59680219Y-66866500D01*
X59680214Y-66866500D01*
X59543345Y-66893725D01*
X59543337Y-66893727D01*
X59414402Y-66947134D01*
X59414392Y-66947139D01*
X59298358Y-67024671D01*
X59298354Y-67024674D01*
X59199674Y-67123354D01*
X59199671Y-67123358D01*
X59122139Y-67239392D01*
X59122134Y-67239402D01*
X59068727Y-67368337D01*
X59068725Y-67368345D01*
X59041500Y-67505214D01*
X58458499Y-67505214D01*
X58431273Y-67368338D01*
X58377864Y-67239399D01*
X58377862Y-67239396D01*
X58377860Y-67239392D01*
X58300328Y-67123358D01*
X58300325Y-67123354D01*
X58201645Y-67024674D01*
X58201641Y-67024671D01*
X58085607Y-66947139D01*
X58085597Y-66947134D01*
X57956662Y-66893727D01*
X57956654Y-66893725D01*
X57819785Y-66866500D01*
X57819781Y-66866500D01*
X57680219Y-66866500D01*
X57680214Y-66866500D01*
X57543345Y-66893725D01*
X57543337Y-66893727D01*
X57414402Y-66947134D01*
X57414392Y-66947139D01*
X57298358Y-67024671D01*
X57298354Y-67024674D01*
X57199674Y-67123354D01*
X57199671Y-67123358D01*
X57122139Y-67239392D01*
X57122134Y-67239402D01*
X57068727Y-67368337D01*
X57068725Y-67368345D01*
X57041500Y-67505214D01*
X56458499Y-67505214D01*
X56431273Y-67368338D01*
X56377864Y-67239399D01*
X56377862Y-67239396D01*
X56377860Y-67239392D01*
X56300328Y-67123358D01*
X56300325Y-67123354D01*
X56201645Y-67024674D01*
X56201641Y-67024671D01*
X56085607Y-66947139D01*
X56085597Y-66947134D01*
X55956662Y-66893727D01*
X55956654Y-66893725D01*
X55819785Y-66866500D01*
X55819781Y-66866500D01*
X55680219Y-66866500D01*
X55680214Y-66866500D01*
X55543345Y-66893725D01*
X55543337Y-66893727D01*
X55414402Y-66947134D01*
X55414392Y-66947139D01*
X55298358Y-67024671D01*
X55298354Y-67024674D01*
X55199674Y-67123354D01*
X55199671Y-67123358D01*
X55122139Y-67239392D01*
X55122134Y-67239402D01*
X55068727Y-67368337D01*
X55068725Y-67368345D01*
X55041500Y-67505214D01*
X54458499Y-67505214D01*
X54431273Y-67368338D01*
X54377864Y-67239399D01*
X54377862Y-67239396D01*
X54377860Y-67239392D01*
X54300328Y-67123358D01*
X54300325Y-67123354D01*
X54201645Y-67024674D01*
X54201641Y-67024671D01*
X54085607Y-66947139D01*
X54085597Y-66947134D01*
X53956662Y-66893727D01*
X53956654Y-66893725D01*
X53819785Y-66866500D01*
X53819781Y-66866500D01*
X53680219Y-66866500D01*
X53680214Y-66866500D01*
X53543345Y-66893725D01*
X53543337Y-66893727D01*
X53414402Y-66947134D01*
X53414392Y-66947139D01*
X53298358Y-67024671D01*
X53298354Y-67024674D01*
X53199674Y-67123354D01*
X53199671Y-67123358D01*
X53122139Y-67239392D01*
X53122134Y-67239402D01*
X53068727Y-67368337D01*
X53068725Y-67368345D01*
X53041500Y-67505214D01*
X52458499Y-67505214D01*
X52431273Y-67368338D01*
X52377864Y-67239399D01*
X52377862Y-67239396D01*
X52377860Y-67239392D01*
X52300328Y-67123358D01*
X52300325Y-67123354D01*
X52201645Y-67024674D01*
X52201641Y-67024671D01*
X52085607Y-66947139D01*
X52085597Y-66947134D01*
X51956662Y-66893727D01*
X51956654Y-66893725D01*
X51819785Y-66866500D01*
X51819781Y-66866500D01*
X51680219Y-66866500D01*
X51680214Y-66866500D01*
X51543345Y-66893725D01*
X51543337Y-66893727D01*
X51414402Y-66947134D01*
X51414392Y-66947139D01*
X51298358Y-67024671D01*
X51298354Y-67024674D01*
X51199674Y-67123354D01*
X51199671Y-67123358D01*
X51122139Y-67239392D01*
X51122134Y-67239402D01*
X51068727Y-67368337D01*
X51068725Y-67368345D01*
X51041500Y-67505214D01*
X47647564Y-67505214D01*
X47635474Y-67493124D01*
X47548025Y-67442635D01*
X47534012Y-67438880D01*
X47478427Y-67406787D01*
X47278375Y-67206735D01*
X47266868Y-67195228D01*
X47266867Y-67195226D01*
X47204774Y-67133133D01*
X47156561Y-67105298D01*
X47147910Y-67100303D01*
X47147909Y-67100302D01*
X47140397Y-67095965D01*
X47092183Y-67045397D01*
X47091001Y-67043043D01*
X47064050Y-66987913D01*
X47064049Y-66987912D01*
X47064049Y-66987911D01*
X46977088Y-66900950D01*
X46866602Y-66846936D01*
X46848692Y-66844327D01*
X46794971Y-66836500D01*
X46794965Y-66836500D01*
X46405030Y-66836500D01*
X46333399Y-66846936D01*
X46222910Y-66900951D01*
X46135952Y-66987910D01*
X46135950Y-66987912D01*
X46108997Y-67043043D01*
X46101272Y-67052576D01*
X46098405Y-67060788D01*
X46084145Y-67073714D01*
X46073978Y-67086263D01*
X46067120Y-67091625D01*
X45995226Y-67133133D01*
X45933133Y-67195226D01*
X45933131Y-67195228D01*
X45927789Y-67200569D01*
X45927785Y-67200573D01*
X45895179Y-67233179D01*
X45833855Y-67266664D01*
X45764164Y-67261678D01*
X45708231Y-67219806D01*
X45683815Y-67154341D01*
X45683499Y-67145497D01*
X45683499Y-67029465D01*
X45682546Y-67024672D01*
X45671403Y-66968647D01*
X45656111Y-66945762D01*
X45625320Y-66899679D01*
X45556352Y-66853596D01*
X45556351Y-66853595D01*
X45495541Y-66841500D01*
X45495537Y-66841500D01*
X45364502Y-66841500D01*
X45335061Y-66832855D01*
X45305075Y-66826332D01*
X45300059Y-66822577D01*
X45297463Y-66821815D01*
X45276821Y-66805181D01*
X45183821Y-66712181D01*
X45150336Y-66650858D01*
X45155320Y-66581166D01*
X45197192Y-66525233D01*
X45262656Y-66500816D01*
X45271502Y-66500500D01*
X60295572Y-66500500D01*
X60304418Y-66500816D01*
X60501338Y-66514900D01*
X60511866Y-66516108D01*
X60554997Y-66522939D01*
X60561919Y-66524239D01*
X60731734Y-66561180D01*
X60743649Y-66564403D01*
X60776846Y-66575189D01*
X60781837Y-66576930D01*
X60953736Y-66641045D01*
X60966661Y-66646726D01*
X60978263Y-66652638D01*
X60981255Y-66654217D01*
X61156974Y-66750166D01*
X61171848Y-66759724D01*
X61314483Y-66866500D01*
X61340353Y-66885866D01*
X61353723Y-66897452D01*
X61502547Y-67046276D01*
X61514133Y-67059646D01*
X61634027Y-67219806D01*
X61640271Y-67228146D01*
X61649835Y-67243029D01*
X61744476Y-67416352D01*
X61745751Y-67418686D01*
X61747388Y-67421787D01*
X61753265Y-67433322D01*
X61758959Y-67446277D01*
X61823067Y-67618159D01*
X61824815Y-67623171D01*
X61835588Y-67656324D01*
X61838824Y-67668287D01*
X61875755Y-67838060D01*
X61877062Y-67845021D01*
X61883888Y-67888120D01*
X61885099Y-67898670D01*
X61899184Y-68095582D01*
X61899500Y-68104429D01*
X61899500Y-80895570D01*
X61899184Y-80904417D01*
X61885099Y-81101328D01*
X61883888Y-81111878D01*
X61877062Y-81154977D01*
X61875755Y-81161938D01*
X61838824Y-81331711D01*
X61835588Y-81343674D01*
X61824815Y-81376827D01*
X61823067Y-81381839D01*
X61758959Y-81553721D01*
X61753261Y-81566683D01*
X61753260Y-81566685D01*
X61747394Y-81578197D01*
X61745743Y-81581326D01*
X61649838Y-81756965D01*
X61640273Y-81771850D01*
X61514133Y-81940353D01*
X61502547Y-81953723D01*
X61353723Y-82102547D01*
X61340353Y-82114133D01*
X61171850Y-82240273D01*
X61156965Y-82249838D01*
X60981326Y-82345743D01*
X60978197Y-82347394D01*
X60966685Y-82353260D01*
X60953721Y-82358959D01*
X60781839Y-82423067D01*
X60776827Y-82424815D01*
X60743674Y-82435588D01*
X60731711Y-82438824D01*
X60561938Y-82475755D01*
X60554977Y-82477062D01*
X60511878Y-82483888D01*
X60501328Y-82485099D01*
X60304418Y-82499184D01*
X60295571Y-82499500D01*
X40918114Y-82499500D01*
X40851075Y-82479815D01*
X40805320Y-82427011D01*
X40795376Y-82357853D01*
X40824401Y-82294297D01*
X40858687Y-82266668D01*
X40864391Y-82263553D01*
X40979487Y-82177391D01*
X40979490Y-82177388D01*
X41065650Y-82062294D01*
X41065654Y-82062287D01*
X41115896Y-81927580D01*
X41115898Y-81927573D01*
X41122299Y-81868045D01*
X41122300Y-81868028D01*
X41122300Y-81740001D01*
X38877700Y-81740001D01*
X38877700Y-81868045D01*
X38884101Y-81927573D01*
X38884103Y-81927580D01*
X38934345Y-82062287D01*
X38934349Y-82062294D01*
X39020509Y-82177388D01*
X39020512Y-82177391D01*
X39135608Y-82263553D01*
X39141313Y-82266668D01*
X39190718Y-82316074D01*
X39205570Y-82384347D01*
X39181153Y-82449811D01*
X39125219Y-82491682D01*
X39081886Y-82499500D01*
X36854114Y-82499500D01*
X36787075Y-82479815D01*
X36741320Y-82427011D01*
X36731376Y-82357853D01*
X36760401Y-82294297D01*
X36794687Y-82266668D01*
X36800391Y-82263553D01*
X36915487Y-82177391D01*
X36915490Y-82177388D01*
X37001650Y-82062294D01*
X37001654Y-82062287D01*
X37051896Y-81927580D01*
X37051898Y-81927573D01*
X37058299Y-81868045D01*
X37058300Y-81868028D01*
X37058300Y-81740001D01*
X34813700Y-81740001D01*
X34813700Y-81868045D01*
X34820101Y-81927573D01*
X34820103Y-81927580D01*
X34870345Y-82062287D01*
X34870349Y-82062294D01*
X34956509Y-82177388D01*
X34956512Y-82177391D01*
X35071608Y-82263553D01*
X35077313Y-82266668D01*
X35126718Y-82316074D01*
X35141570Y-82384347D01*
X35117153Y-82449811D01*
X35061219Y-82491682D01*
X35017886Y-82499500D01*
X30538470Y-82499500D01*
X30471431Y-82479815D01*
X30425676Y-82427011D01*
X30415732Y-82357853D01*
X30439102Y-82306677D01*
X30440126Y-82293678D01*
X29750001Y-81603553D01*
X29750000Y-81603553D01*
X29059873Y-82293677D01*
X29061146Y-82309848D01*
X29077080Y-82330511D01*
X29083060Y-82400124D01*
X29050454Y-82461919D01*
X28989616Y-82496277D01*
X28961529Y-82499500D01*
X20604429Y-82499500D01*
X20595582Y-82499184D01*
X20398670Y-82485099D01*
X20388120Y-82483888D01*
X20345021Y-82477062D01*
X20338060Y-82475755D01*
X20168287Y-82438824D01*
X20156324Y-82435588D01*
X20123171Y-82424815D01*
X20118158Y-82423067D01*
X20069933Y-82405080D01*
X20014000Y-82363208D01*
X19989583Y-82297744D01*
X20004435Y-82229471D01*
X20053840Y-82180066D01*
X20113264Y-82164898D01*
X20865856Y-82164898D01*
X20926673Y-82152802D01*
X20995640Y-82106719D01*
X21041723Y-82037752D01*
X21041723Y-82037750D01*
X21041724Y-82037750D01*
X21053819Y-81976940D01*
X21053820Y-81976936D01*
X21053819Y-81123063D01*
X21041723Y-81062246D01*
X21020556Y-81030568D01*
X20995640Y-80993278D01*
X20926672Y-80947195D01*
X20926671Y-80947194D01*
X20865859Y-80935099D01*
X19834185Y-80935099D01*
X19773366Y-80947196D01*
X19704399Y-80993278D01*
X19658316Y-81062246D01*
X19658315Y-81062247D01*
X19646220Y-81123057D01*
X19646220Y-81903129D01*
X19639981Y-81924374D01*
X19638402Y-81946463D01*
X19630329Y-81957246D01*
X19626535Y-81970168D01*
X19609801Y-81984667D01*
X19596530Y-82002396D01*
X19583909Y-82007103D01*
X19573731Y-82015923D01*
X19551813Y-82019074D01*
X19531066Y-82026813D01*
X19517905Y-82023950D01*
X19504573Y-82025867D01*
X19484429Y-82016667D01*
X19462793Y-82011961D01*
X19445067Y-81998692D01*
X19441017Y-81996842D01*
X19434539Y-81990810D01*
X19397452Y-81953723D01*
X19385866Y-81940353D01*
X19385696Y-81940126D01*
X19259724Y-81771848D01*
X19250166Y-81756974D01*
X19154217Y-81581255D01*
X19152638Y-81578263D01*
X19146726Y-81566661D01*
X19141045Y-81553736D01*
X19076930Y-81381837D01*
X19075183Y-81376827D01*
X19064403Y-81343649D01*
X19061180Y-81331734D01*
X19024239Y-81161919D01*
X19022939Y-81154997D01*
X19016108Y-81111866D01*
X19014900Y-81101338D01*
X19000816Y-80904417D01*
X19000500Y-80895572D01*
X19000500Y-79023059D01*
X19646200Y-79023059D01*
X19646200Y-79876935D01*
X19658297Y-79937754D01*
X19704379Y-80006721D01*
X19773347Y-80052804D01*
X19773348Y-80052805D01*
X19813797Y-80060850D01*
X19834163Y-80064901D01*
X20865836Y-80064900D01*
X20926653Y-80052804D01*
X20995620Y-80006721D01*
X21041703Y-79937754D01*
X21041703Y-79937752D01*
X21041704Y-79937752D01*
X21053799Y-79876942D01*
X21053800Y-79876938D01*
X21053800Y-79754465D01*
X21073483Y-79687429D01*
X21126287Y-79641674D01*
X21195445Y-79631730D01*
X21246688Y-79651365D01*
X21313044Y-79695703D01*
X21313046Y-79695703D01*
X21313047Y-79695704D01*
X21313045Y-79695704D01*
X21353494Y-79703749D01*
X21373860Y-79707800D01*
X21973269Y-79707799D01*
X22040308Y-79727483D01*
X22086063Y-79780287D01*
X22096007Y-79849446D01*
X22066982Y-79913002D01*
X22042162Y-79934899D01*
X22040777Y-79935824D01*
X22040768Y-79935831D01*
X21940431Y-80036168D01*
X21940428Y-80036172D01*
X21861593Y-80154156D01*
X21861588Y-80154166D01*
X21807284Y-80285266D01*
X21807282Y-80285274D01*
X21779600Y-80424442D01*
X21779600Y-80566357D01*
X21807282Y-80705525D01*
X21807284Y-80705533D01*
X21861588Y-80836633D01*
X21861593Y-80836643D01*
X21940428Y-80954627D01*
X21940431Y-80954631D01*
X22040768Y-81054968D01*
X22040772Y-81054971D01*
X22158756Y-81133806D01*
X22158760Y-81133808D01*
X22158763Y-81133810D01*
X22289867Y-81188116D01*
X22425709Y-81215136D01*
X22429042Y-81215799D01*
X22429046Y-81215800D01*
X22429047Y-81215800D01*
X22570954Y-81215800D01*
X22570955Y-81215799D01*
X22710133Y-81188116D01*
X22841237Y-81133810D01*
X22959228Y-81054971D01*
X23059571Y-80954628D01*
X23138410Y-80836637D01*
X23192716Y-80705533D01*
X23220400Y-80566353D01*
X23220400Y-80424447D01*
X23192716Y-80285267D01*
X23138410Y-80154163D01*
X23138408Y-80154160D01*
X23138406Y-80154156D01*
X23059571Y-80036172D01*
X23059568Y-80036168D01*
X22959231Y-79935831D01*
X22959227Y-79935828D01*
X22841243Y-79856993D01*
X22841233Y-79856988D01*
X22710133Y-79802684D01*
X22710125Y-79802682D01*
X22570957Y-79775000D01*
X22570953Y-79775000D01*
X22429047Y-79775000D01*
X22429040Y-79775000D01*
X22426368Y-79775532D01*
X22424941Y-79775404D01*
X22422984Y-79775597D01*
X22422947Y-79775225D01*
X22356777Y-79769302D01*
X22301601Y-79726436D01*
X22278359Y-79660546D01*
X22294431Y-79592549D01*
X22299081Y-79585021D01*
X22299084Y-79585017D01*
X22302000Y-79580653D01*
X22307587Y-79552568D01*
X22310798Y-79536420D01*
X22314097Y-79519837D01*
X22314096Y-77980164D01*
X22302000Y-77919347D01*
X22286381Y-77895972D01*
X22265503Y-77829297D01*
X22283987Y-77761917D01*
X22335965Y-77715226D01*
X22365292Y-77705465D01*
X22535681Y-77671572D01*
X22535693Y-77671569D01*
X22717671Y-77596192D01*
X22717684Y-77596185D01*
X22881462Y-77486751D01*
X22881466Y-77486748D01*
X23020748Y-77347466D01*
X23020751Y-77347462D01*
X23130185Y-77183684D01*
X23130192Y-77183671D01*
X23205569Y-77001692D01*
X23205569Y-77001690D01*
X23213862Y-76960000D01*
X22410988Y-76960000D01*
X22428205Y-76950060D01*
X22484060Y-76894205D01*
X22523556Y-76825796D01*
X22544000Y-76749496D01*
X22544000Y-76670504D01*
X22523556Y-76594204D01*
X22484060Y-76525795D01*
X22428205Y-76469940D01*
X22410988Y-76460000D01*
X23213862Y-76460000D01*
X23205569Y-76418309D01*
X23205569Y-76418307D01*
X23130192Y-76236328D01*
X23130185Y-76236315D01*
X23020751Y-76072537D01*
X23020748Y-76072533D01*
X22881466Y-75933251D01*
X22881462Y-75933248D01*
X22717684Y-75823814D01*
X22717671Y-75823807D01*
X22535693Y-75748430D01*
X22535681Y-75748427D01*
X22342495Y-75710000D01*
X22094000Y-75710000D01*
X22094000Y-76410000D01*
X21594000Y-76410000D01*
X21594000Y-75710000D01*
X21345504Y-75710000D01*
X21152318Y-75748427D01*
X21152306Y-75748430D01*
X20970328Y-75823807D01*
X20970315Y-75823814D01*
X20806537Y-75933248D01*
X20806533Y-75933251D01*
X20667251Y-76072533D01*
X20667248Y-76072537D01*
X20557814Y-76236315D01*
X20557807Y-76236328D01*
X20482430Y-76418307D01*
X20482430Y-76418309D01*
X20474138Y-76460000D01*
X21277012Y-76460000D01*
X21259795Y-76469940D01*
X21203940Y-76525795D01*
X21164444Y-76594204D01*
X21144000Y-76670504D01*
X21144000Y-76749496D01*
X21164444Y-76825796D01*
X21203940Y-76894205D01*
X21259795Y-76950060D01*
X21277012Y-76960000D01*
X20474138Y-76960000D01*
X20482430Y-77001690D01*
X20482430Y-77001692D01*
X20557807Y-77183671D01*
X20557814Y-77183684D01*
X20667248Y-77347462D01*
X20667251Y-77347466D01*
X20806533Y-77486748D01*
X20806537Y-77486751D01*
X20970315Y-77596185D01*
X20970328Y-77596192D01*
X21152306Y-77671569D01*
X21152313Y-77671571D01*
X21156747Y-77672453D01*
X21218661Y-77704833D01*
X21253240Y-77765546D01*
X21249506Y-77835316D01*
X21235668Y-77862962D01*
X21197994Y-77919344D01*
X21197992Y-77919348D01*
X21185897Y-77980158D01*
X21185897Y-78788432D01*
X21166212Y-78855471D01*
X21113408Y-78901226D01*
X21044250Y-78911170D01*
X20993006Y-78891534D01*
X20926652Y-78847197D01*
X20926651Y-78847196D01*
X20865839Y-78835101D01*
X19834165Y-78835101D01*
X19773346Y-78847198D01*
X19704379Y-78893280D01*
X19658296Y-78962248D01*
X19658295Y-78962249D01*
X19646200Y-79023059D01*
X19000500Y-79023059D01*
X19000500Y-68104427D01*
X19000816Y-68095581D01*
X19003040Y-68064487D01*
X19014900Y-67898655D01*
X19016107Y-67888138D01*
X19022941Y-67844989D01*
X19024233Y-67838106D01*
X19028172Y-67820000D01*
X20474138Y-67820000D01*
X21277012Y-67820000D01*
X21259795Y-67829940D01*
X21203940Y-67885795D01*
X21164444Y-67954204D01*
X21144000Y-68030504D01*
X21144000Y-68109496D01*
X21164444Y-68185796D01*
X21203940Y-68254205D01*
X21259795Y-68310060D01*
X21277012Y-68320000D01*
X20474138Y-68320000D01*
X20482430Y-68361690D01*
X20482430Y-68361692D01*
X20557807Y-68543671D01*
X20557814Y-68543684D01*
X20667248Y-68707462D01*
X20667251Y-68707466D01*
X20806533Y-68846748D01*
X20806537Y-68846751D01*
X20970315Y-68956185D01*
X20970328Y-68956192D01*
X21152306Y-69031569D01*
X21152318Y-69031572D01*
X21345504Y-69069999D01*
X21345508Y-69070000D01*
X21594000Y-69070000D01*
X21594000Y-68370000D01*
X22094000Y-68370000D01*
X22094000Y-69070000D01*
X22342492Y-69070000D01*
X22342495Y-69069999D01*
X22535681Y-69031572D01*
X22535693Y-69031569D01*
X22717671Y-68956192D01*
X22717684Y-68956185D01*
X22881462Y-68846751D01*
X22881466Y-68846748D01*
X23020748Y-68707466D01*
X23020751Y-68707462D01*
X23130185Y-68543684D01*
X23130192Y-68543671D01*
X23205569Y-68361692D01*
X23205569Y-68361690D01*
X23213862Y-68320000D01*
X22410988Y-68320000D01*
X22428205Y-68310060D01*
X22484060Y-68254205D01*
X22523556Y-68185796D01*
X22544000Y-68109496D01*
X22544000Y-68030504D01*
X22523556Y-67954204D01*
X22484060Y-67885795D01*
X22428205Y-67829940D01*
X22410988Y-67820000D01*
X23213862Y-67820000D01*
X23205569Y-67778309D01*
X23205569Y-67778307D01*
X23130192Y-67596328D01*
X23130185Y-67596315D01*
X23020751Y-67432537D01*
X23020748Y-67432533D01*
X22881466Y-67293251D01*
X22881462Y-67293248D01*
X22717684Y-67183814D01*
X22717671Y-67183807D01*
X22535693Y-67108430D01*
X22535681Y-67108427D01*
X22342495Y-67070000D01*
X22094000Y-67070000D01*
X22094000Y-67770000D01*
X21594000Y-67770000D01*
X21594000Y-67070000D01*
X21345504Y-67070000D01*
X21152318Y-67108427D01*
X21152306Y-67108430D01*
X20970328Y-67183807D01*
X20970315Y-67183814D01*
X20806537Y-67293248D01*
X20806533Y-67293251D01*
X20667251Y-67432533D01*
X20667248Y-67432537D01*
X20557814Y-67596315D01*
X20557807Y-67596328D01*
X20482430Y-67778307D01*
X20482430Y-67778309D01*
X20474138Y-67820000D01*
X19028172Y-67820000D01*
X19061181Y-67668260D01*
X19064400Y-67656360D01*
X19075199Y-67623124D01*
X19076919Y-67618191D01*
X19141050Y-67446250D01*
X19146720Y-67433351D01*
X19152667Y-67421678D01*
X19154184Y-67418804D01*
X19250166Y-67243025D01*
X19259728Y-67228148D01*
X19365942Y-67086263D01*
X19385867Y-67059644D01*
X19397445Y-67046283D01*
X19546283Y-66897445D01*
X19559647Y-66885866D01*
X19602754Y-66853597D01*
X19728148Y-66759728D01*
X19743025Y-66750166D01*
X19918804Y-66654184D01*
X19921678Y-66652667D01*
X19933351Y-66646720D01*
X19946250Y-66641050D01*
X20118191Y-66576919D01*
X20123124Y-66575199D01*
X20156360Y-66564400D01*
X20168255Y-66561182D01*
X20338093Y-66524236D01*
X20344989Y-66522941D01*
X20388138Y-66516107D01*
X20398655Y-66514900D01*
X20595582Y-66500816D01*
X20604428Y-66500500D01*
X34638852Y-66500500D01*
X34705891Y-66520185D01*
G37*
%TD.AperFunction*%
%TA.AperFunction,Conductor*%
G36*
X32863765Y-75629612D02*
G01*
X32908113Y-75658113D01*
X33015594Y-75765594D01*
X33049079Y-75826917D01*
X33044095Y-75896609D01*
X33015594Y-75940956D01*
X32608301Y-76348249D01*
X32648479Y-76388427D01*
X32648488Y-76388435D01*
X32742348Y-76460458D01*
X32742354Y-76460461D01*
X32888304Y-76520915D01*
X32888308Y-76520916D01*
X33044939Y-76541538D01*
X33044940Y-76541538D01*
X33133556Y-76529871D01*
X33202591Y-76540636D01*
X33237423Y-76565129D01*
X33435661Y-76763367D01*
X33456013Y-76779488D01*
X33563562Y-76821153D01*
X33563564Y-76821153D01*
X33574276Y-76825303D01*
X33573006Y-76828580D01*
X33617665Y-76851275D01*
X33652953Y-76911579D01*
X33652488Y-76963901D01*
X33653852Y-76964081D01*
X33632170Y-77128769D01*
X33652791Y-77285399D01*
X33652792Y-77285403D01*
X33713246Y-77431353D01*
X33713249Y-77431359D01*
X33785278Y-77525227D01*
X33785286Y-77525236D01*
X33825457Y-77565407D01*
X33825458Y-77565407D01*
X34232751Y-77158113D01*
X34240696Y-77153774D01*
X34246122Y-77146527D01*
X34270881Y-77137292D01*
X34294074Y-77124628D01*
X34303103Y-77125273D01*
X34311586Y-77122110D01*
X34337406Y-77127726D01*
X34363765Y-77129612D01*
X34372818Y-77135430D01*
X34379859Y-77136962D01*
X34408113Y-77158113D01*
X34515594Y-77265594D01*
X34549079Y-77326917D01*
X34544095Y-77396609D01*
X34515594Y-77440956D01*
X34108301Y-77848249D01*
X34108301Y-77853768D01*
X34135147Y-77902933D01*
X34130163Y-77972625D01*
X34088291Y-78028558D01*
X34022827Y-78052975D01*
X33989791Y-78050909D01*
X33917681Y-78036566D01*
X33888914Y-78030844D01*
X33742004Y-78030844D01*
X33741999Y-78030844D01*
X33597924Y-78059502D01*
X33597914Y-78059505D01*
X33462192Y-78115722D01*
X33462180Y-78115729D01*
X33436965Y-78132577D01*
X33370287Y-78153454D01*
X33302907Y-78134968D01*
X33256218Y-78082988D01*
X33248303Y-78061573D01*
X33209186Y-77915586D01*
X33145207Y-77804771D01*
X33129907Y-77778270D01*
X33129903Y-77778265D01*
X33017785Y-77666147D01*
X33017780Y-77666143D01*
X32880467Y-77586866D01*
X32880466Y-77586865D01*
X32815654Y-77569499D01*
X32727306Y-77545826D01*
X32568744Y-77545826D01*
X32480394Y-77569499D01*
X32410544Y-77567836D01*
X32352682Y-77528673D01*
X32325178Y-77464444D01*
X32328525Y-77417634D01*
X32352200Y-77329281D01*
X32352200Y-77170719D01*
X32311161Y-77017560D01*
X32254564Y-76919531D01*
X32231882Y-76880244D01*
X32231881Y-76880243D01*
X32231880Y-76880241D01*
X32119818Y-76768179D01*
X32086334Y-76706856D01*
X32083500Y-76680498D01*
X32083500Y-76122812D01*
X32103185Y-76055773D01*
X32155989Y-76010018D01*
X32225147Y-76000074D01*
X32288703Y-76029099D01*
X32295181Y-76035131D01*
X32325457Y-76065407D01*
X32325458Y-76065407D01*
X32732751Y-75658113D01*
X32794074Y-75624628D01*
X32863765Y-75629612D01*
G37*
%TD.AperFunction*%
%TA.AperFunction,Conductor*%
G36*
X27804368Y-74962128D02*
G01*
X27811121Y-74964876D01*
X27903140Y-75005506D01*
X27903142Y-75005507D01*
X27903145Y-75005508D01*
X27928936Y-75008500D01*
X27928938Y-75008500D01*
X28209287Y-75008500D01*
X28276326Y-75028185D01*
X28307663Y-75057013D01*
X28362075Y-75127924D01*
X28487413Y-75224100D01*
X28633365Y-75284554D01*
X28633369Y-75284555D01*
X28750675Y-75299999D01*
X28778863Y-75299999D01*
X28845903Y-75319681D01*
X28891660Y-75372484D01*
X28901605Y-75441642D01*
X28881970Y-75492889D01*
X28844018Y-75549688D01*
X28844014Y-75549695D01*
X28787797Y-75685417D01*
X28787794Y-75685427D01*
X28759136Y-75829502D01*
X28759136Y-75976421D01*
X28787794Y-76120496D01*
X28787796Y-76120504D01*
X28792595Y-76132089D01*
X28844014Y-76256228D01*
X28844019Y-76256237D01*
X28925634Y-76378381D01*
X28925637Y-76378385D01*
X29029512Y-76482260D01*
X29029516Y-76482263D01*
X29151660Y-76563878D01*
X29151669Y-76563883D01*
X29186383Y-76578262D01*
X29240786Y-76622103D01*
X29262851Y-76688397D01*
X29245572Y-76756096D01*
X29194435Y-76803707D01*
X29181406Y-76809321D01*
X29161716Y-76816500D01*
X29149511Y-76816500D01*
X29051975Y-76842635D01*
X28986748Y-76880293D01*
X28976589Y-76883998D01*
X28957556Y-76885218D01*
X28934113Y-76891500D01*
X28359385Y-76891500D01*
X28280923Y-76912524D01*
X28268787Y-76919531D01*
X28239681Y-76936335D01*
X28210577Y-76953138D01*
X28210574Y-76953140D01*
X27669868Y-77493845D01*
X27614283Y-77525938D01*
X27551976Y-77542634D01*
X27551975Y-77542634D01*
X27464526Y-77593124D01*
X27464523Y-77593126D01*
X27393126Y-77664523D01*
X27393124Y-77664526D01*
X27342634Y-77751975D01*
X27342634Y-77751976D01*
X27325938Y-77814283D01*
X27317920Y-77828168D01*
X27314996Y-77841614D01*
X27293845Y-77869868D01*
X27169868Y-77993845D01*
X27114283Y-78025938D01*
X27051976Y-78042634D01*
X27051975Y-78042634D01*
X27019184Y-78061567D01*
X26999272Y-78073063D01*
X26931373Y-78089536D01*
X26865346Y-78066684D01*
X26822155Y-78011763D01*
X26815869Y-77986022D01*
X26815287Y-77986138D01*
X26814098Y-77980158D01*
X26802003Y-77919347D01*
X26766440Y-77866124D01*
X26745562Y-77799447D01*
X26764046Y-77732066D01*
X26816025Y-77685376D01*
X26845355Y-77675615D01*
X26865685Y-77671571D01*
X26865693Y-77671569D01*
X27047671Y-77596192D01*
X27047684Y-77596185D01*
X27211462Y-77486751D01*
X27211466Y-77486748D01*
X27350748Y-77347466D01*
X27350751Y-77347462D01*
X27460185Y-77183684D01*
X27460192Y-77183671D01*
X27535569Y-77001692D01*
X27535569Y-77001690D01*
X27543862Y-76960000D01*
X26740988Y-76960000D01*
X26758205Y-76950060D01*
X26814060Y-76894205D01*
X26853556Y-76825796D01*
X26874000Y-76749496D01*
X26874000Y-76670504D01*
X26853556Y-76594204D01*
X26814060Y-76525795D01*
X26758205Y-76469940D01*
X26740988Y-76460000D01*
X27543862Y-76460000D01*
X27535569Y-76418308D01*
X27535568Y-76418303D01*
X27515400Y-76369615D01*
X27507930Y-76300146D01*
X27530694Y-76247849D01*
X27617352Y-76132089D01*
X27617354Y-76132086D01*
X27667596Y-75997379D01*
X27667598Y-75997372D01*
X27673999Y-75937844D01*
X27674000Y-75937827D01*
X27674000Y-75840000D01*
X26723000Y-75840000D01*
X26655961Y-75820315D01*
X26610206Y-75767511D01*
X26599000Y-75716000D01*
X26599000Y-75464000D01*
X26618685Y-75396961D01*
X26671489Y-75351206D01*
X26723000Y-75340000D01*
X27674000Y-75340000D01*
X27674000Y-75242172D01*
X27673999Y-75242155D01*
X27667598Y-75182627D01*
X27667597Y-75182623D01*
X27644853Y-75121644D01*
X27639869Y-75051953D01*
X27673353Y-74990629D01*
X27734676Y-74957144D01*
X27804368Y-74962128D01*
G37*
%TD.AperFunction*%
%TA.AperFunction,Conductor*%
G36*
X39756094Y-76133501D02*
G01*
X39776922Y-76133501D01*
X39816292Y-76145062D01*
X39843957Y-76153186D01*
X39843957Y-76153187D01*
X39843961Y-76153188D01*
X39866419Y-76179108D01*
X39889712Y-76205990D01*
X39889712Y-76205992D01*
X39889714Y-76205994D01*
X39894397Y-76238571D01*
X39899656Y-76275148D01*
X39899654Y-76275150D01*
X39899655Y-76275152D01*
X39876184Y-76331812D01*
X39856644Y-76357913D01*
X39856485Y-76358205D01*
X39856250Y-76358439D01*
X39851331Y-76365011D01*
X39850385Y-76364303D01*
X39807075Y-76407605D01*
X39738800Y-76422450D01*
X39693231Y-76406828D01*
X39692635Y-76408270D01*
X39681351Y-76403595D01*
X39620539Y-76391500D01*
X38779465Y-76391500D01*
X38718646Y-76403597D01*
X38649679Y-76449679D01*
X38603596Y-76518647D01*
X38603595Y-76518648D01*
X38591500Y-76579458D01*
X38591500Y-76579461D01*
X38591501Y-77426627D01*
X38589049Y-77426627D01*
X38585828Y-77443559D01*
X38583832Y-77471482D01*
X38579389Y-77477415D01*
X38578005Y-77484698D01*
X38558734Y-77505007D01*
X38541960Y-77527415D01*
X38535015Y-77530005D01*
X38529913Y-77535383D01*
X38502722Y-77542050D01*
X38476496Y-77551832D01*
X38469253Y-77550256D01*
X38462053Y-77552022D01*
X38435575Y-77542930D01*
X38408223Y-77536980D01*
X38399729Y-77530621D01*
X38395971Y-77529331D01*
X38379969Y-77515829D01*
X38266437Y-77402297D01*
X38266435Y-77402294D01*
X38223015Y-77358874D01*
X38189530Y-77297551D01*
X38192311Y-77234301D01*
X38213956Y-77164843D01*
X38213957Y-77164838D01*
X38220000Y-77098337D01*
X38220000Y-77072500D01*
X37524000Y-77072500D01*
X37456961Y-77052815D01*
X37411206Y-77000011D01*
X37400000Y-76948500D01*
X37400000Y-76696500D01*
X37419685Y-76629461D01*
X37472489Y-76583706D01*
X37524000Y-76572500D01*
X38220000Y-76572500D01*
X38220000Y-76546662D01*
X38213956Y-76480156D01*
X38166275Y-76327140D01*
X38162956Y-76321650D01*
X38145120Y-76254095D01*
X38166638Y-76187621D01*
X38220678Y-76143334D01*
X38269073Y-76133500D01*
X39748486Y-76133500D01*
X39756091Y-76133500D01*
X39756094Y-76133501D01*
G37*
%TD.AperFunction*%
%TA.AperFunction,Conductor*%
G36*
X44841441Y-72019683D02*
G01*
X44887196Y-72072487D01*
X44898402Y-72123998D01*
X44898402Y-72652398D01*
X44971630Y-72652398D01*
X44971646Y-72652397D01*
X45031174Y-72645996D01*
X45031181Y-72645994D01*
X45165888Y-72595752D01*
X45165895Y-72595748D01*
X45280988Y-72509588D01*
X45348049Y-72420008D01*
X45403983Y-72378137D01*
X45473675Y-72373153D01*
X45534997Y-72406638D01*
X45795226Y-72666867D01*
X45795227Y-72666868D01*
X45795229Y-72666869D01*
X45801348Y-72670402D01*
X45849564Y-72720969D01*
X45862786Y-72789576D01*
X45836818Y-72854441D01*
X45827030Y-72865470D01*
X45792500Y-72900000D01*
X45792500Y-74299999D01*
X45849324Y-74299999D01*
X45966628Y-74284557D01*
X45966633Y-74284555D01*
X46020960Y-74262052D01*
X47569999Y-74262052D01*
X47594209Y-74383758D01*
X47594211Y-74383764D01*
X47641701Y-74498415D01*
X47672156Y-74543994D01*
X47672157Y-74543995D01*
X48016152Y-74200000D01*
X48016152Y-74199999D01*
X47672156Y-73856003D01*
X47672155Y-73856004D01*
X47641707Y-73901574D01*
X47641700Y-73901587D01*
X47594211Y-74016235D01*
X47594209Y-74016241D01*
X47570000Y-74137947D01*
X47570000Y-74262052D01*
X47569999Y-74262052D01*
X46020960Y-74262052D01*
X46112585Y-74224100D01*
X46237924Y-74127924D01*
X46292337Y-74057013D01*
X46348765Y-74015811D01*
X46390713Y-74008500D01*
X46671062Y-74008500D01*
X46671064Y-74008500D01*
X46696855Y-74005508D01*
X46802365Y-73958921D01*
X46883921Y-73877365D01*
X46930508Y-73771855D01*
X46933500Y-73746064D01*
X46933500Y-73657500D01*
X46953185Y-73590461D01*
X47005989Y-73544706D01*
X47057500Y-73533500D01*
X47732847Y-73533500D01*
X47799886Y-73553185D01*
X47845641Y-73605989D01*
X47856250Y-73669654D01*
X47856003Y-73672156D01*
X48291924Y-74108076D01*
X48325181Y-74141333D01*
X48358666Y-74202656D01*
X48361500Y-74229014D01*
X48361500Y-74252691D01*
X48359974Y-74252691D01*
X48350614Y-74312702D01*
X48304232Y-74364956D01*
X48238442Y-74383848D01*
X48200000Y-74383848D01*
X47856003Y-74727843D01*
X47901576Y-74758294D01*
X47901584Y-74758298D01*
X47914969Y-74763842D01*
X47969374Y-74807681D01*
X47991442Y-74873974D01*
X47974165Y-74941674D01*
X47955204Y-74966085D01*
X47929133Y-74992156D01*
X47884568Y-75069343D01*
X47861500Y-75155436D01*
X47861500Y-75244563D01*
X47862275Y-75247455D01*
X47866500Y-75279548D01*
X47866500Y-75956090D01*
X47866499Y-75956094D01*
X47866499Y-76043906D01*
X47889227Y-76128727D01*
X47895306Y-76139256D01*
X47898444Y-76161006D01*
X47895604Y-76180821D01*
X47897745Y-76200726D01*
X47890750Y-76214700D01*
X47888534Y-76230169D01*
X47875432Y-76245303D01*
X47866472Y-76263206D01*
X47853032Y-76271180D01*
X47842805Y-76282995D01*
X47823599Y-76288644D01*
X47806384Y-76298859D01*
X47790768Y-76298301D01*
X47775775Y-76302712D01*
X47756562Y-76297080D01*
X47736559Y-76296367D01*
X47720696Y-76286568D01*
X47708726Y-76283060D01*
X47701466Y-76274690D01*
X47688034Y-76266393D01*
X46973937Y-75552297D01*
X46973935Y-75552294D01*
X46904773Y-75483132D01*
X46856561Y-75455298D01*
X46856561Y-75455297D01*
X46856557Y-75455296D01*
X46828727Y-75439227D01*
X46828726Y-75439226D01*
X46828725Y-75439226D01*
X46774951Y-75424817D01*
X46743906Y-75416499D01*
X46656094Y-75416499D01*
X46648498Y-75416499D01*
X46648482Y-75416500D01*
X46400617Y-75416500D01*
X46333578Y-75396815D01*
X46287823Y-75344011D01*
X46277879Y-75274853D01*
X46280839Y-75260417D01*
X46283500Y-75250489D01*
X46283500Y-75149511D01*
X46257365Y-75051975D01*
X46206876Y-74964526D01*
X46135474Y-74893124D01*
X46048025Y-74842635D01*
X45950489Y-74816500D01*
X45849511Y-74816500D01*
X45751975Y-74842635D01*
X45751973Y-74842635D01*
X45751973Y-74842636D01*
X45664526Y-74893124D01*
X45664523Y-74893126D01*
X45593126Y-74964523D01*
X45593124Y-74964526D01*
X45544916Y-75048025D01*
X45542635Y-75051975D01*
X45516500Y-75149511D01*
X45516500Y-75149513D01*
X45516500Y-75220895D01*
X45513628Y-75230673D01*
X45514894Y-75240785D01*
X45503951Y-75263629D01*
X45496815Y-75287934D01*
X45489113Y-75294607D01*
X45484711Y-75303799D01*
X45463152Y-75317102D01*
X45444011Y-75333689D01*
X45432341Y-75336115D01*
X45425252Y-75340491D01*
X45403264Y-75342163D01*
X45390231Y-75344874D01*
X45382395Y-75344730D01*
X45381855Y-75344492D01*
X45356064Y-75341500D01*
X45205881Y-75341500D01*
X45204734Y-75341479D01*
X45172436Y-75331350D01*
X45139964Y-75321815D01*
X45138645Y-75320752D01*
X45138066Y-75320571D01*
X45137337Y-75319698D01*
X45119322Y-75305181D01*
X44972987Y-75158846D01*
X44953282Y-75133166D01*
X44944370Y-75117732D01*
X44944367Y-75117726D01*
X44882274Y-75055633D01*
X44806226Y-75011727D01*
X44796798Y-75009200D01*
X44780950Y-75004954D01*
X44721290Y-74968588D01*
X44690762Y-74905740D01*
X44699059Y-74836365D01*
X44706929Y-74821030D01*
X44766275Y-74722859D01*
X44813956Y-74569843D01*
X44820000Y-74503337D01*
X44820000Y-74477500D01*
X43180000Y-74477500D01*
X43180000Y-74503337D01*
X43186043Y-74569841D01*
X43193767Y-74594630D01*
X43194917Y-74664490D01*
X43158115Y-74723882D01*
X43095046Y-74753949D01*
X43025733Y-74745145D01*
X42982127Y-74712147D01*
X42982010Y-74712265D01*
X42981164Y-74711419D01*
X42979524Y-74710178D01*
X42977698Y-74707953D01*
X42892043Y-74622298D01*
X42892035Y-74622292D01*
X42791314Y-74554992D01*
X42791310Y-74554990D01*
X42679393Y-74508633D01*
X42679381Y-74508630D01*
X42560576Y-74484998D01*
X42468710Y-74484998D01*
X42401671Y-74465313D01*
X42355916Y-74412509D01*
X42345972Y-74343351D01*
X42362593Y-74296848D01*
X42401275Y-74232859D01*
X42448956Y-74079844D01*
X42451669Y-74050000D01*
X41696500Y-74050000D01*
X41629461Y-74030315D01*
X41583706Y-73977511D01*
X41572500Y-73926000D01*
X41572500Y-73800000D01*
X41446500Y-73800000D01*
X41379461Y-73780315D01*
X41333706Y-73727511D01*
X41322500Y-73676000D01*
X41322500Y-72980000D01*
X41296663Y-72980000D01*
X41230156Y-72986043D01*
X41077140Y-73033724D01*
X41077136Y-73033726D01*
X40939980Y-73116639D01*
X40939975Y-73116643D01*
X40851809Y-73204808D01*
X40843864Y-73209146D01*
X40838440Y-73216392D01*
X40813680Y-73225627D01*
X40790486Y-73238292D01*
X40781457Y-73237646D01*
X40772976Y-73240810D01*
X40747149Y-73235192D01*
X40720794Y-73233307D01*
X40711743Y-73227490D01*
X40704703Y-73225959D01*
X40676453Y-73204811D01*
X40676449Y-73204808D01*
X40652750Y-73181109D01*
X40632274Y-73160633D01*
X40632271Y-73160631D01*
X40498360Y-73026720D01*
X40464875Y-72965397D01*
X40469859Y-72895705D01*
X40511731Y-72839772D01*
X40574825Y-72815547D01*
X40592346Y-72813955D01*
X40745359Y-72766275D01*
X40745363Y-72766273D01*
X40882519Y-72683360D01*
X40882523Y-72683357D01*
X40995857Y-72570023D01*
X40995860Y-72570019D01*
X41078773Y-72432863D01*
X41084853Y-72413352D01*
X41123590Y-72355204D01*
X41187615Y-72327229D01*
X41256601Y-72338310D01*
X41290917Y-72362558D01*
X41595226Y-72666867D01*
X41671274Y-72710773D01*
X41756094Y-72733501D01*
X41756096Y-72733501D01*
X41769637Y-72733501D01*
X41836676Y-72753186D01*
X41882431Y-72805990D01*
X41892375Y-72875148D01*
X41863350Y-72938704D01*
X41857318Y-72945182D01*
X41822500Y-72980000D01*
X41822500Y-73550000D01*
X42451668Y-73550000D01*
X42448956Y-73520155D01*
X42401275Y-73367140D01*
X42401273Y-73367136D01*
X42362202Y-73302504D01*
X42356241Y-73279928D01*
X42346036Y-73258921D01*
X42347487Y-73246774D01*
X42344366Y-73234950D01*
X42351556Y-73212735D01*
X42354329Y-73189546D01*
X42362117Y-73180112D01*
X42365884Y-73168476D01*
X42383943Y-73153675D01*
X42398813Y-73135666D01*
X42410466Y-73131940D01*
X42419925Y-73124189D01*
X42443118Y-73121501D01*
X42465365Y-73114390D01*
X42484627Y-73116692D01*
X42489330Y-73116148D01*
X42500399Y-73118576D01*
X42533366Y-73127410D01*
X42556093Y-73133500D01*
X42556094Y-73133500D01*
X43603546Y-73133500D01*
X43670585Y-73153185D01*
X43716340Y-73205989D01*
X43726284Y-73275147D01*
X43697259Y-73338703D01*
X43640436Y-73375885D01*
X43567140Y-73398724D01*
X43567136Y-73398726D01*
X43429980Y-73481639D01*
X43429976Y-73481642D01*
X43316642Y-73594976D01*
X43316639Y-73594980D01*
X43233726Y-73732136D01*
X43233724Y-73732140D01*
X43186043Y-73885156D01*
X43180000Y-73951662D01*
X43180000Y-73977500D01*
X44826000Y-73977500D01*
X44893039Y-73997185D01*
X44938794Y-74049989D01*
X44950000Y-74101500D01*
X44950000Y-74130170D01*
X45072410Y-74224098D01*
X45072412Y-74224099D01*
X45218365Y-74284554D01*
X45218369Y-74284555D01*
X45335676Y-74299999D01*
X45392499Y-74299998D01*
X45392500Y-74299998D01*
X45392500Y-72900000D01*
X45392499Y-72899999D01*
X45335676Y-72900000D01*
X45218371Y-72915442D01*
X45218366Y-72915444D01*
X45072414Y-72975899D01*
X44947075Y-73072075D01*
X44850899Y-73197413D01*
X44790445Y-73343365D01*
X44790444Y-73343369D01*
X44781535Y-73411039D01*
X44753268Y-73474935D01*
X44694944Y-73513406D01*
X44625079Y-73514237D01*
X44576352Y-73485716D01*
X44575923Y-73486265D01*
X44571888Y-73483103D01*
X44570915Y-73482534D01*
X44570023Y-73481642D01*
X44570019Y-73481639D01*
X44432863Y-73398726D01*
X44432859Y-73398724D01*
X44279842Y-73351043D01*
X44279843Y-73351043D01*
X44218840Y-73345500D01*
X44188730Y-73333606D01*
X44158135Y-73323017D01*
X44156427Y-73320845D01*
X44153856Y-73319830D01*
X44134948Y-73293533D01*
X44114944Y-73268096D01*
X44114681Y-73265345D01*
X44113068Y-73263102D01*
X44111379Y-73230768D01*
X44108302Y-73198543D01*
X44109568Y-73196086D01*
X44109424Y-73193327D01*
X44125482Y-73165216D01*
X44140317Y-73136440D01*
X44143229Y-73134149D01*
X44144081Y-73132659D01*
X44168047Y-73114632D01*
X44168062Y-73114621D01*
X44174725Y-73110773D01*
X44174729Y-73110773D01*
X44219867Y-73084712D01*
X44250776Y-73066867D01*
X44312869Y-73004774D01*
X44312869Y-73004772D01*
X44323072Y-72994570D01*
X44323076Y-72994564D01*
X44417565Y-72900076D01*
X44417570Y-72900072D01*
X44427773Y-72889868D01*
X44427775Y-72889868D01*
X44489868Y-72827775D01*
X44533774Y-72751727D01*
X44539632Y-72729861D01*
X44571727Y-72674272D01*
X44593602Y-72652397D01*
X44593602Y-72123998D01*
X44596152Y-72115312D01*
X44594864Y-72106351D01*
X44605842Y-72082310D01*
X44613287Y-72056959D01*
X44620127Y-72051031D01*
X44623889Y-72042795D01*
X44646123Y-72028505D01*
X44666091Y-72011204D01*
X44676605Y-72008916D01*
X44682667Y-72005021D01*
X44717602Y-71999998D01*
X44774402Y-71999998D01*
X44841441Y-72019683D01*
G37*
%TD.AperFunction*%
%TA.AperFunction,Conductor*%
G36*
X30205998Y-74333501D02*
G01*
X30283306Y-74333501D01*
X30350345Y-74353186D01*
X30396100Y-74405990D01*
X30406044Y-74475148D01*
X30377019Y-74538704D01*
X30370987Y-74545182D01*
X30233134Y-74683034D01*
X30233132Y-74683036D01*
X30222229Y-74701922D01*
X30205298Y-74731248D01*
X30204056Y-74733400D01*
X30189226Y-74759083D01*
X30166499Y-74843904D01*
X30166499Y-74941705D01*
X30166500Y-74941718D01*
X30166500Y-75216050D01*
X30164938Y-75221368D01*
X30166033Y-75226802D01*
X30155201Y-75254529D01*
X30146815Y-75283089D01*
X30142626Y-75286718D01*
X30140609Y-75291882D01*
X30116504Y-75309353D01*
X30094011Y-75328844D01*
X30088525Y-75329632D01*
X30084037Y-75332886D01*
X30054318Y-75334551D01*
X30024853Y-75338788D01*
X30018347Y-75336566D01*
X30014277Y-75336795D01*
X29996769Y-75329199D01*
X29981402Y-75323953D01*
X29977410Y-75321692D01*
X29858205Y-75242042D01*
X29778262Y-75208928D01*
X29771642Y-75205180D01*
X29752403Y-75185338D01*
X29730884Y-75167997D01*
X29728424Y-75160608D01*
X29723004Y-75155018D01*
X29717546Y-75127923D01*
X29708819Y-75101703D01*
X29710744Y-75094158D01*
X29709207Y-75086525D01*
X29719262Y-75060785D01*
X29726098Y-75034003D01*
X29734366Y-75021789D01*
X29749098Y-75002590D01*
X29749099Y-75002587D01*
X29809555Y-74856631D01*
X29817012Y-74800000D01*
X29131500Y-74800000D01*
X29122814Y-74797449D01*
X29113853Y-74798738D01*
X29089812Y-74787759D01*
X29064461Y-74780315D01*
X29058533Y-74773474D01*
X29050297Y-74769713D01*
X29036007Y-74747478D01*
X29018706Y-74727511D01*
X29016418Y-74716996D01*
X29012523Y-74710935D01*
X29007500Y-74676000D01*
X29007500Y-74524000D01*
X29027185Y-74456961D01*
X29079989Y-74411206D01*
X29131500Y-74400000D01*
X29817011Y-74400000D01*
X29838287Y-74375740D01*
X29897289Y-74338317D01*
X29931514Y-74333500D01*
X30205982Y-74333500D01*
X30205998Y-74333501D01*
G37*
%TD.AperFunction*%
%TA.AperFunction,Conductor*%
G36*
X38942539Y-73353185D02*
G01*
X38963181Y-73369819D01*
X39071789Y-73478427D01*
X39103882Y-73534012D01*
X39107637Y-73548025D01*
X39158126Y-73635474D01*
X39229528Y-73706876D01*
X39316977Y-73757365D01*
X39414513Y-73783500D01*
X39414516Y-73783500D01*
X39515488Y-73783500D01*
X39515491Y-73783500D01*
X39613027Y-73757365D01*
X39650501Y-73735728D01*
X39718397Y-73719256D01*
X39784424Y-73742107D01*
X39827616Y-73797027D01*
X39836500Y-73843115D01*
X39836500Y-73994969D01*
X39841149Y-74026875D01*
X39846936Y-74066600D01*
X39846936Y-74066601D01*
X39846937Y-74066603D01*
X39847753Y-74069244D01*
X39847798Y-74072517D01*
X39848325Y-74076129D01*
X39847850Y-74076198D01*
X39848732Y-74139107D01*
X39811786Y-74198409D01*
X39748643Y-74228322D01*
X39692387Y-74224230D01*
X39569838Y-74186042D01*
X39503337Y-74180000D01*
X39477500Y-74180000D01*
X39477500Y-74876000D01*
X39457815Y-74943039D01*
X39405011Y-74988794D01*
X39353500Y-75000000D01*
X39227500Y-75000000D01*
X39227500Y-75126000D01*
X39207815Y-75193039D01*
X39155011Y-75238794D01*
X39103500Y-75250000D01*
X38348331Y-75250000D01*
X38316287Y-75285088D01*
X38290163Y-75300928D01*
X38265286Y-75318646D01*
X38260575Y-75318870D01*
X38256543Y-75321316D01*
X38226007Y-75320519D01*
X38195495Y-75321974D01*
X38189478Y-75319565D01*
X38186698Y-75319493D01*
X38162729Y-75308858D01*
X38151790Y-75302543D01*
X38151785Y-75302540D01*
X38128727Y-75289227D01*
X38043906Y-75266499D01*
X37956094Y-75266499D01*
X37948498Y-75266499D01*
X37948482Y-75266500D01*
X37944000Y-75266500D01*
X37876961Y-75246815D01*
X37856319Y-75230182D01*
X37817638Y-75191501D01*
X37777087Y-75150950D01*
X37777085Y-75150949D01*
X37769822Y-75143686D01*
X37769822Y-75143685D01*
X37769819Y-75143682D01*
X37736334Y-75082359D01*
X37733500Y-75056001D01*
X37733500Y-74853908D01*
X37733501Y-74853895D01*
X37733501Y-74756096D01*
X37733501Y-74756094D01*
X37710773Y-74671273D01*
X37681905Y-74621273D01*
X37666867Y-74595226D01*
X37612838Y-74541197D01*
X37609234Y-74536871D01*
X37597486Y-74509769D01*
X37583338Y-74483857D01*
X37583751Y-74478080D01*
X37581447Y-74472764D01*
X37586216Y-74443614D01*
X37588323Y-74414165D01*
X37591793Y-74409528D01*
X37592729Y-74403812D01*
X37612495Y-74381874D01*
X37630194Y-74358232D01*
X37635622Y-74356207D01*
X37639499Y-74351905D01*
X37667988Y-74344136D01*
X37695659Y-74333816D01*
X37704504Y-74333500D01*
X38189192Y-74333500D01*
X38189193Y-74333499D01*
X38268234Y-74317777D01*
X38268235Y-74317777D01*
X38268235Y-74317776D01*
X38268239Y-74317776D01*
X38276823Y-74312039D01*
X38343497Y-74291162D01*
X38410877Y-74309645D01*
X38457569Y-74361623D01*
X38468747Y-74430592D01*
X38451830Y-74479291D01*
X38398726Y-74567136D01*
X38398724Y-74567140D01*
X38351043Y-74720155D01*
X38348331Y-74750000D01*
X38977500Y-74750000D01*
X38977500Y-74180000D01*
X38951663Y-74180000D01*
X38885156Y-74186043D01*
X38732140Y-74233724D01*
X38732136Y-74233726D01*
X38599845Y-74313698D01*
X38532290Y-74331534D01*
X38465817Y-74310016D01*
X38421529Y-74255975D01*
X38413489Y-74186569D01*
X38415542Y-74179471D01*
X38429743Y-74108076D01*
X38433500Y-74089190D01*
X38433500Y-73910810D01*
X38433500Y-73910807D01*
X38433499Y-73910805D01*
X38417777Y-73831765D01*
X38417776Y-73831761D01*
X38411070Y-73821725D01*
X38409175Y-73818889D01*
X38388298Y-73752214D01*
X38406782Y-73684834D01*
X38409175Y-73681111D01*
X38417776Y-73668239D01*
X38433500Y-73589190D01*
X38433500Y-73457500D01*
X38453185Y-73390461D01*
X38505989Y-73344706D01*
X38557500Y-73333500D01*
X38875500Y-73333500D01*
X38942539Y-73353185D01*
G37*
%TD.AperFunction*%
%TA.AperFunction,Conductor*%
G36*
X36867065Y-70418586D02*
G01*
X36887054Y-70418944D01*
X36912168Y-70430959D01*
X36915166Y-70431782D01*
X36918870Y-70434162D01*
X36922939Y-70436881D01*
X36931761Y-70442776D01*
X36931765Y-70442777D01*
X37010805Y-70458499D01*
X37010808Y-70458500D01*
X37010810Y-70458500D01*
X37017500Y-70458500D01*
X37084539Y-70478185D01*
X37130294Y-70530989D01*
X37137214Y-70550180D01*
X37141500Y-70566055D01*
X37141500Y-70589190D01*
X37157224Y-70668239D01*
X37177130Y-70698031D01*
X37182435Y-70717680D01*
X37182097Y-70733085D01*
X37186701Y-70747789D01*
X37181347Y-70767302D01*
X37180904Y-70787533D01*
X37172291Y-70800309D01*
X37168215Y-70815168D01*
X37165824Y-70818889D01*
X37157223Y-70831760D01*
X37141501Y-70910802D01*
X37141500Y-70910807D01*
X37141500Y-70910810D01*
X37141500Y-71089190D01*
X37141500Y-71089192D01*
X37141499Y-71089192D01*
X37157223Y-71168239D01*
X37165824Y-71181111D01*
X37186701Y-71247789D01*
X37168215Y-71315168D01*
X37165824Y-71318889D01*
X37157223Y-71331760D01*
X37141500Y-71410807D01*
X37141500Y-71410810D01*
X37141500Y-71589190D01*
X37141500Y-71589192D01*
X37141499Y-71589192D01*
X37157223Y-71668239D01*
X37165824Y-71681111D01*
X37186701Y-71747789D01*
X37180535Y-71788676D01*
X37175245Y-71804790D01*
X37157224Y-71831761D01*
X37143128Y-71902623D01*
X37140787Y-71909756D01*
X37125062Y-71932603D01*
X37112205Y-71957183D01*
X37101673Y-71966586D01*
X37101175Y-71967311D01*
X37100585Y-71967557D01*
X37098460Y-71969456D01*
X37011320Y-72036320D01*
X36921156Y-72153824D01*
X36864478Y-72290657D01*
X36864478Y-72290659D01*
X36853373Y-72375000D01*
X37663500Y-72375000D01*
X37672185Y-72377550D01*
X37681147Y-72376262D01*
X37705187Y-72387240D01*
X37730539Y-72394685D01*
X37736466Y-72401525D01*
X37744703Y-72405287D01*
X37758992Y-72427521D01*
X37776294Y-72447489D01*
X37778581Y-72458003D01*
X37782477Y-72464065D01*
X37787500Y-72499000D01*
X37787500Y-72501000D01*
X37767815Y-72568039D01*
X37715011Y-72613794D01*
X37663500Y-72625000D01*
X36853374Y-72625000D01*
X36864478Y-72709340D01*
X36864478Y-72709342D01*
X36921156Y-72846175D01*
X37011320Y-72963679D01*
X37098460Y-73030544D01*
X37109971Y-73046309D01*
X37125119Y-73058619D01*
X37133567Y-73078624D01*
X37139662Y-73086972D01*
X37140787Y-73090244D01*
X37143128Y-73097376D01*
X37157224Y-73168239D01*
X37175245Y-73195209D01*
X37180535Y-73211324D01*
X37181124Y-73229978D01*
X37186701Y-73247789D01*
X37182205Y-73264175D01*
X37182742Y-73281159D01*
X37173152Y-73297171D01*
X37168215Y-73315168D01*
X37165824Y-73318889D01*
X37157223Y-73331760D01*
X37141500Y-73410807D01*
X37141500Y-73410810D01*
X37141500Y-73589190D01*
X37141500Y-73589192D01*
X37141499Y-73589192D01*
X37157223Y-73668239D01*
X37165824Y-73681111D01*
X37171796Y-73700187D01*
X37182303Y-73717196D01*
X37182023Y-73732849D01*
X37186701Y-73747789D01*
X37181412Y-73767066D01*
X37181055Y-73787054D01*
X37169036Y-73812173D01*
X37168215Y-73815168D01*
X37165822Y-73818892D01*
X37163929Y-73821725D01*
X37110317Y-73866529D01*
X37040992Y-73875236D01*
X36985342Y-73851209D01*
X36946178Y-73821157D01*
X36809341Y-73764478D01*
X36725000Y-73753373D01*
X36725000Y-74563500D01*
X36722449Y-74572185D01*
X36723738Y-74581147D01*
X36712759Y-74605187D01*
X36705315Y-74630539D01*
X36698474Y-74636466D01*
X36694713Y-74644703D01*
X36672478Y-74658992D01*
X36652511Y-74676294D01*
X36641996Y-74678581D01*
X36635935Y-74682477D01*
X36601000Y-74687500D01*
X36599000Y-74687500D01*
X36531961Y-74667815D01*
X36486206Y-74615011D01*
X36475000Y-74563500D01*
X36475000Y-73753373D01*
X36390659Y-73764478D01*
X36390657Y-73764478D01*
X36253824Y-73821156D01*
X36136320Y-73911320D01*
X36069456Y-73998460D01*
X36053690Y-74009971D01*
X36041381Y-74025119D01*
X36021375Y-74033567D01*
X36013028Y-74039662D01*
X36009756Y-74040787D01*
X36002623Y-74043128D01*
X35931761Y-74057224D01*
X35904790Y-74075245D01*
X35888676Y-74080535D01*
X35870021Y-74081124D01*
X35852211Y-74086701D01*
X35835824Y-74082205D01*
X35818841Y-74082742D01*
X35802828Y-74073152D01*
X35784832Y-74068215D01*
X35781111Y-74065824D01*
X35768239Y-74057223D01*
X35689192Y-74041500D01*
X35689190Y-74041500D01*
X35510810Y-74041500D01*
X35510808Y-74041500D01*
X35431760Y-74057223D01*
X35418889Y-74065824D01*
X35352211Y-74086701D01*
X35284832Y-74068215D01*
X35281111Y-74065824D01*
X35268239Y-74057223D01*
X35189192Y-74041500D01*
X35189190Y-74041500D01*
X35010810Y-74041500D01*
X35010808Y-74041500D01*
X34931760Y-74057223D01*
X34918889Y-74065824D01*
X34852211Y-74086701D01*
X34784832Y-74068215D01*
X34781111Y-74065824D01*
X34768239Y-74057223D01*
X34689192Y-74041500D01*
X34689190Y-74041500D01*
X34510810Y-74041500D01*
X34510808Y-74041500D01*
X34431760Y-74057223D01*
X34418889Y-74065824D01*
X34352211Y-74086701D01*
X34284832Y-74068215D01*
X34281111Y-74065824D01*
X34268239Y-74057223D01*
X34189192Y-74041500D01*
X34189190Y-74041500D01*
X34010810Y-74041500D01*
X34010808Y-74041500D01*
X33931760Y-74057223D01*
X33918889Y-74065824D01*
X33852211Y-74086701D01*
X33817680Y-74082435D01*
X33798031Y-74077130D01*
X33768239Y-74057224D01*
X33689190Y-74041500D01*
X33666055Y-74041500D01*
X33650180Y-74037214D01*
X33633840Y-74027211D01*
X33615461Y-74021815D01*
X33604658Y-74009348D01*
X33590589Y-74000736D01*
X33582250Y-73983488D01*
X33569706Y-73969011D01*
X33565169Y-73948155D01*
X33560178Y-73937832D01*
X33561161Y-73929734D01*
X33558500Y-73917500D01*
X33558500Y-73910807D01*
X33558499Y-73910805D01*
X33542777Y-73831765D01*
X33542776Y-73831761D01*
X33536070Y-73821725D01*
X33534175Y-73818889D01*
X33513298Y-73752214D01*
X33531782Y-73684834D01*
X33534175Y-73681111D01*
X33542776Y-73668239D01*
X33558500Y-73589190D01*
X33558500Y-73410810D01*
X33558500Y-73410807D01*
X33558499Y-73410805D01*
X33542777Y-73331765D01*
X33542776Y-73331761D01*
X33536933Y-73323017D01*
X33534175Y-73318889D01*
X33513298Y-73252214D01*
X33531782Y-73184834D01*
X33534162Y-73181129D01*
X33542776Y-73168239D01*
X33558500Y-73089190D01*
X33558500Y-72910810D01*
X33558500Y-72910807D01*
X33558499Y-72910805D01*
X33542777Y-72831765D01*
X33542776Y-72831761D01*
X33540113Y-72827776D01*
X33534175Y-72818889D01*
X33513298Y-72752214D01*
X33531782Y-72684834D01*
X33534162Y-72681129D01*
X33542776Y-72668239D01*
X33558500Y-72589190D01*
X33558500Y-72410810D01*
X33558500Y-72410807D01*
X33558499Y-72410805D01*
X33542777Y-72331765D01*
X33542776Y-72331761D01*
X33537650Y-72324090D01*
X33534175Y-72318889D01*
X33513298Y-72252214D01*
X33531782Y-72184834D01*
X33534162Y-72181129D01*
X33542776Y-72168239D01*
X33558500Y-72089190D01*
X33558500Y-71910810D01*
X33558500Y-71910807D01*
X33558499Y-71910805D01*
X33542777Y-71831765D01*
X33542776Y-71831761D01*
X33539636Y-71827062D01*
X33534175Y-71818889D01*
X33513298Y-71752214D01*
X33531782Y-71684834D01*
X33534175Y-71681111D01*
X33542776Y-71668239D01*
X33558500Y-71589190D01*
X33558500Y-71410810D01*
X33558500Y-71410807D01*
X33558499Y-71410805D01*
X33542777Y-71331765D01*
X33542776Y-71331761D01*
X33541083Y-71329227D01*
X33534175Y-71318889D01*
X33513298Y-71252214D01*
X33531782Y-71184834D01*
X33534175Y-71181111D01*
X33542776Y-71168239D01*
X33558500Y-71089190D01*
X33558500Y-70910810D01*
X33558500Y-70910807D01*
X33558499Y-70910802D01*
X33555025Y-70893341D01*
X33561250Y-70823749D01*
X33604111Y-70768570D01*
X33669999Y-70745323D01*
X33693218Y-70750809D01*
X33809334Y-70735523D01*
X33809342Y-70735521D01*
X33946175Y-70678843D01*
X34063680Y-70588678D01*
X34130542Y-70501541D01*
X34146306Y-70490029D01*
X34158618Y-70474880D01*
X34178622Y-70466432D01*
X34186970Y-70460337D01*
X34190243Y-70459212D01*
X34197366Y-70456873D01*
X34268239Y-70442776D01*
X34295212Y-70424753D01*
X34311324Y-70419464D01*
X34329976Y-70418874D01*
X34347786Y-70413298D01*
X34364174Y-70417793D01*
X34381159Y-70417257D01*
X34397167Y-70426844D01*
X34415166Y-70431782D01*
X34418870Y-70434162D01*
X34422939Y-70436881D01*
X34431761Y-70442776D01*
X34431765Y-70442777D01*
X34510805Y-70458499D01*
X34510808Y-70458500D01*
X34510810Y-70458500D01*
X34689192Y-70458500D01*
X34689193Y-70458499D01*
X34768239Y-70442776D01*
X34781110Y-70434175D01*
X34847786Y-70413298D01*
X34915166Y-70431782D01*
X34918870Y-70434162D01*
X34922939Y-70436881D01*
X34931761Y-70442776D01*
X34931765Y-70442777D01*
X35010805Y-70458499D01*
X35010808Y-70458500D01*
X35010810Y-70458500D01*
X35189192Y-70458500D01*
X35189193Y-70458499D01*
X35268239Y-70442776D01*
X35281110Y-70434175D01*
X35347786Y-70413298D01*
X35415166Y-70431782D01*
X35418870Y-70434162D01*
X35422939Y-70436881D01*
X35431761Y-70442776D01*
X35431765Y-70442777D01*
X35510805Y-70458499D01*
X35510808Y-70458500D01*
X35510810Y-70458500D01*
X35689192Y-70458500D01*
X35689193Y-70458499D01*
X35768239Y-70442776D01*
X35781110Y-70434175D01*
X35847786Y-70413298D01*
X35915166Y-70431782D01*
X35918870Y-70434162D01*
X35922939Y-70436881D01*
X35931761Y-70442776D01*
X35931765Y-70442777D01*
X36010805Y-70458499D01*
X36010808Y-70458500D01*
X36010810Y-70458500D01*
X36189192Y-70458500D01*
X36189193Y-70458499D01*
X36268239Y-70442776D01*
X36281110Y-70434175D01*
X36347786Y-70413298D01*
X36415166Y-70431782D01*
X36418870Y-70434162D01*
X36422939Y-70436881D01*
X36431761Y-70442776D01*
X36431765Y-70442777D01*
X36510805Y-70458499D01*
X36510808Y-70458500D01*
X36510810Y-70458500D01*
X36689192Y-70458500D01*
X36689193Y-70458499D01*
X36768239Y-70442776D01*
X36781110Y-70434175D01*
X36800186Y-70428202D01*
X36817195Y-70417696D01*
X36832847Y-70417975D01*
X36847786Y-70413298D01*
X36867065Y-70418586D01*
G37*
%TD.AperFunction*%
%TA.AperFunction,Conductor*%
G36*
X30069233Y-73040873D02*
G01*
X30126792Y-73098432D01*
X30126802Y-73098443D01*
X30131132Y-73102773D01*
X30131133Y-73102774D01*
X30193226Y-73164867D01*
X30193228Y-73164868D01*
X30193229Y-73164869D01*
X30201273Y-73169513D01*
X30235419Y-73189227D01*
X30269273Y-73208773D01*
X30283370Y-73212550D01*
X30294300Y-73217935D01*
X30311405Y-73233660D01*
X30331252Y-73245756D01*
X30336649Y-73256865D01*
X30345738Y-73265221D01*
X30351627Y-73287697D01*
X30361783Y-73308603D01*
X30363500Y-73329169D01*
X30363500Y-73370997D01*
X30343815Y-73438036D01*
X30327181Y-73458678D01*
X30155679Y-73630181D01*
X30094356Y-73663666D01*
X30067998Y-73666500D01*
X29876003Y-73666500D01*
X29846562Y-73657855D01*
X29816576Y-73651332D01*
X29811560Y-73647577D01*
X29808964Y-73646815D01*
X29788322Y-73630181D01*
X29711847Y-73553706D01*
X29678362Y-73492383D01*
X29683346Y-73422691D01*
X29703822Y-73390829D01*
X29702147Y-73389544D01*
X29799261Y-73262981D01*
X29799263Y-73262979D01*
X29857198Y-73123108D01*
X29857200Y-73123102D01*
X29858613Y-73112371D01*
X29886878Y-73048474D01*
X29945202Y-73010002D01*
X30015067Y-73009169D01*
X30069233Y-73040873D01*
G37*
%TD.AperFunction*%
%TA.AperFunction,Conductor*%
G36*
X49585834Y-71246841D02*
G01*
X49641767Y-71288713D01*
X49666184Y-71354177D01*
X49666500Y-71363023D01*
X49666500Y-72210497D01*
X49646815Y-72277536D01*
X49630181Y-72298178D01*
X49195229Y-72733129D01*
X49195228Y-72733131D01*
X49195226Y-72733133D01*
X49178359Y-72750000D01*
X49133134Y-72795224D01*
X49120639Y-72816867D01*
X49120638Y-72816866D01*
X49089227Y-72871272D01*
X49089226Y-72871275D01*
X49066499Y-72956094D01*
X49066499Y-73053895D01*
X49066500Y-73053908D01*
X49066500Y-73095498D01*
X49046815Y-73162537D01*
X48994011Y-73208292D01*
X48924853Y-73218236D01*
X48861297Y-73189211D01*
X48854819Y-73183179D01*
X48673937Y-73002297D01*
X48673935Y-73002294D01*
X48659322Y-72987681D01*
X48625837Y-72926358D01*
X48630821Y-72856666D01*
X48659322Y-72812319D01*
X48690969Y-72780672D01*
X48716867Y-72754774D01*
X48716867Y-72754773D01*
X48734300Y-72737340D01*
X48734309Y-72737330D01*
X48750671Y-72720969D01*
X48849742Y-72621899D01*
X48893648Y-72545851D01*
X48905842Y-72500339D01*
X48917522Y-72472143D01*
X48917708Y-72471349D01*
X48917947Y-72471116D01*
X48918227Y-72470440D01*
X48940240Y-72432315D01*
X48966375Y-72334779D01*
X48966375Y-72233801D01*
X48940240Y-72136265D01*
X48889751Y-72048816D01*
X48873228Y-72032293D01*
X48839743Y-71970970D01*
X48844727Y-71901278D01*
X48873225Y-71856934D01*
X49454821Y-71275340D01*
X49516142Y-71241857D01*
X49585834Y-71246841D01*
G37*
%TD.AperFunction*%
%TA.AperFunction,Conductor*%
G36*
X39359539Y-68255185D02*
G01*
X39405294Y-68307989D01*
X39416500Y-68359500D01*
X39416500Y-68698481D01*
X39416499Y-68698499D01*
X39416499Y-68793905D01*
X39439227Y-68878728D01*
X39444734Y-68888265D01*
X39449433Y-68896403D01*
X39483133Y-68954774D01*
X39545226Y-69016867D01*
X39545228Y-69016868D01*
X39557157Y-69028797D01*
X39561445Y-69034157D01*
X39568252Y-69050760D01*
X39588666Y-69088144D01*
X39591500Y-69114502D01*
X39591500Y-69256064D01*
X39594492Y-69281855D01*
X39620052Y-69339744D01*
X39624543Y-69349914D01*
X39633614Y-69419192D01*
X39624543Y-69450084D01*
X39623445Y-69452573D01*
X39594492Y-69518144D01*
X39591500Y-69543932D01*
X39591500Y-70071067D01*
X39594492Y-70096856D01*
X39632186Y-70182224D01*
X39641079Y-70202365D01*
X39722635Y-70283921D01*
X39828143Y-70330507D01*
X39828142Y-70330507D01*
X39828145Y-70330508D01*
X39853936Y-70333500D01*
X40002998Y-70333500D01*
X40070037Y-70353185D01*
X40090679Y-70369819D01*
X40526431Y-70805571D01*
X40541134Y-70832498D01*
X40557727Y-70858317D01*
X40558618Y-70864517D01*
X40559916Y-70866894D01*
X40562750Y-70893252D01*
X40562750Y-71065888D01*
X40543065Y-71132927D01*
X40526431Y-71153569D01*
X40500000Y-71180000D01*
X40500000Y-71876000D01*
X40480315Y-71943039D01*
X40427511Y-71988794D01*
X40376000Y-72000000D01*
X40124000Y-72000000D01*
X40056961Y-71980315D01*
X40011206Y-71927511D01*
X40000000Y-71876000D01*
X40000000Y-71180000D01*
X39974163Y-71180000D01*
X39907656Y-71186043D01*
X39754640Y-71233724D01*
X39754636Y-71233726D01*
X39617480Y-71316639D01*
X39595180Y-71338939D01*
X39533856Y-71372423D01*
X39464164Y-71367437D01*
X39408232Y-71325565D01*
X39383816Y-71260100D01*
X39383500Y-71251256D01*
X39383500Y-71149513D01*
X39383500Y-71149511D01*
X39357365Y-71051975D01*
X39357363Y-71051972D01*
X39357363Y-71051970D01*
X39357362Y-71051969D01*
X39305418Y-70962001D01*
X39288944Y-70894101D01*
X39305418Y-70837999D01*
X39310057Y-70829965D01*
X39357365Y-70748025D01*
X39383500Y-70650489D01*
X39383500Y-70549511D01*
X39357365Y-70451975D01*
X39306876Y-70364526D01*
X39295221Y-70352871D01*
X39261736Y-70291548D01*
X39266720Y-70221856D01*
X39275516Y-70203189D01*
X39307362Y-70148030D01*
X39307365Y-70148025D01*
X39333500Y-70050489D01*
X39333500Y-69949511D01*
X39307365Y-69851975D01*
X39256876Y-69764526D01*
X39185474Y-69693124D01*
X39098025Y-69642635D01*
X39000489Y-69616500D01*
X38899511Y-69616500D01*
X38801975Y-69642635D01*
X38746112Y-69674887D01*
X38684113Y-69691500D01*
X38307500Y-69691500D01*
X38240461Y-69671815D01*
X38194706Y-69619011D01*
X38183500Y-69567500D01*
X38183500Y-69482015D01*
X38183500Y-69482013D01*
X38157365Y-69384477D01*
X38106876Y-69297028D01*
X38035474Y-69225626D01*
X37948025Y-69175137D01*
X37850489Y-69149002D01*
X37749511Y-69149002D01*
X37651975Y-69175137D01*
X37651973Y-69175137D01*
X37651973Y-69175138D01*
X37564526Y-69225626D01*
X37564523Y-69225628D01*
X37540637Y-69249515D01*
X37479314Y-69283000D01*
X37409622Y-69278016D01*
X37379450Y-69261698D01*
X37362746Y-69249403D01*
X37357880Y-69242120D01*
X37303362Y-69205692D01*
X37301090Y-69204020D01*
X37281572Y-69178382D01*
X37260900Y-69153646D01*
X37260482Y-69150677D01*
X37258768Y-69148426D01*
X37256945Y-69125541D01*
X37251658Y-69087965D01*
X37252313Y-69082991D01*
X37252313Y-68982015D01*
X37252313Y-68982013D01*
X37226178Y-68884477D01*
X37175689Y-68797028D01*
X37175687Y-68797026D01*
X37173634Y-68794350D01*
X37173360Y-68793643D01*
X37172755Y-68793190D01*
X37160777Y-68761090D01*
X37148442Y-68729180D01*
X37148593Y-68728439D01*
X37148329Y-68727730D01*
X37155609Y-68694236D01*
X37162482Y-68660736D01*
X37163063Y-68659949D01*
X37163171Y-68659455D01*
X37183879Y-68631789D01*
X37184318Y-68631197D01*
X37191379Y-68624135D01*
X37191382Y-68624134D01*
X37191384Y-68624130D01*
X37543697Y-68271819D01*
X37605020Y-68238334D01*
X37631378Y-68235500D01*
X39292500Y-68235500D01*
X39359539Y-68255185D01*
G37*
%TD.AperFunction*%
%TA.AperFunction,Conductor*%
G36*
X44021856Y-71133087D02*
G01*
X44050064Y-71138698D01*
X44246075Y-71138697D01*
X44265472Y-71144392D01*
X44285674Y-71145190D01*
X44298312Y-71154034D01*
X44313114Y-71158381D01*
X44326352Y-71173659D01*
X44342917Y-71185252D01*
X44348767Y-71199527D01*
X44358869Y-71211185D01*
X44361746Y-71231196D01*
X44369413Y-71249903D01*
X44368196Y-71276056D01*
X44368813Y-71280343D01*
X44368022Y-71285170D01*
X44367860Y-71286044D01*
X44359702Y-71327062D01*
X44359702Y-71330317D01*
X44358067Y-71339190D01*
X44344567Y-71365908D01*
X44333355Y-71393668D01*
X44327818Y-71399058D01*
X44326558Y-71401552D01*
X44323268Y-71403487D01*
X44310432Y-71415983D01*
X44211011Y-71490410D01*
X44124851Y-71605504D01*
X44124846Y-71605513D01*
X44112425Y-71638816D01*
X44070554Y-71694749D01*
X44005089Y-71719165D01*
X43936816Y-71704313D01*
X43908563Y-71683162D01*
X43877800Y-71652399D01*
X43477419Y-71652399D01*
X43466709Y-71651936D01*
X43459300Y-71651293D01*
X43459153Y-71651195D01*
X43398337Y-71639098D01*
X43318632Y-71639098D01*
X43313290Y-71638635D01*
X43285536Y-71627803D01*
X43256961Y-71619413D01*
X43253345Y-71615240D01*
X43248201Y-71613233D01*
X43230707Y-71589114D01*
X43211206Y-71566609D01*
X43209844Y-71560351D01*
X43207178Y-71556675D01*
X43206524Y-71545091D01*
X43200000Y-71515098D01*
X43200000Y-71471599D01*
X43219685Y-71404560D01*
X43272489Y-71358805D01*
X43324000Y-71347599D01*
X43877800Y-71347599D01*
X43877800Y-71299771D01*
X43877799Y-71299770D01*
X43874380Y-71267960D01*
X43886786Y-71199200D01*
X43934397Y-71148063D01*
X44002096Y-71130784D01*
X44021856Y-71133087D01*
G37*
%TD.AperFunction*%
%TD*%
M02*
