%TF.GenerationSoftware,KiCad,Pcbnew,9.0.4*%
%TF.CreationDate,2025-08-29T23:53:31-07:00*%
%TF.ProjectId,WeatherPill,57656174-6865-4725-9069-6c6c2e6b6963,rev?*%
%TF.SameCoordinates,Original*%
%TF.FileFunction,Paste,Top*%
%TF.FilePolarity,Positive*%
%FSLAX46Y46*%
G04 Gerber Fmt 4.6, Leading zero omitted, Abs format (unit mm)*
G04 Created by KiCad (PCBNEW 9.0.4) date 2025-08-29 23:53:31*
%MOMM*%
%LPD*%
G01*
G04 APERTURE LIST*
G04 Aperture macros list*
%AMRoundRect*
0 Rectangle with rounded corners*
0 $1 Rounding radius*
0 $2 $3 $4 $5 $6 $7 $8 $9 X,Y pos of 4 corners*
0 Add a 4 corners polygon primitive as box body*
4,1,4,$2,$3,$4,$5,$6,$7,$8,$9,$2,$3,0*
0 Add four circle primitives for the rounded corners*
1,1,$1+$1,$2,$3*
1,1,$1+$1,$4,$5*
1,1,$1+$1,$6,$7*
1,1,$1+$1,$8,$9*
0 Add four rect primitives between the rounded corners*
20,1,$1+$1,$2,$3,$4,$5,0*
20,1,$1+$1,$4,$5,$6,$7,0*
20,1,$1+$1,$6,$7,$8,$9,0*
20,1,$1+$1,$8,$9,$2,$3,0*%
G04 Aperture macros list end*
%ADD10C,0.050000*%
%ADD11C,0.000000*%
%ADD12R,0.711200X1.498600*%
%ADD13R,0.990600X0.812800*%
%ADD14RoundRect,0.090000X0.090000X-0.139000X0.090000X0.139000X-0.090000X0.139000X-0.090000X-0.139000X0*%
%ADD15RoundRect,0.232500X0.232500X0.232500X-0.232500X0.232500X-0.232500X-0.232500X0.232500X-0.232500X0*%
%ADD16RoundRect,0.062500X0.375000X0.062500X-0.375000X0.062500X-0.375000X-0.062500X0.375000X-0.062500X0*%
%ADD17RoundRect,0.062500X0.062500X0.375000X-0.062500X0.375000X-0.062500X-0.375000X0.062500X-0.375000X0*%
%ADD18RoundRect,0.160000X0.160000X-0.222500X0.160000X0.222500X-0.160000X0.222500X-0.160000X-0.222500X0*%
%ADD19RoundRect,0.090000X0.139000X0.090000X-0.139000X0.090000X-0.139000X-0.090000X0.139000X-0.090000X0*%
%ADD20RoundRect,0.090000X-0.139000X-0.090000X0.139000X-0.090000X0.139000X0.090000X-0.139000X0.090000X0*%
%ADD21RoundRect,0.090000X0.161927X-0.034648X-0.034648X0.161927X-0.161927X0.034648X0.034648X-0.161927X0*%
%ADD22R,0.800000X0.800000*%
%ADD23R,0.500000X0.350000*%
%ADD24RoundRect,0.090000X0.034648X0.161927X-0.161927X-0.034648X-0.034648X-0.161927X0.161927X0.034648X0*%
%ADD25C,0.260000*%
%ADD26RoundRect,0.160000X-0.222500X-0.160000X0.222500X-0.160000X0.222500X0.160000X-0.222500X0.160000X0*%
%ADD27RoundRect,0.160000X0.222500X0.160000X-0.222500X0.160000X-0.222500X-0.160000X0.222500X-0.160000X0*%
%ADD28RoundRect,0.160000X-0.160000X0.222500X-0.160000X-0.222500X0.160000X-0.222500X0.160000X0.222500X0*%
%ADD29R,0.304800X0.381000*%
%ADD30R,0.355600X0.304800*%
%ADD31R,1.244600X0.660400*%
%ADD32RoundRect,0.090000X-0.090000X0.139000X-0.090000X-0.139000X0.090000X-0.139000X0.090000X0.139000X0*%
%ADD33R,0.500000X0.300000*%
%ADD34R,1.150000X0.600000*%
%ADD35R,1.150000X0.300000*%
%ADD36RoundRect,0.093750X-0.156250X-0.093750X0.156250X-0.093750X0.156250X0.093750X-0.156250X0.093750X0*%
%ADD37RoundRect,0.075000X-0.250000X-0.075000X0.250000X-0.075000X0.250000X0.075000X-0.250000X0.075000X0*%
G04 APERTURE END LIST*
D10*
%TO.C,U4*%
X42049994Y-75025000D02*
G75*
G02*
X41999990Y-75025000I-25002J0D01*
G01*
X41999990Y-75025000D02*
G75*
G02*
X42049994Y-75025000I25002J0D01*
G01*
X42049994Y-75175002D02*
G75*
G02*
X41999990Y-75175002I-25002J0D01*
G01*
X41999990Y-75175002D02*
G75*
G02*
X42049994Y-75175002I25002J0D01*
G01*
X42049994Y-75424999D02*
G75*
G02*
X41999990Y-75424999I-25002J0D01*
G01*
X41999990Y-75424999D02*
G75*
G02*
X42049994Y-75424999I25002J0D01*
G01*
X42049994Y-75575001D02*
G75*
G02*
X41999990Y-75575001I-25002J0D01*
G01*
X41999990Y-75575001D02*
G75*
G02*
X42049994Y-75575001I25002J0D01*
G01*
X42199995Y-75025000D02*
G75*
G02*
X42149993Y-75025000I-25001J0D01*
G01*
X42149993Y-75025000D02*
G75*
G02*
X42199995Y-75025000I25001J0D01*
G01*
X42199995Y-75175002D02*
G75*
G02*
X42149993Y-75175002I-25001J0D01*
G01*
X42149993Y-75175002D02*
G75*
G02*
X42199995Y-75175002I25001J0D01*
G01*
X42199995Y-75424999D02*
G75*
G02*
X42149993Y-75424999I-25001J0D01*
G01*
X42149993Y-75424999D02*
G75*
G02*
X42199995Y-75424999I25001J0D01*
G01*
X42199995Y-75575001D02*
G75*
G02*
X42149993Y-75575001I-25001J0D01*
G01*
X42149993Y-75575001D02*
G75*
G02*
X42199995Y-75575001I25001J0D01*
G01*
X42449994Y-75025000D02*
G75*
G02*
X42399992Y-75025000I-25001J0D01*
G01*
X42399992Y-75025000D02*
G75*
G02*
X42449994Y-75025000I25001J0D01*
G01*
X42449994Y-75175002D02*
G75*
G02*
X42399992Y-75175002I-25001J0D01*
G01*
X42399992Y-75175002D02*
G75*
G02*
X42449994Y-75175002I25001J0D01*
G01*
X42449994Y-75424999D02*
G75*
G02*
X42399992Y-75424999I-25001J0D01*
G01*
X42399992Y-75424999D02*
G75*
G02*
X42449994Y-75424999I25001J0D01*
G01*
X42449994Y-75575001D02*
G75*
G02*
X42399992Y-75575001I-25001J0D01*
G01*
X42399992Y-75575001D02*
G75*
G02*
X42449994Y-75575001I25001J0D01*
G01*
X42599998Y-75025000D02*
G75*
G02*
X42549994Y-75025000I-25002J0D01*
G01*
X42549994Y-75025000D02*
G75*
G02*
X42599998Y-75025000I25002J0D01*
G01*
X42599998Y-75175002D02*
G75*
G02*
X42549994Y-75175002I-25002J0D01*
G01*
X42549994Y-75175002D02*
G75*
G02*
X42599998Y-75175002I25002J0D01*
G01*
X42599998Y-75424999D02*
G75*
G02*
X42549994Y-75424999I-25002J0D01*
G01*
X42549994Y-75424999D02*
G75*
G02*
X42599998Y-75424999I25002J0D01*
G01*
X42599998Y-75575001D02*
G75*
G02*
X42549994Y-75575001I-25002J0D01*
G01*
X42549994Y-75575001D02*
G75*
G02*
X42599998Y-75575001I25002J0D01*
G01*
D11*
G36*
X42024992Y-75175002D02*
G01*
X41974992Y-75175002D01*
X41974992Y-75025002D01*
X42024992Y-75025002D01*
X42024992Y-75175002D01*
G37*
G36*
X42024992Y-75575001D02*
G01*
X41974992Y-75575001D01*
X41974992Y-75425002D01*
X42024992Y-75425002D01*
X42024992Y-75575001D01*
G37*
G36*
X42174991Y-75225002D02*
G01*
X42024992Y-75225002D01*
X42024992Y-75175002D01*
X42174991Y-75175002D01*
X42174991Y-75225002D01*
G37*
G36*
X42174991Y-75625001D02*
G01*
X42024992Y-75625001D01*
X42024992Y-75575001D01*
X42174991Y-75575001D01*
X42174991Y-75625001D01*
G37*
G36*
X42174991Y-75025002D02*
G01*
X42024992Y-75025002D01*
X42024992Y-74975002D01*
X42174991Y-74975002D01*
X42174991Y-75025002D01*
G37*
G36*
X42174991Y-75175005D02*
G01*
X42024989Y-75175005D01*
X42024989Y-75025002D01*
X42174991Y-75025002D01*
X42174991Y-75175005D01*
G37*
G36*
X42174991Y-75425002D02*
G01*
X42024992Y-75425002D01*
X42024992Y-75375002D01*
X42174991Y-75375002D01*
X42174991Y-75425002D01*
G37*
G36*
X42174991Y-75575004D02*
G01*
X42024989Y-75575004D01*
X42024989Y-75425002D01*
X42174991Y-75425002D01*
X42174991Y-75575004D01*
G37*
G36*
X42224991Y-75175002D02*
G01*
X42174991Y-75175002D01*
X42174991Y-75025002D01*
X42224991Y-75025002D01*
X42224991Y-75175002D01*
G37*
G36*
X42224991Y-75575001D02*
G01*
X42174991Y-75575001D01*
X42174991Y-75425002D01*
X42224991Y-75425002D01*
X42224991Y-75575001D01*
G37*
G36*
X42424993Y-75175002D02*
G01*
X42374994Y-75175002D01*
X42374994Y-75025002D01*
X42424993Y-75025002D01*
X42424993Y-75175002D01*
G37*
G36*
X42424993Y-75575001D02*
G01*
X42374994Y-75575001D01*
X42374994Y-75425002D01*
X42424993Y-75425002D01*
X42424993Y-75575001D01*
G37*
G36*
X42574993Y-75225002D02*
G01*
X42424993Y-75225002D01*
X42424993Y-75175002D01*
X42574993Y-75175002D01*
X42574993Y-75225002D01*
G37*
G36*
X42574993Y-75625001D02*
G01*
X42424993Y-75625001D01*
X42424993Y-75575001D01*
X42574993Y-75575001D01*
X42574993Y-75625001D01*
G37*
G36*
X42574993Y-75025002D02*
G01*
X42424993Y-75025002D01*
X42424993Y-74975002D01*
X42574993Y-74975002D01*
X42574993Y-75025002D01*
G37*
G36*
X42574993Y-75175005D02*
G01*
X42424991Y-75175005D01*
X42424991Y-75025002D01*
X42574993Y-75025002D01*
X42574993Y-75175005D01*
G37*
G36*
X42574993Y-75425002D02*
G01*
X42424993Y-75425002D01*
X42424993Y-75375002D01*
X42574993Y-75375002D01*
X42574993Y-75425002D01*
G37*
G36*
X42574993Y-75575004D02*
G01*
X42424991Y-75575004D01*
X42424991Y-75425002D01*
X42574993Y-75425002D01*
X42574993Y-75575004D01*
G37*
G36*
X42624993Y-75175002D02*
G01*
X42574993Y-75175002D01*
X42574993Y-75025002D01*
X42624993Y-75025002D01*
X42624993Y-75175002D01*
G37*
G36*
X42624993Y-75575001D02*
G01*
X42574993Y-75575001D01*
X42574993Y-75425002D01*
X42624993Y-75425002D01*
X42624993Y-75575001D01*
G37*
%TD*%
D12*
%TO.C,SW1*%
X21749997Y-78750000D03*
X24750000Y-78750000D03*
X26250000Y-78750000D03*
D13*
X20350000Y-79450001D03*
X27650000Y-79450001D03*
X20350020Y-81549999D03*
X27649980Y-81549999D03*
%TD*%
D14*
%TO.C,R19*%
X28448000Y-68590000D03*
X28448000Y-67725000D03*
%TD*%
D15*
%TO.C,U8*%
X36500000Y-73400000D03*
X36500000Y-72250000D03*
X36500000Y-71100000D03*
X35350000Y-73400000D03*
X35350000Y-72250000D03*
X35350000Y-71100000D03*
X34200000Y-73400000D03*
X34200000Y-72250000D03*
X34200000Y-71100000D03*
D16*
X37787500Y-74000000D03*
X37787500Y-73500000D03*
X37787500Y-73000000D03*
X37787500Y-72500000D03*
X37787500Y-72000000D03*
X37787500Y-71500000D03*
X37787500Y-71000000D03*
X37787500Y-70500000D03*
D17*
X37100000Y-69812500D03*
X36600000Y-69812500D03*
X36100000Y-69812500D03*
X35600000Y-69812500D03*
X35100000Y-69812500D03*
X34600000Y-69812500D03*
X34100000Y-69812500D03*
X33600000Y-69812500D03*
D16*
X32912500Y-70500000D03*
X32912500Y-71000000D03*
X32912500Y-71500000D03*
X32912500Y-72000000D03*
X32912500Y-72500000D03*
X32912500Y-73000000D03*
X32912500Y-73500000D03*
X32912500Y-74000000D03*
D17*
X33600000Y-74687500D03*
X34100000Y-74687500D03*
X34600000Y-74687500D03*
X35100000Y-74687500D03*
X35600000Y-74687500D03*
X36100000Y-74687500D03*
X36600000Y-74687500D03*
X37100000Y-74687500D03*
%TD*%
D18*
%TO.C,C7*%
X46600000Y-68572500D03*
X46600000Y-67427500D03*
%TD*%
D19*
%TO.C,R18*%
X41832500Y-68800000D03*
X40967500Y-68800000D03*
%TD*%
D20*
%TO.C,R37*%
X47167500Y-71050000D03*
X48032500Y-71050000D03*
%TD*%
%TO.C,R38*%
X47167500Y-70300000D03*
X48032500Y-70300000D03*
%TD*%
D19*
%TO.C,R2*%
X39432500Y-78200000D03*
X38567500Y-78200000D03*
%TD*%
D18*
%TO.C,C6*%
X48000000Y-81322500D03*
X48000000Y-80177500D03*
%TD*%
D14*
%TO.C,R11*%
X49000000Y-80632500D03*
X49000000Y-79767500D03*
%TD*%
D21*
%TO.C,R9*%
X35055824Y-77805824D03*
X34444176Y-77194176D03*
%TD*%
D22*
%TO.C,D1*%
X39200000Y-77000000D03*
X40700000Y-77000000D03*
%TD*%
D23*
%TO.C,U5*%
X43175000Y-69175000D03*
X43175000Y-68525000D03*
X43175000Y-67875000D03*
X43175000Y-67225000D03*
X45225000Y-67225000D03*
X45225000Y-67875000D03*
X45225000Y-68525000D03*
X45225000Y-69175000D03*
%TD*%
D24*
%TO.C,R16*%
X36905824Y-67694176D03*
X36294176Y-68305824D03*
%TD*%
D18*
%TO.C,C1*%
X31500000Y-69750000D03*
X31500000Y-68605000D03*
%TD*%
D19*
%TO.C,R3*%
X29032500Y-74600000D03*
X28167500Y-74600000D03*
%TD*%
D20*
%TO.C,R29*%
X36167500Y-78200000D03*
X37032500Y-78200000D03*
%TD*%
D25*
%TO.C,U6*%
X49200000Y-74200000D03*
X49200000Y-75200000D03*
X48700000Y-74200000D03*
X48700000Y-75200000D03*
X48200000Y-74200000D03*
X48200000Y-75200000D03*
%TD*%
D26*
%TO.C,C5*%
X44627500Y-76750000D03*
X45772500Y-76750000D03*
%TD*%
D14*
%TO.C,R33*%
X48800000Y-77865000D03*
X48800000Y-77000000D03*
%TD*%
D19*
%TO.C,R15*%
X45932500Y-75750000D03*
X45067500Y-75750000D03*
%TD*%
D27*
%TO.C,C11*%
X40372500Y-75000000D03*
X39227500Y-75000000D03*
%TD*%
D14*
%TO.C,R10*%
X50600000Y-80640000D03*
X50600000Y-79775000D03*
%TD*%
D28*
%TO.C,C2*%
X37400000Y-75677500D03*
X37400000Y-76822500D03*
%TD*%
D29*
%TO.C,U7*%
X43723001Y-72260300D03*
X44223001Y-72260300D03*
D30*
X44746002Y-71999998D03*
X44746002Y-71499999D03*
X44746002Y-71000000D03*
D29*
X44223001Y-70739698D03*
X43723001Y-70739698D03*
D30*
X43200000Y-71000000D03*
X43200000Y-71499999D03*
X43200000Y-71999998D03*
%TD*%
D14*
%TO.C,R13*%
X48000000Y-78932500D03*
X48000000Y-78067500D03*
%TD*%
D31*
%TO.C,SW4*%
X42407200Y-80009999D03*
X46471200Y-80009999D03*
X42407200Y-81490001D03*
X46471200Y-81490001D03*
%TD*%
D19*
%TO.C,R7*%
X33432500Y-68500000D03*
X32567500Y-68500000D03*
%TD*%
D32*
%TO.C,R31*%
X50400000Y-77000000D03*
X50400000Y-77865000D03*
%TD*%
%TO.C,R6*%
X30500000Y-67910000D03*
X30500000Y-68775000D03*
%TD*%
D33*
%TO.C,U3*%
X51800000Y-80800000D03*
X51800000Y-81600000D03*
X53200000Y-81600000D03*
X53200000Y-80800000D03*
%TD*%
D26*
%TO.C,C3*%
X39105000Y-72000000D03*
X40250000Y-72000000D03*
%TD*%
%TO.C,C13*%
X42227500Y-76600000D03*
X43372500Y-76600000D03*
%TD*%
D34*
%TO.C,J2*%
X26599000Y-69190000D03*
X26599000Y-69990000D03*
D35*
X26599000Y-71140000D03*
X26599000Y-72140000D03*
X26599000Y-72640000D03*
X26599000Y-73640000D03*
D34*
X26599000Y-75590000D03*
X26599000Y-74790000D03*
D35*
X26599000Y-74140000D03*
X26599000Y-73140000D03*
X26599000Y-71640000D03*
X26599000Y-70640000D03*
%TD*%
D31*
%TO.C,SW3*%
X35936000Y-80009999D03*
X40000000Y-80009999D03*
X35936000Y-81490001D03*
X40000000Y-81490001D03*
%TD*%
D14*
%TO.C,R12*%
X49800000Y-80032500D03*
X49800000Y-79167500D03*
%TD*%
D36*
%TO.C,U1*%
X29122000Y-72360500D03*
D37*
X29047000Y-72898000D03*
D36*
X29122000Y-73435500D03*
X30822000Y-73435500D03*
D37*
X30897000Y-72898000D03*
D36*
X30822000Y-72360500D03*
%TD*%
D26*
%TO.C,C10*%
X40427500Y-73800000D03*
X41572500Y-73800000D03*
%TD*%
D19*
%TO.C,R14*%
X36032500Y-67000000D03*
X35167500Y-67000000D03*
%TD*%
%TO.C,R1*%
X50265000Y-81600000D03*
X49400000Y-81600000D03*
%TD*%
D20*
%TO.C,R34*%
X47167500Y-71800000D03*
X48032500Y-71800000D03*
%TD*%
D19*
%TO.C,R32*%
X46432500Y-73600000D03*
X45567500Y-73600000D03*
%TD*%
D18*
%TO.C,C12*%
X44000000Y-75372500D03*
X44000000Y-74227500D03*
%TD*%
D20*
%TO.C,R36*%
X47167500Y-72550000D03*
X48032500Y-72550000D03*
%TD*%
D19*
%TO.C,R17*%
X41832500Y-68000000D03*
X40967500Y-68000000D03*
%TD*%
D32*
%TO.C,R30*%
X49600000Y-77000000D03*
X49600000Y-77865000D03*
%TD*%
D28*
%TO.C,C4*%
X54400000Y-80427499D03*
X54400000Y-81572501D03*
%TD*%
D14*
%TO.C,R35*%
X40000000Y-69832500D03*
X40000000Y-68967500D03*
%TD*%
D28*
%TO.C,C8*%
X50000000Y-69427500D03*
X50000000Y-70572500D03*
%TD*%
D14*
%TO.C,R4*%
X29250000Y-69432500D03*
X29250000Y-68567500D03*
%TD*%
D21*
%TO.C,R20*%
X33555824Y-76305824D03*
X32944176Y-75694176D03*
%TD*%
D20*
%TO.C,R8*%
X46967500Y-77000000D03*
X47832500Y-77000000D03*
%TD*%
D28*
%TO.C,C9*%
X41600000Y-69827500D03*
X41600000Y-70972500D03*
%TD*%
M02*
