%TF.GenerationSoftware,KiCad,Pcbnew,9.0.4*%
%TF.CreationDate,2025-08-29T23:53:31-07:00*%
%TF.ProjectId,WeatherPill,57656174-6865-4725-9069-6c6c2e6b6963,rev?*%
%TF.SameCoordinates,Original*%
%TF.FileFunction,Legend,Bot*%
%TF.FilePolarity,Positive*%
%FSLAX46Y46*%
G04 Gerber Fmt 4.6, Leading zero omitted, Abs format (unit mm)*
G04 Created by KiCad (PCBNEW 9.0.4) date 2025-08-29 23:53:31*
%MOMM*%
%LPD*%
G01*
G04 APERTURE LIST*
%ADD10C,0.125000*%
%ADD11C,0.150000*%
%ADD12C,0.508000*%
%ADD13C,0.120000*%
%ADD14C,0.100000*%
%ADD15C,0.127000*%
G04 APERTURE END LIST*
D10*
X61374906Y-79461175D02*
X61136811Y-80461175D01*
X61136811Y-80461175D02*
X60946335Y-79746889D01*
X60946335Y-79746889D02*
X60755859Y-80461175D01*
X60755859Y-80461175D02*
X60517764Y-79461175D01*
X59755859Y-80413556D02*
X59851097Y-80461175D01*
X59851097Y-80461175D02*
X60041573Y-80461175D01*
X60041573Y-80461175D02*
X60136811Y-80413556D01*
X60136811Y-80413556D02*
X60184430Y-80318317D01*
X60184430Y-80318317D02*
X60184430Y-79937365D01*
X60184430Y-79937365D02*
X60136811Y-79842127D01*
X60136811Y-79842127D02*
X60041573Y-79794508D01*
X60041573Y-79794508D02*
X59851097Y-79794508D01*
X59851097Y-79794508D02*
X59755859Y-79842127D01*
X59755859Y-79842127D02*
X59708240Y-79937365D01*
X59708240Y-79937365D02*
X59708240Y-80032603D01*
X59708240Y-80032603D02*
X60184430Y-80127841D01*
X58851097Y-80461175D02*
X58851097Y-79937365D01*
X58851097Y-79937365D02*
X58898716Y-79842127D01*
X58898716Y-79842127D02*
X58993954Y-79794508D01*
X58993954Y-79794508D02*
X59184430Y-79794508D01*
X59184430Y-79794508D02*
X59279668Y-79842127D01*
X58851097Y-80413556D02*
X58946335Y-80461175D01*
X58946335Y-80461175D02*
X59184430Y-80461175D01*
X59184430Y-80461175D02*
X59279668Y-80413556D01*
X59279668Y-80413556D02*
X59327287Y-80318317D01*
X59327287Y-80318317D02*
X59327287Y-80223079D01*
X59327287Y-80223079D02*
X59279668Y-80127841D01*
X59279668Y-80127841D02*
X59184430Y-80080222D01*
X59184430Y-80080222D02*
X58946335Y-80080222D01*
X58946335Y-80080222D02*
X58851097Y-80032603D01*
X58517763Y-79794508D02*
X58136811Y-79794508D01*
X58374906Y-79461175D02*
X58374906Y-80318317D01*
X58374906Y-80318317D02*
X58327287Y-80413556D01*
X58327287Y-80413556D02*
X58232049Y-80461175D01*
X58232049Y-80461175D02*
X58136811Y-80461175D01*
X57803477Y-80461175D02*
X57803477Y-79461175D01*
X57374906Y-80461175D02*
X57374906Y-79937365D01*
X57374906Y-79937365D02*
X57422525Y-79842127D01*
X57422525Y-79842127D02*
X57517763Y-79794508D01*
X57517763Y-79794508D02*
X57660620Y-79794508D01*
X57660620Y-79794508D02*
X57755858Y-79842127D01*
X57755858Y-79842127D02*
X57803477Y-79889746D01*
X56517763Y-80413556D02*
X56613001Y-80461175D01*
X56613001Y-80461175D02*
X56803477Y-80461175D01*
X56803477Y-80461175D02*
X56898715Y-80413556D01*
X56898715Y-80413556D02*
X56946334Y-80318317D01*
X56946334Y-80318317D02*
X56946334Y-79937365D01*
X56946334Y-79937365D02*
X56898715Y-79842127D01*
X56898715Y-79842127D02*
X56803477Y-79794508D01*
X56803477Y-79794508D02*
X56613001Y-79794508D01*
X56613001Y-79794508D02*
X56517763Y-79842127D01*
X56517763Y-79842127D02*
X56470144Y-79937365D01*
X56470144Y-79937365D02*
X56470144Y-80032603D01*
X56470144Y-80032603D02*
X56946334Y-80127841D01*
X56041572Y-80461175D02*
X56041572Y-79794508D01*
X56041572Y-79984984D02*
X55993953Y-79889746D01*
X55993953Y-79889746D02*
X55946334Y-79842127D01*
X55946334Y-79842127D02*
X55851096Y-79794508D01*
X55851096Y-79794508D02*
X55755858Y-79794508D01*
X54660619Y-80461175D02*
X54660619Y-79461175D01*
X54660619Y-79461175D02*
X54279667Y-79461175D01*
X54279667Y-79461175D02*
X54184429Y-79508794D01*
X54184429Y-79508794D02*
X54136810Y-79556413D01*
X54136810Y-79556413D02*
X54089191Y-79651651D01*
X54089191Y-79651651D02*
X54089191Y-79794508D01*
X54089191Y-79794508D02*
X54136810Y-79889746D01*
X54136810Y-79889746D02*
X54184429Y-79937365D01*
X54184429Y-79937365D02*
X54279667Y-79984984D01*
X54279667Y-79984984D02*
X54660619Y-79984984D01*
X53660619Y-80461175D02*
X53660619Y-79794508D01*
X53660619Y-79461175D02*
X53708238Y-79508794D01*
X53708238Y-79508794D02*
X53660619Y-79556413D01*
X53660619Y-79556413D02*
X53613000Y-79508794D01*
X53613000Y-79508794D02*
X53660619Y-79461175D01*
X53660619Y-79461175D02*
X53660619Y-79556413D01*
X53041572Y-80461175D02*
X53136810Y-80413556D01*
X53136810Y-80413556D02*
X53184429Y-80318317D01*
X53184429Y-80318317D02*
X53184429Y-79461175D01*
X52517762Y-80461175D02*
X52613000Y-80413556D01*
X52613000Y-80413556D02*
X52660619Y-80318317D01*
X52660619Y-80318317D02*
X52660619Y-79461175D01*
X51374904Y-80461175D02*
X51374904Y-79794508D01*
X51374904Y-79984984D02*
X51327285Y-79889746D01*
X51327285Y-79889746D02*
X51279666Y-79842127D01*
X51279666Y-79842127D02*
X51184428Y-79794508D01*
X51184428Y-79794508D02*
X51089190Y-79794508D01*
X50374904Y-80413556D02*
X50470142Y-80461175D01*
X50470142Y-80461175D02*
X50660618Y-80461175D01*
X50660618Y-80461175D02*
X50755856Y-80413556D01*
X50755856Y-80413556D02*
X50803475Y-80318317D01*
X50803475Y-80318317D02*
X50803475Y-79937365D01*
X50803475Y-79937365D02*
X50755856Y-79842127D01*
X50755856Y-79842127D02*
X50660618Y-79794508D01*
X50660618Y-79794508D02*
X50470142Y-79794508D01*
X50470142Y-79794508D02*
X50374904Y-79842127D01*
X50374904Y-79842127D02*
X50327285Y-79937365D01*
X50327285Y-79937365D02*
X50327285Y-80032603D01*
X50327285Y-80032603D02*
X50803475Y-80127841D01*
X49993951Y-79794508D02*
X49755856Y-80461175D01*
X49755856Y-80461175D02*
X49517761Y-79794508D01*
X49184427Y-79556413D02*
X49136808Y-79508794D01*
X49136808Y-79508794D02*
X49041570Y-79461175D01*
X49041570Y-79461175D02*
X48803475Y-79461175D01*
X48803475Y-79461175D02*
X48708237Y-79508794D01*
X48708237Y-79508794D02*
X48660618Y-79556413D01*
X48660618Y-79556413D02*
X48612999Y-79651651D01*
X48612999Y-79651651D02*
X48612999Y-79746889D01*
X48612999Y-79746889D02*
X48660618Y-79889746D01*
X48660618Y-79889746D02*
X49232046Y-80461175D01*
X49232046Y-80461175D02*
X48612999Y-80461175D01*
X60946335Y-81547309D02*
X61279668Y-81547309D01*
X61279668Y-82071119D02*
X61279668Y-81071119D01*
X61279668Y-81071119D02*
X60803478Y-81071119D01*
X60422525Y-82071119D02*
X60422525Y-81404452D01*
X60422525Y-81594928D02*
X60374906Y-81499690D01*
X60374906Y-81499690D02*
X60327287Y-81452071D01*
X60327287Y-81452071D02*
X60232049Y-81404452D01*
X60232049Y-81404452D02*
X60136811Y-81404452D01*
X59422525Y-82023500D02*
X59517763Y-82071119D01*
X59517763Y-82071119D02*
X59708239Y-82071119D01*
X59708239Y-82071119D02*
X59803477Y-82023500D01*
X59803477Y-82023500D02*
X59851096Y-81928261D01*
X59851096Y-81928261D02*
X59851096Y-81547309D01*
X59851096Y-81547309D02*
X59803477Y-81452071D01*
X59803477Y-81452071D02*
X59708239Y-81404452D01*
X59708239Y-81404452D02*
X59517763Y-81404452D01*
X59517763Y-81404452D02*
X59422525Y-81452071D01*
X59422525Y-81452071D02*
X59374906Y-81547309D01*
X59374906Y-81547309D02*
X59374906Y-81642547D01*
X59374906Y-81642547D02*
X59851096Y-81737785D01*
X58517763Y-82071119D02*
X58517763Y-81071119D01*
X58517763Y-82023500D02*
X58613001Y-82071119D01*
X58613001Y-82071119D02*
X58803477Y-82071119D01*
X58803477Y-82071119D02*
X58898715Y-82023500D01*
X58898715Y-82023500D02*
X58946334Y-81975880D01*
X58946334Y-81975880D02*
X58993953Y-81880642D01*
X58993953Y-81880642D02*
X58993953Y-81594928D01*
X58993953Y-81594928D02*
X58946334Y-81499690D01*
X58946334Y-81499690D02*
X58898715Y-81452071D01*
X58898715Y-81452071D02*
X58803477Y-81404452D01*
X58803477Y-81404452D02*
X58613001Y-81404452D01*
X58613001Y-81404452D02*
X58517763Y-81452071D01*
X57660620Y-82023500D02*
X57755858Y-82071119D01*
X57755858Y-82071119D02*
X57946334Y-82071119D01*
X57946334Y-82071119D02*
X58041572Y-82023500D01*
X58041572Y-82023500D02*
X58089191Y-81928261D01*
X58089191Y-81928261D02*
X58089191Y-81547309D01*
X58089191Y-81547309D02*
X58041572Y-81452071D01*
X58041572Y-81452071D02*
X57946334Y-81404452D01*
X57946334Y-81404452D02*
X57755858Y-81404452D01*
X57755858Y-81404452D02*
X57660620Y-81452071D01*
X57660620Y-81452071D02*
X57613001Y-81547309D01*
X57613001Y-81547309D02*
X57613001Y-81642547D01*
X57613001Y-81642547D02*
X58089191Y-81737785D01*
X57184429Y-82071119D02*
X57184429Y-81404452D01*
X57184429Y-81594928D02*
X57136810Y-81499690D01*
X57136810Y-81499690D02*
X57089191Y-81452071D01*
X57089191Y-81452071D02*
X56993953Y-81404452D01*
X56993953Y-81404452D02*
X56898715Y-81404452D01*
X56565381Y-82071119D02*
X56565381Y-81404452D01*
X56565381Y-81071119D02*
X56613000Y-81118738D01*
X56613000Y-81118738D02*
X56565381Y-81166357D01*
X56565381Y-81166357D02*
X56517762Y-81118738D01*
X56517762Y-81118738D02*
X56565381Y-81071119D01*
X56565381Y-81071119D02*
X56565381Y-81166357D01*
X55660620Y-82023500D02*
X55755858Y-82071119D01*
X55755858Y-82071119D02*
X55946334Y-82071119D01*
X55946334Y-82071119D02*
X56041572Y-82023500D01*
X56041572Y-82023500D02*
X56089191Y-81975880D01*
X56089191Y-81975880D02*
X56136810Y-81880642D01*
X56136810Y-81880642D02*
X56136810Y-81594928D01*
X56136810Y-81594928D02*
X56089191Y-81499690D01*
X56089191Y-81499690D02*
X56041572Y-81452071D01*
X56041572Y-81452071D02*
X55946334Y-81404452D01*
X55946334Y-81404452D02*
X55755858Y-81404452D01*
X55755858Y-81404452D02*
X55660620Y-81452071D01*
X54136810Y-81547309D02*
X53993953Y-81594928D01*
X53993953Y-81594928D02*
X53946334Y-81642547D01*
X53946334Y-81642547D02*
X53898715Y-81737785D01*
X53898715Y-81737785D02*
X53898715Y-81880642D01*
X53898715Y-81880642D02*
X53946334Y-81975880D01*
X53946334Y-81975880D02*
X53993953Y-82023500D01*
X53993953Y-82023500D02*
X54089191Y-82071119D01*
X54089191Y-82071119D02*
X54470143Y-82071119D01*
X54470143Y-82071119D02*
X54470143Y-81071119D01*
X54470143Y-81071119D02*
X54136810Y-81071119D01*
X54136810Y-81071119D02*
X54041572Y-81118738D01*
X54041572Y-81118738D02*
X53993953Y-81166357D01*
X53993953Y-81166357D02*
X53946334Y-81261595D01*
X53946334Y-81261595D02*
X53946334Y-81356833D01*
X53946334Y-81356833D02*
X53993953Y-81452071D01*
X53993953Y-81452071D02*
X54041572Y-81499690D01*
X54041572Y-81499690D02*
X54136810Y-81547309D01*
X54136810Y-81547309D02*
X54470143Y-81547309D01*
X53470143Y-82071119D02*
X53470143Y-81404452D01*
X53470143Y-81071119D02*
X53517762Y-81118738D01*
X53517762Y-81118738D02*
X53470143Y-81166357D01*
X53470143Y-81166357D02*
X53422524Y-81118738D01*
X53422524Y-81118738D02*
X53470143Y-81071119D01*
X53470143Y-81071119D02*
X53470143Y-81166357D01*
X52851096Y-82071119D02*
X52946334Y-82023500D01*
X52946334Y-82023500D02*
X52993953Y-81928261D01*
X52993953Y-81928261D02*
X52993953Y-81071119D01*
X52327286Y-82071119D02*
X52422524Y-82023500D01*
X52422524Y-82023500D02*
X52470143Y-81975880D01*
X52470143Y-81975880D02*
X52517762Y-81880642D01*
X52517762Y-81880642D02*
X52517762Y-81594928D01*
X52517762Y-81594928D02*
X52470143Y-81499690D01*
X52470143Y-81499690D02*
X52422524Y-81452071D01*
X52422524Y-81452071D02*
X52327286Y-81404452D01*
X52327286Y-81404452D02*
X52184429Y-81404452D01*
X52184429Y-81404452D02*
X52089191Y-81452071D01*
X52089191Y-81452071D02*
X52041572Y-81499690D01*
X52041572Y-81499690D02*
X51993953Y-81594928D01*
X51993953Y-81594928D02*
X51993953Y-81880642D01*
X51993953Y-81880642D02*
X52041572Y-81975880D01*
X52041572Y-81975880D02*
X52089191Y-82023500D01*
X52089191Y-82023500D02*
X52184429Y-82071119D01*
X52184429Y-82071119D02*
X52327286Y-82071119D01*
X51136810Y-82071119D02*
X51136810Y-81071119D01*
X51136810Y-82023500D02*
X51232048Y-82071119D01*
X51232048Y-82071119D02*
X51422524Y-82071119D01*
X51422524Y-82071119D02*
X51517762Y-82023500D01*
X51517762Y-82023500D02*
X51565381Y-81975880D01*
X51565381Y-81975880D02*
X51613000Y-81880642D01*
X51613000Y-81880642D02*
X51613000Y-81594928D01*
X51613000Y-81594928D02*
X51565381Y-81499690D01*
X51565381Y-81499690D02*
X51517762Y-81452071D01*
X51517762Y-81452071D02*
X51422524Y-81404452D01*
X51422524Y-81404452D02*
X51232048Y-81404452D01*
X51232048Y-81404452D02*
X51136810Y-81452071D01*
X50279667Y-82023500D02*
X50374905Y-82071119D01*
X50374905Y-82071119D02*
X50565381Y-82071119D01*
X50565381Y-82071119D02*
X50660619Y-82023500D01*
X50660619Y-82023500D02*
X50708238Y-81928261D01*
X50708238Y-81928261D02*
X50708238Y-81547309D01*
X50708238Y-81547309D02*
X50660619Y-81452071D01*
X50660619Y-81452071D02*
X50565381Y-81404452D01*
X50565381Y-81404452D02*
X50374905Y-81404452D01*
X50374905Y-81404452D02*
X50279667Y-81452071D01*
X50279667Y-81452071D02*
X50232048Y-81547309D01*
X50232048Y-81547309D02*
X50232048Y-81642547D01*
X50232048Y-81642547D02*
X50708238Y-81737785D01*
X49374905Y-82071119D02*
X49374905Y-81547309D01*
X49374905Y-81547309D02*
X49422524Y-81452071D01*
X49422524Y-81452071D02*
X49517762Y-81404452D01*
X49517762Y-81404452D02*
X49708238Y-81404452D01*
X49708238Y-81404452D02*
X49803476Y-81452071D01*
X49374905Y-82023500D02*
X49470143Y-82071119D01*
X49470143Y-82071119D02*
X49708238Y-82071119D01*
X49708238Y-82071119D02*
X49803476Y-82023500D01*
X49803476Y-82023500D02*
X49851095Y-81928261D01*
X49851095Y-81928261D02*
X49851095Y-81833023D01*
X49851095Y-81833023D02*
X49803476Y-81737785D01*
X49803476Y-81737785D02*
X49708238Y-81690166D01*
X49708238Y-81690166D02*
X49470143Y-81690166D01*
X49470143Y-81690166D02*
X49374905Y-81642547D01*
X48470143Y-81404452D02*
X48470143Y-82071119D01*
X48898714Y-81404452D02*
X48898714Y-81928261D01*
X48898714Y-81928261D02*
X48851095Y-82023500D01*
X48851095Y-82023500D02*
X48755857Y-82071119D01*
X48755857Y-82071119D02*
X48613000Y-82071119D01*
X48613000Y-82071119D02*
X48517762Y-82023500D01*
X48517762Y-82023500D02*
X48470143Y-81975880D01*
X47232047Y-81690166D02*
X46470143Y-81690166D01*
X45279666Y-81166357D02*
X45232047Y-81118738D01*
X45232047Y-81118738D02*
X45136809Y-81071119D01*
X45136809Y-81071119D02*
X44898714Y-81071119D01*
X44898714Y-81071119D02*
X44803476Y-81118738D01*
X44803476Y-81118738D02*
X44755857Y-81166357D01*
X44755857Y-81166357D02*
X44708238Y-81261595D01*
X44708238Y-81261595D02*
X44708238Y-81356833D01*
X44708238Y-81356833D02*
X44755857Y-81499690D01*
X44755857Y-81499690D02*
X45327285Y-82071119D01*
X45327285Y-82071119D02*
X44708238Y-82071119D01*
X44089190Y-81071119D02*
X43993952Y-81071119D01*
X43993952Y-81071119D02*
X43898714Y-81118738D01*
X43898714Y-81118738D02*
X43851095Y-81166357D01*
X43851095Y-81166357D02*
X43803476Y-81261595D01*
X43803476Y-81261595D02*
X43755857Y-81452071D01*
X43755857Y-81452071D02*
X43755857Y-81690166D01*
X43755857Y-81690166D02*
X43803476Y-81880642D01*
X43803476Y-81880642D02*
X43851095Y-81975880D01*
X43851095Y-81975880D02*
X43898714Y-82023500D01*
X43898714Y-82023500D02*
X43993952Y-82071119D01*
X43993952Y-82071119D02*
X44089190Y-82071119D01*
X44089190Y-82071119D02*
X44184428Y-82023500D01*
X44184428Y-82023500D02*
X44232047Y-81975880D01*
X44232047Y-81975880D02*
X44279666Y-81880642D01*
X44279666Y-81880642D02*
X44327285Y-81690166D01*
X44327285Y-81690166D02*
X44327285Y-81452071D01*
X44327285Y-81452071D02*
X44279666Y-81261595D01*
X44279666Y-81261595D02*
X44232047Y-81166357D01*
X44232047Y-81166357D02*
X44184428Y-81118738D01*
X44184428Y-81118738D02*
X44089190Y-81071119D01*
X43374904Y-81166357D02*
X43327285Y-81118738D01*
X43327285Y-81118738D02*
X43232047Y-81071119D01*
X43232047Y-81071119D02*
X42993952Y-81071119D01*
X42993952Y-81071119D02*
X42898714Y-81118738D01*
X42898714Y-81118738D02*
X42851095Y-81166357D01*
X42851095Y-81166357D02*
X42803476Y-81261595D01*
X42803476Y-81261595D02*
X42803476Y-81356833D01*
X42803476Y-81356833D02*
X42851095Y-81499690D01*
X42851095Y-81499690D02*
X43422523Y-82071119D01*
X43422523Y-82071119D02*
X42803476Y-82071119D01*
X41898714Y-81071119D02*
X42374904Y-81071119D01*
X42374904Y-81071119D02*
X42422523Y-81547309D01*
X42422523Y-81547309D02*
X42374904Y-81499690D01*
X42374904Y-81499690D02*
X42279666Y-81452071D01*
X42279666Y-81452071D02*
X42041571Y-81452071D01*
X42041571Y-81452071D02*
X41946333Y-81499690D01*
X41946333Y-81499690D02*
X41898714Y-81547309D01*
X41898714Y-81547309D02*
X41851095Y-81642547D01*
X41851095Y-81642547D02*
X41851095Y-81880642D01*
X41851095Y-81880642D02*
X41898714Y-81975880D01*
X41898714Y-81975880D02*
X41946333Y-82023500D01*
X41946333Y-82023500D02*
X42041571Y-82071119D01*
X42041571Y-82071119D02*
X42279666Y-82071119D01*
X42279666Y-82071119D02*
X42374904Y-82023500D01*
X42374904Y-82023500D02*
X42422523Y-81975880D01*
D11*
X54591904Y-76254819D02*
X54591904Y-77064342D01*
X54591904Y-77064342D02*
X54544285Y-77159580D01*
X54544285Y-77159580D02*
X54496666Y-77207200D01*
X54496666Y-77207200D02*
X54401428Y-77254819D01*
X54401428Y-77254819D02*
X54210952Y-77254819D01*
X54210952Y-77254819D02*
X54115714Y-77207200D01*
X54115714Y-77207200D02*
X54068095Y-77159580D01*
X54068095Y-77159580D02*
X54020476Y-77064342D01*
X54020476Y-77064342D02*
X54020476Y-76254819D01*
X53591904Y-76350057D02*
X53544285Y-76302438D01*
X53544285Y-76302438D02*
X53449047Y-76254819D01*
X53449047Y-76254819D02*
X53210952Y-76254819D01*
X53210952Y-76254819D02*
X53115714Y-76302438D01*
X53115714Y-76302438D02*
X53068095Y-76350057D01*
X53068095Y-76350057D02*
X53020476Y-76445295D01*
X53020476Y-76445295D02*
X53020476Y-76540533D01*
X53020476Y-76540533D02*
X53068095Y-76683390D01*
X53068095Y-76683390D02*
X53639523Y-77254819D01*
X53639523Y-77254819D02*
X53020476Y-77254819D01*
D12*
%TO.C,SW1*%
X20266200Y-78750000D02*
G75*
G02*
X19504200Y-78750000I-381000J0D01*
G01*
X19504200Y-78750000D02*
G75*
G02*
X20266200Y-78750000I381000J0D01*
G01*
D13*
%TO.C,U2*%
X51220000Y-70360000D02*
X51220000Y-70835000D01*
X51220000Y-75105000D02*
X51220000Y-75340000D01*
X51695000Y-70360000D02*
X51220000Y-70360000D01*
X51695000Y-75580000D02*
X51520000Y-75580000D01*
X55965000Y-70360000D02*
X56440000Y-70360000D01*
X55965000Y-75580000D02*
X56440000Y-75580000D01*
X56440000Y-70360000D02*
X56440000Y-70835000D01*
X56440000Y-75580000D02*
X56440000Y-75105000D01*
X51460000Y-75910000D02*
X50980000Y-75910000D01*
X51220000Y-75580000D01*
X51460000Y-75910000D01*
G36*
X51460000Y-75910000D02*
G01*
X50980000Y-75910000D01*
X51220000Y-75580000D01*
X51460000Y-75910000D01*
G37*
D14*
%TO.C,C15*%
X50345000Y-73800000D02*
G75*
G02*
X50245000Y-73800000I-50000J0D01*
G01*
X50245000Y-73800000D02*
G75*
G02*
X50345000Y-73800000I50000J0D01*
G01*
D15*
%TO.C,BT1*%
X17944999Y-74410000D02*
X18944999Y-74410000D01*
X18444999Y-74910000D02*
X18444999Y-73910000D01*
X22269999Y-67050000D02*
X25219999Y-67050000D01*
X22269999Y-71400000D02*
X22269999Y-67050000D01*
X22269999Y-77100000D02*
X22269999Y-81450000D01*
X22269999Y-81450000D02*
X25219999Y-81450000D01*
X25219999Y-67050000D02*
X25219999Y-67370000D01*
X25219999Y-81450000D02*
X25219999Y-81130000D01*
X39864999Y-74340000D02*
X40864999Y-74340000D01*
X21906999Y-72586000D02*
G75*
G02*
X22269999Y-71400000I7288684J-1582302D01*
G01*
X22269999Y-77100000D02*
G75*
G02*
X21906999Y-75914000I6925684J2768302D01*
G01*
X25219999Y-81130000D02*
G75*
G02*
X25414999Y-80915000I205000J10000D01*
G01*
X25414999Y-67585000D02*
G75*
G02*
X25219998Y-67370000I9997J204998D01*
G01*
X25414999Y-80915000D02*
G75*
G02*
X25594999Y-80955000I16990J-348547D01*
G01*
X25594999Y-67545000D02*
G75*
G02*
X25414999Y-67585000I-163010J308547D01*
G01*
X25594999Y-67545000D02*
G75*
G02*
X29470000Y-66505000I3872973J-6691496D01*
G01*
X29470000Y-66505000D02*
G75*
G02*
X37033999Y-72585001I116J-7744961D01*
G01*
X29470000Y-81995000D02*
G75*
G02*
X25594999Y-80955000I-2021J7731523D01*
G01*
X37033999Y-75914999D02*
G75*
G02*
X29470000Y-81995000I-7563883J1664960D01*
G01*
D14*
%TO.C,C16*%
X50345000Y-74800000D02*
G75*
G02*
X50245000Y-74800000I-50000J0D01*
G01*
X50245000Y-74800000D02*
G75*
G02*
X50345000Y-74800000I50000J0D01*
G01*
D13*
%TO.C,TP1*%
X21200000Y-70250000D02*
G75*
G02*
X19300000Y-70250000I-950000J0D01*
G01*
X19300000Y-70250000D02*
G75*
G02*
X21200000Y-70250000I950000J0D01*
G01*
%TD*%
M02*
