M48
; DRILL file {KiCad 7.0.2} date Wed Jun 14 22:37:58 2023
; FORMAT={-:-/ absolute / inch / decimal}
; #@! TF.CreationDate,2023-06-14T22:37:58-04:00
; #@! TF.GenerationSoftware,Kicad,Pcbnew,7.0.2
; #@! TF.FileFunction,Plated,1,2,PTH
FMAT,2
INCH
; #@! TA.AperFunction,Plated,PTH,ViaDrill
T1C0.0118
; #@! TA.AperFunction,Plated,PTH,ComponentDrill
T2C0.0157
; #@! TA.AperFunction,Plated,PTH,ComponentDrill
T3C0.0236
; #@! TA.AperFunction,Plated,PTH,ComponentDrill
T4C0.0394
%
G90
G05
T1
X2.0Y-5.75
X2.0Y-5.935
X2.0Y-6.25
X2.0Y-6.75
X2.09Y-5.38
X2.19Y-5.25
X2.28Y-6.43
X2.305Y-6.06
X2.305Y-6.31
X2.3066Y-6.2534
X2.34Y-6.6
X2.34Y-6.75
X2.44Y-6.09
X2.45Y-5.96
X2.4741Y-6.3941
X2.4842Y-6.3592
X2.52Y-6.27
X2.55Y-6.0785
X2.56Y-6.14
X2.56Y-6.76
X2.5944Y-5.9256
X2.67Y-6.42
X2.77Y-6.41
X2.81Y-5.85
X2.85Y-6.76
X2.9Y-5.38
X2.97Y-5.85
X3.0Y-5.25
X3.02Y-6.19
X3.03Y-6.58
X3.05Y-6.5
X3.06Y-6.23
X3.08Y-6.08
X3.08Y-6.29
X3.08Y-6.35
X3.18Y-6.34
X3.19Y-6.3
X3.25Y-5.25
X3.25Y-5.57
X3.25Y-6.84
X3.26Y-6.23
X3.28Y-5.39
X3.34Y-5.96
X3.34Y-6.09
X3.35Y-6.34
X3.39Y-5.44
X3.42Y-6.01
X3.46Y-6.01
X3.48Y-5.69
X3.48Y-5.85
X3.52Y-5.53
X3.63Y-6.12
X3.635Y-6.42
X3.65Y-5.85
X3.66Y-5.8
X3.7Y-5.69
X3.75Y-5.92
X3.79Y-5.41
X3.85Y-5.9
X3.86Y-5.3
X3.86Y-5.4
X3.86Y-5.54
X3.86Y-5.7
X3.87Y-5.85
X3.9Y-5.61
X3.93Y-6.225
X4.01Y-6.455
X4.02Y-6.66
X4.06Y-6.2
X4.09Y-6.12
X4.12Y-5.55
X4.14Y-6.25
X4.17Y-6.29
X4.25Y-6.54
X4.39Y-5.5
X4.41Y-5.5905
X4.45Y-5.955
X4.46Y-6.0885
X4.46Y-6.15
X4.485Y-5.69
X4.5Y-5.25
X4.5Y-6.84
X4.56Y-6.36
X4.585Y-5.695
X4.85Y-5.87
X5.02Y-5.25
X5.02Y-5.65
X5.02Y-6.27
X5.02Y-6.84
T4
X2.07Y-6.48
X2.07Y-6.58
X2.07Y-6.68
X2.07Y-6.78
X2.07Y-6.88
X2.17Y-6.48
X2.17Y-6.58
X2.17Y-6.68
X2.17Y-6.78
X2.17Y-6.88
X3.1Y-5.53
X3.1Y-5.63
T2
G00X4.6161Y-6.0838
M15
G01X4.6239Y-6.0838
M16
G05
G00X4.6161Y-6.52
M15
G01X4.6239Y-6.52
M16
G05
G00X4.6948Y-6.0838
M15
G01X4.7027Y-6.0838
M16
G05
G00X4.6948Y-6.52
M15
G01X4.7027Y-6.52
M16
G05
G00X4.7735Y-6.0838
M15
G01X4.7814Y-6.0838
M16
G05
G00X4.7735Y-6.52
M15
G01X4.7814Y-6.52
M16
G05
G00X4.8523Y-6.0838
M15
G01X4.8602Y-6.0838
M16
G05
G00X4.8523Y-6.52
M15
G01X4.8602Y-6.52
M16
G05
G00X4.931Y-6.0838
M15
G01X4.9389Y-6.0838
M16
G05
G00X4.931Y-6.52
M15
G01X4.9389Y-6.52
M16
G05
T3
G00X2.0887Y-6.0144
M15
G01X2.0572Y-6.0144
M16
G05
G00X2.0887Y-6.3546
M15
G01X2.0572Y-6.3546
M16
G05
G00X2.2592Y-6.0144
M15
G01X2.2159Y-6.0144
M16
G05
G00X2.2592Y-6.3546
M15
G01X2.2159Y-6.3546
M16
G05
T0
M30
