%TF.GenerationSoftware,KiCad,Pcbnew,7.0.2*%
%TF.CreationDate,2023-06-14T22:38:02-04:00*%
%TF.ProjectId,WeatherPill,57656174-6865-4725-9069-6c6c2e6b6963,rev?*%
%TF.SameCoordinates,Original*%
%TF.FileFunction,Legend,Top*%
%TF.FilePolarity,Positive*%
%FSLAX46Y46*%
G04 Gerber Fmt 4.6, Leading zero omitted, Abs format (unit mm)*
G04 Created by KiCad (PCBNEW 7.0.2) date 2023-06-14 22:38:02*
%MOMM*%
%LPD*%
G01*
G04 APERTURE LIST*
%ADD10C,0.150000*%
%ADD11C,0.300000*%
%ADD12C,0.100000*%
%ADD13C,0.120000*%
%ADD14C,0.152400*%
%ADD15C,0.200000*%
%ADD16C,0.127000*%
G04 APERTURE END LIST*
D10*
X99993428Y-172477142D02*
X100279142Y-173677142D01*
X100279142Y-173677142D02*
X100507714Y-172820000D01*
X100507714Y-172820000D02*
X100736285Y-173677142D01*
X100736285Y-173677142D02*
X101022000Y-172477142D01*
X101936286Y-173620000D02*
X101822000Y-173677142D01*
X101822000Y-173677142D02*
X101593429Y-173677142D01*
X101593429Y-173677142D02*
X101479143Y-173620000D01*
X101479143Y-173620000D02*
X101422000Y-173505714D01*
X101422000Y-173505714D02*
X101422000Y-173048571D01*
X101422000Y-173048571D02*
X101479143Y-172934285D01*
X101479143Y-172934285D02*
X101593429Y-172877142D01*
X101593429Y-172877142D02*
X101822000Y-172877142D01*
X101822000Y-172877142D02*
X101936286Y-172934285D01*
X101936286Y-172934285D02*
X101993429Y-173048571D01*
X101993429Y-173048571D02*
X101993429Y-173162857D01*
X101993429Y-173162857D02*
X101422000Y-173277142D01*
X103022000Y-173677142D02*
X103022000Y-173048571D01*
X103022000Y-173048571D02*
X102964857Y-172934285D01*
X102964857Y-172934285D02*
X102850571Y-172877142D01*
X102850571Y-172877142D02*
X102622000Y-172877142D01*
X102622000Y-172877142D02*
X102507714Y-172934285D01*
X103022000Y-173620000D02*
X102907714Y-173677142D01*
X102907714Y-173677142D02*
X102622000Y-173677142D01*
X102622000Y-173677142D02*
X102507714Y-173620000D01*
X102507714Y-173620000D02*
X102450571Y-173505714D01*
X102450571Y-173505714D02*
X102450571Y-173391428D01*
X102450571Y-173391428D02*
X102507714Y-173277142D01*
X102507714Y-173277142D02*
X102622000Y-173220000D01*
X102622000Y-173220000D02*
X102907714Y-173220000D01*
X102907714Y-173220000D02*
X103022000Y-173162857D01*
X103421999Y-172877142D02*
X103879142Y-172877142D01*
X103593428Y-172477142D02*
X103593428Y-173505714D01*
X103593428Y-173505714D02*
X103650571Y-173620000D01*
X103650571Y-173620000D02*
X103764856Y-173677142D01*
X103764856Y-173677142D02*
X103879142Y-173677142D01*
X104279142Y-173677142D02*
X104279142Y-172477142D01*
X104793428Y-173677142D02*
X104793428Y-173048571D01*
X104793428Y-173048571D02*
X104736285Y-172934285D01*
X104736285Y-172934285D02*
X104621999Y-172877142D01*
X104621999Y-172877142D02*
X104450570Y-172877142D01*
X104450570Y-172877142D02*
X104336285Y-172934285D01*
X104336285Y-172934285D02*
X104279142Y-172991428D01*
X105821999Y-173620000D02*
X105707713Y-173677142D01*
X105707713Y-173677142D02*
X105479142Y-173677142D01*
X105479142Y-173677142D02*
X105364856Y-173620000D01*
X105364856Y-173620000D02*
X105307713Y-173505714D01*
X105307713Y-173505714D02*
X105307713Y-173048571D01*
X105307713Y-173048571D02*
X105364856Y-172934285D01*
X105364856Y-172934285D02*
X105479142Y-172877142D01*
X105479142Y-172877142D02*
X105707713Y-172877142D01*
X105707713Y-172877142D02*
X105821999Y-172934285D01*
X105821999Y-172934285D02*
X105879142Y-173048571D01*
X105879142Y-173048571D02*
X105879142Y-173162857D01*
X105879142Y-173162857D02*
X105307713Y-173277142D01*
X106393427Y-173677142D02*
X106393427Y-172877142D01*
X106393427Y-173105714D02*
X106450570Y-172991428D01*
X106450570Y-172991428D02*
X106507713Y-172934285D01*
X106507713Y-172934285D02*
X106621998Y-172877142D01*
X106621998Y-172877142D02*
X106736284Y-172877142D01*
X107136284Y-173677142D02*
X107136284Y-172477142D01*
X107136284Y-172477142D02*
X107593427Y-172477142D01*
X107593427Y-172477142D02*
X107707712Y-172534285D01*
X107707712Y-172534285D02*
X107764855Y-172591428D01*
X107764855Y-172591428D02*
X107821998Y-172705714D01*
X107821998Y-172705714D02*
X107821998Y-172877142D01*
X107821998Y-172877142D02*
X107764855Y-172991428D01*
X107764855Y-172991428D02*
X107707712Y-173048571D01*
X107707712Y-173048571D02*
X107593427Y-173105714D01*
X107593427Y-173105714D02*
X107136284Y-173105714D01*
X108336284Y-173677142D02*
X108336284Y-172877142D01*
X108336284Y-172477142D02*
X108279141Y-172534285D01*
X108279141Y-172534285D02*
X108336284Y-172591428D01*
X108336284Y-172591428D02*
X108393427Y-172534285D01*
X108393427Y-172534285D02*
X108336284Y-172477142D01*
X108336284Y-172477142D02*
X108336284Y-172591428D01*
X109079141Y-173677142D02*
X108964856Y-173620000D01*
X108964856Y-173620000D02*
X108907713Y-173505714D01*
X108907713Y-173505714D02*
X108907713Y-172477142D01*
X109707712Y-173677142D02*
X109593427Y-173620000D01*
X109593427Y-173620000D02*
X109536284Y-173505714D01*
X109536284Y-173505714D02*
X109536284Y-172477142D01*
X110907712Y-172477142D02*
X111307712Y-173677142D01*
X111307712Y-173677142D02*
X111707712Y-172477142D01*
X112736283Y-173677142D02*
X112050569Y-173677142D01*
X112393426Y-173677142D02*
X112393426Y-172477142D01*
X112393426Y-172477142D02*
X112279140Y-172648571D01*
X112279140Y-172648571D02*
X112164855Y-172762857D01*
X112164855Y-172762857D02*
X112050569Y-172820000D01*
X100507714Y-174992571D02*
X100107714Y-174992571D01*
X100107714Y-175621142D02*
X100107714Y-174421142D01*
X100107714Y-174421142D02*
X100679142Y-174421142D01*
X101136285Y-175621142D02*
X101136285Y-174821142D01*
X101136285Y-175049714D02*
X101193428Y-174935428D01*
X101193428Y-174935428D02*
X101250571Y-174878285D01*
X101250571Y-174878285D02*
X101364856Y-174821142D01*
X101364856Y-174821142D02*
X101479142Y-174821142D01*
X102336285Y-175564000D02*
X102221999Y-175621142D01*
X102221999Y-175621142D02*
X101993428Y-175621142D01*
X101993428Y-175621142D02*
X101879142Y-175564000D01*
X101879142Y-175564000D02*
X101821999Y-175449714D01*
X101821999Y-175449714D02*
X101821999Y-174992571D01*
X101821999Y-174992571D02*
X101879142Y-174878285D01*
X101879142Y-174878285D02*
X101993428Y-174821142D01*
X101993428Y-174821142D02*
X102221999Y-174821142D01*
X102221999Y-174821142D02*
X102336285Y-174878285D01*
X102336285Y-174878285D02*
X102393428Y-174992571D01*
X102393428Y-174992571D02*
X102393428Y-175106857D01*
X102393428Y-175106857D02*
X101821999Y-175221142D01*
X102221999Y-174364000D02*
X102050570Y-174535428D01*
X103421999Y-175621142D02*
X103421999Y-174421142D01*
X103421999Y-175564000D02*
X103307713Y-175621142D01*
X103307713Y-175621142D02*
X103079141Y-175621142D01*
X103079141Y-175621142D02*
X102964856Y-175564000D01*
X102964856Y-175564000D02*
X102907713Y-175506857D01*
X102907713Y-175506857D02*
X102850570Y-175392571D01*
X102850570Y-175392571D02*
X102850570Y-175049714D01*
X102850570Y-175049714D02*
X102907713Y-174935428D01*
X102907713Y-174935428D02*
X102964856Y-174878285D01*
X102964856Y-174878285D02*
X103079141Y-174821142D01*
X103079141Y-174821142D02*
X103307713Y-174821142D01*
X103307713Y-174821142D02*
X103421999Y-174878285D01*
X104450570Y-175564000D02*
X104336284Y-175621142D01*
X104336284Y-175621142D02*
X104107713Y-175621142D01*
X104107713Y-175621142D02*
X103993427Y-175564000D01*
X103993427Y-175564000D02*
X103936284Y-175449714D01*
X103936284Y-175449714D02*
X103936284Y-174992571D01*
X103936284Y-174992571D02*
X103993427Y-174878285D01*
X103993427Y-174878285D02*
X104107713Y-174821142D01*
X104107713Y-174821142D02*
X104336284Y-174821142D01*
X104336284Y-174821142D02*
X104450570Y-174878285D01*
X104450570Y-174878285D02*
X104507713Y-174992571D01*
X104507713Y-174992571D02*
X104507713Y-175106857D01*
X104507713Y-175106857D02*
X103936284Y-175221142D01*
X104336284Y-174364000D02*
X104164855Y-174535428D01*
X105021998Y-175621142D02*
X105021998Y-174821142D01*
X105021998Y-175049714D02*
X105079141Y-174935428D01*
X105079141Y-174935428D02*
X105136284Y-174878285D01*
X105136284Y-174878285D02*
X105250569Y-174821142D01*
X105250569Y-174821142D02*
X105364855Y-174821142D01*
X105764855Y-175621142D02*
X105764855Y-174821142D01*
X105764855Y-174421142D02*
X105707712Y-174478285D01*
X105707712Y-174478285D02*
X105764855Y-174535428D01*
X105764855Y-174535428D02*
X105821998Y-174478285D01*
X105821998Y-174478285D02*
X105764855Y-174421142D01*
X105764855Y-174421142D02*
X105764855Y-174535428D01*
X106850570Y-175564000D02*
X106736284Y-175621142D01*
X106736284Y-175621142D02*
X106507712Y-175621142D01*
X106507712Y-175621142D02*
X106393427Y-175564000D01*
X106393427Y-175564000D02*
X106336284Y-175506857D01*
X106336284Y-175506857D02*
X106279141Y-175392571D01*
X106279141Y-175392571D02*
X106279141Y-175049714D01*
X106279141Y-175049714D02*
X106336284Y-174935428D01*
X106336284Y-174935428D02*
X106393427Y-174878285D01*
X106393427Y-174878285D02*
X106507712Y-174821142D01*
X106507712Y-174821142D02*
X106736284Y-174821142D01*
X106736284Y-174821142D02*
X106850570Y-174878285D01*
X108679141Y-174992571D02*
X108850569Y-175049714D01*
X108850569Y-175049714D02*
X108907712Y-175106857D01*
X108907712Y-175106857D02*
X108964855Y-175221142D01*
X108964855Y-175221142D02*
X108964855Y-175392571D01*
X108964855Y-175392571D02*
X108907712Y-175506857D01*
X108907712Y-175506857D02*
X108850569Y-175564000D01*
X108850569Y-175564000D02*
X108736284Y-175621142D01*
X108736284Y-175621142D02*
X108279141Y-175621142D01*
X108279141Y-175621142D02*
X108279141Y-174421142D01*
X108279141Y-174421142D02*
X108679141Y-174421142D01*
X108679141Y-174421142D02*
X108793427Y-174478285D01*
X108793427Y-174478285D02*
X108850569Y-174535428D01*
X108850569Y-174535428D02*
X108907712Y-174649714D01*
X108907712Y-174649714D02*
X108907712Y-174764000D01*
X108907712Y-174764000D02*
X108850569Y-174878285D01*
X108850569Y-174878285D02*
X108793427Y-174935428D01*
X108793427Y-174935428D02*
X108679141Y-174992571D01*
X108679141Y-174992571D02*
X108279141Y-174992571D01*
X109479141Y-175621142D02*
X109479141Y-174821142D01*
X109479141Y-174421142D02*
X109421998Y-174478285D01*
X109421998Y-174478285D02*
X109479141Y-174535428D01*
X109479141Y-174535428D02*
X109536284Y-174478285D01*
X109536284Y-174478285D02*
X109479141Y-174421142D01*
X109479141Y-174421142D02*
X109479141Y-174535428D01*
X110221998Y-175621142D02*
X110107713Y-175564000D01*
X110107713Y-175564000D02*
X110050570Y-175449714D01*
X110050570Y-175449714D02*
X110050570Y-174421142D01*
X110850569Y-175621142D02*
X110736284Y-175564000D01*
X110736284Y-175564000D02*
X110679141Y-175506857D01*
X110679141Y-175506857D02*
X110621998Y-175392571D01*
X110621998Y-175392571D02*
X110621998Y-175049714D01*
X110621998Y-175049714D02*
X110679141Y-174935428D01*
X110679141Y-174935428D02*
X110736284Y-174878285D01*
X110736284Y-174878285D02*
X110850569Y-174821142D01*
X110850569Y-174821142D02*
X111021998Y-174821142D01*
X111021998Y-174821142D02*
X111136284Y-174878285D01*
X111136284Y-174878285D02*
X111193427Y-174935428D01*
X111193427Y-174935428D02*
X111250569Y-175049714D01*
X111250569Y-175049714D02*
X111250569Y-175392571D01*
X111250569Y-175392571D02*
X111193427Y-175506857D01*
X111193427Y-175506857D02*
X111136284Y-175564000D01*
X111136284Y-175564000D02*
X111021998Y-175621142D01*
X111021998Y-175621142D02*
X110850569Y-175621142D01*
X112279141Y-175621142D02*
X112279141Y-174421142D01*
X112279141Y-175564000D02*
X112164855Y-175621142D01*
X112164855Y-175621142D02*
X111936283Y-175621142D01*
X111936283Y-175621142D02*
X111821998Y-175564000D01*
X111821998Y-175564000D02*
X111764855Y-175506857D01*
X111764855Y-175506857D02*
X111707712Y-175392571D01*
X111707712Y-175392571D02*
X111707712Y-175049714D01*
X111707712Y-175049714D02*
X111764855Y-174935428D01*
X111764855Y-174935428D02*
X111821998Y-174878285D01*
X111821998Y-174878285D02*
X111936283Y-174821142D01*
X111936283Y-174821142D02*
X112164855Y-174821142D01*
X112164855Y-174821142D02*
X112279141Y-174878285D01*
X113307712Y-175564000D02*
X113193426Y-175621142D01*
X113193426Y-175621142D02*
X112964855Y-175621142D01*
X112964855Y-175621142D02*
X112850569Y-175564000D01*
X112850569Y-175564000D02*
X112793426Y-175449714D01*
X112793426Y-175449714D02*
X112793426Y-174992571D01*
X112793426Y-174992571D02*
X112850569Y-174878285D01*
X112850569Y-174878285D02*
X112964855Y-174821142D01*
X112964855Y-174821142D02*
X113193426Y-174821142D01*
X113193426Y-174821142D02*
X113307712Y-174878285D01*
X113307712Y-174878285D02*
X113364855Y-174992571D01*
X113364855Y-174992571D02*
X113364855Y-175106857D01*
X113364855Y-175106857D02*
X112793426Y-175221142D01*
X114393426Y-175621142D02*
X114393426Y-174992571D01*
X114393426Y-174992571D02*
X114336283Y-174878285D01*
X114336283Y-174878285D02*
X114221997Y-174821142D01*
X114221997Y-174821142D02*
X113993426Y-174821142D01*
X113993426Y-174821142D02*
X113879140Y-174878285D01*
X114393426Y-175564000D02*
X114279140Y-175621142D01*
X114279140Y-175621142D02*
X113993426Y-175621142D01*
X113993426Y-175621142D02*
X113879140Y-175564000D01*
X113879140Y-175564000D02*
X113821997Y-175449714D01*
X113821997Y-175449714D02*
X113821997Y-175335428D01*
X113821997Y-175335428D02*
X113879140Y-175221142D01*
X113879140Y-175221142D02*
X113993426Y-175164000D01*
X113993426Y-175164000D02*
X114279140Y-175164000D01*
X114279140Y-175164000D02*
X114393426Y-175106857D01*
X115479140Y-174821142D02*
X115479140Y-175621142D01*
X114964854Y-174821142D02*
X114964854Y-175449714D01*
X114964854Y-175449714D02*
X115021997Y-175564000D01*
X115021997Y-175564000D02*
X115136282Y-175621142D01*
X115136282Y-175621142D02*
X115307711Y-175621142D01*
X115307711Y-175621142D02*
X115421997Y-175564000D01*
X115421997Y-175564000D02*
X115479140Y-175506857D01*
D11*
X80732285Y-139667428D02*
X81660857Y-139667428D01*
X81660857Y-139667428D02*
X81160857Y-140238857D01*
X81160857Y-140238857D02*
X81375142Y-140238857D01*
X81375142Y-140238857D02*
X81518000Y-140310285D01*
X81518000Y-140310285D02*
X81589428Y-140381714D01*
X81589428Y-140381714D02*
X81660857Y-140524571D01*
X81660857Y-140524571D02*
X81660857Y-140881714D01*
X81660857Y-140881714D02*
X81589428Y-141024571D01*
X81589428Y-141024571D02*
X81518000Y-141096000D01*
X81518000Y-141096000D02*
X81375142Y-141167428D01*
X81375142Y-141167428D02*
X80946571Y-141167428D01*
X80946571Y-141167428D02*
X80803714Y-141096000D01*
X80803714Y-141096000D02*
X80732285Y-141024571D01*
X82089428Y-139667428D02*
X82589428Y-141167428D01*
X82589428Y-141167428D02*
X83089428Y-139667428D01*
X83446570Y-139667428D02*
X84375142Y-139667428D01*
X84375142Y-139667428D02*
X83875142Y-140238857D01*
X83875142Y-140238857D02*
X84089427Y-140238857D01*
X84089427Y-140238857D02*
X84232285Y-140310285D01*
X84232285Y-140310285D02*
X84303713Y-140381714D01*
X84303713Y-140381714D02*
X84375142Y-140524571D01*
X84375142Y-140524571D02*
X84375142Y-140881714D01*
X84375142Y-140881714D02*
X84303713Y-141024571D01*
X84303713Y-141024571D02*
X84232285Y-141096000D01*
X84232285Y-141096000D02*
X84089427Y-141167428D01*
X84089427Y-141167428D02*
X83660856Y-141167428D01*
X83660856Y-141167428D02*
X83517999Y-141096000D01*
X83517999Y-141096000D02*
X83446570Y-141024571D01*
X81660857Y-142659857D02*
X81518000Y-142588428D01*
X81518000Y-142588428D02*
X81303714Y-142588428D01*
X81303714Y-142588428D02*
X81089428Y-142659857D01*
X81089428Y-142659857D02*
X80946571Y-142802714D01*
X80946571Y-142802714D02*
X80875142Y-142945571D01*
X80875142Y-142945571D02*
X80803714Y-143231285D01*
X80803714Y-143231285D02*
X80803714Y-143445571D01*
X80803714Y-143445571D02*
X80875142Y-143731285D01*
X80875142Y-143731285D02*
X80946571Y-143874142D01*
X80946571Y-143874142D02*
X81089428Y-144017000D01*
X81089428Y-144017000D02*
X81303714Y-144088428D01*
X81303714Y-144088428D02*
X81446571Y-144088428D01*
X81446571Y-144088428D02*
X81660857Y-144017000D01*
X81660857Y-144017000D02*
X81732285Y-143945571D01*
X81732285Y-143945571D02*
X81732285Y-143445571D01*
X81732285Y-143445571D02*
X81446571Y-143445571D01*
X82375142Y-144088428D02*
X82375142Y-142588428D01*
X82375142Y-142588428D02*
X83232285Y-144088428D01*
X83232285Y-144088428D02*
X83232285Y-142588428D01*
X83946571Y-144088428D02*
X83946571Y-142588428D01*
X83946571Y-142588428D02*
X84303714Y-142588428D01*
X84303714Y-142588428D02*
X84518000Y-142659857D01*
X84518000Y-142659857D02*
X84660857Y-142802714D01*
X84660857Y-142802714D02*
X84732286Y-142945571D01*
X84732286Y-142945571D02*
X84803714Y-143231285D01*
X84803714Y-143231285D02*
X84803714Y-143445571D01*
X84803714Y-143445571D02*
X84732286Y-143731285D01*
X84732286Y-143731285D02*
X84660857Y-143874142D01*
X84660857Y-143874142D02*
X84518000Y-144017000D01*
X84518000Y-144017000D02*
X84303714Y-144088428D01*
X84303714Y-144088428D02*
X83946571Y-144088428D01*
X82581714Y-172465000D02*
X82796000Y-172536428D01*
X82796000Y-172536428D02*
X83153142Y-172536428D01*
X83153142Y-172536428D02*
X83296000Y-172465000D01*
X83296000Y-172465000D02*
X83367428Y-172393571D01*
X83367428Y-172393571D02*
X83438857Y-172250714D01*
X83438857Y-172250714D02*
X83438857Y-172107857D01*
X83438857Y-172107857D02*
X83367428Y-171965000D01*
X83367428Y-171965000D02*
X83296000Y-171893571D01*
X83296000Y-171893571D02*
X83153142Y-171822142D01*
X83153142Y-171822142D02*
X82867428Y-171750714D01*
X82867428Y-171750714D02*
X82724571Y-171679285D01*
X82724571Y-171679285D02*
X82653142Y-171607857D01*
X82653142Y-171607857D02*
X82581714Y-171465000D01*
X82581714Y-171465000D02*
X82581714Y-171322142D01*
X82581714Y-171322142D02*
X82653142Y-171179285D01*
X82653142Y-171179285D02*
X82724571Y-171107857D01*
X82724571Y-171107857D02*
X82867428Y-171036428D01*
X82867428Y-171036428D02*
X83224571Y-171036428D01*
X83224571Y-171036428D02*
X83438857Y-171107857D01*
X84938856Y-172393571D02*
X84867428Y-172465000D01*
X84867428Y-172465000D02*
X84653142Y-172536428D01*
X84653142Y-172536428D02*
X84510285Y-172536428D01*
X84510285Y-172536428D02*
X84295999Y-172465000D01*
X84295999Y-172465000D02*
X84153142Y-172322142D01*
X84153142Y-172322142D02*
X84081713Y-172179285D01*
X84081713Y-172179285D02*
X84010285Y-171893571D01*
X84010285Y-171893571D02*
X84010285Y-171679285D01*
X84010285Y-171679285D02*
X84081713Y-171393571D01*
X84081713Y-171393571D02*
X84153142Y-171250714D01*
X84153142Y-171250714D02*
X84295999Y-171107857D01*
X84295999Y-171107857D02*
X84510285Y-171036428D01*
X84510285Y-171036428D02*
X84653142Y-171036428D01*
X84653142Y-171036428D02*
X84867428Y-171107857D01*
X84867428Y-171107857D02*
X84938856Y-171179285D01*
X86295999Y-172536428D02*
X85581713Y-172536428D01*
X85581713Y-172536428D02*
X85581713Y-171036428D01*
X97480285Y-133277571D02*
X97408857Y-133349000D01*
X97408857Y-133349000D02*
X97194571Y-133420428D01*
X97194571Y-133420428D02*
X97051714Y-133420428D01*
X97051714Y-133420428D02*
X96837428Y-133349000D01*
X96837428Y-133349000D02*
X96694571Y-133206142D01*
X96694571Y-133206142D02*
X96623142Y-133063285D01*
X96623142Y-133063285D02*
X96551714Y-132777571D01*
X96551714Y-132777571D02*
X96551714Y-132563285D01*
X96551714Y-132563285D02*
X96623142Y-132277571D01*
X96623142Y-132277571D02*
X96694571Y-132134714D01*
X96694571Y-132134714D02*
X96837428Y-131991857D01*
X96837428Y-131991857D02*
X97051714Y-131920428D01*
X97051714Y-131920428D02*
X97194571Y-131920428D01*
X97194571Y-131920428D02*
X97408857Y-131991857D01*
X97408857Y-131991857D02*
X97480285Y-132063285D01*
X98051714Y-133349000D02*
X98266000Y-133420428D01*
X98266000Y-133420428D02*
X98623142Y-133420428D01*
X98623142Y-133420428D02*
X98766000Y-133349000D01*
X98766000Y-133349000D02*
X98837428Y-133277571D01*
X98837428Y-133277571D02*
X98908857Y-133134714D01*
X98908857Y-133134714D02*
X98908857Y-132991857D01*
X98908857Y-132991857D02*
X98837428Y-132849000D01*
X98837428Y-132849000D02*
X98766000Y-132777571D01*
X98766000Y-132777571D02*
X98623142Y-132706142D01*
X98623142Y-132706142D02*
X98337428Y-132634714D01*
X98337428Y-132634714D02*
X98194571Y-132563285D01*
X98194571Y-132563285D02*
X98123142Y-132491857D01*
X98123142Y-132491857D02*
X98051714Y-132349000D01*
X98051714Y-132349000D02*
X98051714Y-132206142D01*
X98051714Y-132206142D02*
X98123142Y-132063285D01*
X98123142Y-132063285D02*
X98194571Y-131991857D01*
X98194571Y-131991857D02*
X98337428Y-131920428D01*
X98337428Y-131920428D02*
X98694571Y-131920428D01*
X98694571Y-131920428D02*
X98908857Y-131991857D01*
X99194571Y-133563285D02*
X100337428Y-133563285D01*
X101480285Y-133420428D02*
X100623142Y-133420428D01*
X101051713Y-133420428D02*
X101051713Y-131920428D01*
X101051713Y-131920428D02*
X100908856Y-132134714D01*
X100908856Y-132134714D02*
X100765999Y-132277571D01*
X100765999Y-132277571D02*
X100623142Y-132349000D01*
X82581714Y-170179000D02*
X82796000Y-170250428D01*
X82796000Y-170250428D02*
X83153142Y-170250428D01*
X83153142Y-170250428D02*
X83296000Y-170179000D01*
X83296000Y-170179000D02*
X83367428Y-170107571D01*
X83367428Y-170107571D02*
X83438857Y-169964714D01*
X83438857Y-169964714D02*
X83438857Y-169821857D01*
X83438857Y-169821857D02*
X83367428Y-169679000D01*
X83367428Y-169679000D02*
X83296000Y-169607571D01*
X83296000Y-169607571D02*
X83153142Y-169536142D01*
X83153142Y-169536142D02*
X82867428Y-169464714D01*
X82867428Y-169464714D02*
X82724571Y-169393285D01*
X82724571Y-169393285D02*
X82653142Y-169321857D01*
X82653142Y-169321857D02*
X82581714Y-169179000D01*
X82581714Y-169179000D02*
X82581714Y-169036142D01*
X82581714Y-169036142D02*
X82653142Y-168893285D01*
X82653142Y-168893285D02*
X82724571Y-168821857D01*
X82724571Y-168821857D02*
X82867428Y-168750428D01*
X82867428Y-168750428D02*
X83224571Y-168750428D01*
X83224571Y-168750428D02*
X83438857Y-168821857D01*
X84081713Y-170250428D02*
X84081713Y-168750428D01*
X84081713Y-168750428D02*
X84438856Y-168750428D01*
X84438856Y-168750428D02*
X84653142Y-168821857D01*
X84653142Y-168821857D02*
X84795999Y-168964714D01*
X84795999Y-168964714D02*
X84867428Y-169107571D01*
X84867428Y-169107571D02*
X84938856Y-169393285D01*
X84938856Y-169393285D02*
X84938856Y-169607571D01*
X84938856Y-169607571D02*
X84867428Y-169893285D01*
X84867428Y-169893285D02*
X84795999Y-170036142D01*
X84795999Y-170036142D02*
X84653142Y-170179000D01*
X84653142Y-170179000D02*
X84438856Y-170250428D01*
X84438856Y-170250428D02*
X84081713Y-170250428D01*
X85510285Y-169821857D02*
X86224571Y-169821857D01*
X85367428Y-170250428D02*
X85867428Y-168750428D01*
X85867428Y-168750428D02*
X86367428Y-170250428D01*
X93757714Y-140461000D02*
X93972000Y-140532428D01*
X93972000Y-140532428D02*
X94329142Y-140532428D01*
X94329142Y-140532428D02*
X94472000Y-140461000D01*
X94472000Y-140461000D02*
X94543428Y-140389571D01*
X94543428Y-140389571D02*
X94614857Y-140246714D01*
X94614857Y-140246714D02*
X94614857Y-140103857D01*
X94614857Y-140103857D02*
X94543428Y-139961000D01*
X94543428Y-139961000D02*
X94472000Y-139889571D01*
X94472000Y-139889571D02*
X94329142Y-139818142D01*
X94329142Y-139818142D02*
X94043428Y-139746714D01*
X94043428Y-139746714D02*
X93900571Y-139675285D01*
X93900571Y-139675285D02*
X93829142Y-139603857D01*
X93829142Y-139603857D02*
X93757714Y-139461000D01*
X93757714Y-139461000D02*
X93757714Y-139318142D01*
X93757714Y-139318142D02*
X93829142Y-139175285D01*
X93829142Y-139175285D02*
X93900571Y-139103857D01*
X93900571Y-139103857D02*
X94043428Y-139032428D01*
X94043428Y-139032428D02*
X94400571Y-139032428D01*
X94400571Y-139032428D02*
X94614857Y-139103857D01*
X95257713Y-140532428D02*
X95257713Y-139032428D01*
X95257713Y-139032428D02*
X95614856Y-139032428D01*
X95614856Y-139032428D02*
X95829142Y-139103857D01*
X95829142Y-139103857D02*
X95971999Y-139246714D01*
X95971999Y-139246714D02*
X96043428Y-139389571D01*
X96043428Y-139389571D02*
X96114856Y-139675285D01*
X96114856Y-139675285D02*
X96114856Y-139889571D01*
X96114856Y-139889571D02*
X96043428Y-140175285D01*
X96043428Y-140175285D02*
X95971999Y-140318142D01*
X95971999Y-140318142D02*
X95829142Y-140461000D01*
X95829142Y-140461000D02*
X95614856Y-140532428D01*
X95614856Y-140532428D02*
X95257713Y-140532428D01*
X97043428Y-139032428D02*
X97329142Y-139032428D01*
X97329142Y-139032428D02*
X97471999Y-139103857D01*
X97471999Y-139103857D02*
X97614856Y-139246714D01*
X97614856Y-139246714D02*
X97686285Y-139532428D01*
X97686285Y-139532428D02*
X97686285Y-140032428D01*
X97686285Y-140032428D02*
X97614856Y-140318142D01*
X97614856Y-140318142D02*
X97471999Y-140461000D01*
X97471999Y-140461000D02*
X97329142Y-140532428D01*
X97329142Y-140532428D02*
X97043428Y-140532428D01*
X97043428Y-140532428D02*
X96900571Y-140461000D01*
X96900571Y-140461000D02*
X96757713Y-140318142D01*
X96757713Y-140318142D02*
X96686285Y-140032428D01*
X96686285Y-140032428D02*
X96686285Y-139532428D01*
X96686285Y-139532428D02*
X96757713Y-139246714D01*
X96757713Y-139246714D02*
X96900571Y-139103857D01*
X96900571Y-139103857D02*
X97043428Y-139032428D01*
X97972000Y-140675285D02*
X99114857Y-140675285D01*
X100257714Y-140532428D02*
X99400571Y-140532428D01*
X99829142Y-140532428D02*
X99829142Y-139032428D01*
X99829142Y-139032428D02*
X99686285Y-139246714D01*
X99686285Y-139246714D02*
X99543428Y-139389571D01*
X99543428Y-139389571D02*
X99400571Y-139461000D01*
X95956285Y-145215571D02*
X95884857Y-145287000D01*
X95884857Y-145287000D02*
X95670571Y-145358428D01*
X95670571Y-145358428D02*
X95527714Y-145358428D01*
X95527714Y-145358428D02*
X95313428Y-145287000D01*
X95313428Y-145287000D02*
X95170571Y-145144142D01*
X95170571Y-145144142D02*
X95099142Y-145001285D01*
X95099142Y-145001285D02*
X95027714Y-144715571D01*
X95027714Y-144715571D02*
X95027714Y-144501285D01*
X95027714Y-144501285D02*
X95099142Y-144215571D01*
X95099142Y-144215571D02*
X95170571Y-144072714D01*
X95170571Y-144072714D02*
X95313428Y-143929857D01*
X95313428Y-143929857D02*
X95527714Y-143858428D01*
X95527714Y-143858428D02*
X95670571Y-143858428D01*
X95670571Y-143858428D02*
X95884857Y-143929857D01*
X95884857Y-143929857D02*
X95956285Y-144001285D01*
X96527714Y-145287000D02*
X96742000Y-145358428D01*
X96742000Y-145358428D02*
X97099142Y-145358428D01*
X97099142Y-145358428D02*
X97242000Y-145287000D01*
X97242000Y-145287000D02*
X97313428Y-145215571D01*
X97313428Y-145215571D02*
X97384857Y-145072714D01*
X97384857Y-145072714D02*
X97384857Y-144929857D01*
X97384857Y-144929857D02*
X97313428Y-144787000D01*
X97313428Y-144787000D02*
X97242000Y-144715571D01*
X97242000Y-144715571D02*
X97099142Y-144644142D01*
X97099142Y-144644142D02*
X96813428Y-144572714D01*
X96813428Y-144572714D02*
X96670571Y-144501285D01*
X96670571Y-144501285D02*
X96599142Y-144429857D01*
X96599142Y-144429857D02*
X96527714Y-144287000D01*
X96527714Y-144287000D02*
X96527714Y-144144142D01*
X96527714Y-144144142D02*
X96599142Y-144001285D01*
X96599142Y-144001285D02*
X96670571Y-143929857D01*
X96670571Y-143929857D02*
X96813428Y-143858428D01*
X96813428Y-143858428D02*
X97170571Y-143858428D01*
X97170571Y-143858428D02*
X97384857Y-143929857D01*
X97670571Y-145501285D02*
X98813428Y-145501285D01*
X99099142Y-144001285D02*
X99170570Y-143929857D01*
X99170570Y-143929857D02*
X99313428Y-143858428D01*
X99313428Y-143858428D02*
X99670570Y-143858428D01*
X99670570Y-143858428D02*
X99813428Y-143929857D01*
X99813428Y-143929857D02*
X99884856Y-144001285D01*
X99884856Y-144001285D02*
X99956285Y-144144142D01*
X99956285Y-144144142D02*
X99956285Y-144287000D01*
X99956285Y-144287000D02*
X99884856Y-144501285D01*
X99884856Y-144501285D02*
X99027713Y-145358428D01*
X99027713Y-145358428D02*
X99956285Y-145358428D01*
X94519714Y-137921000D02*
X94734000Y-137992428D01*
X94734000Y-137992428D02*
X95091142Y-137992428D01*
X95091142Y-137992428D02*
X95234000Y-137921000D01*
X95234000Y-137921000D02*
X95305428Y-137849571D01*
X95305428Y-137849571D02*
X95376857Y-137706714D01*
X95376857Y-137706714D02*
X95376857Y-137563857D01*
X95376857Y-137563857D02*
X95305428Y-137421000D01*
X95305428Y-137421000D02*
X95234000Y-137349571D01*
X95234000Y-137349571D02*
X95091142Y-137278142D01*
X95091142Y-137278142D02*
X94805428Y-137206714D01*
X94805428Y-137206714D02*
X94662571Y-137135285D01*
X94662571Y-137135285D02*
X94591142Y-137063857D01*
X94591142Y-137063857D02*
X94519714Y-136921000D01*
X94519714Y-136921000D02*
X94519714Y-136778142D01*
X94519714Y-136778142D02*
X94591142Y-136635285D01*
X94591142Y-136635285D02*
X94662571Y-136563857D01*
X94662571Y-136563857D02*
X94805428Y-136492428D01*
X94805428Y-136492428D02*
X95162571Y-136492428D01*
X95162571Y-136492428D02*
X95376857Y-136563857D01*
X96019713Y-137992428D02*
X96019713Y-136492428D01*
X96019713Y-136492428D02*
X96376856Y-136492428D01*
X96376856Y-136492428D02*
X96591142Y-136563857D01*
X96591142Y-136563857D02*
X96733999Y-136706714D01*
X96733999Y-136706714D02*
X96805428Y-136849571D01*
X96805428Y-136849571D02*
X96876856Y-137135285D01*
X96876856Y-137135285D02*
X96876856Y-137349571D01*
X96876856Y-137349571D02*
X96805428Y-137635285D01*
X96805428Y-137635285D02*
X96733999Y-137778142D01*
X96733999Y-137778142D02*
X96591142Y-137921000D01*
X96591142Y-137921000D02*
X96376856Y-137992428D01*
X96376856Y-137992428D02*
X96019713Y-137992428D01*
X97519713Y-137992428D02*
X97519713Y-136492428D01*
X97876857Y-138135285D02*
X99019714Y-138135285D01*
X100162571Y-137992428D02*
X99305428Y-137992428D01*
X99733999Y-137992428D02*
X99733999Y-136492428D01*
X99733999Y-136492428D02*
X99591142Y-136706714D01*
X99591142Y-136706714D02*
X99448285Y-136849571D01*
X99448285Y-136849571D02*
X99305428Y-136921000D01*
X93757714Y-142747000D02*
X93972000Y-142818428D01*
X93972000Y-142818428D02*
X94329142Y-142818428D01*
X94329142Y-142818428D02*
X94472000Y-142747000D01*
X94472000Y-142747000D02*
X94543428Y-142675571D01*
X94543428Y-142675571D02*
X94614857Y-142532714D01*
X94614857Y-142532714D02*
X94614857Y-142389857D01*
X94614857Y-142389857D02*
X94543428Y-142247000D01*
X94543428Y-142247000D02*
X94472000Y-142175571D01*
X94472000Y-142175571D02*
X94329142Y-142104142D01*
X94329142Y-142104142D02*
X94043428Y-142032714D01*
X94043428Y-142032714D02*
X93900571Y-141961285D01*
X93900571Y-141961285D02*
X93829142Y-141889857D01*
X93829142Y-141889857D02*
X93757714Y-141747000D01*
X93757714Y-141747000D02*
X93757714Y-141604142D01*
X93757714Y-141604142D02*
X93829142Y-141461285D01*
X93829142Y-141461285D02*
X93900571Y-141389857D01*
X93900571Y-141389857D02*
X94043428Y-141318428D01*
X94043428Y-141318428D02*
X94400571Y-141318428D01*
X94400571Y-141318428D02*
X94614857Y-141389857D01*
X96114856Y-142675571D02*
X96043428Y-142747000D01*
X96043428Y-142747000D02*
X95829142Y-142818428D01*
X95829142Y-142818428D02*
X95686285Y-142818428D01*
X95686285Y-142818428D02*
X95471999Y-142747000D01*
X95471999Y-142747000D02*
X95329142Y-142604142D01*
X95329142Y-142604142D02*
X95257713Y-142461285D01*
X95257713Y-142461285D02*
X95186285Y-142175571D01*
X95186285Y-142175571D02*
X95186285Y-141961285D01*
X95186285Y-141961285D02*
X95257713Y-141675571D01*
X95257713Y-141675571D02*
X95329142Y-141532714D01*
X95329142Y-141532714D02*
X95471999Y-141389857D01*
X95471999Y-141389857D02*
X95686285Y-141318428D01*
X95686285Y-141318428D02*
X95829142Y-141318428D01*
X95829142Y-141318428D02*
X96043428Y-141389857D01*
X96043428Y-141389857D02*
X96114856Y-141461285D01*
X96757713Y-142818428D02*
X96757713Y-141318428D01*
X97614856Y-142818428D02*
X96971999Y-141961285D01*
X97614856Y-141318428D02*
X96757713Y-142175571D01*
X97900571Y-142961285D02*
X99043428Y-142961285D01*
X100186285Y-142818428D02*
X99329142Y-142818428D01*
X99757713Y-142818428D02*
X99757713Y-141318428D01*
X99757713Y-141318428D02*
X99614856Y-141532714D01*
X99614856Y-141532714D02*
X99471999Y-141675571D01*
X99471999Y-141675571D02*
X99329142Y-141747000D01*
D10*
%TO.C,U5*%
X60208595Y-154222619D02*
X60208595Y-155032142D01*
X60208595Y-155032142D02*
X60256214Y-155127380D01*
X60256214Y-155127380D02*
X60303833Y-155175000D01*
X60303833Y-155175000D02*
X60399071Y-155222619D01*
X60399071Y-155222619D02*
X60589547Y-155222619D01*
X60589547Y-155222619D02*
X60684785Y-155175000D01*
X60684785Y-155175000D02*
X60732404Y-155127380D01*
X60732404Y-155127380D02*
X60780023Y-155032142D01*
X60780023Y-155032142D02*
X60780023Y-154222619D01*
X61732404Y-154222619D02*
X61256214Y-154222619D01*
X61256214Y-154222619D02*
X61208595Y-154698809D01*
X61208595Y-154698809D02*
X61256214Y-154651190D01*
X61256214Y-154651190D02*
X61351452Y-154603571D01*
X61351452Y-154603571D02*
X61589547Y-154603571D01*
X61589547Y-154603571D02*
X61684785Y-154651190D01*
X61684785Y-154651190D02*
X61732404Y-154698809D01*
X61732404Y-154698809D02*
X61780023Y-154794047D01*
X61780023Y-154794047D02*
X61780023Y-155032142D01*
X61780023Y-155032142D02*
X61732404Y-155127380D01*
X61732404Y-155127380D02*
X61684785Y-155175000D01*
X61684785Y-155175000D02*
X61589547Y-155222619D01*
X61589547Y-155222619D02*
X61351452Y-155222619D01*
X61351452Y-155222619D02*
X61256214Y-155175000D01*
X61256214Y-155175000D02*
X61208595Y-155127380D01*
%TO.C,C7*%
X122261333Y-149211380D02*
X122213714Y-149259000D01*
X122213714Y-149259000D02*
X122070857Y-149306619D01*
X122070857Y-149306619D02*
X121975619Y-149306619D01*
X121975619Y-149306619D02*
X121832762Y-149259000D01*
X121832762Y-149259000D02*
X121737524Y-149163761D01*
X121737524Y-149163761D02*
X121689905Y-149068523D01*
X121689905Y-149068523D02*
X121642286Y-148878047D01*
X121642286Y-148878047D02*
X121642286Y-148735190D01*
X121642286Y-148735190D02*
X121689905Y-148544714D01*
X121689905Y-148544714D02*
X121737524Y-148449476D01*
X121737524Y-148449476D02*
X121832762Y-148354238D01*
X121832762Y-148354238D02*
X121975619Y-148306619D01*
X121975619Y-148306619D02*
X122070857Y-148306619D01*
X122070857Y-148306619D02*
X122213714Y-148354238D01*
X122213714Y-148354238D02*
X122261333Y-148401857D01*
X122594667Y-148306619D02*
X123261333Y-148306619D01*
X123261333Y-148306619D02*
X122832762Y-149306619D01*
%TO.C,R9*%
X64597619Y-163615666D02*
X64121428Y-163948999D01*
X64597619Y-164187094D02*
X63597619Y-164187094D01*
X63597619Y-164187094D02*
X63597619Y-163806142D01*
X63597619Y-163806142D02*
X63645238Y-163710904D01*
X63645238Y-163710904D02*
X63692857Y-163663285D01*
X63692857Y-163663285D02*
X63788095Y-163615666D01*
X63788095Y-163615666D02*
X63930952Y-163615666D01*
X63930952Y-163615666D02*
X64026190Y-163663285D01*
X64026190Y-163663285D02*
X64073809Y-163710904D01*
X64073809Y-163710904D02*
X64121428Y-163806142D01*
X64121428Y-163806142D02*
X64121428Y-164187094D01*
X64597619Y-163139475D02*
X64597619Y-162948999D01*
X64597619Y-162948999D02*
X64550000Y-162853761D01*
X64550000Y-162853761D02*
X64502380Y-162806142D01*
X64502380Y-162806142D02*
X64359523Y-162710904D01*
X64359523Y-162710904D02*
X64169047Y-162663285D01*
X64169047Y-162663285D02*
X63788095Y-162663285D01*
X63788095Y-162663285D02*
X63692857Y-162710904D01*
X63692857Y-162710904D02*
X63645238Y-162758523D01*
X63645238Y-162758523D02*
X63597619Y-162853761D01*
X63597619Y-162853761D02*
X63597619Y-163044237D01*
X63597619Y-163044237D02*
X63645238Y-163139475D01*
X63645238Y-163139475D02*
X63692857Y-163187094D01*
X63692857Y-163187094D02*
X63788095Y-163234713D01*
X63788095Y-163234713D02*
X64026190Y-163234713D01*
X64026190Y-163234713D02*
X64121428Y-163187094D01*
X64121428Y-163187094D02*
X64169047Y-163139475D01*
X64169047Y-163139475D02*
X64216666Y-163044237D01*
X64216666Y-163044237D02*
X64216666Y-162853761D01*
X64216666Y-162853761D02*
X64169047Y-162758523D01*
X64169047Y-162758523D02*
X64121428Y-162710904D01*
X64121428Y-162710904D02*
X64026190Y-162663285D01*
%TO.C,C6*%
X113651380Y-137072666D02*
X113699000Y-137120285D01*
X113699000Y-137120285D02*
X113746619Y-137263142D01*
X113746619Y-137263142D02*
X113746619Y-137358380D01*
X113746619Y-137358380D02*
X113699000Y-137501237D01*
X113699000Y-137501237D02*
X113603761Y-137596475D01*
X113603761Y-137596475D02*
X113508523Y-137644094D01*
X113508523Y-137644094D02*
X113318047Y-137691713D01*
X113318047Y-137691713D02*
X113175190Y-137691713D01*
X113175190Y-137691713D02*
X112984714Y-137644094D01*
X112984714Y-137644094D02*
X112889476Y-137596475D01*
X112889476Y-137596475D02*
X112794238Y-137501237D01*
X112794238Y-137501237D02*
X112746619Y-137358380D01*
X112746619Y-137358380D02*
X112746619Y-137263142D01*
X112746619Y-137263142D02*
X112794238Y-137120285D01*
X112794238Y-137120285D02*
X112841857Y-137072666D01*
X112746619Y-136215523D02*
X112746619Y-136405999D01*
X112746619Y-136405999D02*
X112794238Y-136501237D01*
X112794238Y-136501237D02*
X112841857Y-136548856D01*
X112841857Y-136548856D02*
X112984714Y-136644094D01*
X112984714Y-136644094D02*
X113175190Y-136691713D01*
X113175190Y-136691713D02*
X113556142Y-136691713D01*
X113556142Y-136691713D02*
X113651380Y-136644094D01*
X113651380Y-136644094D02*
X113699000Y-136596475D01*
X113699000Y-136596475D02*
X113746619Y-136501237D01*
X113746619Y-136501237D02*
X113746619Y-136310761D01*
X113746619Y-136310761D02*
X113699000Y-136215523D01*
X113699000Y-136215523D02*
X113651380Y-136167904D01*
X113651380Y-136167904D02*
X113556142Y-136120285D01*
X113556142Y-136120285D02*
X113318047Y-136120285D01*
X113318047Y-136120285D02*
X113222809Y-136167904D01*
X113222809Y-136167904D02*
X113175190Y-136215523D01*
X113175190Y-136215523D02*
X113127571Y-136310761D01*
X113127571Y-136310761D02*
X113127571Y-136501237D01*
X113127571Y-136501237D02*
X113175190Y-136596475D01*
X113175190Y-136596475D02*
X113222809Y-136644094D01*
X113222809Y-136644094D02*
X113318047Y-136691713D01*
%TO.C,J4*%
X91345666Y-151310619D02*
X91345666Y-152024904D01*
X91345666Y-152024904D02*
X91298047Y-152167761D01*
X91298047Y-152167761D02*
X91202809Y-152263000D01*
X91202809Y-152263000D02*
X91059952Y-152310619D01*
X91059952Y-152310619D02*
X90964714Y-152310619D01*
X92250428Y-151643952D02*
X92250428Y-152310619D01*
X92012333Y-151263000D02*
X91774238Y-151977285D01*
X91774238Y-151977285D02*
X92393285Y-151977285D01*
%TO.C,R10*%
X59936142Y-150322619D02*
X59602809Y-149846428D01*
X59364714Y-150322619D02*
X59364714Y-149322619D01*
X59364714Y-149322619D02*
X59745666Y-149322619D01*
X59745666Y-149322619D02*
X59840904Y-149370238D01*
X59840904Y-149370238D02*
X59888523Y-149417857D01*
X59888523Y-149417857D02*
X59936142Y-149513095D01*
X59936142Y-149513095D02*
X59936142Y-149655952D01*
X59936142Y-149655952D02*
X59888523Y-149751190D01*
X59888523Y-149751190D02*
X59840904Y-149798809D01*
X59840904Y-149798809D02*
X59745666Y-149846428D01*
X59745666Y-149846428D02*
X59364714Y-149846428D01*
X60888523Y-150322619D02*
X60317095Y-150322619D01*
X60602809Y-150322619D02*
X60602809Y-149322619D01*
X60602809Y-149322619D02*
X60507571Y-149465476D01*
X60507571Y-149465476D02*
X60412333Y-149560714D01*
X60412333Y-149560714D02*
X60317095Y-149608333D01*
X61507571Y-149322619D02*
X61602809Y-149322619D01*
X61602809Y-149322619D02*
X61698047Y-149370238D01*
X61698047Y-149370238D02*
X61745666Y-149417857D01*
X61745666Y-149417857D02*
X61793285Y-149513095D01*
X61793285Y-149513095D02*
X61840904Y-149703571D01*
X61840904Y-149703571D02*
X61840904Y-149941666D01*
X61840904Y-149941666D02*
X61793285Y-150132142D01*
X61793285Y-150132142D02*
X61745666Y-150227380D01*
X61745666Y-150227380D02*
X61698047Y-150275000D01*
X61698047Y-150275000D02*
X61602809Y-150322619D01*
X61602809Y-150322619D02*
X61507571Y-150322619D01*
X61507571Y-150322619D02*
X61412333Y-150275000D01*
X61412333Y-150275000D02*
X61364714Y-150227380D01*
X61364714Y-150227380D02*
X61317095Y-150132142D01*
X61317095Y-150132142D02*
X61269476Y-149941666D01*
X61269476Y-149941666D02*
X61269476Y-149703571D01*
X61269476Y-149703571D02*
X61317095Y-149513095D01*
X61317095Y-149513095D02*
X61364714Y-149417857D01*
X61364714Y-149417857D02*
X61412333Y-149370238D01*
X61412333Y-149370238D02*
X61507571Y-149322619D01*
%TO.C,R13*%
X52062142Y-149560619D02*
X51728809Y-149084428D01*
X51490714Y-149560619D02*
X51490714Y-148560619D01*
X51490714Y-148560619D02*
X51871666Y-148560619D01*
X51871666Y-148560619D02*
X51966904Y-148608238D01*
X51966904Y-148608238D02*
X52014523Y-148655857D01*
X52014523Y-148655857D02*
X52062142Y-148751095D01*
X52062142Y-148751095D02*
X52062142Y-148893952D01*
X52062142Y-148893952D02*
X52014523Y-148989190D01*
X52014523Y-148989190D02*
X51966904Y-149036809D01*
X51966904Y-149036809D02*
X51871666Y-149084428D01*
X51871666Y-149084428D02*
X51490714Y-149084428D01*
X53014523Y-149560619D02*
X52443095Y-149560619D01*
X52728809Y-149560619D02*
X52728809Y-148560619D01*
X52728809Y-148560619D02*
X52633571Y-148703476D01*
X52633571Y-148703476D02*
X52538333Y-148798714D01*
X52538333Y-148798714D02*
X52443095Y-148846333D01*
X53347857Y-148560619D02*
X53966904Y-148560619D01*
X53966904Y-148560619D02*
X53633571Y-148941571D01*
X53633571Y-148941571D02*
X53776428Y-148941571D01*
X53776428Y-148941571D02*
X53871666Y-148989190D01*
X53871666Y-148989190D02*
X53919285Y-149036809D01*
X53919285Y-149036809D02*
X53966904Y-149132047D01*
X53966904Y-149132047D02*
X53966904Y-149370142D01*
X53966904Y-149370142D02*
X53919285Y-149465380D01*
X53919285Y-149465380D02*
X53871666Y-149513000D01*
X53871666Y-149513000D02*
X53776428Y-149560619D01*
X53776428Y-149560619D02*
X53490714Y-149560619D01*
X53490714Y-149560619D02*
X53395476Y-149513000D01*
X53395476Y-149513000D02*
X53347857Y-149465380D01*
%TO.C,U4*%
X115824095Y-150973619D02*
X115824095Y-151783142D01*
X115824095Y-151783142D02*
X115871714Y-151878380D01*
X115871714Y-151878380D02*
X115919333Y-151926000D01*
X115919333Y-151926000D02*
X116014571Y-151973619D01*
X116014571Y-151973619D02*
X116205047Y-151973619D01*
X116205047Y-151973619D02*
X116300285Y-151926000D01*
X116300285Y-151926000D02*
X116347904Y-151878380D01*
X116347904Y-151878380D02*
X116395523Y-151783142D01*
X116395523Y-151783142D02*
X116395523Y-150973619D01*
X117300285Y-151306952D02*
X117300285Y-151973619D01*
X117062190Y-150926000D02*
X116824095Y-151640285D01*
X116824095Y-151640285D02*
X117443142Y-151640285D01*
%TO.C,U1*%
X68326095Y-150084619D02*
X68326095Y-150894142D01*
X68326095Y-150894142D02*
X68373714Y-150989380D01*
X68373714Y-150989380D02*
X68421333Y-151037000D01*
X68421333Y-151037000D02*
X68516571Y-151084619D01*
X68516571Y-151084619D02*
X68707047Y-151084619D01*
X68707047Y-151084619D02*
X68802285Y-151037000D01*
X68802285Y-151037000D02*
X68849904Y-150989380D01*
X68849904Y-150989380D02*
X68897523Y-150894142D01*
X68897523Y-150894142D02*
X68897523Y-150084619D01*
X69897523Y-151084619D02*
X69326095Y-151084619D01*
X69611809Y-151084619D02*
X69611809Y-150084619D01*
X69611809Y-150084619D02*
X69516571Y-150227476D01*
X69516571Y-150227476D02*
X69421333Y-150322714D01*
X69421333Y-150322714D02*
X69326095Y-150370333D01*
%TO.C,U14*%
X99091905Y-162149619D02*
X99091905Y-162959142D01*
X99091905Y-162959142D02*
X99139524Y-163054380D01*
X99139524Y-163054380D02*
X99187143Y-163102000D01*
X99187143Y-163102000D02*
X99282381Y-163149619D01*
X99282381Y-163149619D02*
X99472857Y-163149619D01*
X99472857Y-163149619D02*
X99568095Y-163102000D01*
X99568095Y-163102000D02*
X99615714Y-163054380D01*
X99615714Y-163054380D02*
X99663333Y-162959142D01*
X99663333Y-162959142D02*
X99663333Y-162149619D01*
X100663333Y-163149619D02*
X100091905Y-163149619D01*
X100377619Y-163149619D02*
X100377619Y-162149619D01*
X100377619Y-162149619D02*
X100282381Y-162292476D01*
X100282381Y-162292476D02*
X100187143Y-162387714D01*
X100187143Y-162387714D02*
X100091905Y-162435333D01*
X101520476Y-162482952D02*
X101520476Y-163149619D01*
X101282381Y-162102000D02*
X101044286Y-162816285D01*
X101044286Y-162816285D02*
X101663333Y-162816285D01*
%TO.C,R12*%
X121785142Y-144734619D02*
X121451809Y-144258428D01*
X121213714Y-144734619D02*
X121213714Y-143734619D01*
X121213714Y-143734619D02*
X121594666Y-143734619D01*
X121594666Y-143734619D02*
X121689904Y-143782238D01*
X121689904Y-143782238D02*
X121737523Y-143829857D01*
X121737523Y-143829857D02*
X121785142Y-143925095D01*
X121785142Y-143925095D02*
X121785142Y-144067952D01*
X121785142Y-144067952D02*
X121737523Y-144163190D01*
X121737523Y-144163190D02*
X121689904Y-144210809D01*
X121689904Y-144210809D02*
X121594666Y-144258428D01*
X121594666Y-144258428D02*
X121213714Y-144258428D01*
X122737523Y-144734619D02*
X122166095Y-144734619D01*
X122451809Y-144734619D02*
X122451809Y-143734619D01*
X122451809Y-143734619D02*
X122356571Y-143877476D01*
X122356571Y-143877476D02*
X122261333Y-143972714D01*
X122261333Y-143972714D02*
X122166095Y-144020333D01*
X123118476Y-143829857D02*
X123166095Y-143782238D01*
X123166095Y-143782238D02*
X123261333Y-143734619D01*
X123261333Y-143734619D02*
X123499428Y-143734619D01*
X123499428Y-143734619D02*
X123594666Y-143782238D01*
X123594666Y-143782238D02*
X123642285Y-143829857D01*
X123642285Y-143829857D02*
X123689904Y-143925095D01*
X123689904Y-143925095D02*
X123689904Y-144020333D01*
X123689904Y-144020333D02*
X123642285Y-144163190D01*
X123642285Y-144163190D02*
X123070857Y-144734619D01*
X123070857Y-144734619D02*
X123689904Y-144734619D01*
%TO.C,J2*%
X104299666Y-131752619D02*
X104299666Y-132466904D01*
X104299666Y-132466904D02*
X104252047Y-132609761D01*
X104252047Y-132609761D02*
X104156809Y-132705000D01*
X104156809Y-132705000D02*
X104013952Y-132752619D01*
X104013952Y-132752619D02*
X103918714Y-132752619D01*
X104728238Y-131847857D02*
X104775857Y-131800238D01*
X104775857Y-131800238D02*
X104871095Y-131752619D01*
X104871095Y-131752619D02*
X105109190Y-131752619D01*
X105109190Y-131752619D02*
X105204428Y-131800238D01*
X105204428Y-131800238D02*
X105252047Y-131847857D01*
X105252047Y-131847857D02*
X105299666Y-131943095D01*
X105299666Y-131943095D02*
X105299666Y-132038333D01*
X105299666Y-132038333D02*
X105252047Y-132181190D01*
X105252047Y-132181190D02*
X104680619Y-132752619D01*
X104680619Y-132752619D02*
X105299666Y-132752619D01*
%TO.C,R3*%
X80605333Y-157180619D02*
X80272000Y-156704428D01*
X80033905Y-157180619D02*
X80033905Y-156180619D01*
X80033905Y-156180619D02*
X80414857Y-156180619D01*
X80414857Y-156180619D02*
X80510095Y-156228238D01*
X80510095Y-156228238D02*
X80557714Y-156275857D01*
X80557714Y-156275857D02*
X80605333Y-156371095D01*
X80605333Y-156371095D02*
X80605333Y-156513952D01*
X80605333Y-156513952D02*
X80557714Y-156609190D01*
X80557714Y-156609190D02*
X80510095Y-156656809D01*
X80510095Y-156656809D02*
X80414857Y-156704428D01*
X80414857Y-156704428D02*
X80033905Y-156704428D01*
X80938667Y-156180619D02*
X81557714Y-156180619D01*
X81557714Y-156180619D02*
X81224381Y-156561571D01*
X81224381Y-156561571D02*
X81367238Y-156561571D01*
X81367238Y-156561571D02*
X81462476Y-156609190D01*
X81462476Y-156609190D02*
X81510095Y-156656809D01*
X81510095Y-156656809D02*
X81557714Y-156752047D01*
X81557714Y-156752047D02*
X81557714Y-156990142D01*
X81557714Y-156990142D02*
X81510095Y-157085380D01*
X81510095Y-157085380D02*
X81462476Y-157133000D01*
X81462476Y-157133000D02*
X81367238Y-157180619D01*
X81367238Y-157180619D02*
X81081524Y-157180619D01*
X81081524Y-157180619D02*
X80986286Y-157133000D01*
X80986286Y-157133000D02*
X80938667Y-157085380D01*
%TO.C,SW1*%
X68569667Y-175145001D02*
X68712524Y-175192620D01*
X68712524Y-175192620D02*
X68950619Y-175192620D01*
X68950619Y-175192620D02*
X69045857Y-175145001D01*
X69045857Y-175145001D02*
X69093476Y-175097381D01*
X69093476Y-175097381D02*
X69141095Y-175002143D01*
X69141095Y-175002143D02*
X69141095Y-174906905D01*
X69141095Y-174906905D02*
X69093476Y-174811667D01*
X69093476Y-174811667D02*
X69045857Y-174764048D01*
X69045857Y-174764048D02*
X68950619Y-174716429D01*
X68950619Y-174716429D02*
X68760143Y-174668810D01*
X68760143Y-174668810D02*
X68664905Y-174621191D01*
X68664905Y-174621191D02*
X68617286Y-174573572D01*
X68617286Y-174573572D02*
X68569667Y-174478334D01*
X68569667Y-174478334D02*
X68569667Y-174383096D01*
X68569667Y-174383096D02*
X68617286Y-174287858D01*
X68617286Y-174287858D02*
X68664905Y-174240239D01*
X68664905Y-174240239D02*
X68760143Y-174192620D01*
X68760143Y-174192620D02*
X68998238Y-174192620D01*
X68998238Y-174192620D02*
X69141095Y-174240239D01*
X69474429Y-174192620D02*
X69712524Y-175192620D01*
X69712524Y-175192620D02*
X69903000Y-174478334D01*
X69903000Y-174478334D02*
X70093476Y-175192620D01*
X70093476Y-175192620D02*
X70331572Y-174192620D01*
X71236333Y-175192620D02*
X70664905Y-175192620D01*
X70950619Y-175192620D02*
X70950619Y-174192620D01*
X70950619Y-174192620D02*
X70855381Y-174335477D01*
X70855381Y-174335477D02*
X70760143Y-174430715D01*
X70760143Y-174430715D02*
X70664905Y-174478334D01*
%TO.C,R1*%
X59523333Y-170642619D02*
X59190000Y-170166428D01*
X58951905Y-170642619D02*
X58951905Y-169642619D01*
X58951905Y-169642619D02*
X59332857Y-169642619D01*
X59332857Y-169642619D02*
X59428095Y-169690238D01*
X59428095Y-169690238D02*
X59475714Y-169737857D01*
X59475714Y-169737857D02*
X59523333Y-169833095D01*
X59523333Y-169833095D02*
X59523333Y-169975952D01*
X59523333Y-169975952D02*
X59475714Y-170071190D01*
X59475714Y-170071190D02*
X59428095Y-170118809D01*
X59428095Y-170118809D02*
X59332857Y-170166428D01*
X59332857Y-170166428D02*
X58951905Y-170166428D01*
X60475714Y-170642619D02*
X59904286Y-170642619D01*
X60190000Y-170642619D02*
X60190000Y-169642619D01*
X60190000Y-169642619D02*
X60094762Y-169785476D01*
X60094762Y-169785476D02*
X59999524Y-169880714D01*
X59999524Y-169880714D02*
X59904286Y-169928333D01*
%TO.C,C4*%
X105175380Y-165875166D02*
X105223000Y-165922785D01*
X105223000Y-165922785D02*
X105270619Y-166065642D01*
X105270619Y-166065642D02*
X105270619Y-166160880D01*
X105270619Y-166160880D02*
X105223000Y-166303737D01*
X105223000Y-166303737D02*
X105127761Y-166398975D01*
X105127761Y-166398975D02*
X105032523Y-166446594D01*
X105032523Y-166446594D02*
X104842047Y-166494213D01*
X104842047Y-166494213D02*
X104699190Y-166494213D01*
X104699190Y-166494213D02*
X104508714Y-166446594D01*
X104508714Y-166446594D02*
X104413476Y-166398975D01*
X104413476Y-166398975D02*
X104318238Y-166303737D01*
X104318238Y-166303737D02*
X104270619Y-166160880D01*
X104270619Y-166160880D02*
X104270619Y-166065642D01*
X104270619Y-166065642D02*
X104318238Y-165922785D01*
X104318238Y-165922785D02*
X104365857Y-165875166D01*
X104603952Y-165018023D02*
X105270619Y-165018023D01*
X104223000Y-165256118D02*
X104937285Y-165494213D01*
X104937285Y-165494213D02*
X104937285Y-164875166D01*
%TO.C,U13*%
X109759905Y-162530619D02*
X109759905Y-163340142D01*
X109759905Y-163340142D02*
X109807524Y-163435380D01*
X109807524Y-163435380D02*
X109855143Y-163483000D01*
X109855143Y-163483000D02*
X109950381Y-163530619D01*
X109950381Y-163530619D02*
X110140857Y-163530619D01*
X110140857Y-163530619D02*
X110236095Y-163483000D01*
X110236095Y-163483000D02*
X110283714Y-163435380D01*
X110283714Y-163435380D02*
X110331333Y-163340142D01*
X110331333Y-163340142D02*
X110331333Y-162530619D01*
X111331333Y-163530619D02*
X110759905Y-163530619D01*
X111045619Y-163530619D02*
X111045619Y-162530619D01*
X111045619Y-162530619D02*
X110950381Y-162673476D01*
X110950381Y-162673476D02*
X110855143Y-162768714D01*
X110855143Y-162768714D02*
X110759905Y-162816333D01*
X111664667Y-162530619D02*
X112283714Y-162530619D01*
X112283714Y-162530619D02*
X111950381Y-162911571D01*
X111950381Y-162911571D02*
X112093238Y-162911571D01*
X112093238Y-162911571D02*
X112188476Y-162959190D01*
X112188476Y-162959190D02*
X112236095Y-163006809D01*
X112236095Y-163006809D02*
X112283714Y-163102047D01*
X112283714Y-163102047D02*
X112283714Y-163340142D01*
X112283714Y-163340142D02*
X112236095Y-163435380D01*
X112236095Y-163435380D02*
X112188476Y-163483000D01*
X112188476Y-163483000D02*
X112093238Y-163530619D01*
X112093238Y-163530619D02*
X111807524Y-163530619D01*
X111807524Y-163530619D02*
X111712286Y-163483000D01*
X111712286Y-163483000D02*
X111664667Y-163435380D01*
%TO.C,U3*%
X117348095Y-139289619D02*
X117348095Y-140099142D01*
X117348095Y-140099142D02*
X117395714Y-140194380D01*
X117395714Y-140194380D02*
X117443333Y-140242000D01*
X117443333Y-140242000D02*
X117538571Y-140289619D01*
X117538571Y-140289619D02*
X117729047Y-140289619D01*
X117729047Y-140289619D02*
X117824285Y-140242000D01*
X117824285Y-140242000D02*
X117871904Y-140194380D01*
X117871904Y-140194380D02*
X117919523Y-140099142D01*
X117919523Y-140099142D02*
X117919523Y-139289619D01*
X118300476Y-139289619D02*
X118919523Y-139289619D01*
X118919523Y-139289619D02*
X118586190Y-139670571D01*
X118586190Y-139670571D02*
X118729047Y-139670571D01*
X118729047Y-139670571D02*
X118824285Y-139718190D01*
X118824285Y-139718190D02*
X118871904Y-139765809D01*
X118871904Y-139765809D02*
X118919523Y-139861047D01*
X118919523Y-139861047D02*
X118919523Y-140099142D01*
X118919523Y-140099142D02*
X118871904Y-140194380D01*
X118871904Y-140194380D02*
X118824285Y-140242000D01*
X118824285Y-140242000D02*
X118729047Y-140289619D01*
X118729047Y-140289619D02*
X118443333Y-140289619D01*
X118443333Y-140289619D02*
X118348095Y-140242000D01*
X118348095Y-140242000D02*
X118300476Y-140194380D01*
%TO.C,C10*%
X58285142Y-172071380D02*
X58237523Y-172119000D01*
X58237523Y-172119000D02*
X58094666Y-172166619D01*
X58094666Y-172166619D02*
X57999428Y-172166619D01*
X57999428Y-172166619D02*
X57856571Y-172119000D01*
X57856571Y-172119000D02*
X57761333Y-172023761D01*
X57761333Y-172023761D02*
X57713714Y-171928523D01*
X57713714Y-171928523D02*
X57666095Y-171738047D01*
X57666095Y-171738047D02*
X57666095Y-171595190D01*
X57666095Y-171595190D02*
X57713714Y-171404714D01*
X57713714Y-171404714D02*
X57761333Y-171309476D01*
X57761333Y-171309476D02*
X57856571Y-171214238D01*
X57856571Y-171214238D02*
X57999428Y-171166619D01*
X57999428Y-171166619D02*
X58094666Y-171166619D01*
X58094666Y-171166619D02*
X58237523Y-171214238D01*
X58237523Y-171214238D02*
X58285142Y-171261857D01*
X59237523Y-172166619D02*
X58666095Y-172166619D01*
X58951809Y-172166619D02*
X58951809Y-171166619D01*
X58951809Y-171166619D02*
X58856571Y-171309476D01*
X58856571Y-171309476D02*
X58761333Y-171404714D01*
X58761333Y-171404714D02*
X58666095Y-171452333D01*
X59856571Y-171166619D02*
X59951809Y-171166619D01*
X59951809Y-171166619D02*
X60047047Y-171214238D01*
X60047047Y-171214238D02*
X60094666Y-171261857D01*
X60094666Y-171261857D02*
X60142285Y-171357095D01*
X60142285Y-171357095D02*
X60189904Y-171547571D01*
X60189904Y-171547571D02*
X60189904Y-171785666D01*
X60189904Y-171785666D02*
X60142285Y-171976142D01*
X60142285Y-171976142D02*
X60094666Y-172071380D01*
X60094666Y-172071380D02*
X60047047Y-172119000D01*
X60047047Y-172119000D02*
X59951809Y-172166619D01*
X59951809Y-172166619D02*
X59856571Y-172166619D01*
X59856571Y-172166619D02*
X59761333Y-172119000D01*
X59761333Y-172119000D02*
X59713714Y-172071380D01*
X59713714Y-172071380D02*
X59666095Y-171976142D01*
X59666095Y-171976142D02*
X59618476Y-171785666D01*
X59618476Y-171785666D02*
X59618476Y-171547571D01*
X59618476Y-171547571D02*
X59666095Y-171357095D01*
X59666095Y-171357095D02*
X59713714Y-171261857D01*
X59713714Y-171261857D02*
X59761333Y-171214238D01*
X59761333Y-171214238D02*
X59856571Y-171166619D01*
%TO.C,R8*%
X69042619Y-163615666D02*
X68566428Y-163948999D01*
X69042619Y-164187094D02*
X68042619Y-164187094D01*
X68042619Y-164187094D02*
X68042619Y-163806142D01*
X68042619Y-163806142D02*
X68090238Y-163710904D01*
X68090238Y-163710904D02*
X68137857Y-163663285D01*
X68137857Y-163663285D02*
X68233095Y-163615666D01*
X68233095Y-163615666D02*
X68375952Y-163615666D01*
X68375952Y-163615666D02*
X68471190Y-163663285D01*
X68471190Y-163663285D02*
X68518809Y-163710904D01*
X68518809Y-163710904D02*
X68566428Y-163806142D01*
X68566428Y-163806142D02*
X68566428Y-164187094D01*
X68471190Y-163044237D02*
X68423571Y-163139475D01*
X68423571Y-163139475D02*
X68375952Y-163187094D01*
X68375952Y-163187094D02*
X68280714Y-163234713D01*
X68280714Y-163234713D02*
X68233095Y-163234713D01*
X68233095Y-163234713D02*
X68137857Y-163187094D01*
X68137857Y-163187094D02*
X68090238Y-163139475D01*
X68090238Y-163139475D02*
X68042619Y-163044237D01*
X68042619Y-163044237D02*
X68042619Y-162853761D01*
X68042619Y-162853761D02*
X68090238Y-162758523D01*
X68090238Y-162758523D02*
X68137857Y-162710904D01*
X68137857Y-162710904D02*
X68233095Y-162663285D01*
X68233095Y-162663285D02*
X68280714Y-162663285D01*
X68280714Y-162663285D02*
X68375952Y-162710904D01*
X68375952Y-162710904D02*
X68423571Y-162758523D01*
X68423571Y-162758523D02*
X68471190Y-162853761D01*
X68471190Y-162853761D02*
X68471190Y-163044237D01*
X68471190Y-163044237D02*
X68518809Y-163139475D01*
X68518809Y-163139475D02*
X68566428Y-163187094D01*
X68566428Y-163187094D02*
X68661666Y-163234713D01*
X68661666Y-163234713D02*
X68852142Y-163234713D01*
X68852142Y-163234713D02*
X68947380Y-163187094D01*
X68947380Y-163187094D02*
X68995000Y-163139475D01*
X68995000Y-163139475D02*
X69042619Y-163044237D01*
X69042619Y-163044237D02*
X69042619Y-162853761D01*
X69042619Y-162853761D02*
X68995000Y-162758523D01*
X68995000Y-162758523D02*
X68947380Y-162710904D01*
X68947380Y-162710904D02*
X68852142Y-162663285D01*
X68852142Y-162663285D02*
X68661666Y-162663285D01*
X68661666Y-162663285D02*
X68566428Y-162710904D01*
X68566428Y-162710904D02*
X68518809Y-162758523D01*
X68518809Y-162758523D02*
X68471190Y-162853761D01*
%TO.C,R5*%
X106634619Y-157038166D02*
X106158428Y-157371499D01*
X106634619Y-157609594D02*
X105634619Y-157609594D01*
X105634619Y-157609594D02*
X105634619Y-157228642D01*
X105634619Y-157228642D02*
X105682238Y-157133404D01*
X105682238Y-157133404D02*
X105729857Y-157085785D01*
X105729857Y-157085785D02*
X105825095Y-157038166D01*
X105825095Y-157038166D02*
X105967952Y-157038166D01*
X105967952Y-157038166D02*
X106063190Y-157085785D01*
X106063190Y-157085785D02*
X106110809Y-157133404D01*
X106110809Y-157133404D02*
X106158428Y-157228642D01*
X106158428Y-157228642D02*
X106158428Y-157609594D01*
X105634619Y-156133404D02*
X105634619Y-156609594D01*
X105634619Y-156609594D02*
X106110809Y-156657213D01*
X106110809Y-156657213D02*
X106063190Y-156609594D01*
X106063190Y-156609594D02*
X106015571Y-156514356D01*
X106015571Y-156514356D02*
X106015571Y-156276261D01*
X106015571Y-156276261D02*
X106063190Y-156181023D01*
X106063190Y-156181023D02*
X106110809Y-156133404D01*
X106110809Y-156133404D02*
X106206047Y-156085785D01*
X106206047Y-156085785D02*
X106444142Y-156085785D01*
X106444142Y-156085785D02*
X106539380Y-156133404D01*
X106539380Y-156133404D02*
X106587000Y-156181023D01*
X106587000Y-156181023D02*
X106634619Y-156276261D01*
X106634619Y-156276261D02*
X106634619Y-156514356D01*
X106634619Y-156514356D02*
X106587000Y-156609594D01*
X106587000Y-156609594D02*
X106539380Y-156657213D01*
%TO.C,U2*%
X100330095Y-166848619D02*
X100330095Y-167658142D01*
X100330095Y-167658142D02*
X100377714Y-167753380D01*
X100377714Y-167753380D02*
X100425333Y-167801000D01*
X100425333Y-167801000D02*
X100520571Y-167848619D01*
X100520571Y-167848619D02*
X100711047Y-167848619D01*
X100711047Y-167848619D02*
X100806285Y-167801000D01*
X100806285Y-167801000D02*
X100853904Y-167753380D01*
X100853904Y-167753380D02*
X100901523Y-167658142D01*
X100901523Y-167658142D02*
X100901523Y-166848619D01*
X101330095Y-166943857D02*
X101377714Y-166896238D01*
X101377714Y-166896238D02*
X101472952Y-166848619D01*
X101472952Y-166848619D02*
X101711047Y-166848619D01*
X101711047Y-166848619D02*
X101806285Y-166896238D01*
X101806285Y-166896238D02*
X101853904Y-166943857D01*
X101853904Y-166943857D02*
X101901523Y-167039095D01*
X101901523Y-167039095D02*
X101901523Y-167134333D01*
X101901523Y-167134333D02*
X101853904Y-167277190D01*
X101853904Y-167277190D02*
X101282476Y-167848619D01*
X101282476Y-167848619D02*
X101901523Y-167848619D01*
%TO.C,C8*%
X64121380Y-154852666D02*
X64169000Y-154900285D01*
X64169000Y-154900285D02*
X64216619Y-155043142D01*
X64216619Y-155043142D02*
X64216619Y-155138380D01*
X64216619Y-155138380D02*
X64169000Y-155281237D01*
X64169000Y-155281237D02*
X64073761Y-155376475D01*
X64073761Y-155376475D02*
X63978523Y-155424094D01*
X63978523Y-155424094D02*
X63788047Y-155471713D01*
X63788047Y-155471713D02*
X63645190Y-155471713D01*
X63645190Y-155471713D02*
X63454714Y-155424094D01*
X63454714Y-155424094D02*
X63359476Y-155376475D01*
X63359476Y-155376475D02*
X63264238Y-155281237D01*
X63264238Y-155281237D02*
X63216619Y-155138380D01*
X63216619Y-155138380D02*
X63216619Y-155043142D01*
X63216619Y-155043142D02*
X63264238Y-154900285D01*
X63264238Y-154900285D02*
X63311857Y-154852666D01*
X63645190Y-154281237D02*
X63597571Y-154376475D01*
X63597571Y-154376475D02*
X63549952Y-154424094D01*
X63549952Y-154424094D02*
X63454714Y-154471713D01*
X63454714Y-154471713D02*
X63407095Y-154471713D01*
X63407095Y-154471713D02*
X63311857Y-154424094D01*
X63311857Y-154424094D02*
X63264238Y-154376475D01*
X63264238Y-154376475D02*
X63216619Y-154281237D01*
X63216619Y-154281237D02*
X63216619Y-154090761D01*
X63216619Y-154090761D02*
X63264238Y-153995523D01*
X63264238Y-153995523D02*
X63311857Y-153947904D01*
X63311857Y-153947904D02*
X63407095Y-153900285D01*
X63407095Y-153900285D02*
X63454714Y-153900285D01*
X63454714Y-153900285D02*
X63549952Y-153947904D01*
X63549952Y-153947904D02*
X63597571Y-153995523D01*
X63597571Y-153995523D02*
X63645190Y-154090761D01*
X63645190Y-154090761D02*
X63645190Y-154281237D01*
X63645190Y-154281237D02*
X63692809Y-154376475D01*
X63692809Y-154376475D02*
X63740428Y-154424094D01*
X63740428Y-154424094D02*
X63835666Y-154471713D01*
X63835666Y-154471713D02*
X64026142Y-154471713D01*
X64026142Y-154471713D02*
X64121380Y-154424094D01*
X64121380Y-154424094D02*
X64169000Y-154376475D01*
X64169000Y-154376475D02*
X64216619Y-154281237D01*
X64216619Y-154281237D02*
X64216619Y-154090761D01*
X64216619Y-154090761D02*
X64169000Y-153995523D01*
X64169000Y-153995523D02*
X64121380Y-153947904D01*
X64121380Y-153947904D02*
X64026142Y-153900285D01*
X64026142Y-153900285D02*
X63835666Y-153900285D01*
X63835666Y-153900285D02*
X63740428Y-153947904D01*
X63740428Y-153947904D02*
X63692809Y-153995523D01*
X63692809Y-153995523D02*
X63645190Y-154090761D01*
%TO.C,C3*%
X77329380Y-152566666D02*
X77377000Y-152614285D01*
X77377000Y-152614285D02*
X77424619Y-152757142D01*
X77424619Y-152757142D02*
X77424619Y-152852380D01*
X77424619Y-152852380D02*
X77377000Y-152995237D01*
X77377000Y-152995237D02*
X77281761Y-153090475D01*
X77281761Y-153090475D02*
X77186523Y-153138094D01*
X77186523Y-153138094D02*
X76996047Y-153185713D01*
X76996047Y-153185713D02*
X76853190Y-153185713D01*
X76853190Y-153185713D02*
X76662714Y-153138094D01*
X76662714Y-153138094D02*
X76567476Y-153090475D01*
X76567476Y-153090475D02*
X76472238Y-152995237D01*
X76472238Y-152995237D02*
X76424619Y-152852380D01*
X76424619Y-152852380D02*
X76424619Y-152757142D01*
X76424619Y-152757142D02*
X76472238Y-152614285D01*
X76472238Y-152614285D02*
X76519857Y-152566666D01*
X76424619Y-152233332D02*
X76424619Y-151614285D01*
X76424619Y-151614285D02*
X76805571Y-151947618D01*
X76805571Y-151947618D02*
X76805571Y-151804761D01*
X76805571Y-151804761D02*
X76853190Y-151709523D01*
X76853190Y-151709523D02*
X76900809Y-151661904D01*
X76900809Y-151661904D02*
X76996047Y-151614285D01*
X76996047Y-151614285D02*
X77234142Y-151614285D01*
X77234142Y-151614285D02*
X77329380Y-151661904D01*
X77329380Y-151661904D02*
X77377000Y-151709523D01*
X77377000Y-151709523D02*
X77424619Y-151804761D01*
X77424619Y-151804761D02*
X77424619Y-152090475D01*
X77424619Y-152090475D02*
X77377000Y-152185713D01*
X77377000Y-152185713D02*
X77329380Y-152233332D01*
%TO.C,C11*%
X110857380Y-155783857D02*
X110905000Y-155831476D01*
X110905000Y-155831476D02*
X110952619Y-155974333D01*
X110952619Y-155974333D02*
X110952619Y-156069571D01*
X110952619Y-156069571D02*
X110905000Y-156212428D01*
X110905000Y-156212428D02*
X110809761Y-156307666D01*
X110809761Y-156307666D02*
X110714523Y-156355285D01*
X110714523Y-156355285D02*
X110524047Y-156402904D01*
X110524047Y-156402904D02*
X110381190Y-156402904D01*
X110381190Y-156402904D02*
X110190714Y-156355285D01*
X110190714Y-156355285D02*
X110095476Y-156307666D01*
X110095476Y-156307666D02*
X110000238Y-156212428D01*
X110000238Y-156212428D02*
X109952619Y-156069571D01*
X109952619Y-156069571D02*
X109952619Y-155974333D01*
X109952619Y-155974333D02*
X110000238Y-155831476D01*
X110000238Y-155831476D02*
X110047857Y-155783857D01*
X110952619Y-154831476D02*
X110952619Y-155402904D01*
X110952619Y-155117190D02*
X109952619Y-155117190D01*
X109952619Y-155117190D02*
X110095476Y-155212428D01*
X110095476Y-155212428D02*
X110190714Y-155307666D01*
X110190714Y-155307666D02*
X110238333Y-155402904D01*
X110952619Y-153879095D02*
X110952619Y-154450523D01*
X110952619Y-154164809D02*
X109952619Y-154164809D01*
X109952619Y-154164809D02*
X110095476Y-154260047D01*
X110095476Y-154260047D02*
X110190714Y-154355285D01*
X110190714Y-154355285D02*
X110238333Y-154450523D01*
D12*
%TO.C,L1*%
X118959333Y-159974619D02*
X118483143Y-159974619D01*
X118483143Y-159974619D02*
X118483143Y-158974619D01*
X119816476Y-159974619D02*
X119245048Y-159974619D01*
X119530762Y-159974619D02*
X119530762Y-158974619D01*
X119530762Y-158974619D02*
X119435524Y-159117476D01*
X119435524Y-159117476D02*
X119340286Y-159212714D01*
X119340286Y-159212714D02*
X119245048Y-159260333D01*
D10*
%TO.C,R7*%
X73614619Y-163615666D02*
X73138428Y-163948999D01*
X73614619Y-164187094D02*
X72614619Y-164187094D01*
X72614619Y-164187094D02*
X72614619Y-163806142D01*
X72614619Y-163806142D02*
X72662238Y-163710904D01*
X72662238Y-163710904D02*
X72709857Y-163663285D01*
X72709857Y-163663285D02*
X72805095Y-163615666D01*
X72805095Y-163615666D02*
X72947952Y-163615666D01*
X72947952Y-163615666D02*
X73043190Y-163663285D01*
X73043190Y-163663285D02*
X73090809Y-163710904D01*
X73090809Y-163710904D02*
X73138428Y-163806142D01*
X73138428Y-163806142D02*
X73138428Y-164187094D01*
X72614619Y-163282332D02*
X72614619Y-162615666D01*
X72614619Y-162615666D02*
X73614619Y-163044237D01*
%TO.C,R11*%
X110952619Y-149994857D02*
X110476428Y-150328190D01*
X110952619Y-150566285D02*
X109952619Y-150566285D01*
X109952619Y-150566285D02*
X109952619Y-150185333D01*
X109952619Y-150185333D02*
X110000238Y-150090095D01*
X110000238Y-150090095D02*
X110047857Y-150042476D01*
X110047857Y-150042476D02*
X110143095Y-149994857D01*
X110143095Y-149994857D02*
X110285952Y-149994857D01*
X110285952Y-149994857D02*
X110381190Y-150042476D01*
X110381190Y-150042476D02*
X110428809Y-150090095D01*
X110428809Y-150090095D02*
X110476428Y-150185333D01*
X110476428Y-150185333D02*
X110476428Y-150566285D01*
X110952619Y-149042476D02*
X110952619Y-149613904D01*
X110952619Y-149328190D02*
X109952619Y-149328190D01*
X109952619Y-149328190D02*
X110095476Y-149423428D01*
X110095476Y-149423428D02*
X110190714Y-149518666D01*
X110190714Y-149518666D02*
X110238333Y-149613904D01*
X110952619Y-148090095D02*
X110952619Y-148661523D01*
X110952619Y-148375809D02*
X109952619Y-148375809D01*
X109952619Y-148375809D02*
X110095476Y-148471047D01*
X110095476Y-148471047D02*
X110190714Y-148566285D01*
X110190714Y-148566285D02*
X110238333Y-148661523D01*
%TO.C,C2*%
X75371833Y-162833380D02*
X75324214Y-162881000D01*
X75324214Y-162881000D02*
X75181357Y-162928619D01*
X75181357Y-162928619D02*
X75086119Y-162928619D01*
X75086119Y-162928619D02*
X74943262Y-162881000D01*
X74943262Y-162881000D02*
X74848024Y-162785761D01*
X74848024Y-162785761D02*
X74800405Y-162690523D01*
X74800405Y-162690523D02*
X74752786Y-162500047D01*
X74752786Y-162500047D02*
X74752786Y-162357190D01*
X74752786Y-162357190D02*
X74800405Y-162166714D01*
X74800405Y-162166714D02*
X74848024Y-162071476D01*
X74848024Y-162071476D02*
X74943262Y-161976238D01*
X74943262Y-161976238D02*
X75086119Y-161928619D01*
X75086119Y-161928619D02*
X75181357Y-161928619D01*
X75181357Y-161928619D02*
X75324214Y-161976238D01*
X75324214Y-161976238D02*
X75371833Y-162023857D01*
X75752786Y-162023857D02*
X75800405Y-161976238D01*
X75800405Y-161976238D02*
X75895643Y-161928619D01*
X75895643Y-161928619D02*
X76133738Y-161928619D01*
X76133738Y-161928619D02*
X76228976Y-161976238D01*
X76228976Y-161976238D02*
X76276595Y-162023857D01*
X76276595Y-162023857D02*
X76324214Y-162119095D01*
X76324214Y-162119095D02*
X76324214Y-162214333D01*
X76324214Y-162214333D02*
X76276595Y-162357190D01*
X76276595Y-162357190D02*
X75705167Y-162928619D01*
X75705167Y-162928619D02*
X76324214Y-162928619D01*
%TO.C,R6*%
X89456619Y-138443166D02*
X88980428Y-138776499D01*
X89456619Y-139014594D02*
X88456619Y-139014594D01*
X88456619Y-139014594D02*
X88456619Y-138633642D01*
X88456619Y-138633642D02*
X88504238Y-138538404D01*
X88504238Y-138538404D02*
X88551857Y-138490785D01*
X88551857Y-138490785D02*
X88647095Y-138443166D01*
X88647095Y-138443166D02*
X88789952Y-138443166D01*
X88789952Y-138443166D02*
X88885190Y-138490785D01*
X88885190Y-138490785D02*
X88932809Y-138538404D01*
X88932809Y-138538404D02*
X88980428Y-138633642D01*
X88980428Y-138633642D02*
X88980428Y-139014594D01*
X88456619Y-137586023D02*
X88456619Y-137776499D01*
X88456619Y-137776499D02*
X88504238Y-137871737D01*
X88504238Y-137871737D02*
X88551857Y-137919356D01*
X88551857Y-137919356D02*
X88694714Y-138014594D01*
X88694714Y-138014594D02*
X88885190Y-138062213D01*
X88885190Y-138062213D02*
X89266142Y-138062213D01*
X89266142Y-138062213D02*
X89361380Y-138014594D01*
X89361380Y-138014594D02*
X89409000Y-137966975D01*
X89409000Y-137966975D02*
X89456619Y-137871737D01*
X89456619Y-137871737D02*
X89456619Y-137681261D01*
X89456619Y-137681261D02*
X89409000Y-137586023D01*
X89409000Y-137586023D02*
X89361380Y-137538404D01*
X89361380Y-137538404D02*
X89266142Y-137490785D01*
X89266142Y-137490785D02*
X89028047Y-137490785D01*
X89028047Y-137490785D02*
X88932809Y-137538404D01*
X88932809Y-137538404D02*
X88885190Y-137586023D01*
X88885190Y-137586023D02*
X88837571Y-137681261D01*
X88837571Y-137681261D02*
X88837571Y-137871737D01*
X88837571Y-137871737D02*
X88885190Y-137966975D01*
X88885190Y-137966975D02*
X88932809Y-138014594D01*
X88932809Y-138014594D02*
X89028047Y-138062213D01*
%TO.C,C1*%
X64867833Y-151013380D02*
X64820214Y-151061000D01*
X64820214Y-151061000D02*
X64677357Y-151108619D01*
X64677357Y-151108619D02*
X64582119Y-151108619D01*
X64582119Y-151108619D02*
X64439262Y-151061000D01*
X64439262Y-151061000D02*
X64344024Y-150965761D01*
X64344024Y-150965761D02*
X64296405Y-150870523D01*
X64296405Y-150870523D02*
X64248786Y-150680047D01*
X64248786Y-150680047D02*
X64248786Y-150537190D01*
X64248786Y-150537190D02*
X64296405Y-150346714D01*
X64296405Y-150346714D02*
X64344024Y-150251476D01*
X64344024Y-150251476D02*
X64439262Y-150156238D01*
X64439262Y-150156238D02*
X64582119Y-150108619D01*
X64582119Y-150108619D02*
X64677357Y-150108619D01*
X64677357Y-150108619D02*
X64820214Y-150156238D01*
X64820214Y-150156238D02*
X64867833Y-150203857D01*
X65820214Y-151108619D02*
X65248786Y-151108619D01*
X65534500Y-151108619D02*
X65534500Y-150108619D01*
X65534500Y-150108619D02*
X65439262Y-150251476D01*
X65439262Y-150251476D02*
X65344024Y-150346714D01*
X65344024Y-150346714D02*
X65248786Y-150394333D01*
%TO.C,SW2*%
X60949667Y-175167000D02*
X61092524Y-175214619D01*
X61092524Y-175214619D02*
X61330619Y-175214619D01*
X61330619Y-175214619D02*
X61425857Y-175167000D01*
X61425857Y-175167000D02*
X61473476Y-175119380D01*
X61473476Y-175119380D02*
X61521095Y-175024142D01*
X61521095Y-175024142D02*
X61521095Y-174928904D01*
X61521095Y-174928904D02*
X61473476Y-174833666D01*
X61473476Y-174833666D02*
X61425857Y-174786047D01*
X61425857Y-174786047D02*
X61330619Y-174738428D01*
X61330619Y-174738428D02*
X61140143Y-174690809D01*
X61140143Y-174690809D02*
X61044905Y-174643190D01*
X61044905Y-174643190D02*
X60997286Y-174595571D01*
X60997286Y-174595571D02*
X60949667Y-174500333D01*
X60949667Y-174500333D02*
X60949667Y-174405095D01*
X60949667Y-174405095D02*
X60997286Y-174309857D01*
X60997286Y-174309857D02*
X61044905Y-174262238D01*
X61044905Y-174262238D02*
X61140143Y-174214619D01*
X61140143Y-174214619D02*
X61378238Y-174214619D01*
X61378238Y-174214619D02*
X61521095Y-174262238D01*
X61854429Y-174214619D02*
X62092524Y-175214619D01*
X62092524Y-175214619D02*
X62283000Y-174500333D01*
X62283000Y-174500333D02*
X62473476Y-175214619D01*
X62473476Y-175214619D02*
X62711572Y-174214619D01*
X63044905Y-174309857D02*
X63092524Y-174262238D01*
X63092524Y-174262238D02*
X63187762Y-174214619D01*
X63187762Y-174214619D02*
X63425857Y-174214619D01*
X63425857Y-174214619D02*
X63521095Y-174262238D01*
X63521095Y-174262238D02*
X63568714Y-174309857D01*
X63568714Y-174309857D02*
X63616333Y-174405095D01*
X63616333Y-174405095D02*
X63616333Y-174500333D01*
X63616333Y-174500333D02*
X63568714Y-174643190D01*
X63568714Y-174643190D02*
X62997286Y-175214619D01*
X62997286Y-175214619D02*
X63616333Y-175214619D01*
%TO.C,C13*%
X72255142Y-172071380D02*
X72207523Y-172119000D01*
X72207523Y-172119000D02*
X72064666Y-172166619D01*
X72064666Y-172166619D02*
X71969428Y-172166619D01*
X71969428Y-172166619D02*
X71826571Y-172119000D01*
X71826571Y-172119000D02*
X71731333Y-172023761D01*
X71731333Y-172023761D02*
X71683714Y-171928523D01*
X71683714Y-171928523D02*
X71636095Y-171738047D01*
X71636095Y-171738047D02*
X71636095Y-171595190D01*
X71636095Y-171595190D02*
X71683714Y-171404714D01*
X71683714Y-171404714D02*
X71731333Y-171309476D01*
X71731333Y-171309476D02*
X71826571Y-171214238D01*
X71826571Y-171214238D02*
X71969428Y-171166619D01*
X71969428Y-171166619D02*
X72064666Y-171166619D01*
X72064666Y-171166619D02*
X72207523Y-171214238D01*
X72207523Y-171214238D02*
X72255142Y-171261857D01*
X73207523Y-172166619D02*
X72636095Y-172166619D01*
X72921809Y-172166619D02*
X72921809Y-171166619D01*
X72921809Y-171166619D02*
X72826571Y-171309476D01*
X72826571Y-171309476D02*
X72731333Y-171404714D01*
X72731333Y-171404714D02*
X72636095Y-171452333D01*
X73540857Y-171166619D02*
X74159904Y-171166619D01*
X74159904Y-171166619D02*
X73826571Y-171547571D01*
X73826571Y-171547571D02*
X73969428Y-171547571D01*
X73969428Y-171547571D02*
X74064666Y-171595190D01*
X74064666Y-171595190D02*
X74112285Y-171642809D01*
X74112285Y-171642809D02*
X74159904Y-171738047D01*
X74159904Y-171738047D02*
X74159904Y-171976142D01*
X74159904Y-171976142D02*
X74112285Y-172071380D01*
X74112285Y-172071380D02*
X74064666Y-172119000D01*
X74064666Y-172119000D02*
X73969428Y-172166619D01*
X73969428Y-172166619D02*
X73683714Y-172166619D01*
X73683714Y-172166619D02*
X73588476Y-172119000D01*
X73588476Y-172119000D02*
X73540857Y-172071380D01*
%TO.C,R2*%
X72477333Y-170642619D02*
X72144000Y-170166428D01*
X71905905Y-170642619D02*
X71905905Y-169642619D01*
X71905905Y-169642619D02*
X72286857Y-169642619D01*
X72286857Y-169642619D02*
X72382095Y-169690238D01*
X72382095Y-169690238D02*
X72429714Y-169737857D01*
X72429714Y-169737857D02*
X72477333Y-169833095D01*
X72477333Y-169833095D02*
X72477333Y-169975952D01*
X72477333Y-169975952D02*
X72429714Y-170071190D01*
X72429714Y-170071190D02*
X72382095Y-170118809D01*
X72382095Y-170118809D02*
X72286857Y-170166428D01*
X72286857Y-170166428D02*
X71905905Y-170166428D01*
X72858286Y-169737857D02*
X72905905Y-169690238D01*
X72905905Y-169690238D02*
X73001143Y-169642619D01*
X73001143Y-169642619D02*
X73239238Y-169642619D01*
X73239238Y-169642619D02*
X73334476Y-169690238D01*
X73334476Y-169690238D02*
X73382095Y-169737857D01*
X73382095Y-169737857D02*
X73429714Y-169833095D01*
X73429714Y-169833095D02*
X73429714Y-169928333D01*
X73429714Y-169928333D02*
X73382095Y-170071190D01*
X73382095Y-170071190D02*
X72810667Y-170642619D01*
X72810667Y-170642619D02*
X73429714Y-170642619D01*
%TO.C,R4*%
X81113333Y-153624619D02*
X80780000Y-153148428D01*
X80541905Y-153624619D02*
X80541905Y-152624619D01*
X80541905Y-152624619D02*
X80922857Y-152624619D01*
X80922857Y-152624619D02*
X81018095Y-152672238D01*
X81018095Y-152672238D02*
X81065714Y-152719857D01*
X81065714Y-152719857D02*
X81113333Y-152815095D01*
X81113333Y-152815095D02*
X81113333Y-152957952D01*
X81113333Y-152957952D02*
X81065714Y-153053190D01*
X81065714Y-153053190D02*
X81018095Y-153100809D01*
X81018095Y-153100809D02*
X80922857Y-153148428D01*
X80922857Y-153148428D02*
X80541905Y-153148428D01*
X81970476Y-152957952D02*
X81970476Y-153624619D01*
X81732381Y-152577000D02*
X81494286Y-153291285D01*
X81494286Y-153291285D02*
X82113333Y-153291285D01*
%TO.C,C12*%
X104253380Y-161070357D02*
X104301000Y-161117976D01*
X104301000Y-161117976D02*
X104348619Y-161260833D01*
X104348619Y-161260833D02*
X104348619Y-161356071D01*
X104348619Y-161356071D02*
X104301000Y-161498928D01*
X104301000Y-161498928D02*
X104205761Y-161594166D01*
X104205761Y-161594166D02*
X104110523Y-161641785D01*
X104110523Y-161641785D02*
X103920047Y-161689404D01*
X103920047Y-161689404D02*
X103777190Y-161689404D01*
X103777190Y-161689404D02*
X103586714Y-161641785D01*
X103586714Y-161641785D02*
X103491476Y-161594166D01*
X103491476Y-161594166D02*
X103396238Y-161498928D01*
X103396238Y-161498928D02*
X103348619Y-161356071D01*
X103348619Y-161356071D02*
X103348619Y-161260833D01*
X103348619Y-161260833D02*
X103396238Y-161117976D01*
X103396238Y-161117976D02*
X103443857Y-161070357D01*
X104348619Y-160117976D02*
X104348619Y-160689404D01*
X104348619Y-160403690D02*
X103348619Y-160403690D01*
X103348619Y-160403690D02*
X103491476Y-160498928D01*
X103491476Y-160498928D02*
X103586714Y-160594166D01*
X103586714Y-160594166D02*
X103634333Y-160689404D01*
X103443857Y-159737023D02*
X103396238Y-159689404D01*
X103396238Y-159689404D02*
X103348619Y-159594166D01*
X103348619Y-159594166D02*
X103348619Y-159356071D01*
X103348619Y-159356071D02*
X103396238Y-159260833D01*
X103396238Y-159260833D02*
X103443857Y-159213214D01*
X103443857Y-159213214D02*
X103539095Y-159165595D01*
X103539095Y-159165595D02*
X103634333Y-159165595D01*
X103634333Y-159165595D02*
X103777190Y-159213214D01*
X103777190Y-159213214D02*
X104348619Y-159784642D01*
X104348619Y-159784642D02*
X104348619Y-159165595D01*
D13*
%TO.C,J1*%
X51248000Y-173482000D02*
X51248000Y-163262000D01*
X51248000Y-176082000D02*
X51248000Y-174752000D01*
X52578000Y-176082000D02*
X51248000Y-176082000D01*
X53848000Y-173482000D02*
X51248000Y-173482000D01*
X53848000Y-176082000D02*
X53848000Y-173482000D01*
X56448000Y-163262000D02*
X51248000Y-163262000D01*
X56448000Y-176082000D02*
X53848000Y-176082000D01*
X56448000Y-176082000D02*
X56448000Y-163262000D01*
%TO.C,U5*%
X60970500Y-155600000D02*
X59170500Y-155600000D01*
X60970500Y-155600000D02*
X61770500Y-155600000D01*
X60970500Y-158720000D02*
X60170500Y-158720000D01*
X60970500Y-158720000D02*
X61770500Y-158720000D01*
%TO.C,C7*%
X122574267Y-146306000D02*
X122281733Y-146306000D01*
X122574267Y-145286000D02*
X122281733Y-145286000D01*
%TO.C,R9*%
X63640000Y-166221767D02*
X63640000Y-165929233D01*
X64660000Y-166221767D02*
X64660000Y-165929233D01*
%TO.C,C6*%
X113794000Y-139553733D02*
X113794000Y-139846267D01*
X112774000Y-139553733D02*
X112774000Y-139846267D01*
%TO.C,J4*%
X94279000Y-172718000D02*
X94279000Y-173288000D01*
X94279000Y-170178000D02*
X94279000Y-171198000D01*
X94279000Y-167638000D02*
X94279000Y-168658000D01*
X94279000Y-165098000D02*
X94279000Y-166118000D01*
X94279000Y-162558000D02*
X94279000Y-163578000D01*
X94279000Y-160018000D02*
X94279000Y-161038000D01*
X94279000Y-157478000D02*
X94279000Y-158498000D01*
X94279000Y-154938000D02*
X94279000Y-155958000D01*
X94279000Y-152848000D02*
X94279000Y-153418000D01*
X89079000Y-173288000D02*
X94279000Y-173288000D01*
X89079000Y-172718000D02*
X89079000Y-173288000D01*
X89079000Y-170178000D02*
X89079000Y-171198000D01*
X89079000Y-167638000D02*
X89079000Y-168658000D01*
X89079000Y-165098000D02*
X89079000Y-166118000D01*
X89079000Y-162558000D02*
X89079000Y-163578000D01*
X89079000Y-160018000D02*
X89079000Y-161038000D01*
X89079000Y-157478000D02*
X89079000Y-158498000D01*
X89079000Y-154938000D02*
X89079000Y-155958000D01*
X89079000Y-152848000D02*
X94279000Y-152848000D01*
X89079000Y-152848000D02*
X89079000Y-153418000D01*
X87639000Y-153418000D02*
X89079000Y-153418000D01*
%TO.C,R10*%
X60196000Y-151403267D02*
X60196000Y-151110733D01*
X61216000Y-151403267D02*
X61216000Y-151110733D01*
%TO.C,R13*%
X52951767Y-151259000D02*
X52659233Y-151259000D01*
X52951767Y-150239000D02*
X52659233Y-150239000D01*
D14*
%TO.C,U4*%
X114395250Y-150583900D02*
X118637050Y-150583900D01*
X118637050Y-145326100D02*
X114395250Y-145326100D01*
D13*
%TO.C,U1*%
X74079000Y-160004000D02*
X74079000Y-159704000D01*
X74079000Y-159704000D02*
X75394000Y-159704000D01*
X74079000Y-152784000D02*
X74079000Y-153084000D01*
X73779000Y-160004000D02*
X74079000Y-160004000D01*
X73779000Y-152784000D02*
X74079000Y-152784000D01*
X67159000Y-160004000D02*
X66859000Y-160004000D01*
X67159000Y-152784000D02*
X66859000Y-152784000D01*
X66859000Y-160004000D02*
X66859000Y-159704000D01*
X66859000Y-152784000D02*
X66859000Y-153084000D01*
D15*
%TO.C,U14*%
X100930000Y-158314000D02*
G75*
G03*
X100930000Y-158314000I-100000J0D01*
G01*
D16*
X99210000Y-159274000D02*
X99210000Y-161274000D01*
X101450000Y-159274000D02*
X101450000Y-161274000D01*
D13*
%TO.C,R12*%
X122281733Y-146810000D02*
X122574267Y-146810000D01*
X122281733Y-147830000D02*
X122574267Y-147830000D01*
%TO.C,J2*%
X107233000Y-153160000D02*
X107233000Y-153730000D01*
X107233000Y-150620000D02*
X107233000Y-151640000D01*
X107233000Y-148080000D02*
X107233000Y-149100000D01*
X107233000Y-145540000D02*
X107233000Y-146560000D01*
X107233000Y-143000000D02*
X107233000Y-144020000D01*
X107233000Y-140460000D02*
X107233000Y-141480000D01*
X107233000Y-137920000D02*
X107233000Y-138940000D01*
X107233000Y-135380000D02*
X107233000Y-136400000D01*
X107233000Y-133290000D02*
X107233000Y-133860000D01*
X102033000Y-153730000D02*
X107233000Y-153730000D01*
X102033000Y-153160000D02*
X102033000Y-153730000D01*
X102033000Y-150620000D02*
X102033000Y-151640000D01*
X102033000Y-148080000D02*
X102033000Y-149100000D01*
X102033000Y-145540000D02*
X102033000Y-146560000D01*
X102033000Y-143000000D02*
X102033000Y-144020000D01*
X102033000Y-140460000D02*
X102033000Y-141480000D01*
X102033000Y-137920000D02*
X102033000Y-138940000D01*
X102033000Y-135380000D02*
X102033000Y-136400000D01*
X102033000Y-133290000D02*
X107233000Y-133290000D01*
X102033000Y-133290000D02*
X102033000Y-133860000D01*
X100593000Y-133860000D02*
X102033000Y-133860000D01*
%TO.C,R3*%
X83865767Y-157228000D02*
X83573233Y-157228000D01*
X83865767Y-156208000D02*
X83573233Y-156208000D01*
D14*
%TO.C,SW1*%
X68023400Y-172825001D02*
X68023400Y-173327060D01*
X68023400Y-174652940D02*
X68023400Y-174807062D01*
X68023400Y-176132942D02*
X68023400Y-176635001D01*
X68023400Y-176635001D02*
X71782600Y-176635001D01*
X71782600Y-172825001D02*
X68023400Y-172825001D01*
X71782600Y-173327060D02*
X71782600Y-172825001D01*
X71782600Y-174807062D02*
X71782600Y-174652940D01*
X71782600Y-176635001D02*
X71782600Y-176132942D01*
X65819500Y-173990001D02*
G75*
G03*
X65819500Y-173990001I-101600J0D01*
G01*
D13*
%TO.C,J5*%
X77410000Y-139132000D02*
X78740000Y-139132000D01*
X77410000Y-140462000D02*
X77410000Y-139132000D01*
X77410000Y-141732000D02*
X77410000Y-144332000D01*
X77410000Y-141732000D02*
X80070000Y-141732000D01*
X77410000Y-144332000D02*
X80070000Y-144332000D01*
X80070000Y-141732000D02*
X80070000Y-144332000D01*
D16*
%TO.C,BT1*%
X52718710Y-136144000D02*
X52718710Y-132334000D01*
X52718710Y-147574000D02*
X52718710Y-143764000D01*
X73798710Y-132334000D02*
X73798710Y-136144000D01*
X73798710Y-143764000D02*
X73798710Y-147574000D01*
D15*
X53200129Y-147154000D02*
G75*
G03*
X53200129Y-147154000I-141419J0D01*
G01*
D13*
%TO.C,R1*%
X62036233Y-169670000D02*
X62328767Y-169670000D01*
X62036233Y-170690000D02*
X62328767Y-170690000D01*
%TO.C,C4*%
X103888000Y-165562233D02*
X103888000Y-165854767D01*
X102868000Y-165562233D02*
X102868000Y-165854767D01*
%TO.C,U13*%
G36*
X111696500Y-156959300D02*
G01*
X111315500Y-156959300D01*
X111315500Y-156705300D01*
X111696500Y-156705300D01*
X111696500Y-156959300D01*
G37*
G36*
X111188500Y-162318700D02*
G01*
X110807500Y-162318700D01*
X110807500Y-162064700D01*
X111188500Y-162064700D01*
X111188500Y-162318700D01*
G37*
D14*
X112864900Y-161632900D02*
X112864900Y-161216340D01*
X112864900Y-157807660D02*
X112864900Y-157391100D01*
X112864900Y-157391100D02*
X112448340Y-157391100D01*
X112448340Y-161632900D02*
X112864900Y-161632900D01*
X109039660Y-157391100D02*
X108623100Y-157391100D01*
X108623100Y-161632900D02*
X109039660Y-161632900D01*
X108623100Y-161216340D02*
X108623100Y-161632900D01*
X108623100Y-157391100D02*
X108623100Y-157807660D01*
D12*
%TO.C,U3*%
X114291000Y-138509000D02*
X114291000Y-138259000D01*
X114291000Y-141059000D02*
X114291000Y-140909000D01*
X114291000Y-141069000D02*
X114441000Y-141069000D01*
X116841000Y-138359000D02*
X116991000Y-138359000D01*
X116991000Y-138359000D02*
X116991000Y-138509000D01*
X116991000Y-141059000D02*
X116841000Y-141059000D01*
X116991000Y-141059000D02*
X116991000Y-140909000D01*
D13*
%TO.C,Q1*%
X74054000Y-165247000D02*
X74054000Y-166657000D01*
X76384000Y-166657000D02*
X75714000Y-166657000D01*
X76374000Y-166657000D02*
X76374000Y-163922000D01*
X74714000Y-166657000D02*
X74054000Y-166657000D01*
%TO.C,C10*%
X61983233Y-171194000D02*
X62275767Y-171194000D01*
X61983233Y-172214000D02*
X62275767Y-172214000D01*
%TO.C,R8*%
X68100000Y-166108767D02*
X68100000Y-165816233D01*
X69120000Y-166108767D02*
X69120000Y-165816233D01*
%TO.C,R5*%
X106932000Y-157017767D02*
X106932000Y-156725233D01*
X107952000Y-157017767D02*
X107952000Y-156725233D01*
D14*
%TO.C,U2*%
X99237900Y-165208000D02*
G75*
G03*
X99237900Y-165208000I-101600J0D01*
G01*
X102019100Y-164680900D02*
X100164900Y-164680900D01*
X100164900Y-166535100D02*
X102019100Y-166535100D01*
D13*
%TO.C,C8*%
X63244000Y-157372267D02*
X63244000Y-157079733D01*
X64264000Y-157372267D02*
X64264000Y-157079733D01*
%TO.C,C3*%
X76309000Y-155370767D02*
X76309000Y-155078233D01*
X77329000Y-155370767D02*
X77329000Y-155078233D01*
%TO.C,C11*%
X111250000Y-155186767D02*
X111250000Y-154894233D01*
X112270000Y-155186767D02*
X112270000Y-154894233D01*
D12*
%TO.C,L1*%
X126098000Y-156708000D02*
X127498000Y-156708000D01*
X127498000Y-156708000D02*
X127498000Y-163108000D01*
X127498000Y-163108000D02*
X126098000Y-163108000D01*
X126098000Y-163108000D02*
X126098000Y-156708000D01*
D16*
%TO.C,J3*%
X50054000Y-161557000D02*
X51434000Y-161557000D01*
X50054000Y-161557000D02*
X50054000Y-152617000D01*
X55464000Y-161557000D02*
X53874000Y-161557000D01*
X50054000Y-152617000D02*
X51434000Y-152617000D01*
X55464000Y-152617000D02*
X53874000Y-152617000D01*
D13*
%TO.C,R7*%
X72530000Y-166168767D02*
X72530000Y-165876233D01*
X73550000Y-166168767D02*
X73550000Y-165876233D01*
%TO.C,Q2*%
X69594000Y-165247000D02*
X69594000Y-166657000D01*
X71924000Y-166657000D02*
X71254000Y-166657000D01*
X71914000Y-166657000D02*
X71914000Y-163922000D01*
X70254000Y-166657000D02*
X69594000Y-166657000D01*
%TO.C,R11*%
X111250000Y-149598767D02*
X111250000Y-149306233D01*
X112270000Y-149598767D02*
X112270000Y-149306233D01*
%TO.C,C2*%
X75684767Y-161546000D02*
X75392233Y-161546000D01*
X75684767Y-160526000D02*
X75392233Y-160526000D01*
D15*
%TO.C,SW4*%
X79976000Y-133350000D02*
G75*
G03*
X79976000Y-133350000I-450000J0D01*
G01*
X82976000Y-133350000D02*
G75*
G03*
X82976000Y-133350000I-450000J0D01*
G01*
D13*
%TO.C,R6*%
X89914000Y-138422767D02*
X89914000Y-138130233D01*
X90934000Y-138422767D02*
X90934000Y-138130233D01*
%TO.C,C1*%
X64888233Y-151566000D02*
X65180767Y-151566000D01*
X64888233Y-152586000D02*
X65180767Y-152586000D01*
D14*
%TO.C,SW2*%
X60403400Y-172847000D02*
X60403400Y-173349059D01*
X60403400Y-174674939D02*
X60403400Y-174829061D01*
X60403400Y-176154941D02*
X60403400Y-176657000D01*
X60403400Y-176657000D02*
X64162600Y-176657000D01*
X64162600Y-172847000D02*
X60403400Y-172847000D01*
X64162600Y-173349059D02*
X64162600Y-172847000D01*
X64162600Y-174829061D02*
X64162600Y-174674939D01*
X64162600Y-176657000D02*
X64162600Y-176154941D01*
X58199500Y-174012000D02*
G75*
G03*
X58199500Y-174012000I-101600J0D01*
G01*
D13*
%TO.C,C13*%
X69857233Y-171194000D02*
X70149767Y-171194000D01*
X69857233Y-172214000D02*
X70149767Y-172214000D01*
D15*
%TO.C,SW3*%
X90076000Y-133357000D02*
G75*
G03*
X90076000Y-133357000I-450000J0D01*
G01*
X93076000Y-133357000D02*
G75*
G03*
X93076000Y-133357000I-450000J0D01*
G01*
D13*
%TO.C,R2*%
X69857233Y-169670000D02*
X70149767Y-169670000D01*
X69857233Y-170690000D02*
X70149767Y-170690000D01*
%TO.C,R4*%
X84066767Y-153672000D02*
X83774233Y-153672000D01*
X84066767Y-152652000D02*
X83774233Y-152652000D01*
%TO.C,Q3*%
X65276000Y-165247000D02*
X65276000Y-166657000D01*
X67606000Y-166657000D02*
X66936000Y-166657000D01*
X67596000Y-166657000D02*
X67596000Y-163922000D01*
X65936000Y-166657000D02*
X65276000Y-166657000D01*
%TO.C,C12*%
X102106000Y-160573767D02*
X102106000Y-160281233D01*
X103126000Y-160573767D02*
X103126000Y-160281233D01*
%TD*%
M02*
