%TF.GenerationSoftware,KiCad,Pcbnew,7.0.2*%
%TF.CreationDate,2023-06-14T22:38:02-04:00*%
%TF.ProjectId,WeatherPill,57656174-6865-4725-9069-6c6c2e6b6963,rev?*%
%TF.SameCoordinates,Original*%
%TF.FileFunction,Paste,Top*%
%TF.FilePolarity,Positive*%
%FSLAX46Y46*%
G04 Gerber Fmt 4.6, Leading zero omitted, Abs format (unit mm)*
G04 Created by KiCad (PCBNEW 7.0.2) date 2023-06-14 22:38:02*
%MOMM*%
%LPD*%
G01*
G04 APERTURE LIST*
G04 Aperture macros list*
%AMRoundRect*
0 Rectangle with rounded corners*
0 $1 Rounding radius*
0 $2 $3 $4 $5 $6 $7 $8 $9 X,Y pos of 4 corners*
0 Add a 4 corners polygon primitive as box body*
4,1,4,$2,$3,$4,$5,$6,$7,$8,$9,$2,$3,0*
0 Add four circle primitives for the rounded corners*
1,1,$1+$1,$2,$3*
1,1,$1+$1,$4,$5*
1,1,$1+$1,$6,$7*
1,1,$1+$1,$8,$9*
0 Add four rect primitives between the rounded corners*
20,1,$1+$1,$2,$3,$4,$5,0*
20,1,$1+$1,$4,$5,$6,$7,0*
20,1,$1+$1,$6,$7,$8,$9,0*
20,1,$1+$1,$8,$9,$2,$3,0*%
G04 Aperture macros list end*
%ADD10RoundRect,0.150000X-0.512500X-0.150000X0.512500X-0.150000X0.512500X0.150000X-0.512500X0.150000X0*%
%ADD11RoundRect,0.237500X0.300000X0.237500X-0.300000X0.237500X-0.300000X-0.237500X0.300000X-0.237500X0*%
%ADD12RoundRect,0.237500X0.237500X-0.300000X0.237500X0.300000X-0.237500X0.300000X-0.237500X-0.300000X0*%
%ADD13RoundRect,0.237500X-0.237500X0.300000X-0.237500X-0.300000X0.237500X-0.300000X0.237500X0.300000X0*%
%ADD14R,3.150000X1.000000*%
%ADD15R,1.460500X0.558800*%
%ADD16RoundRect,0.125000X0.625000X0.125000X-0.625000X0.125000X-0.625000X-0.125000X0.625000X-0.125000X0*%
%ADD17RoundRect,0.125000X0.125000X0.625000X-0.125000X0.625000X-0.125000X-0.625000X0.125000X-0.625000X0*%
%ADD18R,1.600000X0.700000*%
%ADD19RoundRect,0.014000X-0.161000X0.361000X-0.161000X-0.361000X0.161000X-0.361000X0.161000X0.361000X0*%
%ADD20RoundRect,0.237500X-0.300000X-0.237500X0.300000X-0.237500X0.300000X0.237500X-0.300000X0.237500X0*%
%ADD21R,1.244600X0.660400*%
%ADD22R,2.790000X5.080000*%
%ADD23C,17.780000*%
%ADD24R,2.387600X2.387600*%
%ADD25R,0.203200X0.711200*%
%ADD26R,0.711200X0.203200*%
%ADD27R,0.350000X0.500000*%
%ADD28R,0.450000X1.500000*%
%ADD29R,0.711200X0.304800*%
%ADD30R,0.508000X1.092200*%
%ADD31R,1.140000X0.300000*%
%ADD32R,1.140000X0.600000*%
%ADD33R,1.000000X0.800000*%
%ADD34R,0.700000X1.100000*%
G04 APERTURE END LIST*
D10*
%TO.C,U5*%
X59833000Y-156210000D03*
X59833000Y-157160000D03*
X59833000Y-158110000D03*
X62108000Y-158110000D03*
X62108000Y-157160000D03*
X62108000Y-156210000D03*
%TD*%
D11*
%TO.C,C7*%
X123290500Y-145796000D03*
X121565500Y-145796000D03*
%TD*%
D12*
%TO.C,R9*%
X64150000Y-166938000D03*
X64150000Y-165213000D03*
%TD*%
D13*
%TO.C,C6*%
X113284000Y-138837500D03*
X113284000Y-140562500D03*
%TD*%
D14*
%TO.C,J4*%
X94204000Y-171958000D03*
X89154000Y-171958000D03*
X94204000Y-169418000D03*
X89154000Y-169418000D03*
X94204000Y-166878000D03*
X89154000Y-166878000D03*
X94204000Y-164338000D03*
X89154000Y-164338000D03*
X94204000Y-161798000D03*
X89154000Y-161798000D03*
X94204000Y-159258000D03*
X89154000Y-159258000D03*
X94204000Y-156718000D03*
X89154000Y-156718000D03*
X94204000Y-154178000D03*
X89154000Y-154178000D03*
%TD*%
D12*
%TO.C,R10*%
X60706000Y-152119500D03*
X60706000Y-150394500D03*
%TD*%
D11*
%TO.C,R13*%
X53668000Y-150749000D03*
X51943000Y-150749000D03*
%TD*%
D15*
%TO.C,U4*%
X113792000Y-146050000D03*
X113792000Y-147320000D03*
X113792000Y-148590000D03*
X113792000Y-149860000D03*
X119240300Y-149860000D03*
X119240300Y-148590000D03*
X119240300Y-147320000D03*
X119240300Y-146050000D03*
%TD*%
D16*
%TO.C,U1*%
X74644000Y-159194000D03*
X74644000Y-158394000D03*
X74644000Y-157594000D03*
X74644000Y-156794000D03*
X74644000Y-155994000D03*
X74644000Y-155194000D03*
X74644000Y-154394000D03*
X74644000Y-153594000D03*
D17*
X73269000Y-152219000D03*
X72469000Y-152219000D03*
X71669000Y-152219000D03*
X70869000Y-152219000D03*
X70069000Y-152219000D03*
X69269000Y-152219000D03*
X68469000Y-152219000D03*
X67669000Y-152219000D03*
D16*
X66294000Y-153594000D03*
X66294000Y-154394000D03*
X66294000Y-155194000D03*
X66294000Y-155994000D03*
X66294000Y-156794000D03*
X66294000Y-157594000D03*
X66294000Y-158394000D03*
X66294000Y-159194000D03*
D17*
X67669000Y-160569000D03*
X68469000Y-160569000D03*
X69269000Y-160569000D03*
X70069000Y-160569000D03*
X70869000Y-160569000D03*
X71669000Y-160569000D03*
X72469000Y-160569000D03*
X73269000Y-160569000D03*
%TD*%
D18*
%TO.C,U14*%
X100330000Y-160274000D03*
D19*
X100830000Y-161244000D03*
X99830000Y-161244000D03*
X99830000Y-159304000D03*
X100830000Y-159304000D03*
%TD*%
D20*
%TO.C,R12*%
X121565500Y-147320000D03*
X123290500Y-147320000D03*
%TD*%
D14*
%TO.C,J2*%
X107158000Y-152400000D03*
X102108000Y-152400000D03*
X107158000Y-149860000D03*
X102108000Y-149860000D03*
X107158000Y-147320000D03*
X102108000Y-147320000D03*
X107158000Y-144780000D03*
X102108000Y-144780000D03*
X107158000Y-142240000D03*
X102108000Y-142240000D03*
X107158000Y-139700000D03*
X102108000Y-139700000D03*
X107158000Y-137160000D03*
X102108000Y-137160000D03*
X107158000Y-134620000D03*
X102108000Y-134620000D03*
%TD*%
D11*
%TO.C,R3*%
X84582000Y-156718000D03*
X82857000Y-156718000D03*
%TD*%
D21*
%TO.C,SW1*%
X67871000Y-173990000D03*
X71935000Y-173990000D03*
X67871000Y-175470002D03*
X71935000Y-175470002D03*
%TD*%
D22*
%TO.C,BT1*%
X52273710Y-139954000D03*
X74243710Y-139954000D03*
D23*
X63258710Y-139954000D03*
%TD*%
D20*
%TO.C,R1*%
X61320000Y-170180000D03*
X63045000Y-170180000D03*
%TD*%
D13*
%TO.C,C4*%
X103378000Y-164846000D03*
X103378000Y-166571000D03*
%TD*%
D24*
%TO.C,U13*%
X110744000Y-159512000D03*
D25*
X109474000Y-157568900D03*
X109982000Y-157568900D03*
X110490000Y-157568900D03*
X110998000Y-157568900D03*
X111506000Y-157568900D03*
X112014000Y-157568900D03*
D26*
X112687100Y-158242000D03*
X112687100Y-158750000D03*
X112687100Y-159258000D03*
X112687100Y-159766000D03*
X112687100Y-160274000D03*
X112687100Y-160782000D03*
D25*
X112014000Y-161455100D03*
X111506000Y-161455100D03*
X110998000Y-161455100D03*
X110490000Y-161455100D03*
X109982000Y-161455100D03*
X109474000Y-161455100D03*
D26*
X108800900Y-160782000D03*
X108800900Y-160274000D03*
X108800900Y-159766000D03*
X108800900Y-159258000D03*
X108800900Y-158750000D03*
X108800900Y-158242000D03*
%TD*%
D27*
%TO.C,U3*%
X114666000Y-138684000D03*
X115316000Y-138684000D03*
X115966000Y-138684000D03*
X116616000Y-138684000D03*
X116616000Y-140734000D03*
X115966000Y-140734000D03*
X115316000Y-140734000D03*
X114666000Y-140734000D03*
%TD*%
D28*
%TO.C,Q1*%
X75864000Y-164592000D03*
X74564000Y-164592000D03*
X75214000Y-167252000D03*
%TD*%
D20*
%TO.C,C10*%
X61267000Y-171704000D03*
X62992000Y-171704000D03*
%TD*%
D12*
%TO.C,R8*%
X68610000Y-166825000D03*
X68610000Y-165100000D03*
%TD*%
%TO.C,R5*%
X107442000Y-157734000D03*
X107442000Y-156009000D03*
%TD*%
D29*
%TO.C,U2*%
X101841300Y-165208001D03*
X101841300Y-166007999D03*
X100342700Y-166007999D03*
X100342700Y-165208001D03*
D30*
X101092000Y-165608000D03*
%TD*%
D12*
%TO.C,C8*%
X63754000Y-158088500D03*
X63754000Y-156363500D03*
%TD*%
%TO.C,C3*%
X76819000Y-156087000D03*
X76819000Y-154362000D03*
%TD*%
%TO.C,C11*%
X111760000Y-155903000D03*
X111760000Y-154178000D03*
%TD*%
D31*
%TO.C,J3*%
X57404000Y-155337000D03*
X57404000Y-156337000D03*
X57404000Y-157837000D03*
X57404000Y-158837000D03*
D32*
X57404000Y-159487000D03*
X57404000Y-160287000D03*
D31*
X57404000Y-158337000D03*
X57404000Y-157337000D03*
X57404000Y-156837000D03*
X57404000Y-155837000D03*
D32*
X57404000Y-154687000D03*
X57404000Y-153887000D03*
%TD*%
D12*
%TO.C,R7*%
X73040000Y-166885000D03*
X73040000Y-165160000D03*
%TD*%
D28*
%TO.C,Q2*%
X71404000Y-164592000D03*
X70104000Y-164592000D03*
X70754000Y-167252000D03*
%TD*%
D12*
%TO.C,R11*%
X111760000Y-150315000D03*
X111760000Y-148590000D03*
%TD*%
D11*
%TO.C,C2*%
X76401000Y-161036000D03*
X74676000Y-161036000D03*
%TD*%
D33*
%TO.C,SW4*%
X77276000Y-132200000D03*
X77276000Y-134500000D03*
X84776000Y-132200000D03*
X84776000Y-134500000D03*
D34*
X83276000Y-135400000D03*
X80276000Y-135400000D03*
X78776000Y-135400000D03*
%TD*%
D12*
%TO.C,R6*%
X90424000Y-139139000D03*
X90424000Y-137414000D03*
%TD*%
D20*
%TO.C,C1*%
X64172000Y-152076000D03*
X65897000Y-152076000D03*
%TD*%
D21*
%TO.C,SW2*%
X60251000Y-174011999D03*
X64315000Y-174011999D03*
X60251000Y-175492001D03*
X64315000Y-175492001D03*
%TD*%
D20*
%TO.C,C13*%
X69141000Y-171704000D03*
X70866000Y-171704000D03*
%TD*%
D33*
%TO.C,SW3*%
X87376000Y-132207000D03*
X87376000Y-134507000D03*
X94876000Y-132207000D03*
X94876000Y-134507000D03*
D34*
X93376000Y-135407000D03*
X90376000Y-135407000D03*
X88876000Y-135407000D03*
%TD*%
D20*
%TO.C,R2*%
X69141000Y-170180000D03*
X70866000Y-170180000D03*
%TD*%
D11*
%TO.C,R4*%
X84783000Y-153162000D03*
X83058000Y-153162000D03*
%TD*%
D28*
%TO.C,Q3*%
X67086000Y-164592000D03*
X65786000Y-164592000D03*
X66436000Y-167252000D03*
%TD*%
D12*
%TO.C,C12*%
X102616000Y-161290000D03*
X102616000Y-159565000D03*
%TD*%
M02*
